<?xml version="1.0" encoding="UTF-8"?>
<svg id="Layer_2" xmlns="http://www.w3.org/2000/svg" viewBox="0 0 53.67 96.06">
  <defs>
    <style>
      .cls-1 {
        fill: #fff;
      }
    </style>
  </defs>
  <g id="Layer_1-2" data-name="Layer_1">
    <g>
      <path d="M.17,73.81c-.06-1.85-.25-3.29-.13-4.7.33-3.66.71-7.32,1.25-10.96.23-1.56.8-3.09,1.42-4.55.73-1.73,2.36-2.19,3.92-1.02,2.55,1.92,5.01,3.97,7.42,6.07,2.04,1.78,3.97,3.69,5.91,5.59,1.51,1.48,1.53,2.98.13,4.66-.61.73-1.5,1.28-1.95,2.09-.43.78-.78,1.86-.59,2.68,1.13,5.02,4.11,8.72,8.97,10.4,5.71,1.98,9.92.32,12.54-6.11.94-2.3,1.11-4.99,1.26-7.52.45-7.57-.52-14.98-2.93-22.2-1.62-4.84-3.15-9.72-4.57-14.62-.66-2.27-1.79-4.01-3.75-5.34-1.71-1.16-3.23-2.61-4.88-3.87-4.44-3.39-5.39-8.23-5.04-13.3C19.6,4.56,25.81-.4,32.43.03c3.71.24,7.24,1.08,10.58,2.79,2.67,1.36,4.62,3.42,6.01,5.99,1.77,3.28,2.07,6.68.44,10.13-.48,1.01-1.02,2-1.42,3.04-.4,1.04-.92,2.13-.92,3.19.01,4.3-.21,8.61.67,12.88,1.19,5.79,2.28,11.59,3.4,17.39.75,3.92,1.6,7.83,2.18,11.78.78,5.35.08,10.5-2.8,15.22-.08.14-.18.27-.25.41-5.95,11.97-17.06,13.99-27,12.98-2.81-.29-5.18-1.64-6.9-3.92-2.99-3.96-6-7.95-7.6-12.71-.93-2.78-2.63-4.23-5.47-4.58-.92-.11-1.81-.46-3.19-.82ZM6.04,58.47c-.33.65-.86,1.3-.98,2.02-.39,2.2-.67,4.43-.9,6.65-.3,2.9-.15,3.51,2.58,4.28,2.13.6,3.16,2.03,4.22,3.6.53.79.87,1.7,1.31,2.55,1.92,3.68,3.87,7.34,5.74,11.04,1.35,2.66,3.56,3.95,6.39,4.52,2.74.55,5.46.21,8.09-.36,5.65-1.24,10.49-3.86,13.4-9.18.92-1.68,1.9-3.34,2.68-5.08,1.13-2.52,1.64-5.18,1.24-7.95-1.31-9.16-2.48-18.32-4.93-27.31-2.38-8.71-3.38-17.57.9-26.21,1.2-2.43.6-5-.95-7.27-4.3-6.3-11.39-6.82-16.6-4.94-1.4.5-2.48,1.45-3.17,2.78-2.15,4.11-2.51,8.21.21,12.23,1.45,2.15,3.3,3.88,5.63,5.08,3.18,1.65,4.96,4.28,5.79,7.79.96,4.03,2.09,8.04,3.49,11.94,1.96,5.45,2.39,11.23,3.92,16.77.08.3.05.64.07.95.3,5.15-.34,10.23-1.3,15.25-.99,5.24-5,7.92-9.39,10.11-.54.27-1.24.28-1.88.32-3.27.21-6.31-.5-9.2-2.12-5.46-3.06-7.91-8.13-9.47-13.83-.31-1.12-.1-2.17.66-3.15.66-.85,1.14-1.85,1.65-2.7-3.81-4.88-5.81-6.56-9.24-7.76Z"/>
      <path class="cls-1" d="M6.04,58.47c3.43,1.19,5.42,2.87,9.24,7.76-.51.85-.98,1.85-1.65,2.7-.76.98-.97,2.03-.66,3.15,1.55,5.7,4,10.77,9.47,13.83,2.89,1.62,5.92,2.33,9.2,2.12.63-.04,1.33-.05,1.88-.32,4.39-2.19,8.4-4.86,9.39-10.11.95-5.02,1.6-10.11,1.3-15.25-.02-.32.02-.65-.07-.95-1.54-5.53-1.97-11.31-3.92-16.77-1.4-3.9-2.53-7.91-3.49-11.94-.83-3.51-2.61-6.14-5.79-7.79-2.33-1.21-4.18-2.93-5.63-5.08-2.71-4.02-2.36-8.12-.21-12.23.7-1.33,1.77-2.28,3.17-2.78,5.2-1.88,12.29-1.36,16.6,4.94,1.55,2.28,2.15,4.85.95,7.27-4.29,8.64-3.28,17.5-.9,26.21,2.45,8.99,3.62,18.15,4.93,27.31.39,2.77-.11,5.44-1.24,7.95-.78,1.74-1.76,3.4-2.68,5.08-2.91,5.32-7.75,7.94-13.4,9.18-2.63.58-5.35.91-8.09.36-2.83-.57-5.04-1.86-6.39-4.52-1.88-3.7-3.83-7.36-5.74-11.04-.44-.85-.78-1.76-1.31-2.55-1.06-1.57-2.09-3-4.22-3.6-2.74-.77-2.88-1.38-2.58-4.28.23-2.22.51-4.45.9-6.65.13-.72.65-1.36.98-2.02ZM39.89,14.06c.1-2.54-1.97-4.51-4.93-4.68-2.75-.16-5.25,1.78-5.42,4.2-.21,3.02,1.99,5.28,5.28,5.42,3.08.12,4.94-1.69,5.07-4.94Z"/>
      <path d="M39.89,14.06c-.13,3.25-1.99,5.06-5.07,4.94-3.29-.13-5.5-2.4-5.28-5.42.17-2.42,2.68-4.36,5.42-4.2,2.97.17,5.04,2.14,4.93,4.68ZM34.67,14.9c.38-.23.61-.38.84-.53-.2-.32-.35-.71-.63-.92-.11-.08-.52.22-.79.35.19.36.37.72.57,1.09Z"/>
      <path class="cls-1" d="M34.67,14.9c-.19-.37-.38-.73-.57-1.09.27-.13.68-.44.79-.35.28.22.43.6.63.92-.23.15-.47.29-.84.53Z"/>
    </g>
  </g>
</svg>