<?xml version="1.0" encoding="UTF-8"?>
<svg id="Layer_2" xmlns="http://www.w3.org/2000/svg" viewBox="0 0 292.43 196.05">
  <g id="Laag_1">
    <g>
      <g id="JKSRGS">
        <g>
          <path d="M200.15,184.87c-6.63,1.29-11.36,2.1-16.21,2.35-5.25.27-10.07,2.52-14.95,4.33-2.04.76-4.14,1.38-6.16,2.19-4.49,1.8-9.19,1.15-13.83,1.4-5.58.3-11.12,1.12-16.75.85-4.49-.21-9.02-.46-13.43-.94-6.28-.68-13-2.18-16.41-8.37-4.1-7.46-3.51-12.5,1.52-18.99,1.92-2.47,1.9-2.96-1.09-3.99-6.03-2.07-11.15-5.31-15.9-9.7-5.99-5.54-11.44-11.58-17.29-17.22-3.07-2.96-5.89-6.11-8.69-9.32-1.09-1.26-1.89-2.66-2.74-4.04-1.98-3.2-4.23-6.16-5.81-9.7-1.37-3.07-3.26-6.12-5.12-9.05-.8-1.26-1.86-1.2-2.8-.61-6.72,4.22-14.4,3.78-21.76,4.02-6.09.2-12.03-1.69-16.82-5.9-4.83-4.24-6.56-10.01-5.72-15.96.81-5.8,4.25-10.82,8.2-15.18,3.96-4.38,8.7-7.71,14.41-9.57,1.87-.61,2.56-2.14,1.98-4.12-1.6-5.5.61-9.48,4.95-12.69,1.26-.93,2.74-1.17,4.11-1.5,3.24-.79,5.98-2.31,8.79-4.08,4.85-3.07,9.94-5.8,15.12-8.28,3.26-1.56,5.88-4.03,9.14-5.55,1.2-.56,2.35-1.14,3.65-1.41,4.27-.89,8.33-2.3,12.42-3.84,3.71-1.4,7.67-2.42,11.43-3.77,7.82-2.82,16.13-3.22,24.09-5.26,2.62-.67,5.4-.2,8.11-.41,8.33-.65,16.72-.65,25.01-1.7,4.27-.54,8.6-1.28,12.82-1.65,5.76-.51,11.54-1.14,17.33-1.56,5.74-.41,11.47-.55,17.2-.6,10.11-.09,20.12-1.51,30.21-1.98,4.81-.22,9.47-.54,14.32.09,3.41.44,7.1-.1,10.64-.34,3.26-.22,5.08,1.63,6.91,3.48.74.75,1.31,1.77,2.19,2.53,2.01,1.73,2.05,4.04,1.66,6.45-.47,2.97-.28,3.22,2.63,2.64,5.95-1.19,11.67-.21,16.6,3.02,3.41,2.23,5.85,5.7,6.91,9.98,1.42,5.75,2.05,11.61.38,17.23-1.5,5.07-4.79,9.39-8.44,13.28-3.45,3.68-7.87,5.39-12.78,6.1-1.52.22-2.96-.11-4.37-.49-3.52-.95-4.12-.53-5.01,2.91-1.3,5-2.82,9.93-4.24,14.9-1.51,5.28-2.77,10.65-4.58,15.82-3.07,8.77-5.51,17.78-10.27,25.93-2.11,3.61-4.03,7.34-6.26,10.89-.99,1.58-.13,2.67.89,3.91,3.98,4.9,6.27,10.77,5.38,16.86-1.15,7.88-5.78,13.79-13.02,17.74-9.56,5.22-20.16,6.68-28.57,8.87ZM249.35,92.33c.95-.34,1.12-1.26,1.39-2.04,1.22-3.52,2.38-7.07,3.54-10.61.15-.44.25-.9.29-1.37.05-.53.16-1.12-.43-1.47-.58-.34-1.07-.03-1.49.31-1.18.93-2.44,1.67-3.92,1.99-1.44.31-3.12.45-3.58-1.18-.48-1.7.81-2.92,2.39-3.46,1.61-.56,3.29-.93,4.97-1.29,1.31-.28,2.45-.91,2.89-2.13.71-1.95,1.21-3.99,1.69-6.02.25-1.05-.67-1.45-1.41-1.9-2.12-1.3-4.37-2.45-6.31-3.98-1.48-1.17-2.88-1.13-4.55-.97-5.19.5-9.42,3.5-14.09,5.33-4.93,1.93-9.77,3.57-15.13,2.42-1.18-.25-2.25-.74-2.67-1.98-.39-1.15.02-2.11.89-2.94,1.81-1.74,3.69-3.28,6.2-3.96,1.66-.45,3.16-1.3,4.41-2.82-2.01-.53-3.44.2-4.92.93-8.52,4.24-17.5,6.73-27.07,6.95-2.24.05-4.61-.11-6.7.53-6.95,2.14-14.07,3.5-21.23,4.26-12.77,1.36-25.08,5.65-38.04,5.65-3.63,0-7.34.83-10.88.35-3.38-.45-6.53-.19-9.65.71-7.13,2.07-14.47,1.48-21.71,2.16-4.05.38-8.07-.43-12.08.12-3.63.5-7.01-.24-10.51-1.12-2.93-.74-5.8-2.09-9.08-1.47-2.86.54-5.71.06-8.25-1.69-1.07-.74-2.31-1.27-3.66-1.46-.87-.12-1.69-.29-2.39.44-.83.87-.31,1.76-.03,2.62.29.88.75,1.7,1,2.59.82,2.91,1.44,5.89,2.38,8.76.97,3,2.48,3.21,4.5.96,4.36-4.87,9.58-7.29,16.24-5.6,1.57.4,3.22.58,4.84.66,4.29.2,8.4,1.63,12.6,1.96,3.51.28,6.47,1.41,9.41,2.98,1.72.92,2.03,4.19.71,5.66-1.81,2.01-4.29,2.1-6.67,2.26-8.57.56-17.08.28-25.43-2.02-2.73-.75-3.94-.05-5.31,2.42-.56,1.01-1.29,1.94-1.96,2.89-.55.78-1.17,1.6-.84,2.57.7,2.02.76,4.25,2.25,6.03,1.27,1.53,2.47,3.2,3.31,4.99,2.18,4.62,5.48,8.58,7.63,13.21.27.57,1.01.93,1.55,1.37,3.36,2.74,6.33,5.92,9.06,9.24,1.24,1.5,2.6,2.6,4.15,3.59,1.07.68,1.52-.11,1.36-1-.22-1.13-.72-2.21-1.15-3.29-.52-1.32-.87-2.67.78-3.38,1.78-.77,2.85.29,3.41,1.84.63,1.75,1.08,3.57,1.61,5.36.38,1.29.54,2.49-.21,3.81-.86,1.52-.35,2.67,1.28,3.62,3.22,1.86,6.38,3.86,9.16,6.39.97.88,1.56,2.16,2.89,2.65,4.18,1.54,7.61,4.46,12.17,5.57,4.34,1.06,8.54,2.68,13.06,3.01,4.03.3,8.21.04,12.04,1.08,5.81,1.57,11.41.2,17.05-.2,4.7-.33,9.15-2.21,13.68-3.58,7.68-2.33,15.22-5.47,23.48-5.33,4.14.07,8.24-.68,12.28-1.28,6.52-.97,12.99-1.72,18.74-6.15,8.86-6.83,15.56-15.15,20.48-24.99,4.11-8.21,6.92-16.93,9.39-25.75.34-1.21.91-2.53.22-3.85l-.03.06ZM144.06,60.51c.99-.19,2.32-.36,3.59-.72,2.06-.58,2.39-1.55,1.31-3.44-1.4-2.44-1.55-5.02-.72-7.65.29-.92.57-2.01,1.9-2.06,1.24-.05,1.78.75,2.2,1.74.27.64.43,1.48.93,1.86,2.5,1.91,2.27,3.95.59,6.23-.42.56-.63,1.35-.2,1.98.52.76,1.34.56,2.12.4,2.43-.52,4.88-.85,7.36-1.11,5.87-.62,11.62-1.97,17.39-3.17,4.18-.86,8.52-.04,12.69-1.44,1.67-.56,2.14-1.28,2.02-2.75-.15-1.78-.41-3.55-.52-5.33-.1-1.63.29-3.14,1.79-4.05,1.07-.64,2.24-.67,3.32.05,1.42.96,1.57,2.38,1.39,3.94-.11.92-.17,1.86-.14,2.78.13,3.23,1.02,3.86,4.07,3.06,3.91-1.02,7.73-2.28,11.47-3.85,2.11-.88,2.45-2.02,1.53-3.74-1.51-2.81-.55-5.79-.78-8.68-.06-.73.62-1.4,1.25-1.89,1.18-.92,2.14-.65,2.42.77.5,2.51,1.16,4.97,1.82,7.44.68,2.55.53,2.57,2.78,1.26,4.62-2.69,9.02-5.73,13.52-8.61,5.15-3.29,9.73-7.18,13.88-11.62,1.2-1.29,1.78-2.95,1.02-4.53-1.35-2.8-3.17-5.3-6.22-6.53-6.34-2.56-13-3.33-19.71-2.6-7.33.8-14.68,1.07-22.01,1.58-6.7.47-13.43.15-20.14,1.02-5.19.68-10.45,1.38-15.76,1.33-2.3-.02-4.71.07-6.92.5-7.81,1.52-15.76,1.2-23.59,2.21-5.26.68-10.54.22-15.78.78-4.4.47-8.8,1.23-13.21,1.35-4.09.11-8.22.41-11.91,1.82-7.85,3-15.88,5.48-23.62,8.89-7.05,3.1-13.07,7.75-19.9,11.1-4.79,2.35-9.17,5.54-13.93,7.95-2.89,1.46-4.15,3.9-5.25,6.53-.61,1.45-.21,3.01,1.42,3.75,2.04.93,4.01,2.13,6.24,2.5,7.32,1.21,14.47,3.14,21.97,3.6,5.85.36,11.86-.77,17.6,1.25.21.07.47.02.7,0,9.42-.93,18.91-.16,28.34-1.09,1.78-.18,2.11-.8,1.82-2.34-.27-1.44-1.03-2.79-.78-4.33.16-.97.65-1.57,1.65-1.65.92-.08,1.53.39,1.73,1.24.34,1.51,1.23,2.89,1.1,4.5-.16,1.91,1,2.25,2.51,2.11,5.41-.48,10.81-.97,16.21-1.5,2.39-.24,4.83.11,7.45-.86ZM211.21,173.18c2.86-.39,6-1.87,9.34-2.62,7.33-1.65,11.96-6.22,14.68-13.04.43-1.08.57-1.95.18-3.1-1.08-3.18-3.76-4.79-6.06-6.85-1.59-1.42-2.74-.93-3.67.43-1.35,1.99-3.25,3.31-5.04,4.79-3.68,3.03-7.68,5.33-12.56,5.65-5.88.39-11.62,1.87-17.61,1.69-6.01-.19-11.79,1.92-17.67,3.05-4.86.93-9.2,3.28-13.95,4.42-8,1.93-16.11,2.33-24.27,1.38-4.48-.52-9-.04-13.47-.9-1.83-.35-3.54.17-5.22,1.38-2.5,1.81-3.67,4.41-4.94,6.95-1.2,2.41.17,5.4,2.44,6.75,5.39,3.22,11.26,4.14,17.39,3.75,6.58-.42,13.18-.79,19.73-1.52,4.1-.46,8.22.14,12.26-.51,10.03-1.64,19.72-4.76,29.62-6.96,6.14-1.37,12.08-3.5,18.83-4.74ZM26.82,100.35c2.25-.16,4.08-1.53,6.18-2.06,2.8-.71,4.71-2.43,6.28-4.81.98-1.48.78-2.65.13-4.09-2.72-6.03-6.12-11.79-7.53-18.35-.44-2.07-1.83-2.99-3.67-2.76-3.22.41-6.29,1.19-9.21,2.95-3.68,2.22-5.99,5.55-8.61,8.69-1.39,1.68-1.99,3.49-2.04,5.75-.08,3.18,1.12,5.86,2.38,8.59.62,1.33,1.32,2.5,2.58,3.47,4.11,3.18,8.72,3.25,13.5,2.62ZM282.42,33.49c-.46-1.6-.44-3.38-2.13-4.46-4.8-3.09-10.04-3.3-15.45-2.53-1.54.22-2.04,1.27-1.92,2.7.41,4.83,1.1,9.6.62,14.54-.33,3.34.1,6.82-.11,10.23-.05.84-.07,1.68.58,2.42,2.26,2.52,9.84,1.95,11.83-.79,3.66-5.05,5.1-10.93,6.61-16.81.45-1.76.58-3.53-.03-5.3ZM259.27,35.86c-.36-.86-.15-1.87-1.18-2.03-.91-.14-1.43.62-1.81,1.25-1.56,2.58-3.78,4.47-6.14,6.28-2.09,1.6-4.03,3.39-6.01,5.13-.62.55-1.54,1.09-1.2,2.08.39,1.16,1.53.87,2.42.85,4.14-.08,8.33-.69,11.81,2.62,1.06,1.01,1.55-.33,1.72-1.27.95-5.01.08-10.06.39-14.92Z"/>
          <path d="M213.3,107.61c-.11-2.82-1.55-5.1-2.87-7.47-1.29-2.32-.52-4.16,1.62-4.39.86-.09,1.49.14,1.99.87,2.13,3.07,3.58,6.5,5.07,9.89,1.08,2.46-.21,5.29-2.12,5.79-2.21.58-3.16-.09-3.41-2.38-.08-.77-.19-1.54-.28-2.3Z"/>
          <path d="M249.38,92.26c-.97,1.3-1.87,2.65-2.92,3.88-.75.87-1.6,1.61-3.01,1.07-1.36-.52-1.3-1.55-1.35-2.64-.1-2.17-.49-4.21-1.68-6.16-1.14-1.87-1.29-4,.3-5.85,1.42-1.65,3.41-1.36,4.24.67.44,1.06.71,2.23.84,3.37.28,2.51,1.18,4.57,3.56,5.74,0,0,.03-.07.03-.07Z"/>
          <path d="M134.29,115.07c.4,1.74.8,3.71,2.12,5.36,1.4,1.76,1.09,3.69-.67,4.77-1.5.92-4.06.21-4.83-1.46-.68-1.5-.88-3.14-.92-4.78-.03-1.48-.02-2.95-.11-4.42-.1-1.64.28-3.17,2-3.47,2.03-.35,1.93,1.55,2.26,2.84.08.3.08.62.14,1.17Z"/>
          <path d="M175.24,104.76c1.15-.34,1.82.17,2.03,1.27.56,2.94,1.78,5.58,3.35,8.1.78,1.25-.7,4.2-2.22,4.72-1.52.52-2.9-.36-3.37-2.27-.7-2.87-1.37-5.74-1.97-8.63-.34-1.63.54-2.82,2.18-3.19Z"/>
          <path d="M210.63,140.26c.03.81.37,1.9.84,2.99.73,1.68.16,3.13-1.32,4.04-1.44.88-2.49-.22-3.45-1.14-.88-.85-1.09-2.02-1.35-3.17-.29-1.29-.65-2.56-1.07-3.81-.49-1.49-.83-2.89.86-3.88,1.83-1.07,3.2-.46,4.4,1.08.83,1.06.87,2.3,1.08,3.9Z"/>
          <path d="M213.93,121.67c1.71-.07,3.45-1.03,5.31-1.55,1.65-.46,2.49-.09,2.33,1.88-.26,3.22-1.16,4.25-4.35,4.61-1.77.2-3.55.39-5.3.7-1.68.29-3.14-.13-3.58-1.76-.48-1.74.91-2.69,2.37-3.21.94-.34,1.97-.41,3.23-.66Z"/>
          <path d="M174.11,134.62c-2.39.93-4.35,1.01-6.28,1.1-1.32.06-2.86-.42-2.9-2.03-.04-1.47.76-2.54,2.6-2.65,2.65-.16,5.08-1.4,7.63-2.04,1.4-.35,2.99-1.04,3.74.97.61,1.64-.55,3.63-2.39,4.16-.96.28-1.98.4-2.4.48Z"/>
          <path d="M128.17,85.01c.33,2.02.06,4.05.22,6.07.1,1.28-.57,2.11-1.86,2.21-1.18.09-2.05-.29-2.38-1.67-.53-2.26-1.25-4.47-1.89-6.7-.13-.45-.25-.9-.33-1.36-.31-1.8.1-3.39,1.97-3.96,2.03-.62,2.97.96,3.65,2.46.4.89.42,1.96.61,2.94Z"/>
          <path d="M165.62,149.99c0,.94.04,1.56.02,2.18-.05,1.27-.5,2.32-1.85,2.64-1.38.32-2.42-.49-2.78-1.6-.93-2.87-1.74-5.8-2.34-8.75-.32-1.58.72-2.69,2.33-2.93,1.55-.24,2.19.8,2.57,2.13.64,2.23,1.14,4.51,2.05,6.34Z"/>
          <path d="M110.32,133.86c.1-1.81-.62-3.78-1.24-5.77-.41-1.31.09-2.28,1.11-3.02,1.04-.75,2-.48,2.97.24,2.67,1.98,3.58,7.53,1.69,10.09-.73.99-1.56,1.42-2.77,1.21-1.4-.24-1.54-1.34-1.76-2.75Z"/>
          <path d="M125.61,143.39c-1.29.25-2.58.6-3.89.72-.93.09-1.9-.16-2.27-1.23-.35-.99-.46-1.93.39-2.8.78-.8,1.56-1.53,2.72-1.66,1.71-.2,3.33-.72,4.96-1.25,1.42-.46,2.78-.7,3.24,1.34.49,2.15-.23,3.91-1.94,4.35-1.05.27-2.13.43-3.19.63,0-.03-.01-.06-.02-.1Z"/>
          <path d="M87.93,123.91c-.27-1.37-.59-2.73-.78-4.11-.23-1.6.31-2.74,2.09-3,1.7-.25,2.11.85,2.37,2.18.38,1.91,1.11,3.7,2.01,5.42.87,1.66-.07,4.45-1.81,5.04-1.51.52-2.78.16-3.15-1.67-.26-1.29-.5-2.58-.75-3.87,0,0,.01,0,.02,0Z"/>
          <path d="M170.29,82.08c-.13-.78-.77-2.16-.62-3.66.14-1.4.68-2.66,2.29-2.76,1.59-.1,2.09,1.07,2.23,2.42.3,2.77.87,5.49,1.64,8.17.38,1.3-.35,2.09-1.25,2.73-.98.7-1.74-.04-2.46-.63-1.81-1.49-1.26-3.7-1.84-6.27Z"/>
          <path d="M108.91,146.13c-1.64.24-3.49.52-5.34.78-.38.05-.8.15-1.16.06-1.25-.33-2.93-.45-3.05-2.02-.12-1.48,1.24-2.37,2.56-2.65,2.81-.58,5.67-.97,8.52-1.38.92-.13,1.68.36,2.17,1.13.46.72-.03,1.33-.41,1.92-.73,1.14-1.49,2.24-3.28,2.15Z"/>
          <path d="M141.93,96.49c2.07-.48,4.1-1.35,6.02.31.71.61,1.15,1.26.93,2.21-.23.99-1.04.97-1.83,1.08-3.15.41-6.3.83-9.4,1.58-.96.23-2.16.47-2.69-.68-.59-1.28.5-1.97,1.35-2.64,1.66-1.32,3.65-1.63,5.62-1.85Z"/>
          <path d="M157.79,123.38c.51,1.95,1.05,3.89-.38,5.74-.49.63-.85,1.37-1.77,1.24-.99-.15-1.8-.74-1.96-1.74-.44-2.81-.64-5.66-1.63-8.38-.35-.97.45-1.72,1.43-2.07,1.29-.46,2.27-.02,3.03,1.03.9,1.24.88,2.78,1.28,4.18Z"/>
          <path d="M241.76,104.89c.17,1.74,1.42,3.24.74,5.03-.5,1.31-.99,2.76-2.71,2.77-1.79,0-2.49-1.27-2.81-2.86-.24-1.21-.48-2.43-.87-3.6-.42-1.29-.03-2.19.88-3.11,1.07-1.08,2.39-1.22,3.66-.92,1.42.33.55,1.9,1.11,2.69Z"/>
          <path d="M100.68,102.17c.84-.16,1.67-.33,2.51-.49,1.22-.24,2.62-.69,3.19.89.53,1.46-.03,3.01-1.35,3.63-2.3,1.07-4.83,1.79-7.4,1.63-1.29-.08-2.74-.78-2.72-2.38.02-1.47,1.14-2.28,2.59-2.56,1.07-.2,2.13-.41,3.2-.62,0-.03-.01-.07-.02-.1Z"/>
          <path d="M221.18,88.74c-1.07.13-2.14.38-3.21.36-1.11-.02-1.82-.72-2.11-1.83-.29-1.12.33-1.93,1.18-2.26,2.5-.99,5.06-1.85,7.64-2.62.93-.28,2.1-.36,2.71.71.64,1.13.02,2.12-.73,2.94-1.46,1.6-3.24,2.62-5.48,2.71Z"/>
          <path d="M147.03,139.69c-.99.19-1.96.45-2.96.56-1.48.16-2.2-.68-2.67-2.02-.46-1.33.2-2.06,1.11-2.73.91-.68,2-.77,3.08-.88.99-.11,2.02-.13,2.97-.4,1.36-.39,2.76-1.14,3.38.91.49,1.63-.57,3.62-2.17,4.09-.89.26-1.82.37-2.73.55,0-.02,0-.04-.01-.06Z"/>
          <path d="M232.75,122.41c-1.23.16-2.47.29-3.69.48-1.41.22-2.56-.29-3.08-1.54-.59-1.44.16-2.72,1.42-3.33,2.32-1.13,4.9-1.47,7.44-1.83.84-.12,1.24.45,1.36,1.26.27,1.83-1.66,4.68-3.45,4.96Z"/>
          <path d="M193.22,128.01c.61-.12,1.21-.25,1.82-.35,1.35-.24,2.8-.42,3.23,1.31.41,1.63-.37,3.07-1.91,3.54-2.42.75-4.94,1.22-7.5,1.18-.98-.02-1.52-.6-1.85-1.49-.37-1,.11-1.58.84-2.17,1.57-1.27,3.44-1.71,5.37-2.02Z"/>
          <path d="M210,75.7c-.34,1.71.45,3.42.45,5.19,0,1.7-1.16,2.53-2.76,2.01-2.49-.79-4.55-6.65-3.03-8.81.7-1,1.59-2.06,3.04-1.71,1.62.39,1.93,1.84,2.3,3.31Z"/>
          <path d="M113.92,99.5c2.08-.22,4.16-.47,6.24-.63,1.34-.1,2.63.2,2.68,1.83.05,1.66-.57,3.28-2.47,3.36-2.23.09-4.51.26-6.72-.27-1.05-.25-2.22-.5-2.15-1.98.07-1.52,1.11-2.09,2.42-2.3Z"/>
          <path d="M200.23,89.08c1.59-.26,3.18-.73,4.81-.18.81.27,1.77.44,1.88,1.46.12,1.06-.33,2.1-1.31,2.53-2.59,1.14-5.29,1.72-8.1.82-.95-.3-1.61-.98-1.6-2.04,0-1.05.64-1.75,1.6-2.04.88-.27,1.81-.37,2.72-.55Z"/>
          <path d="M163.04,99.67c-1.51.24-2.72.81-4.1.26-1.93-.78-2.36-2.47-.64-3.68,2.07-1.46,4.58-1.91,7.05-2.05,1.27-.08,2.06,1.03,2.33,2.26.31,1.38-.65,1.99-1.73,2.37-1.02.36-2.09.61-2.92.84Z"/>
          <path d="M77.71,112.07c-1.76.27-3.55.29-5.28.79-1.23.35-2.55.02-2.84-1.3-.32-1.42.92-1.94,2.12-2.25,2.1-.53,4.21-1.07,6.31-1.6.08-.02.15-.04.23-.05,1.61-.17,3.55-.14,3.85,1.61.27,1.6-1.5,2.3-3,2.64-.45.1-.92.11-1.39.16Z"/>
          <path d="M186.49,90.15c1.39-.34,3.68.88,3.62,2.06-.09,1.65-1.25,2.78-2.83,2.84-1.72.07-3.36.24-5,.74-1.08.33-2.33.42-2.65-1.03-.29-1.3.13-2.59,1.49-3.08,1.74-.63,3.57-1.03,5.36-1.53Z"/>
          <path d="M195.14,119.35c.01-.98-.05-1.76.04-2.52.16-1.23,1.04-1.94,2.15-2.17,1.21-.24,1.2.96,1.54,1.67.66,1.39,1.06,2.89,2.05,4.15.75.95-.2,3.7-1.38,4.23-1.7.76-2.16-.68-2.72-1.73-.65-1.23-1.18-2.52-1.69-3.63Z"/>
          <path d="M120.9,153.02c.06.46.06.94.2,1.38.57,1.81,0,3.24-1.8,3.61-1.95.4-2.71-1.08-2.95-2.78-.19-1.37-.43-2.76-.39-4.13.04-1.21.62-2.38,2.02-2.43,1.3-.05,2.1.84,2.4,2.1.18.75.3,1.51.45,2.27.02,0,.05,0,.07-.01Z"/>
          <path d="M235.78,83.19c-1.12.1-2.4.7-3.66-.11-.75-.48-1.39-1.04-1.32-2.02.07-.94.65-1.62,1.48-1.91,2.21-.78,4.56-.9,6.86-.84,1.59.04,1.4,1.35.99,2.45-.72,1.96-2.57,1.99-4.36,2.43Z"/>
          <path d="M107.02,43.32c-1.16.09-2.08.44-3.02.84-1.54.66-3.08.46-3.7-1.21-.59-1.61.26-2.98,1.91-3.42,5.38-1.43,10.48-3.98,16.18-4.16,1.73-.06,2.57-1.07,2.43-2.74-.14-1.62-.49-3.22-.73-4.83-.35-2.41.71-3.98,2.84-4.23,2.06-.25,3.15.9,3.34,3.46.16,2.23.1,4.46.44,6.71.24,1.56-1.21,3.04-2.49,3.97-1.54,1.13-3.29,1.98-5.37,2-2.45.02-4.84,0-6.67,2.38-1.2,1.55-3.56.64-5.18,1.24Z"/>
          <path d="M173.97,23.3c.26,2.01.63,3.91,1.78,5.71,1.26,1.98-.55,2.73-1.98,3.36-2.08.92-4.05.28-4.24-1.64-.38-3.86-1-7.68-1.51-11.52-.15-1.16.7-1.82,1.76-2.17,1.12-.36,1.95.02,2.63.94,1.17,1.59,1.14,3.52,1.56,5.32Z"/>
          <path d="M151.12,30.48c3.75.76,7.41,0,11.09-.54,1.27-.18,1.55.88,1.45,1.88-.19,2.01-2.6,4.3-4.63,4.18-2.11-.12-4.19-.02-6.27.27-.79.11-1.54-.07-2.26-.42-1.19-.57-2.22-1.33-2.07-2.79.16-1.53,1.23-2.26,2.69-2.58Z"/>
          <path d="M138.49,33.11c1.33-.17,2.37-.17,3.32-.45,1.9-.55,2.84.28,3.09,2.03.33,2.24-.94,4.59-2.48,4.25-3-.67-5.81.65-8.73.31-1.06-.13-2.01-.32-2.46-1.41-.5-1.21.38-1.81,1.13-2.52,1.82-1.75,4.23-1.74,6.13-2.21Z"/>
          <path d="M95.71,34.42c.39,2.12,1.37,3.62.25,5.26-.57.84-1.18,1.44-2.24,1.38-1.21-.08-2.79-.45-2.88-1.54-.21-2.58-1.83-4.57-2.35-7-.37-1.74.36-2.67,1.65-3.41,1.31-.76,2.36-.46,3.51.63,1.57,1.49,1.72,3.4,2.06,4.69Z"/>
          <path d="M231.92,22.51c2.38.09,4.77-.07,7.17-.32,1.52-.16,3.21,1.69,3.23,3.34.02,1.74-.94,3-2.64,2.9-2.99-.18-5.99-.63-8.93-1.19-1.02-.2-2.51-.57-2.38-2.11.11-1.31,1.33-1.8,2.41-2.27.35-.15.74-.23,1.14-.35Z"/>
          <path d="M207.75,28.43c-2.32.35-4.64.03-6.95-.04-1.2-.04-2.44-.65-2.52-1.97-.08-1.32.39-2.74,2-3,3.35-.54,6.77-.72,10.13-.47,2.43.18,2.64,1.32.96,3.21-1.59,1.78-2.03,2.05-3.61,2.27Z"/>
          <path d="M82.7,51.32c-.78.03-2.36,1.32-3.21-.53-.78-1.71.66-2.64,1.81-3.6,2.09-1.75,4.78-2.19,7.15-3.32,1.22-.58,2.89-1.35,3.73.75.75,1.88.04,3.71-1.89,4.34-2.36.77-4.59,1.93-7.58,2.36Z"/>
          <path d="M190.29,30.52c-2.27-.22-4.7.39-7.15.81-1.48.25-3.01.3-3.37-1.47-.36-1.75.93-2.75,2.46-3.16,1.42-.38,2.91-.48,4.37-.68,1.23-.17,2.49-.19,3.69-.49,1.47-.37,3.1-.64,3.48,1.1.35,1.58-.78,2.92-2.32,3.67-.27.13-.6.13-1.16.24Z"/>
          <path d="M219.47,24.06c.4-2.28-.06-4.95-.58-7.64-.25-1.28,1.73-3.37,3.04-3.28,1.8.13,1.62,1.58,1.61,2.81-.03,2.28.97,4.4.91,6.69-.03,1.16-.19,2.18-1.02,2.99-.63.62-1.13,1.59-2.3,1.23-1.15-.35-1.49-1.27-1.66-2.8Z"/>
          <path d="M57.78,54.9c.03,1.67-.56,2.84-1.75,3.33-1.31.54-2.26-.38-2.66-1.59-.61-1.88-1.68-3.49-2.69-5.14-.83-1.34-.31-2.4.69-3.3,1.09-.98,2.15-.04,2.61.59,1.45,1.99,2.63,4.19,3.79,6.1Z"/>
          <path d="M68.72,57.56c-.77.2-1.37.37-1.97.5-.68.14-1.24-.11-1.58-.7-.37-.64-.58-1.41,0-1.95,1.74-1.62,3.23-3.68,5.82-4.03,1.02-.14,2.47-1.15,2.97.53.46,1.55.53,3.31-1.19,4.37-1.28.78-2.74,1.06-4.03,1.29Z"/>
          <path d="M132.01,52.4c.04.78.49,2.07-.77,2.63-1.27.56-2-.5-2.55-1.47-.86-1.54-2.24-2.79-2.42-4.72-.11-1.23.07-2.33.71-3.34.49-.79,1.23-1.19,2.18-1.02.95.17.75,1,.93,1.65.56,2.02,1.21,4.01,1.91,6.28Z"/>
          <path d="M177.32,43.63c.21,1.06.57,2.12.57,3.18,0,1.09-.39,2.23-1.66,2.5-1.28.28-2.21-.58-2.47-1.63-.49-2-.84-4.08-.89-6.13-.03-1.18,1.13-1.72,2.33-1.83,1.21-.11,1.65.56,1.8,1.62.11.76.29,1.52.43,2.28l-.11.02Z"/>
          <path d="M98.62,54.05c.21,1.2.91,2.32.67,3.6-.11.62-.32,1.24-1.01,1.42-.75.2-1.12-.35-1.4-.92-.62-1.32-1.22-2.66-1.83-3.99-.59-1.29-.4-2.33,1.13-2.63,1.37-.27,2.2.41,2.36,1.83.03.23.05.46.07.69Z"/>
        </g>
      </g>
      <path d="M29.4,45.83c23.63-13.52,47.77-27.24,74.44-32.72,9.5-1.95,19.19-2.83,28.85-3.7,19.34-1.74,38.68-3.49,58.02-5.23,21.35-1.92,42.96-3.84,64.14-.56-16.23-4.48-33.58-4.81-49.97-.96,3.26.34,6.52.67,9.77,1.01-6.9.11-13.81.22-20.71.33,11.82-.92,23.64-1.83,35.46-2.75-33.79,2.43-67.58,4.89-101.36,7.38,12.47-4.09,26.07-4.66,38.83-1.62-19.65,3.33-40.06,1.16-59.41,5.93-9.04,2.23-17.64,5.93-26.19,9.61-17.61,7.58-35.22,15.16-52.82,22.73"/>
    </g>
  </g>
</svg>