<?xml version="1.0" encoding="UTF-8"?>
<svg id="Layer_2" xmlns="http://www.w3.org/2000/svg" viewBox="0 0 305.77 426.9">
  <g id="Laag_1">
    <g>
      <g id="Shape_1">
        <path d="M60.25,23.76c13.59-3.61,26.8-7.3,40.09-10.75,14.36-3.69,28.72-7.22,43.16-10.6,4.3-1,8.75-1.15,13.13-1.69,1.46-.23,2.92-.69,4.3-.69,4.99-.08,10.06,0,15.05.15,1.08,0,2.15.46,3.23.54,15.51.54,31.1.38,46.54,1.77,13.52,1.15,27.11,3.38,39.4,9.45,15.13,7.37,27.03,18.35,33.64,34.25,1.31,3.3,2.69,7.06,2.3,10.44-.31,3.76-2.46,7.37-3.99,10.9-.84,2-2.84,3.61-3.07,5.61-.69,5.45-4.76,8.52-7.83,12.13-11.6,13.59-26.11,23.27-41.93,31.25-2,1-4.15,1.77-6.3,2.46-2.46.77-1.84,1.69-.61,3.23,3.61,4.53,6.91,9.29,10.67,13.59,2.92,3.3,5.91,6.37,8.29,10.29,3.38,5.61,5.3,11.6,5.53,17.59.31,5.99,3.92,9.52,6.45,13.98,5.38,9.68,10.83,19.35,16.13,29.03,2.92,5.3,5.84,10.67,8.22,16.2,2.15,4.99,3.84,10.21,5.45,15.36,1.92,6.07,3.99,12.06,5.07,18.28,1.38,7.45,3.61,14.9,2.15,22.73-.84,4.91-.77,9.98-.84,15.05,0,9.45-2.84,18.35-5.68,27.18-3.07,9.68-4.99,19.81-10.14,28.87-1.69,2.99.54,6.07,2.15,8.75,4.07,6.83,4.84,14.13,2.76,21.58-.69,2.38-2.84,4.91-5.07,6.14-7.83,4.68-15.74,9.45-24.11,13.05-9.37,3.99-19.12,7.14-28.87,10.06-12.29,3.69-24.8,6.83-37.32,9.98-9.98,2.53-19.97,5.3-30.18,6.76-6.76,1-13.21-1.69-18.97-5.76-9.83-6.76-19.97-13.05-29.72-19.89-10.29-7.3-20.12-15.13-30.33-22.42-6.3-4.61-13.21-8.45-19.43-13.21-8.29-6.37-16.05-13.29-22.5-21.66-3.07-3.99-6.3-7.53-7.83-12.59-2.76-8.83-.15-15.9,5.91-22.19,1.08-1.15,3.23-1.77,4.91-1.77,3.3,0,4.38-1.92,4.76-4.53,2.99-19.04,2.61-38.24,2.23-57.36-.23-8.68-2-17.36-2.92-26.03-.38-3.69-.61-7.45-.77-11.21-.31-8.06-.15-16.13-.84-24.19-1-10.75-2.84-21.5-3.61-32.25-.38-4.84.69-9.91,1.69-14.74.31-1.31,2.84-2.15,4.22-3.3.92-.84,2.3-2.07,2.23-2.92-.31-1.69-1.31-4.3-2.46-4.61-8.06-1.69-14.59-6.76-22.04-9.75-9.68-3.76-17.12-10.37-24.27-17.43-10.14-9.98-10.06-18.12-4.53-29.49,7.22-15.05,18.58-26.65,33.48-34.48,7.45-3.92,15.05-7.45,23.04-11.14M26.46,101.7c6.07,1.92,12.13,4.15,18.35,5.68,6.68,1.61,13.52,2.61,20.27,3.92,3.99.77,8.06,1.61,12.13,2.23.69.15,1.46-.38,2.23-.61-.54-.38-1.08-.77-1.54-1.23-3.46-2.84-5.15-6.22-3.15-10.75,1.15-2.61,2.53-5.22,3.07-7.91,1.84-10.44,9.45-16.05,17.59-20.73,8.37-4.84,17.36-8.68,26.19-12.75,6.99-3.15,14.13-6.22,21.81-6.53,20.96-.77,41.7,0,61.74,7.45,11.83,4.38,22.81,9.6,31.1,19.28,2.61,2.99,4.45,6.45,4.53,10.83,0,3.46-2.92,3.99-4.68,5.68-.23.31-.54.54-.77.84.46.15,1,.46,1.31.38,2.99-1.23,5.91-2.53,8.91-3.69,12.82-4.68,24.65-11.06,35.94-18.89,8.83-5.99,11.98-14.36,12.06-24.11.08-9.68-5.76-16.89-13.05-22.27-7.53-5.61-16.82-7.99-25.73-10.98-8.52-2.92-17.36-3.99-26.19-5.53-9.6-1.77-18.89-.69-28.34.23-1.31.08-2.61.15-3.92,0-3.15-.46-6.22-1.15-9.37-1.54-3.15-.31-6.3-.38-9.37-.54-8.06-.31-16.13-1.08-24.11-.77-6.68.23-13.29,1.77-19.89,2.84-5.61.92-11.37,1.46-16.82,3.07-10.9,3.3-21.43,7.76-32.41,10.6-14.05,3.69-28.03,7.53-41.39,13.21-16.51,7.14-28.41,18.66-33.33,36.32-1.61,5.76-2.38,12.06,2.69,16.51,4.07,3.69,9.14,6.3,14.13,9.75M130.13,312.89c-4.22-9.68-5.3-20.12-5.99-30.49-.77-9.83-.15-19.74-.15-29.64,0-.92-.15-1.84,0-2.69,1.23-6.3,2.38-12.52,3.84-18.74,2.53-11.06,4.3-22.5,8.22-33.1,3.76-10.06,5.45-19.89,3.23-30.33-.54-2.46-1.23-4.38-4.3-5.53-8.68-3.15-17.2-6.68-25.42-10.75-6.99-3.53-13.21-8.29-20.04-12.06-7.91-4.3-16.43-6.3-25.57-5.22-6.14.69-9.29,2.69-9.68,8.45-.46,7.68,0,15.51.69,23.19.92,11.52,2.53,22.96,3.69,34.48.31,3.15-.15,6.45.08,9.6.92,11.21,2.07,22.42,2.99,33.64.38,3.99-.08,8.14.92,11.98,2.15,8.14,1,16.28.54,24.34-.61,9.14-2.53,18.12-3.61,27.26-.23,1.92,0,4.68,1.15,5.91,4.99,5.15,10.14,10.21,15.74,14.59,6.53,4.91,13.82,8.75,20.5,13.44,10.6,7.6,20.66,16.05,32.79,20.96,7.53,3.07,13.21,7.91,18.28,13.9,1.46,1.77,2.69,3.76,4.07,5.61.38.54,1.08.84,1.61,1.31.08-.61.31-1.31.15-1.84-.38-2-1.61-4.07-1.38-5.91,1-6.6,1.61-13.05.84-19.81-.46-4.76-1.23-8.52-4.91-12.21-8.22-8.45-14.44-18.28-18.28-30.33M294.47,314.42c1.54-6.76,3.84-13.52,4.38-20.35.61-8.52-.15-17.2-.61-25.8-.31-4.07-1-8.22-2.23-12.13-3.92-11.52-8.14-22.96-12.36-34.4-4.45-12.29-8.68-24.73-16.82-35.25-5.15-6.68-9.91-13.67-15.36-20.12-8.14-9.68-18.97-15.36-31.18-18.05-6.76-1.46-14.05-2.61-19.74,3.46-.61.61-1.77.77-2.69,1-6.76,1.77-13.52,3.76-20.43,5.3-9.75,2.23-17.05,8.22-23.5,15.21-3.46,3.69-4.61,8.68-5.76,13.75-1.92,8.52-5.07,16.82-7.99,25.11-2,5.91-4.68,11.6-6.6,17.51-1.08,3.23-1.23,6.68-1.69,10.06-.92,5.91-2.07,11.83-2.46,17.82-.46,6.07-.69,12.29,0,18.35,1.08,9.29,2.99,18.51,4.53,27.72.77,4.68,1.69,9.29,4.45,13.52,3.69,5.61,6.53,11.83,9.83,17.74.54.92,1.46,1.77,2.38,2.38,3.15,2,6.45,3.76,9.52,5.76,1.46,1,2.61,2.38,3.76,3.76,2.69,3.07,4.91,6.6,7.99,9.29,3.46,2.99,7.53,5.15,11.37,7.68,8.29,5.53,17.43,8.6,27.49,8.68,6.22.08,12.52.38,18.66-.08,5.38-.46,10.9-1.38,16.05-2.92,12.82-3.76,22.65-12.67,32.79-20.73,2.92-2.3,4.68-6.37,6.3-9.91,3.53-7.76,6.6-15.74,9.91-24.34M250.7,376.63c-2.99,1.15-5.91,2.38-8.98,3.46-8.68,2.92-18.05,2.3-26.72,5.91-7.99,3.46-16.82,5.07-25.19,7.76-9.45,3.07-18.89,5.53-28.8,2.46-7.3-2.3-13.36-6.07-18.05-12.67-3.84-5.38-8.98-9.98-14.13-14.13-7.91-6.3-16.2-11.98-24.5-17.74-5.68-3.92-11.6-7.3-17.28-11.21-8.75-5.99-17.51-12.13-26.03-18.51-2.46-1.77-4.22-4.53-6.14-6.91-.77-1-1.38-3.38-1.77-3.3-1.54.31-3.53.92-4.38,2.07-1.84,2.61-3.92,5.45-4.45,8.45-1.69,9.29,3.76,16.28,9.52,22.35,5.45,5.68,12.06,10.29,18.12,15.28,5.3,4.3,10.37,8.83,15.9,12.75,6.6,4.53,13.9,8.14,20.35,12.9,11.6,8.52,22.96,17.59,34.25,26.57,7.6,5.99,16.13,8.45,25.5,6.99,7.22-1.08,14.21-3.53,21.73-2.99,2.46.15,5.07-.69,7.53-1.31,9.68-2.53,19.2-5.99,29.03-7.6,9.6-1.54,18.2-5.53,27.11-8.83,8.91-3.38,17.51-7.83,25.96-12.29,2.92-1.46,6.53-3.92,7.22-6.6,1.61-6.68,4.07-13.82-1-20.43-1-1.23-.84-3.23-1.23-4.84-1.15,1.31-2.07,2.92-3.53,3.84-9.83,6.14-19.74,12.13-30.03,18.58M126.29,63.31c-6.76,3.23-13.75,5.91-20.2,9.68-12.13,7.22-20.58,17.59-24.65,31.25-1.08,3.46-.31,5.53,2.99,7.14,8.68,4.3,17.82,2.07,26.72,2,7.91,0,15.74-2.07,23.65-2.76,4.3-.31,8.75.38,13.13.69,12.44.92,24.57-1.54,36.63-4.15,7.68-1.61,15.36-3.61,23.19-4.15,10.67-.69,18.89-5.84,26.88-12.13,1.84-1.46,2.15-3.38.69-5.22-2.07-2.76-3.99-5.68-6.53-7.91-4.91-4.45-10.21-8.45-16.82-10.21-6.37-1.69-12.67-3.3-18.97-5.07-10.52-2.92-21.27-4.68-32.18-4.84-4.07-.08-8.22.92-12.29.61-7.83-.61-14.74,2.38-22.27,5.07M217.29,107.46c-.23.15-.38.46-.54.54-6.37.84-12.67,1.77-18.97,2.53-3.3.38-6.68.46-9.91,1-8.75,1.61-17.43,3.99-26.34,4.99-10.06,1.15-20.27,1.54-30.41,1.61-17.66.08-35.32-.77-52.99-.54-10.37.08-20.27-1.31-30.03-4.76-8.37-2.92-16.82-5.61-25.27-8.45-1.84-.61-3.61-1.38-5.45-2.07,1.54,1.46,2.92,3.3,4.76,4.3,7.68,4.07,15.67,7.45,23.11,11.75,10.52,6.14,22.12,8.75,33.71,11.29,7.3,1.54,14.9,1.61,22.12,3.3,9.45,2.15,18.81,1.46,28.26.54,9.29-.92,18.58-2.84,27.95-3.69,10.6-.92,21.35-.92,31.95-1.69,5.61-.38,11.14-1.31,16.66-2.46,9.6-2,18.43-5.99,27.11-10.44,14.28-7.45,29.49-13.05,41.16-24.8.61-.54,1.15-1.23,1.77-1.84-1,.15-2.15.08-2.99.54-3.3,1.92-6.3,4.61-9.75,5.91-8.6,3.23-17.28,6.07-26.11,8.52-6.22,1.77-12.67,2.61-19.81,3.92M233.42,122.82c-2.69-.54-4.61,1.15-6.83,2.07-12.36,5.15-25.42,7.45-38.63,8.6-13.44,1.15-27.03,1.46-40.47,2.46-6.99.46-13.98,1.23-20.89,2.38-8.75,1.46-17.43.92-25.5-2.3-3.3-1.31-4.91,2.69-7.53.69-.08.46-.31,1-.08,1.23.54.69,1.23,1.31,2,1.77,8.68,4.84,17.36,9.83,26.19,14.51,3.99,2.15,7.83,5.22,13.05,2.46,2.23-1.15,5.22-.84,7.76-1.69,1.23-.46,2-2.46,3.3-2.76,11.98-3.3,23.96-6.37,36.02-9.45,7.3-1.84,14.59-3.61,21.89-5.38,4.38-1.08,8.6-2.3,12.98-2.99,3.69-.61,7.45-.61,11.21-.84,3.84-.23,7.68-.54,11.52-.77.69,0,1.38.15,2.07.23-.31-.77-.46-1.69-1-2.3-2.15-2.53-4.45-4.99-7.07-7.91M205.01,381.62c.38-.15.84-.31,1.31-.54.69-.38,1.38-.84,2.15-1.31-.77-.54-1.46-1.31-2.3-1.54-1.77-.46-3.69-.31-5.38-.92-10.37-3.53-20.58-7.45-29.64-13.59-4.45-3.07-7.91-7.53-11.83-11.37-.31-.31-.77-.46-1.08-.69-.15.54-.46,1.15-.46,1.69.23,4.84.61,9.75.69,14.59.15,5.68.15,11.37,0,17.05,0,2.15.84,2.84,2.92,2.76,5.76-.08,11.6.15,17.36-.08,2.61-.08,5.22-.84,7.83-1.46,5.91-1.46,11.75-3.07,18.43-4.61M219.6,143.56c3.76,1.31,7.76,2.3,11.37,3.92,9.06,3.92,17.82,8.37,24.57,15.9.54.54,1.15,1,1.84,1.54,0-.84.38-1.77.15-2.53-1.46-4.38-2.99-8.75-4.53-13.13-3.84-10.37-11.29-14.44-21.89-11.98-5.68,1.31-11.6,1.61-17.43,2.53-1.15.15-2.15.84-3.23,1.46-.08,0,.31,1.46.61,1.46,2.53.38,5.15.61,8.52.84M170.06,153.16c2.3-1.15,4.61-2.3,6.99-3.46,1.46-.69,2.99-1.31,4.45-1.92-1.77,0-3.69-.38-5.38.15-11.29,3.3-22.5,6.76-33.64,10.29-.46.15-1.08,1.38-.84,1.77,2.53,4.45,3.61,9.22,3.07,14.44,0,.69.77,1.46,1.15,2.15.54-.54,1.31-1,1.54-1.61,4.22-10.52,12.21-16.97,22.65-21.81"/>
        <path d="M267.85,200.38c5.3,6.14,8.68,12.98,11.37,20.2,3.23,8.91,6.76,17.74,9.68,26.72,1.69,5.38,2.92,10.98,3.38,16.59.54,7.53.31,15.21.08,22.73-.46,12.9-4.68,24.73-10.83,35.79-3.61,6.45-8.6,12.13-14.97,16.36-6.3,4.22-12.29,9.14-18.97,12.52-5.07,2.46-11.06,3.3-16.66,4.15-9.45,1.31-18.97-.08-28.03-2.46-4.91-1.23-9.6-4.22-13.98-6.99-6.3-3.99-12.44-8.45-18.35-12.98-6.14-4.68-12.13-9.75-15.44-16.97-2.38-5.22-4.45-10.67-6.3-16.13-2.23-6.91-4.76-13.82-5.99-20.89-1-5.68-.15-11.6-.15-17.36v-8.83c-.08-10.6,3.38-20.43,6.68-30.26,2.3-6.91,4.91-13.82,7.99-20.43,2.3-4.91,5.15-9.6,8.6-13.75,5.61-6.76,11.67-13.21,17.82-19.43,9.22-9.37,20.58-11.6,33.1-9.29,4.84.92,9.91,1.46,14.44,3.23,8.52,3.15,14.9,9.45,21.35,15.74,5.91,5.76,8.98,12.9,13.29,19.43.46.77,1.23,1.31,1.92,2.3M221.13,325.56c-3.53-.54-7.06-1-10.52-1.54-.77-.15-1.46-.77-2.15-1.15.61-.38,1.46-.61,1.77-1.15.84-1.31,1.77-2.69,2-4.15.69-4.22-3.15-6.6-4.45-9.98-.84-2.07-2.46-4.38-2.15-6.3.92-5.07,2.38-10.21,4.22-15.05,4.07-10.37,2.61-20.89,1.61-31.49-.77-7.91-1.92-15.74-3.07-23.65-.54-4.22-1.31-8.37-2.15-12.52-1.23-5.99-3.38-11.9-3.76-17.97-.77-10.52-3.07-20.66-5.68-30.72-.23-1-1.77-1.69-2.69-2.53-.31,1.15-1,2.3-.92,3.38,0,2,.46,3.92.77,5.84-1.31-1.61-2.61-3.3-3.99-4.91-.23-.23-1.08-.15-1.54,0-4.07,1.92-4.53,4.38-1.61,7.83.84,1,.61,2.92.92,4.38-1.15-.69-2.38-1.23-3.46-1.92-.46-.31-.69-.77-1.15-1.08-.92-.61-2.61-1.92-2.76-1.69-1.31,1.23-2.84,2.69-3.23,4.3-.23,1.23,1.46,2.69,1.92,4.07.46,1.31.54,2.76.77,4.15-.92-.54-2-1.08-2.92-1.77-.54-.38-1-.84-1.38-1.31-1-1.38-1.84-1.61-3.23-.23-2.46,2.46-3.46,4.45-.54,7.3,1.15,1.23,1.38,3.46,2,5.15-1.46-.77-2.92-1.77-4.53-2.3-1.31-.46-3.61-.92-3.99-.38-1.31,1.84-3.69,3.84-1.31,6.53.46.54.77,1.23,1.15,1.84-1.08.46-2.15,1.08-3.23,1.38-.46.15-1.23-.61-1.54-.38-2.15,1.23-2.53,7.99-.77,9.68.84.84,1.38,2.15,2.07,3.3-1.15.15-2.3.54-3.46.61-1.61.08-2.69-.08-3.69,2.07-1.84,4.22-2.07,7.22,2.61,9.29.69.23,1,1.31,1.46,2-1,.15-2,.38-2.99.46-2.23.23-4.76-1-5.61,2.84-.84,3.38-.69,5.15,2.99,5.84.84.15,1.84.69,2.46,1.38.92.92,1.61,2.23,2.38,3.38-1.15-.15-2.3-.15-3.38-.31-1.84-.23-3.61-.54-5.38-.84-.46,2.92-.92,5.76-1.15,8.68,0,.38,1.54.77,2.23,1.31,1.61,1.15,3.07,2.38,4.61,3.53-1.46.61-2.84,1.77-4.22,1.77-3.38-.15-3.38,1.84-3.53,4.22-.15,2.99,1.08,4.15,4.15,4.45,1.77.15,3.38,1.84,5.15,2.84-1.54.54-2.99,1.08-4.45,1.61-.92.31-1.84.38-2.76.77-.46.23-1.23.92-1.15,1.23.23,2.15.31,4.53,1.23,6.37.38.77,2.84.31,4.07.92,1.38.61,2.53,1.77,3.84,2.76-.84.46-1.61,1.38-2.46,1.46-2.99.23-3.15,2.15-2.92,4.45.23,2.92,2.46,1.77,4.07,2,.84.08,1.92-.31,2.61.08,1.23.77,2.23,1.92,3.3,2.84-1.08.61-2.15,1.15-3.3,1.69s-3.53,1.31-3.46,1.54c.38,2.23,1.08,4.45,2.15,6.37.31.46,2.46.08,3.61-.31,1.61-.46,2.84-.92,4.15.92,1.31,2-.15,2.61-1.15,3.61-.46.46-1.23.69-1.84,1.08-2.61,1.61-1.38,3.61-.08,5.07.38.46,2.15-.31,3.3-.61,1.38-.31,3.76-1.46,4.07-1.08,1.15,1.54,1.69,3.3-.31,5.15-2.07,1.92-1.92,3.07-.08,4.38,1.84,1.38,3.76,3.3,5.38-.46.38-.84,1.69-1.15,2.61-1.77.61,1.08,1.46,2,1.77,3.15.15.84-.38,1.84-.69,2.69-.77,2-1.92,3.76,1.23,5.07,3.3,1.38,2.38-1.77,3.3-2.76.84-.77,1.38-1.84,2.07-2.76,1.46,1.54,3.61,2.84,1.92,5.53-.23.46-.54,1-.46,1.31.38,1.54.92,2.99,1.38,4.53,1.15-.54,2.61-.84,3.38-1.77,1.15-1.38,1.84-3.3,2.76-4.91.31-.61.77-1.15,1.15-1.69.54.54,1.23,1.08,1.61,1.69,1.61,2.53.84,4.84-.69,7.14-1.31,2.07-.92,3.53,1.61,4.76,6.53,3.3,13.59,4.07,20.66,4.68,4.45.46,9.06,0,13.44-.69,4.53-.69,9.37-1.23,13.13-3.38,10.06-5.76,20.04-11.67,27.42-20.96,1.46-1.92,3.69-3.76,4.07-5.91.31-1.46-2.07-3.3-3.23-5.07-.31-.46-.46-1.54-.31-1.69.54-.38,1.46-.69,2-.46,1.38.38,2.61,1.08,3.92,1.61.54.23,1.31.54,1.54.31,1.77-1.69.54-7.3-1.38-8.98-1.38-1.15-2.07-3.15-2.99-4.68,1.46.15,2.99.31,4.53.54.31,0,.69.15,1,.38,1.46,1.23,2.15.77,2.92-.84,1.23-2.69,1.31-4.76-1.69-6.07-1.31-.61-2.76-1.15-3.76-2.07-1-1-1.46-2.38-2.23-3.69,1.31,0,2.69-.31,3.76.08,1.46.54,2.69,1.54,4.07,2.38.84.54,1.77,1.08,2.61,1.61.08-.84.15-1.69.31-2.53.38-3.38-1.23-5.45-3.99-7.22-2-1.23-3.53-3.23-5.15-5.07-.31-.31.08-1.15.08-1.77.54.15,1.15.23,1.61.54,2.3,1.23,4.53,2.53,6.91,3.69.31.15,1.23-.08,1.23-.23,1.15-7.99.38-9.6-6.68-13.36-.31-.15-.84-.23-1-.46-.69-1.31-1.38-2.61-2.07-3.92,1.46.08,3.15-.23,4.45.31,1.84.77,3.38,2.07,5.07,3.15-.15-2-.38-4.07-.46-6.07-.31-4.61-.92-4.84-5.53-4.68-1.46,0-2.99-2-4.45-3.07,1-.69,2-1.77,3.15-2.07,3.76-.92,5.3-4.22,2.53-6.76-1.23-1.15-3.99-.69-5.99-1-.69-.08-1.54,0-1.92-.38-2-2-.84-4.53,2.53-4.91,3.07-.31,3.23-1.61,2.3-3.99-.46-1.23-.46-2.69-1.15-3.69-.69-1-1.84-1.84-2.99-2.3-1.15-.54-2.53-.54-3.84-.77.46-1.46,1.31-2.84,1.46-4.38.23-1.77.38-3.76-.23-5.38-.46-1.23-1.77-2.92-3.92-1.31-.38.38-2-.23-2.46-.84-.46-.54-.38-1.77-.23-2.61.15-.84.61-1.54,1-2.3,1.61-3.07-1.54-4.53-2.61-6.53-.46-.77-2.69-1.15-3.76-.77-2.69.84-3.53,0-3.07-2.53.15-1.08.84-2.07.77-3.07-.08-1.61-.31-3.38-1.15-4.68-.46-.69-2.3-.46-3.53-.54-1.15,0-2.99.61-3.3.15-.92-1.31-1.23-2.92,0-4.68,2.84-3.92-1.54-5.22-3.23-7.37-1.84-2.38-2.84.08-4.15,1.08-.92.61-2,1.15-2.92,1.69-.23-1.46-.54-2.99-.46-4.45.08-.84,1.08-1.77.92-2.61-.15-1.31-.61-3.15-1.61-3.76-.77-.46-2.53.38-3.76.92-.69.31-1.08,1.15-1.69,1.54-.84.61-1.77,1-2.69,1.46-.31-1.08-.84-2.07-.77-3.07,0-1.15.61-2.3.92-3.46.08-.54.38-1.23.15-1.54-1.92-2.53-6.45-2.15-8.06.54-.77,1.23-1.54,2.46-2.38,3.69-.38.61-1,1.15-1.46,1.77-.54-.77-1.38-1.38-1.46-2.23-.31-1.38-.61-3.15,0-4.15,2.92-4.84-1.08-3.53-3.07-3.53-3.3,0-3.23,2.46-3.23,4.84,0,.69-.54,1.31-.84,2-.69-.54-1.77-.92-2.07-1.61-.54-1-.54-2.3-.92-3.46-.23-.69-.84-1.77-1.08-1.77-1.54.31-3.38.46-4.3,1.38-.69.77-.38,2.69-.15,4.07,1.54,8.52,3.23,17.05,4.76,25.65.77,4.15,1.23,8.45,2,12.59,1.61,9.22,3.69,18.28,4.84,27.49,1.08,8.75,1.69,17.51,4.84,25.73,1.46,3.92,2.99,8.6,5.99,11.06,8.14,6.83,17.2,12.44,24.5,20.43,5.53,5.99,6.22,11.14,1.69,17.89-6.91,10.29-16.89,14.74-29.57,15.67"/>
        <path d="M233.19,236.71c3.07-.31,6.3-.84,7.14,2.92.54,2.84,1.54,5.91-1.46,8.29-2.23,1.77-5.61,1.08-6.99-1.46-3.07-5.76-2.92-7.37,1.31-9.75"/>
        <path d="M185.42,248c1.31-1,3.23-2.53,3.99-2.15,2,1.15,3.84,2.92,5.07,4.91.69,1.23.69,3.61,0,4.76-.92,1.46-2.92,2.23-4.45,3.23-.54-.92-1.23-1.84-1.69-2.84-1-2.46-2-4.99-2.92-7.91"/>
      </g>
      <path d="M206.21,301.74c.04,2.49.07,4.99-.34,7.46s-.06,4.41.82,6.64c.81,2.03,1.8,3.94,3.2,5.63.7.84,1.79,1.66,2.89.94.91-.59,1.12-1.96.28-2.71-1.43-1.28-3.56.83-2.12,2.12l.1.09-.44-1.06v.14c.07-.25.14-.5.21-.76l.34-.34,1.16-.15-.28-.08.66.39c-1.11-.99-1.88-2.39-2.52-3.71s-1.31-2.86-1.5-4.36c-.2-1.62.36-3.34.48-4.96.13-1.76.1-3.52.08-5.28-.03-1.93-3.03-1.93-3,0h0Z"/>
      <path d="M214.57,318.48c-2.77-2.17-4.12-5.5-3.66-8.98l-2.95.4c.74,3.43,1.97,6.72,3.62,9.81.46.86,1.69.96,2.36.3,1.15-1.15.67-2.62.24-3.97-.54-1.68-1.16-3.33-1.85-4.95s-1.38-3.11-2.17-4.62-1.72-2.86-2.03-4.52c-.28-1.5-2.52-1.35-2.89,0-1.04,3.76-1.88,7.83-1.88,11.75,0,3.55,2.67,6.74,5.32,8.85l1.46-2.51c-.26-.1-.52-.21-.77-.31l-.8,2.89.22.09-.66-.39v-.08c.9-.39,1.82-.77,2.73-1.16-.44-.99-1.26-1.62-2.07-2.29s-1.43-1.51-1.77-2.55c-.79-2.43-.23-5,.28-7.42.4-1.88-2.5-2.69-2.89-.8-.6,2.85-1.19,5.85-.37,8.72.35,1.23.94,2.39,1.79,3.36.76.87,1.95,1.41,2.44,2.49.71,1.58,3.16.44,2.74-1.16-.23-.9-.8-1.39-1.64-1.71-.76-.29-1.64.33-1.85,1.05-.24.85.3,1.54,1.05,1.85.26.1.52.21.77.31,1.36.55,2.61-1.59,1.46-2.51s-2.21-1.95-3.05-3.16c-.95-1.36-1.46-2.56-1.37-4.23.18-3.48.83-6.93,1.75-10.29h-2.89c.26,1.37.9,2.6,1.57,3.81.73,1.32,1.42,2.66,2.05,4.03s1.16,2.65,1.65,4.01c.25.68.49,1.37.71,2.06.11.35.23.69.33,1.04.14.49-.03.48.26.19l2.36.3c-1.54-2.87-2.63-5.91-3.32-9.09-.16-.72-.95-1.18-1.65-1.07-.8.12-1.2.71-1.3,1.47-.55,4.15,1.24,8.52,4.54,11.1.64.5,1.49.62,2.12,0,.53-.51.64-1.62,0-2.12h0Z"/>
    </g>
  </g>
</svg>