<?xml version="1.0" encoding="UTF-8"?>
<svg id="Layer_2" xmlns="http://www.w3.org/2000/svg" viewBox="0 0 173.09 412.43">
  <defs>
    <style>
      .cls-1 {
        fill: #cd1109;
      }

      .cls-2 {
        fill: #ce130b;
      }

      .cls-3 {
        fill: #cc0e06;
      }

      .cls-4 {
        fill: #cf1710;
      }

      .cls-5 {
        fill: #faeaea;
      }

      .cls-6 {
        fill: #fefbfb;
      }

      .cls-7 {
        fill: #fdf9f8;
      }

      .cls-8 {
        fill: #fef9f9;
      }
    </style>
  </defs>
  <g id="Layer_1_xA0_Image">
    <g>
      <path class="cls-3" d="M120.71,71.45c.28-1.26.64-2.51.84-3.79,1.07-6.85,4.95-11.28,11.17-14.31,6.69-3.25,15.96,2.97,16.47,10.15.64,8.94-7.34,17.89-16.29,17.33-3.89-.24-6.6,1-9.45,4.02,3.63,1.31,6.98,2.44,10.26,3.73,2.34.92,4.6,2.05,6.9,3.09,10.36,4.67,15.23,14.72,22.19,22.71,8.13,9.33,9.95,20.82,10.27,32.5.33,12.3-10.58,19.03-21.8,13.92-6.8-3.09-11.51-8.78-16.54-13.96-7.57-7.78-13.05-16.93-16.58-27.22-.33-.95-.79-1.86-1.44-3.37-.6,1.29-1.02,2.04-1.31,2.84-4.44,12.08-8.76,24.21-13.34,36.24-2.33,6.11-6.35,10.96-12.26,14.06-6.77,3.55-12.93,1.03-14.32-6.57-.83-4.55-.63-9.44-.03-14.07,1.51-11.68,5.72-22.45,12.09-32.37,2.06-3.2,3.95-6.51,6.05-9.98-2.56-.87-3.74,1.17-5.21,2.15-15.09,10.05-30.13,20.19-45.22,30.24-1.48.99-3.17,1.78-4.86,2.32-2.34.74-4.31-.25-5.69-2.15-1.41-1.94-1.58-4.12-.12-6.09.96-1.29,2.19-2.41,3.44-3.42,15.65-12.71,31.67-24.91,48.78-35.62.86-.54,1.64-1.22,2.15-2.9-2.53.37-5.05.78-7.58,1.09-5.21.65-10.42,1.29-15.64,1.88-2.7.31-5.43.42-8.12.76-11.44,1.41-22.47-.42-33.1-4.5-7.74-2.97-11.38-9.25-10.72-17.09.69-8.21,5.35-13.79,13.57-15.57,3.15-.68,6.48-.57,9.73-.64,2.26-.05,4.53.21,7.61.38-5.25-6.53-7.86-13.36-8.28-20.95-.53-9.67,1.54-18.8,6.43-27.14C44.58,2.63,50.51-.75,58.06.14c4.41.52,9.06,1.59,12.93,3.67,9.67,5.21,18.35,11.96,24.08,21.56,5.66,9.48,10.84,19.26,15.98,29.04,2.93,5.59,5.36,11.44,8.01,17.17.55-.04,1.1-.09,1.65-.13ZM108.64,76.89c-3.71-8.16-6.58-15.24-10.08-21.99-4.09-7.88-8.54-15.57-13.16-23.15-4.65-7.62-11.58-12.96-19.2-17.34-2.13-1.22-4.71-1.85-7.16-2.28-5.25-.92-7.1.19-9.4,5.08-2.52,5.35-3.68,11.07-3.67,16.89.02,8.36,3.11,15.22,11.09,19.11,10.26,5,20.44,10.16,30.78,14.98,6.5,3.03,13.24,5.55,20.81,8.7ZM125.37,98.49c1.11,5.54,1.75,10.18,2.98,14.65,4.04,14.75,13.55,25.73,24.93,35.33,1.19,1,2.8,1.68,4.33,2.08,2.12.56,3.51-.43,3.69-2.73.09-1.08.14-2.17.05-3.25-.75-9.53-2.96-18.49-9.75-25.77-2.09-2.24-4.15-4.59-5.79-7.17-4.55-7.19-11.29-10.86-20.45-13.14ZM78.6,80.29c.08-.35.16-.7.23-1.05-1.12-.54-2.25-1.08-3.37-1.63-9.42-4.61-19.58-6.41-29.85-7.64-5.56-.66-11.17-.96-16.76-1.19-2.87-.12-4.75,1.35-5.24,4.41-.56,3.55.22,5.54,4.09,6.45,6.49,1.53,13.09,3.15,19.7,3.39,7.93.29,15.91-.74,23.86-1.36,2.47-.19,4.89-.91,7.34-1.39ZM104.96,111.19c-9.51,13.73-18.45,27.68-17.25,45.51,7.2-14.61,13.47-29.58,17.25-45.51Z"/>
      <path class="cls-1" d="M90.38,349.83c-.63,8.16-3.79,15.44-8.15,22.19-1.87,2.91-5.12,3.44-7.63,1.88-2.26-1.4-3.06-4.24-2.01-7.17.18-.51.39-1.02.64-1.5,3.21-5.96,5.58-12.13,6.04-19.01.2-2.97,2.45-4.7,5.02-4.86,2.71-.17,5.13,1.74,5.87,4.67.13.52.18,1.08.2,1.62.03.72,0,1.45,0,2.18Z"/>
      <path class="cls-1" d="M68.65,296.6c2.65-.15,4.59,1.22,5.86,3.29,3.1,5.08,6.21,10.19,8.92,15.49,1.88,3.67.72,7.04-2.19,8.35-2.77,1.25-5.78.12-7.77-3.11-3.13-5.08-6.22-10.18-9.18-15.35-2.34-4.09-.05-8.5,4.37-8.67Z"/>
      <path class="cls-1" d="M65.51,394.3c-.34.87-.58,2.66-1.57,3.8-3.65,4.25-7.48,8.35-11.41,12.35-.94.96-2.48,1.53-3.84,1.83-2.31.51-4.32-.28-5.62-2.38-1.27-2.06-1.26-4.22.24-6.1,1.12-1.4,2.66-2.45,3.86-3.81,2.87-3.26,5.63-6.63,8.48-9.92,1.73-2.01,3.95-2.59,6.39-1.65,2.25.87,3.26,2.76,3.47,5.87Z"/>
      <path class="cls-4" d="M.74,221.09c.43-1.13.67-3.17,1.8-4.3,1.1-1.1,3.13-1.75,4.75-1.76,2.42,0,3.77,1.9,4.44,4.13,1.09,3.61,2.1,7.24,3.17,10.85.86,2.9.16,5.29-2.03,6.7-2.37,1.53-5.16,1.14-7.27-1.37-3.28-3.9-4.17-8.71-4.86-14.26Z"/>
      <path class="cls-2" d="M14.82,254.79c.09-2.37,1.04-4.18,3.33-5.12,2.29-.94,4.52-.5,5.94,1.31,2.91,3.69,5.65,7.53,8.11,11.52,1.19,1.92.88,4.26-.83,6.04-1.47,1.52-3.26,2.22-5.42,1.57-3.79-1.15-11.17-11.29-11.13-15.32Z"/>
      <path class="cls-2" d="M53.09,292.85c-.97,0-1.18.05-1.33,0-5.7-2.15-10.28-5.93-14.06-10.53-.76-.92-.2-3.55.55-4.96,1.09-2.04,3.38-2.99,5.64-2.24,5.5,1.82,9.95,5.35,13.12,10.06,2.22,3.29-.71,7.61-3.92,7.67Z"/>
      <path class="cls-4" d="M0,187.83c1.03-2.87,1.77-5.9,3.15-8.59,1.73-3.35,4.99-4.36,7.74-2.92,2.62,1.37,3.41,3.99,2.27,7.5-.67,2.06-1.32,4.14-1.99,6.2-1.17,3.58-3.4,5.36-6.14,4.95-3.02-.46-4.76-3.1-5.03-7.13Z"/>
      <path class="cls-4" d="M23.36,146.5c4.15-.13,7.1,4.35,4.98,7.95-1.35,2.3-3.23,4.37-5.18,6.22-1.9,1.8-4.36,1.84-6.49.3-2.11-1.52-2.76-3.68-1.93-6.25,1.24-3.88,5.66-8.14,8.63-8.23Z"/>
      <path class="cls-6" d="M108.64,76.89c-7.57-3.14-14.31-5.67-20.81-8.7-10.34-4.82-20.53-9.97-30.78-14.98-7.98-3.89-11.07-10.75-11.09-19.11-.01-5.82,1.16-11.55,3.67-16.89,2.3-4.89,4.15-6,9.4-5.08,2.45.43,5.03,1.06,7.16,2.28,7.63,4.37,14.55,9.72,19.2,17.34,4.62,7.58,9.08,15.27,13.16,23.15,3.5,6.75,6.37,13.82,10.08,21.99Z"/>
      <path class="cls-8" d="M125.37,98.49c9.16,2.28,15.9,5.95,20.45,13.14,1.63,2.58,3.69,4.93,5.79,7.17,6.79,7.28,9,16.24,9.75,25.77.08,1.08.03,2.17-.05,3.25-.18,2.29-1.57,3.28-3.69,2.73-1.53-.4-3.14-1.07-4.33-2.08-11.38-9.6-20.89-20.58-24.93-35.33-1.23-4.48-1.87-9.11-2.98-14.65Z"/>
      <path class="cls-7" d="M78.6,80.29c-2.44.48-4.87,1.2-7.34,1.39-7.95.62-15.93,1.65-23.86,1.36-6.61-.25-13.21-1.87-19.7-3.39-3.87-.91-4.66-2.91-4.09-6.45.49-3.06,2.37-4.53,5.24-4.41,5.6.23,11.21.53,16.76,1.19,10.27,1.23,20.43,3.03,29.85,7.64,1.12.55,2.25,1.09,3.37,1.63-.08.35-.16.7-.23,1.05Z"/>
      <path class="cls-5" d="M104.96,111.19c-3.78,15.93-10.05,30.89-17.25,45.51-1.2-17.83,7.73-31.78,17.25-45.51Z"/>
    </g>
  </g>
</svg>