<?xml version="1.0" encoding="UTF-8"?>
<svg id="Layer_2" xmlns="http://www.w3.org/2000/svg" viewBox="0 0 244.65 366.01">
  <g id="Layer_3">
    <g id="Tube_x5F_1">
      <path d="M216.6,366.01c-20.43-1.42-36.11-11.74-49.56-25.61-6.06-6.28-10.61-14.09-15.82-21.24-11.43-15.78-21.37-32.58-30.21-49.97-6.1-12.16-11.93-24.57-17.95-36.78-4.81-9.6-9.62-19.21-14.63-28.81-3.94-7.43-8.07-14.66-12-22.09-2.66-5.07-4.8-10.33-7.37-15.44-2.44-4.68-4.96-9.32-7.56-13.91-2.59-4.4-5.73-8.49-8.01-13.06-6.18-12.12-12.12-24.37-17.91-36.7-1.42-2.79-3.08-4.54-6.18-4.99-4.06-.54-6.62-2.82-8.47-6.6-5.04-10.4-10.51-20.46-15.55-30.86-2.06-4.17-3.86-8.6-5.09-13.12-1.28-4.8,1.98-8.72,4.93-11.54,5.31-5.03,11.2-9.55,17.35-13.6,8.15-5.24,16.55-10.21,25.24-14.63,5.47-2.87,11.42-5.59,17.52-6.36,8.73-1.18,17.92-1.69,24.9,5.72.96,1.01,2.11,2.01,2.67,3.23,3.64,7.08,6.93,14.26,10.73,21.25,2.14,4.13,4.84,7.96,7.37,11.88,2.87,4.35,1.86,8.66.29,13.08-.4,1.13-.75,2.55-.36,3.46,6.57,14.35,12.01,29.22,20,42.99,9.56,16.29,18.11,33.13,27.2,49.68,2.77,4.91,6.05,9.44,8.82,14.35,7.98,14.5,15.93,29.12,23.75,43.71,4.15,7.83,8.07,15.78,11.78,23.74,2.41,5,4.2,10.35,6.57,15.47,1.12,2.44,3.27,4.33,4.52,6.81,5.72,11.45,11.99,22.81,16.76,34.78,5.35,13.59,9.63,27.66,13.44,41.78,1.41,5.04.98,10.98-.17,16.18-1.97,9.12-9.77,12.94-17.75,15.86-2.73.97-5.89.96-9.24,1.36M161.55,321.29c.83.97,1.7,1.82,2.54,2.8,5.5,6.38,10.58,13.09,16.5,18.93,9.28,9.01,20.18,15.21,33.15,17.52,12.41,2.22,23.34-4.64,23.53-16.86.08-4.73-.77-9.66-2.17-14.3-2.34-7.69-6.12-15-8.03-22.83-3.26-13.3-10.14-25.04-15.53-37.38-3.78-8.64-8.34-16.85-12.63-25.31-4.12-8.15-8.12-16.26-12.24-24.4-5.28-10.47-10.44-20.9-16-31.12-5.08-9.35-10.6-18.37-15.91-27.6-.04-.08-.09-.36-.21-.39-.81-.17-1.91-.7-2.33-.36-3.74,3.05-7.18,6.65-11.13,9.51-6.05,4.41-12.07,8.9-18.67,12.49-4.8,2.61-10.22,4.23-15.59,5.42-5.44,1.23-11.21,1.3-16.79,1.89-.28.05-.69.78-.69.98,1.45,2.67,2.83,5.39,4.36,8.02,2.81,4.79,6.16,9.28,8.61,14.16,3.57,7.12,6.42,14.63,9.99,21.76,5.64,11.5,11.63,22.9,17.55,34.35,9.26,17.98,19.7,35.32,31.71,52.72M96.35,164.77c3.4-2.56,6.66-5.35,10.35-7.56,11.64-7.24,24.27-11.56,38.32-10.44.32.03,1.23-1.48,1.06-1.8-1.44-2.27-3.27-4.33-4.52-6.81-3.68-6.96-6.93-14.26-10.69-21.17-4.23-7.78-9.17-15.18-13.27-22.93-3.47-6.57-6.15-13.56-9.14-20.39-1.17-2.72-2.31-5.57-3.56-8.25-.05-.28-1.26-.44-1.45-.23-3.83,4.01-7.45,8.22-11.19,12.19-1.97,1.99-3.98,4.1-6.42,5.42-5.03,2.73-10.2,5.03-15.4,7.45-3.23,1.55-6.49,3.42-9.9,4.46-5.47,1.55-11.12,2.58-16.64,3.85-.71.18-2.75-.75-1.42,1.89,5.88,11.57,11.17,23.56,17.21,35.04,5.91,11.25,12.6,22.07,18.91,33.1.13.24.22.59.43.79,2.45,2.44,5.01,4.71,8.6,2.15,2.77-2.02,5.34-4.23,8.74-6.78M12.85,52.32c-.51.18-2.46-1.72-1.04,1.08,6.4,12.71,12.52,25.48,18.92,38.19.39.91,1.73,1.5,2.78,1.75,8.27,1.92,16.21-.15,23.71-3.21,6.12-2.41,11.68-6.04,17.46-9.28,3.65-2.09,7.64-3.74,10.63-6.49,5.28-4.7,10.11-9.87,14.45-15.39,6.71-8.64,7.58-9.11,2.06-18.13-1.74-2.82-4.03-5.35-5.41-8.26-2.63-5.4-4.74-10.97-7.09-16.41,0-.2-.93-.21-1.12,0-5.85,8.17-14.41,13.02-22.47,18.42-4.54,3.08-10.13,4.59-14.92,7.4-11.51,6.56-24.25,8.59-37.96,10.34M8.93,43.25c-1.29,3.25.69,3.7,3.16,3.38,13.23-1.69,26.09-5.01,38.19-10.67,5.08-2.46,10.02-5.55,14.59-8.95,6.01-4.49,11.77-9.45,17.36-14.52,1.94-1.87,2.17-4.44-1.08-5.93-6.99-3.12-14.13-2.4-20.59.7-8.39,4.05-16.34,9.29-24.42,14.08-5.3,3.18-10.88,6.02-15.76,9.79-4.25,3.23-7.55,7.66-11.44,12.12M103.39,183.35c5.96-2.53,12.09-4.74,17.87-7.78,4.87-2.65,9.44-6.05,13.77-9.52,4.88-3.77,9.37-8.05,14-12.09.46-.46.87-1.39.81-2.07-.09-.36-1.19-.88-1.87-.82-3.6.12-7.19.45-10.75.65-10.19.55-18.57,5.92-27.1,10.65-7.93,4.51-14.65,10.51-19.68,18.13-.72,1.11-1.33,3.17-.83,3.91.75.82,2.68,1.19,4.04,1.06,2.99-.3,5.93-1.08,9.74-2.13"/>
      <path d="M110.89,203.71c.47-1.58.9-3.03,1.87-3.87.27-.25,2.31.68,2.82,1.63.42.59-.03,2.76-.43,2.78-1.27.28-2.68-.07-4.26-.54"/>
      <path d="M147.24,201.27c1.36.99,2.47,2.12,3.12,3.5.17.31-1.42,1.89-2.37,2-.84.15-2.55-.95-2.53-1.47,0-1.32.88-2.51,1.78-4.02"/>
      <path d="M147.03,245.47c-1.41.77-2.75,1.5-4.07,1.5-.48.06-1.5-1.83-1.37-2.72.13-.89,1.96-2.39,2.12-2.27,1.19.88,2.31,2,3.32,3.49"/>
      <path d="M183.67,257.64c-1.51.41-3.01.82-4.34.63-.44-.06-1.15-1.92-.89-2.57.29-.97,1.45-2.21,2.32-2.28,2.64-.21,3.49,1.36,2.91,4.22"/>
      <path d="M177.64,305.92c1.76.06,3.24-.03,4.27.74.53.22.44,2.31-.06,2.88-.62.74-2.8,1.22-2.97.9-.8-1.29-1.14-2.84-1.24-4.52"/>
      <path d="M224,338.77c-1.58-.47-3.03-.9-3.87-1.87-.25-.27.68-2.31,1.63-2.82.59-.42,2.76.03,2.78.43.28,1.27-.07,2.68-.54,4.26"/>
      <path d="M32.07,64.28c3.12,5.74,6.1,11.04,8.85,16.47.65,1.38.35,3.27.53,4.91-2.26-.4-5.57-.13-6.33-1.35-4.53-7.21-8.31-14.73-12.29-22.24-.17-.31,1.17-2.16,1.89-2.15,3-.1,5.9.56,7.35,4.35"/>
      <path d="M57.05,48.97c3.93,2.55,6.86,5.13,7.95,9.94.94,4.17,3.47,7.89,5.17,11.95.52,1.14.49,2.59.69,3.9-2.13-.37-5.37-.14-6.05-1.39-2.72-4.63-4.74-9.85-6.95-14.86-1.08-2.37-2.24-4.69-3.24-7.1-.39-.91-.51-2.06-.82-3.01,1.01.17,1.97.25,3.26.57"/>
      <path d="M47.19,73.37c-2.71-5.55-5.13-10.75-7.63-15.91-.22-.59-.4-1.31-.67-1.98.92,0,1.95-.35,2.48.08,2.55,1.87,5.72,3.41,7.29,5.92,3.01,4.78,5.11,10.15,7.41,15.32.22.59-.68,2.31-1.35,2.57-2.81,1.02-6.84-2.29-7.53-5.99"/>
      <path d="M91.01,43.45c2.3,2.92,4.43,5.33,6.28,7.99.34.63-.18,2.85-.78,3.07-1.34.53-3.74.81-4.32.11-3.43-4.25-6.51-8.79-9.38-13.33-1.44-2.27-2.13-5.05-3.18-7.54-.26-.67-.45-1.39-.67-1.98.8-.03,2.03-.39,2.36.04,2.86,2.82,5.52,5.86,8.19,8.89.58.7.85,1.57,1.5,2.75"/>
      <path d="M77.65,50.71c1.84,3.38,3.3,6.45,5.13,9.43,1.86,2.86.63,3.22-2.09,3.27-4.48,0-5.21-3.59-6.62-6.38-2.22-4.09-4.05-8.39-5.91-12.57-.35-.83-.26-1.79-.41-2.63,1.01.17,2.24,0,2.86.58,2.37,2.48,4.58,5.25,7.05,8.29"/>
    </g>
  </g>
</svg>