<?xml version="1.0" encoding="UTF-8"?>
<svg id="Layer_2" xmlns="http://www.w3.org/2000/svg" viewBox="0 0 345.69 283.01">
  <g id="Layer_3">
    <g id="Bee_x5F_1">
      <path d="M8.29,80.55C2.74,74.35-.02,67.3,0,59.42c.07-8.73,11.71-20.29,20.25-21.5,7.21-.94,7.14-1.51,7.77-8.79,1.06-10.7,2.68-20.93,13.62-26.99,7.87-4.37,21.7-2.23,26,8.24,1.8,4.31,2.93,8.87,3.93,13.48.5,2.31.89,2.92,3.41,2.18,14.98-4.58,25.07,2.24,28.41,16.33,1.85,7.62-4.83,19.86-12.18,22.81-3.91,1.64-8.11,2.94-11.5,5.37-1.78,1.28-2.93,4.83-2.74,7.1.59,6.51-4.01,15.08-9.41,18.58-10.71,7.04-21.72,3.97-32.86,1.95-11.28-1.98-19.11-9.21-26.4-17.62M55.93,37.02c8.05-4.28,8.56-14.47,7-21.52-2.68-11.39-11.44-9.94-18.7-3.99-6.52,5.52-7.24,12.75-8.17,20.45-.41,4.09,1.57,5.3,4.43,6.26,1.78.68,3.74.69,5.48,1.47,3.7,1.77,6.98,2.03,9.96-2.66M93.89,45.24c1.7-4.28,1.07-8.51-2.28-11.32-3.29-2.68-7.43-3.22-11.45-.85-5.55,3.1-11.2,5.94-16.51,9.48-4.1,2.55-3.79,4.55-.37,8.16,2.26,2.54,4.13,5.46,6.29,7.97,2.41,2.94,4.92,5.16,8.81,1.86,1.16-1.12,2.93-1.65,4.48-1.94,5.55-1.13,10.39-6.09,11.02-13.36M32.2,83.92c1.76-2.72,3.49-5.34,5.12-8.01,4.52-7.4,8.99-14.71,13.24-22.23.58-1.05.25-3.5-.55-4.41-3.81-4.22-7.48-3.35-10.31,1.74-2.28,4.35-5.1,8.45-7.74,12.64-3.35,5.29-6.98,10.46-10.38,15.84-1.34,2.25-2.22,4.71,1.46,5.8,2.94.77,6.44,5.18,9.16-1.38M47.56,92.43c3.87.42,6.94-1.06,9.04-4.28,2.95-4.38,6.11-8.77,8.55-13.48.62-1.15-.57-3.87-1.74-5.16-1.64-1.72-2.77-.91-4.11,1.34-3.19,4.93-7.34,9.31-10.44,14.28-1.35,2.03-1.35,4.98-1.3,7.31M12.18,71.12c.71-2.31.96-4.83,2.17-6.81,2.84-4.87,6.4-9.41,9.33-14.23,1.13-1.79,1.67-3.97,2.38-6.06-1.75.97-3.74,1.5-5.39,2.74-7.73,5.52-13.39,12.3-12.27,22.77.29,2.54.31,4.19,3.78,1.58"/>
      <path d="M284.28,273.43c1.9.41,3.5.25,4.57,1.06,2.08,1.48,3.82,3.46,5.77,5.21-2.32.28-4.63.56-6.91.74-4.86.34-9.89,1.05-14.19-2.08-1.25-.89-2.11-2.15-3.18-3.18,1.28-.41,2.46-1.09,3.75-1.28,3.21-.32,6.47-.5,10.19-.48"/>
      <path d="M327.26,274.81c-4.79-4.23-4.77-4.76,1.02-6.44,4.73-1.28,9.73-2.66,14.21.55,1.43.97,2.19,2.95,3.19,4.38-1.41.46-2.86,1.24-4.33,1.35-4.56.15-9.22.04-14.09.16"/>
      <path d="M231.36,281.51c-2.14-1.83-3.73-3.42-5.41-5.05,2.22-.32,4.48-.95,6.76-.92,2.69.11,5.53.61,8.2,1.26,1.9.41,4.03,1.04,5.64,2.09,1.01.67,1.26,2.32,1.9,3.59-1.29.19-2.57.6-3.74.52-4.36-.31-8.59-.89-13.36-1.49"/>
      <path d="M210.6,137.69c-2.17-1.52-4.07-3.14-5.89-4.72,2.64-2.22,4.95-4.69,7.82-6.47,1.13-.81,3.5-.73,4.87-.12,1.83.82,3.33,2.59,4.91,3.95-1.17.9-2.38,1.89-3.73,2.71-2.48,1.63-5.11,3.08-7.99,4.64"/>
      <path d="M134.74,147.34c-4.25-4.2-8.14-8.25-11.81-12.3-.66-.73-.67-2.16-.99-3.18,1.29-.19,3.09-1.03,3.74-.52,3.66,2.84,7.23,5.87,10.51,9.08,1.22,1.2,1.96,2.96,2.53,4.64.31,1.02-.17,2.33-.25,3.5-1.14-.4-2.22-.67-3.72-1.23"/>
      <path d="M278.14,131.21c-1.38-1.82-2.47-3.3-3.65-4.81,2.19,0,4.63-.56,6.67.03,6.07,1.62,9.13,6.28,10.94,11.8.21.75.16,1.6.15,2.37-.68-.19-1.57-.16-2.26-.57-1.56-.92-2.96-2.2-4.44-3.3-2.4-1.73-4.94-3.41-7.4-5.5"/>
      <path d="M179.86,245.54c7.86,2.75,10.09,9.77,13.27,16.13.15.4,0,.98-.02,1.52-1.08-.04-2.23.1-3.24-.35-5.28-2.15-10.54-10.96-10.01-17.3"/>
      <path d="M156.08,176.28c2.08,3.67,4.24,6.94,6.09,10.39.49.87.19,2.27.33,3.43-.95-.32-1.82-.59-2.77-.91-5.51-2.14-7.78-7.1-10-11.93-.6-1.36.34-3.46.58-5.22,1.84,1.26,3.78,2.57,5.78,4.23"/>
      <path d="M185.96,204.99c-2.44-2.63-.89-5.11,1.07-4.34,5.46,2,10.51,4.92,15.56,7.84.96.54,1.21,2.19,1.8,3.32-1.34.06-2.84.48-3.98.08-4.79-2.03-9.54-4.38-14.44-6.9"/>
      <path d="M241.76,123.15c.23-.99.71-2.31,1.11-2.24,5.92.24,11.83.25,16.49,4.53.79.68.99,2.2.85,3.23-.11.5-1.88,1.02-2.69.88-5.51-1.15-11.76-.66-15.76-6.4"/>
      <path d="M93.72,109.26c-2.42-2.18-4.43-4.06-6.22-6.18-.52-.56-.88-1.71-.73-2.52.11-.5,1.34-1.04,2.01-1.07,3.48-.19,12.26,6.14,13.58,9.8.49,1.1.46,2.4.69,3.6-1.39-.07-2.95.22-4.13-.32-1.73-.78-3.13-2.06-5.2-3.31"/>
      <path d="M187.06,152.35c3.31,3.13,2.89,12.14-.87,14.18-.87.49-3.5-.25-3.8-1.05-1.04-2.33-2.06-5.19-1.72-7.67.31-3.15,2.35-5.74,6.39-5.47"/>
      <path d="M170.21,208.35c4.92,1.98,7.95,11.12,5.5,15.61-.25.55-1.52,1.18-1.79,1.06-1.94-1.3-5.04-2.69-5.2-4.3-.4-4.01.68-8.13,1.48-12.37"/>
      <path d="M229.9,216.22c-1.22-1.42-1.9-2.6-2.67-3.82,1.32-.5,2.59-1.14,4-1.6,1.5-.42,3.13-1.12,4.57-.91,2.07.27,4.29.94,6.04,1.93.69.42.77,3.41.34,3.66-1.92,1.11-4.17,1.97-6.35,2.2-1.79.08-3.57-.83-5.93-1.45"/>
      <path d="M270.33,204.96c-2.28-1.02-4.3-2.14-6.18-3.32,1.55-2.48,2.77-5.45,4.88-7.24.86-.71,4.26.26,5.53,1.6.98.99.83,3.77.18,5.23-.69,1.55-2.72,2.4-4.41,3.72"/>
      <path d="M294.22,160.65c3.04,1.03,5.74,2.35,5.11,5.47-.65,2.67-1.49,6.02-5.29,6.18-1.34.06-3.34-.62-4.06-1.71s-.85-3.23-.28-4.51c1.03-2.06,2.7-3.83,4.51-5.43"/>
    </g>
  </g>
</svg>