<?xml version="1.0" encoding="UTF-8"?>
<svg id="Layer_2" xmlns="http://www.w3.org/2000/svg" viewBox="0 0 128.91 183.22">
  <g id="Laag_1">
    <g id="Cutlery">
      <path d="M27.47,58.06c-7.58-5.76-9.57-14.85-14.02-22.35-1.33-2.25-2.91-4.29-4.39-6.41-2.67-3.71-5.3-7.46-7.92-11.22-1.27-1.78-1.93-3.65.52-5.06,2.3-1.28,4-.22,5.45,1.67,2.21,3.07,4.37,6.08,6.78,8.98.6.79,1.79,1.07,2.69,1.6-.16-1-.17-2.12-.57-2.99-1.88-3.7-3.91-7.27-5.84-10.92-.99-1.76-1.3-3.33.72-4.63,1.77-1.09,3.13-1.83,5.01.04,3.57,3.64,6.5,7.65,8.78,12.22.57,1.17,2.06,1.89,3.16,2.86-.14-1.27,0-2.62-.42-3.73-1.75-4.16-3.89-8.15-5.4-12.34-.54-1.54-.55-3.88.28-5.04.72-.88,3.06-.8,4.68-.63.56.04,1.06,1.53,1.61,2.27,5.05,7.59,10.11,15.08,15.07,22.66,2.11,3.15,3.93,6.38,5.74,9.7,2.56,4.59,1.63,9.49.44,14.17-1.24,5.34.76,9.98,2.66,14.52,2.06,5.02,4.56,9.84,7,14.71s5.04,9.69,7.63,14.52c3.85,7.4,7.99,14.64,11.5,22.25,1.33,2.95,1.43,6.61,1.64,10,.03,2.16-.99,3.91-3.59,4.84-6.12,2.31-9.06.92-11.86-4.86-5.27-10.97-10.88-21.74-16.3-32.58-2.57-5.11-5.04-10.3-7.31-15.57-3.11-7.25-8.5-12.81-13.73-18.67"/>
      <path d="M73.28,78.56c-3.68-6.59-7.28-12.9-10.5-19.37-1.06-2.14-1.67-4.67-1.67-7.1,0-1.12,1.48-2.84,2.73-3.4,5.37-2.27,12.86.16,15.87,5.07,3.56,5.65,7.31,11.22,10.33,17.16,2.2,4.38,3.28,9.37,4.99,14.09,2.81,7.51,5.67,14.98,8.68,22.42.43,1.11,1.77,2.05,2.84,2.69,6.3,3.46,9.66,9.29,12.38,15.48,3,6.92,6.37,13.77,8.32,20.98,2.31,8.65,2.25,17.58-.46,26.28-.8,2.52-1.96,5-3.43,7.14-3.41,4.94-9.53,4.11-11.81-1.77-3.37-8.77-6.12-17.82-9.48-26.69-4.18-11.13-8.65-22.18-12.92-33.31-2.63-6.8-5.07-13.67-7.74-20.52-2.25-5.64-4.73-11.26-7.07-16.91-.32-.68-.6-1.31-1.05-2.23"/>
    </g>
  </g>
</svg>