<?xml version="1.0" encoding="UTF-8"?>
<svg id="Layer_2" xmlns="http://www.w3.org/2000/svg" viewBox="0 0 132.63 136.92">
  <g id="Laag_1">
    <g id="Flowers_x5F_2">
      <path d="M12.83,63.23c2.39-7.82,8.23-10.21,15.49-10.72,4.37-.3,8.63-.41,12.7,1.57,1.32.61,2.13-.56,1.78-2.23-.56-3-1.47-6.04-1.47-9.04.1-7.16,3.15-12.95,8.63-17.73,3-2.64,6.15-3.91,9.95-4.52,5.49-.91,13.05,4.62,13.87,10.26.46,3.45.96,6.86,1.52,10.31.25,1.73,1.42,1.57,2.54.97,5.23-2.74,10.82-3.3,16.71-3.35,7.26-.05,15.69,7.62,17.57,12.39.41,1.17.41,2.74,0,3.86-1.12,3-2.39,5.94-3.91,8.79-.61,1.17-1.73,2.39-2.9,2.95-2.49,1.22-5.23,2.08-7.82,3.15-.51.15-.91.51-1.37.81.36.36.71.71,1.12,1.02,1.22.91,2.34,2.08,3.71,2.64,2.39,1.02,3.5,2.74,4.06,5.13.86,3.86,2.39,7.67,2.64,11.53.41,5.94-3.5,10.77-8.99,12.55-.41.15-.91.3-1.37.3-3.25.2-6.45.41-9.7.51-4.22.15-8.33-.56-12.14-2.49-1.68-.86-2.54-.81-2.79,1.57-.3,3.05-.86,6.4-3.66,8.38-2.03,1.47-4.47,2.34-6.55,3.76-2.54,1.78-5.43,2.54-8.33,3.1-5.99,1.12-11.58-.05-16.35-3.86-3-2.49-5.79-5.23-8.53-8.02-3.1-3.15-4.06-9.24-2.18-13.21,1.83-3.86.56-4.16-2.03-5.49-4.16-2.18-7.01-5.54-9.29-9.8-2.59-4.77-3.1-9.65-2.9-15.08M98.66,94.47c0-2.79.36-5.69-.1-8.43-.91-6.09-3.76-10.87-10.16-12.6-2.44-.66-4.98-1.12-7.47-1.52-1.52-.25-2.44-1.07-1.98-2.49.2-.71,1.42-1.42,2.29-1.52,5.69-.76,11.38-1.37,16.51-4.42,2.69-1.57,4.93-4.83,4.47-7.72-.91-5.64-4.72-8.74-9.55-10.77-.81-.3-1.98-.25-2.9,0-2.54.71-5.18,1.32-7.52,2.59-3.35,1.83-6.86,3.56-8.13,7.82-.51,1.73-2.13,3.05-4.22,2.13-1.57-.66-2.95-1.63-2.79-3.86.3-5.28.86-10.62.36-15.85-.3-3.56-2.08-7.01-3.5-10.41-.56-1.47-4.88-2.44-5.94-1.47-1.78,1.73-3.61,3.5-4.98,5.54-2.64,3.96-2.29,8.74-2.59,13.21-.36,5.33.3,10.62,2.74,15.59,1.12,2.29.2,3.81-2.18,3.4-2.79-.56-5.54-1.68-8.23-2.74-3.71-1.57-7.42-2.69-11.53-2.9-5.99-.25-10.51,7.87-9.4,13.15,1.02,4.72,4.01,8.02,7.31,11.17,2.9,2.74,4.47,2.9,7.97.96,2.79-1.57,5.64-1.78,8.63-.81,1.68.56,2.23,1.98,1.07,3.25-.71.76-1.73,1.22-2.49,1.88-1.63,1.27-4.22,1.57-4.62,4.16-.86,5.28-.61,10.21,2.44,15.08,2.74,4.42,10.82,7.26,14.27,4.57,1.52-1.22,3-2.64,4.01-4.27,3.56-5.74,6.04-11.73,4.27-18.79-.3-1.32,0-3.76.86-4.22,2.84-1.57,5.38.05,6.65,3.35,2.13,5.49,5.49,9.75,11.73,10.72,2.29.36,4.62.25,6.91.71,2.95.56,6.65-1.37,7.77-4.52"/>
      <path d="M37.71,131.8c1.73-3.05,5.94-4.06,8.58-2.23,1.52,1.02,2.79,2.54,1.98,4.37-.51,1.07-1.93,1.98-3.15,2.39-4.52,1.63-7.42-.1-7.42-4.52"/>
      <path d="M75.4,126.87c2.69-2.79,6.09-2.18,8.53-.15.86.71,1.02,2.69.86,4.01-.1.61-1.63,1.42-2.59,1.52-1.68.1-3.45,0-5.08-.46-3.25-.86-3.56-1.93-1.73-4.93"/>
      <path d="M61.58,127.23c2.84.56,3.81,2.23,3.56,5.59-.2,2.39-1.98,2.9-3.81,3.05-3.86.3-6.09-2.95-4.67-6.5.86-2.13,3.1-1.47,4.93-2.13"/>
      <path d="M10.14,88.78c2.18.51,3.45,1.88,3.1,3.81-.36,1.88-1.52,3.5-3.96,3.15-1.12-.15-2.23-.25-3.35-.51-2.39-.51-3.25-2.08-2.69-4.32.46-1.98,2.69-2.95,5.08-2.44.56.1,1.17.1,1.83.3"/>
      <path d="M16.38,116.56c.25-4.06,2.74-5.54,6.04-3.81,1.02.56,2.23,1.02,2.74,1.83.61,1.07,1.02,2.59.71,3.66-.2.81-1.63,1.63-2.64,1.83-2.74.61-5.89-.97-6.86-3.5"/>
      <path d="M15.72,109.86c-2.34,1.07-4.62.97-6.5-.46-.97-.76-2.13-2.69-1.83-3.5.56-1.27,2.18-2.69,3.5-2.84,1.63-.2,3.81.36,5.08,1.37,2.23,1.78,1.83,3.2-.25,5.43"/>
      <path d="M.64,76.95c2.59-3.3,5.33-3.25,8.18-.2,1.07,1.17,1.22,2.49.36,3.61-.66.96-1.83,1.98-2.9,2.08-1.37.15-3.05-.25-4.32-.96-1.52-.86-2.39-2.34-1.32-4.52"/>
      <path d="M25.88,126.37c-.61-3.66,1.93-5.38,5.59-4.06.1.05.1.15.2.2,1.63.91,4.11,1.17,3.91,3.71-.1,1.02-1.27,2.69-2.03,2.74-2.08.15-4.22-.3-6.25-.76-.56-.15-.86-1.12-1.42-1.83"/>
      <path d="M3.02,58.05c4.37-.81,6.96,1.93,5.74,5.69-.51,1.47-1.27,2.49-3,2.03-1.42-.36-3-.61-4.22-1.42-2.59-1.68-1.83-4.83,1.47-6.3"/>
      <path d="M92.67,120.78c1.78-.2,3.5-.51,5.08-.2,1.57.3,3.05,1.68,2.29,3.35-.56,1.32-1.98,2.9-3.3,3.15-1.52.36-3.5-.25-5.03-1.02-1.98-.97-1.63-2.69.96-5.28"/>
      <path d="M16.23,32.4c1.68,1.17,2.34,2.84,1.47,4.22-.86,1.27-2.69,2.54-4.11,2.59-1.88.1-4.22-.81-4.62-3.05-.15-1.02.81-2.64,1.73-3.4.86-.66,2.34-.66,3.56-.81.61-.05,1.22.2,1.98.46"/>
      <path d="M21.82,19.71c1.32.66,2.79.91,3.71,1.78,1.02.97,1.42,2.59.15,3.71-1.02.86-2.39,1.52-3.66,1.93-.66.2-1.73-.05-2.29-.51-.91-.71-2.34-1.93-2.18-2.64.25-1.37,1.42-2.69,2.39-3.86.3-.41,1.17-.36,1.88-.41"/>
      <path d="M113.39,117.07c-1.17,2.23-4.22,2.84-6.5,1.27-1.12-.76-2.54-2.29-2.44-3.35.1-1.07,1.78-2.54,3-2.84,2.13-.56,4.16.46,5.38,2.39.41.61.36,1.52.56,2.54"/>
      <path d="M3.53,44.34c3.2-2.13,6.65-.81,7.21,2.64.3,1.73-.71,2.9-2.23,3.5-1.37.61-4.98-.81-5.84-2.23-.91-1.42-.46-2.69.86-3.91"/>
      <path d="M120.5,107.42c-1.73-.56-3.45-.81-4.47-1.83-.96-.97-1.32-2.74.25-3.86,1.83-1.27,3.76-1.32,5.74-.41,1.68.81,2.29,2.23,2.03,4.06-.2,1.68-1.63,2.54-3.56,2.03"/>
      <path d="M47.36,7.87c-1.68,3.05-6.15,3.5-7.92.91-.51-.76-.56-2.59-.05-3.15,1.07-1.07,2.74-2.29,4.06-2.13,2.03.15,3.81,1.57,3.91,4.37"/>
      <path d="M129.49,90.3c.1,2.79-.91,3.66-3.86,3.4-2.44-.15-4.88-2.44-4.62-4.32.25-2.29,4.01-3.35,6.4-1.63.81.56,1.32,1.57,2.08,2.54"/>
      <path d="M131.17,62.22c-.2,1.17-.2,2.64-.61,2.74-1.12.3-2.44.3-3.56-.05-2.23-.81-3.71-4.01-2.9-6.25.15-.46.86-.86,1.42-.97,2.74-.41,5.03,1.37,5.64,4.52"/>
      <path d="M117.96,30.73c3.81.05,5.94,2.08,5.54,5.13-.1.61-.46,1.27-.91,1.63-1.32,1.07-5.08-.2-6.35-2.08-.96-1.42-.3-3.5,1.73-4.67"/>
      <path d="M31.11,16c-2.39,0-3.61-1.27-3.81-3.15-.1-.91.51-2.29,1.27-2.84,1.22-.91,2.59-1.63,4.42-.66,1.47.76,2.08,1.83,1.57,3.1-.56,1.47-.36,4.06-3.45,3.56"/>
      <path d="M101.3,9.55c2.03-.2,3.71.41,4.77,2.03.46.71.91,2.08.56,2.64-.56.81-1.73,1.47-2.74,1.73-2.23.56-3.76-.91-4.98-2.49-1.17-1.52-.15-3.1,2.39-3.91"/>
      <path d="M121.87,49.17c-1.42-1.47-1.57-2.79-.15-4.16,1.57-1.47,4.27-1.57,5.79.3.81.97,1.17,3,.76,4.16-.66,1.78-2.64,1.22-4.16.86-.76-.2-1.42-.71-2.23-1.17"/>
      <path d="M124.92,78.12c-.2-1.12-.56-2.23-.25-3.1.15-.56,1.47-1.17,2.03-1.02,1.83.46,3.66,1.12,5.23,2.08.56.36.86,1.88.61,2.64-.15.61-1.47,1.32-2.13,1.22-1.83-.36-3.56-1.12-5.49-1.83"/>
      <path d="M87.59,3.45c2.44-1.02,4.98-.15,6.25,1.88.86,1.42,0,3.35-1.68,3.56-2.13.3-4.16-.36-5.33-2.08-.46-.66.41-2.13.76-3.35"/>
      <path d="M114.51,20.47c1.63,1.22,2.08,2.84.81,4.06-.71.61-2.49.51-3.61.1-1.12-.41-2.39-1.37-2.79-2.39-.3-.91.51-2.23.81-3.35,1.57.46,3.1.97,4.77,1.57"/>
      <path d="M71.84,3.71c-1.02-1.37-1.07-2.95.3-3.45,1.32-.46,3.15-.25,4.52.25,1.27.46,1.73,1.83,1.17,3.3-.86,2.18-3.71,2.18-5.99-.1"/>
      <path d="M62.6,3.3c-1.27,2.29-4.93,2.79-6.35.97-.41-.51-.46-1.88-.05-2.29.81-.76,2.18-1.78,3-1.57,1.27.41,2.29,1.73,3.4,2.9"/>
      <path d="M59.65,77.86c-3.45-1.07-5.54-3.15-5.69-5.79-.2-2.74,1.78-5.79,4.47-6.91,3.15-1.37,8.94-.36,9.95,2.34.81,2.18.76,4.98.15,7.31-.61,2.29-3,3.2-5.43,3.15-1.12,0-2.23,0-3.45-.1"/>
    </g>
  </g>
</svg>