<?xml version="1.0" encoding="UTF-8"?>
<svg id="Layer_2" xmlns="http://www.w3.org/2000/svg" viewBox="0 0 503.43 134.11">
  <g id="Laag_1">
    <g>
      <g id="klopper">
        <path d="M461.43,17.15c-2.16-4.2-5.61-6-10.62-4.52-4.22,1.22-8.65,2.68-13.03,2.93-17.98,1.39-35.94,2.65-53.91,3.32-12.21.35-85.3,3.75-97.56,3.66-1.08,0-2.17.34-3.2.78-6.57,3.11-13.3,5.98-19.73,9.48-5.04,2.71-9.82,3.45-14.87.67-3.7-2-7.23-4.46-11.13-5.85-18.56-6.6-36.13-16.24-55.94-19.63-11.86-2.03-23.76-4.5-35.76-5.84-11-1.27-22.2-1.58-33.32-1.94-13.64-.38-27.4-.56-40.84,2.28-11.58,2.58-23.09,5.82-33.93,12.09-6.02,4.31-11.96,7.84-16.9,12.52-5.11,4.79-10.45,9.96-13.29,16.02-3.72,7.82-5.2,16.69-7.2,25.3-.46,2.22.02,5.13,1.03,7.22,2.98,5.82,6.02,11.72,9.94,16.8,4.75,6.33,10.7,11.76,15.73,17.78,4.62,5.58,9.77,10.33,16.58,12.69,8.83,3.06,17.93,5.46,27.04,7.85,5.26,1.45,10.68,3.52,16.06,3.34,10.9-.34,21.79-1.98,32.75-3.31,17.21-2.2,33.57-8.27,49.94-13.75,11.4-3.77,22.34-9.16,33.85-12.76,17.37-5.42,34.69-10.92,49.17-22.58,3.1-2.39,5.3-.49,7.9.56,3.68,1.41,7.49,3.94,11.01,3.66,12.52-1.16,25.12-2.73,37.46-5.44,17.86-3.95,96.58-9.72,114.86-9.39,12.51.29,24.96-.23,37.39-.97,2.41-.15,5.57-2.46,6.88-4.64,1.04-1.88-.13-4.94-.25-7.49M16.45,46.38c-1.39.79-3.09,1.31-4.59,1.94.51-1.77.39-3.96,1.51-5.18,3.44-4.05,7.08-7.99,11.04-11.43,4.16-3.69,8.7-6.79,13.28-10.03,10.87-7.49,23.35-10.53,36.04-12.88,17.69-3.48,35.52-3.09,53.35-1.27,14.41,1.55,29.16,1.8,43.09,4.98,14.12,3.29,29.06,4.37,42.19,11.43,2.74,1.43,5.81,2.29,8.51,3.86,1.16.67,1.93,2.21,2.83,3.4-1.22-.04-2.55.12-3.74-.06-7.75-1.61-15.65-3.25-23.4-4.86-13.47-.85-26.08-2.38-38.8-3.72-7.79-.75-15.63-1.95-23.42-1.98-8.96.02-17.95.89-26.92,1.63-14.63,1.22-29.33,1.78-43.83,4.12-10.33,1.75-20.45,5.29-30.22,9.18-6.06,2.42-11.26,7.27-16.92,10.86ZM14.53,58.4c-.59.38-1.14.99-1.67,1.1-1.42.21-2.91.12-4.3.19.84-1.27,1.32-2.9,2.5-3.67,14.69-10.6,30.18-19.8,48.34-22.75,11.8-1.88,23.54-3.13,35.39-4.21,10.96-.97,22.01-1.64,33.02-1.81,9.43-.21,18.89.17,28.28.82,12.67.9,25.31,1.93,37.89,3.61,12.44,1.64,24.88,4.01,37.34,6.24,5.87.93,11.66,2.28,17.45,3.62.97.2,1.77,1.23,2.65,1.85-1,.3-2.06.87-3.06.81-5.18-.43-10.28-.91-15.38-1.75-7.48-1.19-14.93-2.52-22.38-3.85-15.25-1-29.85-2.3-44.39-2.57-9.93-.18-19.81.8-29.75,1.7-27.42,2.32-54.79,4.73-82.15,7.5-14.16,1.39-27.58,5.54-39.79,13.19ZM7.48,70.8c3.32-6.6,8.94-9.34,14.81-11.51.47-.19.92-.24,1.36-.3-.22.39-.53.83-.81,1.13-3.97,4.16-7.83,8.49-11.91,12.48-2.35,2.26-3.81,1.66-3.45-1.8ZM13.53,77.84c1.01-1.38,2.1-2.81,3.16-4.11,1.62-1.9,3.25-3.8,4.92-5.62,7.27-7.52,17.16-9.94,26.68-11.29,18.66-2.55,37.47-3.77,56.26-5.58,9.44-.93,18.74-1.89,28.17-2.82,14.15-.67,27.58-2.07,41.07-2.31,17.56-.4,35.17-.35,52.72.33,8.9.26,17.76,2.46,26.63,3.94,1.05.15,2.07,1.15,3.04,1.71-1.39.79-2.85,2.23-4.2,2.16-9.82-.38-19.73-2-29.53-1.44-17.07,1.15-34.06,3.33-50.99,5.59-10.77,1.45-21.33,3.59-31.86,5.95-16.64,3.62-33.39,7.44-49.9,11.81-16.42,4.32-33.05,5.78-49.93,4.29-6.96-.58-13.95-.66-20.93-1.1-1.77-.15-3.54-1.02-5.31-1.54ZM18.6,86.83c-.44-.31-.77-.81-1.18-1.26.69-.22,1.31-.74,1.95-.68,5.57.29,11.17,1.16,16.66,1.15,11.81.14,23.71.95,35.15-.57,14.63-1.94,28.97-5.97,43.47-9.03,16.08-3.38,32.12-7.2,48.31-10.05,16.36-2.96,32.82-5.39,49.4-7.29,10.49-1.14,21.14-.95,31.74-1.21,1.08,0,2.27.9,3.4,1.36-1.03.8-1.9,1.84-2.98,2.2-15.68,4.9-31.3,9.89-47.12,14.41-19.51,5.63-39.14,11.44-58.97,15.85-12.33,2.71-25.15,2.87-37.78,4.22-1.47.13-3.03.31-4.58.49-23.63.44-46.51-.34-68.94-5.72-2.96-.69-5.7-2.48-8.51-3.86ZM65.68,122.32c-6.6-.58-12.92-3.84-19.29-5.88-8.03-5.86-15.31-11.48-22.64-17.2-.5-.39-.71-1.09-1.1-1.67-.6-1.28-1.2-2.56-1.89-3.79,1.52.32,3.1.36,4.43.92,10.14,4.71,21.23,5.56,32.1,6.09,17.52.82,35.13,1.23,52.69.47,12.4-.6,24.84-2.79,36.99-5.61,17.14-3.95,34.02-9.04,50.8-14.08,13.62-4.03,26.94-8.71,40.29-13.16,4.28-1.49,8.43-3.38,12.74-4.65,1.53-.4,3.46.72,5.12,1.06-1.17,1.13-2.29,2.7-3.71,3.27-10.18,4.17-20.39,8.12-30.57,12.28-11.77,4.85-23.51,9.92-35.28,14.77-12.04,4.79-23.98,10.11-36.35,14.04-13.68,4.31-27.71,7.17-41.6,10.79-14.12,3.64-28.43,3.7-42.73,2.32ZM215.63,95.11c-12.43,4.57-24.86,9.14-37.29,13.7-22,8.21-44.16,15.46-67.45,18.78-8.19,1.19-16.62,1.46-24.98,2.04-1.03.08-2.05-.57-3.07-.85.95-.38,1.92-.9,2.81-1.01,2.8-.28,5.66-.49,8.38-.71,24.99-3.12,48.42-9.88,71.63-17.34,13.32-4.31,25.74-11.27,38.65-16.75,11.16-4.69,22.45-8.99,33.61-13.68,4.84-2.1,9.35-4.7,14.2-6.8,1.45-.71,3.08-.59,4.72-.83-.95,1.46-1.69,3.26-3.05,4.28-11.38,8.9-24.62,14.24-38.14,19.16ZM453.52,58.69c-16.89.32-33.76.5-50.57,1.13-17.23.54-94.84,7.62-111.36,12.72-3.86,1.22-8.46.05-12.73-.26-3.19-.3-4.55-3.11-3.9-5.58,2.16-7.64-.06-14.31-2.98-21.13-1.83-4.42-.84-6.02,4.35-7.04,13.04-.9,25.17-1.2,37.26-1.72,10.27-.4,81.4-4.78,91.58-5.48,12.85-1.02,25.53-2.28,38.3-3.6,2.53-.34,5.06-1.41,7.59-2.11,3.97-1.05,5.79.99,6.18,4.68.86,7.33,1.64,14.71,2.28,22.07.28,3.88-2.54,6.33-6.01,6.34Z"/>
      </g>
      <path d="M460.15,25.77c5.49-4.59,13.95-3.41,20.14.18,5.59,3.24,10.33,8.56,11.31,14.95s-2.73,13.61-8.99,15.23c-6.26,1.61-12.41-2.37-18.63-4.11"/>
      <path d="M460.62,24.32c6.37-1.88,13.24.46,19.04,3.7,3.14,1.75,6.16,3.81,8.52,6.52s4,6.16,4.06,9.75c.05,3.56-1.53,7.11-4.22,9.45-2.69,2.34-6.42,3.42-9.94,2.89-2.2-.34-4.25-1.26-6.28-2.17-2.15-.97-4.3-1.93-6.45-2.9"/>
      <path d="M454.76,19.31c5.36-3.2,11.09-6.51,17.33-6.4,6.99.12,13.18,4.52,18.18,9.41,4.41,4.3,8.35,9.2,10.77,14.86,2.42,5.66,3.22,12.16,1.36,18.04-1.64,5.18-5.41,9.73-10.36,11.98-4.71,2.15-10.17,2.17-15.22,1.04-5.05-1.12-9.79-3.32-14.49-5.5"/>
    </g>
  </g>
</svg>