<?xml version="1.0" encoding="UTF-8"?>
<svg id="Layer_2" xmlns="http://www.w3.org/2000/svg" viewBox="0 0 35.94 31.97">
  <defs>
    <style>
      .cls-1 {
        fill: #fff;
      }
    </style>
  </defs>
  <g id="Layer_1-2" data-name="Layer_1">
    <g>
      <path d="M13.8,8.13c.73-1.65,1.11-2.88,1.77-3.94C17.54,1.02,21.03-.49,24.62.14c2.25.39,3.38,1.6,3.4,3.91.01,1.59-.21,3.18-.31,4.78-.04.6,0,1.21,0,2.12,1-.14,1.76-.38,2.48-.31,1.08.1,2.36.12,3.17.71,3.09,2.24,3.3,4.17,1.21,6.78-1.78,2.23-4.11,3.43-7.02,4.34.39,1.08.76,1.91,1,2.78.95,3.43-.74,6.02-4.21,6.6-2.17.37-4.12-.19-5.91-1.35-.79-.51-1.45-1.23-2.15-1.84-4.85,3.33-8.72,3.6-11.16.77-1.3-1.5-1.99-3.23-1.89-5.27.1-2.17,2.16-3.07,3.04-4.8-1.04-.55-2.04-1.02-2.99-1.59C1.05,16.45-.33,14.63.07,11.88c.4-2.75,2.43-4.96,5.24-5.58,2.23-.49,4.44-.36,6.53.7.55.28,1.07.61,1.97,1.13ZM17.69,15.06c-.58,0-.74,0-.89,0-1.01.06-1.89.41-2.03,1.5-.14,1.07.59,1.79,1.52,2.06.7.2,1.53.16,2.26.03.79-.14,1.53-1.41,1.31-2.21-.22-.79-.76-1.33-1.67-1.36-.31,0-.62-.03-.5-.02Z"/>
      <path class="cls-1" d="M17.69,15.06c-.12,0,.19.01.5.02.91.02,1.45.57,1.67,1.36.22.8-.51,2.08-1.31,2.21-.74.13-1.56.17-2.26-.03-.93-.27-1.67-.98-1.52-2.06.15-1.09,1.03-1.44,2.03-1.5.15,0,.31,0,.89,0Z"/>
    </g>
  </g>
</svg>