<?xml version="1.0" encoding="UTF-8"?>
<svg id="Layer_2" xmlns="http://www.w3.org/2000/svg" viewBox="0 0 199.59 260.88">
  <defs>
    <style>
      .cls-1 {
        fill: #fff;
      }
    </style>
  </defs>
  <g id="Layer_1-2" data-name="Layer_1">
    <g>
      <path d="M65.41,96.33c-.01,6.25.72,12.39,1.9,18.56,1.39,7.28,3.54,14.24,6.49,21.01,3.26,7.47,6.5,14.95,9.68,22.45,2.06,4.85,3.91,9.8,6.03,14.62,1.22,2.76,2.58,5.51,4.26,8.02,2.84,4.24,6.94,6.48,12.13,6.6,1.92.04,3.84.12,5.74.33,5.15.58,8.95,3.23,11.42,7.75,2.01,3.69,3.28,7.65,3.81,11.8,1,7.93-.1,15.64-2.91,23.09-2,5.3-5.35,9.53-10.67,11.74-10.92,4.54-21.57,9.72-32.85,13.39-3.04.99-6.1,1.93-9.18,2.75-1.68.44-3.45.59-5.18.84-2.36.34-4.73.68-7.09.98-2.05.26-4.12.69-6.16.63-3.35-.1-6.72-.35-10.02-.93-1.99-.35-3.99-1.21-5.74-2.25-3.49-2.08-6-5.26-8.42-8.45-1.69-2.23-1.54-4.81-.49-7.32,1.54-3.7,5.21-5.35,8.62-3.24,4.65,2.88,9.6,3.23,14.76,3.04,1.92-.07,3.84-.1,5.75-.22,3.52-.22,6.89-.86,10.22-2.23,4.12-1.7,8.5-2.78,12.77-4.12,6.03-1.89,11.49-4.83,16.22-9.04,1.31-1.16,2.58-2.42,3.61-3.83,2.43-3.34,1.4-7.5-2.32-9.25-2.01-.95-4.17-1.63-6.31-2.27-4.85-1.44-9-4.05-12.83-7.28-1.87-1.58-3.38-3.39-4.37-5.62-.2-.44-.4-.87-.56-1.32-2.95-8.31-6.81-16.18-11.13-23.86-2.12-3.77-3.57-7.85-4.68-12.04-1.8-6.8-3.89-13.49-6.34-20.1-2.49-6.72-4.34-13.68-4.72-20.97-.24-4.61-1.21-9.19-1.85-13.78-.11-.79-.39-1.6-.31-2.37.63-6.17-.05-12.44,1.52-18.53.24-.92.4-1.89.45-2.84.23-4.07,1.5-7.85,3.32-11.44,2.82-5.56,5.71-11.08,8.61-16.6,1.6-3.05,4.01-5.4,6.91-7.18,5.46-3.33,10.97-6.57,16.49-9.79,1.37-.8,2.88-1.39,4.34-2.03,5.19-2.3,10.58-2.36,15.99-1.18,5.79,1.27,11.44,3.08,16.75,5.74,2.7,1.35,5.31,2.99,7.65,4.89,8.38,6.8,15.41,14.87,21.52,23.73,1.53,2.22,2.82,4.67,3.8,7.18,2.15,5.51,4.15,11.08,5.97,16.7.93,2.87,1.63,5.88,1.9,8.87.51,5.57.66,11.17.88,16.76.06,1.43-.08,2.89-.33,4.3-.99,5.67-1.97,11.34-3.13,16.97-2.29,11.13-8.72,19.38-18.13,25.45-2.01,1.29-4.2,2.3-6.33,3.41-2.65,1.39-5.46,1.77-8.38,1.13-7.07-1.53-13.83-3.92-20.12-7.53-2.97-1.7-5.31-4.09-7.05-7.04-1.79-3.04-3.72-5.92-6.54-8.19-2.17-1.74-3.39-4.26-4.11-6.92-1.46-5.4-2.77-10.84-4.16-16.25-.37-1.43-.59-2.86.4-4.13,1.2-1.54,1.16-3.26.87-5.03-.81-5.05-1.57-10.11-2.44-15.15-.99-5.72-1.2-11.44-.46-17.19.49-3.79,1.96-7.06,4.95-9.55,4.29-3.57,8.84-3.39,12.9.45,2.73,2.58,3.89,5.87,4.05,9.46.13,2.86-.01,5.76-.38,8.6-.65,4.94-.87,9.87-.44,14.83.11,1.27.31,2.54.48,3.8.27,1.98.99,3.63,2.91,4.66,1.76.94,2.77,2.59,3.55,4.39,2.42,5.61,4.14,11.41,4.66,17.53.15,1.76.23,3.45-.23,5.22-.76,2.93.16,4.62,2.87,5.68,4.98,1.93,9.45.83,13.35-2.63,2.67-2.36,4.71-5.28,5.97-8.6,1.13-2.98,2.1-6.05,2.75-9.16,1.03-5.01,1.77-10.08,2.57-15.13.51-3.18.55-6.38-.14-9.54-.96-4.37-2-8.72-2.97-13.09-2.55-11.53-9.4-19.7-19.6-25.33-8.15-4.5-16.86-6.86-26.16-6.75-8.41.1-14.65,4.02-18.67,11.37-1.76,3.22-3.32,6.56-4.98,9.84-2.06,4.07-3.15,8.35-2.92,12.95.1,1.91.02,3.84.02,5.76ZM95.01,120.72c-.91.33-2.15-.15-2.69,1.09-1.61-.54-3.36.94-5.35-.43,4.06-3.36,9.52-2.9,13.65-5.82-.59-.25-.92-.52-1.16-.46-3.69.99-7.39,1.96-11.04,3.08-1.43.44-2.33,1.67-2.96,3-.25.54-.5,1.23-.37,1.76.14.54.74.95,1.21,1.5,2.14-.78,4.43-.84,5.93-2.72,1.11.19,2.21.34,2.66-1.09.36-.05.72-.1,1.08-.15-.09-.06-.21-.18-.26-.16-.25.11-.49.26-.73.4ZM93,134.98c-.56.23-1.11.47-2,.84,1.36.36,1.87.06,1.92-.91.69.08,1.37.16,2.49.29-1.12-1.08-1.75-.41-2.42-.22ZM100.81,133.93c2.48-.89,4.96-1.78,7.44-2.67.76-.27,1.45-.61,1.24-1.74-.38-.1-.91-.42-1.23-.28-2.43,1.06-4.84,2.19-7.2,3.38-.23.12-.16.85-.23,1.3-.75-.01-1.52-.8-2.57,0h2.56ZM76.44,151.25c-1.39.46-2.23.98-3.06.97-3.92-.03-7.52,1.29-11.15,2.48-1.45.48-2.73,1.47-2.45,3.11.54,3.26,1.33,6.5,4.05,8.91,2-.96,3.81-1.97,5.72-2.7,1.92-.74,3.94-1.28,5.94-1.78,1.92-.48,4.04-.25,6.02-1.64-3-6.71-5.91-13.25-8.85-19.77-.39-.87-.9-1.69-1.42-2.48-.76-1.16-1.95-1.81-3.26-1.64-3.95.52-7.9,1.12-11.51,2.97-1.4.72-1.79,1.61-1.36,3.17.76,2.76,1.57,5.51,2.46,8.24.22.69.8,1.26,1.3,2.02,1.22-.48,2.22-.92,3.26-1.27,2.26-.75,4.5-1.65,6.83-2.12,1.67-.34,3.47-.19,5.19-.02.63.06,1.2.77,2.31,1.55ZM78.59,198.24c.44-.63.89-1.26,1.32-1.91.79-1.2,1.48-2.47,2.35-3.61,2.31-3.03,5.42-4.93,9.05-5.92,1.16-.31,2.27,0,2.19,2.17-6.51,1.42-10.36,5.94-12.74,12.32,2.63,2.82,5.88,4.45,9.23,5.92.91.4,1.87-.18,2.24-1.22.22-.6.36-1.22.5-1.85,1.03-4.48,3.15-8.32,6.54-11.47.65-.6,1.07-1.45,1.56-2.12-2.7-1.86-5.46-3.3-7.6-5.37-2.23-2.15-3.86-4.92-5.85-7.55-2.49.64-4.98,1.18-7.41,1.92-2.73.83-4.6,2.83-6.09,5.15-.38.59-.53,1.6-.31,2.24,1.27,3.6,2.69,7.15,4.09,10.7.09.22.49.33.93.6ZM99.74,83.79c-1.78,0-3.41.27-4.91-.06-3.02-.65-5.63.21-8.29,1.45-2.31,1.08-3.45,2.71-3.26,5.26.05.64.1,1.27.11,1.91.13,6.57,1.57,12.97,2.57,19.43.12.78.39,1.55.7,2.28.35.82,1.1,1.26,1.93,1.02,3.21-.92,6.42-1.86,9.59-2.94,1.45-.49,1.95-1.44,1.73-3.03-.26-1.89-.59-3.79-1.12-5.62-.83-2.88-2.9-4.02-5.92-3.31-1.39.32-2.68,1.02-4.06,1.41-.85.24-1.76.23-3.29.41.84-1.32,1.15-2.4,1.84-2.78,3.4-1.88,7.13-2.5,11.15-2.09,1.29-3.7.51-7.45,1.43-10.97.18-.7-.11-1.52-.2-2.39ZM78.75,41.97c1.1,1.01,1.74,1.7,2.47,2.25,2.44,1.83,3.83,4.18,3.99,7.28.04.87.53,1.72.92,2.9,2.75-1.46,5.45-.94,8.14-.89,2.5.04,5.05.75,7.56-.33,1.45-4.1,1.63-8.16.33-12.25-1.16-3.66-2.45-4.59-6.23-4.61-6.11-.03-11.5,2.15-17.17,5.65ZM123.06,202.19c-1.42-2.56-2.41-4.54-3.58-6.41-2.72-4.34-7.14-4.88-11.69-5.06-.3-.01-.65.08-.91.24-3.29,1.94-6.71,3.81-8.46,7.44-1.17,2.43-2.1,4.97-2.98,7.52-.57,1.64-.01,2.64,1.56,3.53,1.96,1.1,3.95,1.19,5.88.01,1.08-.66,1.99-1.59,3.06-2.27,4.35-2.73,8.8-5.11,14.24-4.34.69.1,1.45-.32,2.89-.67ZM70.43,67.08c-.64-.69-1.09-1.36-1.7-1.81-2.55-1.88-5.51-2.35-8.59-2.47-1.77-.07-2.97.57-3.93,2.11-2.92,4.65-4.62,9.77-6.06,15.01-.14.5.17,1.13.31,1.94,4.17-.7,8.09-.88,11.71.61,3.74-4.64,5.71-9.87,8.26-15.39ZM58.57,59.87c5.44-.68,9.28,2.35,13.28,3.48,1.58-1.48,2.78-2.75,4.13-3.83,1.35-1.09,2.78-2.14,4.3-2.97,1.94-1.06,2.78-2.69,2.05-5.25-.91-3.19-2.82-5.62-5.52-6.9-8.25,2.39-13.64,7.73-18.24,15.48ZM104.87,54.71c3.79,1.31,7.35,2.6,10.95,3.76,1.81.58,3.01-.04,3.7-1.96.86-2.38,1.61-4.82,2.2-7.28.77-3.25.1-4.7-3.01-6.07-4.21-1.86-8.51-3.51-12.79-5.19-.45-.18-1.07.05-1.46.07.5,2.96,1.26,5.6,1.31,8.25.06,2.76-.57,5.54-.91,8.42ZM133.64,144.79c.25.59.34,1.11.64,1.43,1.93,2.11,3.83,4.25,5.89,6.23,2.7,2.6,5.26,2.5,7.9-.18.66-.67,1.25-1.47,1.62-2.33,1.65-3.79,3.23-7.6,4.79-11.43.3-.74.36-1.55-.7-2.18-4.21.79-8.6,1.43-13.06.92-1.21-.14-2.18.4-2.86,1.38-1.36,1.94-2.67,3.9-4.21,6.16ZM123.34,222.74c.19-4.67.46-8.9.49-13.14.02-2.97-1.05-3.99-4.03-4.1-5.4-.2-9.88,1.95-13.69,5.64-2.69,2.61-2.78,3.77-.66,7.65,1.46,0,3.05.11,4.62-.02,3.64-.3,6.9.63,9.96,2.57.88.56,1.94.83,3.32,1.4ZM48.9,105.3c3.1-2.75,6.87-4.16,11.19-4.21,1.86-.02,2.44-1,2.31-2.85-.17-2.53-.51-5.07-.39-7.58.2-4.33-.06-4.89-4.26-5.82-1.08-.24-2.2-.43-3.3-.4-3.62.09-5.87,2.22-6.17,5.85-.31,3.8-.55,7.62-.78,11.43-.08,1.25-.19,2.57,1.41,3.59ZM125.56,47.24c-1.41,4.21-2.61,7.82-3.83,11.42-.76,2.24-.48,2.99,1.49,4.45,1.79,1.32,3.51,2.73,5.28,4.09.88.68,1.75,1.38,2.68,2,1.49,1,3.01.91,4.48-.09,1.91-1.29,3.2-3.09,4.18-5.14.46-.96.25-1.88-.33-2.71-.36-.52-.81-.98-1.26-1.44-3.34-3.44-6.67-6.89-10.03-10.3-.76-.77-1.64-1.42-2.66-2.29ZM71.65,182.07c2.29-1.7,4.26-3.7,6.64-4.8,2.51-1.15,5.42-1.44,8.33-2.15-.65-3.56-1.84-6.92-3.34-9.98-8.21-.99-13.61.65-17.87,5.35.97,3.45,3.01,6.5,4.64,9.73.33.66,1,1.16,1.6,1.84ZM143.04,158.26c-.53-.67-.82-1.28-1.29-1.61-2.89-1.99-5.74-3.99-7.95-6.8-.56-.71-1.48-1.23-2.34-1.57-2.26-.89-5.54.25-6.1,2.31-1.13,4.17-1.83,8.43-.27,12.68,1.03,2.8,2.92,3.6,5.67,2.25,3.57-1.76,7.07-3.66,10.56-5.58.64-.35,1.09-1.05,1.73-1.7ZM111.43,239.72c5.75-2.09,8.07-6.81,10.4-11.52.49-.98.09-1.93-.74-2.53-4.37-3.21-9.1-5.17-14.7-4.2-2.48.43-3.96,1.75-4.44,4.31,1.88,2.01,3.98,3.79,5.47,5.99,1.58,2.33,2.58,5.05,4.01,7.95ZM65.14,121.3c-4.69-1.69-8.71.39-12.73,2.22-1.11.51-1.36,1.73-1.22,2.9.41,3.62,1.18,7.15,2.6,10.49,2,.65,3.54-.47,5.18-.89,1.84-.47,3.61-1.19,5.45-1.64,1.66-.4,3.52-.08,5.05-1.7-1.13-3.16-2.27-6.42-3.45-9.66-.21-.59-.57-1.12-.88-1.72ZM89.43,234.61c.24.57.33,1.09.62,1.41,2.45,2.63,3.98,5.69,4.65,9.22.1.52.67.95,1.12,1.57,3.37-1.42,6.58-2.76,9.78-4.12.43-.18.94-.4,1.19-.75.43-.6,1.06-1.4.95-1.99-.69-3.84-2.24-7.26-5.53-9.64-2.18-1.57-4.39-1.71-6.62-.15-2.07,1.45-4.09,2.96-6.17,4.46ZM64.29,117.82c.2-3.34-.77-10.09-1.64-12.15-.06-.15-.1-.34-.21-.42-.63-.41-1.31-1.16-1.91-1.11-3.16.26-6.29.72-9.01,2.63-1.57,1.1-2.37,2.46-2.24,4.4.17,2.53.19,5.07.39,7.59.05.69.48,1.35.84,2.28,4.46-2.02,8.83-3.28,13.79-3.23ZM134.55,73.07c2.11,4.39,2.88,8.87,6.03,12.35,3.38-1.01,6.39-2.37,9.16-4,.85-1.86.64-3.48-.28-5.12-1.63-2.91-3.15-5.88-4.79-8.79-.35-.61-1.02-1.04-1.56-1.57-2.9,2.42-5.56,4.64-8.56,7.14ZM122.02,151c-2.26-.45-4.45-.76-6.57-1.33-2.17-.59-3.76.09-4.98,1.81-1.6,2.26-2.42,4.84-2.64,7.57-.05.61.56,1.64,1.12,1.88,4.09,1.76,8.23,3.39,12.39,4.97.45.17,1.11-.2,1.65-.31-.67-2.54-1.64-4.8-1.78-7.11-.14-2.45.5-4.94.81-7.48ZM79.1,251.82c.58.35.86.67,1.1.65,4.06-.37,7.42-2.58,10.94-4.33.41-.21.72-1.12.67-1.68-.3-3.66-1.81-6.76-4.77-8.98-.67-.5-1.89-.79-2.65-.55-3,.96-5.92,2.18-9.2,3.42,2.47,3.64,3.77,7.5,3.9,11.46ZM75.99,254.22c.36-4.17-.44-7.64-2.27-10.88-.64-1.13-1.46-2.09-2.67-2.1-2.31.86-4.37,1.68-6.47,2.38-1.43.48-2.05,1.45-1.98,2.86.16,2.86.27,5.68-1.04,8.38-.42.86.55,2.05,1.51,1.91,4.22-.6,8.46-1.19,12.92-2.55ZM157.06,109.91c-.61-.06-1.1-.23-1.52-.13-3.24.8-6.41,1.88-9.84,1.52-1.27-.13-2.11.74-2.42,1.9-.75,2.76-1.35,5.56-.69,8.42.5.27.9.63,1.34.69,3.9.52,7.59-.5,11.21-1.74,1.59-.54,2.62-1.88,2.67-3.64.06-2.35.03-4.72-.74-7.03ZM142.1,125.97c-.47,1.52-1.12,3.28-1.56,5.1-.4,1.65.77,3.29,2.47,3.39,3.18.2,6.34-.14,9.41-1.07.44-.13.91-.38,1.21-.71,2.32-2.6,3.07-5.64,2.64-9.32-4.63.85-8.96,1.65-14.17,2.61ZM152.19,84.1c-4.13,1.73-7.61,3.19-11.16,4.67.02,2.95.35,5.55,1.94,8.1,3.32-.28,6.64-.5,9.94-.88,1.9-.22,2.71-1.5,2.13-3.46-.8-2.72-1.8-5.38-2.85-8.44ZM58.85,244.93c-.51-.12-.96-.33-1.42-.33-4.31,0-4.85.31-6.34,4.22-.9,2.38-1.86,4.7-3.39,6.77-.38.51-.25,1.4-.37,2.27,1.4.08,2.49.19,3.59.2,6.7.03,7.5-.61,8.77-7.22.39-2.04.48-4.08-.84-5.91ZM105.01,157.9q1.4-5.69,4.61-9.9c1.1-1.44,1.15-2.54.19-3.93-.9-1.31-1.76-1.51-3.8-.85-2.59.83-5.17,1.65-7.75,2.52-.69.24-1.33.64-2.28,1.12,2.33,4.32,4.15,8.53,9.02,11.04ZM156.74,98.68c-4.51.57-8.55,1.07-12.96,1.63-.32,2.58-.55,5.01.79,7.37,3.45,1.35,6.7.39,9.84-.7,1.92-.67,3.09-2.24,2.86-4.47-.11-1.1-.3-2.19-.53-3.81ZM49.32,245.84c-1.22-1.74-3.2-.98-4.82-1.37-1.35-.33-2.56.18-3.24,1.42-1.41,2.56-3.53,4.39-6.06,5.87,1.69,3.04,4.38,4.2,7.16,5.13,3.46-2.77,5.81-6.53,6.96-11.06ZM99.72,81.03c-.3-4.17-2.23-6.85-5.89-8.1-2.69-.91-5.86.32-7.65,2.65-1.72,2.24-2.03,4.54-.96,6.71,2.3-.58,4.55-1.46,6.86-1.66,2.47-.21,4.99.23,7.64.39ZM110.01,137.27c-1.26.31-1.85.44-2.43.59-4.47,1.21-8.93,2.44-13.4,3.65-.85.23-1.58.16-1.64-1.33,2.77-.88,5.65-1.75,8.49-2.71,2.94-.99,6.09-1.5,8.92-3.39-.58-.3-.9-.61-1.1-.54-5.77,1.85-11.54,3.7-17.28,5.64-1.37.46-1.58,1.96-.59,3.09,1.6,1.83,3.61,1.98,5.69,1.23,4.21-1.5,8.37-3.12,12.54-4.73.21-.08.29-.51.81-1.5ZM107.01,121.38c-1.32,0-2.1-.1-2.85.02-5.41.84-10.51,2.63-15.41,5.03-.66.32-1.63.19-1.75,1.27-.08.69,1.09,1.17,2.34.92.31-.06.63-.11.93-.22,5.25-1.89,10.51-3.78,15.75-5.7.22-.08.34-.44.99-1.31ZM33.38,240.81c-2.8,2.41-3.35,4.16-2.2,6.93.78,1.89,2.16,2.26,3.7,1.01,1.76-1.43,3-3.18,3.45-5.58-1.44-1.25-3.05-2.14-4.94-2.36ZM88.14,131.88c.85.65.97.83,1.08.82,6.57-.62,12.48-3.42,18.51-5.77.21-.08.1-1,.16-1.92-7.05,1.32-12.95,4.42-19.76,6.87ZM103.53,118.47c-.28-.07-.43-.11-.58-.15.03.09.05.26.09.26.11,0,.23-.04.49-.11Z"/>
      <path d="M98.88.02c1.19,0,1.52-.06,1.83,0,8.11,1.69,16.39,2.66,23.65,7.28,6.47,4.12,13.18,7.84,19.8,11.72,11.48,6.73,20.42,15.87,26.21,27.9,2.35,4.89,4.42,9.92,6.59,14.9,1.59,3.66,2.98,7.38,5.62,10.53,1.08,1.28,1.64,3.09,2.16,4.74.72,2.28,1.13,4.66,1.77,6.97,1.44,5.16,1.44,10.3.76,15.64-1.2,9.44.09,18.48,6.35,26.26,4.98,6.18,6.87,13.25,5.58,21.13-.05.32-.09.64-.1.95-.17,8.47-2.65,16.36-6.03,24.03-2.25,5.12-4.43,10.28-6.81,15.34-2.05,4.37-5.05,8.16-8.13,11.83-2.59,3.08-6.23,4.4-10.08,5.06-2.29.39-4.47-.15-6.33-1.61-2.2-1.72-3.27-4-2.56-6.75.43-1.68,1.18-3.3,1.99-4.84,3.12-5.94,6.49-11.76,9.45-17.77,2.11-4.29,3.97-8.74,5.51-13.27,1.4-4.16,1.08-8.5.06-12.78-.92-3.88-1.81-7.77-2.64-11.67-.26-1.24-.36-2.54-.42-3.81-.16-3.7-.86-7.29-1.95-10.83-1.96-6.38-2.63-12.87-1.22-19.42,1.56-7.22-.18-13.61-4.32-19.51-1.47-2.09-2.97-4.17-4.46-6.25-2.99-4.15-6.07-8.24-8.96-12.46-2.8-4.08-5.85-7.97-8.41-12.23-1.61-2.67-3.99-5.04-6.46-7-3.5-2.76-7.32-5.14-11.14-7.45-3.69-2.23-7.5-4.28-11.36-6.2-2.71-1.35-5.54-2.47-8.4-3.47-2.41-.85-4.93-1.36-7.39-2.06-2.47-.7-4.84-1.24-7.48-.3-1.58.56-3.49.39-5.23.28-5.56-.35-10.47,1.41-14.73,4.77-3.5,2.77-6.79,5.83-9.96,8.98-9.5,9.42-16.88,20.45-23.7,31.86-3.48,5.82-5.73,12.04-6.19,18.96-.35,5.25-1.36,10.46-2.23,15.66-.34,2.03-.93,4.06-1.71,5.97-1.3,3.17-1.83,6.45-2.01,9.82-.17,3.24.37,6.35,1.84,9.3,1.42,2.86,2.6,5.84,4.06,8.68,1.6,3.12,3.11,6.35,5.14,9.18,3.38,4.7,4.54,9.74,3.77,15.4-.45,3.32-.6,6.68-.95,10.02-.25,2.44.3,4.42,2.69,5.59,1.22.59,1.86,1.68,2.36,2.9,1.38,3.41,2.86,6.77,4.19,10.2,1.33,3.42,2.64,6.82,2.36,10.66-.22,3.09,1.55,5.23,4.46,6.05,3.22.91,6.53,1.54,9.83,2.13,2.36.42,4.76.55,7.14.85,1.1.14,2.26.21,3.28.61,2.43.96,4.71,2.24,5.07,5.2.38,3.15-.04,6.1-2.89,8.13-.78.56-1.56,1.13-2.42,1.55-7.51,3.63-15.29,5.61-23.66,3.67-2.02-.47-4.03-1.05-6.08-1.38-5.02-.8-8.87-3.45-12.02-7.28-1.01-1.23-1.94-2.54-2.84-3.86-1.27-1.87-2.68-3.62-4.7-4.71-2.16-1.17-3.15-3.03-3.65-5.34-.74-3.43-1.56-6.85-2.46-10.25-.63-2.41-.74-4.77.38-7.02.87-1.74.78-3.34.02-5.05-2.14-4.8-2.51-9.86-2.28-15.03.21-4.63.38-9.25-.65-13.85-.99-4.45-2.73-8.52-5.51-12.12-2.15-2.78-4.36-5.52-6.63-8.21-1.79-2.12-3.03-4.46-3.77-7.14C0,123.06-.78,116.3,1,109.43c.4-1.54.78-3.11,1.45-4.54,2.17-4.63,4.39-9.24,6.73-13.79,1.49-2.89,2.59-5.85,2.64-9.12.08-5.02,1.3-9.81,3.01-14.49,2.14-5.85,4.34-11.69,6.55-17.51.51-1.34,1.04-2.71,1.8-3.91,7.32-11.65,16.08-21.89,28.27-28.77,6.41-3.61,12.76-7.31,19.09-11.06,5.78-3.43,12.02-5.08,18.71-5.31,2.23-.08,4.45-.38,6.68-.59,1.27-.12,2.54-.27,2.95-.32ZM189.44,171.73c-2.17,0-3.9.02-5.64,0-1.93-.02-3.84-.25-5.48-1.37-.31-.21-.59-.82-.52-1.18.08-.38.57-.96.9-.97,1.1-.04,2.2.14,3.3.21,1.9.12,3.82.41,5.71.3,2.78-.17,4.88-1.58,5.64-4.39.74-2.77,1.36-5.57,1.89-8.39.38-2,1.14-4,.44-6.29-4.79,0-8.84,4.02-13.91,2.46.08-.45,0-1.1.26-1.29.76-.55,1.62-1,2.5-1.32,2.55-.93,5.13-1.77,7.69-2.68,3.88-1.38,4.08-1.74,4.01-5.91-.05-2.76-.69-5.38-1.79-7.88-.29-.66-.9-1.18-1.68-2.17-3.29,4.25-7.77,5.19-12.46,5.71-1.04.12-2.01.76-3.25,1.25.28,1.43.37,2.7.79,3.85,1.27,3.49,1.78,7.1,2.16,10.76.29,2.76.01,5.37-.83,8.01-1.89,5.95-3.88,11.83-7.2,17.17-.34.54-.63,1.11-.87,1.7-.93,2.27-.58,3.7,1.55,4.84,2.92,1.57,6,2.83,9.36,3.81.74-1,1.67-1.78,2-2.77,1.51-4.49,4.15-8.54,5.46-13.48ZM125.04,11.56c0,2.46-.19,4.21.04,5.92.4,3-.22,5.62-1.78,8.23-2.39,3.99-2.11,4.82,1.96,7.13,5.85,3.32,11.61,6.76,16.72,11.17.22.19.59.21,1.27.43.83-.58,2.05-1.12,2.84-2.04,2.59-3.03,5.09-6.15,7.48-9.34,1.07-1.43.67-2.76-1.08-4.11-3.54-2.74-7.14-5.41-10.74-8.07-.44-.32-1.09-.35-1.77-.55-.46,1.86-.44,3.42-.19,5.02.12.74.13,1.65-.19,2.28-1.07,2.13-2.24,4.22-3.52,6.22-.38.6-1.25.92-1.95,1.26-.19.1-.63-.1-.83-.29-.2-.19-.43-.64-.34-.81.61-1.11,1.27-2.19,1.97-3.24,1.74-2.6,2.78-5.4,2.41-8.58-.21-1.78-.61-3.62-2.11-4.69-2.96-2.1-5.94-4.22-10.18-5.94ZM40.26,61.5c2.27-3.08,3.36-5.56,4.88-7.74,1.2-1.72,1.48-3.47.76-5.43-.44-1.2-.7-2.46-1.18-3.64-1.63-4.05-4.79-6.29-8.91-7.28-2.38-.57-3.43-.06-4.79,2.05-1.3,2.01-2.63,4.01-3.87,6.06-.56.92-.94,1.94-1.56,3.23,1.52.67,2.77,1.3,4.08,1.77,4.88,1.77,8.85,4.48,10.59,10.97ZM17.82,67.86c-1.62,4.92-2.38,9.6-2.62,14.37-.03.54.51,1.11.61,1.32,2.64.79,5.04,1.22,7.15,2.23,2.04.98,3.79,2.56,5.96,4.08.75-4.21,1.47-7.96,2.07-11.73.35-2.19-.34-4.13-1.96-5.66-2.99-2.84-6.46-4.56-11.2-4.61ZM153.51,59.39c2.04,3.01,4.1,6.17,6.32,9.21.35.48,1.48.68,2.17.57.9-.15,1.89-.56,2.55-1.17,2.22-2.05,4.35-4.2,6.43-6.38,1.35-1.41,1.52-3.09.65-4.86-1.33-2.71-2.64-5.44-3.99-8.14-.33-.66-.8-1.26-1.42-2.22-2.54,2.04-3.92,4.58-5.85,6.61-2.06,2.17-4.38,4.1-6.85,6.38ZM33.56,72.8c1.31-2.29,2.34-4.42,3.68-6.35,1.52-2.19,1.14-4.16-.12-6.22-2.36-3.86-6-6.11-10-7.86-1.58-.69-3.29-.1-4.05,1.5-1.36,2.88-2.54,5.84-3.66,8.82-.45,1.19.19,2.15,1.45,2.58.9.31,1.84.54,2.77.75,3.23.72,5.95,2.21,7.95,4.93.45.6,1.11,1.05,1.97,1.84ZM78.07,5.84c3.15,3.69,3.56,7.54,3.68,11.33.17,5.31,1.61,4.74,5.16,4.63,1.42-.04,2.86-.25,4.24-.58,1.52-.36,2.58-1.48,2.83-2.97.61-3.64.71-7.32-.1-10.95-.17-.74-.61-1.54-1.16-2.06-.66-.62-1.56-1.34-2.37-1.36-3.81-.08-7.56.5-12.27,1.96ZM145.14,47.47c1.41,2.31,2.72,4.46,4.04,6.61.08.14.19.26.29.38,1.02,1.35,2.62,1.84,3.72.77,3.32-3.2,6.59-6.47,9.67-9.9,1.28-1.42,1.03-3.28-.02-4.91-1.2-1.88-2.36-3.78-3.64-5.61-.41-.59-1.14-.96-1.99-1.65-2.19,2.42-3.47,5.23-5.46,7.45-2.1,2.35-4.37,4.54-6.61,6.84ZM25.53,106.51c1.63-2.12,2.08-4.34,2.33-6.51.88-7.67,1.94-5.94-4.75-10.91-1.85-1.37-3.93-2.22-6.25-2.07-.87.06-2.09.42-2.49,1.06-1.86,2.98-3.52,6.09-5.17,9.19-.45.83.35,1.84,1.47,1.99,1.9.26,3.8.45,5.69.75,2.27.36,4.22,1.3,5.74,3.15.98,1.19,2.21,2.17,3.44,3.35ZM23,116.55c.45-.91.85-1.43.97-2.01.47-2.32-.24-4.4-1.43-6.36-3.26-5.36-8.24-7.21-15.54-5.64-.48,1.16-1.05,2.46-1.55,3.78-.56,1.49-1.02,3.01-1.55,4.51-.47,1.32-1.18,2.61-.25,4.28,3.1-.38,6.18-.83,9.28-1.11,3.45-.31,6.45,1.47,10.08,2.54ZM95.78,3.12c.25,1.49.28,2.44.58,3.28,1.05,2.94.89,5.95.79,8.99-.06,1.71-1.56,3.65-.17,5.02,1.14,1.14,3.06,1.5,4.65,2.17.58.25,1.2.46,1.82.58,2.56.5,4.55-.63,4.9-3.24.41-2.99.59-6.05.43-9.05-.09-1.67-.98-3.34-1.72-4.9-.56-1.2-1.71-1.89-3.06-2.04-2.51-.28-5.02-.5-8.21-.8ZM110.5,4.77c.18,1.36.14,2.3.44,3.12,1.65,4.39,1.56,8.72-.21,13.04-.24.59-.47,1.19-.65,1.8-.31,1.04,0,2.09.92,2.47,2.59,1.06,5.03,2.52,7.67,3.29,3.95-6.47,4.62-9.86,3.58-16.05-.32-1.94-1.19-3.21-2.98-3.95-2.78-1.15-5.54-2.33-8.78-3.7ZM68.9,26.94c.45,0,.82.11,1.07-.02,2.26-1.14,4.53-2.29,6.75-3.5,1.16-.63,1.92-1.65,2.24-2.96,1.11-4.52-.33-8.47-2.79-12.15-.58-.87-1.63-1.04-2.58-.68-.88.33-1.68.87-2.49,1.36-2.46,1.46-4.9,2.94-7.36,4.42-.76.46-1.52.92-2.5,1.51,1.67,1.93,3.34,3.46,4.5,5.3,1.25,1.98,2.03,4.25,3.16,6.72ZM49.65,47.59c2.41-1.67,3.62-3.92,4.75-6.19.34-.68.39-1.54.42-2.32.17-5.16-2.97-10.15-7.65-12.31-1.28-.59-2.5-.63-3.62.2-2.18,1.61-4.34,3.25-6.41,5-.52.43-.65,1.31-.97,1.98q8.11,3.91,13.48,13.64ZM173.93,62.97c-2.29,1.81-3.96,3.5-5.52,5.27-1.56,1.76-3.93,2.72-5.08,5.09,1.74,2.67,3.4,5.33,5.19,7.92.77,1.11,2.02,1.5,3.37,1.42,2.15-.12,3.99-1.07,5.68-2.28,1.53-1.09,3.24-2.1,3.46-4.42-2.23-4.08-4.5-8.25-7.1-13ZM22.75,125.36c-.4-5.08-1.48-6.93-5.22-7.82-4.05-.97-8.2-.83-12.25.23-1.67.44-2.55,1.54-2.35,3.13.27,2.19.69,4.4,1.36,6.5.6,1.88.87,3.99,2.67,5.68,1.6-1.55,2.93-3.1,4.53-4.32,1.49-1.14,3.15-2.27,4.91-2.79,1.91-.56,4.03-.42,6.37-.61ZM182.67,80.44c-3.04,1.61-5.43,2.85-7.79,4.15-2.06,1.14-2.8,2.97-2.38,5.22.44,2.34.96,4.67,1.57,6.97.71,2.66,2.52,3.93,5.29,3.81.94-.04,1.88-.27,2.79-.52,1.36-.38,2.13-1.32,2.27-2.74.39-3.97.45-7.94-.39-11.87-.32-1.52-.82-3-1.38-5.02ZM58.24,37.77c1.97-1.92,3.54-3.48,5.15-4.99,2.17-2.03,3.3-4.38,1.23-8.72-1.38-2.91-3.51-5.24-6.4-6.93-3.38,2.08-7.53,2.73-10.05,6.56,2.37,1.84,5.15,3.04,6.45,5.65,1.26,2.51,2.23,5.16,3.61,8.43ZM168.64,184.35c-2.37,3.69-4.22,7.35-5.83,11.13-.35.83-.34,1.86-.35,2.79,0,1.04.56,1.85,1.56,2.16,3.71,1.13,7.31.97,10.31-1.72,1.88-1.68,3.49-3.68,5.11-5.62.42-.51.44-1.36.66-2.15-4.1-1.95-8.52-2.68-11.46-6.58ZM173.15,102.72c-.82,3.48-.97,6.97-.77,10.45.21,3.69,1.41,5.85,6.61,5.47,1.09-.08,2.18-.45,3.22-.84,1.85-.69,2.76-2.1,2.64-4.08-.2-3.48-.82-6.88-1.54-10.18-3.42-.28-6.53-.54-10.16-.83ZM174.09,122.15c.84,3.51,1.61,6.75,2.41,9.99.07.28.37.51.75.99,1.39.06,2.97.21,4.55.17,3.01-.07,5.52-1.46,7.81-3.28.98-.78,1.31-1.92.7-3.01-1.36-2.46-2.85-4.84-4.07-6.89-4.2.7-7.92,1.31-12.16,2.02ZM37.99,161.86c-4.91-1.25-8.88-.09-12.61,2.38-4.38,2.9-5.16,5.39-3.41,11.34.86-.43,1.71-.75,2.45-1.24,2.02-1.34,4.22-2.21,6.57-2.8,5.87-1.47,5.87-1.5,6.77-7.28.1-.61.12-1.24.22-2.4ZM21.68,163.13c.8-.37,1.29-.47,1.6-.76,3.32-3.09,7.2-4.5,11.76-4.14.85.07,1.73-.39,2.87-.68-.3-1.2-.41-2.13-.76-2.94-.57-1.3-1.37-2.5-1.98-3.79-1.37-2.91-2.16-3.32-5.09-2.43-.61.19-1.22.38-1.79.64-6.65,2.98-8.27,6.28-6.61,14.09ZM65.31,214.83c-3.85-2.34-6.75-1.69-8.65,1.93-1.59,3.04-1.99,6.37-2.28,9.7-.14,1.58.94,2.61,2.64,2.8,2.6.3,4.98-.49,7.58-1.36-.34-2.4-.97-4.59-.85-6.74.12-2.13,1-4.22,1.55-6.33ZM30.92,145.2c-.47-3.4-2.45-5.42-3.61-7.82-.22-.46-1.43-.76-2.09-.64-3.1.56-5.62,2.22-7.53,4.71-1.6,2.08-1.98,4.32-.36,6.62.8,1.13,1.58,2.27,2.52,3.63,3.21-3.26,6.65-5.47,11.07-6.5ZM55.73,212.16c-1.02-.23-2.04-.63-2.15-.45-1.01,1.62-2.71,1.38-4.18,1.76-4.11,1.05-6.18,4.28-7.91,7.73-.75,1.49-.07,3.59,1.23,4.21,2.55,1.22,5.21,2.14,8.21,1.82.48-2.76.66-5.31,1.42-7.68.76-2.39,2.08-4.6,3.39-7.39ZM24.87,132.8c.04-.15.12-.31.1-.45-.08-.47-.14-.95-.31-1.38-.94-2.33-1.48-2.74-3.9-2.67-5.67.17-9.45,3.11-11.99,8.03,1.59,2.3,3.07,4.25,5.47,5.22q3.35-4.6,10.64-8.75ZM66.65,221.18c0,.96,0,1.12,0,1.28.1,4.47,1.59,5.44,5.59,3.53,1.42-.68,2.86-1.47,4.04-2.5,1.85-1.62,2.24-4.43,1.12-6.08-1.38-2.02-5.29-3.62-7.15-2.7-.93.46-1.9,1.31-2.32,2.22-.72,1.56-1.02,3.32-1.28,4.25ZM24.85,186.87c.66-.61,1.4-1.18,2.01-1.87,1.91-2.2,4.14-3.98,6.76-5.27.57-.28,1.17-.52,1.7-.87,1.45-.96,1.78-2.24,1.02-3.71-.66-1.28-1.76-1.84-3.2-1.33-2.1.75-4.17,1.62-6.19,2.57-5.45,2.58-5.98,4.37-2.97,9.69.14.26.46.42.88.79ZM37.94,221.8c.36-.57.66-.93.84-1.34,2.84-6.4,5.55-9.53,12.76-10.04-1.67-3.25-2.85-4.07-5.24-2.86-3.96,2-7.77,4.3-11.59,6.55-1.04.61-1.52,1.77-1.07,2.9.82,2.07,2.17,3.75,4.31,4.8ZM27.19,210.38c7.71-3.48,14-7.47,20.37-11.31.16-.1.09-.58.12-.88-1.26-.93-2.35-.37-3.51.3-4.39,2.57-8.82,5.08-13.23,7.63-1.09.63-2.18,1.3-3.19,2.05-.26.19-.22.78-.57,2.21ZM24.76,190.96c3.03-.68,12.75-5.77,15.6-7.81.33-.24.48-.72.85-1.32-1.68-.85-3.1-.53-4.6,0-4.95,1.75-8.35,5.48-11.85,9.13ZM25.68,205.55c.7-.15,1.35-.14,1.83-.42,5.53-3.18,11.04-6.39,16.54-9.62.4-.23.82-.61.97-1.01.13-.34-.13-.81-.26-1.45-.74.27-1.35.4-1.87.7-5.1,2.96-10.2,5.94-15.26,8.96-.66.4-1.17,1.08-1.68,1.68-.17.19-.14.55-.26,1.16ZM43.02,190.31c-.58-.04-1.08-.21-1.47-.07-4.84,1.67-9.27,4.19-13.67,6.77-.82.48-1.56,1.12-2.24,1.79-.38.38-1.03.83-.45,1.55,2.57-.76,14.04-7.21,17.83-10.04ZM24.25,196.59c1.83-1.21,3.59-2.53,5.5-3.59,2.08-1.15,4.31-2.02,6.44-3.06,1.57-.76,3.11-1.58,4.63-2.43.49-.28.89-.73,1.57-1.32q-2.13-.27-7.57,2.52-9.7,4.96-10.57,7.87ZM46.96,203.23c-4.52.96-10.86,4.81-13.94,8.35,5.24-2.96,10-4.96,13.94-8.35Z"/>
      <path class="cls-1" d="M76.44,151.25c-1.11-.78-1.68-1.49-2.31-1.55-1.72-.16-3.52-.31-5.19.02-2.32.47-4.57,1.36-6.83,2.12-1.03.34-2.03.79-3.26,1.27-.5-.76-1.08-1.33-1.3-2.02-.88-2.73-1.7-5.48-2.46-8.24-.43-1.56-.03-2.45,1.36-3.17,3.61-1.85,7.56-2.45,11.51-2.97,1.32-.17,2.5.47,3.26,1.64.52.8,1.03,1.62,1.42,2.48,2.94,6.53,5.85,13.06,8.85,19.77-1.98,1.39-4.1,1.16-6.02,1.64-2,.51-4.02,1.04-5.94,1.78-1.91.74-3.72,1.74-5.72,2.7-2.72-2.41-3.5-5.65-4.05-8.91-.27-1.65,1-2.64,2.45-3.11,3.63-1.19,7.23-2.51,11.15-2.48.83,0,1.66-.51,3.06-.97Z"/>
      <path class="cls-1" d="M78.59,198.24c-.44-.27-.84-.37-.93-.6-1.4-3.55-2.81-7.1-4.09-10.7-.23-.64-.07-1.66.31-2.24,1.49-2.31,3.35-4.32,6.09-5.15,2.43-.74,4.92-1.28,7.41-1.92,1.99,2.62,3.62,5.39,5.85,7.55,2.14,2.07,4.9,3.51,7.6,5.37-.49.68-.91,1.52-1.56,2.12-3.39,3.15-5.51,6.99-6.54,11.47-.14.62-.29,1.25-.5,1.85-.37,1.04-1.33,1.62-2.24,1.22-3.35-1.47-6.6-3.1-9.23-5.92,2.37-6.37,6.23-10.9,12.74-12.32.08-2.16-1.03-2.49-2.19-2.17-3.64.98-6.74,2.89-9.05,5.92-.87,1.14-1.56,2.41-2.35,3.61-.43.65-.88,1.28-1.32,1.91Z"/>
      <path class="cls-1" d="M99.74,83.79c.08.87.38,1.69.2,2.39-.92,3.52-.13,7.28-1.43,10.97-4.01-.41-7.74.21-11.15,2.09-.69.38-1,1.46-1.84,2.78,1.53-.18,2.45-.17,3.29-.41,1.37-.39,2.67-1.09,4.06-1.41,3.02-.71,5.08.43,5.92,3.31.53,1.83.86,3.73,1.12,5.62.22,1.58-.28,2.53-1.73,3.03-3.16,1.08-6.37,2.02-9.59,2.94-.83.24-1.59-.2-1.93-1.02-.31-.73-.58-1.5-.7-2.28-1-6.46-2.44-12.86-2.57-19.43-.01-.64-.06-1.27-.11-1.91-.19-2.55.95-4.18,3.26-5.26,2.66-1.24,5.27-2.1,8.29-1.45,1.5.32,3.13.06,4.91.06Z"/>
      <path class="cls-1" d="M78.75,41.97c5.67-3.5,11.06-5.68,17.17-5.65,3.77.02,5.06.94,6.23,4.61,1.3,4.1,1.12,8.15-.33,12.25-2.51,1.07-5.06.37-7.56.33-2.68-.05-5.38-.57-8.14.89-.39-1.18-.87-2.03-.92-2.9-.16-3.1-1.55-5.45-3.99-7.28-.73-.55-1.37-1.24-2.47-2.25Z"/>
      <path class="cls-1" d="M123.06,202.19c-1.44.35-2.2.77-2.89.67-5.44-.77-9.89,1.61-14.24,4.34-1.07.67-1.98,1.61-3.06,2.27-1.93,1.17-3.92,1.09-5.88-.01-1.57-.88-2.13-1.89-1.56-3.53.89-2.54,1.82-5.09,2.98-7.52,1.74-3.63,5.16-5.5,8.46-7.44.26-.15.61-.25.91-.24,4.55.17,8.97.71,11.69,5.06,1.17,1.87,2.16,3.85,3.58,6.41Z"/>
      <path class="cls-1" d="M70.43,67.08c-2.55,5.52-4.51,10.75-8.26,15.39-3.63-1.49-7.54-1.31-11.71-.61-.14-.81-.45-1.44-.31-1.94,1.43-5.23,3.13-10.36,6.06-15.01.97-1.54,2.17-2.18,3.93-2.11,3.08.12,6.04.59,8.59,2.47.61.45,1.06,1.11,1.7,1.81Z"/>
      <path class="cls-1" d="M58.57,59.87c4.59-7.75,9.98-13.09,18.24-15.48,2.7,1.28,4.61,3.71,5.52,6.9.73,2.56-.1,4.19-2.05,5.25-1.52.83-2.95,1.88-4.3,2.97-1.34,1.09-2.55,2.35-4.13,3.83-4-1.14-7.84-4.16-13.28-3.48Z"/>
      <path class="cls-1" d="M104.87,54.71c.34-2.87.96-5.65.91-8.42-.05-2.65-.81-5.29-1.31-8.25.4-.03,1.01-.25,1.46-.07,4.28,1.68,8.58,3.33,12.79,5.19,3.11,1.37,3.78,2.82,3.01,6.07-.59,2.46-1.34,4.9-2.2,7.28-.69,1.92-1.89,2.54-3.7,1.96-3.6-1.16-7.16-2.45-10.95-3.76Z"/>
      <path class="cls-1" d="M133.64,144.79c1.54-2.26,2.86-4.22,4.21-6.16.68-.97,1.64-1.52,2.86-1.38,4.47.51,8.85-.13,13.06-.92,1.06.62,1,1.43.7,2.18-1.56,3.82-3.13,7.64-4.79,11.43-.37.85-.97,1.66-1.62,2.33-2.64,2.69-5.2,2.78-7.9.18-2.05-1.98-3.96-4.12-5.89-6.23-.3-.32-.38-.84-.64-1.43Z"/>
      <path class="cls-1" d="M123.34,222.74c-1.38-.57-2.44-.85-3.32-1.4-3.06-1.94-6.32-2.86-9.96-2.57-1.57.13-3.16.02-4.62.02-2.12-3.88-2.03-5.04.66-7.65,3.8-3.69,8.29-5.84,13.69-5.64,2.99.11,4.06,1.13,4.03,4.1-.03,4.24-.3,8.47-.49,13.14Z"/>
      <path class="cls-1" d="M48.9,105.3c-1.6-1.02-1.49-2.33-1.41-3.59.23-3.81.47-7.62.78-11.43.3-3.63,2.54-5.76,6.17-5.85,1.1-.03,2.22.16,3.3.4,4.2.93,4.47,1.49,4.26,5.82-.12,2.52.22,5.06.39,7.58.13,1.85-.45,2.83-2.31,2.85-4.32.05-8.08,1.46-11.19,4.21Z"/>
      <path class="cls-1" d="M125.56,47.24c1.02.88,1.9,1.53,2.66,2.29,3.36,3.41,6.7,6.86,10.03,10.3.44.46.89.92,1.26,1.44.58.83.79,1.74.33,2.71-.98,2.05-2.28,3.84-4.18,5.14-1.47,1-2.99,1.09-4.48.09-.93-.62-1.8-1.32-2.68-2-1.76-1.36-3.49-2.76-5.28-4.09-1.97-1.46-2.24-2.21-1.49-4.45,1.22-3.6,2.42-7.21,3.83-11.42Z"/>
      <path class="cls-1" d="M71.65,182.07c-.6-.68-1.26-1.18-1.6-1.84-1.63-3.23-3.67-6.28-4.64-9.73,4.26-4.7,9.67-6.34,17.87-5.35,1.5,3.06,2.69,6.42,3.34,9.98-2.91.71-5.82,1-8.33,2.15-2.38,1.09-4.35,3.09-6.64,4.8Z"/>
      <path class="cls-1" d="M143.04,158.26c-.65.65-1.1,1.35-1.73,1.7-3.49,1.91-6.99,3.82-10.56,5.58-2.75,1.35-4.64.55-5.67-2.25-1.56-4.25-.86-8.51.27-12.68.56-2.06,3.84-3.2,6.1-2.31.86.34,1.78.86,2.34,1.57,2.21,2.81,5.06,4.81,7.95,6.8.48.33.76.93,1.29,1.61Z"/>
      <path class="cls-1" d="M111.43,239.72c-1.43-2.9-2.43-5.62-4.01-7.95-1.49-2.2-3.59-3.98-5.47-5.99.48-2.56,1.96-3.88,4.44-4.31,5.59-.97,10.32,1,14.7,4.2.82.6,1.22,1.55.74,2.53-2.32,4.71-4.65,9.43-10.4,11.52Z"/>
      <path class="cls-1" d="M65.14,121.3c.31.59.67,1.13.88,1.72,1.18,3.24,2.33,6.5,3.45,9.66-1.53,1.62-3.4,1.3-5.05,1.7-1.84.45-3.61,1.17-5.45,1.64-1.64.42-3.18,1.54-5.18.89-1.42-3.34-2.19-6.87-2.6-10.49-.13-1.16.12-2.39,1.22-2.9,4.02-1.83,8.04-3.91,12.73-2.22Z"/>
      <path class="cls-1" d="M89.43,234.61c2.07-1.5,4.1-3.01,6.17-4.46,2.22-1.56,4.44-1.42,6.62.15,3.3,2.38,4.84,5.8,5.53,9.64.11.6-.52,1.39-.95,1.99-.25.36-.76.57-1.19.75-3.2,1.36-6.41,2.71-9.78,4.12-.45-.61-1.02-1.04-1.12-1.57-.67-3.53-2.2-6.59-4.65-9.22-.3-.32-.38-.84-.62-1.41Z"/>
      <path class="cls-1" d="M64.29,117.82c-4.96-.05-9.33,1.21-13.79,3.23-.36-.94-.78-1.6-.84-2.28-.19-2.53-.22-5.06-.39-7.59-.13-1.95.67-3.31,2.24-4.4,2.72-1.9,5.85-2.37,9.01-2.63.61-.05,1.28.7,1.91,1.11.11.07.15.27.21.42.87,2.06,1.84,8.81,1.64,12.15Z"/>
      <path class="cls-1" d="M134.55,73.07c3-2.5,5.66-4.72,8.56-7.14.54.53,1.22.96,1.56,1.57,1.64,2.9,3.16,5.88,4.79,8.79.92,1.64,1.13,3.27.28,5.12-2.77,1.64-5.78,2.99-9.16,4-3.15-3.48-3.92-7.96-6.03-12.35Z"/>
      <path class="cls-1" d="M122.02,151c-.31,2.53-.95,5.03-.81,7.48.14,2.31,1.11,4.57,1.78,7.11-.53.11-1.19.48-1.65.31-4.16-1.59-8.3-3.22-12.39-4.97-.56-.24-1.17-1.27-1.12-1.88.22-2.72,1.04-5.31,2.64-7.57,1.22-1.72,2.81-2.4,4.98-1.81,2.12.58,4.31.89,6.57,1.33Z"/>
      <path class="cls-1" d="M79.1,251.82c-.13-3.96-1.43-7.83-3.9-11.46,3.27-1.24,6.2-2.46,9.2-3.42.76-.24,1.98.05,2.65.55,2.96,2.22,4.47,5.32,4.77,8.98.05.55-.26,1.47-.67,1.68-3.52,1.75-6.88,3.96-10.94,4.33-.25.02-.53-.3-1.1-.65Z"/>
      <path class="cls-1" d="M75.99,254.22c-4.46,1.36-8.7,1.95-12.92,2.55-.95.14-1.93-1.05-1.51-1.91,1.31-2.7,1.2-5.52,1.04-8.38-.08-1.41.54-2.38,1.98-2.86,2.1-.7,4.16-1.52,6.47-2.38,1.2.01,2.03.97,2.67,2.1,1.83,3.24,2.63,6.71,2.27,10.88Z"/>
      <path class="cls-1" d="M157.06,109.91c.77,2.31.8,4.67.74,7.03-.05,1.76-1.08,3.1-2.67,3.64-3.62,1.24-7.31,2.25-11.21,1.74-.44-.06-.84-.42-1.34-.69-.66-2.87-.07-5.66.69-8.42.32-1.16,1.16-2.03,2.42-1.9,3.43.36,6.61-.72,9.84-1.52.42-.1.91.07,1.52.13Z"/>
      <path class="cls-1" d="M142.1,125.97c5.22-.96,9.54-1.76,14.17-2.61.43,3.68-.33,6.71-2.64,9.32-.3.33-.77.58-1.21.71-3.07.92-6.22,1.26-9.41,1.07-1.7-.1-2.87-1.73-2.47-3.39.43-1.82,1.09-3.58,1.56-5.1Z"/>
      <path class="cls-1" d="M152.19,84.1c1.04,3.06,2.05,5.72,2.85,8.44.58,1.96-.23,3.24-2.13,3.46-3.3.38-6.62.59-9.94.88-1.58-2.55-1.92-5.15-1.94-8.1,3.55-1.48,7.03-2.94,11.16-4.67Z"/>
      <path class="cls-1" d="M58.85,244.93c1.32,1.83,1.24,3.87.84,5.91-1.27,6.61-2.06,7.25-8.77,7.22-1.1,0-2.2-.12-3.59-.2.13-.87,0-1.76.37-2.27,1.53-2.07,2.48-4.39,3.39-6.77,1.49-3.91,2.02-4.22,6.34-4.22.45,0,.91.2,1.42.33Z"/>
      <path class="cls-1" d="M105.01,157.9c-4.87-2.51-6.7-6.72-9.02-11.04.96-.48,1.59-.88,2.28-1.12,2.57-.87,5.16-1.69,7.75-2.52,2.04-.66,2.9-.46,3.8.85.96,1.4.91,2.49-.19,3.93q-3.21,4.21-4.61,9.9Z"/>
      <path class="cls-1" d="M156.74,98.68c.23,1.62.41,2.71.53,3.81.23,2.24-.94,3.8-2.86,4.47-3.14,1.1-6.39,2.05-9.84.7-1.34-2.36-1.1-4.78-.79-7.37,4.41-.55,8.45-1.06,12.96-1.63Z"/>
      <path class="cls-1" d="M49.32,245.84c-1.15,4.53-3.5,8.29-6.96,11.06-2.79-.93-5.48-2.09-7.16-5.13,2.54-1.48,4.65-3.31,6.06-5.87.68-1.24,1.89-1.75,3.24-1.42,1.62.39,3.6-.38,4.82,1.37Z"/>
      <path class="cls-1" d="M99.72,81.03c-2.65-.16-5.17-.6-7.64-.39-2.31.19-4.56,1.07-6.86,1.66-1.07-2.17-.76-4.48.96-6.71,1.79-2.33,4.95-3.56,7.65-2.65,3.66,1.24,5.59,3.92,5.89,8.1Z"/>
      <path class="cls-1" d="M110.01,137.27c-.52.99-.59,1.42-.81,1.5-4.17,1.61-8.33,3.23-12.54,4.73-2.08.75-4.1.6-5.69-1.23-.98-1.13-.78-2.63.59-3.09,5.74-1.93,11.51-3.79,17.28-5.64.2-.06.52.25,1.1.54-2.83,1.88-5.98,2.39-8.92,3.39-2.84.96-5.71,1.83-8.49,2.71.06,1.49.79,1.56,1.64,1.33,4.47-1.21,8.94-2.43,13.4-3.65.58-.16,1.17-.29,2.43-.59Z"/>
      <path class="cls-1" d="M107.01,121.38c-.64.88-.77,1.23-.99,1.31-5.24,1.92-10.5,3.81-15.75,5.7-.3.11-.62.16-.93.22-1.25.24-2.42-.23-2.34-.92.12-1.08,1.09-.94,1.75-1.27,4.9-2.4,10-4.19,15.41-5.03.75-.12,1.53-.02,2.85-.02Z"/>
      <path class="cls-1" d="M33.38,240.81c1.9.22,3.5,1.11,4.94,2.36-.45,2.39-1.69,4.14-3.45,5.58-1.54,1.25-2.92.88-3.7-1.01-1.15-2.76-.6-4.51,2.2-6.93Z"/>
      <path class="cls-1" d="M88.14,131.88c6.81-2.44,12.71-5.54,19.76-6.87-.06.92.05,1.83-.16,1.92-6.04,2.35-11.94,5.16-18.51,5.77-.11.01-.24-.17-1.08-.82Z"/>
      <path class="cls-1" d="M92.25,121.72c-1.5,1.88-3.79,1.94-5.93,2.72-.46-.54-1.07-.96-1.21-1.5-.13-.53.12-1.22.37-1.76.63-1.33,1.52-2.56,2.96-3,3.65-1.12,7.35-2.09,11.04-3.08.24-.06.56.21,1.16.46-4.13,2.91-9.59,2.46-13.65,5.82,1.99,1.36,3.74-.11,5.35.43l-.08-.1Z"/>
      <path class="cls-1" d="M100.82,133.92c.07-.45,0-1.18.23-1.3,2.37-1.2,4.77-2.32,7.2-3.38.32-.14.85.18,1.23.28.21,1.13-.48,1.46-1.24,1.74-2.48.89-4.96,1.78-7.44,2.67h.01Z"/>
      <path class="cls-1" d="M92.89,134.89c-.02.99-.53,1.29-1.89.93.88-.37,1.44-.6,2-.84l-.1-.09Z"/>
      <path class="cls-1" d="M93,134.98c.66-.18,1.3-.85,2.42.22-1.12-.13-1.81-.21-2.51-.3-.01-.01.09.08.09.08Z"/>
      <path class="cls-1" d="M100.81,133.93h-2.56c1.05-.8,1.83-.02,2.57,0,0,0-.01,0-.01,0Z"/>
      <path class="cls-1" d="M92.33,121.82c.54-1.24,1.78-.76,2.69-1.09l-.12-.1c-.43,1.45-1.53,1.29-2.65,1.1,0,0,.08.09.08.09Z"/>
      <path class="cls-1" d="M95.01,120.72c.24-.14.47-.29.73-.4.05-.02.17.1.26.16-.36.05-.72.1-1.09.14-.01,0,.11.09.11.09Z"/>
      <path class="cls-1" d="M103.53,118.47c-.26.06-.38.12-.49.11-.03,0-.06-.17-.09-.26.15.04.3.08.58.15Z"/>
      <path class="cls-1" d="M189.44,171.73c-1.31,4.94-3.95,9-5.46,13.48-.33.99-1.26,1.77-2,2.77-3.35-.99-6.43-2.24-9.36-3.81-2.13-1.15-2.48-2.57-1.55-4.84.24-.59.53-1.16.87-1.7,3.32-5.34,5.31-11.23,7.2-17.17.84-2.65,1.12-5.25.83-8.01-.38-3.67-.88-7.28-2.16-10.76-.42-1.15-.51-2.43-.79-3.85,1.24-.49,2.22-1.13,3.25-1.25,4.69-.52,9.17-1.46,12.46-5.71.79.99,1.39,1.51,1.68,2.17,1.1,2.5,1.75,5.12,1.79,7.88.07,4.17-.13,4.53-4.01,5.91-2.56.91-5.14,1.74-7.69,2.68-.88.32-1.74.77-2.5,1.32-.26.19-.18.84-.26,1.29,5.07,1.56,9.11-2.46,13.91-2.46.7,2.29-.06,4.29-.44,6.29-.53,2.82-1.15,5.62-1.89,8.39-.75,2.82-2.85,4.22-5.64,4.39-1.89.12-3.81-.17-5.71-.3-1.1-.07-2.21-.26-3.3-.21-.33.01-.82.59-.9.97-.07.36.2.97.52,1.18,1.64,1.12,3.55,1.34,5.48,1.37,1.74.02,3.48,0,5.64,0Z"/>
      <path class="cls-1" d="M125.04,11.56c4.24,1.72,7.22,3.84,10.18,5.94,1.5,1.07,1.9,2.91,2.11,4.69.37,3.18-.67,5.98-2.41,8.58-.7,1.05-1.36,2.13-1.97,3.24-.09.17.14.62.34.81.2.19.64.39.83.29.7-.35,1.57-.66,1.95-1.26,1.29-2.01,2.46-4.09,3.52-6.22.32-.64.31-1.54.19-2.28-.26-1.6-.27-3.16.19-5.02.68.2,1.33.23,1.77.55,3.61,2.65,7.2,5.32,10.74,8.07,1.74,1.35,2.14,2.68,1.08,4.11-2.39,3.19-4.89,6.31-7.48,9.34-.78.92-2.01,1.46-2.84,2.04-.67-.22-1.05-.24-1.27-.43-5.12-4.41-10.87-7.85-16.72-11.17-4.06-2.3-4.35-3.13-1.96-7.13,1.56-2.61,2.18-5.23,1.78-8.23-.23-1.7-.04-3.46-.04-5.92Z"/>
      <path class="cls-1" d="M40.26,61.5c-1.74-6.49-5.71-9.2-10.59-10.97-1.31-.48-2.56-1.11-4.08-1.77.62-1.29,1-2.31,1.56-3.23,1.24-2.05,2.57-4.04,3.87-6.06,1.37-2.12,2.41-2.63,4.79-2.05,4.12.99,7.28,3.23,8.91,7.28.47,1.18.74,2.45,1.18,3.64.72,1.96.44,3.71-.76,5.43-1.52,2.18-2.6,4.66-4.88,7.74Z"/>
      <path class="cls-1" d="M17.82,67.86c4.74.04,8.21,1.77,11.2,4.61,1.62,1.53,2.31,3.47,1.96,5.66-.6,3.77-1.32,7.52-2.07,11.73-2.17-1.52-3.92-3.1-5.96-4.08-2.12-1.01-4.51-1.44-7.15-2.23-.1-.21-.64-.78-.61-1.32.25-4.77,1-9.45,2.62-14.37Z"/>
      <path class="cls-1" d="M153.51,59.39c2.48-2.28,4.79-4.21,6.85-6.38,1.93-2.03,3.32-4.58,5.85-6.61.62.96,1.08,1.56,1.42,2.22,1.35,2.7,2.66,5.43,3.99,8.14.87,1.77.7,3.44-.65,4.86-2.08,2.19-4.21,4.33-6.43,6.38-.66.61-1.65,1.03-2.55,1.17-.69.11-1.82-.09-2.17-.57-2.22-3.04-4.28-6.2-6.32-9.21Z"/>
      <path class="cls-1" d="M33.56,72.8c-.86-.79-1.53-1.24-1.97-1.84-2-2.71-4.73-4.21-7.95-4.93-.93-.21-1.87-.44-2.77-.75-1.26-.43-1.9-1.39-1.45-2.58,1.12-2.98,2.3-5.95,3.66-8.82.76-1.61,2.47-2.2,4.05-1.5,4,1.75,7.64,4,10,7.86,1.26,2.06,1.64,4.03.12,6.22-1.33,1.92-2.37,4.06-3.68,6.35Z"/>
      <path class="cls-1" d="M78.07,5.84c4.71-1.46,8.45-2.04,12.27-1.96.81.02,1.72.74,2.37,1.36.55.52,1,1.31,1.16,2.06.81,3.63.71,7.31.1,10.95-.25,1.5-1.31,2.61-2.83,2.97-1.38.33-2.82.54-4.24.58-3.55.11-4.99.69-5.16-4.63-.12-3.79-.53-7.64-3.68-11.33Z"/>
      <path class="cls-1" d="M145.14,47.47c2.24-2.3,4.52-4.49,6.61-6.84,1.99-2.23,3.27-5.03,5.46-7.45.85.68,1.58,1.05,1.99,1.65,1.28,1.82,2.44,3.73,3.64,5.61,1.04,1.63,1.29,3.49.02,4.91-3.09,3.42-6.35,6.7-9.67,9.9-1.1,1.07-2.7.58-3.72-.77-.1-.13-.2-.25-.29-.38-1.32-2.15-2.63-4.3-4.04-6.61Z"/>
      <path class="cls-1" d="M25.53,106.51c-1.22-1.18-2.46-2.16-3.44-3.35-1.52-1.85-3.46-2.79-5.74-3.15-1.89-.3-3.8-.49-5.69-.75-1.11-.15-1.91-1.16-1.47-1.99,1.66-3.1,3.32-6.21,5.17-9.19.4-.64,1.62-1,2.49-1.06,2.32-.15,4.4.69,6.25,2.07,6.7,4.98,5.63,3.24,4.75,10.91-.25,2.17-.7,4.39-2.33,6.51Z"/>
      <path class="cls-1" d="M23,116.55c-3.63-1.07-6.63-2.85-10.08-2.54-3.1.28-6.18.73-9.28,1.11-.93-1.67-.21-2.97.25-4.28.53-1.5,1-3.02,1.55-4.51.49-1.33,1.07-2.62,1.55-3.78,7.31-1.58,12.28.28,15.54,5.64,1.19,1.96,1.9,4.04,1.43,6.36-.12.58-.52,1.1-.97,2.01Z"/>
      <path class="cls-1" d="M95.78,3.12c3.19.31,5.71.53,8.21.8,1.35.15,2.5.85,3.06,2.04.74,1.57,1.63,3.24,1.72,4.9.16,3-.02,6.06-.43,9.05-.36,2.61-2.34,3.74-4.9,3.24-.62-.12-1.23-.33-1.82-.58-1.59-.67-3.51-1.03-4.65-2.17-1.38-1.38.12-3.32.17-5.02.1-3.04.26-6.05-.79-8.99-.3-.85-.33-1.79-.58-3.28Z"/>
      <path class="cls-1" d="M110.5,4.77c3.24,1.37,6.01,2.55,8.78,3.7,1.78.74,2.65,2.01,2.98,3.95,1.03,6.19.37,9.58-3.58,16.05-2.64-.77-5.09-2.23-7.67-3.29-.92-.38-1.23-1.42-.92-2.47.18-.61.41-1.21.65-1.8,1.77-4.32,1.86-8.65.21-13.04-.3-.81-.26-1.75-.44-3.12Z"/>
      <path class="cls-1" d="M68.9,26.94c-1.13-2.47-1.91-4.74-3.16-6.72-1.16-1.84-2.83-3.37-4.5-5.3.98-.59,1.74-1.05,2.5-1.51,2.45-1.47,4.9-2.95,7.36-4.42.81-.48,1.62-1.02,2.49-1.36.95-.36,2-.19,2.58.68,2.46,3.68,3.9,7.63,2.79,12.15-.32,1.31-1.08,2.32-2.24,2.96-2.23,1.21-4.49,2.36-6.75,3.5-.25.13-.62.02-1.07.02Z"/>
      <path class="cls-1" d="M49.65,47.59q-5.37-9.73-13.48-13.64c.31-.67.45-1.55.97-1.98,2.07-1.74,4.24-3.38,6.41-5,1.12-.83,2.34-.79,3.62-.2,4.68,2.16,7.82,7.15,7.65,12.31-.03.78-.08,1.64-.42,2.32-1.13,2.27-2.34,4.51-4.75,6.19Z"/>
      <path class="cls-1" d="M173.93,62.97c2.59,4.75,4.87,8.91,7.1,13-.22,2.32-1.93,3.33-3.46,4.42-1.69,1.21-3.53,2.16-5.68,2.28-1.36.08-2.6-.31-3.37-1.42-1.78-2.58-3.45-5.25-5.19-7.92,1.15-2.37,3.52-3.33,5.08-5.09,1.56-1.76,3.23-3.46,5.52-5.27Z"/>
      <path class="cls-1" d="M22.75,125.36c-2.34.19-4.46.05-6.37.61-1.76.52-3.42,1.65-4.91,2.79-1.59,1.22-2.93,2.77-4.53,4.32-1.8-1.68-2.08-3.8-2.67-5.68-.67-2.1-1.09-4.31-1.36-6.5-.19-1.59.68-2.69,2.35-3.13,4.05-1.06,8.21-1.2,12.25-.23,3.74.89,4.82,2.74,5.22,7.82Z"/>
      <path class="cls-1" d="M182.67,80.44c.56,2.02,1.05,3.5,1.38,5.02.84,3.93.77,7.9.39,11.87-.14,1.42-.91,2.36-2.27,2.74-.91.25-1.85.48-2.79.52-2.78.12-4.58-1.15-5.29-3.81-.62-2.3-1.13-4.63-1.57-6.97-.43-2.25.31-4.08,2.38-5.22,2.36-1.3,4.76-2.54,7.79-4.15Z"/>
      <path class="cls-1" d="M58.24,37.77c-1.38-3.27-2.35-5.92-3.61-8.43-1.31-2.61-4.09-3.81-6.45-5.65,2.51-3.83,6.67-4.48,10.05-6.56,2.89,1.69,5.02,4.02,6.4,6.93,2.07,4.34.94,6.69-1.23,8.72-1.61,1.51-3.18,3.07-5.15,4.99Z"/>
      <path class="cls-1" d="M168.64,184.35c2.94,3.9,7.36,4.63,11.46,6.58-.23.78-.24,1.64-.66,2.15-1.62,1.95-3.23,3.94-5.11,5.62-3,2.69-6.6,2.85-10.31,1.72-1-.31-1.57-1.12-1.56-2.16,0-.94,0-1.96.35-2.79,1.61-3.78,3.46-7.43,5.83-11.13Z"/>
      <path class="cls-1" d="M173.15,102.72c3.64.3,6.74.55,10.16.83.73,3.3,1.34,6.71,1.54,10.18.12,1.98-.79,3.39-2.64,4.08-1.04.38-2.13.76-3.22.84-5.2.37-6.4-1.78-6.61-5.47-.2-3.48-.05-6.97.77-10.45Z"/>
      <path class="cls-1" d="M174.09,122.15c4.25-.7,7.97-1.32,12.16-2.02,1.22,2.04,2.71,4.43,4.07,6.89.6,1.09.28,2.23-.7,3.01-2.29,1.82-4.8,3.21-7.81,3.28-1.58.03-3.16-.11-4.55-.17-.38-.49-.68-.71-.75-.99-.8-3.24-1.57-6.48-2.41-9.99Z"/>
      <path class="cls-1" d="M37.99,161.86c-.11,1.17-.13,1.79-.22,2.4-.9,5.79-.9,5.82-6.77,7.28-2.35.59-4.55,1.45-6.57,2.8-.74.49-1.59.81-2.45,1.24-1.76-5.95-.97-8.44,3.41-11.34,3.73-2.47,7.7-3.62,12.61-2.38Z"/>
      <path class="cls-1" d="M21.68,163.13c-1.66-7.81-.04-11.12,6.61-14.09.58-.26,1.19-.45,1.79-.64,2.92-.89,3.72-.49,5.09,2.43.61,1.29,1.4,2.49,1.98,3.79.36.81.46,1.74.76,2.94-1.14.28-2.03.74-2.87.68-4.56-.36-8.43,1.05-11.76,4.14-.31.29-.8.39-1.6.76Z"/>
      <path class="cls-1" d="M65.31,214.83c-.55,2.11-1.43,4.2-1.55,6.33-.12,2.15.51,4.34.85,6.74-2.6.88-4.98,1.66-7.58,1.36-1.7-.19-2.78-1.22-2.64-2.8.29-3.33.69-6.66,2.28-9.7,1.89-3.63,4.8-4.27,8.65-1.93Z"/>
      <path class="cls-1" d="M30.92,145.2c-4.42,1.03-7.86,3.25-11.07,6.5-.94-1.36-1.72-2.5-2.52-3.63-1.63-2.3-1.24-4.54.36-6.62,1.91-2.49,4.43-4.14,7.53-4.71.66-.12,1.87.18,2.09.64,1.16,2.39,3.14,4.42,3.61,7.82Z"/>
      <path class="cls-1" d="M55.73,212.16c-1.31,2.79-2.63,5-3.39,7.39-.75,2.37-.93,4.92-1.42,7.68-3,.32-5.66-.6-8.21-1.82-1.3-.62-1.98-2.72-1.23-4.21,1.73-3.45,3.8-6.67,7.91-7.73,1.47-.38,3.17-.15,4.18-1.76.11-.17,1.12.23,2.15.45Z"/>
      <path class="cls-1" d="M24.87,132.8q-7.29,4.14-10.64,8.75c-2.4-.97-3.88-2.92-5.47-5.22,2.54-4.92,6.32-7.85,11.99-8.03,2.42-.07,2.95.34,3.9,2.67.18.43.23.92.31,1.38.02.14-.06.3-.1.45Z"/>
      <path class="cls-1" d="M66.65,221.18c.27-.93.56-2.69,1.28-4.25.42-.92,1.39-1.76,2.32-2.22,1.86-.92,5.77.68,7.15,2.7,1.12,1.65.73,4.46-1.12,6.08-1.18,1.03-2.62,1.82-4.04,2.5-4,1.92-5.49.94-5.59-3.53,0-.16,0-.32,0-1.28Z"/>
      <path class="cls-1" d="M24.85,186.87c-.42-.37-.73-.54-.88-.79-3-5.32-2.47-7.11,2.97-9.69,2.02-.95,4.09-1.82,6.19-2.57,1.44-.51,2.54.05,3.2,1.33.76,1.46.43,2.75-1.02,3.71-.53.35-1.13.59-1.7.87-2.61,1.29-4.84,3.07-6.76,5.27-.6.69-1.35,1.26-2.01,1.87Z"/>
      <path class="cls-1" d="M37.94,221.8c-2.14-1.05-3.49-2.73-4.31-4.8-.44-1.13.04-2.29,1.07-2.9,3.83-2.25,7.64-4.54,11.59-6.55,2.39-1.21,3.57-.39,5.24,2.86-7.21.52-9.92,3.64-12.76,10.04-.18.41-.48.77-.84,1.34Z"/>
      <path class="cls-1" d="M27.19,210.38c.35-1.43.31-2.02.57-2.21,1.01-.75,2.1-1.42,3.19-2.05,4.4-2.55,8.83-5.06,13.23-7.63,1.16-.67,2.25-1.23,3.51-.3-.04.3.04.79-.12.88-6.37,3.84-12.66,7.83-20.37,11.31Z"/>
      <path class="cls-1" d="M24.76,190.96c3.49-3.65,6.9-7.38,11.85-9.13,1.5-.53,2.92-.85,4.6,0-.37.6-.52,1.09-.85,1.32-2.85,2.04-12.57,7.13-15.6,7.81Z"/>
      <path class="cls-1" d="M25.68,205.55c.13-.61.1-.97.26-1.16.52-.6,1.02-1.28,1.68-1.68,5.06-3.03,10.16-6,15.26-8.96.51-.3,1.13-.43,1.87-.7.13.63.39,1.11.26,1.45-.15.4-.57.78-.97,1.01-5.5,3.23-11.01,6.44-16.54,9.62-.48.28-1.13.27-1.83.42Z"/>
      <path class="cls-1" d="M43.02,190.31c-3.78,2.83-15.26,9.27-17.83,10.04-.58-.72.07-1.18.45-1.55.68-.66,1.42-1.31,2.24-1.79,4.4-2.58,8.82-5.1,13.67-6.77.39-.14.89.03,1.47.07Z"/>
      <path class="cls-1" d="M24.25,196.59q.87-2.91,10.57-7.87,5.44-2.78,7.57-2.52c-.69.59-1.08,1.04-1.57,1.32-1.52.85-3.06,1.66-4.63,2.43-2.14,1.04-4.37,1.91-6.44,3.06-1.91,1.05-3.67,2.38-5.5,3.59Z"/>
      <path class="cls-1" d="M46.96,203.23c-3.94,3.39-8.7,5.39-13.94,8.35,3.08-3.54,9.42-7.39,13.94-8.35Z"/>
    </g>
  </g>
</svg>