<?xml version="1.0" encoding="UTF-8"?>
<svg id="Layer_2" xmlns="http://www.w3.org/2000/svg" viewBox="0 0 328.93 200.09">
  <g id="Layer_3">
    <g id="herald">
      <path d="M96.77,71.28c-5.95,2.78-6.41,8-1.82,13.04,4.56,4.99,9.29,6.11,15.96,4,6.52-2.06,13.65-2.12,20.48-3.27,9.44-1.59,17.79-5.21,23.85-13.11,2.96-3.86,3.22-6.77.05-10.01-.72-.74-1.97-1.33-2.98-1.34-5.2-.06-10.42-.07-15.61.25-1.77.11-3.47,1.22-5.21,1.88-2.55.96-5.05,2.21-7.69,2.75-1.01.21-2.82-.9-3.39-1.91-.42-.73.23-2.67,1.03-3.4,5.05-4.6,5.25-6.34,1.32-11.98-.83-1.19-1-2.84-1.48-4.28,1.73.08,4.14-.53,5.05.37,3.19,3.17,7.13,2.93,10.89,3,4.16.08,8.43-.14,12.47-1.03,1.75-.39,3.6-2.52,4.49-4.32,5.11-10.32,19.22-10.24,25.15-.61,2.41,3.92,8.87,3.74,11.51.07,2.57-3.57,4.64-8.11,9.44-9.1,7.57-1.56,11.11,1.89,13.74,8.31,1.58,3.86,3.73,4.45,7.36,4.52,13.86.29,27.73.6,41.56,1.48,15.65,1,31.12,1.01,46.26-3.87,4.57-1.47,9.28-2.58,13.98-3.55,2.2-.46,4.71.02,4.69,2.98-.08,15.26,2.33,30.51.08,45.78-.65,4.39-1.99,5.58-5.57,3.47-6.36-3.74-12.44-7.94-18.64-11.94-3.7-2.39-7.31-4.94-11.13-7.12-4.64-2.65-9.16-5.44-14.8-6.07-4.29-.48-5.73.08-5.18,4.32.86,6.56.53,12.61-4.84,17.55-.89.82-.19,3.34-.27,5.07-.04.69-.02,1.51-.37,2.05-1.76,2.65-3.97,5.06-5.37,7.88-1.51,3.04-2.83,5.51-6.74,6.02-7.01.92-12.77-2.79-14.04-9.6-.09-.48-.27-.98-.53-1.4-2.52-4.16-4.34-8.45-4.13-13.54.05-1.19-1.7-3.13-3.02-3.58-5.23-1.79-4.46-6.18-4.76-10.06-.18-2.29.02-4.62.19-6.92.22-2.98-1.47-3.71-3.98-3.68-1.96.02-3.93.05-5.89-.05-3.03-.15-5.05.54-7.2,3.38-2.86,3.78-6.48,7.25-12.36,7.11-2.38-.06-5.38,2.23-7.12,4.28-3.78,4.43-8.85,6.21-13.96,7.91-7.8,2.59-15.54,5.21-22.27,10.15-7.46,5.48-15.64,9.41-24.67,11.64-5.98,1.47-11.81,3.53-17.81,4.91-5.15,1.18-10.43,1.8-15.67,2.57-2.69.39-4.96.6-3.54,4.49,1.88,5.15,3.28,10.48,4.88,15.73,2.39,7.82,4.42,15.77,7.27,23.42,2.1,5.61,5.16,10.89,8.08,16.15.62,1.11,2.42,1.65,3.78,2.25,4.05,1.79,8.67,2.78,12.13,5.34,7.71,5.71,6.26,14.05-2.93,18.39-8.26,3.9-16.05,1.89-23.31-2.79-3.53-2.28-6.94-4.84-10.06-7.66-4.97-4.49-5.01-11.01-5.28-16.87-.68-14.46-5.54-27.12-14.75-38.07-1.46-1.74-4.58-3.08-6.82-2.92-3.42.24-5.23,3.07-5.2,6.69.05,5.43-.04,10.87.21,16.3.13,2.97,1.71,5.16,4.72,6.24,5.29,1.89,9.85,4.94,12.87,9.75,2.03,3.23,3.7,7.12,1.45,10.62-2.31,3.61-6.38,4.68-10.7,4.3-14.57-1.28-26.81-7.79-37.67-17.12-2.84-2.44-3.3-4.76-1.07-8.9,2.79-5.16,5.96-10.56,6.82-16.19.93-6.04-.64-12.46-1.09-18.72-.52-7.18-.87-14.38-1.58-21.54-.21-2.16-.94-4.56-2.21-6.26-5.92-7.95-6.2-16.59-3.9-25.74.34-1.36-.05-2.91-.1-4.37-1.43.48-2.94.78-4.26,1.46-7.25,3.76-17.82,5.07-23.09-3.13-2.76-4.3-3.18-9.05-1.47-13.21,3.99-9.73,10.08-18.24,17.88-25.41,6.64-6.1,13.48-11.98,19.99-18.2C45.94-.43,54.51-.92,63.08.93c4.79,1.03,9.43,3.91,13.52,6.82,7.6,5.42,15.12,11.07,21.99,17.37,6.43,5.9,12.53,12.31,14.7,21.4,2.06,8.67,1.44,17.31-8.6,21.23-2.61,1.02-5.11,2.29-7.92,3.53M79.57,15.95c-4.64-2.78-9-6.27-13.97-8.18-8.32-3.21-18.27-3.01-25.2,4.7-4.53,5.05-9.92,9.33-14.97,13.91-2.14,1.94-4.88,3.4-6.53,5.67-3.3,4.52-5.78,9.65-9.11,14.15-2.55,3.44-4.09,7.02-3.5,11.14.24,1.66,1.58,3.83,3.01,4.52,5.78,2.77,11.32.5,16-2.65,6.42-4.32,12.22-9.57,18.34-14.35,1.69-1.32,3.87-2.75,5.62-.71,1.69,1.97.65,3.97-1.37,5.57-3.63,2.87-7.17,5.85-10.61,8.95-.96.87-1.88,2.25-2,3.48-.35,3.56.01,7.18-.41,10.72-1.84,15.32.99,20.16,15.43,26.47,5.42,2.37,11.37,3.59,17.14,5.11,6.85,1.8,13.76,3.23,20.78.65.63-.23,1.38-.1,2.08-.18,6.61-.79,13.25-1.43,19.83-2.44,4.01-.61,7.96-2.67,11.88-2.5,4.79.21,9.35-.1,13.54-2.04,6.62-3.07,13.31-6.22,19.35-10.27,5.81-3.9,11.15-8.6,13.91-15.59,1.15-2.92,3.16-5.63,5.23-8.04,4.59-5.31,4.77-11.5,2.63-17.35-3.48-9.51-11.81-8.38-16.38-3.19-4.58,5.19-4.12,11.33.49,16.96,2.48,3.03,4.32,6.35,1.93,10.18-4.1,6.55-9.34,11.95-16.41,15.42-11.03,5.42-23.19,6.35-34.97,7.73-10.32,1.21-20.98-.33-31.47-.97-1.06-.06-1.99-2.25-2.98-3.46,1.3-.56,2.64-1.68,3.88-1.56,3.25.31,6.43,1.21,9.67,1.74.71.12,1.51-.33,2.26-.52-.3-.57-.6-1.13-.89-1.7-1.47-2.9-3.26-5.68-4.32-8.72-.84-2.41-2.48-3.3-4.53-3.76-1.91-.43-3.96-.23-5.85-.71-5.51-1.39-10-4.43-12.98-9.3-.68-1.11-.28-2.88-.37-4.34,1.44.53,3.21.69,4.27,1.64,5.57,5.01,11.75,8.07,19.39,6.3,3.93-.91,7.77-2.28,11.56-3.68,9.87-3.67,13.32-14.03,7.5-23-2.58-3.98-5.27-8.11-8.74-11.25-5.63-5.08-11.94-9.41-18.15-14.55M55.32,142.51c.26-3.81,1.41-7.82.57-11.37-1.08-4.58,1.38-5.97,4.4-7.51,6.01-3.06,12.06-6.04,18.05-9.15.63-.33.95-1.25,1.41-1.9-.65-.41-1.27-1.1-1.97-1.19-1.83-.25-3.78.1-5.52-.4-9.43-2.71-19.36-3.85-28.17-8.57-2.44-1.31-3.35-.5-3.15,2.01.63,7.77,1.3,15.53,1.98,23.3.47,5.34,1.22,10.66,1.44,16,.25,6.09-4.13,10.28-6.79,15.17-.6,1.1-1.14,3.16-.58,3.79,2.04,2.34,4.35,4.58,6.93,6.3,8.42,5.61,17.54,9.33,27.87,9.4,3.16.02,5.56-2.09,4.92-4.69-1.27-5.22-5.42-8.19-9.82-9.64-4.61-1.52-8.13-3.49-9.29-8.18-1.04-4.21-1.43-8.58-2.3-13.37M93.37,162.18c.49,2.56,1.08,5.1,1.45,7.68.44,3.11.49,6.29,1.07,9.38.95,5.05,4.83,7.47,8.78,10.31,7.21,5.19,14.87,6.49,22.49,2.42,2.85-1.52,3.36-6.23.54-7.98-2.87-1.79-6.17-2.92-9.29-4.3-2.12-.94-4.85-1.26-6.31-2.8-6.39-6.72-9.46-15.39-12.45-23.89-3.88-11.06-7.07-22.36-10.5-33.58-.91-2.98-2.81-3.21-5.09-1.88-2.83,1.65-5.5,3.59-8.28,5.34-1.81,1.14-2.62,1.71-.47,3.86,6.98,6.97,12.67,14.97,16.04,24.33,1.2,3.33,1.57,6.95,2.01,11.13M323.52,70.18c-.1-6.46-.35-12.93-.24-19.39.06-3.77-1.41-5.07-5.22-4.09-5.56,1.42-11.11,2.99-16.75,4-7.13,1.29-14.34,2.29-21.56,2.97-1.95.18-3.66-.28-4.08,2.15-.42,2.44.73,4.02,3.13,4.43,6.59,1.12,12.27,4.09,17.66,7.95,7.67,5.5,15.52,10.76,23.32,16.07.61.41,1.6.79,2.17.57.58-.22,1.21-1.2,1.22-1.86.1-4.04.03-8.08.33-12.8M246.26,99.91c.87,2.82,3.13,3.32,5.67,3.55,2.76.26,3.61-1.64,4.69-3.58.91-1.63,1.88-3.59,3.37-4.43,1.94-1.08,1.99-2.01,1.35-3.78-1.44-3.96-.63-7.21,3.19-9.54.93-.57,1.97-1.79,2.04-2.78.32-4.37.48-8.78.28-13.15-.04-.86-1.93-1.63-2.97-2.44-.22,1.06-.77,2.17-.61,3.17.58,3.6.1,6.62-2.59,9.47-2.95,3.14-5.31,6.83-8.07,10.16-.37.45-1.82.62-2.26.28-1.34-1.07-2.67-2.3-3.57-3.74-1.34-2.13-2.43-4.45-3.43-6.77-.99-2.31-1.95-4.67-2.54-7.1-.43-1.77-.11-3.7-.32-5.53-.23-1.98-1.43-3.33-3.45-2.47-1.08.46-2.34,1.89-2.45,2.99-.26,2.74-.17,5.58.29,8.3.25,1.53,1.17,3.32,2.36,4.26,3.37,2.64,5.54,5.64,5.29,10.15-.09,1.61.22,3.31.7,4.86.79,2.58,1.87,5.08,3.01,8.11M209.21,54.35c5.3.2,10.59.52,15.89.52,1.79,0,3.58-.84,5.37-1.29-1.78-.91-3.55-1.85-5.35-2.71-.26-.13-.68.13-1.03.12-5.18-.07-10.37-.05-15.55-.26-7.6-.31-15.19-.86-22.79-1.13-.88-.03-1.8,1.03-2.7,1.58.96.77,1.87,2.16,2.87,2.23,7.58.52,15.19.79,23.28.95M183.53,71.98c-3.13,1.18-6.27,2.33-9.37,3.57-.86.34-1.72.85-2.37,1.5-.37.36-.57,1.31-.34,1.72.21.38,1.13.62,1.67.52,7.73-1.42,14-5.36,19.57-10.84,1.86-1.83,4.76-2.66,7.27-3.75,1.41-.61,3.07-.64,4.49-1.24.9-.39,1.56-1.34,2.33-2.04-1.08-.51-2.12-1.35-3.23-1.46-2.63-.26-5.3-.35-7.93-.14-1.11.09-2.77.86-3.12,1.74-1.74,4.37-4.2,8.01-8.95,10.43M237.64,51.55c-.63.85-1.25,1.69-1.88,2.54.86.39,1.69,1.04,2.57,1.13,6.09.61,12.19,1.14,18.3,1.63,3.45.28,6.91.57,10.37.54.94,0,1.86-1.16,2.79-1.79-1.03-1.03-1.95-2.78-3.12-2.96-2.93-.46-5.98-.19-8.98-.26-6.46-.15-12.92-.34-20.06-.82M199.05,39.47c-1.09,1.19-2.24,2.34-3.18,3.63-.12.16.8,1.58,1.26,1.6,3.56.11,7.14-.19,10.68.04,2.51.16,2.69-.6,1.9-2.65-1.64-4.25-4.69-5.27-10.66-2.61M133.25,52.97c-.63.85-1.25,1.69-1.88,2.54.86.2,1.74.63,2.58.56,5.21-.38,10.41-.83,15.6-1.35.92-.09,1.79-.67,2.69-1.02-.96-.76-1.96-2.19-2.89-2.15-5.21.22-10.41.79-16.1,1.43M186.37,62.97c.21-.94.43-1.87.64-2.81-.99-.09-2.43-.66-2.9-.21-2.82,2.73-5.43,5.68-8.06,8.61-.21.24-.18,1.11.01,1.22.48.28,1.36.59,1.65.36,2.77-2.26,5.45-4.64,8.65-7.17Z"/>
      <path d="M59.61,35.96c-2.15-.44-4.05-.97-5.96-1.51.81-2.2,1.13-4.79,2.51-6.54,5.37-6.83,17.51-7.75,24.22-2.12,1.89,1.59,3.89,7.99,2.45,9.92-1.66,2.22-4.05,5.02-6.4,5.31-3.58.45-7.5-1.02-8.69-5.41-.77-2.85-2.38-2.68-4.42-1.62-1.16.6-2.31,1.24-3.71,1.96Z"/>
    </g>
  </g>
</svg>