<?xml version="1.0" encoding="UTF-8"?>
<svg id="Layer_2" xmlns="http://www.w3.org/2000/svg" viewBox="0 0 56.14 67.32">
  <defs>
    <style>
      .cls-1 {
        fill: #fff;
      }
    </style>
  </defs>
  <g id="Layer_1-2" data-name="Layer_1">
    <g>
      <path d="M56.14,50.41c-.31.63-.58,1.58-1.17,2.25-.94,1.07-2.02,2.06-3.18,2.89-4.91,3.55-9.88,7.04-14.83,10.53-.52.37-1.08.69-1.67.93-1.46.61-2.91.25-3.89-.92-.2-.24-.38-.51-.53-.79-6.24-11.13-13.71-21.49-20.55-32.25-1.7-2.67-3.96-4.98-5.9-7.51-1.36-1.77-2.68-3.56-3.87-5.44-.97-1.53-.62-2.92.64-4.31,4.35-4.81,9.46-8.54,15.31-11.29,2.45-1.15,4.83-2.43,7.23-3.69,2.32-1.22,3.43-1.17,4.98.82,3.42,4.39,6.77,8.79,9.4,13.78,4.83,9.16,10.08,18.11,15.23,27.1,1.38,2.4,2.29,4.89,2.8,7.9ZM26.51,25.78c-.64-1.11-1.01-1.8-1.43-2.46-.43-.67-.84-1.37-1.38-1.93-1.07-1.09-2.41-1.59-3.93-1.16-1.11.31-1.75,1.89-1.47,3.72.14.93.5,1.83.83,2.72.31.83.7,1.63,1.11,2.55-.53-.04-.83-.01-1.09-.1-1.65-.53-3.2-.57-4.25,1.07-1.31,2.03-1.16,3.85.24,5.76,1.46,2,3.58,2.54,5.85,2.81,1.04.13,2.08.24,3.35.38-.1,1.27-.34,2.22-.2,3.11.2,1.22.48,2.52,1.09,3.57.94,1.62,3.96,2.55,5.51,1.9,1.79-.74,1.97-2.36,1.99-4,.01-1.12-.12-2.23-.12-3.35,0-1.09.09-2.18.14-3.35,2.08.29,3.91.67,5.77.77,1.4.08,2.37-.88,2.69-2.26.34-1.46.23-2.81-.8-4.05-1.64-1.97-2.69-2.71-6.28-4,.25-.42.51-.81.73-1.23,1.93-3.65.13-6.78-3.95-6.88-1.26-.03-2.21.47-2.68,1.61-.59,1.41-1.03,2.88-1.7,4.79Z"/>
      <path class="cls-1" d="M26.51,25.78c.67-1.91,1.11-3.38,1.7-4.79.47-1.13,1.43-1.64,2.68-1.61,4.08.11,5.89,3.23,3.95,6.88-.22.42-.48.82-.73,1.23,3.59,1.29,4.65,2.03,6.28,4,1.03,1.24,1.14,2.59.8,4.05-.32,1.39-1.29,2.34-2.69,2.26-1.85-.1-3.69-.48-5.77-.77-.05,1.17-.14,2.26-.14,3.35,0,1.12.13,2.23.12,3.35-.02,1.64-.2,3.26-1.99,4-1.56.65-4.57-.29-5.51-1.9-.61-1.05-.9-2.35-1.09-3.57-.14-.89.1-1.84.2-3.11-1.27-.14-2.31-.25-3.35-.38-2.27-.27-4.38-.82-5.85-2.81-1.4-1.91-1.55-3.73-.24-5.76,1.06-1.64,2.61-1.59,4.25-1.07.26.08.56.05,1.09.1-.41-.92-.8-1.72-1.11-2.55-.33-.89-.69-1.79-.83-2.72-.28-1.83.36-3.41,1.47-3.72,1.52-.43,2.86.07,3.93,1.16.55.56.96,1.26,1.38,1.93.42.65.79,1.34,1.43,2.46ZM27.53,35.64c1.38.1,3.12-1.07,3.23-2.18.13-1.29-1.78-3.12-3.44-3.29-.98-.1-2.02.87-2.17,2.05-.23,1.71.89,3.32,2.38,3.43Z"/>
      <path d="M27.53,35.64c-1.49-.11-2.61-1.71-2.38-3.43.15-1.17,1.19-2.15,2.17-2.05,1.66.17,3.57,2,3.44,3.29-.11,1.11-1.85,2.28-3.23,2.18Z"/>
    </g>
  </g>
</svg>