<?xml version="1.0" encoding="UTF-8"?>
<svg id="Layer_2" xmlns="http://www.w3.org/2000/svg" viewBox="0 0 140.04 104.23">
  <defs>
    <style>
      .cls-1 {
        fill: #040404;
      }
    </style>
  </defs>
  <g id="Layer_1_xA0_Image">
    <path class="cls-1" d="M102.7,50.11c-3.11,1-5.8,1.87-8.96,2.88,1.33,2.94,2.33,5.44,3.56,7.84,2.23,4.36,4.62,8.63,6.86,12.99.74,1.44,1.35,2.99,1.74,4.56.64,2.56-.23,4.66-2.56,6.01-2.38,1.39-4.65.86-6.45-.97-1.11-1.13-1.83-2.67-2.61-4.09-3.56-6.51-7.08-13.04-10.67-19.66-2.28.38-2.89,1.29-1.8,3.25,2.73,4.92,5.4,9.86,8.09,14.8.52.95,1.13,1.87,1.52,2.88,1.03,2.63.28,5.26-1.84,6.75-2.17,1.53-4.93,1.45-6.96-.56-1.27-1.25-2.27-2.83-3.15-4.4-3.19-5.68-6.29-11.42-9.58-17.41-1.23.24-2.52.24-3.58.74-2.71,1.26-3.46,3.35-2.24,6.12,2.11,4.82,4.35,9.58,6.46,14.39.8,1.82,1.57,3.69,2.08,5.6,1.01,3.78-.31,6.67-3.27,7.65-2.81.93-5.41-.29-7.12-3.5-.68-1.27-1.09-2.69-1.67-4.01-2.25-5.11-4.53-10.21-6.97-15.7-1.26.89-2.09,1.47-2.45,1.73,1.56,6.75,3.31,13.03,4.41,19.43.78,4.55-2.78,7.85-6.74,6.49-1.66-.57-3.21-2.27-4.16-3.85-.88-1.48-.85-3.49-1.31-5.24-.99-3.81-2.04-7.61-3.09-11.48-3.62.4-5.54,2.27-7.47,4.17-3.32,3.27-7.26,5.29-11.85,6.26-3.91.82-7.16-.26-10.07-2.75-3.95-3.39-3.53-8.32,1.11-10.64,2.24-1.12,4.77-1.71,7.23-2.31,2.29-.56,4.66-1.62,4.47-3.96-.25-3.02-.1-6.5-3.8-8.38-2.66-1.35-4.71-1.44-6.89.59-1.19,1.11-2.41,2.23-3.77,3.12-2.49,1.65-5.07,1.54-7.07-.1-2.19-1.79-2.78-4.59-1.38-7.35.56-1.11,1.29-2.25,2.23-3.04,5.32-4.44,11.07-8.25,17.83-10.1,2.04-.56,4.65-1.07,6.41-.29,4.49,2,8.74.93,13.44.08.38-2.12.87-4.36,1.17-6.63,1.22-9.18,5.06-17.4,9.63-25.25C59.79,2.49,77.69-3.47,94.69,2.02c9.72,3.14,16.44,9.85,21.36,18.38,2.19,3.79,5.47,7.34,4.88,12.41-.11.99,1.05,2.19,1.76,3.19,4.54,6.34,9.17,12.63,13.67,19,1.25,1.77,2.34,3.69,3.19,5.68,1.11,2.63.22,5.33-1.89,6.72-2.09,1.38-5,1.09-6.98-.89-1.01-1.01-1.75-2.3-2.61-3.47-3.94-5.38-7.87-10.78-11.85-16.13-.33-.44-1.06-.57-2.73-1.4.79,1.77,1.03,2.51,1.42,3.16,3.58,6.05,7.18,12.1,10.78,18.14,1.73,2.91,1.56,5.45-.54,7.41-2.18,2.03-5.66,2.24-7.82-.28-2.68-3.14-4.85-6.75-7-10.3-2.61-4.31-4.98-8.78-7.64-13.52Z"/>
  </g>
</svg>