<?xml version="1.0" encoding="UTF-8"?>
<svg id="Layer_2" xmlns="http://www.w3.org/2000/svg" viewBox="0 0 343.54 255.53">
  <g id="Layer_3">
    <g id="pencil_x5F_1">
      <path d="M335.02,234.82c-4.94,5.93-9.53,11.87-14.14,17.67-3.94,5.03-8.01,2.74-11.83.76-2.85-1.54-5.27-4.02-8.14-5.7-3.01-1.65-6.29-2.75-9.36-4.32-1.72-.85-3.04-2.42-4.76-3.27-2.62-1.38-5.48-2.42-8.16-3.72-1.85-.83-3.96-1.46-5.46-2.78-2.65-2.15-4.66-5.2-7.29-7.21-16.03-11.58-32.1-22.95-48.12-34.39-3.16-2.26-6.31-4.51-9.33-6.8-17.68-13.01-35.37-26.03-52.99-39.13-9.35-6.93-18.72-14-27.97-21.24-8.94-7.02-18.39-13.65-26.55-21.6-16.07-15.6-35.32-26.74-53.04-40.03-3.41-2.56-7.83-3.85-11.61-6.06-1.68-1.07-3.48-2.61-4.41-4.4C24,36.91,14.04,22.69,3.63,8.78c-1.03-1.49-5.28-.91-2.94-4.84S5.76-.54,9.86.4c12.51,2.84,25.18,4.8,37.74,7.42,8.53,1.74,16.92,4,25.29,6.12.87.25,1.97.66,2.41,1.35,6.01,9.65,16.85,13.04,25.47,19.2,17.03,12.3,34.83,23.53,51.63,36.16,10.89,8.03,20.37,18.05,30.91,26.58,7.42,6.05,15.69,11.09,23.36,16.95,10.85,8.25,21.33,16.87,32.06,25.28,6.23,4.95,12.39,9.85,18.73,14.64,9.93,7.59,19.91,15.1,29.84,22.7,2.56,1.95,4.57,4.51,7.25,6.3,3.64,2.23,7.77,3.94,11.65,5.84,1.35.72,2.74,1.21,4.07,1.79,2.65,1.02,5.58,1.63,7.82,3.22s3.95,4.07,5.7,6.19c1.32,1.57,2.04,3.82,3.46,5.09,3.98,3.22,8.18,5.97,12.26,8.89,4.54,3.25,5.22,5.72,2.26,10.83-1.93,3.35-4.23,6.57-6.72,9.89M251.7,161.32c-4.23-3.52-8.59-7.02-12.88-10.45-10.06-8.06-19.88-16.45-30.21-23.96-15.07-11.14-30-22.31-43.88-35.11-10.3-9.35-21.57-17.66-32.77-25.92-9.51-7.04-19.68-13.32-29.42-20.03-12.78-8.64-25.51-17.36-38.29-26-.38-.28-.71-.63-1.15-.83-.08-.06-.7.49-.61.69.14,5.33-2.62,8.71-7.58,8.16-4.24-.42-5.11.96-4.19,4.73,1.23,5.61-.09,7.28-5.67,8.9-1.48.44-3.64,2-3.71,3.08-.15,2.01.42,4.78,1.76,5.99,2.59,2.23,6.03,3.44,8.94,5.39,8.63,5.67,17.55,10.93,25.63,17.2,13.18,10.04,25.75,20.77,38.61,31.09,10.31,8.36,20.63,16.86,31.23,24.82,24.03,17.8,48.17,35.3,72.24,52.88,2.64,2.01,5.25,3.88,7.95,5.81,13.55,9.69,27.18,19.43,40.78,29.03,1.52.96,3.73,1.29,5.61,1.27,1.11-.08,2.24-1.51,3.32-2.36-.52-.74-.99-1.7-1.63-2.28-6.13-5.25-11.95-10.78-18.38-15.63-17.03-12.79-34.23-25.34-51.38-37.97-6.33-4.65-12.78-9.14-19.17-13.7-5.16-3.69-10.38-7.29-15.42-11.14-5.1-3.77-9.9-7.95-14.94-11.8-7.77-6.05-15.52-11.97-23.29-18.02-5.96-4.51-11.62-9.3-17.64-13.73-17.09-12.71-34.23-25.34-51.45-38.02-2.79-2.12-5.7-4.07-8.49-6.19-2.62-1.87-.85-3.85.71-5.22.88-.74,3.11-1.26,4.02-.74,4.47,2.7,8.76,5.64,12.94,8.75,4.79,3.55,9.15,7.54,13.94,11.09,12.08,9.13,24.22,18.19,36.31,27.32,9.04,6.71,17.97,13.59,26.82,20.42,5.04,3.85,9.79,8.12,14.94,11.8s10.38,6.3,15.39,9.88c6.79,4.98,13.29,10.37,20.02,15.43,9.54,7.32,19.14,14.55,28.68,21.87,9.14,6.91,18.28,13.81,27.28,20.75,5.43,4.13,10.67,8.5,16.1,12.63,2.5,2.04,4.98,3.93,7.76,5.42,1.2.61,3.06-.05,4.65-.16-.51-1.24-.81-2.94-1.67-3.68-8.08-6.27-16.35-12.44-24.37-18.79-10.48-8.12-20.93-16.45-31.23-24.82-7.17-5.75-14.19-11.88-21.36-17.63-11.85-9.46-23.71-19.07-35.93-28.17-16.91-12.46-34.12-24.52-51.23-36.87-2.93-2.09-6.16-3.91-8.99-6.3-4.71-3.99-9.14-8.53-14.05-12.41-9.33-7.29-18.66-14.58-28.34-21.38-3.77-2.7-1.66-4.67.31-6.13.96-.69,3.8.22,5.18,1.21,13.89,10.68,27.74,21.57,41.68,32.16,6.29,4.87,12.99,9.16,19.34,13.95,13.12,9.63,26.19,19.34,39.14,29.22,11.87,9.11,23.48,18.41,35.29,27.6,6.85,5.39,13.75,10.7,20.6,16.1,2.96,2.37,5.81,4.9,8.78,7.4,9.51,8.17,18.99,16.56,28.85,24.24,5.92,4.73,12.69,8.45,19.08,12.52,1.14.69,2.39,1.21,3.67,1.38.77.06,1.87-.66,2.4-1.4.29-.41-.08-1.68-.48-2.09-6.98-5.86-13.76-11.83-20.92-17.44-5.98-4.65-12.32-8.8-19.25-13.76M293.23,206.56c-4.59,5.44-9.17,10.88-13.97,16.29-2.98,3.35-.79,5.17,1.7,6.57,3.76,2.06,7.95,3.69,11.53,6,2.43,1.49,3.73,1.29,5.5-1.18,2.65-3.71,5.92-6.98,8.65-10.63,3.75-4.92,7.36-9.81,10.59-14.97,2.14-3.32-.37-7.61-3.95-8.3-2.15-.41-4.52-.99-6.28-2.12-6.26-4.1-10.29-2.37-11.99,5.38-.18.74-.79,1.43-1.77,2.97M313.87,246.85c3.52,2.89,6.58,1.21,8.82-1.92,3.02-4.07,5.28-8.68,8.28-12.89,7.94-11.27,8.31-9.51-2.45-17.07-2-1.43-4.16-2.97-6.44-3.36-.72-.14-2.22,3.27-3.46,5-.57.96-1.28,1.95-2,2.8-4.53,5.36-8.98,10.77-13.74,15.96-2.82,2.97-1.32,4.29,1.17,5.69,3.01,1.65,6.03,3.44,9.83,5.78M27.98,30.04c1.47,2.17,3.08,4.32,4.36,6.6.99,1.71,3.43,1.71,5.17.58,3.8-2.39,6.75-4.89,4.86-9.73-.1-.19.12-.66.3-.91,2.16-2.69,3.57-6.79,8.25-4.06,1.27.66,3.35.03,5.04.11-1.05-1.62-1.84-3.93-3.35-4.76-2.99-1.51-6.3-2.26-9.56-3.22q-7.42-2.31-12.05,3.84c-.47.66-.83,1.65-1.41,1.98-4.73,2.22-4.88,5.36-1.6,9.57"/>
      <path d="M293.51,227.32c-1.46.58-2.7.69-3.92.93.34-1.13.39-2.34,1.04-3.24,4.28-6.15,8.51-12.23,13.1-18.16.94-1.32,3.12-1.76,4.62-2.55-.33,1.76-.17,3.99-1.12,5.3-4.24,5.93-8.87,11.59-13.71,17.72"/>
      <path d="M315.29,241.27c1.02-1.26,1.92-2.36,3.09-3.02,1.15-.8,2.57-1.15,3.76-1.67-.6,1.81-.93,4.07-2.16,5.3-.55.6-3.7,4.2-4.68-.61"/>
    </g>
  </g>
</svg>