<?xml version="1.0" encoding="UTF-8"?>
<svg id="Layer_2" xmlns="http://www.w3.org/2000/svg" viewBox="0 0 453.38 376.89">
  <defs>
    <style>
      .cls-1 {
        stroke: #000;
        stroke-miterlimit: 10;
        stroke-width: 2px;
      }
    </style>
  </defs>
  <g id="Layer_3">
    <g id="knight">
      <path class="cls-1" d="M446.18,201.29c0,3.75,0,7.25-.25,10.75-3.03,2.45-5.71,5.04-8.64,7.29-1.56,1.2-3.6,2.54-5.34,2.43-1.01-.06-1.7-2.99-2.81-4.41-1.22-1.57-2.72-4.07-4.14-4.11-6.01-.15-12.08.18-18.07.85-13.33,1.49-26.61,3.39-39.93,4.89-5.66.64-11.39.68-17.08,1.06-3.87.26-7.73.62-11.58.99-13.78,1.32-27.55,2.79-41.34,3.94-7.5.63-15.05.68-22.58,1.07-5.03.26-10.07.54-15.08,1.01-13.78,1.27-27.6,3.92-41.32,3.53-9-.26-9.39,10.06-16.83,10.02,0,.83.14,1.7-.02,2.49-.74,3.56-2.12,6.05-6.6,6.04-6.78-.02-11.55-4.04-16.29-7.73-4.11-3.2-8.46-3.78-13.14-3.32-8.43.82-16.82,2.33-25.27,2.82-5.58.32-10.05,1.91-13.39,6.37-.38.5-.89,1.53-.73,1.69.5.5,1.32,1,1.99.97,5.26-.23,10.53-.44,15.78-.93,9.79-.91,19.25,1.25,28.26,4.28,6.5,2.19,16.21,2.71,14.44,14.07-.03.22.35.51.55.76,7.82,9.55,20.53,12.75,30.14,3.71,4.91-4.61,9.51-9.66,14.86-13.69,9.6-7.23,19.38-6.98,28.4.65,2.14,1.81,3.55,5.36,3.85,8.26.59,5.77.59,11.68.09,17.47-1.04,12.05-6.32,22.17-16.03,29.45-8.34,6.26-17.72,9.93-28.35,11.28-11.62,1.48-22.49,1.33-32.45-5.62-5.29-3.69-10.44-7.65-16.01-10.86-5.1-2.95-5.3-2.58-6.09,2.35-.07.42-.56.76-.72,1.19-1.77,4.77-3.46,9.56-5.27,14.31-.83,2.17-.72,2.95,2.04,3.56,5.97,1.32,11.59,3.61,15.07,9.33.88,1.45,3.07,3.62,3.92,3.33,7.41-2.59,1.19,1.55,1.25,2.43.23,3.36-1.35,5.76-3.83,7.94-2.03,1.79-3.63,4.07-5.43,6.13-.76.86-1.7,2.52-2.31,2.41-6.82-1.22-11.66,2.42-16.48,6.27-.2.16-.66.08-.98.01-6.78-1.45-12.4,1.27-18.63,3.71-11.86,4.66-24.5,4.65-37.33,3.54-11.77-1.01-23.04-2.96-34.12-7.13-10.37-3.9-19.51-9.01-26.58-17.86-5.38-6.73-6.22-14.72-6.27-22.32-.09-12.24,1-24.61,2.92-36.71,1.68-10.64,5.62-20.77,14.8-27.72,3.79-2.87,7.85-5.43,11.42-8.55,3.95-3.45,8.5-4.61,13.47-4.97,1.04-.08,2.06-.45,3.09-.68-1.06-1.1-2.02-3.01-3.18-3.14-3.43-.39-6.99-.4-10.42.03-8.98,1.11-17.92,2.65-26.9,3.76-3.28.4-6.67-.14-9.99.11-6.9.52-13.78,1.34-20.68,1.89-.8.06-1.67-.72-2.51-1.12.49-.71.85-1.59,1.51-2.08.98-.73,2.11-1.51,3.27-1.69,7.07-1.11,14.15-2.13,21.25-3.03,6.21-.78,12.44-1.37,18.67-2.02,6.55-.68,13.2-2.31,19.64-1.69,4.98.48,3.65-1.03,2.59-3.56-5.15-12.31-4.75-25.52-6.18-38.41-1.61-14.47,2.21-28.41,5.09-42.38.52-2.52,2.85-6.51,4.58-6.64,8.42-.65,7.3-7.03,8.23-12.16,1.72-9.48,2.38-19.25,5.08-28.42,3.61-12.27,2.3-22.31-8.2-30.5-2.95-2.3-5.37-5.34-7.83-8.22-7.03-8.21-9.19-18.57-11.9-28.54-2.59-9.52-4.6-19.5.09-28.87,1.59-3.17,5.37-6.6,8.67-7.24,4.55-.88,9.54,1.04,13.45-3.27.86-.94,2.94-.93,4.49-1.06,9.4-.77,14.71,5.24,17.94,12.54,3.11,7.02,4.5,14.8,6.56,22.27,2.6,9.43,5.06,18.89,7.7,28.31,1.81,6.46,2.15,13.79,8.62,17.87,3.77,2.38,8.55,3.39,11.84,6.22,6.51,5.6,12.22,12.11,18.4,18.1,9.44,9.14,6.36,26.72-7.19,32.8-8.29,3.72-16.73,4-25.4,3.83-2.93-.06-5.82-.04-6.24,3.71-.41,3.68,1.63,5.58,5.17,6.35,7.17,1.56,14.4,2.95,21.39,5.1,4.31,1.32,9.99,2.69,10.19,8.33.25,6.9-1.46,13.85-1.39,20.77.07,6.74-4.23,14.04,1.61,20.2,3.23,3.41,6.47,7.37,10.55,9.3,6.27,2.97,12.85,6.61,20.46,2.41,3.71-2.05,8.12-3.12,12.35-3.84,2.88-.49,6.1.04,8.96.83,2.19.6,4.42,1.87,3.9,5.25-.1.63,3,2.56,4.55,2.48,6.41-.32,12.78-1.33,19.18-1.83,13.91-1.09,27.83-2.01,41.75-3.03,8.72-.64,17.45-1.3,26.17-2,16.28-1.31,32.56-2.59,48.83-4.02,9.93-.87,19.84-1.98,29.75-2.97,13.44-1.34,26.89-2.71,40.34-3.98,5.73-.54,8.26-2.74,8.03-6.77-.09-1.58.32-3.88,1.38-4.63,1-.71,3.3-.18,4.74.45,4.09,1.8,8.04,3.93,12.04,6.18M87.18,152.54c-3.72.17-7.01.62-10.13,1.61-1.16.37-2.55,1.85-2.78,3.03-2.42,12.69-6.29,25.34-4.94,38.36,1.51,14.54.78,29.65,7.9,43.13,4.72,8.94,10.75,17.09,19.17,22.85,3.29,2.25,7.15.25,10.06-2.3,14.01-12.31,23.6-27.38,31.12-44.54,5.45-12.41,6.64-24.93,7.54-37.84.24-3.5,1.28-8.81-.48-10.2-4.08-3.21-9.48-5.26-14.65-6.46-12.08-2.8-24.34-4.85-36.54-7.12-2.06-.38-4.19-.36-6.28-.53M104.68,47.04c-3.17-10.39-5.49-20.39-8.68-30.1-1.13-3.43-4.08-6.45-6.72-9.15-2.76-2.81-6-2.27-8.8.46-3.03,2.95.2,4.63,1.24,6.91,3.45,7.56,7.19,15.05,9.83,22.9,4.92,14.65,8.85,29.63,13.83,44.26,1.29,3.8-1.92,3.79-2.67,5.7-1.17-1.3-2.93-2.42-3.43-3.94-5.15-15.53-9.98-31.17-15.13-46.7-2.78-8.4-5.48-16.95-11.8-23.55-1.53-1.6-3.86-2.43-5.82-3.62-1.45,2.4-3.63,4.63-4.21,7.23-2.31,10.37,1.09,20.17,3.9,29.95.81,2.81,1.95,5.52,2.97,8.26,1.77,4.76,3.86,9.14,7.73,12.85,5.26,5.04,9.93,10.74,14.54,16.41,4.31,5.3,3.71,12.03,2.33,17.72-3.08,12.62-5.95,25.18-6.63,38.19-.3,5.74.59,6.69,6.42,7.28,3.91.4,7.77,1.37,11.67,1.91,1.5.21,4.31.2,4.39-.16.56-2.63.73-5.37.67-8.07-.02-.95-.99-1.89-1.53-2.83,1.21-.3,2.42-.84,3.63-.85,6.83-.08,13.66.04,20.48-.06,7.39-.11,13.28-3.81,18.34-8.68,3.42-3.3,3.12-13.42-1.19-18.27-6.4-7.2-13.53-13.8-20.76-20.2-2.55-2.26-6.24-3.29-9.5-4.68-5.27-2.26-7.05-7.27-8.45-11.9-2.71-8.93-4.49-18.14-6.66-27.24M66.68,305.04c2.81-7.81,9.27-9.21,15.46-11.01.88-.26,1.72-.68,2.57-1.02-.51-.82-.85-1.88-1.57-2.44-6.56-5.02-8.73-11.66-8.09-19.72.19-2.34-1.47-4.77-1.67-7.21-.18-2.14.47-4.35.8-6.53.15-.99.41-1.96.63-2.94-1.12.03-2.43-.33-3.32.14-3.98,2.09-7.86,4.37-11.74,6.65-11.51,6.77-17.57,17.24-19.96,30.02-1.17,6.25-2.15,12.58-2.52,18.92-.43,7.53-.4,15.11-.04,22.65.66,13.49,9.07,21.77,20.33,27.15,7.18,3.43,15,5.72,22.72,7.79,5.48,1.47,11.31,1.64,16.95,2.57,10.11,1.66,20.02.67,29.83-2.01.31-.08.75.12.98-.03,3.39-2.2,6.75-4.44,10.12-6.67-1.93-2.53-3.93-5.01-5.77-7.61-3.06-4.32-5.81-3.92-10.95-2.1-10.22,3.62-21.22,3.56-31.46-1.34-6.41-3.07-13.37-5.62-18.75-10.04-10.8-8.87-11.74-19.95-4.58-35.22M95.18,292.54c6.69,4.7,6.78,11.6,7.94,17.89,1.85,10.01,4.75,19.12,15.32,23.4,8.13,3.29,14,9.32,19.22,16.15,3.03,3.96,6.19,7.84,9.61,11.46.79.84,2.88.45,4.37.63.18-1.65.63-3.33.43-4.93-.12-.95-1.2-1.84-1.97-2.64-1.84-1.92-4.02-3.59-5.54-5.73-.97-1.36-1.03-3.38-1.49-5.11,1.82.42,4.01.33,5.41,1.34,5.05,3.66,9.82,7.7,14.73,11.56,1.65,1.3,3.59,1.72,4.37-.61.32-.96-.81-2.87-1.82-3.71-4.41-3.68-9.03-7.1-13.52-10.7-.54-.43-.69-1.34-1.02-2.02,1.13-.49,2.66-1.71,3.32-1.35,3.99,2.16,7.82,4.64,11.63,7.12,1.43.93,2.52,2.54,4.04,3.12,1.24.47,2.89-.12,4.37-.25-.42-1.16-.71-2.38-1.27-3.46-3.48-6.65-9.97-9.9-16.53-10.19-7.32-.32-11.77-4.91-17.37-7.83-3.04-1.59-5.8-3.71-8.66-5.64-3.71-2.5-6.16-10.89-4.48-16.53,4.63-15.5,3.82-30.68-2.06-45.69-1.71-4.36-2.57-4.69-5.77-1.53-2.49,2.46-4.71,5.25-7.47,7.36-8.42,6.45-15.37,5.67-23.92-2.19-1.71-1.57-3.71-2.82-5.57-4.22-.77,2.68-2.37,5.43-2.14,8.03.62,6.9,2.19,13.7,7.44,18.83,2.67,2.61,5.59,4.97,8.4,7.44M200.18,318.54c8.84,2.73,17.21,1.47,25.17-.66,14.79-3.95,27.96-13.28,30.88-30.05.53-3.03,2.12-5.89,2.49-8.92,1.09-8.73.15-16.41-9.3-20.01-5.49-2.09-10,1.47-13.85,4.49-5.15,4.05-9.25,9.43-14.34,13.57-11.18,9.11-27.61,5.76-36.73-2.23-2.85-2.5-5.18-2.44-6.86.48-4.01,6.95-7.69,14.1-11.22,21.3-.34.69.99,2.78,2.04,3.46,8.12,5.24,16.31,10.36,24.58,15.36,2.22,1.34,4.76,2.16,7.15,3.21M134.18,268.54c.67,7.39,1.69,13.77,1.86,20.17.1,3.7,1.1,5.34,4.73,6.45,5.79,1.77,11.75,3.71,14.89,9.78.29.56,1.32.74,2,1.1.17-.59.47-1.18.5-1.78.67-13.59,7.14-24.53,15.78-34.46,5.54-6.37,4.23-9.54-5.81-11.66-7.3-1.54-14.81-2.16-22.23-3.08-3.68-.46-7.39-.68-11.08-1.03-3.76-.36-4.09,1.92-3.43,4.67.8,3.31,1.85,6.56,2.79,9.83M89.68,337.04c-12.24-4.38-14.25-21.85-6.94-29.82,1.94-2.12,5.47-2.73,8.16-4.24.92-.52,1.48-1.67,2.2-2.53-1.28-.67-2.63-2.02-3.82-1.89-17.6,1.94-22.08,23.89-14.97,34.56,1.74,2.61,4.77,4.83,7.7,6.06,6.68,2.81,12.61,7.9,20.66,6.92,5.32-.64,10.73-.62,16.07-1.14,1.2-.11,2.3-1.22,3.45-1.86-.97-1.02-1.77-2.63-2.93-2.96-5.69-1.59-11.14-3.39-17.5-1.42-3.51,1.09-8.02-1.02-12.07-1.68M184.68,235.04c-.54-3.07.37-3.65,3.32-2.65,3.21,1.09,6.32,2.47,9.56,3.44,1.07.32,2.4-.23,3.62-.38-.61-1.25-.92-3.17-1.89-3.6-2.25-.99-4.87-1.07-7.22-1.88-1.11-.38-1.93-1.6-2.89-2.44.94-.49,1.82-1.22,2.82-1.44,2.63-.56,5.35-.71,7.93-1.41,1.13-.31,2-1.56,2.99-2.39-1.36-.75-2.87-2.32-4.04-2.1-3.94.74-8.16,1.43-11.53,3.4-7.18,4.21-14.12,2.81-21.16.41-6.64-2.26-12.9-5.22-17.57-10.83-.41-.49-2.77-.27-3.28.37-2.5,3.13-1.4,7.97,2.32,9.39,6.77,2.59,13.84,4.41,20.5,7.22,5.11,2.15,9.82,5.28,14.65,8.06,2.7,1.55,5.28,3.33,7.97,4.9.84.49,1.87.67,2.81.99-.34-1.36-.23-3.25-1.09-3.96-2.4-1.97-5.2-3.44-7.84-5.1M147.18,325.54c1.67.19,3.64.17,3.88-.48,3.27-8.89-.08-17.07-9.25-21.01-.14-.06-.4.07-.48-.02-4.8-4.82-6.55.69-8.36,3.01-2.13,2.74-1.13,6.26,1.42,8.61,2.91,2.69,6.21,4.96,9.35,7.39,1.12.87,2.29,1.67,3.44,2.51M96.68,315.04c-.5-1.83-.27-3.21-.55-4.48-.68-3.14-2.54-4.25-5.47-2.48-4,2.43-6.68,9.51-5.49,14.19,1.55,6.09,5.68,10.08,11.1,10.79,1.07.14,2.13.76,3.17.7,1.82-.11,3.61-.58,5.41-.9-.73-1.27-1.58-2.5-2.17-3.83-2.05-4.64-4.02-9.32-6.02-13.98M141.41,235.05c3.68-.37,7.37-.6,11.04-1.05,1.19-.15,2.32-.79,3.47-1.21-.99-.82-1.85-1.95-2.99-2.41-3.56-1.44-7.19-2.72-10.86-3.84-.76-.23-2.24.25-2.66.89-1.27,1.91-2.19,4.06-3.24,6.11.11,1.38,2.58,1.77,5.23,1.51Z"/>
      <path class="cls-1" d="M102.26,180.16c-.28,3.81-2.15,5.79-5.67,5.9-5.35.16-10.71,0-16.06-.29-.78-.04-1.49-1.53-2.23-2.36.8-.47,1.57-1.25,2.41-1.34,2.23-.25,4.59-.66,6.72-.18,5.63,1.28,7.55.26,8.75-5.43.68-3.21,1.07-6.51,2.13-9.58.42-1.21,2.3-1.91,3.51-2.84.79,1.17,1.57,2.33,2.36,4-.67,4.37-1.63,8.22-1.92,12.12Z"/>
      <path class="cls-1" d="M130.99,170.35c.06,1.69.23,3.38.14,5.06-.04.71-.86,1.39-.87,2.09-.03,2.77-.42,5.75.48,8.23.36.99,3.77.74,5.68,1.37,1.03.34,1.84,1.35,2.76,2.06-.83.62-1.63,1.73-2.5,1.79-3.31.21-6.72.52-9.91-.11-1.42-.28-3.44-2.76-3.4-4.18.14-4.39,1.14-8.75,1.81-13.62,1.94-1.23,3.87-1.96,5.81-2.69Z"/>
      <path class="cls-1" d="M84.17,211.98c-1.51.01-3.13-.44-4.51-1.07-.98-.45-1.65-1.57-2.46-2.39.96-.49,1.88-1.31,2.88-1.41,2.14-.22,4.53-.65,6.42.06,3.55,1.34,9.27-.34,10.06,5.03.47,3.2-1.11,6.83-2.31,10.07-.44,1.18-2.41,1.8-3.68,2.67-.47-1.47-.94-2.94-1.4-4.9,1.74-5.28.67-8.09-5.01-8.05Z"/>
      <path class="cls-1" d="M116.36,217.01c1.66-4.32,6.32-3.02,9.86-2.84,1.69.08,3.31,1.53,4.96,2.36-1.64.84-3.25,2.27-4.94,2.38-3.42.23-4.48,1.64-5.29,4.95-.65,2.66-3.43,4.8-5.76,7.17-4.27-5.15-.49-9.68,1.18-14.03Z"/>
      <path class="cls-1" d="M113.9,178.16c.86.16,1.49,1.58,2.22,2.43-2.14.81-4.27,1.63-6.41,2.44-.34-1.33-.69-2.67-.78-4.25,1.83-.42,3.47-.91,4.97-.63Z"/>
      <path class="cls-1" d="M87.18,195.41c-.75.88-1.55,2.52-2.24,2.48-1.94-.12-3.84-.94-5.76-1.48.83-1.13,1.67-2.25,3-3.38,2,.79,3.5,1.58,5,2.37Z"/>
      <path class="cls-1" d="M116.03,164.53c.43.15.85,2.05.47,2.55-1.82,2.44-4.02,3.08-6.57.21.7-4,3.4-3.68,6.1-2.76Z"/>
      <path class="cls-1" d="M106.6,196.88c-.61.08-1.44-1.68-2.17-2.59,1.49-.75,2.95-1.99,4.47-2.08,1.05-.06,2.18,1.5,3.03,2.58-1.94.92-3.59,1.87-5.33,2.09Z"/>
      <path class="cls-1" d="M99.29,237.53c-.38.05-1.65-2.08-1.38-2.56,1.58-2.79,5.32-2.41,7.01.82-2.04.79-3.81,1.51-5.64,1.74Z"/>
      <path class="cls-1" d="M106.19,209.02c-1.32-.41-2.61-.92-3.92-1.39.41-.8.81-2.29,1.24-2.3,2.02-.02,4.04.35,6.06.59-.29,1.04-.59,2.08-1.38,3.12-1,0-1.54.12-1.99-.02Z"/>
      <path class="cls-1" d="M121.24,203.99c-1.08-.4-2.04-1.13-3.06-1.73.54-.74,1.1-2.13,1.6-2.11,2,.08,3.98.6,5.96.95-.52.81-1.04,1.62-1.81,2.69-1.07.25-1.97.47-2.69.2Z"/>
      <path class="cls-1" d="M134.8,205.93c-1.77.09-3.58-.73-5.38-1.15,1.27-.91,2.46-1.96,3.83-2.68.64-.34,1.61-.06,2.68.19,2.36,2.43.89,3.54-1.13,3.64Z"/>
      <path class="cls-1" d="M96.73,200.76c-1.27.5-3.01-.18-4.55-.35.83-1.12,1.57-2.34,2.55-3.32.34-.33,1.28-.05,2.45-.05,3.34,2.01.52,3.34-.45,3.72Z"/>
      <path class="cls-1" d="M104.76,221.18c.2-.06.74,1.08,1.13,1.66-1.48.4-2.94.85-4.44,1.17-.37.08-.84-.3-1.51-.71,1.43-.9,3.1-1.61,4.83-2.11Z"/>
      <path class="cls-1" d="M122.28,105.28c4.09-.37,8.71.4,12.43,2.12,3.55,1.63,4.58,5.72,2.92,9.61-1.8,4.21-5.01,6.21-9.83,6.11-4.92-.1-6.99-3.65-7.4-7.07-.69-5.81-2.78-3.58-5.76-2.15-2,.96-4.49.94-6.75,1.35.93-1.74,1.85-3.48,3.03-5.47,3.94-1.75,7.55-4.16,11.35-4.5Z"/>
      <path class="cls-1" d="M234.93,276.19c3.06-2.34,7.16-1.84,10.65.7,3.33,2.42,4.52,5.28,2.58,9.07-2.44,4.78-6.75,5.61-11.49,5.04-4.63-.56-6.23,1.54-6.64,5.94-.23,2.48-1.85,4.83-2.88,7.22-.11.26-.59.61-.77.54-3.42-1.28-4.89-5.99-3.21-10.67.74-8.42,6.06-13.48,11.76-17.84Z"/>
      <path class="cls-1" d="M444.92,202.51l6.1,2.49c.57.23,1.23.56,1.34,1.17.14.74-.6,1.33-1.24,1.73-2.01,1.23-4.01,2.45-6.02,3.68-.02-2.05,1.06-4.08,2.77-5.21.28.54.61,1.12,1.18,1.34s1.38-.24,1.23-.83c-.1-.41-.55-.61-.95-.74l-4.47-1.56c1.66.79,2.44,3.03,1.63,4.68-.45.92-1.27,1.59-2.07,2.23-2.26,1.81-4.52,3.63-6.79,5.44"/>
    </g>
  </g>
</svg>