<?xml version="1.0" encoding="UTF-8"?>
<svg id="Layer_2" xmlns="http://www.w3.org/2000/svg" viewBox="0 0 571.52 286.61">
  <g id="Layer_3">
    <g id="Rake_x5F_1">
      <path d="M538.69,139.76c-2.23.1-4.59-.51-6.16.32-1.97.98-4.22,2.83-4.75,4.78-.26,1.09,2.31,3.66,4.1,4.56,2.15,1.07,4.84,1.17,7.32,1.51,4.91.76,10.19,5.63,10.19,9.57.06,4.29-4.09,8.69-9.71,9.03-3.61.25-7.35-1.19-11.09-1.65-1.04-.13-2.72.21-3.23.86-1.01,1.52-1.23,3.5-2.15,5.07-1.44,2.75-1.14,4.53,2.05,5.73,2.95.99,5.8,2.47,8.72,3.77,3.43,1.64,7.2,7.91,6.49,10.99-1.35,5.75-3.2,7.44-9.73,7.6-2.95,0-5.96-.14-8.73-1.04-3.63-1.18-6.1.68-7.42,3.15-.62,1.15.91,4.35,2.31,5.63,1.82,1.57,4.7,1.98,6.95,3.31,3.4,1.95,8.88,1.44,9.5,7.18.45,4.14-2.74,7.87-7.64,10.28-4.77,2.36-9.23.82-13.92.04-1.13-.17-2.73-.01-3.46.65-.56.52-.57,2.26-.22,3.19,1.57,5.08,5.88,6.23,10.48,7.18,3.61.73,8.27,1.82,8.55,5.88.1,3.22-2.1,7.17-4.44,9.73-4.86,5.5-11.12,1.62-16.87,1.25-1.21,0-3.46-.34-3.49-.02-.47,1.54-1.08,3.9-.33,4.67,1.98,2.19,4.39,4.15,7,5.42,2.84,1.48,6.56,1.5,8.92,3.32,1.62,1.27,2.95,4.93,2.32,6.83-2.55,6.96-10.62,9.83-17.64,6.92-1.37-.61-3.07-1.47-4.49-1.23-9.51,1.46-16.64-3.69-24.05-8.19-1.01-.67-2-1.66-2.54-2.66-3.78-7.49-5.23-15.79-3.61-23.61,2.66-12.61,6.81-24.88,10.87-37.2,3.27-10.04,5.49-20.21,6.14-30.76.3-5.34-1.46-8.53-6.63-10.18-5.18-1.65-10.1-3.62-15.12-5.63-3.79-1.58-7.65-2.97-11.15-4.96-13.01-7.65-28.22-8.4-42.22-13.1-12.77-4.26-26.25-6.43-38.82-11.15-14.58-5.61-29.67-8.83-44.46-13.23-15.34-4.64-31.02-8.01-45.63-15.28-8.48-4.32-18.48-5.71-27.77-8.42-14.7-4.35-29.27-8.76-44.05-12.93-7.57-2.17-15.31-3.97-22.87-5.91-5.8-1.49-11.67-2.79-17.48-4.5-7.13-2.19-14.05-4.83-21.09-7.2-11.86-3.86-23.8-7.53-35.7-11.51-8.64-2.97-17.11-6.31-25.79-9.18-6.5-2.13-13.11-3.75-19.72-5.61-5.98-1.57-11.91-3-17.85-4.66-6.75-1.8-13.51-3.83-20.22-5.72-6.62-1.85-13.4-3.34-19.82-5.65C3.7,25.3.33,21.82.02,16.11-.49,6.69,7.09-1,16.45.11c2.2.21,4.26,1.24,6.42,1.32,19.75,1.13,37.06,10.92,55.84,15.45,6.52,1.59,12.77,4.26,19.22,6.26,12.98,4.03,26.05,7.87,38.94,11.86,6.31,2.04,12.51,4.36,18.81,6.18,8.53,2.48,17.14,4.78,25.74,7.08,5.48,1.46,11,2.82,16.53,4.18,9.24,2.36,18.6,4.45,27.89,6.94,6.07,1.61,11.95,3.9,17.94,5.69,9.66,2.88,19.28,5.63,28.85,8.46,5.86,1.84,11.63,3.87,17.44,5.57,9.94,3,19.92,5.91,29.76,8.87,7.9,2.42,15.66,4.89,23.6,7.22,8.16,2.32,16.61,4,24.7,6.73,12.51,4.36,24.7,9.68,37.16,14.14,6.69,2.43,13.61,4.09,20.55,5.97,5.94,1.66,11.96,3.13,17.94,4.7,6.07,1.61,12.31,3.07,18.26,4.96,5.18,1.65,10.1,3.62,15.12,5.63,3.64,1.4,7.25,2.9,10.69,4.76,5.14,2.72,5.8-1.47,6.43-4.36,3.63-14.8,6.77-29.72,10.18-44.51,2.06-9.05,4.52-18.02,6.58-27.07,2.23-10.17,7.84-14.9,17.96-12.8,6.55,1.27,13.4,1.37,19.67,4.49,5.91,2.96,12.14,5.19,18.25,7.69,2.87,1.17,5.38,3.16,4.36,6.43-.91,2.77-2.48,6.56-4.81,7.6-6,2.91-12.66,3.12-19.32,1.36-1.18-.31-3.67.12-3.74.53-.35,2.25-.9,4.96,2.53,5.39,5.77.82,9.69,4.53,13.93,8.06,3.72,3.19,4.63,7.31,2.24,10.96-2.56,3.79-6.65,6.34-11.91,4.88-2.99-.9-6.07-1.61-9.22-1.91-1.17-.08-3.01.85-3.64,1.77-2.08,3.45-.35,6.19,3.54,8.03,4.94,2.42,9.68,5.3,14.08,8.46,2.82,2.02,2.48,7.45.19,10.15-4.66,5.81-10.46,3.33-16.45,2.53M499.21,268.54c-.57,3.25-1.51,6.33-2.49,9.29,2.52.25,5.21.35,7.74.82,1.98.22,3.96,1.43,5.88,1.3,1.47-.11,2.74-1.73,4.13-2.65-.67-.95-1.14-2.37-2.05-2.77-3.24-1.33-6.68-2.21-9.96-3.45-.91-.41-1.58-1.36-2.33-2.13-.52-.56-.58-.91-.64-1.27-.12.27-.15.59-.27.86M485.77,168.41c1.22-5.7,3.08-11.11,4.54-16.59.14-.81-1.24-2.63-2.24-3.08-3.24-1.33-6.68-2.21-10.05-3.49-4.38-1.73-7.7.08-8.47,4.77-.01.76-.02,1.52-.16,2.34-2.58,10.46.71,10.94,9.56,13.45,2.04.58,3.96,1.43,5.92,2.2.52.56.58.91.6,1.36.07-.41.19-.68.32-.95M249.4,73.59c-10.46-2.58-20.22-5.72-30.01-8.32-13.83-3.86-27.86-7.26-41.72-11.02-14.05-3.85-27.98-7.97-41.91-12.09-11.21-3.35-22.21-7.15-33.46-10.41-10.44-3.11-21.16-5.59-31.55-8.79-8.67-2.66-17.02-6.26-25.56-8.97-7.49-2.35-15.27-4.06-23-5.86-2.45-.65-5.16-1.2-7.76-1.26-3.36-.07-6.51.61-7.72,4.55-1.22,3.73.82,6.28,3.61,7.63,4.03,2.01,8.44,3.43,12.79,4.71,5.26,1.47,10.8,2.29,15.98,3.94,11.67,3.77,23.18,7.69,35.34,9.38,4.82.72,9.63,2.21,14.23,3.93,11.42,4.1,22.56,8.84,34.06,12.75,11.33,4.06,22.89,7.34,34.29,11,6.59,2.17,13.15,4.65,19.72,6.59,7.89,2.2,15.93,3.81,23.86,5.91,7.65,1.98,15.31,3.97,22.97,6.18,12.02,3.49,24.13,7.02,36.16,10.73,9.35,2.85,18.63,6.1,27.94,9.04,11.13,3.53,22.29,6.97,33.42,10.5,8.9,2.87,17.72,5.92,26.62,8.57,14.2,4.24,28.43,8.17,42.6,12.5,5.31,1.6,10.3,4.15,15.65,5.65,8.98,2.69,18.38,4.46,27.41,7.28,8.72,2.79,17.13,6.53,25.65,10,3.06,1.25,5.71,2.65,5.02-2.91-.29-1.55.61-3.34,1.03-5.02,2.23-8.2.22-11.07-8.09-12.8-10.12-2.1-20.29-4.33-30.3-6.92-20.34-5.44-40.29-12.03-59.62-20.74-8.22-3.66-17.58-4.76-26.51-7.09-4.98-1.34-10.14-2.54-15.14-4.11-14.21-4.47-28.42-8.93-42.6-13.49-11.13-3.53-22.26-7.28-33.4-11.04M519.85,59.89c-4.48,13.99-8.33,27.82-12.15,41.55-1.54,5.66-3.35,11.21-4.48,16.94-1.83,9.04-2.81,18.12-4.65,27.16-1.16,6.05-3.32,11.88-4.48,17.93-2.06,10.03-3.34,20.29-5.58,30.24-1.78,8.18-4.28,16.26-6.79,24.34-3.45,10.94-8.9,21.22-9.22,33-.13,6.18-.41,12.73,3.53,17.88,2,2.64,5.47,4.19,8.37,6.03.27.12,2.05-1.17,2.33-2.03,3.07-10.34,6.24-20.65,8.94-31.16,2.53-9.38,4.48-18.91,6.74-28.42,2.97-12.58,5.9-25.07,8.88-37.64,2.33-9.91,4.57-19.86,6.94-29.86,2.07-8.82,4.17-17.74,6.37-26.61,3.06-12.54,6.22-25.03,8.97-37.6,1.3-5.88,1.93-11.95,2.51-17.93.09-.94-1.04-2.33-2.01-2.86-4.5-2.44-9.38-2.53-14.23-.97M544.61,73.11c6.68,1.22,13.11,1.78,19.56,2.03.63.06,1.41-1.45,1.82-2.36.12-.27-.64-1.27-1.19-1.51-4.8-2.25-9.56-4.58-14.53-6.47-2.09-.71-4.88-1.08-4.06,3.23.29,1.55-1.06,3.36-1.61,5.09M546.13,127.69l-3.28-1.46c-8.31-3.7-8.22-3.66-11.48,4.63-1,2.73-.16,3.32,2.34,3.34,4.08.18,8.26.61,12.34.57,1.79-.08,3.53-1.05,5.21-1.62-.96-1.52-1.93-3.05-2.97-4.39-.43-.52-1.15-.62-1.79-.9M526.87,196.56c2.05-.18,3.41.21,4.74-.08,1.5-.43,4.01-1.39,4.02-2.15.02-1.52-.88-3.68-2.17-4.47-3.92-2.51-8.21-4.42-12.42-6.52-.27-.12-1.14.59-1.18.68,1.43,2.94-.72,4.82-2.01,6.98-1.49,2.62-.39,3.33,2.18,3.71,2.25.35,4.58,1.27,6.84,1.84M516.23,253.67c1.06-.41,1.63-.48,1.98-.76,1.55-1.28,3.06-2.69,4.52-4.01-1.91-.63-3.76-1.89-5.63-1.85-5.37.02-8.1-2.95-10.09-7.34-.25-.66-1.08-1.03-1.59-1.58-.19.68-.61,1.37-.71,2.09-.06.63.32,1.24.26,1.87-.68,10.86.22,11.81,11.26,11.58M550.48,104.18c1.05.36,1.18.31,1.31.25,2.3-.73,4.46-1.41,6.66-2.18-1.69-1.85-3.27-3.97-5.22-5.5-2.27-1.78-4.92-2.96-7.32-4.46-2.21-1.42-2.87-.18-3.42,1.54-.74,2.41-1.54,4.68-1.96,7.12-.07.41.96,1.52,1.64,1.72,2.76.68,5.55,1.05,8.3,1.51M513.1,223.82c4.66.1,8.62.55,12.56.56,1.17.08,2.31-1.49,3.43-2.3-1.21-.98-2.41-2.94-3.44-2.85-5.13.45-8.89-1.66-12.44-4.77-.32-.25-1.14-.4-1.27-.35-.73,1.64-1.33,3.24-2.11,4.75-2.14,4.08-1.57,4.99,3.27,4.96M535.83,156.77c-1.93-.09-3.17-.75-4.28-.7-1.56.07-4.37.46-4.43,1.09-.35,2.25-1.02,5.24,2.72,5.7,3.64.42,7.3,1.06,10.97.94,1.43-.02,2.78-1.83,4.12-2.87-1.3-1.02-2.61-2.26-4.16-2.95s-3.26-.79-4.93-1.21"/>
      <path d="M476.89,160.08c-1.23-1.42-2.54-2.66-2.45-3.83.18-1.89.32-4.89,3.34-4.31,1.58.38,2.88,2.38,4.37,3.7-1.96,1.21.21,6.66-5.26,4.44"/>
    </g>
  </g>
</svg>