<?xml version="1.0" encoding="UTF-8"?>
<svg id="Layer_2" xmlns="http://www.w3.org/2000/svg" viewBox="0 0 353.74 364.71">
  <defs>
    <style>
      .cls-1 {
        fill: #080707;
      }

      .cls-2 {
        fill: #fcfcfc;
      }

      .cls-3 {
        fill: #484f4f;
      }

      .cls-4 {
        fill: #fdfdfd;
      }
    </style>
  </defs>
  <g id="Layer_1_xA0_Image">
    <g>
      <path class="cls-3" d="M46.19,199.16c-1.24,3.06-.01,5.71,1.37,8.34-4.68-2.23-5.01-4.28-1.37-8.34Z"/>
      <path class="cls-3" d="M78.6,207.71c.19,2.51.37,5.01.56,7.52-3.78-3.02-3.87-4.19-.56-7.52Z"/>
      <path class="cls-3" d="M95.25,205.84c-1.28.44-2.55,1.21-3.84,1.24-3.73.09-7.47-.11-11.21-.2,1.87-.23,3.72-.54,5.59-.66,3.15-.2,6.3-.26,9.46-.38Z"/>
      <path class="cls-3" d="M79.48,215.39q5.37.11,7.39,1.26c-2.46-.42-4.93-.84-7.39-1.26Z"/>
      <path class="cls-3" d="M49.5,207.69c1.02-.31,2.04-.62,3.07-.94-1.02.31-2.04.62-3.07.94Z"/>
      <path class="cls-3" d="M80.03,206.94c-.42.21-.84.41-1.26.62.42-.21.84-.41,1.26-.62Z"/>
      <g>
        <path class="cls-1" d="M49.5,207.69c-.65-.06-1.3-.13-1.94-.19-1.38-2.63-2.62-5.28-1.37-8.34,4.93-2.92,9.86-5.83,15.7-9.29-2.77-1.39-4.76-2.38-6.74-3.39-1.44-.74-3.02-1.32-4.26-2.31-1.92-1.55-2.27-3.76-1.17-5.91,1.1-2.15,3.13-3.24,5.47-2.47,2.91.96,5.73,2.26,8.51,3.59,4,1.91,8.07,2.82,12.6,2.61,7.6-.34,15.22-.09,23.63-.09-.87-1.12-1.27-1.79-1.81-2.31-6.28-6.02-12.79-11.82-18.84-18.07-7.08-7.31-14.89-12.08-25.56-12.61-10.65-.52-21.26-2.38-31.82-4.1-4.6-.75-9.18-2.24-13.48-4.05-7.29-3.08-10.43-12.97-7.08-21.08,2.67-6.46,7.06-11.35,13.65-14.47-5.73-7.64-4.85-15.37-.6-22.99,3.98-7.15,8.53-13.78,18.45-13.34-1.68-7.25.12-13.14,4.64-18.04,8.02-8.71,21.37-9.24,29.66-.73,5.93,6.09,11.06,12.97,16.45,19.57,2.06,2.53,4.14,5.12,5.69,7.97,4.53,8.28,11.83,12.97,20.17,16.59,12.01,5.22,23.42,11.6,33.88,19.48,9.42,7.1,18.5,14.65,27.71,22.02,1.96,1.57,3.85,3.21,6.23,5.2,1.82-9.48,4.81-17.41,16.17-18.35-1.08-2.33-2.21-4.49-3.1-6.74-3.69-9.32-3.48-18.43,1.86-27.13,3.35-5.45,8.03-8.8,14.7-8.77.67,0,1.33-.24,2.04-.37-7.49-20.21-1.03-34.07,17.23-36.44-.9-1.63-1.67-3.15-2.55-4.6-5.69-9.36-5.58-18.55.89-27.48,6.51-8.97,15.43-12.21,26.22-10.72,8.28,1.15,14.84,5.61,20.77,11.14,2.79,2.6,5.29,5.5,8.09,8.09,12.7,11.79,19.55,26.56,21.29,43.53,3.8,37.26,2.47,74.3-5.93,110.93-3.83,16.71-9.72,32.64-18.61,48.04,3.12,1.82,6.12,3.83,9.34,5.4,13.03,6.35,23.02,15.87,29.17,28.96,5.53,11.75,6.95,24.35,5.4,37.21-.35,2.89-.1,4.88,1.95,7.3,9.62,11.33,19.73,22.36,26.26,35.95,1.8,3.74,3.33,7.64,4.61,11.58,1.09,3.35.81,6.83-.68,10.11-1.63,3.61-4.46,5.86-8.38,6.07-7.31.39-13.77-1.55-19.56-6.5-10.62-9.07-19.18-19.75-26.69-31.41-.78-1.21-1.71-2.31-2.75-3.7-6.97,2.11-13.91,1.96-20.95.52-5.02-1.03-9.84-2.43-14.28-5.02-10.02-5.86-20.04-11.69-30.07-17.52-.31-.18-.67-.25-.9-.34-6.26,3.03-12.41,6.08-18.62,8.99-13.94,6.53-27.89,13.06-41.9,19.43-8.83,4.01-18.36,5.5-27.83,7.15-18.69,3.27-37.25,2.45-55.66-1.77-9.68-2.22-18.58-6.54-26.09-12.91-8.21-6.96-11.97-16.71-13.66-27.13-1.43-8.87,7.94-19.03,17.54-15.83,2.37.79,4.94,1,7.88,1.57-.17-2.86-.4-5.5-.48-8.14-.33-11.7,5.17-18.16,16.8-19.12,4.46-.37,9,.29,13.98.51.09-.62.25-1.77.4-2.92.79-5.86,2.74-11.29,6.36-16,4.62-6.01,9.99-7.74,17.25-5.78,1.01.27,2.01.54,3.17.86.22-4.18.42-8.12.67-12.83-2.13-2.29-4.82-5.18-7.91-8.51-4.96,1.73-10.02,3.5-15.18,5.3.27,3.48.74,6.7.71,9.91-.02,2.12-.46,4.35-1.22,6.33-.85,2.23-2.82,3.35-5.28,2.83-2.44-.52-3.68-2.26-3.77-4.7-.05-1.43.19-2.86-.43-4.8-1.18,1.56-2.43,3.08-3.53,4.7-1.22,1.8-2.19,3.77-3.45,5.55-2.02,2.85-4.67,3.6-6.98,2.19-2.31-1.41-2.99-4.11-1.41-7.22,1.48-2.9,3.37-5.59,5.03-8.4.62-1.05,1.09-2.18,1.64-3.28q-2.02-1.16-7.39-1.26s-.32-.16-.32-.16c-.19-2.51-.37-5.01-.56-7.52,0,0,.17-.15.17-.15.42-.21.84-.41,1.26-.62,0,0,.17-.05.17-.05,3.74.09,7.47.29,11.21.2,1.29-.03,2.56-.81,3.84-1.24,6.2-1.92,12.4-3.83,19.53-6.04-3.51-3.63-5.6-7.7-11.23-7.51-7.03.25-14.08.06-21.08.06-4.27,6.63-8.67,13.45-13.07,20.27-.49.76-.94,1.57-1.55,2.23-1.63,1.78-3.62,2.38-5.89,1.37-2.17-.96-3.29-3.37-2.48-5.96.53-1.69,1.6-3.22,2.44-4.81.63-1.19,1.28-2.37,1.23-4.39-3.53,1.9-7.06,3.8-10.59,5.7-1.02.31-2.04.62-3.07.94ZM121.98,190.88c7.97,12.99,18.26,22.78,28.47,32.48,9.48,9,19.37,17.54,27.84,27.55,1.75,2.07,3.7,4.03,5.8,5.73,6.49,5.25,12.95,10.56,19.7,15.45,5.71,4.14,11.72,7.88,17.76,11.54,4.95,3.01,10.2,5.52,15.19,8.47,9.36,5.54,18.37,11.72,27.98,16.77,12.8,6.73,25.62,7.69,37.29-2.94.8-.73,1.71-1.35,2.57-2.02,2.41-1.86,3.78-4.3,4.27-7.32,2.97-18.29.32-34.99-13.03-49.01-4.5-4.73-10.08-7.62-15.53-10.85-3.58-2.12-7.17-4.26-10.54-6.68-4.93-3.54-5.44-8.3-2.58-13.77,3.68-7.05,7.19-14.23,10.2-21.59,6.21-15.21,9.74-31.19,11.53-47.44,1.67-15.13,2.93-30.36,3.29-45.57.28-11.75-.89-23.56-1.83-35.31-1.15-14.36-6.1-27.17-16.65-37.42-3.13-3.04-6.06-6.27-9.23-9.26-3.98-3.77-8.37-7-13.76-8.48-6.85-1.89-13.56.43-17.37,5.87-4.28,6.11-4.23,10.76.35,17.54,1.11,1.64,2.57,3.04,3.86,4.56,2.57,3.05,5.22,6.05,7.67,9.19,1.1,1.41,2.09,3.04,2.62,4.72,1.28,4.07-1.78,7.63-5.86,6.58-3.04-.78-6.06-2.13-8.74-3.79-6.77-4.18-14.18-1.74-16.74,5.71-1.63,4.74-.81,9.17,2.34,12.77,5.12,5.86,10.73,11.3,16,17.03,3.06,3.32,6.11,6.7,8.7,10.37,1.76,2.5.96,5.19-1.16,6.75-2.09,1.54-4.7,1.3-6.87-.89-1.53-1.54-2.73-3.4-4.22-4.97-.97-1.02-2.13-1.93-3.35-2.62-2.15-1.21-4.44-2.17-6.63-3.33-3.2-1.69-6.27-3.7-9.57-5.16-5.65-2.5-8.75-1.31-11.59,4.14-.66,1.26-1.08,2.69-1.4,4.08-1.73,7.79.92,14.36,6.1,19.96,3.94,4.26,8.31,8.12,12.45,12.19,1.42,1.4,2.88,2.79,4.06,4.39,1.42,1.92,1.55,4.08,0,6.05-1.39,1.76-3.32,2.33-5.36,1.47-2.79-1.18-5.47-2.63-8.21-3.93-4.41-2.09-8.81-4.19-13.25-6.21-2.26-1.03-3.79.04-4.94,2-2.4,4.11-2.03,8.17.9,11.66,4.3,5.13,8.92,10.01,13.5,14.91,2.72,2.91,5.74,5.55,8.4,8.52,1.74,1.95,1.85,4.32.13,6.48-1.56,1.95-4.41,2.22-6.91.62-1.06-.68-1.95-1.62-2.9-2.46-2.05-1.79-4.03-3.67-6.14-5.39-10.54-8.6-21.18-17.08-31.67-25.75-19.88-16.44-39.92-32.59-64.06-42.67-8.2-3.42-14.57-9.06-19.48-16.73-4.78-7.47-10.65-14.23-15.91-21.4-3.19-4.34-7.57-6.62-12.57-8-3.55-.98-6.91.74-8.81,4.51-1.85,3.67-1.46,5.85,2.13,8.41,2.79,1.99,5.93,3.5,8.84,5.34,1.67,1.06,3.4,2.16,4.72,3.59,1.72,1.87,2.18,4.16.61,6.48-1.43,2.12-4.13,2.87-6.78,1.82-.83-.33-1.57-.9-2.33-1.39-5.54-3.6-11.8-4.61-18.2-4.65-1.79-.01-4.31.68-5.25,1.96-2.33,3.16-4.11,6.77-5.78,10.35-1.25,2.67-.44,5.05,2.42,6.28,3.45,1.49,6.99,2.8,10.46,4.24,2.31.96,4.96,1.57,6.75,3.15,1.19,1.05,1.62,3.55,1.5,5.34-.14,2.14-2.01,3.43-4.18,3.63-1.41.13-3.01.16-4.26-.38-5.12-2.21-10-.74-14.84.75-4.98,1.54-7.51,5.51-9.04,10.15-.8,2.41.25,5.19,2.41,6.02,3.03,1.17,6.16,2.28,9.35,2.74,5.65.82,11.4.97,17.07,1.69,5.57.72,11.06,2.25,16.64,2.64,12.16.85,21.56,6.62,29.85,15.07,6.34,6.46,13.12,12.51,19.64,18.79,1.69,1.63,3.47,3.28,4.7,5.25,2.03,3.25,4.71,4.19,8.32,3.58,5.36-.91,10.73-1.76,16.12-2.5,1.58-.22,3.29-.28,4.83.08,2.56.58,4.09,2.77,3.93,5.19-.16,2.42-1.43,4.12-3.82,4.71-1.75.44-3.56.68-5.36.92-3.91.53-7.83,1-12.53,1.6ZM138.79,229.05c.9,2.12,1.87,4.21,2.68,6.36,1.02,2.7,2.14,5.39,2.8,8.18.54,2.28-.43,4.39-2.53,5.57-2.27,1.28-4.58,1-6.54-.78-1.48-1.34-2.65-3.07-4.27-4.17-2.94-2.01-6.03-3.87-9.24-5.39-1.07-.51-3.18-.33-4.03.42-3.83,3.38-6.51,8.04-5.62,12.9.95,5.18,3.65,10.12,6.03,14.95,1.56,3.15,1.98,5.55.13,7.43-1.98,2-5.06,2.11-7.91-.04-2.02-1.52-3.91-3.25-5.66-5.09-5.06-5.31-11.17-7.12-18.31-5.9-3.5.6-5.59,2.05-5.8,5.42-.36,5.81-.18,11.63,4.42,16.21,1.79,1.78,3.47,3.73,4.95,5.77,2.2,3.02,1.91,8.59-.35,10.59-2.28,2.02-4.62,1.65-8.71-1.34-3.08-2.24-6.02-4.75-9.33-6.57-3.27-1.8-6.84-3.21-10.44-4.21-3.79-1.04-6.03.99-5.24,4.97,1.54,7.75,4.18,15.46,10.91,20.03,5.75,3.91,12.29,7.33,18.97,9.07,15.14,3.96,30.66,5.53,46.34,3.14,2.51-.38,5.08-.48,7.54-1.06,7.92-1.84,16.22-2.85,23.63-5.97,17.34-7.31,34.24-15.64,51.3-23.6,1.04-.48,1.9-1.33,2.32-1.63-8.52-6.13-16.92-12.1-25.24-18.18-3.07-2.25-5.82-4.94-8.94-7.11-5.7-3.98-10.6-8.75-15.11-14.02-8.4-9.8-18-18.34-28.77-25.97Z"/>
        <path class="cls-4" d="M121.98,190.88c4.7-.6,8.62-1.07,12.53-1.6,1.8-.24,3.61-.48,5.36-.92,2.39-.6,3.65-2.29,3.82-4.71.16-2.42-1.37-4.61-3.93-5.19-1.54-.35-3.24-.29-4.83-.08-5.39.74-10.76,1.59-16.12,2.5-3.6.61-6.29-.33-8.32-3.58-1.22-1.96-3.01-3.62-4.7-5.25-6.53-6.29-13.3-12.33-19.64-18.79-8.3-8.45-17.69-14.22-29.85-15.07-5.58-.39-11.07-1.92-16.64-2.64-5.67-.73-11.42-.88-17.07-1.69-3.19-.46-6.32-1.57-9.35-2.74-2.16-.83-3.21-3.61-2.41-6.02,1.54-4.65,4.06-8.61,9.04-10.15,4.85-1.5,9.72-2.97,14.84-.75,1.25.54,2.85.51,4.26.38,2.17-.2,4.03-1.49,4.18-3.63.12-1.79-.31-4.29-1.5-5.34-1.79-1.57-4.44-2.19-6.75-3.15-3.48-1.44-7.01-2.75-10.46-4.24-2.86-1.23-3.67-3.61-2.42-6.28,1.67-3.58,3.46-7.19,5.78-10.35.95-1.28,3.46-1.97,5.25-1.96,6.4.04,12.66,1.06,18.2,4.65.76.49,1.5,1.06,2.33,1.39,2.65,1.05,5.35.29,6.78-1.82,1.57-2.32,1.11-4.62-.61-6.48-1.32-1.43-3.05-2.53-4.72-3.59-2.91-1.84-6.05-3.34-8.84-5.34-3.59-2.56-3.99-4.74-2.13-8.41,1.9-3.76,5.26-5.49,8.81-4.51,5.01,1.38,9.38,3.66,12.57,8,5.26,7.17,11.13,13.93,15.91,21.4,4.91,7.67,11.28,13.31,19.48,16.73,24.14,10.08,44.18,26.23,64.06,42.67,10.49,8.67,21.12,17.15,31.67,25.75,2.11,1.72,4.09,3.59,6.14,5.39.95.84,1.85,1.78,2.9,2.46,2.49,1.6,5.35,1.33,6.91-.62,1.72-2.16,1.62-4.53-.13-6.48-2.66-2.97-5.68-5.61-8.4-8.52-4.58-4.9-9.2-9.77-13.5-14.91-2.93-3.5-3.3-7.55-.9-11.66,1.15-1.96,2.67-3.03,4.94-2,4.44,2.02,8.84,4.12,13.25,6.21,2.74,1.3,5.42,2.75,8.21,3.93,2.04.86,3.97.29,5.36-1.47,1.56-1.97,1.42-4.13,0-6.05-1.18-1.59-2.64-2.99-4.06-4.39-4.14-4.07-8.51-7.93-12.45-12.19-5.18-5.6-7.83-12.17-6.1-19.96.31-1.4.74-2.82,1.4-4.08,2.84-5.45,5.94-6.64,11.59-4.14,3.3,1.46,6.37,3.46,9.57,5.16,2.19,1.16,4.48,2.11,6.63,3.33,1.23.69,2.38,1.6,3.35,2.62,1.5,1.57,2.7,3.43,4.22,4.97,2.17,2.19,4.78,2.43,6.87.89,2.12-1.56,2.92-4.25,1.16-6.75-2.59-3.68-5.65-7.05-8.7-10.37-5.28-5.73-10.88-11.17-16-17.03-3.15-3.6-3.97-8.04-2.34-12.77,2.56-7.46,9.97-9.89,16.74-5.71,2.68,1.66,5.7,3.01,8.74,3.79,4.08,1.05,7.14-2.51,5.86-6.58-.53-1.69-1.52-3.32-2.62-4.72-2.45-3.15-5.09-6.14-7.67-9.19-1.28-1.52-2.75-2.92-3.86-4.56-4.58-6.78-4.63-11.43-.35-17.54,3.81-5.44,10.52-7.76,17.37-5.87,5.39,1.48,9.78,4.71,13.76,8.48,3.16,3,6.1,6.23,9.23,9.26,10.56,10.26,15.51,23.06,16.65,37.42.94,11.75,2.11,23.56,1.83,35.31-.36,15.21-1.61,30.44-3.29,45.57-1.8,16.25-5.32,32.23-11.53,47.44-3,7.36-6.52,14.54-10.2,21.59-2.85,5.47-2.34,10.23,2.58,13.77,3.37,2.42,6.96,4.56,10.54,6.68,5.45,3.23,11.03,6.12,15.53,10.85,13.35,14.02,16.01,30.72,13.03,49.01-.49,3.02-1.86,5.46-4.27,7.32-.86.67-1.76,1.29-2.57,2.02-11.67,10.63-24.49,9.67-37.29,2.94-9.61-5.05-18.62-11.23-27.98-16.77-4.99-2.95-10.24-5.47-15.19-8.47-6.03-3.66-12.05-7.4-17.76-11.54-6.75-4.9-13.22-10.2-19.7-15.45-2.1-1.7-4.05-3.66-5.8-5.73-8.48-10.01-18.37-18.55-27.84-27.55-10.21-9.7-20.5-19.48-28.47-32.48ZM281.21,275.51c-3.07,3.83-4.11,8-3.78,12.42.46,6.2,6.71,9.59,11.89,6.22,8.43-5.49,10.1-13.54,4.37-21.49-4.48-6.21-10.71-11.5-18.44-13.83-3.91-1.18-8.14-1.78-12.22-1.8-3.41-.01-5.47,2.84-5.23,5.74.23,2.78,2.21,4.53,5.55,4.87.54.06,1.09-.07,1.63-.02,6.16.62,11.56,2.83,16.24,7.88Z"/>
      </g>
      <path class="cls-2" d="M138.79,229.05c10.77,7.63,20.38,16.17,28.77,25.97,4.51,5.26,9.4,10.04,15.11,14.02,3.12,2.17,5.87,4.86,8.94,7.11,8.32,6.08,16.71,12.05,25.24,18.18-.42.3-1.29,1.15-2.32,1.63-17.06,7.96-33.96,16.29-51.3,23.6-7.4,3.12-15.7,4.13-23.63,5.97-2.46.57-5.03.67-7.54,1.06-15.68,2.4-31.2.82-46.34-3.14-6.68-1.75-13.22-5.16-18.97-9.07-6.72-4.57-9.37-12.28-10.91-20.03-.79-3.98,1.45-6.01,5.24-4.97,3.6.99,7.17,2.41,10.44,4.21,3.31,1.82,6.25,4.33,9.33,6.57,4.09,2.98,6.43,3.36,8.71,1.34,2.26-2,2.55-7.57.35-10.59-1.49-2.05-3.16-3.99-4.95-5.77-4.6-4.58-4.78-10.4-4.42-16.21.21-3.37,2.29-4.83,5.8-5.42,7.14-1.22,13.25.59,18.31,5.9,1.74,1.83,3.63,3.57,5.66,5.09,2.86,2.15,5.93,2.05,7.91.04,1.85-1.88,1.42-4.27-.13-7.43-2.38-4.83-5.08-9.76-6.03-14.95-.89-4.86,1.8-9.52,5.62-12.9.85-.75,2.95-.93,4.03-.42,3.21,1.53,6.3,3.38,9.24,5.39,1.62,1.1,2.79,2.84,4.27,4.17,1.96,1.78,4.27,2.06,6.54.78,2.1-1.18,3.07-3.3,2.53-5.57-.66-2.79-1.78-5.49-2.8-8.18-.81-2.15-1.78-4.24-2.68-6.36Z"/>
      <path class="cls-1" d="M281.21,275.51c-4.68-5.05-10.08-7.26-16.24-7.88-.54-.05-1.09.07-1.63.02-3.34-.35-5.32-2.1-5.55-4.87-.24-2.89,1.82-5.75,5.23-5.74,4.09.02,8.31.62,12.22,1.8,7.73,2.33,13.96,7.61,18.44,13.83,5.73,7.94,4.06,16-4.37,21.49-5.18,3.37-11.43-.02-11.89-6.22-.33-4.42.71-8.59,3.78-12.42Z"/>
    </g>
  </g>
</svg>