<?xml version="1.0" encoding="UTF-8"?>
<svg id="Layer_2" xmlns="http://www.w3.org/2000/svg" viewBox="0 0 28.87 30.49">
  <defs>
    <style>
      .cls-1 {
        fill: #fff;
      }
    </style>
  </defs>
  <g id="Layer_1-2" data-name="Layer_1">
    <g>
      <path d="M22.86,1.09q1.79,2.26,4.65,2.82c1.59,2.34,1.72,4.9.77,7.62-.73,2.11-1.33,4.27-2.14,6.35-.7,1.81-.57,3.23.73,4.83,1.55,1.91,1.17,3-.87,4.21-1.91,1.13-3.82,2.26-6.04,3.58-1.99-.46-4.3-.92-6.7-.22-.83.24-1.88-.15-2.79-.4-1.18-.33-2.09-1.18-1.83-2.44.47-2.29-.8-3.59-2.29-4.87-1.21-1.04-2.46-2.05-3.55-3.21C.76,17.19-.86,14.84.5,11.64-.1,8.46,2.73,6.91,3.92,4.58c.29-.57,1.32-.77,2-1.15.82-.45,1.78-.76,2.41-1.39,1-1,2.11-1.22,3.44-1.31,1.87-.12,3.8-.98,5.55-.66,1.83.34,3.64.88,5.53,1.01ZM18.67,28.4c2.09-1.05,2.5-2.51,3-3.81,1.64-4.31,3.25-8.64,4.71-13.01,1.22-3.64.97-4.05-2.5-6.57-.38-.28-.7-.64-1.08-.93-2.1-1.59-4.7-2.31-7.09-2.02-2.65.33-5.93-.09-7.62,3.04-.17.32-.87.32-1.26.57-.77.5-1.64.95-2.2,1.63-1.73,2.12-2.91,4.5-2.88,7.14,4.54,4.03,8.89,7.97,13.34,11.8,1.04.9,2.38,1.44,3.58,2.15ZM26.42,24.74c-.63-.56-.92-1.03-1.28-1.1-.77-.15-1.45.67-1.32,1.52.04.24.42.64.51.61.64-.25,1.24-.59,2.1-1.04ZM11.34,26.93c-.22.17-.43.32-.63.47.11.11.24.33.33.32.28-.03.54-.16.82-.24-.17-.18-.35-.37-.52-.55Z"/>
      <path class="cls-1" d="M18.67,28.4c-1.2-.7-2.54-1.25-3.58-2.15-4.45-3.83-8.8-7.77-13.34-11.8-.03-2.64,1.15-5.02,2.88-7.14.56-.69,1.43-1.14,2.2-1.63.39-.25,1.09-.25,1.26-.57,1.69-3.13,4.97-2.72,7.62-3.04,2.39-.29,4.99.42,7.09,2.02.38.29.7.65,1.08.93,3.47,2.52,3.72,2.92,2.5,6.57-1.46,4.37-3.07,8.7-4.71,13.01-.5,1.3-.91,2.76-3,3.81ZM9.65,17.97c-1.08-.56-1.68-1.99-4.06-1.68,1.93.57,2.37,2.52,4.2,1.53,0,.42-.18.97.03,1.23,1,1.23,2.24,2.01,3.93,1.47-.12.43-.25.86-.33,1.3-.03.13.08.29.13.43.15-.15.42-.3.42-.45,0-.42-.13-.84-.2-1.27-1.36-.86-2.72-1.73-4.11-2.56ZM21.3,14.53c.16,0,.32.02.46-.02,1.53-.46,1.14-2.01,1.64-3.04.49-1.02.34-1.09-.27-3.25-.65,2.23-1.24,4.28-1.84,6.32-.02.6-.1,1.2-.06,1.79.03.45-.6,1.16.6,1.38-.19-1.13-.37-2.16-.54-3.19ZM15.72,17.1c-1.65-.47-1.9-2.04-2.41-3.29-.85-2.1-1.87-4.05-3.82-5.47,1.46,2.91,2.91,5.82,4.34,8.67.72.03,1.3.06,1.87.07.41-3.81-.03-6.93-1.47-10.32-.12.08-.34.17-.34.25.11,3.46.92,6.79,1.83,10.1ZM18.36,16.53c.5-3.21,1.02-6.42.2-9.65-.88,3.2-.7,6.42-.2,9.65ZM10.99,15.79c-.06-1.02-.53-1.36-.93-1.72-.03-.03-.26.07-.3.16-.05.12-.07.33,0,.41.28.31.6.58,1.23,1.15ZM7.61,10.94c-.34-.3-.66-.59-.99-.86-.01,0-.31.29-.29.3.26.33.55.64.84.94,0,0,.22-.19.44-.39Z"/>
      <path class="cls-1" d="M26.42,24.74c-.86.44-1.46.78-2.1,1.04-.08.03-.47-.37-.51-.61-.13-.86.55-1.68,1.32-1.52.36.07.65.54,1.28,1.1Z"/>
      <path class="cls-1" d="M11.34,26.93c.17.18.35.37.52.55-.27.09-.54.21-.82.24-.1.01-.22-.21-.33-.32.2-.15.4-.3.63-.47Z"/>
      <path d="M15.7,17.09c-.58-.03-1.15-.06-1.87-.09-1.42-2.85-2.88-5.76-4.34-8.67,1.95,1.42,2.97,3.37,3.82,5.47.51,1.25.76,2.82,2.41,3.29h-.01Z"/>
      <path d="M15.72,17.1c-.91-3.31-1.72-6.64-1.83-10.1,0-.08.22-.16.34-.25,1.44,3.39,1.88,6.51,1.47,10.33,0,0,.01.01.01.01Z"/>
      <path d="M18.36,16.53c-.5-3.22-.67-6.44.2-9.65.81,3.23.29,6.44-.2,9.65Z"/>
      <path d="M21.3,14.54c.59-2.04,1.19-4.09,1.84-6.32.61,2.16.76,2.24.27,3.25-.5,1.03-.11,2.58-1.64,3.04-.14.04-.31.01-.46.02h0Z"/>
      <path d="M13.74,20.51c-1.69.54-2.93-.24-3.93-1.47-.2-.25-.03-.81-.03-1.23l-.11.12c1.36.86,2.72,1.73,4.09,2.59l-.02-.02Z"/>
      <path d="M9.78,17.82c-1.83.99-2.26-.96-4.2-1.53,2.38-.31,2.98,1.12,4.07,1.67.01-.01.12-.13.12-.13Z"/>
      <path d="M21.3,14.53c.17,1.03.35,2.06.54,3.19-1.2-.22-.57-.93-.6-1.38-.04-.59.03-1.19.06-1.79,0,0,0-.01,0-.01Z"/>
      <path d="M10.99,15.79c-.63-.58-.95-.85-1.23-1.15-.07-.08-.05-.29,0-.41.04-.09.27-.19.3-.16.39.36.86.7.93,1.72Z"/>
      <path d="M13.76,20.53c.07.42.19.84.2,1.27,0,.15-.27.3-.42.45-.05-.15-.16-.3-.13-.43.09-.44.22-.87.33-1.3,0,0,.02.02.02.02Z"/>
      <path d="M7.61,10.94c-.23.2-.44.39-.44.39-.3-.3-.58-.61-.84-.94-.01-.02.28-.31.29-.3.34.27.66.56.99.86Z"/>
    </g>
  </g>
</svg>