<?xml version="1.0" encoding="UTF-8"?>
<svg id="Layer_2" xmlns="http://www.w3.org/2000/svg" viewBox="0 0 43.68 52.48">
  <defs>
    <style>
      .cls-1 {
        fill: #fff;
      }
    </style>
  </defs>
  <g id="Layer_1-2" data-name="Layer_1">
    <g>
      <path d="M6.14,11.03c.71-.47,1.28-1.08,1.97-1.29,7.08-2.13,13.7-5.31,20.26-8.65,1.58-.8,3.16-1.61,5.26-.68,2.03,4.26,4.23,8.61,5.35,13.51.7,3.08,2.12,6.01,3.26,8.99.45,1.17,1,2.31,1.45,3.31-.3.5-.39.92-.63,1.02-2.77,1.14-3.98,3.52-4.97,6.11-1.72,4.48-3.43,8.95-5.19,13.41-.53,1.33-1.08,2.68-1.82,3.9-1.09,1.79-2.5,2.25-4.51,1.42-2.96-1.2-5.86-2.55-8.78-3.85-3.51-1.56-7.01-3.13-10.51-4.7-.87-.39-1.76-.78-2.6-1.23-5.09-2.73-5.65-4.27-3.44-9.52,1.8-4.27,3.65-8.52,5.47-12.78.5-1.18.99-2.36,1.46-3.55.64-1.64.71-3.1-1.14-4.09-.35-.19-.5-.74-.88-1.33ZM25.32,46.8c-.22,2,.47,3.16,1.72,3.46,1.25.3,2.45-.29,3.12-1.64.35-.71.62-1.47.86-2.23,1.85-5.78,3.7-11.56,5.53-17.35.24-.76.43-1.54.59-2.32.28-1.39-.17-2.53-1.38-3.3-.67-.43-1.37-.85-2.1-1.15-5.9-2.43-11.82-4.83-17.74-7.23-.44-.18-.91-.31-1.38-.41-1.77-.36-2.78.07-3.61,1.57-.31.56-.54,1.16-.79,1.74-1.45,3.37-2.91,6.74-4.34,10.12-.93,2.2-1.83,4.42-2.71,6.65-.29.74-.52,1.52-.64,2.3-.23,1.61.8,2.99,2.55,3.56,1.39.45,2.54-.23,3.22-2.04.4-1.04.58-2.16.99-3.2,1.61-4.17,3.11-8.38,4.94-12.45,1.35-2.98,2.39-3.17,5.3-1.93,2.5,1.07,5.01,2.08,7.52,3.13.88.37,1.8.7,2.6,1.2,2.09,1.3,2.49,2.47,1.65,4.8-1.67,4.66-3.38,9.3-5.06,13.96-.38,1.05-.67,2.13-.86,2.75ZM22.22,34.81c-.36.39-1.17.9-1.45,1.63-.3.77.76,1.79,1.66,1.88.9.09,1.82-.7,1.91-1.65.09-.96-.68-1.83-2.12-1.86Z"/>
      <path class="cls-1" d="M25.32,46.8c.19-.62.48-1.7.86-2.75,1.68-4.66,3.39-9.3,5.06-13.96.84-2.34.45-3.51-1.65-4.8-.81-.5-1.72-.83-2.6-1.2-2.5-1.05-5.02-2.06-7.52-3.13-2.91-1.24-3.96-1.05-5.3,1.93-1.83,4.06-3.34,8.28-4.94,12.45-.4,1.04-.59,2.16-.99,3.2-.69,1.81-1.84,2.49-3.22,2.04-1.75-.57-2.78-1.95-2.55-3.56.11-.78.35-1.56.64-2.3.87-2.23,1.77-4.45,2.71-6.65,1.43-3.38,2.89-6.75,4.34-10.12.25-.59.48-1.19.79-1.74.83-1.5,1.84-1.93,3.61-1.57.47.1.93.23,1.38.41,5.92,2.4,11.83,4.8,17.74,7.23.73.3,1.43.72,2.1,1.15,1.21.77,1.65,1.91,1.38,3.3-.15.78-.35,1.56-.59,2.32-1.83,5.79-3.68,11.57-5.53,17.35-.24.76-.51,1.52-.86,2.23-.67,1.34-1.87,1.94-3.12,1.64-1.25-.3-1.93-1.47-1.72-3.46Z"/>
      <path class="cls-1" d="M22.22,34.81c1.43.03,2.21.9,2.12,1.86-.09.95-1.01,1.74-1.91,1.65-.9-.09-1.96-1.12-1.66-1.88.29-.72,1.09-1.24,1.45-1.63Z"/>
    </g>
  </g>
</svg>