<?xml version="1.0" encoding="UTF-8"?>
<svg id="Layer_2" xmlns="http://www.w3.org/2000/svg" viewBox="0 0 44.94 9.85">
  <g id="Layer_1-2" data-name="Layer_1">
    <g>
      <path d="M8.46,5.43c-1.81.73-3.42,1.37-5.02,2.04-.58.24-1.11.65-1.71.79-.4.09-1.08-.03-1.28-.31C.14,7.48.06,6.82,0,6.23c-.03-.27.2-.6.37-.86C3.39.72,10.73-1.39,15.59.99c2.71,1.33,3.51,4.96,1.6,7.3-1.41,1.73-3.77,2.12-5.54.7-1.09-.87-1.9-2.09-3.19-3.56Z"/>
      <path d="M35.06,4.81c-2.34.59-4.12,2.76-6.62,2.97-1.11-1.21-.88-2.32-.15-3.22.68-.85,1.56-1.6,2.48-2.19,2.96-1.89,6.28-2.2,9.66-1.73,2.01.28,3.51,1.45,4.25,3.42.62,1.66.18,3.14-.98,4.4-.86.92-2.64,1.17-3.99.27-1.53-1.02-2.85-2.38-4.63-3.92Z"/>
    </g>
  </g>
</svg>