<?xml version="1.0" encoding="UTF-8"?>
<svg id="Layer_2" xmlns="http://www.w3.org/2000/svg" viewBox="0 0 135.76 510.88">
  <g id="Layer_3">
    <g id="DNA_x5F_1">
      <path d="M94.7,309.46c-1.11,4.57-2.1,9.06-3.81,13.16-2.32,5.59-8.44,6.45-12.99,9.17-5.95,3.69-5.16,3.08-1.99,9.41,2.59,5.04,3.2,11.3,3.84,17.06.38,4.03-.15,8.34-1.2,12.3-.67,2.51-2.48,5.44-4.69,6.72-4.28,2.48-9.23,3.96-13.99,5.9-1.15.42-2.29.84-3.44,1.26.93.77,1.82,1.73,2.93,2.23,7,3.62,13.74,7.07,14.98,16.41.89,6.76-2.15,11.95-4.36,17.57-4.04,10.51-14.18,13.61-22.67,18.7-2.35,1.44-3.99,2.15-2.61,5.52,3.35,8.03,6.69,16.06,9.24,24.4,3.01,9.7,2.18,19.41-2.83,28.53-1.92,3.32-3.62,7-6.14,9.85-1.51,1.77-4.33,2.68-6.74,3.17-1.75.36-3.75-.69-5.61-1.08.7-1.47,1.07-3.23,2.03-4.53,4.67-7.04,4.01-10.01-3.57-14.2-6.2-3.51-12.61-6.67-18.59-10.64-3.17-2.09-2.55.25-2.47,1.52-.02,4.34.28,8.66.36,13.03.03,1.04-.26,2.93-.7,3.02-1.73.26-3.77.55-5.14-.13-4.43-2.42-3.36-7.21-3.91-10.97-.98-7.61-.96-15.05,1.26-22.64,3.58-12.29,12.13-19.54,23.17-24.46,6.08-2.62,7.05-4.33,3.62-10.11-5.14-8.3-7.58-17.02-5.17-26.83,1.97-8.58,7.08-14.16,14.77-17.8,3.17-1.43,4.84-2.23,1.3-6.07-6.46-7.2-10.77-15.91-7.83-26.19,2.2-7.49,8.66-11.56,14.67-15.45,3.36-2.11,7.9-2.45,11.94-3.65.78-.21,1.46-.44,2.27-.74-.5-.44-.93-1.18-1.48-1.43-8.38-3.89-11.68-11.7-13.58-19.76-2.21-9.18-3.5-18.73.4-27.94.3-.75.77-1.35,1.24-1.95,4.38-5.56,4.23-5.39-1.06-10.42-11.03-10.28-12.6-21.88-7.09-34.79,2.11-4.82,7.14-8.55,11.39-12.08,4.37-3.6,9.41-6.6,14.48-9.29,3.47-1.77,3.16-3.71,1.63-6.5-2.33-4.45-4.89-8.85-6.98-13.45-3.12-6.94-1.26-13.17,3.72-18.26,3.18-3.4,7.3-6.03,10.98-8.98,1.57-1.24,3.09-2.28,4.66-3.52,2.5-2.02,3.76-3.24-.87-4.89-5.79-1.96-11.52-4.93-16.68-8.48-6.84-4.62-12.26-15.37-5.96-24.66,2.06-3.07,1.45-7.79,3.34-11.01,2.61-4.38,6.21-8.18,9.66-11.81,1.4-1.39,3.7-2.64,5.67-2.63,4.97-.02,5.84-1.34,3.44-5.92-5.94-11.51.22-17.95,8.27-23.67,5.71-3.96,11.45-8.03,19.05-7.04.61.06,1.35-1.19,1.94-1.86-.74-.71-1.45-1.94-2.32-2.17-3.14-.63-6.62-.42-9.48-1.7-6.77-2.94-13.67-5.81-19.69-10-8.47-5.88-13.6-24.32-7.98-35.34,1.22-2.26,4.16-3.96,6.68-5.26,2-.92,2.81.33,2.19,2.65-.98,4.08-1.68,8.25-2.27,12.43-.49,3.39.23,5.34,4.72,5.6,10.23.45,20.42,1.81,30.69,2.89,3.76.28,5.84-1.34,6.02-5.12.06-1.02-.16-2.11-.07-3.23-.02-1.87.15-3.68.33-5.5,3.76.28,7.18,1.81,7.7,5.67.98,7.19,1.62,14.51,1.47,21.71-.16,4.1-1.97,8.17-3.14,12.2-.79,2.58-.22,3.56,2.35,5.18,10.59,6.85,14.44,18.85,9.93,29.96-.66,1.69-3.05,2.91-4.91,3.66-10.79,4.37-21.52,8.55-33.39,8.81-1.75-.05-3.54.09-5.31.14,1.04,1.52,2.31,2.99,3.11,4.66,5.31,11.14,12.65,21.68,10.36,34.94-.74,3.94-2.01,7.95-3.69,11.54-2.45,4.94-2.51,5.54,2.4,8.09,12.54,6.54,15.88,13.44,14.5,26-.56,4.82-4.33,8.89-8.88,11.61-6.85,3.97-13.56,8.19-20.41,12.16-1.84,1.06-4.07,1.3-6.22,1.97,1.7,1.38,3.55,2.6,4.86,4.29,4.18,5.67,6.14,12.71,5.24,19.19-2.04,13.12-8.01,24.67-18.1,33.78-.54.48-1.11,1.05-1.74,1.5-.66.55-1.37.88-2.11,1.3.75.3,1.44.8,2.12.98,11.38,3.13,23.05,20.72,22.97,32.29M65.18,127.45c8.36.88,16.61,1.73,24.87,2.58,1.62.12,3.2.44,4.77.75-.99-1.71-1.69-3.76-3-5.04-1.39-1.4-3.43-2.26-5.34-2.87-3.14-1.04-6.38-1.7-9.57-2.55-7.73-2.06-9.81-.85-12.72,6.96l-.23.87c.27-.24.44-.5,1.22-.71M81.31,296.38c-1.3-.97-2.7-2.68-3.89-2.48-6.51.75-13.1,1.79-19.65,3.05-5.13,1.01-6.43,3.57-4.29,9.52.37.93,3.94,1.15,5.98.87,5.78-.74,11.53-2.11,17.29-2.75,1.7-.17,3.64,1.49,5.4,2.26-1.52,1.04-2.97,2.62-4.75,3.08-5.94,1.73-12.05,2.9-18.04,4.41-1.34.37-3.25,1.31-3.41,2.3-.71,3.43,7.12,13.28,10.45,11.68,5.74-2.51,11.51-5.94,15.73-10.51,5.75-6.44,4.33-13.95-.82-21.43M95.94,179.2c-3.27-.56-6.68-.95-9.9-1.7-6.33-1.48-11.23.22-15.03,5.52-1.66,2.35-1.58,3.61,1.8,4.51,7.22,2.03,14.42,4.15,21.49,6.75,6,2.32,11.3.32,13.16-5.91,1-3.36.78-6.42-3.77-7.21-2.27-.4-4.47-1.09-7.76-1.96M25.71,468.36c-2.87-1.28-6.06-2.13-8.45-4.01-2.16-1.61-3.77-2.56-4.81.17-1.16,2.8-5.21,5.96-.3,8.92,9.78,6.02,19.52,11.82,29.32,17.74.43.32,1.04.38,1.59.63.97-3.26,2.21-6.35,2.67-9.64.17-1.4-.89-3.65-2.07-4.28-5.77-3.19-11.65-6-17.95-9.54M35.21,467.68c2.67,1.64,5.34,3.28,8.05,4.73.72.4,1.86.39,2.76.53-.08-.85-.02-1.87-.35-2.58-3.06-7.54-6.4-14.84-9.24-22.43-1.1-2.88-2.78-3.95-4.94-2.45-4.86,3.47-9.33,7.45-13.97,11.29-.27.24-.36,1.35-.19,1.5,5.82,3,11.68,5.9,17.88,9.42M46.8,389.12c-3.01,1.99-6.32,3.91-9.21,6.24-1.35,1.19-3.05,2.91.56,4.5,7.13,3.14,13.81,7.19,20.92,10.43,1.3.55,4.96-.75,4.97-1.16-.07-3.64.52-8.55-1.51-10.65-4.18-4.11-9.94-6.58-15.72-9.36M54.36,234.36c-4.55.76-4.76,5.05-6.6,8.07-.23.46,1.37,2.64,2.57,3.17,5.88,2.39,11.94,4.52,17.92,6.94,6.75,2.62,10.37.69,11.4-6.28.08-.7-.28-2.04-.74-2.27-7.74-3.2-15.72-6.25-24.55-9.64M46.7,259.23c1.88,2.67,3.21,5.82,5.58,7.8,2.95,2.54,6.12,7.32,10.81,3.7,3.39-2.62,5.8-6.63,8.62-10.23.2-.36-.14-1.8-.41-1.97-7.14-2.32-14.49-4.27-21.53-6.97-3.96-1.47-4.12,1.08-4.44,3.47-.09,1.11.72,2.36,1.37,4.19M119.76,87.75c-4.73-3.22-9.83-5.82-14-9.62-3.92-3.53-6.97-4.13-11.38-1.17-4.46,3.16-4.66,3.52.22,6.58.34.3.7.5,1.15.72,7.44,3.94,13.07,13.1,23.63,8.05,1.42-.66,3.09-.73,4.62-1.05-1.3-.97-2.59-1.93-4.24-3.51M78.91,134.31c-4.17-.28-8.38-.78-12.63-.77-3.61-.03-4.25,1.97-3.72,5.43.74,4.23,3.88,3.31,6.3,3.54,6.44.68,12.86,1.04,19.29,1.41,2.13.15,4.67.73,6.26-.2,2.08-1.21-.44-7.67-3.01-8.15-3.94-.74-7.89-1.07-12.5-1.26M79.2,195.44c-3.28-1.29-6.56-2.57-9.89-3.67-.94-.35-1.89-.3-2.88-.46.18.88.21,1.92.54,2.63,2.31,4.55,4.42,9.04,7.1,13.38.71,1.22,3.33,2.65,4.38,2.2,5.29-2.01,10.33-4.6,15.34-7.09.24-.14,0-1.96-.26-2.14-4.44-1.6-8.9-3.09-14.33-4.85M76.84,39.07c1.53,2.79,2.87,5.94,6.86,4.93,9.3-2.28,18.69-2.17,28.23-1.49,1.53.1,3.15-1.33,4.79-2.04-1.3-.97-2.56-2.03-4.03-2.73-1.49-.6-3.14-1.04-4.76-1.16-9.67-.61-19.36-1.12-29.06-1.63-1.21-.12-2.5.06-3.67.16.42,1.15.86,2.2,1.64,3.95M82.34,236.11c-.32-2.67-.23-5.34-1.05-7.73-2.61-7.32-3.93-10.88-12.67-5.65-3.33,2.01-6.94,3.53-10.41,5.3-.61.35-1.18.93-1.82,1.38.65.28,1.2.53,1.78.68,4.75,1.99,9.32,4.24,14.2,5.75,3.04,1.02,6.49.9,9.97.27M69.27,363.02c1.67-6.28,1.75-6.57-4.42-7.9-6.48-1.31-13.06-2.24-19.55-3.13-4.38-.65-1.9,3.63-3.26,5.24-.15.17,1.06,2.25,1.9,2.58,6.74,1.9,13.48,3.79,20.32,5.3,1.35.36,3.19-.7,5-2.08M58.22,420.1c2.85-2.14,3.82-3.85-.75-4.96-1.67-.34-3.21-1.16-4.85-2.01-5.06-2.38-10.04-5.05-15.15-7.24-1.2-.53-2.91.05-4.49.15.21,2.33-.26,6.04.82,6.63,6.37,3.66,13.12,6.7,19.89,9.64,1.01.48,2.8-.81,4.52-2.21M112.06,75.87c3.31,2.33,6.53,4.63,9.84,6.96,2.91,1.91,5.2,1.07,4.96-2.3-.42-5.8-3.16-10.67-7.96-14.02-2.62-1.83-8.43.96-10.46,5.08-.3.75,1.78,2.65,3.62,4.28M47.95,377.01c4.65,1.96,15.41-.35,18.69-4.13.3-.34.05-1.75-.14-1.8-8.19-1.87-16.29-3.72-24.51-5.49-.19-.05-.84.81-.77.93,2.11,3.36,4.24,6.61,6.73,10.48M84.88,92.43c1.83,5.97,2.84,7.59,8.96,5.59,2.17-.77,4.9-.14,7.33-.33,1.24.02,2.45-.28,3.62-.38-.73-1.13-1.37-2.64-2.42-3.34-4.95-3.18-9.95-6.17-15.05-9.18-.46-.23-1.89.12-1.97.41-.37,2.18-.55,4.41-.47,7.22M55.67,348.02c3.99.55,7.97.78,11.79,1.59,2.34.52,1.8-.14,1.82-1.79.35-7.15-3.8-10.22-10.34-7.41-1.61.61-3.22,1.21-4.79,2.04-2.13.99-4.08,2.12-6.14,3.23,2.34.93,4.7,1.77,7.65,2.35M111.05,54.38c3.17-4.54,2.9-5.85-1.77-6.16-6.45-.27-12.93-.03-19.36.02-.73.01-1.49.54-2.2.86.55.66,1.06,1.84,1.74,2.02,7.16,1.49,14.24,2.86,21.59,3.26M57.99,282.92c-.71.74-1.79,1.28-2.24,2.2-.9,1.83-1.42,3.76-2.12,5.64,1.48-.12,2.89-.37,4.37-.49,4.42-.27,8.91-.42,13.26-.82,1.92-.21,3.77-.96,5.58-1.52-1.46-1.11-2.87-2.42-4.51-3.27-1.66-.75-3.52-1.14-5.32-1.41-2.69-.4-5.57-.45-9.02-.33M47.14,430.6c1.58-.51,3.07-1.05,4.56-1.58-.43-.73-.75-1.85-1.47-2.25-5.34-2.87-10.81-5.67-16.17-8.44-.55-.25-1.28-.24-1.89-.3.01.73-.31,1.57.07,2.09,1.44,2.76,3.22,5.41,4.63,8.27,2.33,4.45,5.65,4.82,10.28,2.22M90.87,153.53c2.05-2.25,2.21-3.65-1.3-4.07-5.52-.64-11.06-1.6-16.58-2.24-1.43-.07-3.02.85-4.48,1.29,1.22.84,2.42,1.78,3.67,2.53.86.64,1.77,1.51,2.76,1.67,5.08.73,9.86,5.32,15.92.82M98.77,168.57c-4.6-2.16-8.83-1.42-12.76,1.67-.52.38-1.17.52-1.85.75.6.47,1.15,1.13,1.73,1.29,6.26,1.36,12.43,2.69,18.69,4.04.99.16,1.91.61,2.83.65.73-.01,1.49-.54,2.29-.84-.6-.47-1.05-1.11-1.68-1.48-2.69-1.96-5.47-3.94-9.25-6.08M74.91,110.48c-2.86,1.41-2.67,3.02.16,4.08,2.63,1.01,5.39,1.54,8.12,2.16,2.22.59,4.4.96,6.65,1.46-1.19-1.76-2.49-3.46-3.66-5.32-4.03-6.25-4.42-6.35-11.27-2.38"/>
      <path d="M106.17,0c.26.17.21.37.14.66-.17-.15-.34-.3-.14-.66"/>
    </g>
  </g>
</svg>