<?xml version="1.0" encoding="UTF-8"?>
<svg id="Layer_2" xmlns="http://www.w3.org/2000/svg" viewBox="0 0 247.23 350.9">
  <g id="Layer_3">
    <g id="telescoop">
      <path d="M74.76,198.19c5.23-5.78,10.38-11.3,15.58-16.77.78-.82,1.84-1.95,2.78-1.97,4.33-.08,6.59-3.71,9.89-5.51,2.26-1.23,4.2-3.32,5.84-5.37,3.21-4.03,6.88-7.18,11.91-8.71,1.27-.39,2.48-1.54,3.32-2.64,1.84-2.42,3.12-5.33,5.18-7.52,3.35-3.56,3.53-3.38,1.01-7.4-4.6-7.35-6.88-15.36-6.74-24.04.07-4.33-.6-8.89.52-12.95,1.55-5.6,1.4-10.34-2.48-14.77-.49-.56-.71-1.35-1.21-1.9-2.52-2.83-4.06-7.06-8.69-7.06-2.87,0-3.24-1.44-3.35-3.73-.15-3.26-3.36-7.14-6-7.28-5.15-.28-8.58-3.49-11.33-7.18-3.65-4.91-7.45-9.47-12.8-12.63-3.96-2.34-6.85-8.65-5.62-12.33.86-2.6,2.1-5.1,3.4-7.51,4.25-7.87,9.82-14.8,15.7-21.5,4.36-4.96,9.95-7.79,16.22-9.2,2.29-.52,4.82-.31,6.84,1.78,2.92,3.02,6.01,5.89,9.21,8.62,4,3.41,7.89,6.81,10.23,11.7,1.64,3.44,3.65,6.67,2.44,10.75-.16.55.23,1.46.65,1.97,1.3,1.57,2.55,3.28,4.16,4.47,6.16,4.54,11.42,10.06,16.11,15.95,6.63,8.33,12.87,17.01,20.14,24.77,5.93,6.33,10.55,13.74,16.97,19.66,4.66,4.3,9,8.96,13.39,13.55,3.07,3.21,5.94,6.62,9,9.83.94.99,2.18,1.75,3.4,2.4,1.34.71,3.37.76,4.13,1.81,3.03,4.13,5.78,8.47,8.43,12.85,2.59,4.28,2.37,4.7-1.59,8.63-.49.49-.76,1.93-.42,2.39,1.27,1.68,2.95,3.05,4.29,4.69,2.17,2.67,4.54,5.28,6.15,8.28.95,1.78,1.85,2.86,3.71,3.42.81.25,2.04,1.05,2.05,1.63.04,1.94-.27,3.9-.63,5.82-.93,4.94-5.59,6.92-8.51,10.25-3.33,3.8-6.75,3.36-10.1-.64-3.64-4.33-7.21-8.72-10.83-13.07-2.35-2.83-3.51-2.9-6.29-.4-.58.52-1.01,1.25-1.62,1.71-3.85,2.91-5.79,4.19-9.68-.04-2.27-2.46-4.54-4.97-7.12-7.07-2.29-1.86-5.34-2.84-6.11-6.21-.11-.5-.86-.84-1.29-1.27-1.56-1.56-3.44-2.92-4.57-4.75-1.52-2.46-3.26-2.48-5.78-2.01-4.92.91-9.86,2.71-14.96.69-1.68-.67-2.18.51-2.29,1.83-.06.76.28,1.55.27,2.33-.01,3.42,2.26,6.63.78,10.2-.82,1.97,0,3.39,1.5,4.97,1.87,1.96,4.26,4.44,4.42,6.83.41,6.23,3.53,11.44,5.19,17.16,1.73,5.93,4.25,11.64,5.88,17.59.98,3.57.54,7.51,1.4,11.12,1.76,7.41,3.87,14.73,6.01,22.04,2.99,10.2,6.04,20.38,9.24,30.51,2.53,7.99,5.85,15.77,7.87,23.88,2.5,10.07,5.99,19.74,9.71,29.37,2.03,5.24,4.34,10.38,6.12,15.7,1.25,3.71-.96,5.67-4.88,4.75-4.13-.97-8.29-1.83-12.34-3.05-1.41-.42-3.13-1.5-3.71-2.75-2.36-5.01-4.54-10.13-6.38-15.36-1.45-4.11-2.22-8.46-3.43-12.66-1.44-4.98-3.1-9.9-4.52-14.88-2.02-7.07-3.95-14.17-5.86-21.27-2.88-10.67-7.52-20.79-9.3-31.83-.91-5.67-2.91-11.17-4.51-16.73-2.33-8.09-4.69-16.18-7.14-24.24-.62-2.05-1.77-3.93-2.4-5.97-1.15-3.74-3.81-5.89-7.18-7.39-1.84-.82-3.01.44-3.22,1.83-.92,5.88.23,12.12-3.13,17.58-.09.15.23.5.21.74-.43,4.48-.86,8.95-1.32,13.42-.26,2.51-.73,5.02-.8,7.53-.22,8.03-.25,16.07-.43,24.11-.14,6.2-.32,12.4-.66,18.6-.34,6.24-.85,12.48-1.35,18.71-.31,3.88-1.05,7.76-1.06,11.64-.02,5.51.38,11.02.71,16.53.25,4.24-.91,6.05-5.07,5.95-3.12-.07-6.23-1.16-9.32-1.88-2.7-.62-5.35-1.84-8.06-1.94-5.01-.18-8.83-3.69-8.54-8.61.1-1.62.41-3.23.56-4.85.6-6.43,1.07-12.88,1.78-19.3.48-4.35,1.23-8.67,1.94-13,1.34-8.15,2.79-16.29,4.11-24.44.55-3.4.94-6.82,1.31-10.25.75-6.98,1.23-13.99,2.22-20.94.61-4.3,2.16-8.46,2.94-12.75,1.32-7.2,2.43-14.44,3.43-21.69.13-.94-.66-2.35-1.47-3.01-1.46-1.21-3.21-2.12-4.94-2.95-.51-.24-1.53-.03-2,.36-2.84,2.39-6.24,4-8.2,7.61-1.41,2.6-4.44,4.27-6.27,6.71-5.42,7.24-10.57,14.69-15.9,22-6.25,8.58-12.61,17.08-18.87,25.65-6.92,9.49-13.83,18.99-20.65,28.55-5.76,8.07-11.34,16.28-17.11,24.35-1.65,2.31-3.54,5.04-6.61,5.04-5.68-.01-11.68.92-16.32-3.96-2.54-2.68-2.82-4.5-.63-7.59,4.43-6.25,8.73-12.59,13.19-18.81,3.15-4.38,6.57-8.57,9.7-12.95,4.66-6.51,8.89-13.34,13.8-19.65,10.38-13.33,21.06-26.43,31.68-39.58,1.43-1.77,3.22-3.26,4.91-5.15M202.54,133.33c2.44-1.8,4.49-3.46,6.64-4.98,2.46-1.73,2.75-2.94.8-5.05-4.45-4.8-8.51-10.12-13.55-14.21-8.19-6.65-13.82-15.36-20.59-23.14-3.3-3.8-7.13-7.15-10.36-11-3.62-4.32-6.57-9.2-10.28-13.43-4.18-4.76-8.81-9.13-13.41-13.48-.78-.74-2.91-1.22-3.61-.71-6.87,4.95-14.34,9.29-18.76,16.95-2.24,3.88-2.78,7.51.04,11.58,2.5,3.61,4.28,7.72,6.3,11.64,1.81,3.51,2.86,3.53,5.36.61,1.95-2.28,4.01-4.74,7.77-3.56,2.95.92,4.81,3.48,4.13,6.27-.54,2.23-3.73,4.13-6.25,3.72-.28-.05-.56-.22-.82-.18-1.03.16-2.05.37-3.08.57.22.99.16,2.2.72,2.93,2.14,2.75,4.32,5.5,6.77,7.98,5.69,5.74,11.59,11.28,17.31,16.99,3.57,3.56,6.97,7.28,10.46,10.91.6.63,1.3,1.16,1.98,1.71,1.18.95,2.06.61,2.45-.76.51-1.81.9-3.66,1.34-5.49.65-2.67,2.62-4.13,4.87-3.62,2.15.5,3.29,2.79,2.87,5.35-.34,2.11-1.41,3.57-3.03,4.92-3.08,2.55-3.05,4.07-.37,7.04,2.74,3.04,5.62,5.99,8.08,9.26,1.68,2.23,3.1.96,3.44-.32,1.92-7.24,7.76-11.6,12.02-17.12.32-.41.51-.92.76-1.39M110.51,296c-.45,5.9-1.12,11.47-1.77,17.03-.18,1.52-.44,3.04-.44,4.56,0,3.29,1.41,4.25,4.9,4.47,2.28.15,4.53,1.01,6.77,1.64,1.4.39,2.75.95,4.13,1.41,2.02.68,2.72-.6,2.42-2.13-1.58-8.05-.23-16.06.21-24.06.32-5.84,1.36-11.64,1.77-17.47.4-5.56.39-11.15.59-16.72.2-5.76.52-11.52.64-17.28.08-3.77-.32-7.57-.09-11.33.23-3.8.98-7.57,1.5-11.35.52-3.78,1.09-7.56,1.52-11.35.07-.62-.34-1.61-.84-1.92-2.01-1.25-4.1-2.39-6.24-3.39-1.78-.83-2.31.44-2.49,1.89-.14,1.15-.08,2.33-.28,3.47-1.35,7.36-2.99,14.67-4.05,22.07-.83,5.83-.93,11.76-1.44,17.63-.18,2.08-.54,4.16-.9,6.22-1.11,6.35-2.35,12.68-3.38,19.04-.94,5.84-1.68,11.71-2.51,17.56M126.29,20.25c-5.4-4.74-10.57-9.16-15.8-13.51-.55-.46-1.46-.84-2.14-.75-4.11.53-8,1.54-10.74,5.1-4.68,6.07-9.66,11.91-14.1,18.14-2.07,2.91-3.28,6.46-4.71,9.8-1.49,3.46.22,5.92,2.97,7.36,5.48,2.86,9.26,7.33,12.78,12.2,1.16,1.6,2.89,2.8,4.35,4.19.92-1.8,2.36-3.51,2.67-5.41.7-4.37,4.23-6.89,6.2-10.41,3.13-5.59,7.06-10.72,12.9-13.8,2.22-1.17,4.79-1.78,7.28-2.29,2.54-.52,3.44-1.63,2.26-4.13-1.07-2.27-2.59-4.33-3.9-6.49M92.97,187.75c-4.69,5-8.84,10-13.44,14.55-8.37,8.29-14.64,18.17-21.71,27.46-4.49,5.89-9.5,11.37-14.06,17.21-3.86,4.93-7.34,10.15-11.1,15.16-4.29,5.7-8.93,11.15-13.03,16.98-4.16,5.91-7.85,12.15-11.69,18.28-.21.34.02,1.42.32,1.57,4.92,2.42,8.56,1.6,11.78-2.87,5.84-8.13,11.48-16.39,17.34-24.5,3.92-5.43,8.14-10.64,12.14-16.02,4.87-6.56,9.67-13.19,14.46-19.81,3.32-4.58,6.61-9.18,9.85-13.81,3.25-4.63,6.21-9.48,9.68-13.93,4.12-5.3,8.7-10.23,12.96-15.42,1.12-1.37,2.11-3.03,2.52-4.71.14-.58-1.7-2.38-2.5-2.3-1.23.13-2.35,1.4-3.52,2.18M207.67,341.46c-2.26-5.74-4.53-11.07-6.33-16.56-2.82-8.6-5.27-17.31-7.99-25.94-2.76-8.74-5.69-17.42-8.47-26.15-2.17-6.78-4.38-13.56-6.31-20.41-2.63-9.34-5.09-18.74-7.45-28.15-.69-2.77-.67-5.71-1.26-8.51-.25-1.17-1.32-3.14-1.9-3.1-1.96.14-4.25.6-5.64,1.82-.61.53.59,3.21,1.06,4.89,2.48,8.77,5.01,17.53,7.47,26.3,2.3,8.2,3.71,16.59,7.04,24.56,2.4,5.74,3.12,12.16,4.78,18.22,1.77,6.43,3.83,12.78,5.66,19.19,1.1,3.86,1.78,7.85,3.01,11.67,1.82,5.64,3.98,11.18,5.99,16.77.21.58.44,1.16.6,1.76,1.25,4.59,3.77,6.63,8.38,6.49,1.91-.06,2.35-1.2,1.35-2.84M222.97,149.87c.87-.69,1.33-1.26,1.93-1.63,2.91-1.78,3.99-3.97,1.94-7.13-1.57-2.41-2.66-5.23-4.57-7.32-4.01-4.38-10.93-3.46-14.4,1.42-2.42,3.4-4.84,6.88-7.77,9.8-3.75,3.73-4.79,8.42-5.77,13.19-.16.78.6,1.95,1.24,2.65,2.49,2.74,5.05,5.44,7.74,7.99.52.49,2.27.65,2.56.27,1.24-1.63,2.17-3.51,3.16-5.31.25-.45.2-1.11.52-1.47,2.6-2.95,5.13-5.98,7.95-8.72,1.57-1.52,3.64-2.52,5.49-3.76M127.46,167.57c.8,2.94,3.39,3.14,5.12,3.7,4.75,1.56,9.68,2.65,14.61,3.52,1,.18,2.94-1.18,3.36-2.26,2.26-5.76,2.35-11.76,1.37-17.84-.43-2.71-2.34-3.19-4.5-3.53-2.44-.38-4.89-.72-7.31-1.19-2.46-.48-4.3-.06-6.1,2.06-3.87,4.54-5.43,9.92-6.56,15.54M125.53,174.37c-3.33-1.53-4.87-3.32-4.01-6.84.4-1.65-1.42-2.41-2.94-1.5-4.05,2.41-6.92,7.93-2.81,12.13,4.49,4.59,9.68,7.82,16.58,8.51,6.34.63,12.57,2.64,18.75,4.39,4.2,1.19,9.49-1.67,8.48-7.72-.14-.86-.4-1.7-.61-2.54-.9-3.66-1.55-4-4.59-2.03-3.29,2.13-6.95,1.79-10.35,1.12-5.54-1.1-10.94-2.89-16.39-4.43-.75-.21-1.41-.7-2.11-1.07M131.11,130.67c1.5,3.21,2.72,6.12,4.12,8.94.41.83,1.19,1.61,2,2.08,2.13,1.22,4.32,2.38,6.59,3.32,1.49.62,3.14.88,4.74,1.13.32.05,1.1-.68,1.08-1.01-.06-.76-.26-1.75-.79-2.21-2.6-2.27-4.25-5.21-4.53-8.45-.42-4.89-.33-9.85-.02-14.75.12-1.93-.04-3.23-1.48-4.58-3.71-3.48-7.27-7.14-10.93-10.68-.44-.43-1.17-.57-1.76-.84-.26.67-.73,1.33-.74,2-.08,5.19-.28,10.39,0,15.56.17,3.18,1.11,6.32,1.71,9.48M118.6,41.36c-3.04,4.36-5.78,8.49-8.43,12.67-1.03,1.63,1.03,7.93,2.82,8.57.37.13,1.15-.55,1.59-1,3.4-3.53,6.58-7.3,10.19-10.59,2.95-2.68,6.45-4.75,9.61-7.22.41-.32.59-1.61.29-2.06-3.83-5.61-6.48-6.16-12.09-3.25-1.44.75-2.67,1.9-3.99,2.87M222.11,169.13c2.89,2.68,5.24,5.21,7.56,7.78,1.03,1.14,1.67.84,2.59-.25,1.46-1.75,2.95-3.6,4.81-4.84,1.75-1.17,1.64-2.54.78-3.62-3.18-3.97-6.36-7.99-9.99-11.52-2.38-2.31-5.95-1.13-8.17,2.03-2.29,3.25-1.95,6.2.99,8.87.52.48.96,1.04,1.44,1.57M161.86,144.17c1.43-.41,2.31-.94,3.19-1.48,2.91-1.78,3.3-3.06.68-5.03-5.01-3.79-9.34-8.2-13.46-12.89-.48-.55-1.39-.73-2.1-1.08-.17.77-.44,1.53-.49,2.31-.3,4.4-.38,8.85,2.65,12.44,2.01,2.39,3.45,5.59,6.99,6.24.79.14,1.69-.32,2.54-.5M125.23,193.77c-.42,1.2-.67,1.87-1.01,2.48-1.61,2.86-.62,5.25,2.43,6.32,1.83.64,3.73,1.34,5.27,2.47,2,1.46,2.8.24,3.03-1.23.42-2.8.48-5.66.55-8.51.02-.62-.37-1.38-.82-1.85-1.99-2.07-7.32-1.86-9.45.31M164.82,199.52c-.51-1.34-.61-2.47-1.16-3.32-.9-1.4-1.81-2.85-4.08-1.97-2.15.83-3.87,1.56-2.97,4.36.75,2.32,1.26,4.73,2.13,7.01.98,2.56,5.87,3.32,7.75,1.29.24-.26.22-.92.11-1.34-.56-2.02-1.18-4.02-1.79-6.02M102.7,179.92c.3,1.62.69,3.29,1.72,4.33.41.41,2.6-.21,3.29-.98.79-.88,1.26-2.51,1.09-3.7-.31-2.2-1.86-2.7-3.8-1.49-.83.51-1.53,1.23-2.3,1.85M164.85,148.3c1.16.11,2.35.43,3.48.28,1.19-.15,2.37-.65,3.48-1.18.58-.28.98-.93,1.46-1.42-.56-.4-1.16-1.19-1.67-1.14-1.37.14-2.69.64-4.04.99-1.13.96-1.92,1.71-2.71,2.46Z"/>
    </g>
  </g>
</svg>