<?xml version="1.0" encoding="UTF-8"?>
<svg id="Layer_2" xmlns="http://www.w3.org/2000/svg" viewBox="0 0 69.59 59.14">
  <defs>
    <style>
      .cls-1 {
        fill: #fff;
      }
    </style>
  </defs>
  <g id="Layer_1-2" data-name="Layer_1">
    <g>
      <path d="M17.25,25.65c-1.17.32-1.9.52-2.78.76-2.07-4.7-4.03-9.2-6.04-13.68C6.48,8.39,3.67,4.58,0,.95,2.35-.35,4.11-.08,5.71.37c5.68,1.58,11.32,3.29,16.97,4.99,3.19.96,6.37,1.98,9.67,3.02.23,1.08.23,2.28.76,3.16.55.91,1.61,1.5,2.45,2.23,3.62,3.13,7.41,6.09,10.83,9.42,3.9,3.8,8.06,7.26,12.25,10.71,3.32,2.73,6.42,5.73,9.51,8.72,1.89,1.83,1.88,2.96.19,4.93-1.46,1.69-3.04,3.27-4.57,4.9-1.31,1.39-2.66,2.75-3.92,4.18-2.69,3.06-4.53,3.36-7.71.63-4.6-3.95-9.05-8.06-13.5-12.18-2.69-2.49-5.19-5.2-7.91-7.65-4.38-3.95-8.88-7.77-13.48-11.78ZM42.73,45.35l-.16-.16c3.26,2.83,6.47,5.7,9.78,8.46,2.59,2.16,3.6,2.11,6.29-.05.84-.67,1.54-1.52,2.32-2.3-.87-2.29-2.9-3.23-4.15-4.84-.28-.36-.44-.82-.79-1.51.76-.86,1.55-1.75,2.53-2.86,1.95,1.33,3.66,2.47,5.34,3.65.72.51,1.47.74,2.19.2.45-.34.71-.93,1.21-1.63-11.85-10.1-23.51-20.05-35.19-29.96-1.07-.91-2.29-1.65-3.35-2.4-4.78,3.2-8.95,7.71-10.5,11.39.7.72,1.43,1.54,2.24,2.27,5.83,5.24,11.67,10.46,17.51,15.67,1.55,1.38,3.15,2.71,4.72,4.07ZM26.51,9.5c-6.65-2.96-12.97-5.04-19.54-6.38-.33-.07-.74.28-1.29.5,3.21,5.84,6.31,11.5,9.58,17.43,3.35-3.31,6.52-6.42,9.66-9.55.43-.43.77-.96,1.6-2.01Z"/>
      <path class="cls-1" d="M42.73,45.35c-1.57-1.35-3.17-2.69-4.72-4.07-5.85-5.21-11.69-10.43-17.51-15.67-.81-.73-1.54-1.56-2.24-2.27,1.56-3.68,5.72-8.19,10.5-11.39,1.06.75,2.28,1.49,3.35,2.4,11.68,9.92,23.33,19.86,35.19,29.96-.5.7-.76,1.29-1.21,1.63-.72.54-1.47.31-2.19-.2-1.68-1.18-3.39-2.32-5.34-3.65-.99,1.11-1.77,2-2.53,2.86.35.69.51,1.15.79,1.51,1.24,1.61,3.27,2.55,4.15,4.84-.78.79-1.48,1.63-2.32,2.3-2.68,2.16-3.7,2.21-6.29.05-3.31-2.76-6.53-5.64-9.78-8.46.9.28,1.83.49,2.7.85,1.33.54,2.52.4,3.51-.63,2.1-2.17,4.05-4.47,5.46-7.33-.45-.72-.78-1.45-1.29-2.03-1.48-1.67-2.94-3.39-4.59-4.89-4.96-4.5-10.01-8.9-15.02-13.34-.12-.11-.25-.2-.38-.3-1.46-1.14-2.45-1.26-3.89-.16-1.39,1.06-2.7,2.25-3.96,3.46-2.42,2.34-2.45,3.22-.32,5.6.64.71,1.34,1.37,2.02,2.04,4.79,4.69,9.58,9.39,14.4,14.05.84.81,1.55,1.59,1.5,2.83Z"/>
      <path d="M42.73,45.35c.04-1.23-.67-2.02-1.5-2.83-4.82-4.66-9.61-9.36-14.4-14.05-.69-.67-1.38-1.33-2.02-2.04-2.13-2.37-2.1-3.25.32-5.6,1.26-1.22,2.57-2.4,3.96-3.46,1.44-1.1,2.43-.98,3.89.16.13.1.26.19.38.3,5.01,4.44,10.06,8.84,15.02,13.34,1.65,1.5,3.1,3.22,4.59,4.89.51.57.84,1.31,1.29,2.03-1.41,2.86-3.36,5.16-5.46,7.33-.99,1.02-2.18,1.17-3.51.63-.87-.36-1.8-.57-2.7-.85,0,0,.16.16.16.16ZM40.4,33.64c2.96.53,4.99,2.63,7.28,4.3.84.61,1.76,1.11,2.57,1.6,1.25-1.12,1.49-2.28.59-3.16-2.71-2.63-5.53-5.16-8.67-7.44-.65.45-1.22.73-1.66,1.16-.43.41-.72.97-1.01,1.38.42.91.74,1.61,1.07,2.32-1.05-.16-2.09-.32-3.49-.53-.02.77-.33,1.72,0,2.08,2.16,2.29,4.39,4.53,6.74,6.62.77.68,1.94,1.02,2.99,1.23.41.08,1.09-.52,1.43-.98.2-.26.13-1.03-.12-1.27-1.45-1.43-3.01-2.75-4.5-4.15-1.1-1.03-2.94-1.32-3.22-3.17ZM39.62,27.42c-2.11-3.23-5.35-6.02-8.33-7.11-.52-.19-1.29-.14-1.77.13-.58.33-.98.99-1.67,1.75,3.22,2.56,6.16,4.91,9.27,7.39.98-.84,1.75-1.51,2.49-2.15ZM26.28,23.84c.08,1.08-.02,1.5.14,1.65,2.43,2.21,4.84,4.45,7.37,6.54.72.59,1.44.06,1.69-1.16-2.79-2.27-5.46-4.85-9.2-7.02Z"/>
      <path class="cls-1" d="M26.51,9.5c-.83,1.05-1.16,1.58-1.6,2.01-3.14,3.13-6.3,6.24-9.66,9.55-3.26-5.94-6.37-11.59-9.58-17.43.55-.22.96-.57,1.29-.5,6.57,1.34,12.89,3.42,19.54,6.38Z"/>
      <path class="cls-1" d="M40.55,33.81c-.32-.7-.64-1.4-1.06-2.31.3-.42.59-.97,1.01-1.38.44-.42,1-.71,1.66-1.16,3.14,2.27,5.96,4.8,8.67,7.44.9.87.66,2.03-.59,3.16-.81-.5-1.73-1-2.57-1.6-2.29-1.66-4.32-3.77-7.28-4.3l.16.16Z"/>
      <path class="cls-1" d="M39.62,27.42c-.74.64-1.52,1.31-2.49,2.15-3.11-2.48-6.05-4.82-9.27-7.39.69-.76,1.09-1.43,1.67-1.75.48-.27,1.25-.32,1.77-.13,2.97,1.1,6.21,3.88,8.33,7.11Z"/>
      <path class="cls-1" d="M40.4,33.64c.28,1.86,2.13,2.14,3.22,3.17,1.48,1.4,3.04,2.72,4.5,4.15.24.24.31,1,.12,1.27-.34.46-1.02,1.06-1.43.98-1.05-.21-2.22-.55-2.99-1.23-2.35-2.09-4.58-4.33-6.74-6.62-.33-.35-.02-1.31,0-2.08,1.4.21,2.44.37,3.49.53,0,0-.16-.17-.16-.17Z"/>
      <path class="cls-1" d="M26.28,23.84c3.73,2.17,6.41,4.75,9.2,7.02-.25,1.22-.97,1.75-1.69,1.16-2.53-2.09-4.94-4.32-7.37-6.54-.16-.14-.06-.57-.14-1.65Z"/>
    </g>
  </g>
</svg>