<?xml version="1.0" encoding="UTF-8"?>
<svg id="Layer_2" xmlns="http://www.w3.org/2000/svg" viewBox="0 0 342.89 390.94">
  <defs>
    <style>
      .cls-1 {
        stroke: #000;
        stroke-miterlimit: 10;
        stroke-width: 2px;
      }
    </style>
  </defs>
  <g id="Layer_3">
    <g id="dude">
      <path class="cls-1" d="M109.84,128.86c2.23-3.82,4.43-7.33,6.23-11.04.44-.9-.22-2.57-.75-3.73-2.17-4.72-4.73-9.3-6.69-14.08-4.08-9.95-4.68-20.03-2.16-30.15,1.31-5.26,2.18-10.66,3.66-15.86,1.42-4.99,3.05-9.9,6.32-14.11,2.39-3.07,4.03-6.71,6.4-9.81,10.46-13.69,24.14-22.92,41.13-27.84,9.1-2.64,17.61-.82,25.78,3.39,7.6,3.91,14.97,8.26,22.73,11.92,6.49,3.07,12.45,7.34,18.93,10.44,13.29,6.35,25.22,14.79,37.4,22.97,6,4.03,10.36,8.67,11.85,15.14,1.4,6.07,2.07,12.47,1.69,18.57-.43,6.86-2.04,13.65-3.78,20.28-1.77,6.76-4.18,13.33-6.59,19.88-.87,2.36-2.62,4.37-3.82,6.61-.33.62-.13,1.52-.18,2.3.66-.22,1.32-.42,1.98-.65,3.78-1.32,7.7-2.38,11.31-4.03,3.21-1.46,6.35-3.26,9.03-5.48,4.18-3.46,7.89-7.45,11.88-11.12,5.65-5.2,12.27-8.8,20.33-8.99,8.78-.21,16.86,3.43,18.94,13.49,1.53,7.41-.94,12.6-5.7,17.81-6.23,6.82-14.21,10.12-22.85,12.74-6.37,1.93-13.03,3.42-18.86,6.36-6.69,3.37-12.6,8.14-18.87,12.27-6.65,4.38-13.16,8.96-20.02,13-4.68,2.76-9.73,5.06-14.86,6.99-4.18,1.57-8.37.83-12.72-1.58-5.24-2.9-8.39-7.69-12.63-11.46-1.85-1.65-2.12-3.83-1.03-6.33,2.18-4.99,3.87-10.2,5.74-15.32.14-.38.15-.81.22-1.22-.43.21-1.07.3-1.27.64-1.89,3.33-3.62,6.75-5.56,10.05-1.71,2.91-3.46,5.82-5.53,8.47-1.52,1.94-2.46,7.77-1.02,9.95,8.78,13.25,14.83,27.69,21.06,42.07,3.91,9.03,8.44,17.84,12.18,26.92,2.98,7.24,4.33,15.01,1.96,22.25-1.46,4.46-3.72,8.75-7.27,12.51-5.28,5.6-10.91,10.62-17.19,15.01-5.92,4.15-12.23,7.8-17.97,12.16-6.72,5.09-14.13,8.83-21.96,12.06-3.07,1.27-6.4,3-8.26,5.51-1.67,2.25-3.88,3.6-5.71,5.47-2.95,3.02-2.33,7.24-2.78,11.03-.67,5.62.38,11.46-1.82,16.92-.71,1.75-.06,4.06-.22,6.09-.51,6.44-1.89,12.74-5.88,17.76-2.48,3.13-5.86,6.07-10.89,4.38-1.37-.46-2.76-1.16-3.88-2.07-5.58-4.54-10.74-9.34-11.17-17.04-.15-2.71-.75-5.42-1.12-8.13-.82-5.92-.91-11.66,1.22-17.34,2.02-5.37,5.54-9.48,9.07-13.79,3.95-4.82,7.87-9.78,9.88-15.91.66-2.01,1.59-3.98,2.76-5.72,2.92-4.35,6.09-8.54,9.1-12.83,3.94-5.63,8-11.04,13.76-15.16,5.85-4.19,11.12-9.11,16.73-13.61,1.68-1.35,3.64-2.35,5.48-3.51-1.45-1.64-3.06-3.18-4.33-4.95-4.08-5.68-8.39-11.25-11.95-17.22-3.92-6.57-6.92-13.63-10.65-20.31-3.7-6.63-5.06-13.89-7.4-20.88-.47-1.4.03-3.12.28-4.64.42-2.51-1.8-1.81-2.54-1.73-2.36.26-4.64.46-6.77-.91-3.19-2.05-4.86-.59-6.28,2.03-.46.84-1.43,1.4-2.18,2.07-.61.54-1.59.92-1.83,1.6-2.54,7.09-8.67,11.28-13.44,16.56-4.38,4.84-8.77,9.67-13.32,14.36-4.17,4.3-8.57,8.38-12.85,12.57-4.22,4.14-8.29,8.43-12.64,12.43-3.05,2.8-5.3,6.06-6.26,10.02-1.22,5-1.95,10.14-2.96,15.2-1.96,9.79-3.77,19.64-7.49,28.88-1.23,3.05-3.47,5.66-5.2,8.5-2.7,4.44-5.36,8.91-8.04,13.36-2.2,3.66-2.44,7.8-2.37,11.99.08,4.73-1.65,8.85-3.96,12.7-1.64,2.74-3.74,5.2-5.54,7.85-6.01,8.88-14.79,14.4-24.64,18.32-4.05,1.61-8.59.89-12.69-1.84-3.98-2.66-7.64-5.51-7.53-10.62.06-2.9.13-6.15,1.45-8.53,2.22-3.99,5.4-7.43,8.26-11.04,1.87-2.36,3.83-4.67,5.88-6.89,2.83-3.06,5.88-5.93,8.66-9.04,2.47-2.76,3.47-6.21,3.94-9.9,1.08-8.59,1.91-17.23,3.47-25.71,1.43-7.79,3.26-15.5,6.86-22.63,2.42-4.79,3.97-10.03,6.27-14.89,1.81-3.82,3.78-7.65,6.36-10.96,4.56-5.84,7.55-12.36,9.63-19.44,2.48-8.43,4.86-16.89,7.62-25.22,2.4-7.26,5.21-14.37,7.93-21.51,2.7-7.07,5.08-14.32,8.39-21.08,3.49-7.12,7.46-13.98,13.09-19.83,4.06-4.22,7.27-9.24,11.02-14.14M155.36,366.63c0-1.78-.14-3.58.05-5.33.82-7.62,1.61-15.26,2.71-22.83.39-2.67,1.15-5.47,2.53-7.72,3.88-6.35,11.13-8.65,17.09-12.46,4.49-2.87,9.49-5,13.93-7.93,3.29-2.17,5.9-5.28,9.08-7.63,4.79-3.55,10-6.57,14.68-10.24,7.39-5.79,15.19-11.29,19.86-19.7,2.32-4.17,3.96-8.59,2.22-13.72-1.09-3.22-1.85-6.53-2.82-9.79-.97-3.24-1.82-6.54-3.08-9.69-2.32-5.81-4.87-11.55-7.39-17.3-3.43-7.82-6.81-15.65-10.45-23.39-2.12-4.5-4.95-8.72-7.01-13.24-1.99-4.37-4.4-8.34-7.81-11.83-.63-.65-.93-2.21-.59-2.99.29-.67,1.69-.85,2.62-1.18.36-.13,1,.06,1.15-.15,2.97-4.27,5.94-8.53,8.78-12.89,1.9-2.92,3.4-6.13,5.45-8.94,1.68-2.3,3.91-4.22,5.92-6.28,3.04-3.11,5.89-6.45,9.21-9.25,4.42-3.73,9.67-6.6,13.74-10.63,4.74-4.69,10.03-9.27,11.36-16.45.98-5.27,3.37-10.24,2.49-15.9-.1-.64.56-1.36.87-2.04.7.51,1.57.89,2.04,1.55.47.67.85,1.65.75,2.41-.66,4.96-1,10.03-2.3,14.8-2.69,9.88-9.22,17.12-17.12,23.32-5.64,4.42-12.2,7.96-15.37,14.86-2.72,5.94-5.39,11.91-8.24,17.78-1.98,4.07-3.21,8.01.66,12.01.62.64,1.4,1.13,2.01,1.77,6.86,7.22,13.22,9.01,21.36,4.61,6.37-3.44,12.41-7.46,18.52-11.33,6.35-4.01,12.64-8.11,18.9-12.25,5.76-3.82,11.19-8.06,18.29-9.75,5.3-1.26,10.32-3.46,15.6-4.83,10.07-2.6,17.81-7.99,22.78-16.92,1.53-2.74.4-10.31-2.03-12.41-4.29-3.71-9.09-5.71-14.85-4.93-9.66,1.3-15.93,7.74-22.7,13.39-2.63,2.19-4.59,5.15-7.2,7.38-4.56,3.9-10.37,5.38-16.14,7.07-5.97,1.74-12.11,3.56-17.36,6.62-6.49,3.78-12.14,8.87-18.16,13.38-.94.7-1.9,1.4-2.94,1.94-.5.27-1.21.19-1.83.27-.06-.54-.37-1.23-.15-1.61,1.05-1.84,1.86-4.05,3.46-5.29,5.06-3.94,10.39-7.56,15.69-11.2,2.23-1.53,5.27-2.32,6.83-4.31,2.7-3.44,5.01-7.35,6.62-11.43,2.75-6.98,5.02-14.19,7.15-21.41,2.17-7.36,5.02-14.6,4.79-22.57-.2-6.73-.89-13.44-5.26-19.27-1.82-2.43-3.65-4.69-6.76-6.08-2.76-1.22-4.76-4.12-7.43-5.73-5.83-3.51-11.9-6.59-17.8-9.98-4.59-2.64-8.84-6.01-13.63-8.13-8.2-3.63-14.61-10.19-23.15-13.31-5.54-2.02-10.47-5.83-15.92-8.22-6.7-2.94-13.63-5.69-21.05-4.12-2.48.53-4.84,1.51-7.27,2.23-7.62,2.27-14.1,6.41-20.47,10.84-8.3,5.77-13.74,13.92-19.37,21.93-1.73,2.46-3.72,4.97-4.52,7.81-2.54,8.95-5.11,17.94-6.69,27.12-2.37,13.75,1.87,26.49,10.42,38.02,6.48,8.75,14.09,16.79,18.4,26.86,1.71,3.99,3.62,8.13,4.1,12.29,1.16,9.91,1.7,19.86,4.65,29.59,1,3.31,2.17,6.66,5.14,8.75,4.73,3.34,13.44.55,15.03-4.78,1.11-3.71,1.7-7.59,2.57-11.38,2.44-10.57-1.44-20.15-8.58-27.76-5.56-5.93-9.42-12.27-12.28-19.4-2.72-6.77-4.88-13.73-7.57-20.51-2.98-7.53-6.88-14.64-11.83-21.24-.75-1-.83-3.64-.09-4.28,1.71-1.49,2.76.65,3.37,1.89,1.06,2.14,2.72,2.38,3.98,1.14,3.54-3.45,6.77-7.2,10.13-10.83,2.22-2.4,4.5-4.73,6.63-7.2,2.24-2.59,4.81-5.04,6.37-8.02,2.71-5.17,4.73-10.72,7.14-16.07.32-.71,1.24-1.14,1.89-1.7.37.91,1.13,1.87,1.04,2.7-.18,1.61-.67,3.21-1.31,4.69-2.22,5.14-3.93,10.66-7.01,15.24-3.76,5.59-8.64,10.42-13.14,15.49-3.03,3.41-6.02,6.89-9.48,9.85-1.38,1.18-1.5,1.6-.69,3.07,1.78,3.23,3.6,6.48,4.94,9.88,2.41,6.07,4.24,12.34,6.75,18.38,2.85,6.86,5.33,13.92,10.29,19.85,3.11,3.72,6.53,7.31,9.05,11.38,4.92,7.97,5.82,16.46,4.34,25.41-1.34,8.06-4.15,14.67-11.99,18.19-.34.15-.54.59-.8.89,3.59,1.21,2.73,4.67,3.33,6.94,2.18,8.26,5.03,16.15,9.51,23.62,3.45,5.75,6.09,11.94,9.65,17.61,3.55,5.66,7.77,10.94,11.77,16.34.81,1.09,1.8,1.59,3.44,1.03,4.01-1.37,8.13-2.5,12.31-3.35.98-.2,2.35,1.13,3.54,1.75-.81,1.03-1.42,2.41-2.49,3.02-1.27.72-3.15.46-4.41,1.19-6.2,3.57-12.17,7.5-18.44,10.96-5.49,3.03-9.94,7.39-15.55,10.38-4.27,2.28-7.63,6.48-10.65,10.4-4.62,6.01-8.59,12.52-12.84,18.81-.22.32-.62.61-.65.95-.44,5.24-3.7,8.91-6.81,12.65-1.74,2.09-3.7,4.01-5.36,6.17-2.29,2.99-4.76,5.93-6.49,9.25-2.47,4.74-3.28,10.05-2.63,15.54.55,4.63,1.07,9.27,1.95,13.87,1.08,5.63,5.66,8.99,9.65,12.64,2.15,1.96,4.67,1.74,6.73.38,2.32-1.54,4.89-2.98,5.52-6.16.82-4.18,1.85-8.3,3.13-12.92M73.24,207.64c-.23.32-.56.6-.66.96-2.49,8.7-4.81,17.45-7.47,26.09-1.77,5.74-4.38,11.04-8,15.95-3.08,4.17-5.48,8.93-7.6,13.71-3.6,8.08-7.3,16.18-9.94,24.63-3.31,10.62-5.12,21.67-5.76,32.96-.3,5.28-1,10.56-4.91,14.72-4.51,4.8-8.67,9.91-12.99,14.88-1.1,1.27-2.19,2.56-3.42,3.7-3.86,3.56-6.18,7.68-7.31,13.09-1.57,7.51,7.1,11.56,12.22,10.01,10.47-3.18,18.67-9.22,25.19-17.5,2.28-2.9,4.38-6.06,5.9-9.42,1.28-2.82,1.77-6.06,2.3-9.19.49-2.87-.16-6.17.96-8.68,2.37-5.29,5.61-10.17,8.41-15.26,2.3-4.16,4.74-8.26,6.67-12.59,4.26-9.55,5.43-20.06,7.58-30.25,1.7-8.03,2.83-16.23,8.87-22.38.97-.99,1.91-2.02,2.91-2.99,2.97-2.89,5.97-5.74,8.94-8.63,4.49-4.37,9.02-8.72,13.43-13.17,2.56-2.59,4.88-5.41,7.39-8.06,5.94-6.28,12.07-12.38,17.82-18.81,2.9-3.24,5.13-7.06,7.7-10.6.44-.6.94-1.55,1.51-1.59,2.51-.19,1.39-1.66,1.12-2.9-1.59-7.48-3.33-14.94-4.67-22.45-.8-4.46-.39-9.11-1.54-13.46-2.03-7.66-5.88-14.71-10.67-21.22-1.97-2.68-4.33-5.11-6.61-7.57-.27-.29-1.56-.25-1.74.04-2.2,3.61-4.14,7.38-6.43,10.93-2.39,3.69-5.08,7.19-7.64,10.77-4.65,6.5-9.86,12.68-13.79,19.61-3.77,6.64-6,14.15-9.31,21.08-3.54,7.42-5.73,15.31-8.46,23.62Z"/>
      <path class="cls-1" d="M207.22,95.86c-1.55,4.56-3.17,8.91-4.73,13.28-1.14,3.2-4.76,4.93-8.24,3.66-5.5-2-8.11-4.04-8.78-8.99-.06-.44.1-.9.15-1.36.44.2.99.29,1.3.6,1.43,1.43,2.64,3.15,4.23,4.36,3.11,2.35,7.37.93,8.78-2.54,2.47-6.05,4.37-12.32,7.94-17.92,1.88-2.94,2.03-6.94,3.41-10.26,1.78-4.28,4.7-7.55,9.67-8.61,3.22-.69,6.12.42,8.84,1.9,4.77,2.6,8.35,6.28,9.63,11.67.24,1.02.88,2,.97,3.01.47,4.92-2.18,7.28-7.28,6.12-1.38-.31-3.02-1.78-3.63-3.09-1.27-2.71-.52-5.34,1.63-7.27,2.12-1.9,2.11-3.71-.29-5.48-4.49-3.33-9.07-4.03-12.26-1.31-3.02,2.58-5.17,5.91-5.98,9.95-.89,4.45-2.4,8.61-5.36,12.28Z"/>
      <path class="cls-1" d="M163.88,113.76c-3.12-2.23-6.12-4.14-8.78-6.43-.72-.62-.44-2.38-.63-3.62,1.07.54,2.2.98,3.21,1.63,2.73,1.75,5.32,3.74,8.13,5.34,5.2,2.97,10.85,5.26,15.7,8.69,6.77,4.79,13.87,8.57,21.69,11.02,1.44.45,3.14.43,4.32,1.22,1.13.76,2.51,2.42,2.4,3.47-.2,1.87-1.84,1.22-3.34.65-5.16-1.92-10.45-3.48-15.55-5.54-2.55-1.03-4.79-2.87-7.18-4.32-6.56-3.99-13.13-7.96-19.95-12.12Z"/>
      <path class="cls-1" d="M181.24,53.65c-.92-2.24.3-3.04,1.94-3.46,4.19-1.06,8.4-.61,12.46,1.08,3.74,1.56,8.83,9.76,8.43,13.61-.26,2.56-1.38,4.28-6.09,4.69-2.49.22-4.06-1.17-5.05-2.96-1.2-2.19.18-5.58,2.38-6.97,2.53-1.6,2.54-2.65-.36-3.81-3.34-1.34-6.75-2.79-10.43-1.22-.8.34-2.15-.47-3.29-.95Z"/>
      <path class="cls-1" d="M177.42,125.6c1.94,1.39,3.73,2.49,5.26,3.87.43.39.09,1.59.11,2.43-.63-.08-1.34.01-1.87-.26-2.61-1.31-5.25-2.59-7.71-4.15-.71-.45-.87-1.76-1.28-2.68,1.04-.06,2.09-.24,3.13-.15.72.06,1.42.5,2.38.94Z"/>
      <path class="cls-1" d="M13.83,374.88c.25.39.29.82.33,1.24-.18-.04-.4-.03-.53-.14-.95-.79-1.88-1.6-2.82-2.4.94.44,1.87.88,3.02,1.3Z"/>
    </g>
  </g>
</svg>