<?xml version="1.0" encoding="UTF-8"?>
<svg id="Layer_2" xmlns="http://www.w3.org/2000/svg" viewBox="0 0 280.22 274.39">
  <g id="Layer_3">
    <g id="vogel2">
      <path d="M255.49,166.72c-2.71,1.21-5.31,2.06-7.53,3.49-.77.5-.93,2.5-.8,3.75.99,9.14,2.95,18.35-.87,27.24-1.94,4.51-4.82,8.6-6.92,13.04-5.47,11.54-14.39,20.38-22.55,29.87-1.2,1.4-1.47,4.3-1.04,6.26.87,3.93,2.75,7.64,3.77,11.55.66,2.53,1.5,5.72.54,7.82-1.76,3.83-5.79,5.04-9.96,4.55-6.87-.8-13.79-1.45-20.53-2.88-4.04-.86-8.55-2.25-11.44-4.92-3.06-2.82-4.32-7.42-3.54-12.11.47-2.82-2.34-5.48-5.51-5.67-1.16-.07-2.37.07-3.46-.24-6.37-1.81-9.42.06-12.73,5.88-2.61,4.59-6.18,8.74-9.85,12.59-3.13,3.28-11.31,3.28-15.31,1.14-3.04-1.63-6.35-2.75-9.59-3.97-8.63-3.26-16.8-6.86-22.05-15.32-2.61-4.21-3.33-7.99-1.42-12.24,4.01-8.97,2.48-13.19-5.36-19.48-12.09-9.69-26.2-16.13-38.76-24.95-10.18-7.15-20.38-14.27-29.45-23.04-8.01-7.74-14.42-16.29-19.52-26.05-1.55-2.96-2.39-6.25-.5-8.64,2.2-2.78,4.8-5.03,9.6-4.87,6.23.2,12.83-1.18,18.74-3.34,9.2-3.36,18.16-7.53,26.81-12.14,6.52-3.47,12.38-8.16,18.56-12.27,5.09-3.39,10.16-6.81,15.34-10.07,7.61-4.79,15.24-9.56,23.01-14.1,3.58-2.09,7.44-3.78,11.3-5.32,4.56-1.83,5-2.69,4.57-8.16-.65-8.37-1.2-16.76-1.34-25.14-.06-3.36.71-6.86,1.73-10.1,2.66-8.42,5.59-16.76,8.55-25.08,1.57-4.41,4.23-5.02,7.74-1.64,6.16,5.93,11.98,12.22,18.23,18.05,9.78,9.13,19.96,17.71,31.22,25.12,5.61,3.69,10.77,7.54,17.36,9.56,10.83,3.32,20.52.85,28.73-5.8,7.08-5.73,13.07-12.87,19.16-19.72,4.2-4.73,13.37-4.38,15.91,1.56,2.04,4.79,3.57,10.12,3.85,15.28.46,8.62-2.35,16.6-7.54,23.64-4.99,6.77-10.43,13.28-14.66,20.49-2.79,4.75-4.08,10.47-5.45,15.9-.4,1.57.92,3.84,1.97,5.46,7.14,11.04,14.2,22.1,17.83,34.94,1.63,5.76-.31,10.59-5.35,13.37-3.79,2.09-7.47,4.36-11.46,6.69M135.69,88.08c-.45,2.85-.88,5.7-1.34,8.54-.34,2.08-.35,4.3-1.14,6.19-1.04,2.52-2.88,4.8-6.09,3.28-2.7-1.28-3.56-3.16-1.69-6.23,1.17-1.93,1.2-4.6,1.58-6.96.6-3.74,1.06-7.5,1.61-11.25.16-1.09.43-2.17.65-3.26-1.24.17-2.66,0-3.69.57-6.1,3.3-12.15,6.7-18.14,10.2-5.69,3.33-11.29,6.81-16.92,10.24-13.69,8.32-25.3,19.94-40.73,25.54-6,2.18-11.82,4.84-17.69,7.36-.64.27-1.07,1.03-1.6,1.56.65.61,1.27,1.71,1.95,1.76,5.24.34,10.5.61,15.75.62,2.65,0,5.43-.26,6.11,2.9.69,3.22-2.1,4.01-4.45,4.49-10.52,2.15-19.77-2.35-29.13-5.92-2.75-1.05-9.19-1.61-11.5.06-.49.36-1.04.93-1.15,1.49-.63,3.02,4.71,8.54,7.93,8.83,6.34.56,12.69,1.28,18.96,2.38,1.18.21,1.99,2.52,2.98,3.87-1.22.6-2.44,1.73-3.64,1.71-3.87-.07-7.72-.68-11.59-.81-1.18-.04-2.38.8-3.57,1.24.6,1.11,1.01,2.38,1.82,3.3,9.77,11,21.94,18.99,34.1,26.96,13.37,8.77,27.14,17,40.05,26.39,9.32,6.77,10.8,16.61,7.93,26.29-.88,2.97-1.69,5.46-.47,8.29.36.83,1.14,1.49,1.73,2.22.79-.66,1.73-1.22,2.36-2.01,1.58-1.99,2.68-4.58,4.64-5.99,1.34-.96,4.18-1.04,5.67-.24,1.57.84,1.78,2.93-.21,4.64-1.5,1.29-2.38,3.29-3.66,4.87-1.95,2.4-1.85,4.04,1.44,4.89,2,.52,4.08.95,5.89,1.87,3.05,1.55,4.35.9,4.7-2.49.24-2.36.55-4.79,1.39-6.97.41-1.06,2.03-2.02,3.25-2.26.59-.12,2.16,1.53,2.18,2.4.04,2.32-.65,4.65-.82,6.99-.17,2.41-.07,4.84-.09,7.26,2.77-.37,5.58-.58,8.3-1.2,1-.23,2.02-1.28,2.61-2.22,2.48-3.91,5.14-7.76,7.09-11.93,2.36-5.05,4.52-7.2,10.44-6.88,7.24.39,14.46,1.41,21.67,2.29,9.21,1.13,18.13-.32,26.37-4.16,7.5-3.49,13.27-9.49,17.59-16.53,4.72-7.7,9.24-15.56,13.32-23.62,4.32-8.51,2.85-17.28.17-26.04-.59-1.92-.47-5.02.71-6.31,2-2.19,5-3.58,7.76-4.92,2.96-1.44,6.16-2.38,9.19-3.68.89-.38,1.57-1.28,2.34-1.94-1.08-.28-2.22-.92-3.24-.77-5.05.72-10.09,1.52-15.07,2.58-2.3.49-3.17-.56-3.74-2.34-1.06-3.31,2.11-6.55,5.68-6.71,6.6-.29,13.18-.99,19.74-1.81,1.47-.18,3.09-.79,1.98-3.61-3.25-8.34-6.82-16.28-12.83-23.21-3.15-3.64-6.15-8.8-6.29-13.36-.25-8.28,3.35-16.09,7.57-23.31,4.72-8.06,13.25-13.04,17.06-22.08,3.74-8.87,4.85-17.16.13-25.83-1.35-2.48-3.12-1.65-4.29-.44-4.32,4.48-8.28,9.33-12.64,13.78-2.61,2.67-5.66,4.92-8.61,7.23-1.67,1.31-3.59,2.3-5.27,3.59-.16.13.34,1.78.85,2.02,2.63,1.22,5.52,1.94,7.98,3.4.97.58,1.05,2.64,1.54,4.02-1.18.42-2.44,1.32-3.54,1.15-2.29-.36-4.48-1.31-6.72-1.96-7.65-2.21-15.29-4.45-22.97-6.56-4.72-1.29-10.12-1.33-14.14-3.73-7.95-4.74-15.54-10.29-22.58-16.31-10.64-9.09-20.73-18.82-30.94-28.4-2.58-2.42-5.6-1.93-6.76,1.51-.74,2.22-1.17,4.56-2.11,6.69-6.76,15.18-5.1,30.93-3.06,46.64.87,6.67.97,13.16-.66,20.14Z"/>
      <path d="M95.76,141.2c5.15,6.83,12.47,6.82,19.68,7.09.76.03,1.75-.38,2.25-.03,1.44.99,2.68,2.27,4,3.44-1.36,1.35-2.61,3.71-4.1,3.87-7.47.81-14.76-.31-21.18-4.52-1.88-1.23-3.18-3.31-4.89-4.84-.8-.71-1.94-1.04-2.92-1.54-.09,1.24-.66,2.73-.18,3.69,3.23,6.48,6.11,13.25,10.21,19.15,6.12,8.83,19.23,11.2,28.86,6.12,1.95-1.03,3.8-2.36,5.87-2.97,1.2-.35,3.58.09,3.92.85.53,1.17.3,3.75-.54,4.3-3.51,2.31-7.19,4.58-11.13,5.94-6.52,2.24-13.28,2.35-19.88-.12-2.02-.76-2.51.11-2.12,1.86.29,1.27.73,2.53,1.29,3.71,3.39,7.14,7.37,13.87,12.93,19.62,3.07,3.18,6.91,4.78,10.97,4.93,4.65.17,9.53-.2,13.98-1.47,6.19-1.77,11.7-5.06,12.96-12.3.32-1.86.49-3.98-.1-5.69-.93-2.71.98-3.39,2.47-3.66,1.68-.31,2.6.58,3.34,2.81,4.39,13.15-4.86,22.15-15.41,25.8-7.02,2.43-14.39,2.09-21.69,1.26-6.64-.75-10.13-6.04-14.26-10.26-9.34-9.55-12.52-22.38-17.83-34.08-1.31-2.88-2.93-5.64-4.65-8.3-6.46-10.05-7.87-21.37-8.52-32.91-.14-2.54-.67-5.17-.21-7.61.61-3.25,1.86-6.41,3.2-9.45.3-.68,2.75-1.28,3.12-.88,1.1,1.16,2.06,2.77,2.34,4.33.67,3.74.22,7.83,1.53,11.28,1.42,3.74,4.31,6.92,6.7,10.61Z"/>
      <path d="M132.67,110.47c7.6-12.42,19.72-18.98,31.52-25.17,8.8-4.61,19.1-5.95,29.39-3.6,9.26,2.11,17.69,5.76,24.83,12.08,1.63,1.44,3.05,3.25,4.08,5.15.47.86.15,2.92-.54,3.43-.73.54-2.58.26-3.53-.33-2.36-1.47-4.44-3.39-6.71-5.02-15.17-10.88-31.4-10.93-47.56-3.25-7,3.33-12.89,8.98-19.29,13.58-6.08,4.38-6.63,11.11-7.1,17.66-.52,7.31-.17,15.07,4.32,20.89,7.33,9.49,14.48,19.28,26.47,24.19,13.17,5.4,25.71,4.88,38.41-.81,3.26-1.46,6.59-2.78,9.97-3.93,3.36-1.14,5.91.22,6.26,3.48.32,3.02-1.97,4.53-4.45,5.31-5.17,1.61-10.38,3.18-15.66,4.38-8.63,1.96-17.25,4.65-26.24,1.75-6.71-2.17-13.83-3.47-19.28-8.39-7.54-6.82-14.99-13.71-20.53-22.43-7.77-12.2-7.34-25.21-4.36-38.97Z"/>
      <path d="M184.7,107.73c9.93-.04,19.43,1.15,28.63,4.3,6.44,2.21,8.09,7.86,8.74,13.53,1.47,12.78-8.83,17.73-17.91,15.56-4.32-1.03-9.27-1.6-12.57-4.15-3.7-2.86-6.46-7.35-4.43-13.09,1.26-3.55-2.19-3.99-4.02-3.24-3.11,1.29-5.79,3.63-8.67,5.5-1.48.96-2.95,2.4-4.54,2.57-1.25.13-3.55-1.14-3.8-2.18-.41-1.65.03-3.92.93-5.42,4.01-6.66,9.97-10.93,17.63-13.37Z"/>
      <path d="M193.61,202.06c.45-.3.78-.44.83-.64.58-2.37,1.59-4.97,4.41-3.83,2.33.95,3.2,3.69,1.75,6.18-2.05,3.53-4.31,6.95-6.66,10.28-.44.62-1.98,1.06-2.66.76-.84-.37-1.95-1.71-1.81-2.41.54-2.72,1.47-5.38,2.39-8.01.28-.81.99-1.47,1.76-2.33Z"/>
      <path d="M211.9,219.8c-1.59,3.07-3.15,6.01-5.15,8.62-.69.9-2.49.94-3.78,1.37-.43-1.4-1.55-3.08-1.14-4.16,1.04-2.71,2.38-5.53,4.34-7.59,2.03-2.14,4.4-1.53,5.73,1.76Z"/>
      <path d="M224.38,194.06c-.21,2.55-.09,4.75-.46,6.86-.3,1.69-.69,4.5-3.33,3.01-1.44-.81-2.44-3.15-2.77-4.96-.26-1.43.7-3.15,1.34-4.65.44-1.02,1.43-2.74,1.89-2.65,1.23.24,2.31,1.27,3.33,2.38Z"/>
      <path d="M168.1,228.75c-1.22-1.26-3.29-3.46-2.95-3.92,2.06-2.87,4.67-5.36,7.1-7.97.63.95,1.92,2.02,1.77,2.82-.66,3.67-2.24,6.93-5.92,9.07Z"/>
    </g>
  </g>
</svg>