<?xml version="1.0" encoding="UTF-8"?>
<svg id="Layer_2" xmlns="http://www.w3.org/2000/svg" viewBox="0 0 228.49 455.41">
  <g id="Layer_3">
    <g id="lamp">
      <path d="M117.51,188.16c-1.12,5.13-5.24,6.35-9.08,7.75-3.79,1.39-5.51,7.09-2.67,9.89.61.6,2.07.61,3.09.48,2.11-.27,4.2-1.16,6.28-1.12,1.22.02,3.1,1.11,3.45,2.14.41,1.2-.03,3.48-.96,4.2-1.67,1.3-4.05,1.64-5.98,2.66-1.41.75-3.55,1.87-3.65,2.98-.19,2.1,1.94,2.27,3.75,2.18,1.4-.07,2.81-.02,4.22-.01,5.5,0,7.35,2.35,6.04,7.53-.91,3.58-1.69,7.08-.74,10.93.57,2.31.18,5.13-.61,7.44-1.3,3.81,1.19,5.31,3.62,6.34,4.68,1.98,8.3,5.03,10.52,9.45,2.9,5.75,5.71,11.52,6.18,18.23.4,5.72.95,11.64,2.87,16.96,1.16,3.21,4.88,5.63,7.75,8.04,4.84,4.07,10.07,7.67,14.86,11.79,5.64,4.85,11.1,9.94,16.43,15.14,2.69,2.63,4.75,5.9,7.42,8.56,7.21,7.19,13.76,14.9,19.45,23.37,4.17,6.2,8.54,12.26,12.9,18.34,1.03,1.44,2.45,2.6,3.53,4.01,3.62,4.72,2.97,8.9-1.87,12.24-7.97,5.51-17.02,8.46-26.2,11.14-5.48,1.6-10.78,3.81-16.27,5.32-6.92,1.9-13.95,3.46-20.97,4.98-2.74.59-4.21,2.5-4.45,6.08-.49,7.18-2.01,13.96-6.17,20.17-2.3,3.43-5.81,4.35-8.88,6.12-2.54,1.46-5.65,2.11-8.6,2.65-3.77.7-7.69,1.56-11.44,1.21-5.12-.48-10.16-1.95-15.2-3.15-2.93-.7-5.76-1.78-8.68-2.52-5.44-1.37-7.45-5.57-8.45-10.39-1.27-6.11-2.13-12.3-3.38-18.41-.19-.91-1.49-2.14-2.42-2.28-5.65-.83-11.38-1.17-17.01-2.09-8.06-1.31-16.13-2.68-24.06-4.58-7.31-1.75-14.56-3.92-21.62-6.51-4.67-1.71-8.94-4.49-13.4-6.78-1.07-.55-2.14-1.12-3.26-1.53-4.15-1.51-5.15-5.4-2.04-8.55,5.83-5.92,11.95-11.56,17.55-17.68,7.02-7.67,13.58-15.75,20.45-23.55,3.53-4.01,7.53-7.61,10.94-11.72,8.35-10.05,17.84-19.12,25.17-30.07,2.8-4.19,2.36-8.39,1.14-12.17-1.65-5.11-1.13-9.83.3-14.54,1.57-5.15,3.31-10.36,5.89-15.05,2.79-5.08,7.68-8.38,12.82-11,3.17-1.61,4.44-4.35,3.93-9.06-.32-2.93-.53-5.87-.65-8.81-.17-4.03-.18-8.06-2.27-11.72-1.08-1.9.44-2.53,1.75-3.25,3.71-2.06,4.71-6.58,2.46-10.08-2.22-3.45-3.15-7.03-2.1-11.33.75-3.1-.03-6.54.19-9.8.32-4.89.97-9.77,1.35-14.66.09-1.16.08-2.83-.62-3.47-2.75-2.52-2.53-5.41-1.18-8.22,1.6-3.33,1.47-6.28-.15-9.57-.78-1.58-.51-3.67-.75-5.52-.15-1.16.02-2.58-.59-3.42-3.92-5.38-2.9-11.25-1.87-17.1.27-1.54,1.53-2.92,1.7-4.45.25-2.23-.09-4.52-.15-6.79-.08-2.99-.12-5.98-.23-8.97-.07-1.76.28-3.8-.48-5.22-2.67-4.91-1.75-9.23,1.53-13.28,1.37-1.69,1.6-3.04.11-4.75-1.25-1.45-2.06-3.12-.78-5.07.2-.31.14-.83.11-1.24-.42-5.44-.69-10.91-1.41-16.31-.17-1.31-1.59-2.91-2.85-3.53-7.47-3.69-13.53-8.87-17.33-16.29-1.35-2.63-1.98-5.76-2.32-8.73-.39-3.34,0-6.77-.11-10.16-.12-3.73-.42-7.46-.62-11.2-.41-7.46,4.46-11.25,12.13-10.15,4.57.65,9.3.17,13.96.18.51,0,1.03-.16,1.54-.17C109.58.41,118.79.16,128,0c4.03-.07,7.48,3.54,7.73,7.48.21,3.4,1.31,6.8,1.15,10.16-.33,7.02-.61,14.15-2.1,20.97-1.29,5.9-5.39,10.54-10.59,13.93-2.3,1.5-4.64,2.95-6.85,4.58-.77.57-1.65,1.57-1.69,2.42-.18,3.78-.08,7.56-.08,11.35s.17,7.66-.14,11.45c-.06.74-1.94,1.81-3.05,1.91-4.28.38-11.57,7.38-11.73,11.59-.08,2.11,1.37,2.82,3.7,2.03,2.19-.74,4.43-1.48,6.71-1.74,1-.11,2.72.74,3.04,1.57.31.81-.44,2.56-1.26,3.17-1.66,1.24-3.61,2.48-5.59,2.82-2.98.51-4.23,2.5-4.97,4.8-.4,1.26.07,3.05.74,4.27.25.45,2.22-.05,3.4-.13,1.93-.13,4.09-.88,5.74-.26,3.38,1.27,3.6,3.9.72,6.04-1.16.86-2.77,1.53-4.18,1.54-3.86.02-6,2.1-6.68,5.49-.76,3.76-.99,7.62-1.32,11.45-.05.6.55,1.26.86,1.89.6-.34,1.36-.54,1.77-1.03,2.37-2.83,5.55-3.57,8.97-3.37,1.11.06,2.7.73,3.09,1.58.4.85-.04,2.64-.76,3.37-1.73,1.75-3.82,3.17-5.82,4.64-.97.71-2.1,1.2-3.11,1.86-1.6,1.05-2.64,2.94-1.58,4.29.76.97,3.03.87,4.65,1.01,1.15.1,2.6-.7,3.45-.23,1.33.73,2.27,2.18,3.37,3.33-1.61,1.36-3.01,3.25-4.86,3.96-2.85,1.1-5.59,1.69-6.23,5.39-.48,2.75.45,4.15,3.11,3.83,2.5-.3,5.01-.59,7.51-.63,2.65-.05,3.69,1.98,2.42,4.39-1.59,3.02-4.39,3.9-7.49,3.97-1.77.04-3.55-.11-3.92,2.09-.38,2.3-.5,4.65-.56,6.98,0,.22,1.22.64,1.89.67,1.94.09,3.99-.34,5.81.15,1.56.42,2.86,1.83,4.27,3.13M174.94,330.91c-5.17-4.74-10.34-9.48-15.52-14.22-.3-.27-.68-.46-1-.71-4.34-3.36-8.74-6.64-12.99-10.11-2.09-1.7-4.08-1.95-6.57-.96-4.18,1.66-8.36,3.87-12.72,4.41-8.22,1.03-16.57,1.44-24.85,1.32-5.17-.07-10.42-1.19-15.43-2.6-2.96-.83-4.63.13-5.93,2.12-5.6,8.58-12.3,16.26-19.09,23.86-4.74,5.31-9.72,10.42-14.41,15.78-4.26,4.87-8.06,10.17-12.46,14.91-7.69,8.26-15.7,16.23-23.57,24.32-.41.42-.74.91-1.1,1.37.64.28,1.29.81,1.92.79,2.62-.11,5.24-.66,7.84-.55,6.21.26,12.4.9,18.6,1.22,9.98.51,19.96,1.06,29.95,1.27,10.2.22,20.4.05,30.6.05s21.19.06,31.79-.03c4.45-.04,8.91-.27,13.35-.65,8.95-.77,17.87-1.84,26.83-2.52,6.16-.47,12.36-.48,18.54-.7.22,0,.43.02.65,0,8.4-.86,16.79-1.79,25.2-2.56,2.94-.27,3.72-1.24,2.19-3.61-2.54-3.93-5.1-7.86-7.8-11.69-10.11-14.34-21.57-27.56-34.02-40.54M87.67,267.64c-.61,1.48-1.29,2.93-1.82,4.43-2.95,8.27-3.37,16.72-1.35,25.22.5,2.1.6,4.78,3.42,5.65,6.72,2.05,13.61,2.82,20.61,2.64,3.37-.09,6.74-.4,10.1-.63,5.93-.41,11.58-1.97,16.88-4.62.97-.48,1.93-1.93,2.04-3.01.81-8.2-1.7-16.03-3.3-23.9-1.31-6.43-4.66-12.13-10.21-16.09-4.26-3.04-9.09-3.19-14.04-2.35-1.52.26-3.06.65-4.59.62-8.57-.16-12.69,6.2-17.74,12.04M130.49,12.14c-1.34-5.6.24-6.4-6.5-6.18-2.91.1-5.83.02-8.74.02h-28.61c-1.94,0-3.98-.35-5.8.11-1.4.35-2.92.87-2.45,3.62.61,3.66-.58,7.58-.35,11.35.27,4.61,1.5,9.17,1.79,13.78.44,7.21,9.27,16.48,17.17,17.75,3.72.6,7.64-.15,11.42.16,6.14.51,10.64-2.55,14.94-6.22,5.67-4.84,7.71-11.31,7.75-18.46.03-5.09-.38-10.18-.6-15.93M94.8,433.1c.43,1.87,1.12,3.73,1.24,5.62.16,2.67,1.59,4.18,3.83,5.05,2.05.8,4.18,1.42,6.32,1.96,5.64,1.43,11.06,4.06,17.13,3.26,3.17-.42,6.38-.66,9.5-1.33,7.47-1.61,13.47-5.26,15.61-13.11.91-3.36.57-7.09,1.68-10.34.99-2.89-.02-3.16-2.25-3.1-10.38.26-20.66-.75-30.97-1.81-6.99-.72-14.11-.25-21.16,0-.99.03-2.76,1.88-2.71,2.82.17,3.57.93,7.12,1.8,11M179.8,407.8c2.05-.53,4.14-.94,6.14-1.63,4.82-1.66,9.59-3.45,14.38-5.19,5.73-2.08,11.48-4.12,17.17-6.29.72-.28,1.17-1.29,1.74-1.97-.95-.24-1.94-.76-2.86-.67-2.55.25-5.07.86-7.62,1.12-3.25.33-6.54.31-9.77.71-6.03.75-12.02,2.01-18.06,2.47-5.66.43-11.4-.16-17.06.23-1.88.13-4.57,1.48-5.26,3.01-1.18,2.62-1.35,5.81-1.43,8.77-.09,3.42,2.01,4.71,5.22,3.89,5.68-1.45,11.39-2.77,17.42-4.47M83.77,401.31c-1.31-.76-2.54-1.94-3.94-2.18-2.89-.51-5.86-.63-8.8-.72-8.67-.27-17.34-.49-26.01-.63-1.64-.03-3.31.7-4.92.56-6.23-.52-12.44-1.28-18.67-1.85-.74-.07-1.53.44-2.29.68.54.63,1.02,1.33,1.65,1.85.44.36,1.09.5,1.66.67,6.24,1.92,12.45,3.93,18.72,5.7,3.9,1.1,7.87,1.95,11.85,2.71,4.33.83,8.7,1.53,13.07,2.12,5.15.69,10.31,1.3,15.49,1.69.67.05,1.99-1.35,2.08-2.17.27-2.57.1-5.18.1-8.42M90.59,410.72c1.15,1.65,2.73,1.94,4.7,2.01,8.25.28,16.49.9,24.74,1.21,8.98.33,17.96.57,26.95.54,1.22,0,3.21-1.6,3.48-2.78.69-2.93.69-6.05.75-9.09.02-1.16-.56-2.34-.86-3.51-1.04.57-2.11,1.1-3.12,1.72-3.97,2.42-7.64,5.83-11.94,7.09-7.79,2.28-16,3.46-24.18,2.09-4.86-.81-9.85-1.75-14.33-3.68-6.67-2.87-6.5-3.26-6.18,4.4M104.86,225.79c.09,2.25.14,4.5.26,6.75.22,4.15.5,8.29.7,12.44.09,1.95-.34,4.25,2.29,4.79,4.06.83,6.64-1.37,6.09-5.48-.73-5.41,1.09-10.5,1.31-15.77.05-1.28-.5-3.7-.77-3.7-3.19,0-6.38.37-9.89.97M122.38,399.69c-6.76-.22-13.51-.49-20.27-.61-1.51-.03-3.02.49-4.53.76,1.38.82,2.68,1.9,4.17,2.4,5.98,2.01,12.08,3.12,18.42,2,5.04-.89,10.1-1.67,15.13-2.66.81-.16,1.45-1.13,2.17-1.73-1.1-.48-2.22-1.43-3.29-1.37-3.72.22-7.43.78-11.79,1.21M102.59,61.95c.22,4.45.53,8.9.61,13.35.04,2.37.48,4.01,3.31,3.85,2.53-.14,3.86-1.39,3.87-3.96,0-4.65-.06-9.3.03-13.95.04-2.36-.76-3.56-3.29-3.55-2.57,0-4.87.06-4.52,4.25M107.78,189.13c.19.76.38,1.51.57,2.27,1.07-.5,2.14-1,3.2-1.5-.72-.36-1.43-.79-2.18-1.07-.37-.14-.84-.02-1.59.3Z"/>
    </g>
  </g>
</svg>