<?xml version="1.0" encoding="UTF-8"?>
<svg id="Layer_2" xmlns="http://www.w3.org/2000/svg" viewBox="0 0 468.17 295.7">
  <g id="Layer_3">
    <g id="grotesque">
      <path d="M345.45,99.59c11.65,1.04,22.75-1.32,33.94-2.95,3.55-.52,7.21-.35,10.81-.5,1.49-.06,3.07.16,4.44-.28,5.41-1.77,6.26-3,6.48-8.79.36-9.14,1.52-18.34.83-27.4-1.04-13.64-6.33-25.98-17-34.92-7.9-6.62-17.22-11.41-27.77-12.05-8.67-.53-16.83,1.63-23.9,7.33-7.19,5.8-15,10.84-23.83,13.7-4.96,1.61-10.33,1.94-15.52,2.8-.61.1-1.28-.1-1.91-.2-4.84-.77-5.3-5.37-7.02-8.61-.63-1.19.3-4.12,1.48-5.13,1.34-1.15,3.74-1.31,5.71-1.4,2.2-.11,4.43.28,6.64.58.36.05.64.71.95,1.09-.48.08-.96.19-1.45.24-3.18.34-6.37.56-9.53,1.05-.95.15-2.54,1.01-2.53,1.52.03,1.25.48,2.86,1.36,3.64,4.39,3.86,9.32,2.04,14.26,1.18,9.78-1.71,15.28-9.34,21.84-15.44,12.53-11.63,26.96-17.74,44.04-13.84,10.75,2.45,19.76,8.46,27.93,16.23,6.96,6.62,12.57,13.9,16.27,22.54,2.74,6.4,5.57,13.12,6.33,19.92,1.2,10.76,1.62,21.76-1.19,32.5-1.09,4.16-1.08,3.75,2.97,4.03,4.72.33,9.58.89,14.03,2.37,8.13,2.71,16.47,5.38,22.92,11.46,10.33,9.75,14.02,19.93,8.74,34.31-3.23,8.81-7.8,17.01-13.95,24.11-5.91,6.82-11.93,13.61-20.51,17.43-3.29,1.46-6.09,4.06-9.41,5.46-8.26,3.48-16.8,4.55-25.41,1.22-2.12-.82-4.32-1.9-5.97-3.41-4.69-4.3-9.81-8.41-13.42-13.53-2.44-3.45-2.91-8.44-3.7-12.84-.5-2.77-.27-5.77.17-8.58,1.45-9.13,6.29-16.52,12.49-23.13.53-.56.77-1.39,1.15-2.09-.7-.16-1.45-.56-2.1-.43-5.51,1.09-11.12,1.9-16.48,3.51-8.11,2.43-16.1,5.32-24.06,8.23-6.28,2.29-12.48,4.82-18.64,7.42-2.56,1.08-4.96,2.55-7.36,3.96-1.12.66-2.12,1.48-.21,2.64,1.16.7,2.02,1.88,3.11,2.72,7.98,6.15,15.61,12.61,21.12,21.25,3.08,4.82,7.72,8.97,9.6,14.17,2.67,7.38,7.95,14.29,5.89,23.08-.43,1.84.85,4.3,1.84,6.22,1.71,3.31,3.83,6.42,5.73,9.63,3.15,5.31,6.29,10.63,9.37,15.98.36.62.61,1.55.42,2.19-.56,1.82-1.02,4.71-2.16,5.06-1.96.6-4.83.24-6.59-.87-4.88-3.08-7.42-8.3-10.36-13.08-.54-.87-.68-2.02-1.31-2.79-.59-.72-1.58-1.1-2.39-1.64-.19.77-.49,1.54-.56,2.33-.7,7.42-.51,15-3.44,22.03-2.07,4.97-6.71,5.63-10.04,1.88-1.41-1.59-1.36-4.77-1.37-7.23-.02-5.84.32-11.69.47-17.53.01-.42-.43-.86-.67-1.29-.82.45-1.96.69-2.41,1.38-2.5,3.81-4.6,7.91-7.29,11.58-2.57,3.5-5.45,6.87-8.68,9.74-2.01,1.79-5.21,1.37-7.12-.39-1.25-1.15-1.88-3.65-1.75-5.48.4-5.61,3.8-9.93,7.03-14.27,3.39-4.55,6.84-9.07,10.04-13.76,2.27-3.33,4.11-6.94,6.22-10.39,2.09-3.42,1.94-5.92-.55-8.99-2.1-2.58-4.09-5.24-6.18-7.83-2.71-3.37-6.83-3.95-10.58-5.26-5.83-2.03-11.64-4.09-15.94-8.89-1.92-2.14-5.01-2.16-7.77-.31-9.38,6.3-19.37,11.57-30,15.26-7.36,2.55-15.13,3.99-22.79,5.56-6.13,1.26-6.87,2.01-4.56,7.68,1.08,2.67,3.01,5.02,3.99,7.72,1.4,3.86.74,7.78-1.04,11.46-4.64,9.61-12.32,16.7-20.3,23.32-6.22,5.16-13.19,9.43-19.83,14.09-.27.19-.68.27-.83.52-.5.78-.9,1.62-1.35,2.43,1.06-.12,2.37.11,3.14-.43,5.21-3.65,10.22-7.58,15.48-11.15,2.06-1.4,4.51-2.39,6.93-3.03,2.69-.71,2.79,1.64,2.71,3.35-.07,1.51-.65,3.03-1.17,4.48-2.67,7.4-5.44,14.76-8.06,22.17-.32.9.05,2.04.1,3.06.67-.65,1.62-1.18,1.98-1.98,3.38-7.54,6.73-15.09,9.92-22.71,1.02-2.43,2.52-4.46,5.09-3.91,1.71.37,3.65,2.08,4.48,3.7,1.68,3.27,2.4,7.02,4,10.34,2.41,5.02,5.21,9.85,7.93,14.72.25.44,1.11.54,1.68.8.25-.67.89-1.51.69-1.97-1.39-3.13-3.08-6.14-4.43-9.28-2.69-6.25-5.52-12.47-7.73-18.89-1.72-5.01,1.55-9.12,3.9-13.18,1.78-3.08,3.77-6.06,5.85-8.94,4.71-6.52,5.51-13.99,5.59-21.68.04-3.72.23-7.44.42-11.16.13-2.69,2.09-4.37,4.13-3.49.56.24,1.22,1.17,1.19,1.76-.45,11.1.46,22.46-4.52,32.86-1.79,3.74-4.69,6.94-7.03,10.42-3.77,5.61-6.32,11.73-3.59,18.35,2.47,5.98,5.86,11.58,8.95,17.29,1.7,3.15,2.24,6.49,1.32,9.82-.83,2.99-6.36,3.56-8.69.64-5-6.27-9.12-13.11-10.98-21.07-.07-.32-.12-.68-.29-.94-.88-1.37-1.8-2.72-2.7-4.08-.76,1.26-1.66,2.46-2.26,3.8-2.86,6.26-5.47,12.64-8.49,18.82-1.94,3.96-6.44,6.43-9.4,3.92-1.36-1.15-2.77-3.66-2.42-5.13,1.33-5.56,3.35-10.96,5.18-16.39.72-2.14,1.68-4.19,2.42-6.33.3-.88.31-1.86.45-2.79-.95.33-2.08.42-2.82,1.02-3.48,2.82-6.74,5.92-10.28,8.65-2.79,2.16-5.65,4.54-9.72,2.9-4.5-1.81-5.18-4.27-1.77-8.05,1.63-1.81,3.53-3.54,5.65-4.7,8.14-4.44,14.4-11.19,21.43-16.99,6.22-5.14,11.14-11.25,13.83-18.94.96-2.74,1.47-5.21-.73-8.18-2.02-2.73-2.93-6.54-3.5-10.01-.37-2.26-1.54-2.49-3.02-2.62-6.91-.58-14.07-.09-20.67-1.81-8.29-2.16-15.98-6.21-23.45-10.74-5.16-3.14-9.47-6.79-12.74-11.61-2.1-3.09-4.4-6.77-4.54-10.27-.15-3.6-2.02-5.2-4.02-7.08-7.57-7.1-14.27-14.83-18.46-24.47-1.16-2.67-2.28-5.36-3.52-8-3.28-6.99-6-14.34-10.05-20.85-6.45-10.37-12.53-21.21-22.86-28.56-5.13-3.65-10.93-5.43-17.05-6.14-6.46-.76-12.98-1.57-19.46-1.49-5.4.07-11.16-.88-16.18,2.05-5.4,3.15-10.16,7.08-14.69,11.49-4.28,4.17-9.13,8.13-14.43,10.79-8.4,4.21-17.09.46-21.75-6.03-2.73-3.8-2.83-8.83-1.41-13.56,1.97-6.59,6.53-11.14,11.83-15.14,3.25-2.46,6.6-4.83,9.51-7.66,1.1-1.06,1.66-3.35,1.46-4.96-1.41-11.46,2.64-21.54,7.11-31.69,2.43-5.52,6.49-8.61,11.69-10.93,3.69-1.65,7.15-3.83,10.86-5.42,10.2-4.38,19.65-2.13,28.62,3.6,7.74,4.94,12.81,12.43,18.61,19.26,7.03,8.28,14.14,16.52,21.67,24.34,7.95,8.25,16.17,16.29,24.79,23.83,5.7,4.99,12.26,9.04,18.57,13.31,1.29.87,2.89,1.29,4.27-1.05,1.11-1.88,3.66-2.9,5.56-4.32,5-3.76,11.06-4.57,16.87-6.1.86-.23,1.71-.54,2.53-.9,11.05-4.88,22.65-7.87,34.54-9.68,7.48-1.14,15.02-2.02,22.57-2.4,3.9-.2,7.86,1.12,11.82,1.43,10.62.85,20.63,4.04,30.39,7.98,5.46,2.21,11.75,4.85,13.09,10.93,1.69,7.67,7.24,9.72,13.04,11.04,8.17,1.86,16.61,2.49,25.16,3.74M149.82,144.09c1.15,2.02,2.03,4.27,3.5,6.02,8.93,10.69,19.21,19.81,31.54,26.43,1.13.61,3.26.97,4.03.34,4.27-3.5,8.49-7.09,9.51-13.09.79-4.63,2.28-9.14,2.95-13.78.87-6.02,1.51-12.11,1.74-18.19.21-5.55-2.89-10.39-4.22-15.58-1.2-4.69-4.05-7.48-7.27-10.24-5.47-4.7-12.05-6.88-19.01-8.65-11.88-3.02-21.35-10.76-30.49-18.3-8.64-7.13-15.86-15.96-23.99-23.73-9.93-9.48-17.88-20.63-26.85-30.9-3.69-4.23-7.41-8.76-12.02-11.79-8.68-5.7-18.24-7.78-28.17-2.57-2.16,1.13-4.24,2.43-6.42,3.54-3.55,1.8-6.77,4.05-8.56,7.66-4.58,9.24-8.21,18.6-7.48,29.39.71,10.44,6.59,18.5,16.82,19.62,5.61.62,11.26.8,16.9,1.08,8.29.42,16.59.67,24.87,1.18,6.51.4,12.76,1.67,18.56,5.05,6.95,4.04,12.7,9.11,16.86,16.05,4.78,7.99,10.24,15.6,14.62,23.79,4.01,7.51,6.96,15.59,10.44,23.4.43.96,1.24,1.76,2.15,3.26M349.08,5.21c-.43-.06-.93-.31-1.27-.16-4.9,2.1-10.04,3.79-14.56,6.53-3.67,2.22-6.58,5.69-9.78,8.65-.35.32-.41.95-.6,1.44.53-.13,1.1-.18,1.57-.42.56-.29,1.03-.76,1.55-1.15,2.66-2.01,5.16-4.29,8.02-5.97,12.84-7.53,26.29-7.16,39.36-1.31,6.87,3.08,13.8,6.83,18.49,13.29,1.4,1.92,2.73,3.89,4.15,5.8,4.44,5.98,7.16,12.63,8.73,19.94,1.81,8.48,1.51,16.93,1.25,25.48-.33,10.68-1.84,21-6.5,30.72-1.14,2.38-2.34,4.83-2.84,7.39-1.79,9.2-5.84,17.17-11.48,24.63-4.98,6.59-8.77,13.94-7.6,22.71.51,3.82.99,7.49,3.33,11.01,3.52,5.3,8.78,8.46,13.45,12.24,4.7,3.81,10.63,4.84,16.79,3.55,5.21-1.09,9.9-3.27,14.74-5.47,9.75-4.43,16.78-11.88,23.49-19.5,5.84-6.63,10.08-14.61,13.37-22.94,3.38-8.57,1.96-16.35-3.83-23.4-7.07-8.61-16.74-12.81-27.19-15.2-4.61-1.06-9.56-.53-14.32-1.1-2.69-.32-4.32.36-5.21,2.89-1.65,4.71-3.26,9.44-5.02,14.11-.79,2.12-.21,2.64,1.9,2.24,3.37-.63,6.75-1.4,10.16-1.65,11.06-.82,24.47,6.06,27.13,20.74,2,11.01-4.11,24.42-14.03,29.44-9.59,4.85-19.46,8.6-30.43,7.19-2.85-.37-6.1-1.36-8.19-3.18-4.56-3.96-8.38-15.62-5-22.26,2.99-5.88,6.04-11.76,8.49-17.87,2.69-6.7,4.67-13.68,7.07-20.49,3.86-10.95,9.17-21.33,10.07-33.32.6-8.01.8-15.94-1.32-23.52-2.11-7.54-5.4-14.81-8.79-21.9-1.88-3.93-4.55-7.78-7.72-10.75-6.71-6.28-13.73-12.01-22.5-15.81-8.12-3.52-15.91-4.56-24.97-2.64M295.95,176.05c1.99,1.12,4.49,1.82,5.86,3.45,4.91,5.82,11.59,8.56,18.44,10.58,4.74,1.4,8.7,3.19,11.58,7.29,2.4,3.43,5.67,6.39,7.41,10.1,1.83,3.9-.34,7.52-2.71,11.08-5.79,8.69-10.78,17.88-17.64,25.9-2.03,2.37-2.71,5.91-3.9,8.96-.15.37.26,1.28.63,1.44.38.17,1.2-.12,1.52-.48,1.41-1.59,2.83-3.2,4.04-4.94,4.23-6.1,8.24-12.36,12.66-18.32,1.02-1.38,3.31-2.39,5.06-2.44.99-.03,2.73,2.13,2.94,3.48.55,3.65.57,7.4.6,11.12.03,4.67-.21,9.34-.14,14.01.01.81.99,1.6,1.52,2.4.34-.7.91-1.37.99-2.1.83-7.44,1.63-14.88,2.33-22.34.21-2.29.97-4.45,3.29-4.6,1.93-.13,4.53.45,5.78,1.74,2.16,2.23,3.39,5.33,5.2,7.93,2.28,3.26,4.71,6.41,7.21,9.5.46.56,1.55.62,2.34.9-.04-.85.21-1.87-.17-2.51-1.16-1.94-2.59-3.72-3.88-5.59-3.5-5.09-7.27-10.03-10.38-15.35-2.29-3.91-5.38-7.86-3.59-13.04,1.24-3.6.14-6.88-1.4-10.17-2.93-6.24-5.38-12.65-10.06-18.02-4.16-4.78-6.73-11.17-11.4-15.24-9.72-8.47-20.18-16.15-30.72-23.61-5.34-3.77-11.88-3.76-17.71-.89-9.12,4.48-12.77,16.69-7.02,25.05,2.6,3.77,8.04,5.87,12.61,4.86,2.65-.58,5.5-.25,8.71-.15M390.07,101.31c-2.65.03-5.33-.17-7.95.15-4.36.53-8.67,1.44-13.02,2.12-9.31,1.45-18.63,1.28-28.01.68-6.26-.4-12.31-2.67-18.85-1.43-2.23.42-5.04-2.35-7.63-3.59-.62-.3-1.39-.29-2.08-.42-.08.64-.38,1.34-.21,1.91,1.14,3.92,2.5,7.78,3.56,11.73,1.22,4.51,2.75,9.03,3.14,13.63.49,5.68-.08,11.45-.12,17.19,0,.73.32,1.53.71,2.17.11.19,1.01.1,1.43-.11,2.82-1.39,5.56-2.95,8.42-4.25,5.79-2.63,11.52-5.46,17.49-7.59,7.58-2.71,15.3-5.09,23.09-7.1,5.49-1.42,11.16-2.27,16.81-2.82,2.67-.26,3.65-1.57,4.31-3.61,1.38-4.25,2.68-8.53,3.97-12.81.54-1.78.98-3.59,1.47-5.38-2.02-.09-4.04-.18-6.51-.45M435.02,128.3c-3.62-2.91-7.84-4.42-12.37-3.89-5.22.61-10.33,2.26-15.55,2.83-3.49.38-4.09,2.59-4.98,5.08-1.12,3.14-2.24,6.31-3.64,9.33-2.75,5.91-6.85,11.24-6.31,18.4.36,4.84,3.02,11.35,6.88,11.81,7.02.84,14.08,1.31,20.6-1.91,5.32-2.62,10.65-5.49,15.36-9.05,5.21-3.94,8.82-9.34,7.76-16.4-.88-5.88-1.67-11.97-7.76-16.19M291.32,118.23c1.47,5.07,3.33,10.07,4.23,15.24.41,2.33,2.97,5.12-.05,7.57.2.18.38.45.61.52,5.57,1.74,10.58,4.42,14.92,8.38.44.4,1.64-.04,2.49-.1-.46-.67-.77-1.64-1.41-1.96-4.3-2.18-6.27-6.12-7.77-10.31-2.73-7.66-5.08-15.46-7.95-23.07-2.83-7.51-4.56-15.23-4.69-23.18-.06-3.98-2.28-8.22.67-12.09.12-.15-.21-.92-.49-1.05-3.6-1.64-7.1-3.89-10.89-4.67-8.75-1.81-17.62-3.29-26.51-4.18-14.98-1.5-29.37,2.63-43.83,5.63-3.12.65-3.29,1.79-1.22,4.17,1.05,1.21,1.89,2.74,3.19,3.54,1.34.82,3.19,1.47,4.68,1.26,5.85-.81,11.63-2.15,17.48-3.01,12.48-1.82,24.94-4.03,37.5-4.98,9.79-.74,11.1-.93,12.88,9.28,1.07,6.15,2.35,12.27,3.48,18.41.85,4.65,1.61,9.31,2.68,14.6M215.43,162.4c-.65,2.56-.75,5.46-2.06,7.63-4.52,7.49-9.42,14.74-14.28,22.02-.99,1.48-2.4,2.69-3.62,4.02,1.76.83,3.56,1.57,5.27,2.49,3.53,1.9,6.26.89,8.25-2.31,3.1-5,6.84-9.79,8.88-15.21,2.62-6.95,3.92-14.42,5.61-21.7,3-12.95,2.61-26.09,1.58-39.2-.33-4.16-1.15-8.38-2.46-12.34-.9-2.71-3.07-5-4.63-7.49-3.38-5.38-6.6-10.86-10.13-16.13-3.85-5.76-6.31-6.67-11.13-4.65-1.02.43-1.95,1.06-2.92,1.6.91.72,1.76,1.54,2.74,2.16,5.85,3.71,11.4,7.85,14.75,14.03,2.53,4.66,4.87,9.56,6.34,14.63,1.44,4.99,2.64,10.4,2.25,15.5-.87,11.54-2.78,23.01-4.45,34.96M177.88,87c-.53.23-1.1.39-1.57.71-.9.59-1.73,1.27-2.6,1.92.99.54,1.92,1.35,2.98,1.58,12.03,2.69,20.64,9.66,26,20.68,1.45,2.99,2.7,6.09,4.03,9.15,1.34,3.08,3.56,6.1,3.82,9.28,1.08,13.48-1.38,26.4-8.05,38.3-2.65,4.72-5.49,9.37-8.73,13.7-1.61,2.16-4.37,3.42-6.45,5.27-.89.79-1.36,2.04-2.03,3.09,1.64.9,3.21,2.34,4.93,2.53,1.26.14,3.1-1.03,4-2.17,2.92-3.7,5.75-7.52,8.2-11.54,2.8-4.6,6.31-9.21,7.5-14.29,2.91-12.43,4.83-25.08,5.22-37.95.23-7.67-2.04-14.73-4.79-21.49-2.25-5.51-5.71-10.79-10.69-14.48-3.9-2.89-7.92-6.04-12.39-7.59-2.21-.77-5.58,1.82-8.42,2.89-.11.04-.21.09-.95.41M258.87,91.42c5.5-.64,10.99-1.66,16.51-1.83,5.97-.18,5.98.16,4.78-5.43-.07-.32-.29-.64-.26-.95.34-3.31-2-3.64-4.28-3.6-3.39.05-6.81.21-10.16.68-14.6,2.04-29.19,4.19-43.77,6.38-1.7.26-3.33.99-4.99,1.5,1.04,1.43,2.49,2.72,3.02,4.32.88,2.67,2.75,3.56,5.08,3.27,11.22-1.41,22.42-2.99,34.09-4.34M28.39,66.3c-1.07-2.24-2.53-4.65-5.18-2.52-5.12,4.14-10.13,8.49-14.69,13.22-3.6,3.74-4.73,8.5-2.6,13.61.75,1.81,1.85,2.24,3.26.71,1.65-1.8,3.18-3.7,4.8-5.53,3.09-3.5,6.07-7.12,9.43-10.35.75-.72,2.89-.01,4.39.04-.09.95.19,2.21-.32,2.81-4.16,4.96-8.48,9.79-12.7,14.7-.62.72-.96,1.66-1.43,2.5,1.05.41,2.39,1.45,3.12,1.12,3.82-1.69,8.04-3.11,11.07-5.8,4.57-4.06,8.33-9.05,12.29-13.75.6-.72,1.74-2.29-.51-2.85-4.45-1.12-7.74-3.91-10.91-7.93M257.53,105.55c4.96-.92,9.92-1.87,14.9-2.75,2.63-.47,5.35-.57,7.91-1.28,3.96-1.11,1.06-4.26,1.45-6.43.06-.36-1.96-1.58-3-1.56-4.24.07-8.49.34-12.71.78-13.02,1.37-26.02,2.97-39.05,4.2-3.54.34-3.76.93-2.17,4.1,3.63,7.23,3.4,7.45,10.65,6.36,7.2-1.08,14.38-2.39,22.01-3.41M256.23,134.36c10.03-1.84,20.06-3.64,30.07-5.61.74-.15,1.73-1.48,1.75-2.29.04-1.36-1.03-2.8-.85-4.1.46-3.38-2.13-2.83-3.86-3.22-.87-.2-1.89.26-2.84.43-14.14,2.68-28.28,5.41-42.43,8.03-7.22,1.34-7.21,1.24-7.55,8.19-.11,2.32.89,3.2,3.1,2.81,2.43-.43,4.86-.86,7.28-1.35,4.96-1.01,9.92-2.05,15.33-2.9M241.92,112.02c-2.22.35-4.46.6-6.66,1.05-6.38,1.31-6.5,1.5-5.33,7.64.51,2.68,1.2,5.03,4.85,3.21,1.1-.55,2.51-.45,3.78-.66,6.13-1.05,12.28-2.01,18.39-3.17,7.52-1.43,14.97-3.23,22.52-4.5,5.28-.89,5.72-1.12,4.99-6.58-.42-3.16-1.69-3.64-5.93-2.91-7.06,1.22-14.17,2.17-21.25,3.34-4.98.82-9.94,1.82-15.36,2.57M282.33,182.78c1.27-.06,2.58.06,3.8-.22.93-.21,1.74-.93,2.6-1.43-.93-.38-1.83-.9-2.79-1.1-3.29-.66-6.83-.65-9.83-1.94-3.71-1.59-6.82-3.35-11.24-1.74-4.5,1.64-9.45,2.03-14.21,2.99-8.56,1.73-17.09,3.61-25.69,5.12-2.04.36-3.38.82-4.33,2.71-.81,1.62-2.06,3.01-3.03,4.56-.27.42-.21,1.05-.31,1.58.49,0,.98.07,1.46-.01,3.6-.59,7.18-1.32,10.79-1.81,6.44-.86,12.96-1.29,19.35-2.42,11.03-1.95,21.99-4.3,33.43-6.3M303.28,119.76c2.88,7.73,5.74,15.46,8.69,23.17.28.73,1.14,1.24,1.73,1.85.34-.77.97-1.52.99-2.3.4-13.17-2.21-25.78-6.79-38.1-1.47-3.96-1.83-8.34-3.32-12.29-1.4-3.69-2.3-7.85-5.92-10.31-.78-.53-1.68-.91-2.53-1.35-.14,1.06-.42,2.13-.38,3.19.04,1.06.55,2.11.57,3.17.22,11.2,2.67,21.93,6.95,32.98M267.37,158.08c1-2.57,1.94-5.16,3.04-7.68.46-1.06,1.23-1.98,1.86-2.97-1.27,0-2.57-.17-3.81.04-10.26,1.73-20.49,3.6-30.76,5.28-7.69,1.26-9.97,3.64-9.56,10.83.04.76,1.3,2.07,1.98,2.06,2.44-.03,4.9-.35,7.29-.86,6.04-1.28,12.03-2.8,18.06-4.09,3.88-.83,7.81-1.44,11.9-2.6M257.89,138.15c-7.83,1.48-15.64,3.03-23.49,4.4-2.94.51-4.94,2.55-4.4,5.67.55,3.21,2.66,2.23,4.64,1.29.43-.2,1.07.11,1.58,0,10.69-2.08,21.36-4.26,32.07-6.19,1.82-.33,3.81.42,5.74.57.94.07,2.26.3,2.8-.2,3.56-3.29,7.87-3.48,12.2-2.94,3.44.43,5.11.25,2.42-3.39-.07-.09-.13-.21-.14-.31-.33-3.56-2.62-4.32-5.66-3.91-4.03.54-8.08.97-12.07,1.74-5.11.99-10.16,2.28-15.68,3.26M227.36,170.72c-1.12,2.87-2.29,5.72-3.24,8.65-.05.17,1.74,1.35,2.63,1.3,1.19-.08,2.28-1.1,3.49-1.38,8.12-1.87,16.22-3.87,24.42-5.37,4.57-.84,9.19-3.22,14-.71.31.16.81-.04,1.22-.08-.23-.42-.5-.82-.68-1.25-.61-1.51-1.02-3.12-1.82-4.51-.76-1.32-1.94-3.45-2.9-3.43-3.71.08-7.44.75-11.11,1.44-5.52,1.04-10.99,2.3-16.5,3.42-2.95.6-5.92,1.1-9.51,1.92M222.68,196.12c-1.91.13-4.06-.26-5.66.51-2.13,1.02-3.82,2.94-5.71,4.47,1.7.32,3.4.65,5.11.95.63.11,1.27.2,1.91.22,9.75.36,19.21-1.43,28.57-3.94,4.93-1.32,9.97-2.28,14.86-3.73,4.29-1.28,8.47-2.97,12.63-4.65.67-.27.98-1.43,1.46-2.19-.81-.11-1.67-.45-2.42-.29-6.25,1.41-12.53,2.69-18.68,4.44-10.3,2.92-20.9,3.12-32.08,4.21Z"/>
      <path d="M46.71,53.56c-1.94-2.41-3.17-5.76-5.47-6.82-3.82-1.77-.87-5.07-2.56-7.11-.31-.37.56-1.96,1.15-2.8,5.34-7.57,13.05-10.96,21.94-10.91,3.14.02,7.27.86,8.71,5.39.44,1.39,3.66,2.14,2.17,4.25-.69.97-3.1.76-4.75.96-.49.06-1.09-.17-1.53-.44-3.77-2.32-7.77-1.54-11.75-.88-.28.05-.75.58-.7.69.33.7.62,1.64,1.22,1.96,2.8,1.54,4.16,3.67,4.62,6.95.67,4.73-.72,7.85-5.5,8.92-2.31.51-4.86-.02-7.53-.17Z"/>
    </g>
  </g>
</svg>