<?xml version="1.0" encoding="UTF-8"?>
<svg id="Layer_2" xmlns="http://www.w3.org/2000/svg" viewBox="0 0 57.83 48.85">
  <defs>
    <style>
      .cls-1 {
        fill: #fff;
      }
    </style>
  </defs>
  <g id="Layer_1-2" data-name="Layer_1">
    <g>
      <path d="M47.79,28.94c2.2.43,3.96.6,5.6,1.12,2.69.86,4.25,2.86,4.43,5.68.18,2.89-1.55,4.77-3.88,6.12-.8.47-1.79.61-2.78.93-.89,2.04-1.77,4.05-2.64,6.05-.7-.1-1.2-.06-1.61-.24-1.56-.69-3.09-1.46-4.64-2.2,1.5-2.84,3.41-.92,5.2-.66.37-.6.76-1.1,1-1.67.23-.57.3-1.2.51-2.06-2.78-1.67-4.72-4.93-9.13-3.59-.81,1.98-1.69,4.15-2.62,6.43-2.28-.23-4.05-1.09-5.85-2.28,1.24-2.33,3.25-.81,4.9-1.12.64-1.32,1.25-2.57,1.92-3.95-1.16-1.04-2.21-1.99-3.46-3.12-1.48.22-3.2.48-5.14.77-1.02,1.85-2.08,3.77-3.11,5.63-1.91.34-3.25-.7-4.71-1.21-.29-.1-.6-.79-.52-1.13.08-.35.62-.87.93-.86,1.08.05,2.15.31,3.45.52.44-1.03.87-2.01,1.52-3.52-1.34-.79-2.72-1.6-4.1-2.41-2.81-1.15-4.93.34-6.21,3.36-.36.86-.9,1.64-1.35,2.44-2.01.13-3.58-.69-5.16-1.4-.3-.14-.6-.8-.51-1.13.09-.35.61-.81.97-.83.6-.03,1.21.27,1.82.38.61.12,1.22.18,2.03.29.73-1.26,1.43-2.46,2.06-3.55-1.24-2.22-2.8-2.61-4.96-1.95-4.1,1.27-7.53-.04-10.35-3.16C.12,25.23-.25,23.64.15,21.75c.8-3.78,2.77-6.75,6.01-8.87.51-4.13-.14-8.35,1.66-12.88.71.96,1.3,1.39,1.3,1.82-.02,1.43-.33,2.85-.39,4.28-.08,1.73-.02,3.47-.02,5.54,1.87.12,3.56.22,5.2.32,1.58-1.16,2.25-2.82,3.12-4.32.48-.83.75-1.8,1.32-2.55.43-.57,1.14-1.05,1.81-1.26.62-.19.85,1.11.25,2.38-.82,1.73-1.68,3.45-2.62,5.11-.96,1.7-.51,3.03.85,4.28.48.02.97.16,1.4.04,2.6-.68,4.77.21,6.59,1.93,1.34,1.27,2.74,2.13,4.62,2.19,2.06.07,3.53,1.31,5.04,2.52.72.58,1.61,1.34,2.42,1.33,3.98-.05,6.49,2.26,8.78,5.03.1.12.23.22.29.27ZM9.64,27.03c2.73-.11,5.21-.52,6.62-3.14,1.15-2.15,1.02-5.33-.6-6.72-1.98-1.7-4.35-2.78-7.05-1.85-2.7.92-4.61,2.78-5.74,5.41-1.07,2.48-.01,4.88,2.63,5.64,1.36.39,2.82.46,4.15.66ZM26.69,23.39c0-2.08-.52-3.22-2.11-4.54-2.07-1.72-4.89-.73-5.46,1.9-.3,1.39-.63,2.77-.93,4.16-.38,1.77.48,3.14,2.18,3.57,3.37.85,6.68-1.68,6.32-5.09ZM26.83,30.21c.72.46,1.54,1.24,2.52,1.58,2.79.97,4.83-.22,6.33-3.48,1.06-2.3.42-3.84-2.39-5.32-.95-.5-2.05-.73-2.94-1.03-1.19,2.79-2.3,5.37-3.53,8.26ZM46.04,36.71c1.3,1.44,3.02,2.26,4.8,2.91,1.18.43,2.19-.16,3.02-.94.85-.8,1.43-1.89.9-2.99-.6-1.25-1.41-2.47-2.38-3.46-.94-.95-2.28-1.01-3.79-.45-.78,1.51-1.64,3.17-2.55,4.93ZM38.76,25.98c-.47,1.7-.92,3.36-1.37,5.01-.28,1.02.11,1.86.78,2.59,1.21,1.31,2.8,1.51,4.26.55,1.75-1.16,2.84-3.46,2.1-4.84-1.18-2.21-2.85-3.76-5.77-3.31Z"/>
      <path class="cls-1" d="M9.64,27.03c-1.32-.2-2.78-.27-4.15-.66-2.64-.76-3.7-3.16-2.63-5.64,1.14-2.62,3.05-4.49,5.74-5.41,2.7-.92,5.07.15,7.05,1.85,1.62,1.39,1.75,4.57.6,6.72-1.41,2.62-3.89,3.03-6.62,3.14ZM14.37,22.08c-.32-2.46-.92-3.52-2.29-4.08-1.86-.76-4.08-.22-5.05,1.24-.89,1.33-.36,3,1.13,3.39.59.15,1.25.22,1.85.15,1.46-.18,2.91-.46,4.36-.7Z"/>
      <path class="cls-1" d="M26.69,23.39c.36,3.4-2.94,5.93-6.32,5.09-1.7-.43-2.57-1.8-2.18-3.57.3-1.39.63-2.77.93-4.16.57-2.63,3.39-3.62,5.46-1.9,1.59,1.32,2.12,2.46,2.11,4.54Z"/>
      <path class="cls-1" d="M26.83,30.21c1.23-2.89,2.34-5.47,3.53-8.26.89.3,1.99.53,2.94,1.03,2.81,1.48,3.45,3.02,2.39,5.32-1.5,3.26-3.54,4.45-6.33,3.48-.98-.34-1.8-1.11-2.52-1.58Z"/>
      <path class="cls-1" d="M46.04,36.71c.91-1.76,1.77-3.42,2.55-4.93,1.51-.56,2.85-.51,3.79.45.97.99,1.77,2.21,2.38,3.46.53,1.1-.05,2.19-.9,2.99-.83.78-1.84,1.37-3.02.94-1.78-.65-3.5-1.46-4.8-2.91Z"/>
      <path class="cls-1" d="M38.76,25.98c2.93-.45,4.59,1.1,5.77,3.31.74,1.38-.35,3.68-2.1,4.84-1.46.96-3.05.77-4.26-.55-.68-.73-1.06-1.57-.78-2.59.45-1.66.91-3.31,1.37-5.01Z"/>
      <path d="M14.37,22.08c-1.45.24-2.9.52-4.36.7-.61.07-1.26,0-1.85-.15-1.49-.39-2.02-2.06-1.13-3.39.98-1.46,3.19-2,5.05-1.24,1.37.56,1.96,1.62,2.29,4.08Z"/>
    </g>
  </g>
</svg>