<?xml version="1.0" encoding="UTF-8"?>
<svg id="Layer_2" xmlns="http://www.w3.org/2000/svg" viewBox="0 0 241.94 358.97">
  <defs>
    <style>
      .cls-1 {
        fill: #cc0e06;
      }

      .cls-2 {
        fill: #040404;
      }
    </style>
  </defs>
  <g id="Layer_1_xA0_Image">
    <g>
      <path class="cls-2" d="M74.85,223.7c1.65-10.6,3.34-20.37,4.64-30.19.91-6.83,1.39-13.73,1.87-20.61.85-12.2-1.15-23.85-6.96-34.74-1.87-3.52-3.61-7.12-5.25-10.75-.74-1.63-1.31-3.41-1.6-5.17-.58-3.55,1.15-6.51,4.06-7.4,3.02-.93,5.68.52,7.29,4.05,1.5,3.29,2.65,6.8,4.49,9.89,9.93,16.68,12.13,34.77,9.77,53.6-1.85,14.76-4.3,29.43-6.24,44.18-4.45,33.89,5.38,63.08,29.35,87.44,2.58,2.62,5.74,4.66,9.41,6.3-1.05-3.99-2-8-3.17-11.95-2.19-7.37-3.08-14.9-3.2-22.56-.23-14.39.27-28.73,4.97-42.51,1.98-5.8,4.45-11.51,7.3-16.94,4.95-9.43,12.61-16.26,21.99-21.24,3.85-2.05,7.9-2.48,12.13-2.28,13.89.67,24.15,7.08,30.39,19.53,4.25,8.48,2.67,16.42-3.81,23.02-5.84,5.94-12.06,11.56-18.46,16.88-7.88,6.55-15.04,13.64-20.43,22.42-7.52,12.25-10.51,25.34-7.62,39.59,1.05,5.17,3.68,8.65,8.95,10.52,10.83,3.83,21.89,6.56,33.25,7.98,12.23,1.53,24.5,2.8,36.78,3.83,2.92.24,6.04-.67,8.93-1.51,2.77-.81,5.02-.51,6.89,1.65,1.84,2.12,1.83,5.02-.05,7.54-2.21,2.96-5.38,4.36-8.94,4.52-4.52.2-9.09.32-13.59-.05-18.81-1.57-37.68-3.21-55.8-8.76-10.88-3.33-21.58-7.49-31.98-12.11-16.92-7.53-29.74-19.94-39.22-35.76-7.61-12.68-13.36-26.08-15.92-40.81-1.02-5.84-3.03-11.48-6.53-16.57-2.91-4.23-6.78-6.92-11.13-9.27-2.65-1.43-4.84-1.09-6.87,1-4.17,4.3-8.46,8.49-10.74,14.24-.94,2.35-2.31,4.53-3.22,6.9-2.87,7.48-8.76,11.93-15.6,15.15-9.88,4.66-20.42-2.45-20.92-13.93-.43-10.02,2.51-19.27,6.25-28.44,5-12.26,14.4-19.26,26.46-23.22,7.86-2.58,15.45-.8,22.71,2.48,5.99,2.71,11.31,6.5,16,11.15.84.83,1.78,1.55,3.39,2.93Z"/>
      <path class="cls-1" d="M43.23,36.72c-1.05-6.25-2.15-12.49-3.13-18.75-.25-1.59-.32-3.27-.12-4.87.47-3.87,3.12-6.37,6.32-6.24,3.4.14,5.83,3.12,6.23,7.03.58,5.57,1.42,11.12,2.22,16.66.12.84.61,1.63,1.23,3.2,4.96-8.35,9.57-16.11,14.16-23.88.92-1.56,1.72-3.19,2.64-4.76.55-.93,1.11-1.89,1.83-2.68,2.4-2.63,5.75-3.16,8.31-1.4,2.41,1.66,3.3,4.68,1.78,7.76-2.09,4.22-4.48,8.3-6.86,12.37-3.28,5.63-6.67,11.2-10.37,17.38,1.4-.09,2.23,0,2.96-.21,8.85-2.65,17.68-5.34,26.52-8.02,4.13-1.25,7.37.03,8.55,3.34,1.15,3.26-.39,6.6-4.49,8.08-5.78,2.09-11.76,3.62-17.63,5.47-5.8,1.82-11.57,3.73-18.22,5.88,6.39,4.63,12.13,8.67,17.72,12.91,1.64,1.25,3.29,2.86,4.15,4.68.99,2.09.06,4.29-1.72,5.87-1.94,1.71-4.34,2.34-6.55,1.06-3.74-2.17-7.29-4.69-10.85-7.16-2.61-1.82-5.11-3.8-7.66-5.71-.32.21-.64.42-.96.63.72,4.06,1.56,8.11,2.11,12.2.48,3.58.88,7.2.83,10.8-.06,3.93-2.67,6.56-5.86,6.6-3.16.04-5.64-2.56-6.15-6.46-.63-4.83-1.25-9.67-2.02-15.56-1.45,1.69-2.34,2.46-2.89,3.43-3.66,6.45-7.31,12.9-10.81,19.43-1.74,3.25-4.82,4.66-8.16,3.35-3.16-1.24-4.92-4.71-3.8-7.96.58-1.69,1.49-3.3,2.41-4.85,4.43-7.47,8.91-14.91,12.9-23.27-3.67,1.22-7.36,2.41-11.02,3.69-1.36.48-2.6,1.35-3.98,1.74-2.55.72-5.18-.41-6.6-2.63-1.44-2.25-1.51-4.72.27-6.55,1.71-1.76,3.87-3.34,6.14-4.23,4.88-1.91,9.96-3.33,15.51-5.14-2.59-1.78-4.93-3.35-7.22-4.98-1.47-1.05-3.01-2.08-4.28-3.35-2.36-2.36-2.68-5.51-1.03-7.92,1.77-2.58,5.14-3.39,8.2-1.68,2.04,1.15,3.84,2.72,5.81,4.01.88.57,1.91.91,2.88,1.36.2.24.39.48.59.71.03-.44.06-.89.1-1.33Z"/>
    </g>
  </g>
</svg>