<?xml version="1.0" encoding="UTF-8"?>
<svg id="Layer_2" xmlns="http://www.w3.org/2000/svg" viewBox="0 0 514.15 483.2">
  <defs>
    <style>
      .cls-1 {
        fill: #fefdfd;
      }

      .cls-2 {
        fill: #cc0e06;
      }

      .cls-3 {
        fill: #080707;
      }

      .cls-4 {
        fill: #fdfdfc;
      }

      .cls-5 {
        fill: #fdfcfc;
      }

      .cls-6 {
        fill: #fff;
      }

      .cls-7 {
        fill: #fbf9f9;
      }

      .cls-8 {
        fill: #fefefe;
      }

      .cls-9 {
        fill: #fcfcfc;
      }

      .cls-10 {
        fill: #feffff;
      }

      .cls-11 {
        fill: #fdfdfd;
      }
    </style>
  </defs>
  <g id="Layer_1_xA0_Image">
    <g id="From_selection_xA0_Image">
      <g>
        <path class="cls-3" d="M155.82,322.99c1.76-10.55,3.23-21.15,5.26-31.66,4.59-23.76,11.66-46.8,19.74-69.55,6.74-18.97,13.53-37.94,20.82-56.71,4.86-12.5,11.09-24.48,15.89-37,5.95-15.52,13.88-29.93,22.44-44.08,3.39-5.59,2.53-4.71-.96-8.65-6.56-7.42-11.47-15.87-14.26-25.44-2.57-8.83,1.1-22.93,10.4-29.08,13.53-8.95,28.05-13.61,44.33-8.27,2.41.79,4.95,1.36,7.18,2.5,2.48,1.27,3.84.58,5.49-1.42,3.51-4.24,7.92-7.52,12.82-9.97,10.31-5.16,20.3-4.98,30.5,1.08,10.82,6.43,16.09,16.35,19.68,27.67.88,2.76,1.7,5.58,2.1,8.44.38,2.7,1.82,3.75,4.26,3.99,4.69.46,9.37.99,14.07,1.38,11.23.92,22.28,3.03,33.32,5.1,10.76,2.02,20.58,6.97,30.67,11.01,20.22,8.1,39.97,17.23,59.49,26.89,5.91,2.93,10.65,6.81,13.32,12.98,3.02,6.98,2.25,13.39-3.38,18.44-11.6,10.42-23.17,20.72-38.49,26.02-12.31,4.26-24.07,10.11-36.03,15.37-14.83,6.53-30.1,11.52-46.09,14.38-5.33.95-10.5,2.81-15.78,4.12-2.22.55-2.28,1.7-1.77,3.61,1.93,7.17,4.07,14.31,5.44,21.59,1.14,6.02,1.67,12.21,1.81,18.34.11,4.97,1.86,8.85,5.47,11.93,4.42,3.77,8.55,7.87,13.31,11.24,4.87,3.45,8.22,8.08,10.4,13.66,2.18,5.57,4.65,10.99,5.62,16.98,2.06,12.67-5.22,18.72-17.39,14.35-2-.72-3.78-2.16-6.26-2.09-.23,17.9-2.84,35.51-4.47,53.2-.48,5.22-1.35,10.42-2.37,15.57-.97,4.91-3.59,8.98-7.08,12.64-12.47,13.07-27.26,22.74-43.6,30.21-2.45,1.12-4.87,2.32-7.88,3.76,10.65,6.24,19.9,13.58,30.47,18.86,8.34,4.17,16.15,8.96,21.04,17.44,4.76,8.25,1.74,15.76-7.73,17.43-6.64,1.17-13.31.86-19.94-.98-21.5-5.99-39.01-18.09-53.76-34.51-1.92-2.14-4.42-3.8-5.63-6.58-.78-1.8-2.37-1.22-3.78-1.09-15.56,1.41-31.13.97-46.67-.32-3.77-.31-7.5-1.25-11.24-1.92-.74-.13-1.58-.25-2,.38-.54.8-.38,1.83.24,2.54,2.31,2.64,5.25,4.44,8.39,5.93,9,4.29,17.83,8.97,27.17,12.53,11.84,4.52,22.12,11.65,31.94,19.5,3.61,2.89,6.27,6.61,8.09,10.8,3.23,7.44.2,13.97-7.54,16.22-4.54,1.32-9.19,1.74-13.99,1.2-16.88-1.91-32.34-8.22-47.28-15.69-15.43-7.72-29.91-17.12-43.86-27.32-3.98-2.91-7.45-6.37-10.93-9.82-5.26-5.22-6.49-11.6-3.54-18.43.93-2.15,2.19-4.17,3.4-6.19,1.1-1.83,2.4-3.55,2.94-5.76-15.43-7.29-27.24-17.13-27.26-35.87-1.86-3.39.21-6.86-.23-10.28-.1-4.09-.08-8.18-.04-12.27.85-6.19,1.11-12.5,3.67-18.35Z"/>
        <path class="cls-2" d="M153.61,353.6c.65,3.55-.61,6.88-1.18,10.29-3.07,1.61-6.29,2.24-9.25.13-10.04-7.12-21.19-12.95-29.35-22.37-9.64-11.13-15.44-24.12-15.7-39.09-.17-10.15-.84-20.31.95-30.43,1.12-6.33,3.51-12.18,5.77-18.1,3.05-8,5.43-16.16,5.6-24.82.06-3.31-.5-6.45-1.74-9.56-3.49-8.71-9.55-13.02-19.19-13.06-18.35-.07-35.38-5.35-51.33-14.29-6.93-3.88-12.6-9.15-17.34-15.48-8.2-10.96-15.96-22.37-18.8-35.9-5.4-25.74-.45-49.07,18.62-68.31,2.29-2.31,4.84-4.3,8.01-5.5,9.88-3.78,16.76,4.41,17.19,11.18.24,3.7-.21,7.27-1.69,10.65-2.94,6.7-5.05,13.59-5.08,20.99,0,.7-.28,1.42-.51,2.1-4.21,12.8.36,26.37,11.45,33.76,4.53,3.02,9.04,6.09,13.77,8.77,8.47,4.8,17.74,7.1,27.33,8.52,13.07,1.94,24.39,7.93,34.63,16.1,1.85,1.48,3.37,3.3,4.6,5.34.94,1.55,1.78,3.2,2.94,4.58,6.9,8.18,10.05,17.86,11.97,28.18.78,4.17,1.34,8.36.73,12.43-1.18,7.74-.64,15.62-2.04,23.3-1.27,7.03-1.12,14.09-1.2,21.16-.06,5.07-.03,10.1-.78,15.19-1.33,9.08,2.13,17.15,6.82,24.67,2,3.21,4.27,6.29,7,8.98.44,1.12,1.28,2.17.61,3.49-2.3,4.53-1.68,9.64-2.86,14.39-1.95.7-3.23-2.79-4.7-1.3-1.98,2-3.64,4.58-4.21,7.45-.45,2.24,1.57,3.04,3.23,3.75,1.97.84,4.27.96,5.73,2.83Z"/>
        <path class="cls-6" d="M240.97,403.63c3.85-2.08,7.29-3.69,10.47-5.71,17.04-10.83,28.81-26.43,38.25-43.81,5.66-10.42,5.01-21.88,1.98-32.95-4.53-16.58-13.21-30.96-24.98-43.48-7.08-7.53-15.73-12.1-25.92-13.89-2.81-.49-5.45-.15-8.03.72-3.18,1.07-4.85,3.82-4.34,6.67.54,3.03,2.77,5.02,6.15,5.06,2.55.03,5.03.09,7.55.64,8.71,1.91,14.76,7.54,20.06,14.16,7.08,8.84,12.75,18.5,16.46,29.28,4.34,12.62,3.67,24.52-4.03,35.82-5.65,8.28-11.91,16.08-18.89,23.21-5.61,5.73-12.48,9.91-20.09,12.73-6.69,2.48-12.79,6.01-18.28,10.6-6.95,5.8-7.84,15.46-1.83,22.2,3.55,3.98,7.99,6.78,12.74,9.18,10.36,5.25,20.93,10.04,31.67,14.48,9.18,3.79,16.95,9.78,24.7,15.79,1.71,1.33,3.09,3.02,3.94,5.8-4.75,1.05-9.38.64-13.87-.35-16.97-3.73-32.94-10.17-47.81-19.08-10.58-6.34-21.23-12.6-31.09-20.1-3.34-2.54-6.28-5.5-9.44-8.22-2.35-2.02-2.63-4.19-1.21-6.75.88-1.58,1.79-3.15,2.79-4.67,2.72-4.14,4.71-8.58,5.69-13.45.77-3.83.72-7.62-1.08-11.17-2.37-4.67-3.05-9.61-2.96-14.78.17-9.97-.38-19.99,2.18-29.78.05-.17.06-.36.08-.54.53-4.58-.97-7.57-4.18-8.35-3.66-.89-6.5,1.08-7.78,5.73-.86,3.14-1.76,6.36-1.95,9.58-.69,12.12-1.57,24.26.46,36.4-9.02-3.78-13.56-11.64-12.93-20.84.87-12.68,2.33-25.29,3.43-37.93,2.09-24.13,7.2-47.56,14-70.79,6.75-23.03,16.03-45.12,23.6-67.83,6.33-18.98,15.48-36.79,22.71-55.37,6.5-16.72,15.77-31.84,24.53-47.29.62-1.09,1.54-2,2.33-2.99,2.79-3.49,2.78-5.8-.2-9.13-.96-1.07-1.98-2.26-3.23-2.88-9.73-4.85-13.26-14.07-15.86-23.49-1.88-6.8,1.75-13.55,8.05-17.02,15.66-8.63,29.17-9.07,45.87,2.47,7.03,4.86,13.65,10.23,18.08,17.83,2.27,3.89,6.04,5.6,10.5,5.82,4.73.23,9.43.08,14.12-.56,5.61-.77,11.21-1.09,16.75.5,7.03,2.01,14.28,2.54,21.5,3.19,22.15,2.01,43.63,6.33,64.15,15.56,19.18,8.63,38.59,16.75,57.4,26.21,2.77,1.39,5.57,2.67,7.17,5.58,1.7,3.1,1.68,5.03-.91,7.26-10.31,8.84-20.34,17.8-33.7,22.5-13.48,4.75-26.32,11.32-39.53,16.88-12.56,5.28-25.47,9.52-38.95,11.8-7.89,1.33-15.38,4.16-23.22,5.75-8.29,1.68-16.58,1.72-24.92,1.73-2,0-4.02-.09-5.98.18-3.31.45-5.57,2.86-5.66,5.67-.1,3.07,2.21,5.65,5.74,6.2,1.42.22,2.9.16,4.35.16,5.27,0,10.54.07,15.8-.1,2.4-.08,3.59.77,4.32,3.07,1.75,5.54,3.82,10.97,4.59,16.77.36,2.68.98,5.26-.21,8-.88,2.04-.23,4.28.51,6.38,1.44,4.11,2.52,8.33,3.51,12.57,1.58,6.76,5.39,12.31,10.28,17.03,5.6,5.39,10.62,11.47,17.51,15.42.6.34,1.27.9,1.49,1.51,1.86,5.2,5.27,9.96,4.81,16.23-5-1.53-9.13-3.98-12.1-8.05-6.53-8.93-13.26-17.75-18.3-27.67-2-3.94-4.57-7.47-7.86-10.34-2.79-2.43-4.04-5.24-4.45-8.92-.63-5.57-1.8-11.09-2.95-16.59-.72-3.44-3.2-5.47-5.95-5.39-2.73.07-5.2,2.31-5.81,5.61-.29,1.58-.24,3.26-.08,4.86.18,1.8.61,3.58,1.01,5.35.8,3.54,1.56,7.07,1.96,10.69.49,4.44,2.21,8.39,5.79,11.35,3.83,3.18,6.56,7.15,8.81,11.61,3.6,7.15,8.51,13.5,13.11,20.03,1.5,2.14,2.28,4.33,2.64,6.96,1.56,11.46.58,22.81-.84,34.17-1.57,12.59-1.87,25.32-4.39,37.82-1.11,5.55-3.36,9.95-7.47,13.99-12.81,12.6-28.44,20.48-44.35,28.16-12.68,6.12-26.24,8.16-39.83,10.45-4.33.73-8.59-.74-12.99-.53-5.96.29-11.95.42-17.92.56-2.28.05-4.58-.08-7.24-1.15Z"/>
        <path class="cls-6" d="M324.16,43.03c-3.19.39-5.44-.52-7.27-3.48-2.98-4.79-7-8.74-11.46-12.25-4.95-3.9-4.87-5.63.25-9.5,3.65-2.76,7.43-5.01,12.25-5.31,8.09-.51,14,3.48,18.69,9.25,4.03,4.95,6.13,11.04,7.54,17.3.43,1.92-.23,2.73-2.12,2.72-5.99-.05-11.94.61-17.86,1.27Z"/>
        <path class="cls-10" d="M363.65,447.12c-5.83.98-10.62-.3-15.58-1.71-17.9-5.1-31.94-15.9-44.39-29.18-.61-.65-1.11-1.39-1.68-2.11,6.06-3.61,7.78-3.22,13.07.16,11.28,7.22,22.06,15.26,34.13,21.2,3.59,1.77,6.89,4,10.17,6.27,1.81,1.26,3.18,2.83,4.27,5.35Z"/>
        <path class="cls-9" d="M153.61,353.6c-3.42-.47-6.7-1.24-9.52-3.47-1.65-1.3-2.39-2.3-.86-4.36,2.04-2.75,3.64-5.83,5.53-8.93,2.17.66,2.89,3.1,4.81,4.04.41,4.24.2,8.48.04,12.73Z"/>
        <path class="cls-8" d="M135.45,316.67c.38.27.55.35.68.48,4.42,4.46,4.92,9.21,1.46,14.55-1.57,2.42-2.63,5.16-4.47,7.45-1.12,1.4-2.18,1.67-3.66.52-3.59-2.81-6.82-5.97-9.47-9.7-1.24-1.75-1.58-3.09.98-4.11,5.41-2.15,9.69-6.21,14.48-9.19Z"/>
        <path class="cls-8" d="M69.51,174.62c-.91,3.96-.03,8.33-2.44,12.05-2.17,3.36-2.87,3.74-6.58,2.39-3.03-1.1-7.35-1.39-8.56-4.07-1.22-2.71,2.94-4.88,4.2-7.62.9-1.97,2.11-3.79,3.03-5.75,2.16-4.58,2.07-4.45,6.64-2.68,2.74,1.06,4.39,2.47,3.72,5.67Z"/>
        <path class="cls-8" d="M24.19,159.78c-4.01-5.78-6.82-11.68-9.37-18.12,4.17-.93,7.8-1.29,11.12-2.71,2.05-.88,2.9-.01,3.72,1.74,1.53,3.27,3.19,6.49,5.86,9.36-3.19,3.89-7.23,6.45-11.32,9.72Z"/>
        <path class="cls-1" d="M97.35,177.23c5.34,1.86,9.64,4.02,13.83,6.49,2.17,1.28,2.25,2.58,1.55,4.88-1.11,3.62-3.65,5.68-6.59,7.5-1.29.8-8.81-.61-9.71-1.69-.8-.96-.44-2.07-.16-3.09,1.19-4.35,1.68-8.77,1.08-14.08Z"/>
        <path class="cls-1" d="M110.24,303.43c-.2-2.38.55-3.41,3.12-2.62,4.26,1.31,8.14-.67,12.14-1.62,1.38-.33,3.14-2.16,4.1.2.75,1.85,2.13,3.99-.02,5.99-4.26,3.96-8.86,7.4-14.22,9.74-1.67.73-2.66.21-3.2-1.62-.97-3.31-1.47-6.69-1.92-10.07Z"/>
        <path class="cls-11" d="M33.6,79.54c.04,3.56-1.36,6.33-2.52,9.13-1.67,4.03-3.22,8.09-3.56,12.46-.23,2.9-1.42,4.31-4.4,4.12-2.46-.16-5.58,1.01-7.06-1.44-1.27-2.09.77-4.4,1.72-6.45,2.78-5.97,6.92-11,11.31-15.83,1.03-1.13,2.11-2.58,4.51-2Z"/>
        <path class="cls-1" d="M50.17,161.72c-.2.59-.43,1.27-.66,1.95-1.66,4.86-4.47,9.01-7.75,12.9-1.5,1.79-2.7,1.72-4.48.25-6.84-5.68-6.91-6.57.04-12.04,2.13-1.68,4.2-3.41,5.97-5.46.82-.95,1.54-2.27,3.04-1.25,1.43.97,3.39,1.44,3.83,3.66Z"/>
        <path class="cls-11" d="M125.94,250.44c.54-.03,1.09,0,1.62-.09,4.08-.65,4.94.15,3.69,4.32-.41,1.35-.34,2.85-.5,4.28-.54,5.04-3.86,7.45-8.72,6.11-1.7-.47-3.24-1.52-4.83-2.33-.31-.16-.7-.39-.82-.68-1.38-3.43,1.26-6.05,1.89-9.08.35-1.66,1.23-2.93,3.36-2.67,1.42.17,2.87.03,4.31.03,0,.04,0,.08,0,.12Z"/>
        <path class="cls-8" d="M129.37,276.98c1.22,6.66,1.1,6.92-4.32,9.48-4.22,1.99-8.28,3.35-12.68-.02-1.52-1.17-2.35-2.08-2.12-3.85.35-2.67.8-5.34,1.25-8.31,3.11,1.04,5.93,2.19,8.85,2.9,2.97.72,6.05.3,9.03-.21Z"/>
        <path class="cls-1" d="M114.68,205.12c2.99-2.48,5.97-4.83,7.96-8.55,3.73,3.36,6.16,7.06,7.66,11.33,1.2,3.42.78,4.26-2.64,5.91-1.45.7-3.02,1.18-4.58,1.59-1.57.42-2.72-.11-3.53-1.67-1.49-2.86-3.17-5.63-4.87-8.61Z"/>
        <path class="cls-4" d="M12.93,116.9c3.37.2,5.89.43,8.43.48,1.76.04,2.76.64,2.68,2.54-.03.72,0,1.45.02,2.18.12,4.7-2.53,7.26-7.21,6.68-2.21-.28-4.24-1.01-3.96-4.08.23-2.48.05-5,.05-7.79Z"/>
        <path class="cls-5" d="M125.6,238.38c-3.04-.04-3.32-.37-2.95-3.48.13-1.08.44-2.16.38-3.23-.16-2.92,1.34-3.93,4.01-4.73,7.38-2.21,7.33-2.37,6.11,5.26-.75,4.71-2.63,6.24-7.56,6.18Z"/>
        <path class="cls-7" d="M77.6,192.9c3.1-5.15,3.35-10.93,4.05-16.61.1-.84.05-1.93,1.3-1.96,1.29-.03,1.96.82,2.06,2.01.37,4.66.83,9.35-.98,13.85-1.41,3.52-1.61,3.6-6.42,2.7Z"/>
        <path class="cls-3" d="M300.73,227.32c-.22,5.11.99,10.08,1.6,15.12.38,3.11,2.26,4.88,5.21,6.3,11.41,5.48,21.48,12.71,28.66,23.46,2.52,3.76,5.34,7.33,8.05,10.96,1.75,2.35,4.01,4.18,6.2,6.08,2.18,1.88,4.9,1.98,7.2,1.12,2.47-.93,1.55-3.73,1.61-5.8.06-2.03-.66-3.95-1.75-5.65-6.95-10.81-13.25-22.16-24.3-29.6-5.56-3.75-8.66-9.12-10.18-15.54-1.09-4.6-1.78-9.25-2.32-13.94-.18-1.62-.23-3.23.29-4.85,1.18-3.66,3.93-5.71,7.22-5.26,3.08.42,5.1,2.79,5.06,6.68-.05,5.32.84,10.46,2.09,15.58.72,2.95,2.14,5.37,4.69,7.07,12.63,8.43,20.09,21.17,28.01,33.54,3.5,5.48,4.2,11.5,3.53,17.77-.65,6.07-4.79,10.88-10.76,12.22-6.47,1.45-12.47.6-17.97-3.64-6.91-5.33-11.56-12.51-16.46-19.43-6.38-9.01-14.74-15.39-24.61-19.88-5.67-2.58-9.63-6.37-10.96-12.56-1.56-7.27-2.79-14.59-2.76-22.06,0-1.65.12-3.27.68-4.82,1.02-2.85,3.56-4.7,6.11-4.5,2.79.23,5.46,2.66,5.82,5.65.24,1.96.04,3.98.04,5.97Z"/>
        <path class="cls-3" d="M342.7,104.74c-8.1,5.7-15.56,11.34-21.02,19.2-1.24,1.79-2.3,3.71-3.93,5.19-2.49,2.25-4.94,2.57-7.44,1.08-2.54-1.51-3.66-4.54-2.68-7.58.33-1.02.86-2.01,1.48-2.89,5.09-7.29,10.24-14.55,16.96-20.48,10.88-9.6,23.31-13.53,37.72-10.38,5.5,1.2,8.6,5.2,11.28,9.55,5.27,8.53,2.44,22.02-5.75,27.82-5.67,4.02-11.76,3.51-17.54.55-6.72-3.44-8.73-9.78-8.97-16.85-.05-1.42.71-2.83-.12-5.2Z"/>
      </g>
    </g>
  </g>
</svg>