<?xml version="1.0" encoding="UTF-8"?>
<svg id="Layer_2" xmlns="http://www.w3.org/2000/svg" viewBox="0 0 41.8 40.58">
  <g id="Layer_1-2" data-name="Layer_1">
    <g>
      <path d="M6.36,16.4c-.22-.12-.86-.34-1.33-.75-3.48-3.08-3.68-6.84-2.12-10.91C4.8-.22,10.97-1.48,14.29,1.88c1.76,1.79,3.36,3.74,5.34,5.97,0-1.51-.04-2.68.01-3.85.06-1.16-1.04-2.42.26-3.5,1.36,1.85,1.36,1.85,1.54,4.6.11,1.74.19,3.47.31,5.84.86-.79,1.48-1.1,1.64-1.56.51-1.5.91-3.05,1.25-4.61.3-1.39.53-2.79,1.58-3.83.98-.1,1.2.57,1.05,1.18-.6,2.46-1.3,4.89-1.95,7.29,1.36.76,1.48-.42,1.98-.81,1.49-1.19,2.9-2.49,4.39-3.67,3.98-3.15,10.12.86,10.11,5.35,0,3.51-.79,6.3-4.3,7.76-.41.17-.74.56-1.31,1.01.59,1.77,1.27,3.54,1.75,5.36.69,2.61,1.29,5.25,1.82,7.91,1.02,5.1-3.73,9.25-8.97,8.07-1.75-.39-3.29-1.16-4.58-2.44-1.25-1.23-2.56-2.4-3.91-3.66h-4.18c-.22.31-.54.87-.96,1.34-3,3.35-6.79,4.56-11.2,4.1-3.36-.36-4.76-1.65-5.59-4.92-.7-2.77-.36-5.42.81-7.94,1.54-3.31,3.24-6.56,5.18-10.45ZM10.3,15.99c-.92.93-1.36,1.37-1.79,1.81-3.31,3.42-5.47,7.52-6.47,12.11-1.14,5.26.88,8.34,6.88,7.85,4.73-.38,8.38-4.2,8.84-9.03.36-3.81.95-7.6,1.65-11.36.37-1.97.43-3.75-.57-5.55-.69-1.25-1.16-2.63-1.81-3.91-1.02-2.03-2.46-3.74-4.32-5.06-1.86-1.32-3.99-1.55-5.88-.37-4.76,2.97-4.49,9.49-.11,11.9.96.53,2,.91,3.57,1.61ZM32.91,17.97c1.2-.56,2.15-1.05,3.15-1.47,3.51-1.48,4.2-2.55,3.89-6.16-.31-3.68-4.42-5.97-7.38-3.83-4.43,3.21-8.4,6.87-8.09,13.14.08,1.73-.35,3.49-.48,5.24-.16,2.07-.31,4.14-.32,6.22,0,.75.17,1.73.65,2.21,1.69,1.68,3.34,3.56,5.38,4.68,4.15,2.28,8.75-.85,8.27-5.56-.44-4.3-1.47-8.49-3.89-12.2-.41-.64-.7-1.36-1.17-2.28Z"/>
      <path d="M13.16,24.99c-1.09.65-2.19,1.3-2.83,1.68,0,1.03-.11,1.41.02,1.64.47.82,1.16,1.53,1.53,2.38.47,1.09.27,2.18-.7,3.03-.91.81-1.95,1.07-3.09.64-1.71-.64-2.81-2.49-2.34-4.2.84-3.06,2.51-5.5,5.67-6.56.34-.11.83.24,1.25.37.16.34.33.68.49,1.03Z"/>
      <path d="M13.95,11.48c-1.39-.87-2.49-1.91-4.23-1.18-1.12.47-2.16-.55-2.4-1.69-.31-1.45.22-2.74,1.4-3.2.41-.16,1.03-.3,1.36-.11.94.56,1.93,1.16,2.61,1.99.87,1.06,1.78,2.25,1.27,4.2Z"/>
      <path d="M30.63,28.4c-.67-1.42-1.18-2.51-1.92-4.08,1.08.11,1.8-.03,2.17.27,2.34,1.83,3.7,4.29,4.18,7.2.19,1.14,0,2.24-1.1,2.92-1.22.75-3.28.53-4.46-.44-.91-.75-1.24-2.2-.6-3.47.42-.83,1.09-1.53,1.72-2.39Z"/>
      <path d="M29.84,14.38c.09-2.83,1.48-3.88,2.95-4.84,1.33-.87,2.78-.63,3.66.78.36.57.49,1.59.21,2.15-.28.56-1.17,1.06-1.84,1.13-.88.08-1.81-.46-2.69-.4-.63.04-1.24.61-2.29,1.19Z"/>
    </g>
  </g>
</svg>