<?xml version="1.0" encoding="UTF-8"?>
<svg id="Layer_2" xmlns="http://www.w3.org/2000/svg" viewBox="0 0 282.18 285">
  <defs>
    <style>
      .cls-1 {
        fill: #fff;
      }
    </style>
  </defs>
  <g id="Layer_1-2" data-name="Layer_1">
    <g>
      <path d="M32.27,261.96c-.08-4.26.99-8.27,2.52-12.17,4.26-10.85,10.35-20.54,18.59-28.83,2.48-2.5,5.05-4.91,7.41-7.52,6.69-7.36,11.42-15.76,13.41-25.6.64-3.13,1.41-6.24,2.12-9.35,1.12-4.9.39-9.49-2.09-13.88-3.35-5.92-8-10.32-14.36-12.86-1.19-.47-2.44-.84-3.54-1.47-7.32-4.16-15.39-5.11-23.57-5.66-3.35-.23-6.7-.52-10.01-1.08-10.66-1.79-17.71-7.72-20.36-18.38-2.7-10.86-3.52-21.73-.26-32.68,1.56-5.22,3.22-10.38,5.54-15.31,2.71-5.79,5.42-11.58,8.16-17.37,2.76-5.83,6.37-11.08,10.77-15.79,5.35-5.73,10.53-11.62,16.02-17.21C56.04,13.16,72.2,4.65,91.14,1.58c3-.49,6.01-.9,9.02-1.26,11.38-1.34,21.88,1.64,31.91,6.67,1.84.92,3.47,2.28,5.11,3.55,2.78,2.16,5.47,4.43,8.23,6.61,2.56,2.02,4.56,4.5,5.99,7.4,1.12,2.29,2.06,4.68,3.03,7.04,1.34,3.25,2.55,6.56,3.96,9.78,4.62,10.61,12.35,18.16,22.87,22.84,2.77,1.23,5.62,2.3,8.51,3.23,8.04,2.6,13.91,7.72,17.73,15.18,1.53,2.98,2.88,6.07,4.14,9.18,1.98,4.89,3.87,9.82,5.69,14.77,2.27,6.21,3.54,12.53,2.72,19.27-.62,5.09.25,10.21,1.19,15.25.82,4.38,3.2,7.97,6.15,11.21,1.4,1.54,3.09,2.22,5.17,1.75.78-.17,1.56-.36,2.35-.45,1.72-.19,3.14.44,4.25,1.74.41.48.79,1.01,1.1,1.57,4.11,7.3,9.41,13.72,15.06,19.83,2.4,2.6,3.91,5.37,4.07,8.92.09,1.91.4,3.82.6,5.72.41,3.9,1.65,7.44,4.24,10.5,2.07,2.44,3.93,5.05,5.9,7.57,4.47,5.72,7.69,12.14,10.52,18.78.38.88.7,1.79.96,2.71,2.47,8.76-3.47,17.17-12.6,17.48-7.51.26-14.18-2.28-19.7-7.38-2.21-2.04-4.07-4.5-5.91-6.91-1.94-2.54-3.62-5.27-5.47-7.89-1.01-1.44-2.05-2.87-3.21-4.19-2.28-2.6-5.02-4.5-8.59-4.76-3.88-.28-6.5-2.38-8.49-5.52-.77-1.21-1.59-2.4-2.37-3.61-5.4-8.32-10.76-16.66-16.22-24.93-1.67-2.53-2.7-4.99-1.65-8.08.88-2.58.15-5.02-1.11-7.37-2.43-4.54-4.37-9.29-4.91-14.45-.28-2.68-.22-5.41-.13-8.12.06-1.91.27-3.85.7-5.71,1.5-6.49.54-12.67-1.92-18.76-1.74-4.29-3.1-8.74-4.87-13.02-1.15-2.8-2.56-5.52-4.14-8.1-3.44-5.65-8.25-9.7-14.6-11.81-9.97-3.32-18.21-9.23-25.03-17.13-1.87-2.17-3.69-4.47-5.05-6.97-3.05-5.61-5.89-11.35-7.95-17.43-3.5-10.38-11.21-16.23-22.19-16.57-2.32-.07-4.79.52-6.98,1.37-5.66,2.19-11.3,4.49-16.76,7.13-3.28,1.58-6.43,3.63-9.28,5.9-6.25,4.99-12.41,10.11-18.35,15.45-6.27,5.63-10.67,12.72-14.53,20.13-1.33,2.55-2.35,5.25-3.53,7.88-1.69,3.74-1.52,7.46.17,11.14,2.44,5.31,5.7,10,10.5,13.47,8.97,6.48,18.34,12.21,28.8,16.1,4.93,1.83,9.69,4.16,14.37,6.58,11.65,6.01,18.06,15.89,20.4,28.58.46,2.51.78,5.06,1.02,7.6.51,5.46.24,10.83-1.7,16.08-1.77,4.79-3.08,9.76-4.9,14.53-1.36,3.57-3.04,7.05-4.9,10.4-3.72,6.71-7.57,13.35-11.54,19.92-3.14,5.2-6.4,10.34-9.88,15.31-6.15,8.78-12.23,17.59-17.72,26.81-1.47,2.47-3.01,4.94-4.87,7.12-3.9,4.58-8.99,5.03-13.51,1.14-2.41-2.07-4.61-4.45-6.57-6.96-3.05-3.91-4.38-8.49-4.2-13.44ZM7.13,129.3c.15.96.11,1.32.26,1.56.33.54.73,1.05,1.16,1.5,3.87,4.01,8.56,6.68,13.91,8.09,6.84,1.81,13.88,2.05,20.91,2.18.88.02,2.02-.27,2.62-.86,4.82-4.69,8.09-10.26,8.98-17.03.22-1.68-.45-3.16-1.9-4.14-2.12-1.43-4.24-2.85-6.41-4.2-1.96-1.22-3.92-1.19-5.76.34-.37.31-.74.61-1.11.91-5.53,4.58-11.81,7.48-18.92,8.7-4.55.78-9.03,1.92-13.74,2.93ZM44.56,237.7c-.44.28-.83.38-.95.63-3.28,6.21-6.45,12.48-7.83,19.45-1.36,6.87.28,13.01,5,18.2,1.49,1.64,3.29,3.01,4.96,4.49,2.6,2.28,5.84,2.36,8.06-1.17,2.63-4.19,5.53-8.2,8.31-12.3,1.08-1.58,2.19-3.15,3.19-4.78,1.14-1.85.95-2.9-.76-4.07-1.71-1.17-3.51-2.21-5.29-3.28-4.63-2.77-8.21-6.55-10.91-11.19-.8-1.38-1.56-2.79-2.39-4.15-.4-.65-.93-1.23-1.38-1.83ZM81.01,173.54c-.34.53-.48.65-.51.8-1.34,5.41-2.68,10.81-4,16.22-.08.31-.09.63-.12.95-.18,1.93.49,3.56,2.22,4.41,1.84.9,3.8,1.65,5.78,2.18,3.85,1.03,7.74,1.87,11.63,2.78.93.22,1.87.4,2.82.53,2,.27,3.39-.62,4.23-2.4.34-.72.62-1.47.85-2.23,1.38-4.58,2.8-9.15,4.06-13.76.5-1.83.82-3.76.88-5.66.07-2,.31-4.13-1.02-5.99-3.23-.49-6.02,1.19-9.04,1.27-2.87.08-5.72.49-8.58.64-3.02.16-6.04.18-9.2.27ZM61.95,217.26c-.82.47-1.33.61-1.63.94-3.91,4.41-7.8,8.83-11.67,13.28-1.45,1.66-1.45,3.43-.24,5.26,2.56,3.85,5.08,7.71,7.66,11.55.44.65,1.02,1.24,1.64,1.72,3.27,2.51,6.58,4.97,9.99,7.53,2.6-1.48,3.55-4.13,4.99-6.35,1.57-2.4,3.06-4.85,4.52-7.32,1.36-2.29,3.21-4.32,3.95-6.85-3.49-3.15-6.85-6.04-10.04-9.11-3.31-3.18-5.47-7.4-9.17-10.65ZM3.39,109.32s-.05,0-.07,0c.45,4.28.86,8.56,1.37,12.82.29,2.45,1.28,3.32,3.72,3.48.79.05,1.6.01,2.38-.12,6.44-1.12,12.79-2.64,18.86-5.12,3.73-1.53,6.88-3.96,9.54-7.02,1.03-1.19,1.54-2.5.71-3.93-1.6-2.75-3.29-5.45-5.01-8.13-.76-1.18-1.9-1.62-3.32-1.19-1.52.46-3.02.99-4.57,1.3-5.99,1.22-12.03,1.11-18.08.43-1.26-.14-2.53-.34-3.79-.37-1.19-.02-2.14.89-2.12,2.12.03,1.91.25,3.81.38,5.71ZM75.51,198.06c-.83.33-1.04.34-1.11.45-2.88,4.58-5.76,9.17-8.62,13.77-.9,1.45-.37,2.76.54,3.98,4.32,5.74,8.43,11.68,14.63,15.65.77.49,1.63.85,2.59,1.34.73-.86,1.45-1.5,1.92-2.29,4.6-7.86,9.17-15.73,13.71-23.62.36-.62.44-1.4.76-2.48-8.42-2.29-17.16-2.28-24.43-6.79ZM74.49,158.97c1.75,3.25,3.21,5.89,4.6,8.57,1.09,2.1,2.72,2.93,5.09,2.69,3.33-.34,6.68-.48,10.02-.73,2.86-.21,5.74-.34,8.59-.72,4.73-.63,5.22-1.56,4.31-6.37-1.89-10.03-8.17-17.1-15.59-23.42-.45-.38-1.14-.47-1.86-.76-.43.58-1.04,1.03-1.12,1.56-.41,2.52-2.03,4.3-3.55,6.14-2.64,3.21-5.31,6.38-7.94,9.6-.89,1.09-1.68,2.26-2.55,3.43ZM265.11,209.07c-8.67,2.68-15.4,7.99-21.72,13.88-1.79,1.67-1.8,3.07-.43,5.15,2.63,4,5.47,7.86,9.2,10.96.86.71,1.76,1.38,2.71,1.96,1.38.83,2.28.75,3.44-.37,1.37-1.33,2.64-2.77,3.97-4.15,3.46-3.59,7.2-6.74,11.93-8.62,2.37-.94,2.7-1.95,1.38-4.03-2.82-4.44-5.75-8.81-8.68-13.19-.34-.5-.93-.84-1.8-1.59ZM49.61,143.4c1.01,1.41,2.7,1.58,4.12,2.19,5.56,2.41,11.17,4.7,15.95,8.59,1.93,1.57,3.45,1.5,4.99-.41,3.5-4.34,6.82-8.83,10.18-13.29.37-.5.58-1.13.79-1.73.37-1.03,0-1.92-.79-2.54-.62-.49-1.36-.83-2.08-1.16-7-3.1-14-6.2-21.01-9.26-.83-.36-1.78-.43-2.89-.69-1.26,3.27-2.22,6.49-3.72,9.44-1.56,3.07-3.64,5.88-5.53,8.85ZM47.49,60.88c4.57-2.86,13.6-10.78,15.74-13.78-1.6-2.47-4.61-3.24-6.61-5.22-2.16-2.13-4.19-4.38-6.3-6.55-1.97-2.03-2.33-5.18-4.83-7.22-4.17,4.5-8.22,8.78-12.17,13.14-2.78,3.07-2.87,4.61-.41,8,1.21,1.67,2.62,3.22,4.12,4.63,3.04,2.85,6.52,5.1,10.45,6.99ZM35,81.5c-1.2-.46-2.04-.9-2.93-1.11-1.71-.39-3.45-.63-5.17-.96-4.37-.85-8.11-2.77-10.87-6.39-.43-.56-1.09-.95-1.83-1.57-.55.83-.97,1.3-1.21,1.85-1.99,4.52-4.09,9-5.84,13.62-1.07,2.81-1.67,5.81-2.34,8.76-.35,1.54.42,2.56,1.9,2.7,7.67.75,15.29.32,22.87-1,1.91-.33,2.68-1.32,2.88-3.26.23-2.21.33-4.45.74-6.62.35-1.86,1.07-3.64,1.8-6.01ZM111.8,27.26c.43-.63.82-.98.93-1.41,1.63-6.37,4.98-11.7,9.73-16.21.52-.49.77-1.25,1.1-1.81-.29-.35-.37-.52-.5-.59-8.01-4.1-16.56-4.25-25.23-3.42-1.39.13-2.3,1.19-2.63,2.5-1.29,5.14-2.07,10.35-1.22,15.65.81,5.08,1.99,5.96,7.07,5.09,3.5-.6,6.96-.57,10.75.18ZM225.64,156.66c-2.49-4.23-4.64-7.93-6.83-11.6-.89-1.5-2.35-2.14-4.02-2.22-3.18-.16-6.38-.38-9.56-.31-2.21.05-4.46.37-6.61.89-3.23.79-5.09,3.42-4.93,6.69.05,1.09.3,2.22.68,3.25,1.71,4.64,3.47,9.25,5.27,13.85.21.52.79.9,1.41,1.58,2.48-1.95,4.7-4,7.21-5.59,2.54-1.6,5.29-2.97,8.11-4.03,2.81-1.06,5.81-1.61,9.26-2.52ZM156.53,80.26c1.77-1.4,2.06-3.18,2.6-4.83,1.41-4.3,3.5-8.21,6.54-11.58.43-.47.88-.93,1.26-1.44.98-1.31,1.08-2.23.06-3.47-2.64-3.2-5.37-6.32-8.07-9.47-1.09-1.27-2.46-1.47-3.9-.79-5.42,2.57-10.14,6.03-13.52,11.1-1.9,2.86-1.86,3.78.2,6.41.49.62,1.04,1.21,1.61,1.77,3.17,3.14,6.33,6.31,9.56,9.4,1.13,1.08,2.44,1.96,3.66,2.92ZM28.11,48.59c-.75.2-1.15.18-1.34.37-4.8,4.85-7.59,10.97-10.52,16.99-.51,1.05-.18,2.17.65,3.1,1.81,2.04,3.65,4.16,6.26,5.07,3.91,1.36,7.93,2.39,11.91,3.53,1.01.29,1.97-.03,2.55-.87,2.78-4.03,5.52-8.09,8.07-12.65-2.33-1.48-4.55-2.71-6.59-4.21-2.18-1.6-4.33-3.29-6.21-5.22-1.76-1.8-3.14-3.97-4.78-6.11ZM161,81.76c4.68,2.24,8.99,4.3,13.3,6.38,2.71,1.31,3.22,1.34,4.77-.98,1.82-2.71,4.16-4.84,6.62-6.89,1.97-1.64,3.97-3.24,5.89-4.93.66-.59,1.13-1.39,1.93-2.4-4.12-1.86-7.89-3.58-11.67-5.27-2.33-1.04-4.67-2.1-7.04-3.05-3.71-1.49-4.63-1.25-7.03,1.7-2.97,3.64-5.06,7.76-6.41,12.25-.27.89-.22,1.86-.36,3.2ZM188.57,105.2c1.56-.95,2.9-1.78,4.26-2.58,2.62-1.53,5.18-3.18,7.9-4.49,1.99-.95,4.22-1.42,6.34-2.12,2.1-.69,2.41-1.52,1.41-3.62-.07-.14-.15-.28-.23-.42-2.39-4.15-4.76-8.31-7.17-12.46-.4-.69-.86-1.36-1.38-1.95-1.16-1.33-2.75-1.64-4.33-.86-.57.28-1.13.63-1.59,1.05-3.65,3.35-7.29,6.7-10.89,10.1-.69.65-1.16,1.51-1.75,2.27-1.01,1.3-.97,2.57-.1,3.97,1.77,2.84,3.41,5.78,5.2,8.61.56.89,1.44,1.57,2.32,2.5ZM66.56,13.8c-1.16.28-1.69.27-2.05.51-4.62,3.14-9.22,6.3-13.8,9.49-1.22.85-1.41,2.13-.92,3.42,1.43,3.74,2.94,7.47,6.23,10.03,2.39,1.86,4.9,3.56,7.38,5.3,1.61,1.13,3.29,1.08,4.94.07,2.31-1.41,4.64-2.82,6.91-4.3.62-.41,1.08-1.08,1.99-2.02-5.5-6.53-8.21-14.34-10.69-22.51ZM147.04,23.79c-.56-.77-.84-1.33-1.29-1.72-1.43-1.26-2.9-2.49-4.4-3.68-2.99-2.38-5.95-4.82-9.04-7.06-3.28-2.38-5.42-2.05-7.65,1.17-2.71,3.93-5.29,7.96-7.83,12.01-1.41,2.26-1.11,3.33.98,4.82,2.85,2.04,5.69,4.07,8.55,6.09,1.79,1.26,3.08,1.28,4.62-.44,3.59-4.01,8.06-6.69,12.77-9.09,1.08-.55,2.05-1.3,3.28-2.1ZM91.8,5.59c-.74-.22-1.07-.44-1.32-.37-5.98,1.68-11.98,3.34-17.92,5.14-1.93.58-2.47,2.26-2.14,4.18,1.17,6.98,4.41,12.92,8.64,18.44,1.04,1.36,2.43,1.51,3.87,1.07,2.13-.66,4.24-1.43,6.29-2.3,3.04-1.3,3.37-2.01,2.38-5.12-1.33-4.19-1.72-8.41-.96-12.76.46-2.65.76-5.34,1.18-8.28ZM137.59,58.39c.65-.34,1.19-.45,1.43-.79,3.78-5.1,8.27-9.27,14.24-11.78,2.16-.91,2.61-2.44,1.81-4.8-.92-2.72-2.01-5.39-3.1-8.05-.61-1.47-1.3-2.92-2.09-4.3-.63-1.1-1.78-1.48-2.91-.94-5.68,2.7-10.85,6.15-15.02,10.93-1.37,1.57-1.71,3.35-.85,5.35,1.51,3.52,2.91,7.1,4.44,10.62.55,1.27,1.33,2.45,2.05,3.76ZM216.69,119.37c.09-1.04.27-1.55.15-1.97-1.6-5.68-3.17-11.37-4.91-17-.57-1.86-1.98-2.41-3.83-1.53-5.19,2.47-10.31,5.07-15.45,7.64-.56.28-1.08.68-1.55,1.11-1.19,1.09-1.64,2.5-.83,3.89,1.71,2.94,2.7,6.11,3.66,9.33.47,1.55,1.52,2.02,2.97,1.5,1.5-.54,2.96-1.19,4.44-1.79,4.09-1.65,8.29-2.27,12.66-1.39.74.15,1.52.13,2.67.22ZM217.42,139.86c-.2-5.12-.34-9.58-.57-14.03-.11-2.11-.89-3.06-2.78-3.3-5.52-.7-10.82-.01-15.71,2.86-1.66.98-2.49,2.48-2.57,4.33-.12,2.7-.12,5.4-.12,8.11,0,2.14.94,3.02,2.94,2.57,5.37-1.22,10.76-1.11,16.18-.54.74.08,1.5.01,2.63.01ZM239.26,222c1.02-.63,1.89-1.03,2.59-1.63,2.43-2.07,4.78-4.24,7.2-6.31,3.31-2.83,6.91-5.13,11.18-6.3.98-.27,1.84-.98,3.04-1.66-1.36-2.57-2.94-4.55-4.59-6.46-1.52-1.76-2.49-1.87-4.58-.53-2.56,1.63-5.1,3.3-7.54,5.1-1.27.94-2.44,2.08-3.43,3.31-1.7,2.11-3.27,4.33-4.81,6.57-2.25,3.26-2.16,3.95.95,7.9ZM246.72,173.17c-.97-2.25-1.28-2.52-2.64-1.88-2.01.95-4.05,1.89-5.91,3.09-8.56,5.52-17.08,11.11-25.59,16.71-.77.51-1.45,1.23-1.99,1.99-.76,1.08-.22,2.62,1.18,3.71.91.71,1.78.45,2.56-.27.82-.75,1.54-1.63,2.43-2.27,8.92-6.41,17.5-13.29,26.95-18.95,1.07-.64,2.03-1.45,3-2.15ZM277.41,229.86c-4.5,1.57-9.31,4.81-13.15,8.99-1.44,1.56-3.28,2.96-3.61,5.58,2.91,1.11,5.76.99,8.59.78,3.78-.28,6.6-2.34,8.58-5.38,2.08-3.2,2.08-6.54-.41-9.98ZM242.57,167.54c-.4-.3-.8-.83-1.08-.77-1.22.22-2.51.43-3.6.98-5.7,2.88-11.45,5.67-16.97,8.86-4.27,2.47-8.23,5.47-12.3,8.28-.78.54-1.51,1.21-2.07,1.96-.6.81-.64,1.81.04,2.65.6.73,1.46.64,2.19.27,1.28-.64,2.54-1.33,3.74-2.11,6.4-4.21,12.79-8.43,19.16-12.69,2.65-1.77,5.23-3.66,8.25-4.8.73-.27,1.39-.77,1.99-1.29.31-.27.4-.8.65-1.35ZM200.79,177.96c2.04-1.65,3.73-3.36,5.73-4.57,7.22-4.37,14.63-8.41,22.54-11.44,1.93-.74,3.88-1.44,5.78-2.26.64-.28,1.14-.87,1.82-1.42-1.85-1.9-3.84-1.48-5.56-.86-6.59,2.37-13.18,4.74-19.62,7.48-4.66,1.98-8.08,5.59-10.64,9.96-.48.81-.97,1.67-.05,3.11ZM240.25,163.12c-3.61-1.39-6.16-.43-8.64.69-5.1,2.31-10.12,4.78-15.23,7.04-5.08,2.24-9.07,5.93-13.18,9.47-1.06.91-1.37,2.1-.48,3.37,1.9.53,3.02-.84,4.28-1.7,9.93-6.76,19.98-13.29,31.42-17.3.5-.17.86-.72,1.83-1.57ZM216.06,202.68c1.78.02,2.77-1.12,3.79-2.06,6.48-5.93,13.72-10.86,20.76-16.06,2.3-1.7,4.62-3.4,6.9-5.13.63-.47,1.3-.98,1.69-1.63.26-.44.27-1.33-.01-1.69-.29-.37-1.17-.6-1.64-.44-.88.3-1.68.87-2.46,1.42-1.95,1.38-3.86,2.82-5.79,4.21-5.82,4.18-11.64,8.35-17.46,12.52-2.21,1.59-4.32,3.29-5.74,5.66-.39.65-.61,1.46-.7,2.22-.04.32.46.7.67.99ZM252.46,179.51c-.82.5-1.85.96-2.67,1.67-5.83,4.96-12.13,9.27-18.38,13.67-3.63,2.56-6.91,5.61-10.33,8.47-1.6,1.34-2.12,3.02-1.53,5.02,1.63.13,2.61-.65,3.42-1.68,4.3-5.46,9.87-9.42,15.61-13.19,4.26-2.79,8.48-5.64,12.65-8.56,1.01-.71,1.96-1.66,2.58-2.71.66-1.11.18-2.15-1.35-2.68ZM255.66,186.04c-.62.27-1.35.5-1.99.9-8.41,5.24-16.63,10.74-24.22,17.13-2.18,1.84-4.04,4.06-6.02,6.13-.65.69-1.33,1.43-.87,2.53.33.78,1.71.52,2.87-.55.35-.32.7-.66.99-1.04,1.77-2.32,4.08-4.02,6.41-5.71,6.72-4.87,13.43-9.75,20.14-14.65,1.02-.75,2.04-1.53,2.93-2.43.6-.61.6-1.44-.24-2.31ZM229.24,214.29c3.29,1.67,3.74,1.6,5.48-.86.28-.39.52-.8.78-1.2,3.1-4.74,7.04-8.61,11.84-11.63,2.43-1.52,4.79-3.16,7.14-4.8.74-.52,1.7-1,1.47-2.21-.16-.85-1.47-.83-2.89.17-5.46,3.86-10.95,7.7-16.32,11.69-2.03,1.51-3.83,3.36-5.61,5.17-.97.99-1.98,2.08-1.9,3.67Z"/>
      <path class="cls-1" d="M7.13,129.3c4.71-1.02,9.19-2.15,13.74-2.93,7.11-1.22,13.38-4.12,18.92-8.7.37-.31.74-.61,1.11-.91,1.84-1.53,3.8-1.56,5.76-.34,2.17,1.35,4.29,2.77,6.41,4.2,1.46.98,2.12,2.46,1.9,4.14-.88,6.77-4.16,12.34-8.98,17.03-.6.58-1.74.87-2.62.86-7.03-.13-14.07-.37-20.91-2.18-5.34-1.41-10.04-4.09-13.91-8.09-.44-.45-.83-.97-1.16-1.5-.15-.24-.11-.61-.26-1.56Z"/>
      <path class="cls-1" d="M44.56,237.7c.46.6.99,1.18,1.38,1.83.83,1.36,1.58,2.77,2.39,4.15,2.7,4.64,6.29,8.42,10.91,11.19,1.78,1.06,3.58,2.11,5.29,3.28,1.72,1.17,1.9,2.22.76,4.07-1,1.63-2.11,3.19-3.19,4.78-2.78,4.09-5.68,8.11-8.31,12.3-2.22,3.53-5.46,3.46-8.06,1.17-1.68-1.47-3.47-2.84-4.96-4.49-4.72-5.19-6.35-11.33-5-18.2,1.38-6.97,4.55-13.24,7.83-19.45.13-.24.51-.34.95-.63Z"/>
      <path class="cls-1" d="M81.01,173.54c3.16-.09,6.19-.11,9.2-.27,2.87-.15,5.72-.57,8.58-.64,3.02-.08,5.81-1.76,9.04-1.27,1.33,1.86,1.08,3.99,1.02,5.99-.06,1.9-.38,3.83-.88,5.66-1.26,4.61-2.68,9.18-4.06,13.76-.23.76-.51,1.51-.85,2.23-.84,1.78-2.23,2.67-4.23,2.4-.95-.13-1.89-.31-2.82-.53-3.88-.9-7.78-1.74-11.63-2.78-1.98-.53-3.94-1.28-5.78-2.18-1.73-.85-2.4-2.48-2.22-4.41.03-.32.04-.64.12-.95,1.33-5.41,2.66-10.82,4-16.22.04-.15.17-.27.51-.8Z"/>
      <path class="cls-1" d="M61.95,217.26c3.7,3.25,5.86,7.46,9.17,10.65,3.19,3.07,6.55,5.96,10.04,9.11-.73,2.54-2.59,4.56-3.95,6.85-1.46,2.47-2.95,4.92-4.52,7.32-1.45,2.22-2.39,4.87-4.99,6.35-3.41-2.56-6.72-5.02-9.99-7.53-.62-.48-1.2-1.07-1.64-1.72-2.58-3.83-5.1-7.7-7.66-11.55-1.21-1.82-1.21-3.59.24-5.26,3.87-4.44,7.76-8.87,11.67-13.28.3-.33.8-.48,1.63-.94Z"/>
      <path class="cls-1" d="M3.39,109.32c-.14-1.9-.35-3.81-.38-5.71-.02-1.23.93-2.14,2.12-2.12,1.27.02,2.53.22,3.79.37,6.05.68,12.08.79,18.08-.43,1.55-.32,3.06-.84,4.57-1.3,1.42-.43,2.56,0,3.32,1.19,1.72,2.68,3.4,5.38,5.01,8.13.83,1.43.32,2.73-.71,3.93-2.66,3.06-5.82,5.49-9.54,7.02-6.06,2.48-12.41,4.01-18.86,5.12-.78.13-1.59.17-2.38.12-2.44-.16-3.43-1.03-3.72-3.48-.51-4.27-.92-8.55-1.37-12.82.02,0,.05,0,.07,0Z"/>
      <path class="cls-1" d="M75.51,198.06c7.27,4.52,16.01,4.5,24.43,6.79-.32,1.09-.4,1.86-.76,2.48-4.54,7.89-9.11,15.77-13.71,23.62-.46.79-1.18,1.42-1.92,2.29-.96-.49-1.82-.85-2.59-1.34-6.21-3.97-10.32-9.91-14.63-15.65-.92-1.22-1.44-2.53-.54-3.98,2.85-4.6,5.73-9.19,8.62-13.77.07-.11.28-.12,1.11-.45Z"/>
      <path class="cls-1" d="M74.49,158.97c.87-1.17,1.66-2.34,2.55-3.43,2.63-3.22,5.3-6.4,7.94-9.6,1.52-1.85,3.13-3.63,3.55-6.14.09-.53.69-.98,1.12-1.56.72.28,1.41.37,1.86.76,7.42,6.32,13.7,13.39,15.59,23.42.91,4.81.42,5.74-4.31,6.37-2.84.38-5.72.5-8.59.72-3.34.25-6.69.4-10.02.73-2.37.24-4-.59-5.09-2.69-1.39-2.68-2.85-5.32-4.6-8.57Z"/>
      <path class="cls-1" d="M265.11,209.07c.87.75,1.46,1.09,1.8,1.59,2.93,4.37,5.86,8.74,8.68,13.19,1.32,2.08.99,3.09-1.38,4.03-4.72,1.87-8.47,5.03-11.93,8.62-1.33,1.38-2.6,2.82-3.97,4.15-1.16,1.12-2.06,1.21-3.44.37-.95-.58-1.86-1.25-2.71-1.96-3.73-3.09-6.57-6.95-9.2-10.96-1.37-2.08-1.35-3.49.43-5.15,6.32-5.89,13.05-11.2,21.72-13.88Z"/>
      <path class="cls-1" d="M49.61,143.4c1.89-2.98,3.97-5.78,5.53-8.85,1.5-2.95,2.46-6.16,3.72-9.44,1.1.25,2.06.33,2.89.69,7.02,3.05,14.02,6.15,21.01,9.26.72.32,1.47.67,2.08,1.16.8.63,1.16,1.52.79,2.54-.21.6-.42,1.24-.79,1.73-3.36,4.46-6.68,8.95-10.18,13.29-1.54,1.91-3.05,1.98-4.99.41-4.78-3.89-10.39-6.17-15.95-8.59-1.42-.62-3.11-.79-4.12-2.19Z"/>
      <path class="cls-1" d="M47.49,60.88c-3.94-1.89-7.41-4.14-10.45-6.99-1.5-1.41-2.91-2.97-4.12-4.63-2.46-3.38-2.37-4.93.41-8,3.95-4.36,8-8.64,12.17-13.14,2.5,2.04,2.86,5.19,4.83,7.22,2.11,2.17,4.15,4.42,6.3,6.55,2,1.98,5.01,2.75,6.61,5.22-2.14,3-11.17,10.92-15.74,13.78Z"/>
      <path class="cls-1" d="M35,81.5c-.73,2.37-1.44,4.16-1.8,6.01-.41,2.18-.51,4.41-.74,6.62-.2,1.94-.97,2.92-2.88,3.26-7.58,1.32-15.2,1.75-22.87,1-1.48-.14-2.25-1.16-1.9-2.7.67-2.95,1.27-5.95,2.34-8.76,1.76-4.61,3.86-9.09,5.84-13.62.24-.55.66-1.02,1.21-1.85.74.62,1.4,1.01,1.83,1.57,2.76,3.62,6.5,5.54,10.87,6.39,1.72.33,3.46.57,5.17.96.89.2,1.73.64,2.93,1.11Z"/>
      <path class="cls-1" d="M111.8,27.26c-3.8-.75-7.25-.78-10.75-.18-5.07.87-6.26-.01-7.07-5.09-.84-5.3-.07-10.51,1.22-15.65.33-1.32,1.24-2.37,2.63-2.5,8.67-.84,17.22-.68,25.23,3.42.13.07.21.24.5.59-.33.55-.59,1.32-1.1,1.81-4.74,4.51-8.09,9.84-9.73,16.21-.11.43-.51.78-.93,1.41Z"/>
      <path class="cls-1" d="M225.64,156.66c-3.45.91-6.45,1.46-9.26,2.52-2.81,1.06-5.56,2.43-8.11,4.03-2.51,1.58-4.73,3.64-7.21,5.59-.62-.68-1.2-1.06-1.41-1.58-1.8-4.6-3.57-9.22-5.27-13.85-.38-1.03-.63-2.16-.68-3.25-.16-3.27,1.7-5.9,4.93-6.69,2.15-.52,4.4-.84,6.61-.89,3.18-.07,6.37.15,9.56.31,1.67.09,3.13.72,4.02,2.22,2.19,3.67,4.34,7.36,6.83,11.6Z"/>
      <path class="cls-1" d="M156.53,80.26c-1.22-.96-2.53-1.84-3.66-2.92-3.23-3.09-6.39-6.25-9.56-9.4-.57-.56-1.12-1.14-1.61-1.77-2.06-2.63-2.1-3.55-.2-6.41,3.37-5.07,8.09-8.53,13.52-11.1,1.44-.68,2.81-.48,3.9.79,2.7,3.15,5.43,6.27,8.07,9.47,1.02,1.23.92,2.16-.06,3.47-.38.51-.83.96-1.26,1.44-3.04,3.38-5.13,7.29-6.54,11.58-.54,1.65-.83,3.43-2.6,4.83Z"/>
      <path class="cls-1" d="M28.11,48.59c1.64,2.13,3.03,4.3,4.78,6.11,1.88,1.93,4.03,3.62,6.21,5.22,2.03,1.49,4.25,2.73,6.59,4.21-2.55,4.55-5.28,8.62-8.07,12.65-.58.84-1.54,1.16-2.55.87-3.98-1.14-8-2.17-11.91-3.53-2.61-.91-4.45-3.03-6.26-5.07-.83-.93-1.16-2.06-.65-3.1,2.93-6.02,5.72-12.13,10.52-16.99.19-.19.59-.17,1.34-.37Z"/>
      <path class="cls-1" d="M161,81.76c.14-1.33.09-2.31.36-3.2,1.35-4.49,3.44-8.61,6.41-12.25,2.4-2.94,3.32-3.18,7.03-1.7,2.37.95,4.71,2.01,7.04,3.05,3.78,1.69,7.55,3.41,11.67,5.27-.8,1.01-1.27,1.82-1.93,2.4-1.92,1.69-3.92,3.29-5.89,4.93-2.46,2.05-4.81,4.18-6.62,6.89-1.56,2.32-2.06,2.29-4.77.98-4.3-2.08-8.62-4.14-13.3-6.38Z"/>
      <path class="cls-1" d="M188.57,105.2c-.88-.93-1.76-1.62-2.32-2.5-1.79-2.83-3.43-5.76-5.2-8.61-.87-1.4-.91-2.67.1-3.97.59-.75,1.07-1.62,1.75-2.27,3.6-3.4,7.24-6.76,10.89-10.1.46-.43,1.02-.77,1.59-1.05,1.58-.78,3.16-.46,4.33.86.52.6.98,1.27,1.38,1.95,2.4,4.14,4.78,8.3,7.17,12.46.08.14.16.28.23.42,1,2.11.69,2.93-1.41,3.62-2.12.7-4.34,1.17-6.34,2.12-2.73,1.3-5.28,2.96-7.9,4.49-1.36.79-2.7,1.63-4.26,2.58Z"/>
      <path class="cls-1" d="M66.56,13.8c2.49,8.18,5.2,15.99,10.69,22.51-.92.94-1.37,1.61-1.99,2.02-2.27,1.48-4.59,2.88-6.91,4.3-1.65,1.01-3.33,1.06-4.94-.07-2.48-1.74-4.99-3.45-7.38-5.3-3.29-2.56-4.8-6.29-6.23-10.03-.5-1.3-.3-2.58.92-3.42,4.58-3.19,9.18-6.35,13.8-9.49.36-.24.89-.23,2.05-.51Z"/>
      <path class="cls-1" d="M147.04,23.79c-1.23.79-2.2,1.55-3.28,2.1-4.71,2.4-9.18,5.08-12.77,9.09-1.54,1.72-2.83,1.71-4.62.44-2.86-2.02-5.71-4.05-8.55-6.09-2.09-1.49-2.39-2.57-.98-4.82,2.53-4.05,5.11-8.08,7.83-12.01,2.23-3.23,4.37-3.55,7.65-1.17,3.09,2.24,6.05,4.68,9.04,7.06,1.5,1.19,2.97,2.42,4.4,3.68.44.39.72.96,1.29,1.72Z"/>
      <path class="cls-1" d="M91.8,5.59c-.41,2.94-.71,5.63-1.18,8.28-.76,4.35-.37,8.57.96,12.76.99,3.12.65,3.83-2.38,5.12-2.05.88-4.16,1.64-6.29,2.3-1.43.45-2.82.29-3.87-1.07-4.23-5.52-7.47-11.46-8.64-18.44-.32-1.92.21-3.6,2.14-4.18,5.95-1.8,11.94-3.46,17.92-5.14.25-.07.58.15,1.32.37Z"/>
      <path class="cls-1" d="M137.59,58.39c-.72-1.31-1.5-2.48-2.05-3.76-1.53-3.52-2.92-7.09-4.44-10.62-.86-2-.52-3.78.85-5.35,4.17-4.78,9.34-8.23,15.02-10.93,1.13-.54,2.28-.16,2.91.94.79,1.38,1.49,2.83,2.09,4.3,1.09,2.66,2.18,5.33,3.1,8.05.8,2.35.34,3.89-1.81,4.8-5.96,2.51-10.46,6.68-14.24,11.78-.24.33-.78.44-1.43.79Z"/>
      <path class="cls-1" d="M216.69,119.37c-1.15-.09-1.93-.07-2.67-.22-4.37-.89-8.57-.26-12.66,1.39-1.48.6-2.94,1.25-4.44,1.79-1.46.52-2.51.05-2.97-1.5-.97-3.21-1.96-6.39-3.66-9.33-.81-1.39-.36-2.8.83-3.89.47-.43.99-.83,1.55-1.11,5.14-2.57,10.26-5.17,15.45-7.64,1.85-.88,3.26-.33,3.83,1.53,1.73,5.64,3.31,11.33,4.91,17,.12.42-.06.93-.15,1.97Z"/>
      <path class="cls-1" d="M217.42,139.86c-1.13,0-1.89.07-2.63-.01-5.42-.57-10.81-.68-16.18.54-2,.45-2.95-.43-2.94-2.57,0-2.7,0-5.41.12-8.11.08-1.85.91-3.35,2.57-4.33,4.89-2.88,10.19-3.56,15.71-2.86,1.89.24,2.67,1.2,2.78,3.3.24,4.45.37,8.91.57,14.03Z"/>
      <path class="cls-1" d="M239.26,222c-3.11-3.95-3.2-4.64-.95-7.9,1.54-2.23,3.11-4.46,4.81-6.57.99-1.23,2.16-2.37,3.43-3.31,2.44-1.8,4.98-3.47,7.54-5.1,2.1-1.34,3.07-1.23,4.58.53,1.65,1.91,3.23,3.89,4.59,6.46-1.21.67-2.06,1.39-3.04,1.66-4.27,1.17-7.87,3.47-11.18,6.3-2.43,2.07-4.77,4.24-7.2,6.31-.7.6-1.57,1-2.59,1.63Z"/>
      <path class="cls-1" d="M246.72,173.17c-.97.7-1.93,1.51-3,2.15-9.45,5.65-18.03,12.54-26.95,18.95-.89.64-1.61,1.52-2.43,2.27-.78.72-1.65.98-2.56.27-1.4-1.09-1.93-2.63-1.18-3.71.53-.76,1.22-1.49,1.99-1.99,8.51-5.61,17.02-11.2,25.59-16.71,1.86-1.2,3.9-2.15,5.91-3.09,1.36-.64,1.67-.37,2.64,1.88Z"/>
      <path class="cls-1" d="M277.41,229.86c2.49,3.43,2.49,6.78.41,9.98-1.98,3.04-4.8,5.1-8.58,5.38-2.83.21-5.68.33-8.59-.78.33-2.63,2.17-4.02,3.61-5.58,3.84-4.18,8.65-7.43,13.15-8.99Z"/>
      <path class="cls-1" d="M242.57,167.54c-.25.55-.34,1.08-.65,1.35-.59.52-1.26,1.02-1.99,1.29-3.03,1.14-5.6,3.02-8.25,4.8-6.37,4.26-12.76,8.48-19.16,12.69-1.19.78-2.46,1.47-3.74,2.11-.73.36-1.59.46-2.19-.27-.69-.84-.64-1.84-.04-2.65.56-.75,1.29-1.43,2.07-1.96,4.07-2.81,8.03-5.81,12.3-8.28,5.52-3.19,11.27-5.98,16.97-8.86,1.09-.55,2.38-.76,3.6-.98.29-.05.68.47,1.08.77Z"/>
      <path class="cls-1" d="M200.79,177.96c-.92-1.44-.42-2.29.05-3.11,2.56-4.37,5.98-7.98,10.64-9.96,6.44-2.74,13.03-5.11,19.62-7.48,1.72-.62,3.71-1.04,5.56.86-.68.55-1.18,1.14-1.82,1.42-1.9.82-3.85,1.52-5.78,2.26-7.91,3.03-15.32,7.07-22.54,11.44-2,1.21-3.7,2.92-5.73,4.57Z"/>
      <path class="cls-1" d="M240.25,163.12c-.97.85-1.33,1.4-1.83,1.57-11.44,4.02-21.49,10.55-31.42,17.3-1.26.86-2.39,2.23-4.28,1.7-.89-1.27-.58-2.46.48-3.37,4.12-3.53,8.11-7.23,13.18-9.47,5.12-2.26,10.14-4.73,15.23-7.04,2.48-1.12,5.03-2.07,8.64-.69Z"/>
      <path class="cls-1" d="M216.06,202.68c-.21-.29-.71-.67-.67-.99.09-.76.31-1.57.7-2.22,1.42-2.37,3.53-4.08,5.74-5.66,5.82-4.17,11.65-8.34,17.46-12.52,1.94-1.39,3.85-2.83,5.79-4.21.77-.55,1.58-1.12,2.46-1.42.47-.16,1.35.07,1.64.44.29.37.27,1.26.01,1.69-.39.65-1.07,1.16-1.69,1.63-2.28,1.73-4.6,3.42-6.9,5.13-7.03,5.21-14.28,10.13-20.76,16.06-1.02.94-2.01,2.09-3.79,2.06Z"/>
      <path class="cls-1" d="M252.46,179.51c1.53.54,2.01,1.57,1.35,2.68-.62,1.05-1.57,2.01-2.58,2.71-4.17,2.92-8.39,5.77-12.65,8.56-5.74,3.77-11.31,7.73-15.61,13.19-.81,1.03-1.78,1.81-3.42,1.68-.59-2-.07-3.68,1.53-5.02,3.41-2.86,6.7-5.91,10.33-8.47,6.25-4.4,12.55-8.71,18.38-13.67.83-.7,1.86-1.17,2.67-1.67Z"/>
      <path class="cls-1" d="M255.66,186.04c.84.87.84,1.7.24,2.31-.88.9-1.9,1.68-2.93,2.43-6.7,4.9-13.42,9.77-20.14,14.65-2.33,1.69-4.64,3.39-6.41,5.71-.29.38-.64.72-.99,1.04-1.17,1.07-2.54,1.32-2.87.55-.46-1.09.22-1.84.87-2.53,1.97-2.08,3.84-4.3,6.02-6.13,7.58-6.39,15.81-11.89,24.22-17.13.63-.4,1.37-.62,1.99-.9Z"/>
      <path class="cls-1" d="M229.24,214.29c-.08-1.58.93-2.68,1.9-3.67,1.78-1.81,3.58-3.66,5.61-5.17,5.37-3.99,10.85-7.82,16.32-11.69,1.41-1,2.72-1.02,2.89-.17.23,1.21-.72,1.69-1.47,2.21-2.35,1.64-4.71,3.28-7.14,4.8-4.8,3.02-8.74,6.89-11.84,11.63-.26.4-.51.81-.78,1.2-1.74,2.46-2.19,2.53-5.48.86Z"/>
    </g>
  </g>
</svg>