<?xml version="1.0" encoding="UTF-8"?>
<svg id="Layer_2" xmlns="http://www.w3.org/2000/svg" viewBox="0 0 135.05 186.62">
  <g id="Laag_1">
    <g>
      <g id="nCd4dT">
        <g>
          <path d="M132.06,101.12c.2-1.45.09-3.01.81-4.3,1.37-2.48,1.63-5.2,1.97-7.91.45-3.61.06-7.24,0-10.86-.02-1.07.05-2.18-1.01-2.93-.17-.12-.14-.5-.21-.75-.64-2.16-.77-4.42-1.54-6.57-1.18-3.25-3.23-5.94-5.05-8.79-1.75-2.74-4.15-4.82-6.72-6.77-2.87-2.18-5.23-5.02-8.57-6.59-.46-.22-1.08-.35-1.4-1.03.43.06.74.07,1.03.16,3.82,1.23,7.82,1.19,11.74,1.41,3.29.18,6.65-.41,9.92-1.11,1.32-.28,1.95-1.47,1.69-2.83-.06-.3-.17-.64-.07-.9.68-1.87-.23-3.16-1.45-4.41-.85-.87-1.81-1.65-2.39-2.8-.37-.74-1.12-1.76-1.77-1.67-.94.13-1.42-.38-2.08-.65-1.83-.74-3.38-1.98-5.1-2.93-2.01-1.11-4.28-1.73-6.1-3.21-.15-.12-.41-.24-.62-.06.1.21.31.44.26.59-.12.37-.45.12-.69.12-2.39,0-4.6-1.05-7.12-.79-2.44.25-5.03.56-7.53-.11-.33-.09-.95-.07-1.12.39-.3.81-.88.57-1.31.34-.56-.29-1.09-.29-1.65-.19-1.9.35-3.6,1.24-5.36,1.98-.47.2-.89.72-1.47.33-.61-.41-.42-1.04-.33-1.59.29-1.71.56-3.42.86-5.13.18-1.05-.16-2.01.01-3.07.5-3,1-6.03.95-9.07-.05-2.61-1.35-4.71-3.63-5.91-1.71-.9-3.43-1.84-5.23-2.55-.67-.26-1.13-1.03-1.89-.94-1.55.19-3.47-.16-3.85,2.16-.02.1-.17.16-.22.26-.56,1.16-1.47,2.14-1.65,3.49-.08.6-.35,1.18-.57,1.75-.81,2.12-1.74,4.2-2.35,6.4-.44,1.6-1.02,3.16-1.56,4.73-.09.27-.08.75-.47.68-.42-.08-.25-.56-.29-.88-.09-.8.63-1.32.68-2.07-.38.49-.72,1-.96,1.56-.46,1.07-.63,1.16-1.48.4-1.2-1.07-2.36-2.19-3.54-3.3-3.5-3.29-6.81-6.77-11.22-8.98-1.73-.87-3.46-1.86-5.06-3.01-2.62-1.89-5.57-2.43-8.67-1.83-2.04.4-3.68,1.7-5.13,3.13-.46.45-1.25.62-1.49,1.46.42,0,.83-.42,1.02.04.16.38-.19.64-.48.84-.62.41-.92,1-1.09,1.71-.32,1.29-.27,2.55.2,3.78.19.49,0,1.47,1.14.98.25-.11.43.38.61.62,1,1.31,1.86,2.73,3.18,3.79.6.48,1.36.71,1.85,1.37,1.11,1.46,2.79,2.28,4.23,3.28,2.33,1.61,5,2.74,7.52,4.08.26.14.77.13.64.62-.13.49-.55.54-.99.48l.03-.02c-.63.26-1.22.05-1.79-.18-2.03-.79-4.06-1.6-6.09-2.4-.83-.32-1.63-.72-2.54-.74-.14,0-.6-.31-.45.14.2.59-.13.4-.37.35-2.14-.44-4.41-.36-6.37-1.54-.33-.2-.73-.16-1.11-.19-1.77-.14-3.55.16-5.3-.21-.06.16-.18.31-.4.37-1.44.42-2.84,1.01-4.03,1.94-.76.6-1.41,1.3-2,2.06-.11.42-.16.87-.11,1.35.05.47-.19.7-.41,1.01-.46.66-1.44.79-1.76,1.44-.61,1.25-1.42,2.29-2.22,3.4-1.21,1.67-1.79,3.74-2.95,5.54-.99,1.53-2.02,3.11-2.85,4.8-1.23,2.49-2.38,4.99-3.29,7.61-.18.53-.44,1.22-.25,1.64.24.53,0,.62-.23.93-.78.98-.75,2.33-1.47,3.35-.11.16.03.37.23.47.28.14.26.35.14.58-.58,1.07-.79,2.25-.95,3.44-.1.73-.95,1.03-1.02,1.57-.15,1.15-.46,2.33-.5,3.42-.06,1.53-.74,2.87-.84,4.37-.13,1.94-.5,3.9-.62,5.83-.21,3.57-.38,7.15-.34,10.74.03,2.81.27,5.6.36,8.4.08,2.5.49,4.97.38,7.49-.1,2.18-.1,4.41.23,6.56.34,2.25.63,4.51.78,6.75.35,5.36,1.45,10.61,1.92,15.94.28,3.23,1.29,6.34,1.8,9.53.29,1.79.95,3.48,1.43,5.22.57,2.07,1,4.18,1.69,6.23.3.89.69,1.76.91,2.68.28.13.51.37.58.77.21,1.13.26,2.28.23,3.42,1.08,3.08,2.17,6.17,3.19,9.27.4-.02.79.17.98.63.37.92.67,1.86.95,2.8,0,.01.01.03.02.04.07.14.16.26.25.39,1.87,2.6,3.77,5.17,6.49,7.02.96.65,1.78,1.39,2.97,1.67.67.16,1.43.2,2.05.71,1.18.97,2.61,1.51,4.08,1.85,2.69.62,5.45.97,8.13.19,1.41-.41,2.81-.74,4.25-.99.57-.1.84.02.87.36.77-.47,1.64-.81,2.5-1.09,2.4-1.42,5.04-2.65,7.57-2.24.09-.05.16-.11.27-.15,2.03-.72,4.12-1.22,6.12-2.07,2.98-1.27,6.01-2.41,8.93-3.84,1.18-.58,2.26-1.31,3.45-1.84,1.35-.6,2.62-1.34,3.74-2.26,3.29-2.69,7.09-4.65,10.32-7.44,1.71-1.48,3.99-2.3,5.09-4.5.63-1.26,2.01-1.77,2.97-2.71,2.05-1.99,4.31-3.74,6.48-5.59,2.18-1.86,4.03-3.95,5.59-6.3.84-1.27,1.65-2.58,2.56-3.81,1.68-2.25,3.32-4.54,5.02-6.78,1.37-1.79,2.55-3.74,3.63-5.72.81-1.49,1.93-2.77,2.61-4.36.57-1.33,1.41-2.58,2.34-3.69.75-.89,1.22-1.88,1.61-2.9.49-1.27.85-2.59,1.58-3.75.36-.58.93-1.06,1.21-1.68,1.68-3.78,3.37-7.57,3.93-11.72ZM121.11,98.29c-.55,1.27-.95,2.61-1.34,3.94-1.12,3.76-3.13,7.12-4.7,10.68-.63,1.44-1.1,2.98-1.91,4.32-1.84,3.07-3.55,6.22-5.36,9.31-1.09,1.85-2.02,3.81-3.3,5.54-1.62,2.18-3.02,4.5-4.73,6.64-1.68,2.1-3.38,4.24-4.74,6.62-.86,1.5-2.19,2.75-3.71,3.7-.99.61-1.87,1.33-2.59,2.28-.59.78-1.45,1.36-2.23,1.9-2.02,1.38-3.92,2.86-5.75,4.48-3.45,3.04-7.16,5.73-11.14,8.06-1.39.81-2.6,1.93-3.9,2.9-1.52,1.14-3.26,1.92-4.88,2.88-4.16,2.46-8.72,3.84-13.27,5.2-3.8,1.14-7.51,2.58-11.44,3.27-1.29.23-2.61.23-3.86.72-.47.18-.91,0-1.31-.28-2.26-1.58-4.28-3.41-5.87-5.68-.86-1.23-1.69-2.46-2.97-3.34-.66-.46-1.15-1.27-1.24-2.04-.23-2.08-1.03-3.98-1.55-5.97-.07-.26-.19-.51-.35-.73-.8-1.14-1.14-2.45-1.62-3.73-.8-2.12-1.37-4.3-2.09-6.43-.69-2.03-1.42-4.09-1.52-6.32-.04-.87.24-1.92-.69-2.76-.54-.49-.58-1.54-.45-2.33.26-1.5-.57-2.75-.84-4.12-.15-.76-.46-1.53-.42-2.33.09-1.75-.9-3.43-.31-5.22.12-.37-.2-.71-.38-1.06-.71-1.37-.79-2.84-.55-4.34.02-.15.11-.32.06-.44-1.03-2.48-.22-5.12-.69-7.67-.7-3.79-.57-7.67-.72-11.52-.1-2.51-1.15-5-.9-7.52.39-4-.05-8.01.36-12,.19-1.88-.13-3.76-.03-5.65.12-2.09.53-4.13.78-6.19.13-1.05.53-1.96.11-3.2-.38-1.12.32-2.62.61-3.94.75-3.36,2-6.58,2.89-9.89.46-1.72,1.07-3.41,1.5-5.13.66-2.63,1.61-5.27,3.17-7.64,1.31-1.98,2.26-4.2,3.3-6.35.22-.46.49-.86.79-1.25.17-.22.73-.53-.14-.6-.39-.03-.05-.35.05-.49.82-1.13,1.85-2.04,3.13-2.24.24-.63.63-1.2,1.17-1.6.78-.59,1.71-.86,2.66-1.02.82-.25,1.68-.33,2.48-.23.64-.02,1.27-.04,1.91-.1.39-.07.77-.13,1.16-.19.2-.03.35.03.47.13.31,0,.63,0,.96.07,1.71.32,3.48.22,5.14.81.32.11.65.25.96.39.86.41.81.96.17,1.51-3.53,3.03-6.42,6.63-9.25,10.28-1.89,2.43-3.44,5.07-4.96,7.75-.54.95-.74,1.8-.9,3,.58-.6.15-1.45.86-1.73.33.25.19.54.07.74-.97,1.59-.14,3,.42,4.44.05.14.11.38.21.4,1.07.24,1.32,1.15,1.74,1.97.44.86,1.18,1.24,2.2,1.4.94.14,1.77.78,2.75,1.05,1.75.49,3.31.19,4.78-.68,2.05-1.23,3.91-2.78,5.89-4.06,4.19-2.71,6.85-6.8,10.26-10.21.94-.94,2.02-1.74,3.53-2.55-.52,2.02-.91,3.74-1.42,5.41-.92,3.03-2.01,6-2.81,9.07-.89,3.42-1.23,6.89-1.41,10.39-.15,2.9-1.07,5.67-1.38,8.55-.18,1.62-.24,3.23,0,4.84.12.81.42,1.56,1.09,2.12.42.35.75.77.98,1.28,1.82,3.89,5.35,4.38,9.02,4.41,2.63.02,5.13-.63,7.22-2.37,2.16-1.81,4.36-3.62,5.87-6.02,2.55-4.05,4.13-8.53,5.48-13.1.21-.71.42-1.39.43-2.14,0-.24.08-.59.43-.59.27,0,.34.28.42.49.25.68.58,1.36.72,2.07.56,2.68,1.61,5.21,2.63,7.7.81,1.97,1.89,3.88,2.99,5.74.57.95,1.64,1.79,1.18,3.35.62-.55.88-.19,1.18.2,1.26,1.65,2.46,3.35,3.86,4.9.32.35.58.74,1.15.57.1-.03.21-.01.32-.02-.1,1.06.86.55,1.22.85,1.12.95,2.6.85,3.83,1.49,1.77.93,2.99.41,4.3-1.15,1.77-2.11,2.13-4.53,2.03-7.12-.07-1.68.41-3.3.84-4.86.64-2.29.43-4.44-.12-6.67-.63-2.56-1.31-5.12-1.7-7.73-.48-3.22-1.21-6.33-2.6-9.3-1.05-2.23-1.92-4.55-2.84-6.84-.61-1.51-1.7-2.75-2.41-4.2-.1-.2-.27-.46-.21-.62.13-.32.48-.18.72-.13,1.02.22,1.85.81,2.76,1.29,1.91,1.02,3.6,2.37,5.52,3.35,1.37.7,2.48,1.77,3.64,2.79,1.34,1.18,2.75,2.3,4.12,3.46.78.65,1.21,1.57,1.81,2.29,1.05,1.26,1.25,2.99,2.66,4.07.61.47.57,1.76.89,2.66.56,1.55.93,3.16,1.83,4.6.6.95.56,2.21.55,3.3,0,1.28.28,2.53.21,3.8-.02.31.24.45.43.65.25.26.42.56.16.93-.71,1.01-.47,2.02-.02,3.04.57,1.3.25,2.67.21,4-.04,1.3-.29,2.62-.65,3.87-.94,3.27-1.67,6.6-3.04,9.75Z"/>
          <path d="M49.91,27.53c-.73-.5-1.71-.19-2.49-.7,1.02-.51,2.13-.17,2.46.72,0,0,.03-.02.03-.02Z"/>
          <path d="M46.59,97.02c.19.45.22.71.34.77.26.13.33-.15.32-.32-.02-.9.53-1.6.86-2.36.45-1.07,1.11-1.2,1.97-.41.57.52.76.3,1.13-.19.33-.42.81-1.1,1.22.08.23.68,1.34.73,1.42,1.72.04.49.22.98.05,1.46-.73,2.04-.89,4.2-1.43,6.28-.34,1.32-1.31,2.11-2.62,1.93-1.1-.15-2.22-.38-3.26-.77-.62-.24-1.08-.86-.96-1.67.3-2.06.6-4.12.95-6.51Z"/>
          <path d="M93.19,114.89c-1.03-.16-1.59-1.11-2.49-1.5-.36-.15-.46-.57-.52-.98-.28-2.19-.09-4.37.17-6.55.03-.28.15-.52.47-.59.32-.07.4-.28.42-.59.02-.37-.51-.94.11-1.07.59-.12,1.32-.48,1.87.08.42.42.72.56,1.25.14.35-.28,1.6.88,1.89,1.56.36.84.2,1.84.84,2.6.25.3-.11.59-.23.9-.31.83-.85,1.73,0,2.59.09.09.17.37.13.4-1.03.77-.46,2.61-2.12,3.03-.67.17-1.2.39-1.8-.03Z"/>
          <path d="M23.87,158.19c-2.07-.71-2.61-1.47-2.53-3.85.03-.92.21-1.84.23-2.76.02-.92,1.05-1.43.88-2.47-.07-.4,1.39-.59,1.82-.29.36.25.69.66,1.26.11.43-.42,2.26.36,2.52,1,.77,1.85.97,3.76.47,5.71-.11.45-.2.88-.21,1.36-.01.81-.37,1.29-1.34,1.34-1,.05-1.98.11-3.1-.16Z"/>
          <path d="M39.51,69.37c.38,1.06,0,1.86-.05,2.68.71-1.29.85-2.73,1.21-4.12.37-1.42,1.08-1.68,2.26-.86.39.27.63.13.91-.1.64-.53,1.2-.74,1.56.3.08.24.25.49.56.52.35.04.86-.55,1.01.21.17.87.66,1.81.05,2.63-.95,1.25-1.4,2.71-1.95,4.13-.55,1.42-1.53,1.84-2.91,1.17-.52-.26-1.03-.52-1.61-.61-.48-.07-.92-.18-.94-.8,0-.11-.06-.29-.12-.31-1.77-.37-.85-1.65-.81-2.55.04-.73.28-1.48.83-2.29Z"/>
          <path d="M112.45,80.75c.14-.37.2-.74.07-1.13-.13-.39-.14-.77.27-1.02.44-.27.94-.32,1.27.08.52.61.89.37,1.33-.05.37-.35.74-.34,1.11.04,1.94,2,3.78,4.07,4.73,6.76.16.47.28.96.39,1.44.13.59.72,1.47-.68,1.2-.58,1.06-1.54.68-2.42.68-1.44-.01-2.55-.67-3.07-1.99-.84-2.1-1.64-4.22-3.01-6.05l.02.04Z"/>
          <path d="M36.47,134.7c.18-1.41,1.73-1.63,2.36-2.65.08-.12.52,0,.78-.03.65-.11.01.93.67.76.39-.11.68-.52,1.17-.4.8.2,1.41.62,1.63,1.44.15.56.25,1.11.5,1.65.37.8-.73,4.69-1.42,5.24-.81.64-1.86.4-2.65.29-1.09-.15-2.35-.21-3.23-1.27-.42-.5-.62-.9-.58-1.51.08-1.21.55-2.33.76-3.5Z"/>
          <path d="M18.76,127.72c.28-1.42-.13-2.77-.53-4.08-.21-.7-.13-1.27.05-1.9.17-.57.49-.75,1.03-.42.29.18.62.53.93.36,2.28-1.2,3.17.94,4.64,1.81,1.66.98,1.42,2.5,1.48,3.99.01.36.01.63-.49.49-.63-.17-.88.24-.89.75-.01.85-.5,1.11-1.22,1.21-.57.08-1.13.24-1.7.3-1.34.13-2.25-.48-2.71-1.79-.12-.34-.23-.65-.62-.76l.02.04Z"/>
          <path d="M58.03,142.34c.16-.52.43-1.07,1.04-1.35.47-.22.65-.5.66-1.07,0-.93.88-1.41,1.73-1.05.25.1.52.31.77.16,1.18-.7,1.95-.01,2.73.74.41.4.86.76,1.26,1.17.51.53.59,1.11.24,1.8-.58,1.17-1.26,2.28-1.9,3.41-.64,1.14-1.99.67-3.06.71-.31.01-.61-.26-.93.06-.17.17-.43.1-.65,0-1.17-.52-2.38-3.34-1.89-4.59Z"/>
          <path d="M26.57,35.68c.28.1.53.27.88.19,1.25-.27,2.47.64,3.2,1.57,1.1,1.4.53,1.99-.65,2.79-.85.58-1.23,1.66-1.72,2.57-.22.42-.46.83-.9.76-.83-.14-1.65.02-2.49-.08-1.07-.12-1.12-1.25-1.98-1.48-.14-.04-.34-.56-.74-.71-.61-.23-.39-.81-.27-1.19.23-.73.58-1.42.9-2.11.15-.32.35-.62.76-.62.39,0,.47-.28.59-.59.5-1.28,1.14-1.56,2.41-1.1Z"/>
          <path d="M82.5,94.95c-1.79-.59-2.52-1.65-2.69-3.56-.11-1.3.03-2.6-.24-3.89-.21-1.03.46-1.5,1.48-1.11.45.17.78.37,1.22-.09.32-.33.82-.12,1.2.06,2.38,1.14,3.46,3.13,3.2,5.82-.02.15-.04.31-.06.46-.11.71.25,1.8-.35,2.06-.92.39-2,.73-3.08.44-.22-.06-.45-.11-.67-.17Z"/>
          <path d="M77.52,148.49c.5-.7,1.08-1.53,1.69-2.34.1-.13.44-.28.49-.23,1.14,1.12,2.56-.4,3.77.43.59.4,1.94,2.53,1.73,3.24-.26.89-.49,1.78-.65,2.7-.21,1.19-.83,1.35-2.07,1.57-1.26.22-2.19,0-3.25-.64-1.82-1.11-2.44-2.51-1.72-4.73Z"/>
          <path d="M33.65,108.91c.54.19.83.37,1.21.29,1.13-.23,1.82.31,2.23,1.42.77,2.09.45,4.16.04,6.25-.06.33-.18.61-.57.62-1.13.03-2.26.05-3.38.07-.42,0-.59-.32-.77-.62-.29-.48-.45-1.06-1.2-1.08-.34,0-.55-.4-.45-.69.39-1.09-.09-2.21.18-3.31.12-.49.09-.98.74-1.15.37-.1.43-.49.39-.87-.13-1.26-.08-1.3,1.13-1.05.22.05.44.11.44.11Z"/>
          <path d="M72.05,107.01c-.52,1.29-.59,2.42-.63,3.53-.02.69-.34,1-.99,1-1.08-.01-2.15-.05-3.23-.07-.08,0-.22-.02-.22-.03-.08-1.32-1.93-1.34-1.93-2.86,0-1.81.28-3.44,1.41-4.86.62-.78,1.47-.86,2.27-.33.47.31.75.44,1.12-.1.41-.59,1.04-.14,1.16.12.53,1.21,1.98,2.24,1.03,3.6Z"/>
          <path d="M23.78,71.66c-.62,1.86-1.14,3.44-1.66,5.02-.28,0-.3-.21-.33-.39-.03-.17-.06-.35-.11-.64-.71,1.54-1.62,1.9-2.89,1.11-.75-.47-1.23.04-1.89.27-.53-2.12-.53-4.18.39-6.17.37-.81.48-1.81,1.53-2.17.73-.25,1.48-.97,1.93.34.06.18.28.2.49.23,1.31.16,1.72.51,1.43,2.08-.22,1.19.36.64,1.13.33Z"/>
          <path d="M45.47,162.21c-.35,1.22-.9,1.47-2.07,1.34-1.54-.17-2.84-.77-4.05-1.7-.5-.38-.63-.86-.74-1.37-.29-1.34.22-2.58.64-3.81.11-.33.42-.65.74-.68,1.12-.09,2.4-.45,3.34-.05,1.6.66,2.57,2.08,2.32,3.97-.11.8.25,1.63-.19,2.3Z"/>
          <path d="M76.34,130.27c-1.3-.14-1.95-.82-2.24-1.89-.39-1.44-.87-2.88-.3-4.4.23-.62,1.56-1.65,2.16-1.49,1.3.33,2.62.67,3.68,1.54.59.49.82,1.18.7,1.98-.16,1.06-.25,2.13-.42,3.19-.11.68-.29,1.18-1.26,1.1-.81-.06-1.65.6-2.32-.04Z"/>
          <path d="M62.51,167.49c-.16.6-.5.96-1.23.87-.84-.1-1.69-.1-2.53-.1-.31,0-.5-.11-.69-.34-.45-.56-.84-1.15-1.76-1.04-.52.06-.61-.52-.61-.95.01-.85.04-1.69.12-2.53.03-.33.11-.72.49-.86.38-.13.49-.37.54-.77.13-.93.93-1.24,1.8-.74.28.16.45.56.89.35.37-.18.72-.66,1.14-.37.53.37,1.19.81,1.37,1.36.54,1.65,1.51,3.3.47,5.12Z"/>
          <path d="M105.66,99.39c-.41-.68.03-1.06.56-1.4.58-.37,1.09-.27,1.57.19.28.27.57.44,1,.47,1.17.09,1.81.83,2.12,1.92.64,2.24.02,4.33-.79,6.38-.15.37-.48.56-.84.38-.74-.37-1.52-.46-2.32-.56-.82-.1-.96-.77-.99-1.47-.05-1.42-.16-2.85-.14-4.27,0-.91-.47-1.2-1.22-1.33-.19-.03-.57.42-.54-.18.02-.39.31-.48.68-.4.29.07.47.43.93.24Z"/>
          <path d="M22.32,100.8c-.42,1.29-1.72,2.17-2.95,2.14-.15,0-.31,0-.45.02-.38.08-.63.72-1.11.34-.58-.46-1.11-1.06-1.19-1.79-.2-1.71-.3-3.43-.37-5.15-.03-.85.58-1.07,1.25-.77.77.34,1.5,1.17,2.11-.18.04-.09.28-.14.41-.12,1.41.22,2.99,2.84,2.58,4.25-.14.48-.21.97-.27,1.27Z"/>
          <path d="M51.35,126.27c-1.67-.54-1.7-1.94-1.92-3.14-.2-1.09-.12-2.22-.17-3.33-.02-.46.14-.86.55-1.06.38-.19.64.14.9.36.62.51,1.24,1.11,1.72-.15.08-.21.54-.33.58-.21.42,1.12,2.11.88,2.3,2.46.16,1.38.42,2.68.05,4.07-.19.7-.47.98-1.22,1.09-1.02.14-1.99-.07-2.8-.09Z"/>
          <path d="M118.56,66.44c.34,1.63-.75.81-1.44.75-.54-.05-1.08-.12-1.61-.06-1.32.15-2.05-.66-2.73-1.57-1.06-1.4-1.86-2.91-2.21-4.66-.13-.65,0-1.11.57-1.32.55-.21,1.15-.25,1.32.61.06.32.32.69.76.39.34-.23.63-.77,1.04-.56.57.29,1.14.71,1.51,1.22.99,1.37,1.86,2.83,2.8,4.24.21.31.43.56,0,.95Z"/>
          <path d="M35.21,87.54c-.71,2.28-2.95,2.95-4.78,1.44-.09-.07-.17-.22-.26-.21-.8.03-1.55-.1-1.52-1.09.04-1.34-.33-2.83,1.02-3.84.31-.23.56-.53.88-.74.31-.2.82-.53,1-.08.42,1.08,1.34.76,1.93.64,1.02-.21,1.16.12,1.07.97-.03.3.07.61.11.91.02.11,0,.26.07.33.75.78.75.78.47,1.67Z"/>
          <path d="M18.74,59c-1.75.15-2.23-1.44-3.22-2.29-.33-.28-.35-.75-.29-1.19.23-1.66,1.76-2.45,3.2-1.65.25.14.41.02.63-.04,1.33-.4,2.22.33,2.55,1.6.29,1.1-.15,2.14.05,3.2.06.3-.18.67-.4.59-.85-.3-1.73.15-2.52-.21Z"/>
          <path d="M94.08,132.81c-1.9-.74-3.37-3.97-2.81-5.6.31-.9.86-1.1,1.69-.59.3.18.6.54.92.36.74-.41,1.28-.33,1.78.37.36.51.86.84.93,1.62.08.89.5,1.76.59,2.69.04.44-.04.87-.46.93-.97.15-1.96.17-2.64.22Z"/>
          <path d="M86.19,150.84c-.13.33-.21.79-.48.62-.66-.42-.26-1.11-.2-1.69.03-.3.19-.77.52-.55.64.44.08,1.12.16,1.61Z"/>
          <path d="M18.74,127.67c-.2.39-.47.96-.77.17-.29-.75-.31-1.6-.35-2.43.73.62.49,1.67,1.13,2.31,0,0-.02-.04-.02-.04Z"/>
          <path d="M112.43,80.71c-.19,1.07.84,1.89.58,3.34-.5-1.23-.99-2.15-1.23-3.12-.13-.54.36-.42.67-.17,0,0-.02-.04-.02-.04Z"/>
          <path d="M90.59,129.82c-.33-.68-.81-1.35-.08-2.03.09.68.04,1.35.08,2.03Z"/>
        </g>
      </g>
      <path d="M8.86,150.9c-.13,7.64,4.58,14.51,5.98,22.02"/>
    </g>
  </g>
</svg>