<?xml version="1.0" encoding="UTF-8"?>
<svg id="Layer_2" xmlns="http://www.w3.org/2000/svg" viewBox="0 0 254.83 413.12">
  <g id="Layer_3">
    <g id="barometz2">
      <path d="M153.28,299.23c-.16.94-.13,1.69-.1,2.45.85-.16,1.95-.04,2.52-.52,6.2-5.16,12.55-10.19,18.35-15.74,2.49-2.39,3.84-5.91,5.65-8.94.28-.47.55-1.27.33-1.63-1.27-2.04-1.33-4.39.91-5.1,1.8-.57,4.48.06,6.23,1.06,5.99,3.4,9.79,8.87,12.96,14.66,3.06,5.59,4.66,11.57.94,17.41-1.4,2.2-3.78,4.33-6.22,5.27-4.62,1.79-9.52,3.19-14.44,3.87-6.85.95-13.81,1.1-20.73,1.56-.85.06-1.72-.11-2.58-.08-1.28.05-2.56.19-3.84.28.24,1.55-.01,3.45.83,4.58,1.04,1.39,2.86,2.53,4.58,3.1,5.7,1.9,11.81,2.89,17.2,5.36,8.48,3.88,14.64,10.27,16.89,19.44.67,2.75.53,5.69.82,8.53.55,5.42,3.94,9.41,7.23,13.46.74.9,1.69,1.76,2.06,2.8.44,1.23.35,2.63.49,3.96-1.37-.34-3.31-.23-4.02-1.08-5.74-6.9-11.11-14.04-11.02-23.54.07-7.24-4.25-12.04-9.5-16.47-6.24-5.27-14.64-5.6-21.58-9.24-.57-.3-2.06.44-2.7,1.09-.46.47-.62,1.99-.23,2.34,1.99,1.83,3.98,3.88,6.38,5.02,5.24,2.5,8.17,6.71,10.57,11.53.87,1.74,1.37,3.68-.82,4.46-1.91.68-3.16-.53-3.94-2.6-2.16-5.77-6-9.92-12.29-12.01-2.49-.83-2.42.11-2.63,1.66-.74,5.28,1.59,9.4,4.99,13.29,1.46,1.67,3.27,4.06,3.05,5.91-.61,5.26,1.41,9.24,5,12.62,7.45,7.02,7.78,16.12,7.83,25.18.02,3.21-1.57,6.4-2.06,9.65-.34,2.3-.04,4.68-.08,7.02-.02,1.1-.17,2.19-.27,3.28-1.16-.77-2.86-1.28-3.37-2.34-1.61-3.37-1.7-7.09-.5-10.55,2.65-7.66,2.57-15.21-.41-22.66-1.04-2.6-2.75-4.96-4.24-7.38-.31-.49-1.03-.74-1.56-1.11-.3.61-.83,1.21-.85,1.82-.09,3.15-.1,6.3-.02,9.45.05,2.05-.62,3.95-2.84,3.62-1.79-.27-2.12-1.81-1.88-4.11.78-7.61,1.11-15.31.72-22.94-.13-2.59-2.76-5.16-4.53-7.54-3.43-4.59-4.96-9.3-3.61-15.12,1.22-5.27,4.07-10.55,1.61-16.21-.33-.75-.82-1.44-1.24-2.16-.58.74-1.42,1.39-1.69,2.22-.64,1.94-1.18,3.94-1.46,5.96-1.09,7.82-2.06,15.66-3.1,23.49-.77,5.77,1.14,10.87,3.63,16,1.22,2.5,1.28,5.59,1.52,8.44.07.8-1.07,1.7-1.66,2.56-.66-.75-1.95-1.55-1.89-2.24.5-5.91-4.33-10.04-5.26-15.36-.75-4.26-.88-8.65-1.01-12.98-.13-4.13.03-8.27.19-12.4.21-5.32-1.01-10.87,2.44-15.76.1-.14-.79-1.36-1.33-1.44-3.49-.51-8.65,4.89-7.87,8.15.98,4.09,2.89,8.18,2.8,12.24-.16,7.78-.51,15.75-6.99,21.86-4.34,4.09-3.9,4.08-.57,8.84,2.79,3.99,5.07,8.36,7.13,12.75.77,1.65.28,3.86.35,5.81.05,1.31.33,2.68.05,3.92-.33,1.45-1.15,2.79-1.76,4.17-1.09-1-2.64-1.82-3.13-3.04-.55-1.37-.38-3.15-.08-4.67,1.03-5.31-1.84-9.36-4.36-13.54-.83-1.37-1.6-2.84-2.73-3.95-.41-.4-2.46-.11-2.6.26-.74,2.02-1.42,4.14-1.56,6.27-.66,9.7.72,19.32,1.39,28.97.11,1.55-.44,3.18-.88,4.72-.12.42-1.09,1.04-1.37.92-1.05-.46-2-1.15-2.92-1.84-.18-.14-.01-.7-.03-1.06-.5-9.98-1.39-19.96-1.36-29.94.02-7.11,2.39-13.84,7.98-18.9,5.68-5.14,9.6-10.85,8.41-18.83-.23-1.57-.13-3.19-.18-4.78-1.31,1.13-2.71,2.18-3.91,3.41-3.55,3.63-4.77,8.25-5.68,12.98-.11.55-.31,1.09-.43,1.64-.36,1.68-.93,3.71-3.08,2.7-1.21-.57-2.6-2.84-2.33-4,1.47-6.36,3.71-12.56,8.78-17.13,3.29-2.97,5.21-6.06,4.64-10.57-.3-2.37-.87-5.12,1.88-6.9.06-.04-.65-1.85-1.09-1.88-4.51-.38-9.04-.53-13.55-.82-9.96-.63-19.06-3.15-26.31-10.44-3.57-3.59-4.3-8.06-5.16-12.48-.87-4.46-1.27-9.03-1.47-13.57-.06-1.38.85-3.4,1.98-4.05,1.01-.58,2.74-.53,4.08,1.56,3.67,5.73,10,7.57,16.52,8.42,10.52,1.36,20.62,4.14,29.76,9.29,4.63,2.61,8.53,6.49,12.63,9.94,1.4,1.18,2.33,1.85,3.15-.31,2.67-7.05,5.66-14.01,7.85-21.19,1.47-4.81,1.97-9.93,2.62-14.95,1.41-10.95-2.03-21.22-4.92-31.58-2.16-7.75-4.11-15.56-6.1-23.36-.4-1.58-3.23-2.86-4.73-1.97-1.11.65-2.13,1.43-3.24,2.07-8.46,4.91-17.23,3.81-26.02,1.09-2.74-.85-5.25-2.6-8.03-3.08-7.22-1.25-10.83,3.66-14.44,8.54-5.5,7.45-12.91,11.96-22.46,12.38-5.35.24-6.97-2.5-5.41-7.47,2.67-8.52,5.81-16.97,7.5-25.68,3.11-16.06,13.91-24.47,28.77-29.3,13.56-4.41,25.62-.74,36.71,7.04,3.43,2.4,6.5,5.29,9.76,7.92.52.42,1.31,1.03,1.77.89.5-.15,1.07-1.05,1.09-1.64.55-15.05,7.88-27.77,14.87-40.57,3.3-6.04,3.95-12.63,4.64-19.22.25-2.39-.92-2.87-3.06-1.72-5.82,3.13-15.28,2-20.75-2.35-1.27-1.01-2.67-1.9-4.1-2.69-.58-.32-1.7-.59-2.07-.29-2.4,1.96-5.27,2.3-8.17,2.94-1.48.33-3.2,2.17-3.71,3.68-2.97,8.64-5.84,17.33-8.25,26.13-1.07,3.9-3.21,5.92-7.06,5.99-4.14.07-8.29-.61-12.43-.6-3.65.01-5.55-2.46-7.34-4.68-2.63-3.26.37-6.14,1.51-9.09.32-.84.81-1.61,1.22-2.42-.99-.2-1.97-.5-2.98-.58-1.24-.1-2.5-.05-3.75-.02-5.01.1-8.08-5.36-6.37-9.43,2.92-6.94,6.1-13.79,9.25-20.64,1.05-2.28.17-4.21-.2-6.46-.83-5.14-3.99-4.69-7.6-4.19-6.82.95-14.84-6.66-13.89-13.58.39-2.79.61-5.61.72-8.42.03-.83-.56-1.69-.87-2.53-.69.56-1.58,1-2.04,1.71-7.23,10.96-16.97,19.57-28.78,25.25-8.27,3.98-17.71,5.62-26.92,1.39C3.31,94.52.55,88.71.06,81.35c-.43-6.44,1.48-12.29,3.79-18.13,1.98-5,4.19-9.56,8.69-13.3,3.3-2.74,4.47-7.74,7.43-11.03,8.31-9.26,17.34-17.92,25.51-27.29,4.42-5.07,9.64-8.29,16-9.95,11.68-3.05,22.88-2.12,33.08,4.7,2.97,1.98,5.07,3.25,9.01.55,7.33-5.03,21.38-2.38,24.91,6.79.34.9,1.2,1.61,1.82,2.4.35-.95.86-1.87,1.03-2.85.61-3.66,6.51-5.98,11.3-4.76,4.15,1.06,6.23,3.71,7.6,7.36.28.74,1.39,1.19,2.12,1.78.25-.8.73-1.6.71-2.39-.12-6.83,2.17-10.26,8.95-11.3,5.26-.81,9.06,2.35,12.1,6.29.46.59,1.09,1.06,1.64,1.59.2-.73.52-1.45.57-2.18.36-5.44,4.53-9.12,10.06-9.5,10.07-.69,16.11,5.61,21.8,11.97,1.95,2.18,3.46,1.91,5.51,1.67,6.09-.73,11.79.35,16.51,4.2,5.17,4.21,6.44,9.77,4.65,16.05-.59,2.08-1.95,4.6-1.23,6.18.63,1.38,3.79,1.54,5.66,2.53,7.13,3.78,11.78,10.43,7.59,18.9-.63,1.28-1.17,2.1.92,3.43,6.4,4.07,9.28,13.56,5.02,20.75-.41.69-.86,1.77-1.46,1.9-5.04,1.08-3.87,4.7-2.92,7.54,1.71,5.09-.23,9.33-2.84,13.21-1.8,2.67-2.08,4.94-1.04,7.75,1.86,5.04,3.36,10.2,7.67,14.04,1.4,1.25,1.83,2.72.13,4.8-2.46,2.99-4.25,6.29-7.84,8.53-4.37,2.72-9.88,2.13-12.19.01-3.49-3.2-5.95-2.62-9.47-1.64-3.29.92-5.8-.72-7.48-3.31-3.6-5.56-6.82-11.37-10.62-16.79-1.78-2.54-4.39-4.62-6.97-6.45-.65-.46-3.13.45-3.91,1.4-3.72,4.52-7.85,6.14-13.43,4.85-1.5-.34-3.09-.82-4.54-.63-.93.13-2.43,1.38-2.44,2.13-.07,12.29-6.84,22.14-11.94,32.7-3.36,6.97-5.16,14.64-7.67,22-.47,1.38-1.12,2.72-1.43,4.14-.12.54.46,1.23.72,1.85.53-.3,1.18-.49,1.57-.91.71-.76,1.51-1.58,1.84-2.52,2.08-5.9,7.65-7.91,12.47-10.8,8.36-5,17.33-8.02,27.19-6.46,13.11,2.07,24.57,7.52,34.82,16,10.25,8.48,14.65,19.47,17.32,31.6.19.88.3,1.86.78,2.59,1.31,2,.15,3.45-1.33,4.27-.97.54-2.61.28-3.84-.03-5.65-1.44-7.47-7.12-11.74-10.11-2.09-1.47-4.18-3.1-6.53-4.01-1.49-.58-3.51-.14-5.24.15-4.05.69-8.06,1.64-12.11,2.35-4.2.74-8.42,1.45-12.66,1.95-4.09.48-8.36.14-12.31,1.09-7.21,1.73-13.49-.88-19.89-3.08-2.49-.86-4.72-2.4-7.07-3.63-.78-.41-1.56-.84-2.34-1.26-.33.96-1.07,1.99-.91,2.87.86,4.83,1.86,9.65,2.95,14.44,2.45,10.76,4.86,21.53,7.53,32.25,1.88,7.57-.8,14.73-1.49,22.08-.89,9.46-5.3,17.75-8.86,26.59M73.61,78.34c.5,1.98.54,4.25,1.62,5.88,1.37,2.07,3.29,4.46,5.51,5.19,3.05,1,5.15-1.41,6.73-4.03.75-1.24,2.28-2.04,3.46-3.04.98,1.24,2.18,2.39,2.85,3.77.43.89,0,2.15.1,3.23.19,2.09-.05,4.42.85,6.19,1.7,3.34,4.04,6.5,8.29,7.13,3.88.58,6.25-1.52,8.17-4.59.73-1.16,2.36-1.78,3.58-2.65,1.03,1.44,2.66,2.77,2.97,4.34.73,3.78,1.82,7.5,5.21,9.46,2.5,1.44,6,2.43,8.72,1.93,2.31-.42,3.69-3.38,3.56-6.37-.04-.9,1.57-2.73,2.17-2.63,1.26.21,3.07,1.19,3.4,2.22,1.6,5.02,5.55,8.04,9.93,9.91,3.14,1.33,7.55,1.83,10.65.73,3.58-1.27,2.48-5.2,1.58-8.41-.31-1.13.63-2.58,1.01-3.89,1.44.42,3.48.41,4.21,1.35,1.85,2.41,3.1,5.26,4.63,7.92,2.92,5.07,5.93,5.84,11.17,5.17,5.15-.66,6.5-3.06,6.71-8.92.06-1.59,1.12-3.16,1.72-4.73,1.55.73,3.43,1.12,4.57,2.24,3.35,3.27,5.81,7.42,10.78,8.94,2.99.91,7.7.09,9.93-2.27,2.34-2.47,2.92-4.98.72-8.03-1.52-2.11-.07-4.15,2.68-3.77,1.52.21,2.97,1.24,4.33,2.08,2.48,1.55,4.75,3.46,7.34,4.8,2.74,1.42,5.78,1.32,8.09-.88,2.66-2.53,4.35-5.23,3.21-9.49-.93-3.48-2.89-5.11-5.69-6.77-1.45-.86-3.57-2.99-3.27-3.83.64-1.78,2.52-2.27,4.99-1.41,3.64,1.27,8.71-.92,9.48-3.65,1.71-6.11-2.11-14.72-10.24-14.4-1.25.05-2.66.36-3.71-.08-1.63-.68-3.02-1.9-4.51-2.89,1.41-.95,2.8-2.68,4.23-2.7,3.83-.06,6.19-1.56,7.13-5.02.77-2.83-.41-5.15-2.44-7.25-3.47-3.59-8.29-3.47-12.65-4.66-1.35-.37-3.12-1.14-3.57-2.18-.35-.81.74-2.66,1.7-3.49,3.27-2.83,5.29-5.81,5.01-10.46-.27-4.39-3.41-8.26-7.63-9.51-3.77-1.11-7.55-1.2-10.7,2.15-3.67,3.9-5.89,3.38-7.24-1.83-1.67-6.45-5.63-10.68-11.78-13.28-5.52-2.33-10.57-.49-11.94,4.71-.77,2.94-.05,6.31.33,9.45.28,2.29-.41,3.83-2.68,4.14-1,.14-2.65-.54-3.16-1.34-2.2-3.44-3.98-7.13-6.12-10.61-1.72-2.79-5.16-3.89-7.67-2.77-3.73,1.67-5.01,4.4-3.88,8.22.64,2.17,1.44,4.33,1.74,6.55.15,1.12-.39,3.18-1.06,3.37-1.16.33-3.14-.03-3.92-.86-3.23-3.45-6.31-7.07-9.12-10.85-1.89-2.54-4.34-3.08-7.09-2.55-2.35.46-3.43,2.1-3.55,4.62-.12,2.48-.81,4.96-1.45,7.39-.64,2.44-2.24,2.48-3.6.67-1.28-1.71-2.15-3.72-3.11-5.64-3.42-6.87-7.36-11.77-16.48-10.77-5.2.57-6.73,3.41-3.86,7.58,5.55,8.08,11.21,16.08,16.64,24.23,1.55,2.33,3.72,5.2,3.43,7.57-.72,5.82-6.19,8.41-10.73,8.68-10.08.62-18.33-3.52-26.28-8.79-1.1-.73-3.62-1.22-4.2-.64-3.15,3.2-6.51,6.46-8.65,10.29-3.27,5.85-3.39,12.51-3.14,19.81M108.47,51.8c2.27.23,4.62.95,6.78.58,4.31-.75,5.11-2.77,2.66-6.63-3.63-5.72-7.5-11.31-11.37-16.89-3.37-4.85-6.24-10.24-10.47-14.26-7.01-6.66-15.82-10.35-25.91-9.24-4.76.52-9.77,1.22-12.86,5.78-.53.78-2.05.93-3.1,1.4-1.26.56-2.79.88-3.71,1.78-4.87,4.77-9.56,9.72-14.38,14.55-1.66,1.67-3.74,2.98-5.2,4.78-4.37,5.35-8.71,10.74-12.71,16.34-3.52,4.94-7.41,9.88-9.61,15.39-2.32,5.82-3.38,12.21-1.81,18.72,1,4.16,6.19,10.34,10.24,10.54,6.85.33,13.86-.28,19.71-3.73,5.9-3.48,11.57-7.71,16.35-12.54,8.59-8.69,16.43-18.06,22.44-28.73.91-1.62,2.16-3.34,3.73-4.25,2.64-1.54,1.66-3.07.96-5.08-1.6-4.58-3.06-9.22-4.28-13.91-.53-2.06-.09-4.32,2.83-4.37,2.69-.04,4.03,1.24,3.95,4.18-.07,2.49.71,5,1.14,7.5,1.03,5.96,6.06,8.98,10.41,12,3.96,2.75,8.94,4.11,14.22,6.08M226.96,197.24c4.82,3.11,10.88,4.73,13.33,10.68.39.94,1.47,1.62,2.23,2.41.18-1.34.38-2.68.51-4.02.02-.15-.4-.31-.49-.52-3.96-9.01-8.71-17.41-16.87-23.7-12.04-9.28-24.96-15.54-40.95-13.23-7.57,1.09-14.05,4.32-19.66,9.2-3.23,2.81-6.04,6.08-9.3,8.86-2.15,1.84-2.23,3.49-1,5.8,4.34,8.17,19.42,14.3,28.87,11.63,8.56-2.41,16.97-5.04,25.11-8.77,5.62-2.57,12.16-2.59,18.22,1.66M131.35,205.6c5.94-.98,9.89-4.27,12.01-9.71.45-1.15.79-2.42,1.55-3.36,2.17-2.71.99-4.71-1.03-6.81-7.16-7.41-16.46-11.25-26-14.64-9.24-3.29-17.57-1.72-24.05,5.59-5.05,5.7-9.38,12-14.24,17.87-5.68,6.85-6.36,15.41-8.88,23.34-.18.56,1.21,2.21,1.38,2.15,5.07-1.96,10.42-4.27,11.83-9.72,1.31-5.07,3.64-9.32,6.83-13.28,3.38-4.2,6.84-4.66,11.51-1.39,3.13,2.19,5.93,4.81,8.97,7.13,1.27.97,2.7,1.85,4.2,2.44,5.07,1.99,10.29,1.97,15.93.4M100.98,304.86c4.21.97,8.38,2.54,12.63,2.78,8.09.45,16.23.16,24.35.1,1.27,0,2.55-.42,3.81-.7,1.96-.43,1.61-1.26.39-2.25-1.77-1.44-3.49-2.93-5.26-4.36-6.63-5.38-14.06-9.38-22.42-11.52-8.24-2.11-16.55-3.98-24.88-5.76-.93-.2-3.07.87-3.09,1.39-.08,3.45-.43,6.81,1.58,10.22,2.9,4.91,7.4,7.53,12.89,10.11M183.09,282.68c-5.25,9.52-14.23,15.3-22.85,21.45-1.44,1.02-2.77,2.19-4.14,3.28,1.74.12,3.48.24,5.22.36.37.02.75,0,1.12,0,9.52.05,18.83-1.32,28.04-3.62,4.03-1.01,8.18-5.42,7.46-8.48-1.26-5.36-3.17-10.48-7.37-14.46-1.38-1.31-2.79-2.6-4.19-3.89-.97,1.67-1.94,3.34-3.29,5.37M115.6,137.97c1.58-6.38,3.05-12.79,4.81-19.13.66-2.39.64-4.17-1.38-6.01-1.89-1.72-3.32-3.91-4.91-5.92-.47-.6-.79-1.32-1.18-1.98-.61.6-1.49,1.1-1.78,1.82-1.12,2.7-1.94,5.51-3.07,8.21-2.91,6.94-5.98,13.81-8.86,20.76-.99,2.39-2.32,4.96-2.2,7.39.2,4.1,3.68,4,7.04,4,10.64,0,9.58-1.17,11.54-9.14M238.95,140.52c6.94-1.38,8.65-5.34,5.09-11.13-1.82-2.97-3.66-6.08-4.6-9.37-1.3-4.54-2.82-8.19-8.61-7.9-.5.03-1.01-.56-1.56-.67-1.7-.36-3.42-.63-5.13-.94-.03,1.79-.73,3.92.02,5.32,4.17,7.78,8.68,15.38,13.11,23.03.29.51.86.87,1.68,1.66Z"/>
      <path d="M58.61,39.44c-1.06,4.2-3.97,6.27-7.72,6.43-4.35.19-9.41-4.01-10.27-7.71-.9-3.86,2.15-8.25,7.17-8.79,7.96-.85,15.85-.25,21.51,6.38.87,1.02.67,2.9.97,4.38-1.53-.01-3.2.34-4.55-.14-1.39-.49-2.56-1.71-3.68-2.76-3.33-3.13-3.43-.79-3.42,2.2Z"/>
    </g>
  </g>
</svg>