<?xml version="1.0" encoding="UTF-8"?>
<svg id="Layer_2" xmlns="http://www.w3.org/2000/svg" viewBox="0 0 177.78 399.58">
  <g id="Layer_3">
    <g id="pan">
      <path d="M167.69,0c8,1.79,12.33,9.81,8.92,16.77-5.14,10.49-10.06,21.1-14.9,31.73-2.29,5.03-4.35,10.19-6.24,15.39-6.14,16.95-12.16,33.94-18.2,50.92-1.3,3.66-2.56,7.35-3.71,11.06-4.75,15.34-8.1,30.92-10.17,46.92-1.49,11.5.71,22.18,2.42,33.23,2.02,13.09,2.23,26.11-.49,39.45-2.91,14.29-4.37,28.83-9.34,42.7-4.86,13.54-8.5,27.55-13.99,40.81-7.52,18.14-18.11,34.66-30.35,50.04-11.24,14.12-25.98,21.17-44.02,20.52-11.16-.41-19.71-6.55-25.28-15.61-2.42-3.95-2.67-10.06-2-14.93,2.1-15.21,5.18-30.23,10.38-44.82,2.05-5.73,2.08-12.35,2.17-18.58.18-12.35,5.11-22.68,11.99-32.52,3.23-4.62,6.04-9.68,8.17-14.9,6.31-15.42,11.88-31.16,21.5-45,1.18-1.69,1.68-3.86,2.47-5.82,2.59-6.41,8.55-8.86,13.68-12.67,9.27-6.89,19.41-13.29,25.38-23.7,2.2-3.83,3.23-8.39,4.37-12.74,1.63-6.21,2.54-12.62,4.33-18.77,5.75-19.74,11.38-39.53,17.86-59.03,3.18-9.56,7.97-18.62,12.37-27.74,3.07-6.36.7-12.73.77-19.07.15-13.21,5.92-22.92,17.62-28.78,4.35-2.18,9.31-3.17,14.3-4.87M68.06,374c2.24-2.95,4.31-6.04,6.73-8.83,9.08-10.47,14.78-22.96,20.6-35.28,4.06-8.59,7.1-17.69,10.12-26.72,3.39-10.14,6.25-20.45,9.34-30.69.19-.62.42-1.25.52-1.89,1-7.01,1.68-14.08,3.04-21.01,2.32-11.87,3.82-23.75,1.86-35.78-1.35-8.26-4.83-16.52-4.47-24.65.68-15.15,2.62-30.38,5.64-45.25,2.58-12.7,7.15-25.04,11.31-37.38,4.59-13.6,9.66-27.04,14.62-40.52,2.71-7.38,5.37-14.8,8.52-22,2.79-6.39,6.3-12.47,9.35-18.76,1.76-3.63,3.56-7.31,4.74-11.14,1.41-4.55-1.54-7.76-6.12-6.59-13.78,3.5-23.02,12.79-21.12,29,.52,4.42,1.76,9.46.28,13.28-4.46,11.49-10.67,22.3-15.1,33.8-4.14,10.73-7.05,21.94-10.2,33.03-4.86,17.1-9.36,34.29-14.2,51.39-2.26,7.99-7.15,14.24-13.76,19.24-1.01.76-1.57,2.12-2.34,3.21,1.24.3,2.47.73,3.73.86,5.79.63,11.22,1.66,15.68,6.17,4.54,4.59,3.65,10.3,3.55,15.47-.13,6.42-1.74,12.85-3.08,19.19-1.54,7.23-3.09,14.51-5.39,21.51-1.84,5.61-4.85,10.83-7.27,16.25-3.08,6.93-5.85,14.01-9.19,20.81-4.65,9.47-8.38,18.99-8.08,29.89.1,3.65-1.54,7.86-3.64,10.96-7.78,11.49-18.5,20.56-25.55,32.95-5.21,9.16-13.97,16.29-21.13,24.34-.81.92-1.52,1.93-2.28,2.89,1.19.4,2.36,1.06,3.58,1.15,16.37,1.17,29.28-5.35,39.72-18.9M75.37,237.72c4.79-7.46,9.32-15.12,14.5-22.3,2.58-3.58,6.29-6.35,9.62-9.36.93-.84,2.31-1.2,3.48-1.77-.82-1.16-1.42-2.66-2.52-3.41-1.95-1.33-4.14-2.93-6.36-3.16-10.37-1.06-20.83.56-27.41,8.83-7.43,9.34-13.41,20.01-18.87,30.68-4.31,8.43-6.56,17.9-10.38,26.62-2.23,5.1-5.25,10.05-8.81,14.33-6.93,8.35-10.21,18.12-10.36,28.46-.16,10.91-2.47,21.1-5.49,31.42-2.8,9.55-4.94,19.34-6.59,29.15-.79,4.68-1.18,10.17,2.5,14.04,2.39,2.52,5.93,5.47,8.95,5.47,3.37,0,7.69-1.88,8.44-6.88.99-6.58,1.82-13.24,3.51-19.66,2.77-10.5,6.06-20.87,9.37-31.21,3.47-10.85,7.1-21.64,10.89-32.38,3.72-10.56,7.73-21.02,11.62-31.52.23-.61.45-1.23.73-1.81,4.18-8.4,8.37-16.8,13.2-25.51M100.99,233.68c1.23-7.33,2.53-14.66,3.64-22.01.16-1.07-.51-2.27-.8-3.41-.96.66-2.23,1.1-2.82,2-5.97,9.1-11.44,18.55-17.81,27.36-10.74,14.86-17.16,31.84-23.36,48.68-8.88,24.13-16.05,48.88-23.87,73.4-1.17,3.68-1.97,7.49-2.69,11.3-.16.83.78,1.86,1.21,2.8.81-.43,1.93-.66,2.36-1.33,2.46-3.8,4.97-7.59,7.08-11.58,5.49-10.4,12.23-19.71,21.25-27.43,4.12-3.52,7.08-8.37,6.4-14.12-1.32-11.14,3.73-20.74,7.39-30.49,4.55-12.15,10.78-23.66,15.87-35.62,2.6-6.11,4.33-12.59,6.14-19.54Z"/>
      <path d="M149.11,30.15c1.53-4.3,3.19-8.31,4.95-12.26.29-.65.96-1.43,1.59-1.58,2.38-.56,4.82-.89,7.24-1.3-.52,2.07-.64,4.36-1.64,6.16-1.7,3.07-3.86,5.91-6.02,8.68-1.65,2.11-3.6,4.13-6.12.3Z"/>
    </g>
  </g>
</svg>