<?xml version="1.0" encoding="UTF-8"?>
<svg id="Layer_2" xmlns="http://www.w3.org/2000/svg" viewBox="0 0 235.55 175.13">
  <defs>
    <style>
      .cls-1 {
        fill: #070000;
      }

      .cls-2 {
        fill: #cc0c04;
      }
    </style>
  </defs>
  <g id="Layer_1_xA0_Image">
    <g>
      <path class="cls-1" d="M163.26,71.15c-3.2.23-5.69.35-8.16.61-1.07.11-2.1.61-3.17.74-3.48.42-6-1.04-6.9-3.9-.88-2.78.37-5.52,3.52-7.13,4.43-2.26,9.22-3.82,14.16-3.11,7.03,1,13.85,3.02,19.5,7.66,3.81,3.13,5.62,7.4,4.23,12.14-1.46,5-5.15,8.37-10.37,9.39-6.38,1.24-11.93-3-12.78-9.53-.25-1.95-.04-3.96-.04-6.87Z"/>
      <g>
        <path class="cls-2" d="M72.73,66.97c-4.31-2.94-8.33-5.67-12.29-8.37-9.55,7.2-15.67,16.68-19.86,27.52-1.44,3.72-2.44,7.61-4,11.28-1.85,4.38-1.21,8.49.54,12.63.42,1,.93,1.98,1.24,3.02.79,2.59-.09,4.72-2.29,6.13-2.23,1.43-4.55,1.19-6.53-.57-.93-.82-1.8-1.87-2.3-2.99-2.69-6.02-4.64-12.08-2.71-18.89,3.24-11.43,7.59-22.39,14.13-32.28,2.86-4.33,7.05-7.77,10.63-11.63.48-.52.91-1.09,1.59-1.9-2.25-2.38-4.46-4.73-6.87-7.29-5.18,3.01-10.33,5.92-14.43,10.3-1.1,1.17-2.05,2.54-2.77,3.98-4.65,9.24-9.13,18.56-13.85,27.76-1.61,3.14-1.45,6.27-1,9.53.27,1.98.75,3.95.79,5.93.07,3.03-1.89,5.41-4.55,5.95-2.63.54-5.6-.96-6.27-3.99-1.61-7.23-3.43-14.55.18-21.8,5.09-10.23,9.94-20.6,15.3-30.69,2.86-5.39,7.99-8.82,12.94-12.22,2.37-1.63,4.88-3.06,7.32-4.58-.49-1.49-.84-2.7-1.28-3.89C31.25,15.99,41.69,2.45,54.24.56c6.03-.91,12-.82,17.77,1.08,5.84,1.92,11.63,4.1,17.27,6.55,22.12,9.62,44.09,19.58,66.29,29.03,12.85,5.47,26.31,9.22,39.92,12.38,1.41.33,2.79.79,4.2,1.14,16.28,4.07,26.69,14.68,33.16,29.7,2.13,4.94,2.92,10.11,2.66,15.43-.47,9.52-5.91,15.9-15.2,18.01-.84.19-1.71.29-2.99.51.21,3.32.02,6.44.67,9.38,1.69,7.68,1.29,15.1-1.33,22.51-1.44,4.06-2.38,8.3-3.64,12.79,2.91,1.37,5.5,2.6,8.1,3.8.82.38,1.72.6,2.52,1.01,3.15,1.65,4.51,4.24,3.77,7.05-.77,2.94-3.69,4.9-7.34,3.95-4.87-1.28-9.82-2.78-14.24-5.11-6.26-3.3-6.23-3.83-4.6-10.83,1.44-6.18,3.02-12.33,4.79-18.42,1.19-4.09,1.64-8.09.9-12.34-.78-4.45-1.05-8.99-1.62-14.15-4.88-.81-9.95-1.65-15.16-2.51-1.79,5.3-1.94,10.35-1.38,15.38.5,4.48-.28,8.52-2.04,12.68-2.31,5.48-3.94,11.26-5.93,17.11,2.66,1.55,5.18,2.92,7.6,4.45,1.37.87,2.73,1.84,3.83,3.02,1.96,2.11,2.06,4.81.54,6.98-1.54,2.19-4.14,3.21-6.7,2.09-3.48-1.52-6.8-3.42-10.18-5.18-.48-.25-.88-.65-1.36-.91-6.37-3.35-7.34-4.95-5.42-11.98,1.82-6.64,4.38-13.07,6.42-19.65.79-2.53,1.31-5.21,1.47-7.86.38-6.13.46-12.28.69-19.11-4.67-1.38-9.99-2.96-15.76-4.67-.88,2.64-1.69,4.98-2.45,7.34-3.93,12.07-7.79,24.15-9.82,36.75-.51,3.14-1.42,6.66-3.35,9.03-4.47,5.49-11.04,7.34-17.89,7.68-2.69.14-4.86-2.25-5.15-4.8-.31-2.66.9-4.66,3.29-5.67,1.98-.84,4.13-1.32,6.22-1.9,3.32-.93,4.9-2.95,5.48-6.51,2.48-15.27,6.91-30.02,12.63-44.82-5.16-1.75-10.41-3.53-16.1-5.46-.9,1.97-1.86,3.69-2.51,5.52-5,14.03-9.87,28.14-10.98,43.12-.44,5.88-4.12,8.39-8.76,9.72-3.6,1.02-7.55,1.12-11.33,1.07-3.83-.05-6.28-2.44-6.45-5.4-.18-3.17,2.31-5.53,6.45-6,1.26-.14,2.54-.06,3.81-.15,1.25-.09,2.5-.25,4.28-.44,2.19-17.72,7.46-34.6,14.21-51.64-4.27-1.81-8.68-3.69-13.03-5.53-.42.22-.89.31-1.03.57-4.23,7.99-8.6,15.94-10.81,24.8-1.93,7.73-3.7,15.51-5.52,23.27-.57,2.43-1.75,4.41-4.12,5.41-4.5,1.9-9.04,3.74-13.58,5.56-.66.26-1.42.34-2.14.39-3.2.21-5.56-1.32-6.29-4.01-.75-2.79.38-5.28,3.39-6.6,3.63-1.59,7.39-2.9,11.09-4.32,3.95-17.36,8.34-34.36,17.58-50.19-5.31-2.63-10.41-5.16-15.85-7.86-5.37,6.78-10.26,13.52-12.61,21.66-2.51,8.71-4.91,17.48-6.74,26.35-1.28,6.21-4.14,10.21-10.45,11.69-2.44.57-4.76,1.72-7.09,2.69-4.07,1.69-7.02,1.1-8.57-1.78-1.53-2.84-.48-5.66,3.33-8.08,1.81-1.15,3.82-2.28,5.89-2.67,3.91-.75,5.09-3.23,5.83-6.72,1.36-6.38,2.94-12.73,4.74-19.01,3.79-13.2,4.58-14.58,15.2-29.95ZM163.26,71.15c0,2.91-.21,4.92.04,6.87.84,6.53,6.4,10.77,12.78,9.53,5.22-1.01,8.91-4.39,10.37-9.39,1.39-4.74-.42-9.01-4.23-12.14-5.64-4.64-12.47-6.65-19.5-7.66-4.94-.71-9.73.85-14.16,3.11-3.15,1.61-4.4,4.35-3.52,7.13.9,2.86,3.42,4.32,6.9,3.9,1.07-.13,2.1-.63,3.17-.74,2.48-.26,4.97-.38,8.16-.61ZM92.49,44.13c0,2.21-.17,3.68.03,5.09.65,4.53,4.02,7.25,8.69,7.18,4.87-.07,8.95-3.16,8.91-7.67-.04-4.7-1.14-9.29-5.43-12.39-7.12-5.14-21.69-5.67-29.01-.94-2.57,1.66-3.65,4.38-2.77,6.99.96,2.84,3.54,4.25,6.97,3.66,2.49-.43,4.93-1.12,7.43-1.53,1.65-.27,3.35-.26,5.19-.38Z"/>
        <path class="cls-1" d="M92.49,44.13c-1.83.12-3.53.11-5.19.38-2.49.41-4.94,1.1-7.43,1.53-3.43.59-6.01-.82-6.97-3.66-.88-2.6.2-5.32,2.77-6.99,7.33-4.73,21.89-4.21,29.01.94,4.29,3.1,5.39,7.69,5.43,12.39.04,4.52-4.04,7.6-8.91,7.67-4.67.07-8.05-2.66-8.69-7.18-.2-1.41-.03-2.88-.03-5.09Z"/>
      </g>
    </g>
  </g>
</svg>