<?xml version="1.0" encoding="UTF-8"?>
<svg id="Layer_2" xmlns="http://www.w3.org/2000/svg" viewBox="0 0 223.79 296.74">
  <defs>
    <style>
      .cls-1 {
        fill: #080707;
      }

      .cls-2 {
        fill: #070505;
      }

      .cls-3 {
        fill: #fcfdfd;
      }
    </style>
  </defs>
  <g id="Layer_1_xA0_Image">
    <g>
      <path class="cls-1" d="M142.49,287.07c-4.22,6.74-10.92,8.03-17.67,8.41-7.94.45-15.93-.04-23.9.13-8.68.19-17.37.52-26.04,1.08-6.5.42-12.15-1.63-17.38-5.12-2.86-1.91-4.36-4.85-4.92-8.18-1.37-8.18-1.16-16.23,2.24-24,2.93-6.7,7.81-10.72,15.11-11.77,2.1-.3,4.17-.89,6.86-1.48-2.07-11.11-4.04-21.75-6.01-32.3-5.72.41-11.31,1.17-16.9,1.14-21.87-.09-44.28-11.35-51.67-36.41-1.17-3.96-1.82-8.17-2.04-12.29-.8-14.49.85-28.57,7.39-41.85,4.54-9.21,6.4-11.84,14.8-18.13-7.86-10.67-8.02-23.13-7.91-35.67.06-7.76,1.85-15.11,5.23-22.05,4.84-9.93,11.69-18.4,20.09-25.46,9.44-7.92,20.42-9.58,32.23-6.56.51.13,1.06.15,2.3.32.29-.43.72-1.25,1.32-1.92C85.5,3.83,98.29-.26,112.7.01c9.03.17,15.69,5.28,21.3,11.7,6.56,7.51,9.41,16.53,10.08,26.44.71,10.55-1.9,20.52-4.51,30.53-1.23,4.71-2.65,9.36-4.21,14.79,1.55,4.44,5.95,7.56,9.65,11.22,9.7,9.6,18.43,19.95,25.25,31.83.63,1.1,1.21,2.24,1.95,3.27,13.36,18.65,24,38.87,33.71,59.55,6.79,14.46,11.29,29.84,14.98,45.36,2.31,9.7,2.87,19.71,2.88,29.71,0,3.35-2.12,5.31-4.48,7.03-5.46,3.98-11.44,7.04-17.94,8.85-2.51.7-4.05,1.88-5.16,4.21-2.38,4.97-6.36,7.57-11.98,8.08-8.87.81-17.71,1.29-26.59.21-5.32-.65-10.3-2.06-15.14-5.72ZM131.74,282.05c1.5-5.3,1.91-10.54.88-15.73-3.89-19.72-5.44-39.91-11.86-59.13-1.66-4.99-.14-8.52,3.37-9.61,3.65-1.13,6.31.95,7.88,6.18,3.56,11.82,6.34,23.81,8.02,36.06.98,7.11,2.45,14.16,3.7,21.24,3.82-2.46,7.23-4.65,11.12-7.16,1.2-4.59,1.11-9.76-1.71-14.57-2.74-4.68-5.48-9.38-8.6-13.81-3.13-4.45-5.56-9.19-5.15-14.59.7-9.27,3.87-17.69,10.73-24.32,1.16-1.12,2.49-2.32,3.97-2.81,10.6-3.55,21.26-6.46,32.12-.8,1.18.62,2.49,1,4.63,1.85-1.21-2.53-1.87-4.18-2.75-5.7-8.42-14.38-15.31-29.67-25.55-42.97-1.21-1.57-2.08-3.39-3.05-5.14-5.14-9.29-12.24-17.14-19.31-24.85-5.62-6.13-11.87-11.59-16.42-18.73-1.96-3.08-2.22-5.43-.43-8.43,1.29-2.16,2.54-4.43,3.24-6.82,1.57-5.39,2.7-10.91,4.19-16.33,1.81-6.59,1.89-13.33,1.3-20-.75-8.47-4.44-15.59-11.42-20.83-3.03-2.28-6.31-3.53-10.08-3.39-11.41.43-21.26,4.06-28.44,13.53-4.01,5.28-6.99,10.99-8.63,17.41-3.39,13.23-6.09,26.52-4.33,40.31.34,2.63-.8,4.63-3.3,5.63-2.43.97-4.95.58-6.4-1.5-1.27-1.82-2.23-4.2-2.37-6.4-.57-8.9-.27-17.8,1.81-26.52,2.13-8.94,4.52-17.82,6.88-27.08-6.27-.4-12.75.05-18,4.64-13.04,11.39-22.51,24.68-21.6,43.11.17,3.44.14,6.92.64,10.32.73,4.98,1.36,9.92,5.23,13.96,5.63,5.87,5.07,10.3-1.21,15.6-.83.7-1.68,1.41-2.61,1.95-4.26,2.48-6.86,6.29-9.08,10.57-7.32,14.1-8.53,29.12-6.5,44.51.51,3.84,2.09,7.74,3.97,11.17,7.88,14.4,20.98,19.76,36.62,20.33,8.05.3,15.88-1.36,23.67-3.07,5.48-1.21,10.88-2.79,16.33-4.14,6.04-1.49,10.5.2,11.75,4.62,4.76,16.74,9.47,33.47,9.95,51.08.13,4.95-1.26,8.69-5.63,10.77-3.88,1.85-8.04,3.15-12.14,4.51-3.68,1.22-6.81,6.37-6.34,10.83.35,3.29,3.51,5.63,8,5.89,4.16.25,8.31.59,12.47.72,6.89.23,13.71-.19,20.45-2.35ZM199.76,268.92c4.35-2.22,8.28-4.23,12.48-6.37-.68-7.2-.73-13.98-2.08-20.49-1.94-9.37-4.91-18.53-7.26-27.83-1.29-5.09-3.78-9.32-7.97-12.42-8.69-6.44-17.49-12.04-29.37-9.55-6.51,1.36-10.36,4.64-12.37,10.64-.46,1.37-.78,2.8-1.31,4.15-1.7,4.35-.61,8.08,2.16,11.66,2.33,3.01,4.53,6.14,6.5,9.39,5.61,9.31,8.65,19.12,5.55,30.09-1.22,4.32-3.22,7.82-8.15,8.26-2.75.25-4.1,2.14-5.59,3.92-4.28,5.11-3.24,8.51,3.13,10.02,8.97,2.14,18.04,1,27.08.69,2.36-.08,3.76-1.75,4.05-3.78.5-3.54,1.11-7.25.59-10.72-1.26-8.41-3.26-16.71-4.72-25.1-.89-5.09-2.47-9.8-5.4-14.08-1.63-2.39-3.27-4.81-4.59-7.38-1.54-2.99-.67-5.94,1.89-7.62,2.52-1.66,5.88-1.31,7.72,1.44,4.63,6.91,9.58,13.7,11.21,22.15,2.06,10.66,4.17,21.31,6.44,32.91ZM82.32,211.1c1.45,7.6,3,14.68,4.11,21.83.87,5.54,1.54,11.15,1.67,16.75.11,4.79-2.15,6.87-6.75,7.72-3.38.63-6.72,1.53-10.12,1.97-2.9.38-4.45,2.01-5.64,4.46-2.58,5.34-2.01,10.99-1.63,16.57.07,1.08,1.54,2.42,2.69,3.03,4.29,2.28,8.67,1.62,13.14.16-.14-.86-.2-1.37-.31-1.87-2.62-12.08,4.98-23.9,17-26.6,2.2-.49,4.3-1.43,6.23-2.1,0-13.64-3.85-34.59-8.23-45.04-3.75.96-7.55,1.94-12.18,3.13Z"/>
      <path class="cls-3" d="M131.74,282.05c-6.74,2.16-13.56,2.58-20.45,2.35-4.16-.14-8.31-.47-12.47-.72-4.49-.27-7.65-2.6-8-5.89-.47-4.46,2.66-9.6,6.34-10.83,4.1-1.36,8.26-2.66,12.14-4.51,4.36-2.08,5.76-5.81,5.63-10.77-.47-17.61-5.19-34.34-9.95-51.08-1.26-4.42-5.71-6.11-11.75-4.62-5.45,1.35-10.85,2.93-16.33,4.14-7.79,1.72-15.62,3.37-23.67,3.07-15.64-.57-28.74-5.93-36.62-20.33-1.88-3.44-3.46-7.33-3.97-11.17-2.02-15.39-.82-30.41,6.5-44.51,2.22-4.27,4.82-8.09,9.08-10.57.93-.54,1.78-1.25,2.61-1.95,6.28-5.31,6.84-9.74,1.21-15.6-3.88-4.04-4.5-8.98-5.23-13.96-.5-3.4-.47-6.88-.64-10.32-.91-18.43,8.56-31.72,21.6-43.11,5.26-4.59,11.73-5.04,18-4.64-2.36,9.26-4.74,18.14-6.88,27.08-2.08,8.72-2.38,17.62-1.81,26.52.14,2.2,1.1,4.58,2.37,6.4,1.45,2.08,3.96,2.47,6.4,1.5,2.49-1,3.63-2.99,3.3-5.63-1.76-13.79.95-27.08,4.33-40.31,1.64-6.42,4.63-12.13,8.63-17.41,7.18-9.46,17.02-13.1,28.44-13.53,3.78-.14,7.05,1.11,10.08,3.39,6.97,5.24,10.66,12.37,11.42,20.83.59,6.67.51,13.41-1.3,20-1.49,5.42-2.61,10.94-4.19,16.33-.7,2.39-1.95,4.67-3.24,6.82-1.79,3-1.53,5.34.43,8.43,4.55,7.14,10.8,12.6,16.42,18.73,7.07,7.71,14.18,15.56,19.31,24.85.96,1.74,1.84,3.57,3.05,5.14,10.24,13.3,17.13,28.59,25.55,42.97.89,1.52,1.54,3.17,2.75,5.7-2.14-.85-3.45-1.23-4.63-1.85-10.86-5.66-21.52-2.75-32.12.8-1.48.49-2.81,1.69-3.97,2.81-6.86,6.64-10.03,15.06-10.73,24.32-.41,5.4,2.03,10.15,5.15,14.59,3.11,4.43,5.86,9.13,8.6,13.81,2.82,4.81,2.92,9.98,1.71,14.57-3.9,2.51-7.3,4.7-11.12,7.16-1.25-7.08-2.72-14.13-3.7-21.24-1.68-12.25-4.46-24.24-8.02-36.06-1.57-5.23-4.23-7.31-7.88-6.18-3.51,1.09-5.04,4.62-3.37,9.61,6.42,19.23,7.97,39.41,11.86,59.13,1.02,5.2.62,10.44-.88,15.73ZM81.31,135.7c7.24-.64,12.21.4,17.92,3.59,1.25.7,2.55,1.42,3.92,1.78,2.33.63,4.32-.21,5.75-2.12,1.45-1.93,1.61-4.17.31-6.12-.97-1.46-2.38-2.82-3.89-3.69-13.24-7.61-26.68-8.7-40.16-.61-7.98,4.79-10.12,14.47-4.94,22.18,2.62,3.91,6.28,6.14,11.1,5.35,10.41-1.71,14.92-11.65,10.75-18.36-.36-.58-.5-1.31-.76-2.01Z"/>
      <path class="cls-2" d="M81.31,135.7c.26.7.4,1.43.76,2.01,4.16,6.71-.34,16.65-10.75,18.36-4.82.79-8.48-1.44-11.1-5.35-5.17-7.71-3.04-17.39,4.94-22.18,13.48-8.09,26.91-7.01,40.16.61,1.52.87,2.92,2.23,3.89,3.69,1.3,1.94,1.14,4.18-.31,6.12-1.43,1.91-3.42,2.75-5.75,2.12-1.37-.37-2.67-1.08-3.92-1.78-5.71-3.2-10.68-4.23-17.92-3.59Z"/>
    </g>
  </g>
</svg>