<?xml version="1.0" encoding="UTF-8"?>
<svg id="Layer_2" xmlns="http://www.w3.org/2000/svg" viewBox="0 0 207.94 164.69">
  <defs>
    <style>
      .cls-1 {
        fill: #cd1109;
      }

      .cls-2 {
        fill: #cd0f07;
      }

      .cls-3 {
        fill: #070606;
      }
    </style>
  </defs>
  <g id="Layer_1_xA0_Image">
    <g>
      <path class="cls-3" d="M143.5,68.63c-4.06,3.86-8.74,7.25-12.05,11.68-5.96,7.96-11.28,16.42-16.52,24.89-5.4,8.73-6.34,18.81-7.67,28.68-1.01,7.55-1.61,15.15-2.45,22.72-.18,1.6-.44,3.25-1,4.75-.84,2.24-2.58,3.46-5.06,3.34-2.5-.12-4.04-1.57-4.69-3.86-.34-1.18-.34-2.49-.29-3.73.19-4.71.3-9.44.75-14.13.32-3.36-.85-5.84-3.01-8.3-7.04-8-16.09-9.24-25.84-7.75-5.18.79-10.23,2.4-15.38,3.39-6.04,1.15-11.92,1.19-16.85-3.48-7.96-7.54-6.24-18.71,3.73-23.16,2.29-1.02,4.8-1.8,7.28-2.1,10.37-1.25,20.72-.93,30.66,2.47,4.04,1.38,7.71,3.91,11.5,6,1.2.66,2.27,1.57,3.94,2.76.17-1.66.48-2.68.33-3.63-2.14-13.3-7.3-25.48-15.21-36.25-3.12-4.24-7.99-7.29-12.33-10.51-2.88-2.14-6.28-3.58-9.37-5.45-3.27-1.97-4.18-4.56-2.71-7.2,1.44-2.61,4.36-3.77,7.5-2.13,5.1,2.66,10.19,5.49,14.84,8.87,15.94,11.57,22.55,28.68,27.14,46.9.26,1.02.62,2.02,1.05,3.39,3.84-6.54,7.11-12.91,11.14-18.76,4.93-7.14,10.41-13.93,15.87-20.69,1.68-2.07,4.02-3.64,6.19-5.28,2.31-1.74,4.94-2.64,7.51-.67,2.67,2.05,2.17,4.71.88,7.36,0,0,.13-.14.13-.14Z"/>
      <path class="cls-1" d="M143.5,68.63s-.13.14-.13.14c.74,1.58,1.7,1.02,2.47.14,4.63-5.3,9.21-10.65,14.27-16.51-4.6-.05-7.84,1.97-11.27,3.24-1.35.5-2.54,1.41-3.89,1.94-2.86,1.13-5.4.43-6.75-1.7-1.44-2.29-1-5.43,1.42-7.3,1.84-1.43,3.91-2.72,6.08-3.55,5.73-2.2,11.57-4.12,17.87-6.33-1.69-1.78-3.44-3.48-5.01-5.32-1.52-1.79-3.13-3.59-4.21-5.64-1.8-3.39-.59-6.94,2.46-8.31,3.14-1.4,7.44.11,8.75,3.29.81,1.96.72,4.39,3.92,5.31-.39-2.5-.86-4.75-1.07-7.01-.2-2.15-.43-4.37-.1-6.47.4-2.55,2.72-4.26,4.98-4.26,2.31,0,4.26,1.67,4.83,4.37.45,2.12.65,4.3,1.01,6.44.32,1.91.71,3.81,1.25,6.7,1.95-2.27,3.33-3.87,4.7-5.47,3.2-3.74,5.71-4.55,8.26-2.68,2.89,2.12,2.8,5.51-.3,9.52-1.64,2.12-3.34,4.18-5.5,6.86,3.64,0,6.58.03,9.51-.01,1.63-.03,3.26-.27,4.89-.26,3.4.03,5.45,1.62,5.92,4.41.5,2.99-1.19,5.52-4.63,6.3-2.64.6-5.38.74-8.08,1.08-1.18.15-2.36.29-3.95.49,2.41,3.94,4.65,7.41,6.69,10.99,1.07,1.87,2.06,3.87,2.64,5.93.77,2.74-.66,5.41-2.94,6.32-2.16.86-4.37.06-5.98-2.47-1.95-3.05-3.61-6.29-5.58-9.33-1.36-2.09-3.03-3.97-5.25-6.83-1.34,6.14-2.52,11.29-3.58,16.47-1.02,4.98-2.98,6.99-6.38,6.3-3.24-.66-4.76-3.78-4.04-8.27.27-1.7.54-3.4.02-5.49-1.11,1.1-2.29,2.13-3.32,3.3-4.42,5.05-8.76,10.17-13.2,15.21-4.45,5.05-7.18,6.01-9.84,3.65-2.69-2.38-2.14-5.65,1.72-10.46.79-.98,1.6-1.98,2.15-3.09.16-.33-.52-1.08-.82-1.64Z"/>
      <path class="cls-2" d="M16.18,15.85c-1.77-3.21-2.85-5.21-3.96-7.18-1.84-3.25-1.5-5.95,1.01-7.66,2.5-1.71,5.48-1.28,7.62,1.67,2,2.76,3.46,5.9,5.46,9.4.38-1.44.67-2.5.95-3.56.85-3.22,2.5-4.92,4.91-5.02,2.58-.11,4.49,1.75,5.28,5.17.16.7.2,1.43.38,2.85,4.75-2.88,9.18-5.59,13.64-8.24,1.71-1.02,3.42-2.1,5.27-2.8,2.68-1.02,5.43.08,6.46,2.41,1.1,2.48.54,4.76-1.65,6.27-3.58,2.47-7.33,4.7-11,7.04-3.48,2.22-6.95,4.47-11.07,7.12,6.7,3.18,12.57,5.97,18.44,8.75.98.46,2.05.75,3,1.27,2.72,1.49,3.71,3.77,2.81,6.28-.86,2.4-3.25,3.82-6.15,3.23-2.11-.43-4.15-1.27-6.15-2.09-2.34-.97-4.61-2.11-6.91-3.19-2.12-1-4.24-2.02-7.19-3.43.57,1.75.79,2.85,1.26,3.81,1.76,3.58,3.65,7.1,5.38,10.7.62,1.29,1.17,2.71,1.28,4.11.2,2.38-.81,4.28-3.23,5.06-2.34.75-4.4.1-5.76-1.9-1.5-2.22-2.74-4.61-4.59-7.77-1.23,3.61-1.4,6.58-1.83,9.49-.26,1.79-.42,3.62-.89,5.36-.71,2.61-2.57,3.93-5.28,3.72-2.75-.21-4.35-1.98-4.6-4.56-.22-2.32-.05-4.73.29-7.04.86-5.9,1.91-11.77,3.09-18.89-4.97,4.1-9.23,7.31-12.73,11.45-2.81,3.32-5.35,3.9-7.82,1.82-2.26-1.9-2.69-5.63-.33-8.35,2.71-3.14,5.92-5.86,8.97-8.7,1.79-1.67,3.69-3.23,6.02-5.26-3.17-1.1-5.56-1.8-7.84-2.77-1.47-.63-3-1.43-4.09-2.55-1.79-1.85-2.23-4.18-.73-6.47,1.48-2.26,3.67-2.88,6.2-2.03,1.64.55,3.21,1.31,6.07,2.49Z"/>
    </g>
  </g>
</svg>