<?xml version="1.0" encoding="UTF-8"?>
<svg id="Layer_2" xmlns="http://www.w3.org/2000/svg" viewBox="0 0 241.46 398.06">
  <g id="Layer_3">
    <g id="stoel2">
      <path d="M98.77,146.11c1.07,4.21,1.9,8.49,2.88,12.73.87,3.75,1.97,7.45,2.66,11.22.71,3.87,1.13,7.8,1.49,11.72.2,2.12-1.43,3.35-3.51,3.18.02.05.05.11.07.16,2.97-.51,5.95-.97,8.94-1.41-.08-.15-.14-.31-.16-.44-.96-5.92-1.56-11.92-2.75-17.79-1.01-5.02-2.78-9.88-4-14.86-1.23-5.03-2.34-10.1-3.24-15.19-1.2-6.8-2.16-13.65-3.17-20.48-.15-1.03.07-2.11-.04-3.15-.49-4.77-.78-9.59-1.63-14.3-.93-5.15-2.32-10.21-3.66-15.28-.23-.88-1.05-1.82-1.85-2.27-.76-.43-1.85-.24-2.8-.33,0,.73-.15,1.49,0,2.18,1.02,4.56,2.2,9.08,3.15,13.65.81,3.89,1.53,7.81,2.05,11.75.82,6.26,1.43,12.54,2.13,18.82.04.35.01.7,0,1.05-.2,6.59,1.83,12.78,3.43,19.05Z"/>
      <path d="M238.91,17.84c-.92-.65-1.67-1.55-2.42-2.4-2.61-2.93-6.02-3.68-9.67-3.22-2.36.29-4.91,1.47-5.3,3.89-.6,3.75-1.97,7.62-.24,11.48.15.34.14.9-.04,1.21-1.44,2.56-2.87,5.13-4.45,7.61-2.13,3.33-5.44,4.39-9.28,3.1-3.22-1.09-6.6-1.89-9.6-3.43-3.05-1.57-5.88-3.7-8.51-5.93-1.84-1.56-3.1-3.79-4.77-5.59-1.74-1.87-3.7-1.69-5.9-.53-5.23,2.77-10.38,5.84-15.9,7.87-4.81,1.77-10.05,2.5-15.16,3.31-5.29.83-10.08-1.6-14.95-3.14-5.71-1.8-11.94-2.18-16.86-6.23-1.97-1.63-4.09-3.13-6.32-4.39-2.67-1.51-5.39-2.23-8.46-.42-5.03,2.98-10.07,6.1-15.47,8.26-4.81,1.93-10.16,2.47-15.18,3.95-2.35.69-3.68.27-4.56-1.93-.12-.3-.44-.58-.73-.74-4.44-2.43-5.84-6.78-7.06-11.21-.25-.92-.33-2.08,0-2.94,1.17-2.93,1.25-6.2-.21-9C53.61-.77,47.05-.25,40.67.23c-1.63.12-3.32,1.87-4.64,3.22-3.24,3.31-3.03,7.67-2.5,11.72.26,1.97,1.84,4.26,3.51,5.47,4.08,2.98,5.7,7.8,3.7,12.61-1.13,2.72-.67,5.38.84,7.86.89,1.47,2.25,2.8,2.7,4.39,1.28,4.49,2.27,9.06,3.25,13.63,1.18,5.48,2.07,11.02,3.4,16.46.55,2.24,2.26,4.18,2.85,6.41,1.75,6.56,3.31,13.19,4.76,19.83,1.06,4.85,1.29,9.94,2.86,14.59,1.47,4.35,2.52,8.59,2.47,13.17-.01,1.53.61,3.06.89,4.59.75,4.07,1.47,8.15,2.21,12.22.62,3.42,1.19,6.84,1.9,10.24.88,4.26,1.97,8.48,2.8,12.75,1.03,5.31,1.16,10.79,2.73,16.02,3.04.02,6.09-.01,9.13-.05-.12-.16-.24-.32-.35-.49-.16,0-.32,0-.48-.02-.91-.08-2.28-.98-2.51-1.78-.78-2.77-1.63-5.68-1.55-8.51.1-3.75-1.21-6.99-2.22-10.42-1.22-4.15-2.18-8.39-3.12-12.62-.43-1.95-.55-3.98-.82-5.97-1-4.33-1.78-8.39-2.48-12.47-.69-4.01-1.26-8.04-2-12.04-.67-3.55-1.51-7.07-2.27-10.61-1.34-6.19-2.67-12.37-4.01-18.56-.52-2.41-1.09-4.81-1.56-7.23-.3-1.53.43-1.95,1.98-2.21,2.47-.41,4.89-1.23,7.24-2.12,1.71-.65,2.46-.69,2.92,1.47.88,4.14,2.37,8.14,3.26,12.28.86,3.98,1.26,8.06,1.93,12.08.65,3.92,1.4,7.82,2.09,11.73.53,3.02,1.06,6.04,1.57,9.06.88,5.24,1.84,10.46,2.6,15.72.97,6.63,1.59,13.3,2.7,19.9,1.05,6.25,2.44,12.44,3.85,18.61.55,2.4.4,3.04-1.61,3.21.12.3.25.6.39.9,3.16-.03,6.31-.04,9.46,0,.03-.12.06-.24.09-.35-.34,0-.67-.02-1-.06-.63-.08-1.61-.74-1.71-1.27-1.49-8.07-2.86-16.16-4.27-24.24-1.39-8-2.88-15.98-4.17-23.99-1-6.18-1.66-12.42-2.68-18.59-1.28-7.75-3.16-15.43-4.04-23.22-.59-5.25-2.43-10.03-3.77-15.01-.4-1.47.16-2.57,2.03-2.33,1.67.21,3.36.35,5.03.54,4.6.52,9.19,1.42,13.79,1.46,3.8.03,7.61-1,11.43-1.43,1.7-.2,3.49-.08,4.08,2,.56,1.97,1.09,3.96,1.39,5.98.95,6.37,1.75,12.75,2.66,19.12.84,5.86,1.96,11.68,2.56,17.56.75,7.37.61,14.86,1.75,22.16,1.46,9.32,1.33,18.64,1.5,27.98.06,3.27.67,6.54,1,9.81.22,2.23,1.63,2.91,3.52,2.45,1.91-.47,2.08-1.96,1.49-3.62-.14-.38-.25-.8-.27-1.2-.19-5.62-.18-11.24-.58-16.84-.52-7.34-1.4-14.65-2.04-21.98-.28-3.24-.22-6.52-.57-9.75-.77-7-1.66-13.99-2.61-20.97-.78-5.69-1.73-11.36-2.61-17.03-.69-4.44-1.19-8.92-2.19-13.29-.45-1.94.49-2.4,1.67-2.35,3.98.18,7.94.64,11.91.99,2.03.18,4.05.43,6.08.5,1.7.06,2.51.79,2.5,2.5-.02,5.69.2,11.39-.07,17.06-.23,4.96-1.03,9.89-1.49,14.84-.15,1.68.08,3.39-.05,5.07-.28,3.54-.76,7.06-1.01,10.6-.58,8.09-1.12,16.19-1.57,24.29-.17,3-.08,6.01-.02,9.02.14,6.23.33,12.46.52,18.69.07,2.12,1.27,2.93,3.32,3.03,2.3.11,1.94-1.42,1.92-2.77-.17-9.47-.54-18.94-.46-28.4.06-7.94.36-15.9,1.07-23.8.7-7.76,2.16-15.43,2.09-23.29-.04-5.02.75-10.03.93-15.06.1-2.72-.32-5.45-.47-8.18-.1-1.89.92-2.6,2.71-2.52,4.04.19,8.08.44,12.12.5,2.14.03,3.14.5,2.11,2.84-.32.74-.17,1.7-.14,2.56.34,9.36-1.44,18.42-3.61,27.47-.93,3.88-1.07,7.96-1.66,11.93-.78,5.26-1.73,10.5-2.46,15.77-.39,2.86-.29,5.79-.72,8.65-1.23,8.21-.92,16.61-3.11,24.7-.43,1.58-.81,3.19-1.04,4.82-.25,1.81.29,3.58,2.08,4.17,1.92.62,2.78-1.15,3.09-2.57.87-4.05,1.64-8.14,2.12-12.25.84-7.13,1.38-14.3,2.16-21.44.79-7.26,1.58-14.53,2.66-21.75.8-5.38,2.26-10.66,3.05-16.04,1.15-7.8,2.88-15.56,2.15-23.54-.02-.26,0-.52,0-.79,0-4.21.64-4.77,4.68-4.5,3.69.25,7.38.39,11.07.53,1.84.07,3.68.01,5.51.01.61.14.8.38.77.4-3.42,3.19-2.97,7.88-4.52,11.79-1.97,4.96-3.99,9.93-5.54,15.03-2.44,8.03-4.83,16.1-6.63,24.28-1.39,6.35-1.64,12.94-2.8,19.36-.96,5.3-2.37,10.53-3.85,15.72-1.35,4.75-3.12,9.39-4.55,14.12-.4,1.32-.69,3-.21,4.18.11.27.18.5.23.69.85.16,1.7.33,2.54.5.07,0,.14.01.22.02.13-.4.26-.8.4-1.19.18-.54.57-.84,1.01-.97,4.36-11.01,7-22.52,9.49-34.04,1.21-5.6,1.55-11.39,2.74-16.99,2.3-10.84,4.33-21.76,8.85-32.01,2.56-5.8,4.58-11.83,4.65-18.23.03-2.26-.18-3.14,2.49-2.21,1.78.62,3.86.37,5.78.63,1.84.25,2.96.92,2.38,3.25-1.23,4.94-1.9,10.03-3.34,14.9-2,6.75-4.48,13.35-6.79,20-1.7,4.89-3.53,9.74-5.15,14.65-1.02,3.09-1.76,6.27-2.62,9.41-2.63,6.98-5,13.69-7.35,20.41-2.29,6.57-4.49,13.18-6.89,19.71-.38,1.04-1.28,1.93-2.17,2.72.03.11.05.23.08.34,1.6.2,3.2.43,4.79.69.61-.07,1.23-.12,1.84-.17.8-.16,1.61-.25,2.43-.26-.34-.04-.68-.08-1.02-.12-1.51-.16-2.19-.64-1.29-2.29.73-1.34,1.15-2.84,1.7-4.28,1.3-3.92,2.64-7.3,3.88-10.72,2.26-6.24,4.47-12.49,6.68-18.75,1.62-4.58,3.24-9.15,4.82-13.75,2.94-8.58,5.91-17.15,8.77-25.75,1.92-5.77,3.77-11.57,5.47-17.41.99-3.38,1.68-6.84,2.4-10.29.41-1.96,1.11-3.04,3.23-1.82.2.11.54-.04.76.06,5.27,2.21,5,1.14,3.39,6.72-2.49,8.68-4.73,17.44-7.42,26.06-2.53,8.11-5.46,16.1-8.31,24.1-3.15,8.84-6.48,17.61-9.6,26.46-1.99,5.66-3.74,11.4-5.57,17.11-.13.39-.08.85-.1,1.27-.14,3.07-.66,3.95-2.99,3.9,0,.07-.01.14-.02.21.28.06.56.1.84.17,2.25.57,4.38,1.3,6.73,1.02.43-.03.75.09.99.29.23-.25.45-.51.67-.76.04-.12.09-.23.14-.34-.94-.47-1.38-1.31-1.12-2.69.64-3.41,1-6.9,2.04-10.19,2.4-7.56,5.05-15.05,7.76-22.51,2.21-6.08,4.74-12.04,7-18.1,1.14-3.04,2.02-6.17,2.99-9.26,1.81-5.73,3.7-11.43,5.38-17.2,1.84-6.34,3.22-12.83,5.28-19.09,2.5-7.61,5.72-14.97,8.22-22.58,1.96-5.96,3.33-12.11,4.88-18.2.24-.93.26-2.04,0-2.96-.96-3.29-.3-6.45.59-9.59.26-.92.63-1.93,1.27-2.6,1.35-1.42,3.1-2.48,4.34-3.97,2.27-2.74,3.99-8.5-.19-11.46ZM39.49,15.9c-1.7-4.04.1-9.09,3.85-10.85,4.45-.54,7.85.51,9.6,4.84,1.59,3.93-1.06,8.15-4.39,9.82-3.37,1.69-7.58-.26-9.07-3.81ZM46,36.89c.04-2.03.33-4.05.49-6.08.04-.52.06-1.06,0-1.57q-.58-4.49,3.95-4.49c3.18-1.61,3.04-1.36,4.68,1.38,1.44,2.41,3.68,4.34,5.54,6.5.4.46,1.03,1.04.97,1.48-.05.43-.81.92-1.35,1.11-3.66,1.31-7.34,2.57-11.02,3.82-2.24.76-3.3.11-3.26-2.15ZM68.73,74.63c-2.77.91-5.53,1.91-8.36,2.58-1.88.44-2.95-.77-3.38-2.62-1.19-5.09-2.45-10.17-3.66-15.26-.95-3.98-1.8-7.98-2.86-11.93-.74-2.76-.51-3.43,2.1-4.28,2.08-.68,4.12-1.47,6.22-2.08,3.26-.94,3.7-.59,4.01,2.56.06.64.33,1.25.51,1.88,1.01,9.04,5.01,16.64,7.41,24.73.92,3.1.84,3.49-1.98,4.42ZM205.57,71.64c-.13,4.1-2.35,5.34-6.29,4.3-1.6-.42-3.28-.68-4.94-.74-6.57-.24-13.15-.35-19.73-.56-3.87-.12-7.73-.46-11.59-.48-3.11-.01-6.22.53-9.32.43-4.32-.14-8.64-.56-12.94-1.04-3.13-.35-6.21-1.3-9.33-1.47-6.65-.37-13.33-.68-19.99-.51-6.09.16-12.16,1.28-18.25,1.4-5.27.1-10.56-.58-15.83-1-.51-.04-1.26-.61-1.41-1.08-2.06-6.59-4.13-13.18-5.98-19.83-.88-3.17-1.44-6.45-1.84-9.71-.09-.73.91-2.08,1.68-2.34,3.7-1.23,7.45-2.47,11.28-3.17,6.22-1.12,11.7-3.88,17.11-6.87,2.14-1.18,4.11-2.89,6.39-3.54,1.42-.41,3.81.19,4.84,1.23,6.35,6.46,14.86,8.16,22.96,10.57,4.81,1.43,9.92,2.6,14.88,2.55,5.58-.06,11.31-1.08,16.67-2.7,4.9-1.48,9.4-4.3,14.06-6.57,3.32-1.61,3.99-1.28,6.15,1.38,3.23,3.96,7.16,7.2,11.96,9.09,4.07,1.6,8.27,2.84,12.42,4.24,2.28.77,2.37,1.73,1.96,3.73-1.57,7.57-4.65,14.8-4.91,22.69ZM227.12,52.7c-1.03,4.01-2.12,8.01-3.4,11.94-1.15,3.52-2.74,6.91-3.86,10.44-.69,2.2-1.64,4.09-4.13,3.54-4.73-1.05-5.99-2.78-5.39-6.13.76-4.24,1.39-8.5,2.13-12.74.28-1.61.69-3.2,1.04-4.8.35-1.78.76-3.02,1.04-4.28.59-2.68,1.57-3.38,4.25-2.8,2.24.48,4.47,1,6.68,1.58,1.71.45,2,1.88,1.65,3.26ZM229,36.3c-.61,2.47-.87,4.69-1.37,6.86-.14.6-1.01,1.5-1.48,1.46-2.74-.19-5.46-.59-8.17-1.05-.24-.04-.62-1.23-.42-1.53,1.82-2.66,3.73-5.27,5.68-7.84.9-1.19,5.68-.7,6.36.67.15.3-.38.94-.6,1.42ZM234.88,26.7c-2.06,2.51-4.91,3.08-6.62,1.52-2.69-2.45-2.87-6.13-.41-8.62.55-.56,1.11-1.11,1.67-1.67,3.33-.74,5.13.11,6.73,3.09,1.17,2.19-.03,4.06-1.37,5.68Z"/>
    </g>
    <g id="stoel2.5">
      <path d="M201.28,318.25c-1.21-1.79-2.04-4.02-2.4-6.16-1.07-6.37-1.7-12.81-2.72-19.19-1.52-9.48-3.26-18.92-4.84-28.39-1.37-8.23,1.03-16.12,2.28-24.12.75-4.8,1.04-9.68,1.54-14.52.83-8.02,2.2-16.03,2.33-24.07.13-8.36-4.09-12.62-12.24-13.85-5.99-.91-12-1.66-18.03-2.21-7.05-.64-14.11-1.48-21.17-2-6.86.44-13.86.65-20.65-.37-14.25.3-28.5,1.19-42.76,1.56-5.31.14-9.52,2.02-12.85,5.95-5.04,5.95-9.75,12.19-14.96,17.98-9.15,10.17-18.98,19.75-27.77,30.22-8.39,9.99-16.09,20.59-23.55,31.3-4,5.75-4.83,12.31-.86,18.85,3.11,5.12,8.35,6.8,13.49,8.25,5.13,1.45,6.03,2.3,5.35,7.43-.66,4.99-.95,10.03-1.39,15.52.05,1.28.17,2.08.09,2.87-.92,9.08-1.94,18.15-2.78,27.24-.37,4-.09,8.08-.62,12.05-.61,4.51-1.73,8.68-5.68,12.03-4.04,3.41-4.16,8.72-.92,12.52,2.27,2.66,4.47,5.03,4.18,8.86-.05.66,1.26,2.02,1.95,2.03,3.97.05,8.06.24,11.86-.66,1.15-.27,1.31-3.99,2.28-5.96.5-1.03,1.84-1.62,2.66-2.53,1.29-1.43,3.4-2.88,3.54-4.47.7-7.69.79-15.44,1.24-23.16.31-5.18.74-10.37,1.44-15.51.11-.84,1.84-2,2.9-2.09,9.08-.8,18.19-1.34,27.28-2.08,3.99-.33,6.43,1.8,7.94,4.98,2.93,6.22,6.44,7.04,11.67,2.52.86-.75,2.12-1.61,3.13-1.53,7.96.58,15.71,1.28,23.81-.71,9.67-2.37,19.82-2.69,29.69-4.35,2.93-.49,3.44-.01,3.63,2.74.37,5.4.78,10.86,1.92,16.14.76,3.5,1.2,6.54-1.17,9.48-2.37,2.95-1.87,5.57.38,8.56,1.83,2.43,3.03,5.4,4.16,8.27,1.67,4.24,11.34,6.08,14.35,2.56.47-.55,1.01-1.31.99-1.96-.12-3.75,1.9-6.33,4.37-8.78,2.9-2.88,3.71-5.85,1.04-9.62-1.39-1.96-1.86-4.67-2.43-7.11-1.19-5.15-2.42-10.32-3.19-15.54-1.23-8.25-2.14-16.55-3.07-24.84-.11-.95.29-2.13.83-2.95,2.02-3.05,4.12-6.06,6.37-8.94.96-1.23,2.36-2.11,3.57-3.15.42,1.59,1.02,3.16,1.21,4.78,1.04,8.55.9,17.26,6.58,24.74,3.17,4.17,10.25,5.56,14.16,1.77,4.69-4.55,5.52-14.93,1.88-20.34ZM34.16,337.88c-1.11,5.29-1.58,10.72-2.34,16.09-.51,7.5-1.13,14.05-1.53,20.6-.12,2,.33,4.04.62,6.05.4,2.82-.52,4.64-3.29,5.82-2.63,1.12-4.75,2.91-3.99,6.42.13.62-.57,1.42-.88,2.14-.96-.74-2.28-1.29-2.82-2.27-1.42-2.57-2.03-5.69-3.81-7.92-2.87-3.6-1.38-7.1,1.08-8.72,3.68-2.44,4.66-5.87,5.39-9.36.78-3.73.4-7.69.68-11.54.82-10.98,1.72-21.95,2.6-32.93.43-5.33.55-10.71,1.46-15.96.43-2.5,1.86-6.02,3.77-6.79,2.95-1.2,6.7-.44,10.11-.52,0,2.7.46,5.5-.09,8.09-2.17,10.3-4.8,20.51-6.96,30.82ZM148.49,339.6c-.89-.56-1.76-1.53-2.68-1.59-2.73-.17-5.52-.24-8.22.13-8.19,1.12-16.33,2.55-24.51,3.7-4.66.66-9.36,1.12-14.06,1.45-1.61.11-3.26-.46-4.89-.72-14.52-5.61-28.81-7.52-43.59-4.17-2.83.64-5.75.98-8.65,1.17-.31.02-1.34-2.19-1.01-2.84.72-1.41,2.08-3.51,3.22-3.53,15.95-.36,31.81-1.21,47.63-3.71,5.72-.9,12.16.03,17.77,1.76,9.2,2.85,18.17,4.65,27.66,2.09,2.19-.59,4.47-.91,6.73-1.21,2.95-.4,4.92.7,5.03,3.93.04,1.17-.27,2.36-.42,3.54ZM47.63,317.57c7.63-3.77,15.45-7.2,23.33-10.44,2.16-.89,4.52-.25,4.25,3.1.51,5.26,1.16,9.56,1.33,13.88.04.94-1.6,2.75-2.55,2.8-9.58.56-19.17.87-28.76,1.09-.65.01-1.78-1.22-1.93-2.02-.73-3.84,1.18-6.86,4.32-8.41ZM47.33,306.09c.05-2.58.35-5.15.71-7.71.04-.29,1.18-.42,1.81-.62,7.15.21,13.8-.16,20.45-.18,1.5,0,3,1.2,4.51,1.85-1.42.94-2.72,2.22-4.27,2.77-5.56,1.96-11.22,3.65-16.82,5.49-.69.22-1.35.61-1.94,1.03-1.33.93-2.61,1.93-3.9,2.91-.19-1.84-.57-3.69-.54-5.53ZM88.47,302.02c-.04-1.1,1.95-3.24,3.01-3.25,14.72-.12,29.45-.21,44.15.43,1.99.09,6.3-1.66,7.26,2.79,1.21,6.73,2.29,12.53,3.58,18.28.94,4.18-.45,6.44-4.73,7.14-4.97.81-9.91,2.18-14.9,2.33-6.32.19-12.51-1.12-17.94-4.81-2.13-1.45-3.92-2.17-7.01-1.15-2.97.99-6.82-.43-10.2-1.16-.76-.16-1.58-1.84-1.7-2.89-.67-5.89-1.31-11.8-1.52-17.71ZM169.07,369.5c2.52,3.72,2.08,7.23-.94,9.4-3.09,2.22-3.99,4.99-4.87,8.15-.18.64-.52,1.23-.79,1.84-.41-.51-.92-.96-1.22-1.53-1.86-3.52-3.74-7.04-5.44-10.63-.49-1.03-.97-2.98-.48-3.41,6.55-5.74,1.75-12.55,1.88-18.84.05-2.4-.75-4.81-1.15-7.22-2.07-12.67-4.16-25.33-6.16-38.01-.32-2.03-.48-4.19-.16-6.19.22-1.34,1.42-2.53,2.18-3.79,1.46.9,3.94,1.56,4.22,2.74,1.89,7.96,3.53,15.99,4.82,24.06,1.22,7.63,1.91,15.35,2.83,23.03.81,4.65,1.46,8.38,2.4,12.04.74,2.86,1.28,6.01,2.88,8.37ZM172.47,303.27c-1.72,2.43-3.51,4.82-5.35,7.17-.53.68-1.3,1.16-1.96,1.73-.3-.76-.66-1.5-.89-2.28-.13-.44-.02-.95-.08-1.42q-1.24-9.83,9.26-8.58c0,1.44-.36,2.49-.99,3.37ZM176.81,290.85c-.66,1.49-2.97,2.26-4.52,3.35-19.65.57-38.84.82-58.02.64-13.5-.13-26.99-.96-40.48-1.28-12.66-.31-25.34-.88-37.97-.31-5.76.26-11.28.99-17.11-.25-14.16-3-14.36-12.82-8.43-21.95,6.93-10.66,14.72-20.82,22.83-30.62,7.38-8.93,15.81-16.98,23.54-25.64,5.83-6.52,11.07-13.57,17.01-19.98,1.87-2.02,5.16-2.73,7.81-4.01.26-.13.63-.03.95-.05,13.55-.82,27.1-2.07,40.66-2.33,12.28-.23,24.58-.15,36.8,2.2,7.61,1.46,15.51,1.35,23.25,2.21,4.36.49,6.54,3.24,6.79,7.71.55,9.91.05,19.67-1.68,29.52-2.78,15.87-4.53,31.92-7.09,47.83-.72,4.45-2.49,8.81-4.34,12.96ZM196.06,329.18c-.1,1.75-.75,3.47-1.25,5.18-.17.6-.53,1.33-1.02,1.58-.41.22-1.51.01-1.66-.31-1.85-4.01-4.12-7.94-5.23-12.16-1.39-5.3-1.81-10.86-2.65-16.31-3.93-7.87-1.6-14.85,1.12-21.79.87-2.22,1.86-4.4,2.79-6.6.35,2.37.99,4.74,1,7.12.04,10.27,1.22,20.38,4.1,30.24.48,1.65,2.23,3,2.52,4.64.48,2.74.43,5.62.27,8.42Z"/>
    </g>
  </g>
</svg>