<?xml version="1.0" encoding="UTF-8"?>
<svg id="Layer_2" xmlns="http://www.w3.org/2000/svg" viewBox="0 0 310.69 362.08">
  <g id="Layer_3">
    <g id="moon2">
      <path d="M218.45,328.09c-6.58,3.88-13.98,12.07-22.21,9.78-5.67-3.73-5.13-13.72-.67-18.31,1.84-1.92,4.28-3.18,6.6-4.45,8.58-4.41,16.22-10.84,25.82-12.76,7.31-1.92,15.83-6.73,16.43-15.1.49-10.75.05-21.62,1.93-32.28,2.58-10.18,4.48-21.16,9.38-30.48,2.48-4.74,6.62-9.33,5.41-15.05-1.82-7.78-4.33-14.78-6.75-22.28-5.21-18.72-15.59,3.82-56.95-6.07-13.77-2.64-27.32-8.49-38.55-16.92-4.9-4.03-9.39-9-14.31-12.89-7.76-6.1-21.61,17.55-29.33,20.93-5.24,3.82-9.98,8.05-15.54,11.6-4.97,2.76-7.83,7.78-8.15,13.44-.46,16.06-1.59,32.1-4.41,47.98-1.63,7.91-3.08,15.61-5.13,23.41-2.66,9.43-1.8,17.8,5.66,24.77,5.96,6.11,14.32,10.57,18.27,18.38,5.67,9.48-.17,24.19-12.36,16.52-4.75-3.03-6.68-8.85-11.36-11.95-3.36-2.37-5.91-.85-4.53,3.35,4.23,10.32-.43,24.86-13.59,19.97-5.39-3.38-1.5-18.51-5.13-24.09-7.16-9.16-8.64,14.32-10.9,18.26-1.73,8.25-14.29,7.41-16.68.42-1.11-4.86.58-10.38,1.88-15.16.3-1.45,1.39-3.35.36-4.62-2.24-1.01-7.99,1.43-10.94,2.67-4.35,2.1-4.77,7.48-7.12,11.17-3.35,5.19-12.33,3.94-14.84-1.5-2.79-7.05,2.89-14.53,6.43-20.4,7.75-10.12,22-10.02,32.01-16.94,2.78-1.46,6.1-2.3,7.43-5.19,1.25-4.78.37-10.04.51-15.08-.1-11.31.66-21.85.96-33.15.65-5.38.36-10.82.59-16.17.69-8.05,2.32-16.1,2.35-24.18-1.43-10.24-4.74-20.31-1.18-30.41,1.78-9.25,11.6-12.68,17.3-18.91,6.15-8.25,10.31-18.46,15.85-27.24,9.2-13.1,20.47-24.49,33.12-34.27,5.27-3.41,10.02-7.61,10.46-14.27,2.18-7.32,5.09-14.4,7.7-21.51,11.6-20.22,26.95-41.24,50.81-47.01,8.81-2.65,18.18-2.25,27.25-1.68,4.78.18,12.08,1.09,12.21,7.1-.9,8.29-3.32,16.76-2.15,25.21.21,11.27.92,22.9,6.59,32.96,10.85,18.25,36.32,38.17,58.66,32.9,3.7-1.4,8.28-6.82,11.3-1.99,4.41,13.9.55,29.6-4.21,43.03-2.1,4.17-.37,8.12,1.16,12.16,1.97,7.1,3.68,14.31,5.42,21.47,1.6,6.98,2.88,14.23,4.8,21.15,8.45,17.84,4.1,22.57-4.06,38.76-1.24,16.49-3.59,33.03-10.94,48.08-2.62,4.87-5.04,10.14-8.7,14.44-3.25,3.98-7.28,8.63-7.59,13.91.85,8.26,11.48,10.97,15.68,17.44,3.37,4.44,7.2,8.57,10.27,13.23,3.28,5.93,4.11,15.49-1.86,19.89-5.04,3.45-13.08,2.31-15.03-3.87-1.19-4.83,1.09-10.57-2.83-14.63-10.13-12.08-6.49,2.43-7.62,8.65-1.12,7.27-11.18,6.81-14.67,1.72-2.92-5.32-.57-12.21-4.13-17.5-2.4-5.41-6.11-3.73-7.91,1.42-2.5,5.15.8,12.09-3.83,16.07-8.48,5.74-16.95-5.05-17.25-13.2-1.45-5.33,3.73-10.63,2.06-14.07-2.5-1.57-6.47,1.73-9.1,3.25M217.72,13.92c.39-2.66,1.84-5.54.96-6.91-1.51-1.87-4.73-1.5-6.98-1.76-7.12-.02-14.65-.07-21.53,1.46-4.6.98-8.84,3.03-13.27,4.93-2.78,1.2-5.47,2.64-7.94,4.41-10.61,7.3-17.85,18.23-25.04,28.65-3.09,4.91-5.13,10.51-7.41,15.86-2.75,6.82-6.04,13.86-7.25,21.2-1.83,7.95-1.14,15.96.03,23.95.68,8.86,4.03,17.22,7.63,25.26,1.2,2.6,2.48,5.22,4.26,7.48,4.37,5.3,9.02,10.07,14.13,14.68,4.58,4.25,9.02,8.72,14.68,11.49,7.7,4.03,15.31,7.81,23.74,9.6,5.89,1.39,11.68,3.09,17.75,3.29,5.57.4,10.98.94,16.56.25,4.32-.49,8.6-1.83,12.88-2.96,2.27-.61,4.56-1.11,6.82-1.76,5.33-1.47,9.95-4.78,14.85-7.52,11.39-6.11,20.67-12.42,25.25-25.1,3.31-8.97,6.14-18.21,6.68-27.71.02-3.05.77-8.61-3.7-8.37-7.35,1.43-15.36,1.12-22.5-1.4-6.71-1.98-13.06-4.72-18.78-8.95-9.32-7.15-18.41-14.97-25.02-24.74-3.83-6.56-6.22-14.14-6.97-21.65-.51-5.49-.5-10.93-.76-16.26-.68-5.79-.34-11.61.88-17.25M74.66,275.8c4.68-19.76,8.65-39.95,10.3-60.16-.16-7.45-.67-15-.49-22.45-.21-7.62,7.17-11.74,13.12-14.84,4.84-2.77,9.28-6.56,13.68-9.4,6.18-4.42,11.25-10.28,16.74-15.63,3.01-3.31,7.65-5.49,8.84-9.83.44-3.46-1.96-7.77-3.49-10.95-2-3.17-4.73-6.18-5.83-9.96-2.88-8.58-4.48-17.19-4.78-26.2-.12-2.17-.07-4.46.19-6.54.06-.57.11-1.11.11-1.57,0-1.12-.23-1.76-.8-1.74-.7,0-2.41,1.2-3.3,1.92-4.11,3.2-7.86,6.79-11.79,10.23-2.33,2.06-4.47,4.32-6.44,6.72-4.47,5.52-9.48,10.55-13.16,16.56-5.96,9.03-8.92,20.52-16.83,28.2-3.1,2.9-7.05,5.03-10.13,8.21-4.65,4.5-6.69,11.07-6.35,17.37.13,5.39,2.84,10.38,3.19,15.64-.28,7.46-1.43,14.96-2.39,22.4-1.08,9.04-.84,18.45-1.32,27.63-1.34,8.35-.94,16.62-.75,25.04-.08,4.43-.15,8.84.34,13.32.13,2.99.77,6.64-.69,9.27-1.79,2.99-5.68,3.16-8.72,4.66-2.07.92-3.97,2.16-5.95,3.25-6.49,3.6-13.75,5.11-20.39,8.46-1.43.75-2.76,1.66-3.96,2.76-3.59,2.62-11.97,18.08-4.89,19.35,1.65-.14,2.48-1.73,3.08-3.35.8-2.65,1.17-5.66,3.16-7.77,1.72-2.06,4.73-3.1,7.51-4.1,3.85-1.35,7.69-2.79,11.57-4.03,15.49-5.34,3.18,14.19,2.86,20.79-1.09,5.81,4.04,9.04,6.67,2.46,1.06-2.65,1.68-5.49,2.22-8.17.88-4.78,1.09-10.76,5.36-13.83,4.83-3.75,11.3-1.53,12.58,4.49,1.34,5.11,2.1,10.63,2.32,15.98,0,2.98,1.26,6.83,4.56,6.08,4.95-1.29,5.03-7.5,3.33-11.59-.97-3.2-3.63-7.07-2.98-10.32.67-3.21,4.44-4.77,7.48-4.66,4.56.41,8.43,3.39,11.66,6.47,3.27,2.91,6.52,11.6,11.73,9.18,1.85-1.41,1.52-4.58.87-6.69-2.79-8.7-11.9-13-18.25-18.87-3.49-3.07-6.08-6.92-8.32-10.94-2.63-4.02-2.77-8.31-1.52-12.66M261.4,190.7c.92,3.65,2.24,6.48,3.76,10.28.85,2.22,1.43,4.63,2.43,6.72.74,1.6,1.52,3.4,1.45,5.16-.37,3.91-3.56,7.15-5.15,10.85-3.7,6.54-7.47,13.15-8.86,20.6-1.7,7.71-3.1,15.22-2.98,23.23-.57,6.1.38,12.31-.22,18.32-.91,4.53-2.26,9.36-5.44,12.84-4.33,3.98-9.43,7.56-15.04,9.21-1.64.45-3.32.8-4.95,1.28-6.64,1.87-11.93,6.3-17.88,9.55-3.29,2.15-7.67,2.99-10.1,6.22-1.77,2.3-1.96,8.18,2.06,7.37,5.55-1.94,10.04-6.55,15.05-9.62,5.27-3.04,12.16-7.06,18.07-4.08,1.24.77,2.08,1.98,2.13,3.48.07,3.33-2.52,6.85-3.76,10.01-2.09,4.64-1.14,10.46,2.01,14.35,1.5,1.89,4.19,2.39,4.56-.89.31-3.3,0-6.6,1.14-9.83.81-2.57,1.71-5.31,3.37-7.43,2.45-3.32,7.46-5.35,11.15-2.91,2.95,2.09,4.48,5.56,5.95,8.81,1.25,2.83,2,5.92,2.24,9.06.08,2.2.7,6.4,2.81,6.77,3.9-.22,1.86-7.38,1.67-10.03-.45-3.59-.15-9.89,3.96-10.67,6.06-.47,15.66,10.52,17.64,15.84,1.4,3.27-.19,7.37,1.47,10.42.93,1.51,2.9,1.99,4.47,1.01,4.34-2.93,3.05-9.65-.07-13.22-3.09-4.62-6.91-8.65-10.92-12.5-2.63-2.66-4.87-5.65-7.56-8.1-2.38-2.18-5.11-4.18-6.69-7.06-2.58-5.04-3.05-11.4-.31-16.46,3.22-5.3,7.64-9.72,10.56-15.31,6.8-12.3,11.99-25.42,15.04-39.16.19-1.13.13-2.21.03-3.14-.41-2.71.1-4.16.79-6.6.43-1.92-.14-4.52.32-6.63.49-3.16,3.1-5.32,5.03-7.68,1.91-2.25,3.23-4.95,4.09-7.8,2.07-6.95-2.68-13.19-4.96-19.53-3.29-9.87-4.41-20.29-7.35-30.3-1.07-3.53-1.13-8.13-3.28-11.05-2.15-2.52-10.02,7.17-12.22,8.57-5.57,5.36-14.41,6.98-18.95,13.42-1.06,2.09-.35,4.82.52,7.44.92,2.96,2.13,6.05,2.9,9.01M156.69,160.39c-.5-.35-.71.16-.15.51.27.19.6.27.93.34.31.07.68.08.87-.03.19-.11-.16-.32-.45-.4-.34-.08-.78-.21-1.07-.34M258.56,345.16c.14.02.36-.21.49-.39.16-.18-.23-.18-.48-.22-.93-.19-.36.14-.12.52M297.57,122.48c-.11-.2-.22-.39-.33-.59-.12.09-.23.17-.35.26.16.16.31.32.67.34M254.84,329.91l.52.56c-.04-.28-.06-.57-.13-.85-.01-.05-.22-.04-.4.29M249.25,283.43c.06-.27-.19-.81-.48-.84-.11.04-.08.42-.05.58.01.19.3.31.47.32M168.27,167.09l-.57.5c.08.06.22.18.24.16.17-.14.32-.3.33-.66M160.12,162.41c0-.15-.02-.31-.03-.46-.08,0-.23.02-.23.03,0,.2.03.39.25.43M246.46,264.75c.08-.18.16-.36.22-.54,0,0-.14-.06-.21-.09-.05.14-.11.29-.01.64M135.01,151.36c-.18-.08-.36-.16-.54-.22,0,0-.06.14-.09.21.14.05.29.11.64.01M214.43,310.01c0-.15-.02-.31-.03-.46-.08,0-.23.02-.23.03,0,.2.03.39.25.43"/>
      <path d="M165.15,164.99c.06.06.13.12.19.17,0-.11,0-.22-.19-.17"/>
      <path d="M213.25,180.8c.06-.06.12-.13.17-.19-.11,0-.22,0-.17.19"/>
      <path d="M263.94,205.69c-.06-.06-.13-.12-.19-.17,0,.11,0,.22.19.17"/>
      <path d="M288.21,277.06c.06.06.13.12.19.17,0-.11,0-.22-.19-.17"/>
      <path d="M246.05,271.02c-.06-.06-.13-.12-.19-.17,0,.11,0,.22.19.17"/>
      <path d="M262.56,167.11c-.06-.06-.13-.12-.19-.17,0,.11,0,.22.19.17"/>
      <path d="M259.43,337.84c.06.06.13.12.19.17,0-.11,0-.22-.19-.17"/>
      <path d="M98.11,105.94c.06.06.13.12.19.17,0-.11,0-.22-.19-.17"/>
      <path d="M131.58,70.3c.06-.06.12-.13.17-.19-.11,0-.22,0-.17.19"/>
      <path d="M294.74,122.05c.06.06.13.12.19.17,0-.11,0-.22-.19-.17"/>
      <path d="M145.86,34.65c.06.06.13.12.19.17,0-.11,0-.22-.19-.17"/>
      <path d="M126.63,92.17c-.06-.06-.13-.12-.19-.17,0,.11,0,.22.19.17Z"/>
      <path d="M98.27,287.76c-.1-.03-.09-.14-.09-.25.06.06.13.12.09.25Z"/>
      <path d="M190.94,98.01c.55,1.7,1.52,3.24,2.83,4.46,2.18,2.33,6.6,2.68,6.88,6.07-.71,3.5-5.21,4.9-7.67,7.15-2.51,1.82-5.18,4.68-7.94,5.05-2.23.44-4.17-1.57-2.78-3.7.56-.95,1.64-1.81,2.73-2.66,8.53-6.17,3.65-6.64.34-13.52-3.05-7.39-2.46-16.2-.37-23.82,3.35-9.5,15.65-12.17,24.53-9.54,7.75,1.47,11.09,8.77,4.89,14.3-2.94,2.25-7.73,1.75-10.68-.5-1.88-1.28-2.4-4.02-4.21-5.24-1.81-.86-3.6.9-4.99,2.02-5.97,4.73-5.19,13.23-3.6,19.77M185.69,88.65c.34-.29.18-.63-.09-.91-.19-.26-.48-.11-.3.18.08.23.19.5.3.72M189.64,97.94c.04.13.08.25.12.38.08-.11.15-.22-.12-.38Z"/>
      <path d="M148.77,88.04c2.17-3.27,4.63-6.94,7.89-9.02,4.91-2.81,14.44-3.82,16.22,3.15,1.31,4.67-2.24,10.63-7.28,10.74-2.26,0-4.09-1.83-6.19-2.45-2.48-.77-3.83,1.79-4.76,3.65-1.27,2.67-2.59,5.4-3.3,8.26-.57,2.48-1.7,6.01-4.77,5.86-3.37-.39-3.12-4.61-2.89-7.18.39-4.48,2.76-8.84,4.99-12.84l.1-.17Z"/>
      <path d="M59.16,188.88c.3.46-.37.45-.68.5-.35.03.35-.42.58-.52l.11.02Z"/>
      <path d="M123.54,147.63c0,.11-.08.21-.16.31.03-.11.05-.22.16-.31Z"/>
    </g>
  </g>
</svg>