<?xml version="1.0" encoding="UTF-8"?>
<svg id="Layer_2" xmlns="http://www.w3.org/2000/svg" viewBox="0 0 271.16 181.79">
  <g id="Layer_3">
    <g id="petridish_x5F_1">
      <path d="M271.1,59.8c.5,12-1.9,22.9-5.8,33.6-1.7,4.7-1.7,10-2.2,15.1-.9,10.6-2,21-8.9,29.8-10.2,13.2-22.5,23.6-38.1,29.4-8.7,3.3-17.7,6.1-26.7,8-15.5,3.2-31,6.7-47,6-13.8-.5-27.7-1.3-41.4-3-12.1-1.6-24.2-3.9-36-7-10.9-2.9-21.8-6-31.3-12.6-11.2-7.9-20.9-16.6-25.2-30.3C4.3,115.6-1.1,102.6.2,88.3c.7-7.5,2.5-14.9,4.2-22.2,4.5-19,17.3-31.5,33.3-41.3,8.8-5.3,17.2-11.4,26.3-16.1,7.2-3.7,14.8-6.7,23.2-6.9C95.4,1.5,103.6-.1,111.8,0c12.3.1,24.6.7,36.8,2,13.3,1.4,26.5,3.5,39.5,5.9,18.9,3.5,36.7,9.7,53.5,19.5,9.3,5.5,17.8,11.7,24.4,20.1,2.6,3.3,3.5,7.9,5.1,12.3M250.6,75.8c-3.6-6.6-9.5-10.8-15.7-14.7-4.4-2.7-8.4-6.5-13.2-8.1-11.3-3.8-22.7-7.1-34.6-9.5-16.3-3.2-32.7-4.3-49.1-5.4-8.1-.6-16.5.7-24.6,1.8-14.3,2-28.5,4.1-42.6,7.1-15.2,3.2-29.1,9.8-41.2,19.8-10.4,8.7-16.7,20-19.3,33-1.8,9,.3,18.7,7.8,23.9,8.3,5.8,18.2,10.1,28,12.8,13.1,3.6,26.6,5.3,40,7.2,12.3,1.8,24.6,3.2,36.9,4,6.8.5,13.7-.2,20.5-.9,11.7-1.4,23.6-2.3,34.9-5.2,19.1-4.9,38.3-10.1,55.8-19.7,9.2-5.1,16.6-11.9,21.3-21.2,1.3-2.5,1.4-6.2.7-9-1.2-5.3-3.3-10.3-5.6-15.9M251.1,62.3c2.8,5.2,5.9,10.2,8.4,15.6,1,2.3.7,5.3,1.2,8,.1.6.7,1.2,1,1.8.2-.5.5-1.1.7-1.7,3.4-7.8,3.6-16,2.1-24.1-1.6-8.4-8.6-13.4-14.2-18.9-3.6-3.5-8.4-6.1-13-8.3-10.3-4.9-20.5-10.3-31.3-13.6-12-3.6-25-3.8-37-7.6-14.2-4.4-28.6-3.7-43-4.5-11.9-.6-24-.1-35.9,1.1-7.6.7-15.6,2.5-22.4,6-11.7,6-23,13.2-33.8,20.9-10.8,7.6-20.2,16.9-23.7,30.3-2.1,8.4-3.4,17-5.1,25.4-.1.6.4,1.3.6,2,.5-.5,1.1-.9,1.4-1.4.4-.8.8-1.7,1-2.6,3.5-13.1,9.5-24.7,20.6-32.8,6.2-4.5,12.6-8.9,19.6-11.9,8.7-3.7,17.9-6.7,27.2-8.9,11.5-2.7,23.3-4.7,35-6.1,9.8-1.2,19.7-1.5,29.5-1.5,8.7,0,17.4.3,25.9,1.5,11.3,1.4,22.5,3.3,33.5,6,11.1,2.7,22.4,5.3,32.1,11.8,6.4,4.3,12.7,8.7,19.6,13.5M116.6,172.8c4.9.4,9.7,1.1,14.6,1,12.2-.5,24.6-.3,36.6-2.2,14.6-2.3,29.3-5.3,43.3-10.1,14.1-4.8,26.8-12.7,36.7-24.6,6-7.4,9.4-15.5,10.2-24.8.1-.9-.7-2-1.1-3-.6.8-1.1,1.5-1.8,2.2-4.8,4.9-8.9,10.7-14.4,14.4-20.9,13.9-44.6,20.5-69,25.1-7.4,1.4-14.8,3-22.3,4-7.4,1-14.8,1.9-22.2,1.9-8.3,0-16.5-1.1-24.8-1.9-5.9-.5-11.8-1-17.7-2-9.5-1.8-18.9-4.3-28.5-5.9-13.1-2.1-25.3-6.1-36.3-13.7-.8-.5-2.1-.4-3.1-.6.2,1.1.1,2.5.8,3.1,3.4,3.3,6.8,6.6,10.5,9.5,4.7,3.8,9.3,8.3,14.7,10.4,11.4,4.6,23.2,8.6,35.2,11.4,12.3,2.8,25.1,4,38.6,5.8"/>
      <path d="M93.1,60.8c1.7-2.1.1-2.4-1.4-1.9-3.5,1.1-6.9,2.6-10.3,3.9-11.7,4.8-23.5,9.4-35,14.4-4.8,2.1-7.6-.6-10.2-3.4-2-2.2,1-2.8,1.9-2.9,12.6-1.2,23.4-7.7,35-11.9,15.6-5.6,31.4-10.4,47.3-15,4.8-1.5,10-1.8,15.1-2,1.5,0,4,1.8,4.4,3.2,2,7,6.1,9.1,13.4,7.1,7.3-2.1,14.7-3.9,22.2-5.3,1.8-.3,4.7,1.4,6,3,1.8,2.3.7,5-1.8,6.7-2.3,1.5-4.8,2.7-7.2,4.2-.9.5-1.6,1.3-2.4,2,.8.6,1.5,1.5,2.4,1.9,12,5.7,23.9,11.4,36,16.8,3.2,1.5,2.8,2.9,1.9,5.6-1.2,3.6-4,3.3-5.9,2.4-8.8-4-17.4-8.5-26.2-12.8-5.5-2.7-11-5.5-16.7-7.7-1.7-.7-4.4.3-6.3,1.2-8.2,3.7-16.2,7.6-24.2,11.5-2.4,1.2-4.6,2.5-7.1,3.6-9.6,4-19.3,8.1-29,11.9-3,1.3-6.6,1.4-7.7-2.3-1.2-3.9,2.2-5,5.2-6.2,14.5-5.6,29-11.2,43.4-17,4-1.6,7.7-3.9,11.5-6,.6-.3,1.1-1,1.6-1.6-.8-.4-1.6-1.2-2.5-1.3-1,0-2,.5-3,.9-7.9,3.2-15.5,7-23.6,9.5-10.5,3.4-21.3,5.6-31.9,8.6-5.9,1.7-11.6,4.5-17.5,5.9-5.4,1.3-11.1,1.8-16.7,1.8-1.9,0-4.2-2.4-5.4-4.3-.4-.5,1.8-3.8,3.5-4.6,10.8-5.1,21.8-9.9,32.7-15,2.8-1.3,5.4-3.2,8.3-4.6.8.3,1.5.3,2.1.3-.6-.2-1.3-.4-1.9-.6M69.1,78.83c.3-.1.7-.3,1.5-.5,1.1.2,2.4.9,3.4.6,3-1,5.9-2.6,9-3.5,18-5.4,36.1-10.7,54.2-16.1.7-.2,1.3-1.2,1.9-1.9,0-.1-.5-1-.7-1-3.9-.4-8.1-1.7-11.7-.8-5.1,1.3-9.7,4.5-14.8,6.3-12.7,4.7-25.5,8.9-38.2,13.5-1.4.5-2.4,1.9-4.1,2.9,0,0-.5,0-.5-.5h-.9c.3.2.6.3.9,1M160.6,57.8c.4,0,.8-.1,1.3-.2-.1-.2-.2-.6-.2-.6-.5.1-1.1.2-1.1.8"/>
      <path d="M125.4,136.1c-1.5.4-3,1.1-4,.6-2.2-.9-4.2-2.3-6.3-3.5,2.1-2.1,3.8-4.7,6.3-6.2,1.3-.8,3.9-.4,5.6.4,3.3,1.5,2.8,4-1.6,8.7"/>
      <path d="M43.1,117.8c-4.2-3.6-1.8-6.5,1.2-8.4,1.8-1.1,5.1-1.6,6.9-.6,3,1.6,2.7,4.8.9,7.6-2.3,3.5-5.3,3.1-9,1.4"/>
      <path d="M203.9,100.1c.2,6.5-2.6,10.1-7.3,9.6-1.5-.1-3.8-1.2-4.2-2.4-.5-1.5.1-3.8,1.1-5.2,2.6-3.6,6.2-4.2,10.4-2"/>
      <path d="M215.9,90.6c3.1-3,8.6-2.8,10.7.3,1.8,2.5-1,7.6-4.2,7.9-3.9.4-7.4-3.8-6.5-8.2"/>
      <path d="M223.1,110.8c-1.8,4.7-5.4,6.4-9.3,5-1.3-.4-1.5-7.2.4-8,2.9-1.3,6.3-1.3,9.5-1.8-.2,1.4-.4,2.9-.6,4.8"/>
      <path d="M197.9,125.6c-1.8.6-3.3,1.1-4.8,1.2-1.7,0-3.3-.5-5-.7.9-2.8,1.2-5.9,2.8-8.1.8-1,4.6-.9,6.3,0,2.8,1.6,2.2,4.7.7,7.6"/>
      <path d="M154.4,91.1c-2,3.5-4.9,3.6-7.1,1.6-1.3-1.2-2.1-4.4-1.4-5.8.8-1.5,3.8-3.2,5.4-2.8,3.1.7,4.8,3.2,3.1,7"/>
      <path d="M133.9,107.6c1.9-3.5,4.8-3.7,7-1.6,1.3,1.2,2.1,4.4,1.4,5.8-.8,1.5-3.8,3.2-5.4,2.8-3.1-.7-4.8-3.2-3-7"/>
      <path d="M183.1,105.8c2.3,1.3,4.7,2.3,5.8,4,.6,1-.5,4.2-1.6,4.8-1.6.9-4.3.9-5.9.1-3.7-1.7-2.9-6,1.7-8.9"/>
      <path d="M168.4,120.6c-3.1-1.9-4.6-4.2-2.4-7,1.3-1.4,4.1-2.9,5.6-2.4,1.6.6,3.3,3.4,3.3,5.2,0,3.6-2.9,4.7-6.5,4.2"/>
      <path d="M89.1,113.8c3.4-.2,5.6.5,6,4,.3,2.4-.1,4.7-2.8,4.9-2.3.1-6.3-.3-6.9-1.6-1.1-2.5-.8-6.1,3.7-7.3"/>
      <path d="M174.1,91.8c2.5-.9,4.7-3.8,6.4-.7.8,1.4-.6,4.3-1.6,6.2-.3.5-3.3.5-3.7-.1-1-1.5-1.1-3.6-1.1-5.4"/>
      <path d="M235.4,106.6c-1.3-3.6,3-9.2,6.3-8.6.5,0,1.3,2.2,1,2.5-2.2,2.3-4.7,4.3-7.3,6.1"/>
      <path d="M66.1,128.8c-1.6-.4-3.1-.6-3.8-1.4-1.3-1.5-2.2-3.3-3.1-5.1-.1-.1,1.5-1.5,1.6-1.4,1.9,1.3,3.8,2.6,5.2,4.2.7.8.4,2.5.1,3.7"/>
    </g>
  </g>
</svg>