<?xml version="1.0" encoding="UTF-8"?>
<svg id="Layer_2" xmlns="http://www.w3.org/2000/svg" viewBox="0 0 386.97 481.93">
  <defs>
    <style>
      .cls-1 {
        fill: #cc0e07;
      }

      .cls-2 {
        fill: #030303;
      }
    </style>
  </defs>
  <g id="Layer_1_xA0_Image">
    <g>
      <path class="cls-2" d="M230.26,307.16c4.02-8.66,9.25-16.72,12.05-25.98,1.47-4.86,1.44-9.81.29-14.54-1.78-7.38-4.21-14.6-6.5-21.85-.87-2.76-2.26-5.35-3.12-8.11-2.14-6.84-.04-10.67,6.93-12.73,2.43-.72,4.96-1.05,7.43-1.62,1.01-.23,1.98-.62,3.47-1.1-1.05-3.68-1.88-7.17-3.05-10.54-3.87-11.13-7.9-22.2-11.77-33.33-1.07-3.08-2.08-6.22-2.61-9.42-1.04-6.31,2.92-10.66,9.33-10.3,2.31.13,4.59.98,6.88,1.48,4.04.89,8.09,1.77,13.05,2.86-.18-2.68-.24-4.57-.45-6.45-1.88-16.95-3.81-33.9-5.67-50.85-.18-1.61-.19-3.28-.02-4.89.64-6.15,5.84-10.3,12.56-6.12,5.37,3.34,11.07,6.17,16.66,9.16,1.42.76,2.96,1.27,4.62,1.97,3.58-7.57,6.93-14.98,10.55-22.24,3.07-6.15,6.45-12.15,9.72-18.21.34-.63.78-1.23,1.24-1.79,4.76-5.77,10.56-4.93,13.35,2.03,3.51,8.74,6.88,17.54,10.3,26.31.72,1.84,1.41,3.68,2.29,5.98,1.36-.96,2.38-1.58,3.27-2.34,8.61-7.32,18.66-11.76,29.47-14.63,1.74-.46,3.58-.72,5.37-.75,6.68-.1,10.67,5.54,7.44,11.39-6.03,10.92-11.15,22.49-20.21,31.49-.88.87-1.63,1.86-2.82,3.22,2.11,1.24,3.98,2.26,5.76,3.41,5.02,3.25,10,6.55,14.99,9.83.15.1.28.23.42.35,9.03,7.62,6.11,14.27-2.8,17.25-9.26,3.09-18.18,7.22-27.24,10.91-.92.38-1.81.85-3.32,1.56,2.72,1.85,5.03,3.22,7.1,4.88,2.68,2.14,5.48,4.26,7.68,6.85,3.91,4.58,3.57,8.86-.81,12.95-2.38,2.22-5.07,4.12-7.71,6.03-10.13,7.36-20.3,14.66-30.45,22-.8.58-1.51,1.29-2.55,2.2,3.11.83,5.79,1.24,8.21,2.25,8.59,3.6,9.92,12.19,2.78,18.05-2.22,1.82-4.76,3.33-7.32,4.68-22.37,11.79-42.34,26.62-59.18,45.62-5.89,6.65-12.36,12.8-18.59,19.15-7.39,7.52-11.95,16.79-16,26.32-.74,1.73-.43,3.93-.5,5.92-.65,20.5-.59,41.06-2.09,61.5-1.61,21.91-5.94,43.47-12.35,64.55-.63,2.08-1,4.24-1.66,6.31-.89,2.8-2.99,4.24-5.68,4.13-2.88-.12-5.22-2.01-5.44-5.07-.17-2.29.29-4.67.72-6.96.37-1.95,1.32-3.79,1.66-5.74.73-4.16-1.17-6.25-5.28-5.84-8.46.86-17.09.47-25.25,3.53-.83.31-1.79.34-2.69.38-2.69.12-5.05-.55-6.53-3.05-1.48-2.49-1.05-4.93.49-7.16,1.54-2.24,3.33-4.31,4.94-6.49,2.03-2.75,3.99-5.54,6.65-9.24-4.13-.15-7.32-.05-10.46-.43-3.57-.44-7.22-.91-10.6-2.06-6.52-2.24-7.71-7.89-2.77-12.6,2.6-2.47,5.59-4.51,9.03-7.24-2.22-.95-3.96-1.76-5.75-2.45-6.85-2.63-12.96-6.49-18.58-11.15-5.11-4.24-4.79-8.52.81-12.26,1.35-.91,2.76-1.74,4.68-2.95-1.52-1.46-2.85-2.79-4.24-4.06-5.45-4.99-9.68-10.79-11.99-17.88-.45-1.37-.88-2.79-1-4.21-.69-8.39,4.83-13.19,12.94-11.16,4.21,1.06,8.32,2.49,12.48,3.76,1.19.36,2.38.74,3.89,1.21.03-8.06,1.78-15.36,5.98-21.95.58-.92,1.18-1.84,1.82-2.72,1.87-2.57,3.97-4.95,7.53-4.42,3.98.59,5.73,3.61,6.61,7.12,1.54,6.15,2.83,12.36,4.35,18.51.51,2.06,1.41,4.03,2.1,5.97,4.1-2.06,7.73-4.05,11.52-5.69,1.59-.69,3.54-1.02,5.27-.87,4.87.42,7.77,4.51,6.44,9.24-.77,2.75-2.16,5.36-3.49,7.91-1.66,3.19-3.54,6.25-5.39,9.5,11.51,1.21,14.71,6.52,10.47,17.02-1.55,3.85-3.47,7.55-5.23,11.31,8.17,8.71,6.36,19.59,7.61,30.14.42-1.74.92-3.46,1.23-5.21,3.1-17.2,4.33-34.56,4.44-52.03.16-25.57-.09-51.11-1.74-76.67-1.44-22.28-3.05-44.54-5.62-66.71-3.15-27.14-10.56-52.95-24.97-76.45-.76-1.24-1.59-2.45-2.19-3.76-6.54-14.2-17.53-24.32-30.3-32.67-3.89-2.54-8.35-4.22-12.6-6.19-1.96-.91-4.16-1.36-6.05-2.38-3.78-2.04-5.67-5.82-5.07-9.44.79-4.76,6.07-7.08,9.32-3.6,2.46,2.64,5.34,3.5,8.37,4.57.85.3,1.74.55,2.54.96,13.93,7.33,27.01,15.96,36.05,29.09,18.65,27.1,31.6,56.71,36.2,89.5,2.09,14.9,3.46,29.92,4.74,44.92,1.11,12.96,1.64,25.98,2.42,38.97.39.13.79.25,1.18.38Z"/>
      <path class="cls-1" d="M56.96,123.84c-9.3.93-17.91,1.47-26.3,3.86-1.9.54-3.89,1.06-5.84,1.06-4.04,0-7.03-3.03-7.07-6.78-.04-3.88,2.64-6.16,7.22-6.15.89,0,1.79.02,2.66-.11,10.2-1.57,20.4-3.16,30.59-4.76.34-.05.67-.23,1.32-.47.84-3.39.15-6.34-2.19-9.31C40.74,80.08,24.25,58.87,7.67,37.74c-1.33-1.69-2.95-3.19-4.55-4.64-3.51-3.17-4.13-7.03-1.46-9.95,2.67-2.93,6.73-2.94,10.01.68,5.73,6.32,11.29,12.8,16.55,19.52,8.39,10.72,16.44,21.7,24.68,32.54,1.5,1.97,3.22,3.78,5.61,6.57.13-2.34.28-3.51.23-4.66-.64-15.24-1.31-30.47-1.96-45.71-.09-1.99-.3-4-.21-5.98.19-4.1,2.36-6.61,5.65-6.79,3.38-.18,5.76,1.99,6.19,6.18.58,5.59,1.04,11.21,1.27,16.83.7,17.05,1.26,34.11,1.89,51.16.04,1.02.18,2.03.4,4.32,1.36-2.09,2.16-3.16,2.79-4.32,13-23.75,27.18-46.75,43.05-68.7,2.97-4.11,5.38-8.63,8.31-12.77,2.29-3.24,4.77-6.42,7.57-9.23,3.45-3.47,6.95-3.6,9.58-.93,2.46,2.51,1.99,5.47-.76,9.23-21.77,29.75-42.13,60.4-59.46,92.99-.23.44-.16,1.04-.26,1.83,8.05-.53,15.96-1.05,23.88-1.55,1.43-.09,2.9-.35,4.28-.13,3.3.53,5.47,2.91,5.55,5.77.08,2.67-1.57,5.07-4.77,5.8-3.69.84-7.49,1.27-11.26,1.6-4.66.4-9.35.52-14.94.81,1.47,2.32,2.31,3.85,3.33,5.24,12.41,16.78,24.95,33.46,37.23,50.34,5.66,7.77,10.83,15.89,16.17,23.89.69,1.04,1.29,2.24,1.55,3.44.54,2.49-.13,4.68-2.32,6.22-2.08,1.46-4.97,1.4-7.07-.36-1.09-.91-2.07-2.07-2.8-3.29-10.75-17.98-24.8-33.56-36.72-50.69-5.49-7.89-11.2-15.64-16.81-23.45-1.05-1.46-2.09-2.92-3.72-5.19-.23,1.95-.55,3.05-.46,4.12,1.31,15.73,2.91,31.44,3.97,47.19.97,14.48,1.45,29,1.99,43.51.16,4.33-2.27,7.16-5.68,7.34-3.33.18-6.02-2.5-6.63-6.63-.08-.54-.08-1.09-.08-1.63.11-21.28-2.13-42.41-4.23-63.55-.42-4.25-.76-8.51-2.07-13.07-1.48,2.58-3.07,5.12-4.43,7.76-8.79,17.1-17.53,34.23-26.29,51.35-1.49,2.91-2.96,5.83-4.51,8.7-.78,1.43-1.63,2.84-2.6,4.15-2.84,3.8-6.3,4.79-9.34,2.78-2.98-1.97-3.07-5.29-.73-9.64,4.3-7.98,8.35-16.1,12.59-24.11,9.76-18.43,19.58-36.84,29.37-55.25.49-.92.91-1.87,1.71-3.53Z"/>
    </g>
  </g>
</svg>