<?xml version="1.0" encoding="UTF-8"?>
<svg id="Layer_2" xmlns="http://www.w3.org/2000/svg" viewBox="0 0 421.95 269.83">
  <g id="Layer_3">
    <g id="blikjes">
      <path d="M17.04,217.14c5.93-6.57,13.75-8.81,21.19-11.89,6.02-2.49,11.7-5.8,17.62-8.55,1.83-.85,3.94-1.11,5.95-1.5,5.55-1.07,11.09-2.42,16.7-2.98,4.11-.41,7.27,2.08,9.69,5.38,1.56,2.12,3.34,4.1,4.79,6.29,1.61,2.43,3.08,3.08,5.52.87,6.83-6.18,11.07-13.83,12.89-22.74,2.68-13.09,2.81-26.29-.99-39.14-2.18-7.39-5.36-14.54-8.67-21.53-4.54-9.59-9.61-18.92-14.47-28.35-2.83-5.48-5.38-11.14-8.65-16.35-5.01-7.97-2.34-16.19-.79-24.02,2.51-12.71,8.82-23.98,16.74-34.18,2.39-3.08,5.59-5.82,8.95-7.82,5.6-3.34,11.76-5.72,17.43-8.95,6.22-3.55,11.91-.75,16.89,1.85,9.18,4.8,18.22,10.16,26.39,16.49,7.87,6.09,13.45,14.6,13.1,25.05-.19,5.65-2.78,11.21-4.22,16.83-3.74,14.57-8.55,29.2-4.31,44.35,2.66,9.51,6.73,18.63,10.28,27.88,1.58,4.1,3.24,8.21,5.28,12.09,1.29,2.45,2.99,4.94,5.13,6.62,4.44,3.48,9.11,6.74,14.02,9.51,3.91,2.21,8.17,4.15,12.52,5.13,7.33,1.65,14.93,3.75,22.26,3.27,9.92-.64,20.1-2.7,26.75-11.67.82-1.11,1.07-2.63,1.77-3.85,2.09-3.63.1-4.35-3.03-4.66-4.25-.42-8.58-.67-12.71-1.68-9.31-2.29-12.05-5.92-13.05-15.02-.72-6.51,1.5-12.45,5.51-16.67,6.3-6.62,17.65-6.05,22.44,3.41,3.49,6.89,6.09,13.95,7.22,21.56.37,2.47,1.28,2.36,3.7,1.98,8.2-1.32,15.33-4.46,21.67-9.81,7.2-6.08,11.13-14.05,13.47-22.84,1.16-4.36,1.2-9.01,1.85-13.52,1.29-8.84,1.94-17.86,4.19-26.46,2.11-8.09,6.13-15.63,12.24-21.71,3.33-3.31,7.72-1.95,11.67-2.46,2.97-.39,6.05-.92,8.97-.56,5.49.67,11.37.93,16.24,3.2,7,3.26,13.73,7.38,18.6,13.97,3.9,5.27,5.34,11.34,6.58,17.37,1,4.83.68,9.98.56,14.98-.14,5.95-.42,11.92-1.15,17.81-.43,3.45,1.24,4.95,3.93,5.28,10.43,1.28,17.79,7.14,23.49,15.41,1.17,1.7,1.51,4.1,1.8,6.24.5,3.74.91,7.53.9,11.29,0,3.14-.55,6.29-1.05,9.41-.55,3.45-1.32,6.86-2,10.29-.55,2.78-1.24,5.55-1.64,8.35-.93,6.59-2.2,13.18-2.45,19.81-.33,8.71-5.38,13.6-12.8,15.4-7.88,1.9-16.15,2.31-24.28,2.96-7.3.59-14.34-.87-20.15-5.58-2.7-2.19-5.63-4.9-6.81-8-3-7.88-4.77-16.19-4.09-24.75.54-6.83,1.2-13.66,2.07-20.46.33-2.59,1.62-5.05,2.04-7.64.64-3.91.92-7.87,1.31-11.82.12-1.2-.13-2.47.18-3.61,1.32-4.83,2.72-9.64,4.2-14.42.98-3.14,7.59-7.41,10.87-7.04,4.91.56,9.8,1.49,14.73,1.7,1.27.05,3.61-1.84,3.78-3.07,1.3-9.4,3.52-18.94,2.87-28.26-.85-12.12-5.41-23.21-17.92-28.7-3.41-1.5-6.62-3.5-10.1-4.78-8.14-2.98-16.47-.14-24.71-.22-1.59-.02-3.67,2.2-4.74,3.89-4.49,7.05-8.12,14.59-9.48,22.89-1.5,9.14-2.26,18.4-3.66,27.56-1.5,9.82-4.39,19.24-11.17,26.79-5.68,6.32-12.36,11.37-20.96,13.32-3.24.74-6.46,1.73-9.52,3.01-1.36.57-2.98,1.99-3.3,3.32-2.51,10.37-9.44,16.45-18.95,20.03-13.45,5.07-26.78,3.17-39.93-1.25-4.88-1.64-9.89-3.38-14.23-6.06-6.01-3.73-11.51-8.3-17.08-12.71-1.51-1.2-2.86-2.93-3.61-4.7-4.03-9.51-8.02-19.04-11.69-28.69-3.28-8.63-5.35-17.55-5-26.93.53-13.91,4.83-26.97,8.74-40.12,3.08-10.37.16-18.7-7.43-26.42-8.28-8.42-18.16-13.99-28.4-19.36-5.79-3.04-10.98-2.79-16.52.31-5.02,2.8-10.76,4.54-15.26,7.96-3.92,2.98-6.9,7.42-9.69,11.62-7.72,11.63-13.38,24.22-13.1,38.44.1,5.22,1.82,10.76,4.11,15.53,5.12,10.66,11.1,20.9,16.64,31.37,6.13,11.57,12.98,22.97,14.3,36.33,1.03,10.43,2.1,21.02,1.39,31.42-.76,11.05-5.54,21.5-12.97,29.54-3.96,4.28-5.08,6.87-2.85,11.92,2.96,6.73-1.25,11.74-5.51,15.98-8.29,8.25-19.19,12.26-29.5,17.24-3.44,1.66-6.24,4.59-9.52,6.65-2.53,1.59-5.29,2.87-8.06,4.02-3.2,1.33-6.58,2.24-9.78,3.56-4.69,1.94-9.42,1.84-14.01.15-12.63-4.65-20.72-14.04-24.51-26.53-2.45-8.06.83-21.38,14.9-24.16.37-.07.72-.29,1.41-.7M410.07,185.4c.65-4.18,1.28-8.36,1.95-12.54.17-1.06.44-2.1.65-3.16.61-3.17,1.29-6.33,1.81-9.52.5-3.1,1.05-6.22,1.16-9.34.11-3.26-.14-6.56-.51-9.8-.22-1.88-.41-4.45-1.64-5.41-4.22-3.33-8.51-7.39-13.45-8.79-10.01-2.83-20.46-4.09-30.73-6.01-3.86-.72-5.85,1.4-7.32,4.56-2.3,4.96-.34,7.85,5.16,7.46,2.74-.19,5.53-.82,8.2-.48,11.6,1.45,21.94,6.55,32.14,11.86,1.2.62,1.72,2.55,2.55,3.87-1.44-.01-3.11.44-4.28-.13-3.45-1.67-6.53-4.2-10.07-5.57-9.34-3.6-18.84-6.78-29.15-5.33-1.3.18-2.99.61-3.89.02-4.22-2.76-4.47.53-4.85,3.11-.44,2.93-.19,5.97-.65,8.89-1.33,8.33-3.09,16.6-4.26,24.96-.65,4.63-.6,9.38-.58,14.07,0,1.67.61,3.73,3.19,2.11,5.38-3.38,10.91-4.86,17.57-4.51,7.92.42,15.02,2.45,21.87,5.99,3.75,1.94,7.33,4.21,11.06,6.2,2.88,1.54,2.88,1.34,2.99-1.74.11-3.4.66-6.79,1.1-10.76M70.65,199.4c-3.28.61-6.81.66-9.8,1.94-7.42,3.18-14.57,6.97-21.88,10.4-2.08.98-4.35,1.56-6.52,2.34-2.06.74-4.29,1.19-6.12,2.3-3.18,1.92-6.06,4.34-9.19,6.38-1.64,1.07-1.99,2.7-.17,3.51,10.31,4.61,14.92,14.34,20.48,23.06,1.65,2.59,4.93,5.4,3.14,9.51-.05.12,1.63,1.5,2.29,1.34,4.28-.99,7.96-3.04,11.7-5.52,6.54-4.34,13.87-7.47,20.7-11.4,5.8-3.33,11.73-6.62,16.9-10.8,3.66-2.96,4.54-7.38,2.93-12.53-2.41-7.74-6.7-14.18-11.71-20.27-1.89-2.29-4.21-4.37-7.64-2.58-1.51.79-3.02,1.59-5.11,2.31M250.05,119.18c-2.83,1.73-4.46,4.26-5.76,7.33-4.46,10.52,2.07,20.06,13.26,19.19,2.23-.17,4.54-.05,6.76.28,4.59.67,5.66-.18,4.22-4.94-2.04-6.75-4.48-13.39-7.11-19.94-1.33-3.31-7.64-4.49-11.37-1.91M11.64,252.35c1.33,1.27,2.67,2.54,4,3.82,4.7,4.53,10.23,7.38,16.8,7.64,1.33.05,3-1.03,3.94-2.09.37-.42-.49-2.75-1.36-3.3-3.23-2.05-7.03-3.31-10.01-5.65-3.76-2.96-7.45-6.31-10.13-10.21-1.66-2.42-1.2-6.22-2.07-9.3-.38-1.35-1.71-2.43-2.61-3.63-1.05.96-2.7,1.76-3.02,2.92-.55,2.01-.77,4.37-.26,6.37,1.11,4.33,2.76,8.53,4.71,13.44M381.24,206.62c-3.38-.24-6.86-.02-10.1-.81-4.93-1.2-10.39-1.96-12.58-7.83-.19-.51-1.23-.89-1.91-.96-.3-.03-.87.82-1.03,1.35-1.47,5.14,2.01,9.37,8.15,11.83,7.22,2.89,14.94,2.38,22.5,1.4,5.33-.69,10.65-1.71,15.86-3.04,1.23-.31,1.99-2.44,2.97-3.73-1.31-.51-2.98-1.8-3.87-1.39-6.21,2.87-12.79,3.08-19.99,3.18Z"/>
      <path d="M386.67,175.87c-7.45-3.41-15-3.53-22.66-2.73-1.15.12-2.41.78-3.38.47-1.23-.4-2.23-1.53-3.33-2.35.84-.75,1.59-2.01,2.52-2.15,3.71-.58,7.48-1.25,11.2-1.09,11.87.49,22.7,4.31,32.4,11.21.84.6,1.93,1.2,2.3,2.05.55,1.26.55,2.75.78,4.14-1.28-.48-2.62-.85-3.84-1.46-5.25-2.64-10.47-5.36-16-8.08Z"/>
      <path d="M361.99,155.5c-1.97-3.79-1.42-4.76,2.16-4.49,1.72.13,3.6.52,5.16.02,10.75-3.47,19.3,2.76,28.46,6.24,2.76,1.05,5.48,2.25,8.05,3.7,1,.57,1.52,2,2.25,3.04-1.07.18-2.32.81-3.19.48-5.41-2.09-10.99-3.93-16.02-6.74-7.01-3.92-14.11-3.06-21.42-2.03-1.68.24-3.43-.1-5.44-.21Z"/>
      <path d="M387.27,148.06c-6.23-1.2-12.17-2.37-18.12-3.5-1.36-.26-2.95,0-4.06-.64-1.13-.64-1.81-2.08-2.69-3.18,1.12-.26,2.26-.83,3.34-.74,9.57.79,19.01,2.37,27.95,5.98,3.05,1.23,5.89,3.1,8.6,5,.91.64,1.13,2.27,1.66,3.45-1.14-.15-2.38-.05-3.4-.49-4.37-1.87-8.67-3.89-13.28-5.9Z"/>
      <path d="M65.6,204.09c4.76,8.09,9.28,16.12,13.65,24.24.64,1.18.96,2.84.69,4.11-.27,1.26-1.49,2.31-2.3,3.46-.98-1.14-2.75-2.25-2.8-3.43-.29-7.53-4.68-13.19-8.24-19.25-1.28-2.18-2.77-4.25-3.88-6.51-.48-.98-.21-2.31-.28-3.49.95.28,1.91.55,3.15.86Z"/>
      <path d="M44.82,227.24c2.98,5.28,5.87,10.15,8.32,15.24.62,1.28-.2,3.25-.35,4.9-1.25-.81-2.98-1.34-3.67-2.49-2.99-4.95-5.47-10.21-8.55-15.1-1.67-2.66-4.28-4.7-6.22-7.22-.76-.98-.82-2.5-1.2-3.77,1.06.05,2.48-.32,3.11.22,2.89,2.49,5.56,5.23,8.57,8.21Z"/>
      <path d="M49.58,213.31c6.46,7.31,11.29,15.35,13.91,24.57.31,1.1-.29,2.45-.46,3.69-1.13-.85-3.02-1.52-3.27-2.58-1.87-7.69-5.9-14.12-10.84-20.14-2.44-2.97-2.19-4.56.67-5.54Z"/>
      <path d="M66.98,237.2c-1.96-4.78-3.8-9.35-6-13.74-1.78-3.55-4.1-6.82-5.92-10.34-.45-.87.09-2.26.18-3.4.79.47,1.87.74,2.32,1.43,4.8,7.4,10.23,14.49,12.61,23.17.35,1.28-.38,2.86-.61,4.31-.87-.38-1.75-.75-2.58-1.42Z"/>
      <path d="M88.39,220.66c-2.36-3.98-4.47-7.89-6.45-11.88-.36-.74-.17-1.75-.24-2.63.81.39,1.97.56,2.37,1.2,2.32,3.7,4.5,7.48,6.55,11.33.14.26-1.26,1.32-2.23,1.97Z"/>
    </g>
  </g>
</svg>