<?xml version="1.0" encoding="UTF-8"?>
<svg id="Layer_2" xmlns="http://www.w3.org/2000/svg" viewBox="0 0 291.44 291.46">
  <g id="Layer_3">
    <g id="mitochondrium_x5F_1">
      <path d="M94.12,10.59c.35.3.6.6.92.84,3.06,2.22,6.19,4.39,9.26,6.64,4.77,3.56,9.08,7.64,12.66,12.38,2.63,3.44,4.98,7.09,7.22,10.82,2.29,3.86,4.23,7.94,6.46,11.86,2.87,5.02,5.79,10.05,8.86,14.95,1.08,1.77,2.61,3.25,3.96,4.84,6.23,7.42,12.52,14.79,18.68,22.26,5.81,7.02,11.39,14.25,17.28,21.19,2.72,3.22,5.95,6.06,9.05,8.95,2.89,2.67,5.9,5.2,8.93,7.68,2.04,1.66,4.22,3.18,6.42,4.68,1.59,1.11,3.16,2.37,4.91,3.15,3.48,1.61,7.05,3.08,10.65,4.32,4.51,1.53,9.13,2.67,13.64,4.14,2.21.74,4.3,1.84,6.41,2.8,1.3.61,2.65,1.15,3.81,1.95,3.75,2.62,7.52,5.16,10.82,8.39,4.78,4.64,9.45,9.37,13.67,14.54,1.6,1.95,3.1,3.99,4.58,6.03,3.86,5.33,7.04,11.03,10,16.88,2.91,5.79,4.83,11.92,6.2,18.18,1.06,4.92,1.98,9.85,2.71,14.85.57,3.86,0,7.62-1.84,11.24-1.83,3.6-4.64,6.35-7.32,9.26-1.47,1.57-2.84,3.22-4.09,4.95-2.32,3.22-4.83,6.27-8.02,8.67-6.84,5.12-14.23,9.31-21.75,13.3-3.69,1.96-7.71,2.89-11.89,3.31-3.19.31-6.33,1-9.48,1.46-3.26.49-6.56.86-9.83,1.32-2.81.39-5.63.7-8.43,1.18-7.53,1.28-14.99,2.94-22.69,3.07-5.28.1-10.52.66-15.82.73-5.15.09-10.37.23-15.41-1.18-2.38-.66-4.84-1.33-7.08-2.39-3.23-1.52-6.41-3.23-9.4-5.19-2.6-1.7-4.9-3.85-7.32-5.82-1.56-1.28-3.05-2.61-4.62-3.87-2.64-2.1-5.34-4.16-8.01-6.22-1.47-1.11-3.01-2.1-4.47-3.23-2.71-2.14-5.46-4.21-8.03-6.54-3.75-3.36-7.37-6.89-10.95-10.43-1.81-1.79-3.43-3.75-5.11-5.66-2.09-2.36-4.23-4.69-6.22-7.11-3.27-3.97-6.47-7.99-9.65-12.07-4.52-5.77-9.02-11.57-13.48-17.44-2.88-3.8-5.68-7.68-8.45-11.55-3.25-4.57-6.57-9.09-9.6-13.79-2.55-3.89-4.7-8.03-7.07-12.03-1.43-2.44-2.95-4.83-4.43-7.23-1.87-3-3.71-6.01-5.63-8.97-2.42-3.75-4.93-7.43-7.3-11.21-2.63-4.21-5.38-8.4-7.62-12.81-2.19-4.29-3.96-8.83-5.69-13.37-2.39-6.31-3.16-12.93-3.15-19.66.02-5.7-.21-11.4-.05-17.08.12-4.2-.44-8.28-1.11-12.38-.5-2.93-.12-5.78,1.51-8.46,2.9-4.75,5.55-9.65,8.5-14.38,1.74-2.76,3.77-5.35,5.84-7.89,2.83-3.53,5.8-6.93,8.77-10.32,3.15-3.6,6.36-7.15,9.6-10.64,2.29-2.44,5.31-3.83,8.12-5.54,2.6-1.55,5.03-3.35,7.69-4.84C53.3.35,56.75-.08,60.22.01c5.79.13,11.27,2.05,16.81,3.45,3.36.83,6.55,2.3,9.79,3.48.93.36,1.8.75,2.76,1.06,1.51.82,3,1.69,4.54,2.59M42.19,18.92c-2.95,1.62-5.44,3.73-7.38,6.53-1.42,2.06-2.83,4.15-4.48,6.04-2.78,3.23-5.82,6.27-8.62,9.49-1.93,2.25-3.79,4.54-4.94,7.4-1.21,3.01-2.89,5.84-4.16,8.84-.75,1.8-1.38,3.77-1.47,5.71-.09,2.93.27,5.9.51,8.84.39,4.8.74,9.61,1.27,14.38.38,3.45.92,6.83,1.52,10.22.26,1.5.97,2.9,1.3,4.39.77,3.46,1.32,6.98,2.2,10.41.74,3.04,1.73,6.02,2.7,8.98.66,1.92,1.46,3.8,2.19,5.71,1.32,3.41,2.61,6.84,3.93,10.25.56,1.4,1.06,2.86,1.84,4.15,1.58,2.65,3.55,4.96,5.95,7.05,1.6,1.36,2.5,3.61,3.53,5.57,2.65,4.93,4.96,10.06,7.87,14.8,2.95,4.83,6.46,9.34,9.78,13.95,2.05,2.8,4.16,5.54,6.26,8.3,3.05,4.03,6.19,8.01,9.11,12.15,2.1,2.92,4.19,5.71,7.47,7.44,1.53.8,2.95,1.88,4.22,3.08,4.37,4.18,7.68,9.13,10.43,14.52,1.41,2.73,3.02,5.3,5.61,7.12,2.77,1.93,5.44,3.98,8.15,5.97,2.39,1.74,4.83,3.41,7.2,5.13,2.47,1.81,4.93,3.65,7.34,5.52,2.88,2.27,5.69,4.62,8.58,6.86,4.17,3.21,7.18,7.67,11.66,10.53,1.77,1.13,3.4,2.48,5.18,3.58,1.24.72,2.61,1.22,3.98,1.71,2.48.9,4.98,1.99,7.56,2.46,4.73.89,9.52,1.42,14.3,2.07,4.52.62,9.08,1.13,13.58,1.83,5.19.79,10.29.95,15.42-.41,3.34-.87,6.76-1.48,10.17-2.1,2.67-.47,5.42-.55,8.04-1.2,4.12-1,8.15-2.27,12.18-3.54,4.4-1.42,8.46-3.59,12.34-6.02,5.09-3.19,10.09-6.63,14.32-10.88,3.25-3.29,6.3-6.88,8.97-10.66,2.17-3.03,4.1-6.33,5.36-9.95,1.07-3.03,2.04-6.06,2.08-9.23.02-3.71-.05-7.43-.62-11.08-.55-3.58-1.48-7.19-2.75-10.58-2.16-5.71-5.94-10.38-10.27-14.64-3.6-3.52-7.18-7.05-10.52-10.79-2.69-3.02-5.62-5.62-9.06-7.72-4.23-2.59-8.75-4.53-13.39-6.26-3.04-1.1-6.15-2.09-9.19-3.19-3.61-1.28-7.3-2.43-10.83-3.97-2.59-1.14-4.98-2.73-7.36-4.27-2.01-1.3-3.86-2.81-5.75-4.25-3.11-2.4-6.23-4.78-9.25-7.29-2.92-2.41-5.56-5.15-7.83-8.2-3.57-4.82-7.1-9.71-11.32-13.99-3.29-3.31-6.71-6.54-10.18-9.64-2.67-2.36-5.59-4.47-8.34-6.75-3.65-3.06-6.63-6.73-9.35-10.6-3.11-4.46-5.78-9.19-8.2-14.07-3.48-6.98-7.1-13.86-10.85-20.69-2.76-4.99-5.55-10-8.79-14.69-3.21-4.64-6.9-9.01-10.62-13.31-2.22-2.56-4.8-4.87-7.84-6.49-1.31-.7-2.58-1.48-3.95-1.97-2.05-.74-4.17-1.43-6.3-1.84-4.85-.9-9.76-1.59-14.62-2.47-3.21-.56-6.39-1.62-9.62-1.82-5.67-.4-11.09.73-16.27,3.6"/>
      <path d="M123.27,203.04c-1.61,2.86-4.06,4.84-6.14,7.13-1.51,1.64-3.11,3.22-4.57,4.88-1.99,2.31-4.59,2.23-7.01,1.49-3.34-1-6.49-2.56-9.78-3.76-4.14-1.53-6.47-4.8-8.32-8.52-1.52-3.07-3.38-5.78-6.08-7.98-1.93-1.59-3.59-3.63-3.48-6.4.07-1.8.98-3.42,2.18-4.68,3.37-3.56,6.82-7.04,10.31-10.49,2.39-2.35,4.97-4.56,7.38-6.9,3.01-2.94,6.1-5.8,8.86-8.95,1.34-1.55,2.01-3.65,2.98-5.51.56-1.06,1.17-2.11,1.56-3.24.43-1.16-.02-1.8-1.21-2.03-3.28-.6-6.02.69-8.57,2.57-2.61,1.88-4.42,4.45-5.79,7.33-1.1,2.3-1.88,4.8-3.01,7.09-.89,1.78-1.93,3.57-3.26,5-1.77,1.98-3.75,3.83-5.92,5.39-2.42,1.78-5.23,2.84-8.35,1.72-2.27-.84-3.75-2.62-5.34-4.32-2.25-2.45-3.28-5.57-4.56-8.53-1.29-3-2.66-5.95-4.07-8.89-.62-1.25-1.51-2.36-2.16-3.6-.78-1.44-.17-4.18.83-5.35,3-3.56,7.22-5.36,10.92-7.9,5.01-3.43,10.08-6.73,15.1-10.12,1.6-1.06,3.34-2.04,4.59-3.43,1.3-1.48,2.16-3.38,3.07-5.15.55-1.09,1.02-2.26,1.18-3.43.1-.86-.09-1.95-.56-2.66-.55-.79-1.58-.5-2.41-.09-4.08,2.04-8.26,3.93-12.22,6.19-3.05,1.75-5.91,3.85-8.66,5.99-2.98,2.31-5.61,5.07-8.66,7.25-2.96,2.11-6.34,2.28-9.68.48-1.15-.61-2.32-1.17-3.5-1.74-2.66-1.28-4.66-3.28-6.33-5.67-2.24-3.21-4.57-6.36-6.7-9.66-1.42-2.24-2.83-4.57-3.02-7.39-.2-2.39.62-4.31,2.33-5.82,1.68-1.51,3.48-2.85,5.19-4.31,1.25-1.08,2.17-2.29,2.19-4.16.02-2.72-3.2-4.88-5.33-4.65-3.67.34-6.9-.54-9.94-2.59-1.84-1.26-2.94-4.33-2.27-7.04,1.13-4.56,4.19-7.32,8.49-8.79,2.13-.75,4.4-1.17,6.52-1.96,4.24-1.58,3.25-5.41.79-7.49-1.56-1.28-3.3-2.39-4.78-3.75-1.99-1.84-3.04-4.05-2.77-6.93.27-3.04.87-5.94,2.35-8.58,1.75-3.15,4.54-5.3,7.84-6.63,2.73-1.1,5.51-2.06,8.35-2.77,5.16-1.31,10.45-1.9,15.76-1.41,3.38.32,6.73,1.05,9.95,2.32,4.29,1.65,8.07,4.17,11.93,6.49,2.77,1.68,5.42,3.6,7.76,5.8,2.55,2.41,5.13,4.88,6.49,8.28,1.3,3.25,1.32,6.36-.26,9.53-1.84,3.72-4.97,5.97-8.48,7.88-5.94,3.16-11.83,6.41-17.73,9.63-1.93,1.05-3.9,2.05-5.81,3.11-1.7.91-2.95,2.27-3.92,3.97-.59,1.07-.59,2.17-.01,2.91.54.65,1.75,1.27,2.53,1.14,2.25-.38,4.51-.89,6.61-1.79,4.1-1.75,7.96-4,12.1-5.67,2.84-1.13,5.92-1.67,8.93-2.4,2.28-.54,4.59-.91,6.86-1.43,2.5-.54,4.95-1.22,7.43-1.73,3.44-.69,7.08,1.71,8.92,5.03,1.66,3,3.35,5.98,5.06,8.95,2.31,4.03,4.71,8.01,6.94,12.08,1.2,2.21.55,4.47-.51,6.55-1.57,3.05-4.22,4.9-7.15,6.6-2.34,1.37-4.61,2.95-6.72,4.67-1.32,1.1-.95,2.94-1.16,4.51.18.01.42.12.57.03,1.57-.9,3.2-1.69,4.67-2.74,3.37-2.45,6.94-4.51,11.2-4.81,1.35-.1,2.88.12,4.06.72,5.59,2.84,10.2,6.67,12.08,12.96.65,2.19.23,4.34-.64,6.45-1.65,3.98-4.94,6.45-7.96,9.26-4.83,4.48-9.63,9.05-14.34,13.7-1.46,1.45-2.74,3.16-3.77,4.92-.81,1.43-1.14,3.11-1.56,4.71-.25.84.53,1.35,1.49.97,2.26-.98,4.55-1.95,6.74-3.06,4.22-2.17,8-4.96,11.39-8.3,2.24-2.19,4.31-4.58,6.42-6.93,2.35-2.55,4.64-5.21,7.01-7.79,1.54-1.68,3.54-2.11,5.75-2.11,3.53,0,7.09.28,10.39,1.62,2.33.96,4.51,2.42,6.48,4,2.57,2.06,4.88,4.48,7.31,6.73,1.38,1.27,1.98,3.55,1.05,5.04-1.19,1.98-2.54,3.83-3.9,5.67-1.11,1.53-2.26,3.07-3.55,4.44-1.13,1.25-1.81,2.63-2.11,4.23-.08.45-.09.93.65.84.19-.01.4,0,.59.04,2.58.59,4.2-.83,5.63-2.64,2.08-2.66,4.64-4.72,7.92-5.5,2.64-.63,5.32.04,7.92.79,2.94.86,5.7,2.17,8.2,3.94,1.68,1.17,3.8,2.16,4.05,4.58.08.91.04,1.99-.36,2.77-1.09,2.13-2.25,4.21-3.59,6.19-2.54,3.71-5.35,7.16-8.68,10.22-.64.58-.94,1.51-1.37,2.3-.04.07.17.34.3.39,3.95,1.17,7.54.39,10.35-2.83,3.29-3.79,6.57-7.55,9.97-11.22,1.39-1.49,3.36-1.91,5.35-1.85,5.68.16,9.88,2.8,12.35,7.87,1.22,2.43,1.1,5.22-.27,7.55-1.9,3.25-4.18,6.31-6.36,9.4-1.23,1.74-2.51,3.45-3.87,5.05-2.24,2.56-4.55,5.05-6.88,7.56-.56.59-1.23,1.06-1.84,1.63-.28.27-.53.58-.77.9.47.24,1.03.76,1.43.65,1.28-.3,2.53-.76,3.76-1.27,3.78-1.57,6.39-4.68,9.45-7.22,1.95-1.6,3.8-3.34,5.72-5.01,2.02-1.77,4.04-3.6,6.14-5.25,3.18-2.5,6.78-.77,8.44,2.17,1.36,2.39,2.44,4.96,3.02,7.7.63,3.01.33,5.9-.56,8.83-.85,2.88-1.36,5.84-2.01,8.74-1.06,4.7-3.28,8.65-7.24,11.49-2.32,1.65-4.66,3.39-7.17,4.75-4.23,2.29-8.81,2.35-13.45,1.35-3.02-.66-5.03.62-6.36,3.41-1.71,3.61-3.82,6.95-7.77,8.6-2.64,1.1-5.42,1.28-8.25,1.35-1.33.02-2.69.3-3.98.71-3.34,1.15-6.65,1.7-9.92-.27-2.38-1.45-3.41-3.78-3.71-6.38-.36-3.37-.56-6.81-.52-10.19.03-1.73.73-3.45,1.09-5.17.56-2.43,1.25-4.86,1.57-7.31.39-2.87.76-5.82.53-8.69-.2-2.76-1.18-5.45-1.86-8.16-.05-.18-.52-.43-.7-.38-.46.16-1.11.37-1.28.72-1.93,4.19-2.38,8.69-2.72,13.21-.35,4.65-1.23,9.2-2.94,13.58-1.31,3.35-2.69,6.66-4.54,9.76-.83,1.36-2.03,2.26-3.51,2.65-4.8,1.37-9.7,1.67-14.44.06-2.51-.85-4.71-2.6-7.06-3.95-1.36-.77-2.34-1.89-2.94-3.32-.79-1.91-.3-3.8.67-5.45,1.99-3.35,4.19-6.58,6.34-9.84,1.43-2.18,2.93-4.28,4.34-6.43,2.11-3.19,4.34-6.31,6.22-9.63,1.99-3.51,3.69-7.21,5.45-10.85,1.02-2.11,2.01-4.23,2.77-6.43.28-.79-.19-1.83-.32-2.77,0-.04-.23-.07-.35-.08-1.27-.09-3.35,1.48-3.82,2.74-.32.92-.81,1.8-1.23,2.69-2.26,4.55-4.31,9.21-6.82,13.61-2.04,3.54-4.62,6.79-7.07,10.09-2.19,2.9-4.47,5.71-6.79,8.47-1.66,2.01-3.27,4.07-6.15,4.48-2.41.34-4.73-.06-7.06-.75-4.37-1.3-6.56-5.01-9.36-8.05-1.66-1.83-3.25-3.68-4.21-6.03-1.01-2.53-1.1-5,.06-7.46.98-2.1,1.92-4.22,3.05-6.26,2.84-5.13,7.13-8.73,12.39-11.21,3.46-1.6,7.12-2.78,10.22-5.18,2.25-1.75,4.27-3.68,5.88-6.06,1.84-2.73,3.78-5.41,5.67-8.11.09-.16.21-.31.24-.47.2-.81.37-1.63.54-2.45-.84.18-1.84.15-2.5.6-2.33,1.52-4.52,3.26-6.8,4.81-2.89,2-5.85,3.92-8.81,5.82-2.62,1.69-5.3,3.29-7.9,5-1.73,1.17-3.4,2.4-4.44,4.28-.08.14-.3.19-.51.41M218.26,212.36c.44-.6.87-1.18,1.34-1.77,1.29-1.67,2.57-3.35,3.86-5.02,1.7-2.23,3.46-4.4,5.07-6.68.67-.93.72-2.07.1-3.17-1.01-1.79-2.55-2.94-4.46-3.5-1.96-.59-3,.03-4.1,1.75-.46.74-1.07,1.4-1.67,2.07-2.34,2.53-4.64,5.09-7.03,7.56-1.88,1.91-3.89,3.71-6.55,4.53-4.56,1.39-8.68.08-12.54-2.24-2.47-1.5-3.22-3.85-2-6.03,1.34-2.44,2.79-4.88,4.48-7.09,2.02-2.66,4.28-5.11,6.52-7.58,1.91-2.11,1.68-4.55-.88-5.8-2.13-1.03-4.45-1.68-6.69-2.47-1.73-.61-3.21-.28-4.3,1.26-.71,1-1.3,2.07-2.1,2.95-1,1.13-2.01,2.54-3.3,3.07-4.49,1.89-8.94,1.47-12.87-1.47-2.62-1.93-3.15-5.28-1.52-7.95,1.99-3.29,4.19-6.49,6.25-9.74,1.1-1.72.72-5.6-.77-6.93-1.89-1.66-3.79-3.39-6.32-4-4.06-.99-7.92-.64-11.15,2.26-1.3,1.17-2.2,2.77-3.35,4.09-2,2.36-3.84,4.88-6.07,7.02-6,5.64-13.03,9.89-20.26,13.8-1.93,1.05-4.23,1.61-6.4.44-1.15-.61-2.28-1.36-3.25-2.21-1.69-1.48-3.12-3.18-3.74-5.47-.47-1.87.15-3.51.58-5.25.6-2.23,1.47-4.4,2.93-6.12,2.75-3.18,5.75-6.16,8.7-9.2,4.18-4.31,8.45-8.57,12.6-12.93,1.03-1.08,1.94-2.43,2.43-3.83.71-2.16-1.28-5.69-3.46-7.21-2.38-1.7-4.76-1.1-7-.07-3.47,1.57-6.72,3.56-10.18,5.17-1.76.81-3.78,1.53-5.73.76-1.69-.68-3.47-1.57-4.78-2.8-1.17-1.05-2.06-2.62-1.62-4.48.41-1.76.59-3.59,1.1-5.29.78-2.65,1.87-5.14,4.17-6.87,2.57-1.88,5.14-3.75,7.68-5.68,2.89-2.21,3.16-2.57,2.13-4.96-.34-.78-.9-1.45-1.33-2.19-2.39-4.16-4.72-8.32-7.17-12.43-.62-1.04-1.4-2.39-2.81-2.23-4.25.49-8.51,1.05-12.71,1.78-5.27.91-9.92,3.47-14.78,5.42-4.44,1.76-8.91,3.42-13.42,4.99-.89.31-2.11.3-2.93-.09-2.06-.99-4.15-2.09-5.97-3.49-2.34-1.83-4.13-4.23-4.51-7.31-.23-1.82,0-3.84,1.51-5.11,3.52-2.86,7.09-5.62,10.81-8.24,2.59-1.86,5.37-3.46,8.13-5.08,3.67-2.12,7.45-4.12,11.1-6.22,1.88-1.05,3.67-2.18,5.45-3.39,1.02-.69,1.85-3.37,1.45-4-1.35-2.05-2.7-4.1-4.1-6.12-2.7-3.79-6.85-5.79-10.57-8.24-2.12-1.42-4.68-2.24-7.04-3.29-3.55-1.55-7.32-2.04-11.11-1.86-4.48.2-8.86.96-13.17,2.25-3.45,1.02-6.59,2.6-9.28,4.99-1.58,1.38-2.81,3.02-2.76,5.36.08,2.81,1.88,4.51,3.79,6.18,1.73,1.5,3.64,2.87,5.12,4.59,2.34,2.72,2.42,6.73-.38,9.73-1.69,1.78-3.72,2.68-5.89,3.4-2.67.89-5.41,1.63-8.08,2.52-1.52.55-2.93,1.39-3.12,3.24-.17,1.56.16,3.78,2.34,4.41,1,.28,2.1.24,3.14.46,2.24.42,4.58.68,6.73,1.42,2.84.98,4.49,3.36,5.46,6.11,1.09,3.13,1.18,6.07-2.07,8.68-1.9,1.56-3.97,2.9-5.76,4.59-1.97,1.89-2.3,3.05-.74,5.41,2.19,3.34,4.87,6.38,7.01,9.75,1.75,2.74,3.86,4.8,6.96,5.85,1.71.6,3.6,1.09,5.19.36,1.91-.85,3.59-2.26,5.26-3.59,2.77-2.22,5.37-4.66,8.23-6.77,3.7-2.75,7.68-5.09,12.12-6.49,3.01-.94,6.02-2.04,9.09-2.52,2.86-.42,5.42.71,6.92,3.4,1,1.75.71,3.73.46,5.62-.61,4.4-2.65,8.22-5.08,11.78-1.49,2.17-3.28,4.19-5.65,5.51-3.57,2-7.25,3.78-10.79,5.85-3.91,2.23-7.72,4.64-11.54,7.07-1.86,1.19-2.18,2.72-1.16,4.61,1.01,1.94,1.98,3.92,3.03,5.86,1.96,3.63,3.93,7.25,5.94,10.85.66,1.18,1.51,1.68,2.77.73.29-.23.71-.26,1.1-.4,3.02-1.18,4.76-3.73,6.39-6.31,1.42-2.21,2.49-4.63,3.78-6.88.94-1.6,2.12-3.09,3.03-4.71,1.6-2.84,3.97-4.84,6.79-6.26,4.46-2.27,8.99-3.93,14.18-2.03,3.31,1.23,5.46,4.79,4.7,7.94-.47,1.97-1.17,3.95-2.14,5.75-2.05,3.87-4.16,7.74-7.64,10.55-3.77,3.08-7.63,6.01-11.43,9.04-2.63,2.09-5.2,4.21-7.18,6.98-.85,1.19-1.76,2.38-2.66,3.55-1.09,1.39-1.45,3.64-.66,4.81.57.86,1.31,1.6,2.07,2.29,2.05,1.91,4.05,3.78,4.76,6.72.6,2.38,2.27,4.21,4.39,5.36,2.32,1.29,4.78,2.27,7.21,3.33.33.16.88.18,1.22,0,1.08-.48,2.33-.88,3.16-1.68,2.55-2.53,4.9-5.28,7.42-7.86,1.7-1.71,3.42-3.44,5.35-4.89,2.31-1.69,4.8-3.12,7.27-4.6,2.57-1.57,5.17-3.06,7.76-4.55,3.59-2.05,7.17-4.07,10.76-6.11,1.99-1.14,3.99-2.3,6-3.43,1.13-.63,2.7-.88,3.47,0,1.93,2.21,3.34,4.9,2.56,7.92-.67,2.68-1.74,5.28-2.99,7.74-1.02,2.01-2.5,3.79-3.84,5.62-1.79,2.48-4.14,4.34-6.55,6.15-4.11,3.09-8.97,4.68-13.46,7-3.6,1.85-6.87,4.18-8.78,7.86-.94,1.76-1.32,3.83-1.96,5.77-.59,1.8-.26,3.38,1.07,4.74,2.66,2.75,5.32,5.51,7.98,8.26.13.14.41.24.59.19,2.66-.5,5.27-1.25,7.19-3.26,1.5-1.52,2.78-3.29,4-5.06,2.26-3.35,4.41-6.76,6.58-10.19,2.45-3.88,4.37-8.04,6.3-12.19,1.12-2.45,2.64-4.78,4.33-6.87,1.98-2.44,4.69-3.71,7.99-3.31,2.32.28,4.15,1.47,5.71,3.16,1.97,2.14,3.12,4.65,2.32,7.59-.48,1.72-1.27,3.43-2.2,4.98-2.03,3.36-4.2,6.6-6.35,9.86-1.6,2.47-3.26,4.88-4.88,7.34-1.86,2.81-3.72,5.63-5.57,8.48-1.97,3-3.95,6.02-5.92,9.01-.15.25-.36.46-.58.67-2.25,2.16-1.78,5.78.92,6.93,2.58,1.11,5.31,1.54,8.08,1.31,2.78-.24,5.35-1.11,6.58-4.05.73-1.72,1.69-3.37,2.32-5.12,1.03-2.81,2.12-5.61,2.71-8.52.9-4.48,1.39-9.05,2.15-13.55.37-2.27,1.1-4.4,2.69-6.17,2.17-2.45,4.94-2.77,7.87-2.37,1.51.21,2.88.85,3.41,2.58.26.92.93,1.71,1.18,2.6.84,2.92,2.02,5.85,2.27,8.82.5,5.61-.75,11.11-2.52,16.44-1.44,4.41-2.12,8.77-.49,13.29.71,1.98,2.07,3.45,4.37,3.08.74-.12,1.45-.38,2.18-.57,3.37-.88,6.76-1.73,10.12-2.65,1.75-.48,3.24-1.39,4.11-3.09.82-1.67,1.61-3.39,2.62-4.95,1.38-2.2,3.51-3.69,6.03-4.06,2.42-.36,4.93-.13,7.4-.16,2.69-.03,5.26-.58,7.75-1.58,3.28-1.31,5.74-3.68,8.13-6.12,2.4-2.47,3.69-5.52,3.42-9.06-.1-1.19-.16-2.3.52-3.41.5-.85.86-1.83,1.15-2.8.88-2.87.16-5.68-.47-8.44-.4-1.74-.97-1.86-2.29-.66-3.5,3.15-7.02,6.28-10.48,9.51-3.8,3.55-7.73,6.75-13.06,7.72-3.22.57-6.38.88-9.13-1.47-1.27-1.08-2.13-2.35-2.1-4.08.05-2.24,1.56-3.82,2.66-5.54,1.18-1.86,2.77-3.48,4.19-5.17.98-1.21,2-2.36,3.14-3.79"/>
    </g>
  </g>
</svg>