<?xml version="1.0" encoding="UTF-8"?>
<svg id="Layer_2" xmlns="http://www.w3.org/2000/svg" viewBox="0 0 160.2 240.61">
  <defs>
    <style>
      .cls-1 {
        stroke: #000;
        stroke-miterlimit: 10;
        stroke-width: 3px;
      }
    </style>
  </defs>
  <g id="Layer_3">
    <g id="worm_x5F_1">
      <path class="cls-1" d="M134.3,10.12c2.02-2.35,3.8-4.64,6-6.47,2.44-2.06,8.63-3.24,12.05-.7,5.39,3.99,6.66,8.54,6.29,12.9-.38,3.85-1.5,7.55-3.28,11.07-1.97,3.94-3.85,7.88-6.94,11.21-2.63,2.81-4.55,6.24-7.04,9.24-3,3.56-5.96,7.27-9.47,10.27-3.8,3.28-7.97,6.14-12.34,8.58-3.05,1.69-5.07,3.71-6.47,6.85-1.17,2.77-7.41,4.46-10.55,4.17-5.16-.52-10.41-.52-15.62-.42-4.03.05-7.93-.56-11.59-2.11-2.16-.94-4.13-1.41-6.57-.84-5.35,1.31-10.79,2.25-16.18,3.33-3.89.8-7.83,1.59-11.73,2.35-5.82,1.22-9.9,4.6-11.54,10.27-1.31,4.46-2.44,9.1-2.77,13.7-.23,3.42.42,6.94,1.41,10.51,1.22,4.46,2.91,8.63,4.5,12.95.8,2.2,2.35,3.52,4.13,4.78,4.36,3.14,9.1,3.52,14.35,3.33,8.91-.38,17.21-3.66,25.99-4.41,2.02-.19,3.99-1.27,6-1.31,2.25,0,4.74.28,6.75,1.17,5.96,2.63,11.87,5.35,17.5,8.63,4.36,2.53,8.35,5.72,12.29,8.91,5.72,4.64,8.82,11.07,10.55,18.06,2.02,8.11,2.49,16.37-.14,24.63-1.03,3.33-1.27,6.94-2.39,10.23-2.02,5.91-5.02,11.4-9.1,16.18-4.22,4.97-8.44,10.04-12.95,14.78-5.07,5.35-11.49,7.69-18.86,7.08-7.79-.66-11.12-8.58-7.46-14.54,3.42-5.63,7.93-9.99,13.37-13.65,3.47-2.35,7.22-4.55,9.43-8.4,2.25-3.89,3.75-7.93,4.36-12.52.7-5.49.05-10.55-2.06-15.57-.61-1.45-1.5-2.81-2.44-4.13-4.55-6.38-10.27-11.54-17.82-13.88-3.1-.99-6.71-.56-10.04-.23-3.33.38-6.61,1.36-9.8,2.3-3.14.94-6.1,2.35-9.24,3.19-4.55,1.27-9.01,2.58-13.79,3.05-4.41.42-8.68.19-12.76-1.03-2.44-.7-4.6-2.67-6.57-4.46-2.77-2.44-5.44-5.07-7.79-7.93-2.35-2.81-4.32-5.96-6.29-9.05-1.27-1.97-2.58-3.99-3.24-6.19-.94-3.14-1.36-6.47-1.97-9.71-1.5-8.07-.84-16.18-.89-24.25-.05-3.47,0-6.99.52-10.41.38-2.63,1.69-5.11,2.35-7.69,1.92-7.32,5.49-13.51,11.12-18.62,4.97-4.55,10.69-7.69,16.93-10.13,5.58-2.16,11.54-2.72,17.35-3.75,3.56-.61,7.13-1.31,10.65-1.97,2.53-.42,5.07-.7,7.5-1.36,1.17-.28,2.53-.94,3.14-1.88,2.86-4.22,6.8-6.57,11.73-7.41,6.33-1.13,12.71-2.11,19.04-3.38,2.86-.56,5.16-.05,7.79,1.31,2.3,1.22,6.52.56,8.26-2.44,1.03-1.74,2.58-3.14,3.61-4.88,1.92-3.1,3.52-6.38,5.53-9.43,2.2-3.33,4.78-6.38,7.18-9.85M109.44,54.91c-.33-3.99-.61-8.02-.94-12.01-.05-.28-.14-.56-.23-.84-1.03-2.72-3.61-3.61-7.13-2.77-3.66.89-7.32,1.83-11.02,2.2-4.32.47-8.44,1.31-12.48,2.86-4.64,1.78-5.3,5.77-4.46,9.1.89,3.66,1.31,7.41,2.02,11.12.75,3.71,2.02,7.36,7.32,7.93,2.44.23,4.93-.09,7.36.05,5.21.23,10.37.89,15.57.8,3.66,0,6.8-2.3,6.29-6.14-.52-4.03-1.36-8.02-2.3-12.29M24.77,118.94c-1.64-.14-3.52-.84-4.93-.33-3.94,1.41-7.6.66-11.4-.47-2.53-.75-3.94.52-3.61,3.28.14,1.13.33,2.2.47,3.33.66,4.93,1.97,9.62,4.78,13.79,1.74,2.53,3.47,5.11,5.02,7.74.84,1.36,3.28,2.49,4.74,1.74,3.75-1.92,7.46-3.94,10.37-7.22,2.49-2.86,2.81-4.78.94-8.11-.47-.8-.61-1.78-.99-2.63-1.64-3.71-3.28-7.41-5.39-11.12M38.14,160.45c3.94-.52,7.83-1.08,11.77-1.59,1.36-.23,5.02-3.24,5.07-4.5.14-3.33.28-6.66,0-9.99-.28-2.96-3.42-5.39-5.86-4.69-3.14.84-6.1.38-9.05-.56-4.13-1.31-4.03-1.31-6.52,2.02-2.44,3.38-5.39,6.19-9.29,7.93-1.88.84-2.53,3.56-1.22,5.16.94,1.22,1.97,2.49,3.28,3.24,1.78,1.03,3.8,1.74,5.82,2.3,1.88.52,3.85.66,6,.7M132.19,23.25c1.03,1.36,1.92,2.91,3.19,4.08,2.49,2.25,5.21,4.27,7.74,6.43,2.06,1.78,4.41,1.74,5.68-.52,1.88-3.28,3.71-6.61,5.16-10.08,1.27-3.05,1.92-6.33,1.41-9.66-.52-3.47-2.91-5.3-5.91-6.85-3.28-1.69-5.96-1.74-8.49.84-2.58,2.63-5.16,5.25-7.55,8.02-1.78,2.16-3.66,4.5-1.22,7.74M3.9,107.45c.33,1.36.52,2.72.99,3.99.75,1.97,2.44,2.3,4.32,3,3.75,1.45,7.36,1.41,11.12.8,1.97-.33,3.99-2.44,3.66-4.08-1.08-5.58-.05-10.98,1.13-16.42.47-2.16-.38-3.47-2.44-3.14-4.64.7-8.87-.94-13.09-2.2-2.02-.61-3.85-.14-4.17,1.97-.52,3.05-.52,6.19-.8,9.33-.19,2.11-.47,4.22-.7,6.75M107.8,170.06c.7,0,1.41.05,2.11,0,4.6-.14,9.1-.66,12.57-4.27,1.45-1.5,2.11-3.28,1.31-4.93-1.27-2.39-2.86-4.78-4.78-6.66-3.24-3.05-6.9-5.63-10.23-8.54-1.36-1.17-2.96-2.02-4.27-1.17-.98.66-1.17,2.53-1.64,3.89-.8,2.49-1.59,4.97-2.35,7.5-.33,1.17-.98,2.44-.84,3.66.23,2.72,4.13,7.79,8.11,10.51M106.39,218.84c-2.06-1.41-4.13-2.81-6.14-4.32-1.69-1.17-3.38-1.69-5.3-.61-5.21,2.81-9.66,6.47-12.95,11.49-1.13,1.69-1.22,4.93.05,5.63,4.41,2.44,9.01,2.96,13.88,1.59,4.74-1.36,8.26-4.27,11.49-7.74,3.1-3.33,3.05-3.89-1.03-6.05M109.91,193.28c-.42.47-1.17.84-1.27,1.36-.94,4.88-4.03,8.63-6.33,12.85-.84,1.59.14,4.69,1.74,5.25,2.63.84,5.25,1.92,7.93,2.2,2.02.19,4.41-.28,5.72-2.3,3.28-5.02,6.57-10.08,7.79-16.14.56-2.67-.47-3.99-3-3.47-1.03.23-2.06.47-3.1.47-3.1-.09-6.14-.28-9.47-.23M40.25,57.02c-.42.19-.8.33-1.22.47-4.03,1.41-8.07,2.81-12.05,4.27-2.3.84-3.66,3.8-2.39,5.58,1.17,1.59,2.72,2.91,4.17,4.22,1.03.94,2.06,2.02,3.33,2.58,2.11.89,4.36,1.88,6.61,2.02,2.06.09,4.17-.89,6.29-1.31,5.77-1.17,4.74-3.61,3.71-7.5-.47-1.74-.75-3.52-1.17-5.25-1.08-4.6-2.35-6.43-7.27-5.07M64.64,52.8c-3.38.47-6.85.8-10.18,1.45-4.27.89-5.35,2.44-4.55,6.57.61,3.05,1.69,6,2.67,9.01.61,1.88,2.11,2.44,3.94,2.2,3.61-.42,7.22-.89,10.84-1.41,2.67-.33,4.78-2.53,4.5-5.16-.33-2.91-1.13-5.77-1.78-8.63-.99-3.89-1.17-4.03-5.44-4.03M132.42,29.58c-.61-1.03-1.13-2.2-1.88-3.19-1.08-1.36-3.56-.99-4.41.61-1.55,2.77-3.24,5.53-4.6,8.4-.56,1.22-.99,2.81-.7,4.08.42,1.69,1.31,3.47,2.44,4.78,2.16,2.53,4.55,4.88,7.08,7.04.61.56,2.3.47,3.24.05,3.1-1.36,4.69-4.36,6.57-6.94,1.41-2.02.94-6.47-.7-8.26-2.11-2.3-5.53-3.14-7.04-6.57M110.84,187.18c2.2,1.74,4.55,3.1,7.5,2.58,1.55-.23,3.05-.61,4.6-.8,3.14-.28,5.82-2.86,5.68-5.91-.14-3.14-.7-6.33-.84-9.52-.09-2.02,0-4.22-1.83-5.21-1.78-.99-3,1.03-4.36,2.02-2.53,1.92-5.44,2.81-8.58,3.1-2.58.23-4.27.38-4.03,4.13.14,2.44.23,4.88.52,7.32.09.7.75,1.41,1.36,2.3M8.12,81.65c-.52,2.67.19,3.71,2.91,4.5,1.27.38,2.49,1.08,3.75,1.17,3.24.38,6.57.84,9.8.56,2.96-.23,3.71-3.38,5.3-5.44,1.78-2.3,1.69-3.85-.47-5.82-2.53-2.3-4.93-4.74-7.18-7.27-2.16-2.49-3.66-2.63-6.05-.47-3.75,3.42-5.91,7.83-8.07,12.76M87.86,135.12c-2.11-.05-4.17-.14-6.29-.19-.23-.05-.7.05-.7.09,0,1.97.05,3.94.09,5.91.05,1.45.28,3-.05,4.36-.8,3.38-.52,5.21,1.78,5.72,3.8.8,7.13,2.35,10.37,4.46,1.74,1.13,3.89.99,4.97-1.45.56-1.31,1.45-2.63,1.59-3.99.23-2.67,1.88-5.53.14-8.02-2.81-3.94-6.75-6.24-11.91-6.9M72.85,152c2.35-.66,4.55-1.59,5.11-4.22.75-3.33.94-6.66-1.17-9.71-.99-1.41-2.06-2.49-3.75-2.2-3.75.66-7.5,1.36-11.21,2.35-4.03,1.13-4.03,1.27-3.99,5.16.09,2.81.28,5.58.52,8.4.05.66.28,1.31.61,1.88,1.13,1.83,2.67.94,4.13.66,3.19-.66,6.33-1.36,9.76-2.3M117.65,41.54c-3.61-.23-6.14,1.92-5.77,5.58.42,4.46,1.22,8.91,2.16,13.27.66,2.91,2.49,3.52,5.11,2.16,1.69-.84,3.42-1.64,4.97-2.72,2.77-2.02,4.13-4.03,1.03-7.5-1.5-1.69-3-3.38-4.27-5.25-1.13-1.64-2.02-3.52-3.24-5.53"/>
      <path class="cls-1" d="M145.93,65.37c-.33.09-.52.05-.75,0,.05-.09.09-.28.09-.28.28.05.52.09.66.28"/>
    </g>
  </g>
</svg>