<?xml version="1.0" encoding="UTF-8"?>
<svg id="Layer_2" xmlns="http://www.w3.org/2000/svg" viewBox="0 0 329.26 345.83">
  <g id="Layer_3">
    <g id="vogel">
      <path d="M244.26,89.66c7.27,18.11,14.69,35.82,21.39,53.79,6.12,16.42,6.2,33.74,6.8,51.05.35,10.22.09,20.73,4.06,30.65,1.97,4.91,4.42,8.23,9.9,9.97,11.5,3.64,22.92,8.57,29.92,18.75,5.31,7.72,12.71,14.82,12.93,25.33.13,6.12-1.4,9.33-6.87,11.15-13.91,4.63-28.22,5.22-42.75,3.73-7.91-.81-13.39-5.46-18.95-10.33-3.87-3.39-7.83-6.71-12-9.71-2.01-1.44-4.54-2.57-6.96-2.92-3.92-.56-4.66,3.37-5.73,5.73-5.29,11.74-6.05,24.07-4.03,36.72,1.24,7.77,2.14,15.59,2.92,23.42.66,6.67-3.73,10.22-10.39,8.31-7.32-2.11-14.66-3.07-22.31-3.02-3.55.02-7.15-1.77-10.66-2.97-4.43-1.51-8.8-3.2-13.16-4.9-3.52-1.37-6.45-3.17-7.16-7.49-.44-2.72-1.94-5.25-2.59-7.95-.26-1.09.23-2.6.86-3.61,1.89-3.04,4.44-5.74,5.98-8.93,2.55-5.29.15-7.72-6.82-8.98-7.02-1.28-13.94-3.23-20.8-5.24-3.71-1.09-4.73-7.66-2.07-11.15,6.99-9.17,13.85-18.39,17.27-29.68,2.04-6.74,4.81-13.27,6.78-20.03.59-2.02.36-5.03-.78-6.69-5.98-8.72-9.33-18.49-11.71-28.58-3.8-16.11-7.85-32.22-10.48-48.54-1.64-10.17-2.57-20.69.23-31.11,1.15-4.29,1.01-8.95,1.23-13.45.29-5.77-3.02-9.85-7.89-11.56-8.01-2.81-16.12-6.5-24.97-4.68-3.84.79-7.53,2.49-11.16,4.06-10.49,4.55-20.65,10.07-31.45,13.66-13.87,4.62-23.89,14.73-35.62,22.4-6.1,3.99-13,5.83-20.09,5.68-2.54-.05-5.1-2.99-7.5-4.81-1.7-1.29-2.94-3.29-4.74-4.34-5.63-3.28-6.48-6.61-2.23-11.45,7.65-8.71,15.12-17.63,23.27-25.85,8.24-8.31,17.06-16.05,25.91-23.72,11.11-9.63,23.55-17.97,33.47-28.67,8.85-9.53,18.64-17.12,29.77-23.26,6.08-3.34,12.35-6.88,18.98-8.52,7.12-1.76,14.76-1.63,22.19-1.91,12.94-.49,23.93,5.4,34.05,12.32,8.86,6.06,17.12,13.07,23.56,22.05,6.52,9.1,12.46,18.38,16.95,28.7,3.92,8.98,8.81,17.54,13.42,26.57M100.39,60.81c4.4-.62,8.79-1.25,13.19-1.86,2.98-.41,5.96-1.13,8.94-1.14,11.33-.04,22.26,2.31,32.97,5.93,8.28,2.8,15.95,6.76,22.05,13.02,9.87,10.12,16.64,22,19.3,36.08,2.45,12.99,5.47,25.88,7.61,38.92,2.53,15.39,4.06,30.95,6.66,46.33,2.07,12.21,5.29,24.03,11.67,35.07,6.45,11.16,13.71,21.42,23.2,30.07,2.96,2.69,6.32,4.94,9.26,7.65,7.28,6.71,14.03,14.27,24.35,16.25,4.1.79,8.38.64,12.58.95,8.66.64,17.24.1,25.67-2.02,6.23-1.57,8.89-5.57,6.07-10.69-3.96-7.18-8.35-14.33-13.7-20.5-6.78-7.81-16.36-11.58-26.3-13.79-5.47-1.22-8.65-5.08-10.65-9.29-5.64-11.83-6.72-24.65-6.84-37.64-.07-8.58-.47-17.21-1.48-25.72-1.83-15.45-6.37-30.11-12.42-44.53-6.14-14.64-12.13-29.27-19.72-43.26-6.04-11.14-10.88-22.93-17.12-33.95-3.57-6.31-8.25-12.31-13.55-17.24-6.56-6.11-13.83-11.81-21.66-16.11-6.31-3.47-13.78-5.62-20.97-6.55-11.28-1.46-22.49.03-33.11,4.87-10.39,4.73-20.57,9.5-28.46,18.25-4.8,5.33-8.12,11.59-9.42,18.17-1.5,7.63,1.68,13.04,11.88,12.7M34.46,86.61c-4.56,4.96-9.16,9.87-13.66,14.89-4.01,4.47-7.94,9.02-11.81,13.62-.59.7-.64,1.85-.95,2.79,1.01-.02,2.24.33,3.01-.11,7.51-4.34,15.08-8.61,22.36-13.32,5.69-3.69,10.9-8.12,16.57-11.86,1.12-.74,3.36.02,5.01.41.35.08.81,1.87.48,2.34-1.15,1.62-2.39,3.39-4.03,4.42-11.87,7.49-22.18,17.47-35.68,22.38-.8.29-1.76,1.94-1.57,2.68.21.8,1.73,1.87,2.59,1.8,5.84-.51,11.78-.84,16.79-4.47,4.78-3.47,9.73-6.75,14.2-10.58,8.22-7.04,17.52-12.12,27.41-16.28,10.19-4.29,20.35-8.65,30.64-12.69,3.74-1.47,7.94-3.24,11.71-2.83,7.73.83,15.39,2.74,22.93,4.77,8.82,2.38,15.78,11.16,14.76,21.73-1.07,11.11-2.23,22.29-2.17,33.43.06,13.09,2.37,26.02,6.18,38.59,2.46,8.12,5.81,16.01,7.64,24.26,2.66,12,8.95,21.79,17.83,29.54,7.73,6.75,16.62,12.29,25.43,17.64,6.63,4.03,13.94,6.94,20.97,10.28.57.27,1.37.04,2.07.04-.16-.7-.12-1.56-.52-2.08-3.39-4.42-7.33-8.49-10.18-13.22-4.38-7.26-8.47-14.77-11.86-22.53-4.13-9.45-5.31-19.69-6.7-29.89-1.54-11.36-4.57-22.52-6.03-33.89-2.44-18.98-3.13-38.3-10.58-56.23-3.65-8.78-8.05-17.33-16.28-23.21-7.84-5.6-16.04-9.56-25.62-11.76-13.46-3.08-26.38-3.36-39.77.2-6.03,1.6-12.96,1.09-17.44-4.6-2.52-3.2-3.99-7.22-6-10.83-.95-1.71-1.37-4.63-4.43-2.83-2.02,1.19-3.86,2.71-5.66,4.22-6.03,5.03-12.13,10-17.99,15.22-6.47,5.76-12.71,11.77-19.63,17.98M180.25,281.18c5.15-2.28,7.18-7.13,9.26-11.74,2.11-4.66,3.03-9.93,5.55-14.31,2.25-3.91.45-6.28-1.82-8.26-4.5-3.93-9.41-7.42-14.27-10.91-1.3-.94-2.96-2.25-3.95.93-2.33,7.55-5.3,14.9-7.51,22.48-.95,3.26-2.12,7.93-.58,10.15,3.27,4.7,6.12,10.57,13.31,11.65M219.36,272.06c1.2,1.01,2.34,2.12,3.63,3,1.55,1.06,3.24,1.93,4.86,2.88,1.39-2.55,3.27-4.98,3.92-7.71.25-1.07-1.98-3.32-3.55-4.13-5.62-2.91-11.58-5.16-17.14-8.17-6.19-3.34-8.83-2.52-11.56,4.11-1.16,2.81-2.79,5.42-4.29,8.08-1.99,3.52-4.12,6.97-6.02,10.53-.38.71,0,1.82.04,2.74.51-.57,1.03-1.13,1.53-1.72,2.02-2.4,4.19-4.7,6.02-7.24,6.07-8.43,14.71-9.63,22.57-2.38Z"/>
      <path d="M156.52,50.73c-2.67-.58-5.43-.78-7.37-2.15-4.97-3.5-5.89-7.7-2.86-12.78,2.56-4.3,6.66-6.96,12.37-5.23,13,3.94,21.16,12.64,26.55,24.48.61,1.35-.25,3.38-.43,5.1-1.54-.76-3.55-1.13-4.54-2.35-2.62-3.23-4.67-6.92-7.18-10.25-3.31-4.39-5.99-4.29-9.91-.59-1.72,1.62-4.2,2.44-6.62,3.77Z"/>
    </g>
  </g>
</svg>