<?xml version="1.0" encoding="UTF-8"?>
<svg id="Layer_2" xmlns="http://www.w3.org/2000/svg" viewBox="0 0 449.38 364.7">
  <g id="Laag_1">
    <g id="Flowers_x5F_1">
      <path d="M327.13,158.06c4.99-2.24,9.21-6.06,14.95-6.64,5.5-.6,11.71,2.24,14.49,7.1,2.79,5.01,5.22,10.21,6.3,15.9,1.53,8.06-1.33,16.81-9.25,19.87-.66.2-1.15.7-1.81.9-3.25,1.22-3.98,2.69-2.18,6.16,2.86,5.43,1.92,19.12-5.63,22.74-3.65,1.75-6.69,4.77-10.15,6.87-3.26,1.91-9.12.57-11.48-2.37-3.4-4.29-3.17-3.88-7.82-1.13-6.89,4.11-20.84,4.53-26.34-4.06-2.07-3.25-3.72-6.73-5.58-10.16-.07-.27-.32-.59-.27-.93.2-2.18.49-4.33.69-6.51-2.2.19-4.35.59-6.53.54-9.9-.31-19.8-.48-29.39-3.33-2.38-.71-4.61-1.87-6.82-2.98-3.31-1.58-4.59-.97-5.83,2.54-2.29,6.68-4.36,13.47-6.98,19.95-1.18,2.78-3.39,5.21-5.39,7.59-2.96,3.44-2.95,3.74.97,5.61,6.37,2.99,12.54,6.47,19.11,8.97,6.41,2.51,13.22,4.19,19.91,5.93,5.14,1.28,10.39,2.5,15.63,2.96,5.96.53,11.92.22,17.89.21,7.87-.04,15.6.37,23.16,2.87,3.2,1.1,6.71,1.35,9.92,2.6,4.37,1.7,8.43,4.1,12.77,5.89,5.44,2.27,11.08,4.2,16.64,6.25.64.19,1.48.19,2.21.11.57-.08,1.04-.49,1.57-.77-.31-.29-.65-.64-1-.99-3.35-2.94-5.28-6.49-4.52-11.04.15-1,.51-2.04,1.05-2.87,7.74-11.62,21.31-12.6,30.63-2.17.72.76,1.5,1.49,2.04,2.35,1.5,2.48,2.95,2.77,4.93.47,2.99-3.69,5.88-7.55,8.83-11.29,4.2-5.26,12.14-8.72,18.62-6.24,6.26,2.36,9.81,6.65,9.5,13.17-.15,3.68-1.72,7.29-2.6,10.91-.11.37-.13.76-.2,1.18.39-.13.8-.36,1.25-.37,3.63-.51,7.38-1.23,11.05-1.38,5.51-.15,8.94,4.05,7.61,9.53-1.52,6.26-5.29,10.91-10.28,14.99-6.02,4.87-12.73,6.35-20.24,5.51-.97-.09-2.74,1.17-2.95,2.06-1.17,5.77-4.97,9.51-9.32,12.94-5.03,4.02-15.95,3.95-20.47-.57-2.99-2.98-4.15-6.95-3.5-11.29.05-.18-.72-.76-.84-.7-2.22,1.43-4.23,3.36-6.62,4.19-4.29,1.56-10.17-1.09-13.19-4.97-2.99-3.82-4.48-8-5.06-12.74-.14-1.38-1.64-3.17-2.96-3.76-9.72-4.09-19.58-7.72-29.34-11.87-7.95-3.36-16.4-3.69-24.82-4.81-8.06-1.16-15.81-.33-23.79.08-7.02.35-14.15-1.23-21.21-2.09-10.11-1.27-18.66-6.15-27.06-11.49-3.67-2.38-7.45-4.7-11.35-6.81-.86-.45-2.49-.49-3.29.02-4.34,2.88-8.34,6.12-12.71,8.95-3.96,2.45-8.18,4.58-12.36,6.76-1.81.9-2.22,2.12-2.37,4.12-.63,7.47,2.17,13.92,5.09,20.46,3.37,7.37,6.45,14.9,9.08,22.6.9,2.65-.2,6.01-.25,9.03-.04,8.14-.82,16.46.46,24.35.86,5.13-1.08,7.63-4.29,10.06-4.06,3.12-6.18,7.56-8.94,11.66-1.47,2.1-3.16,4.08-4.9,5.95-.23.28-1.88-.21-1.82-.39-.04-1.36-.22-2.95.44-4,4.35-7.11,9.23-13.96,13.25-21.27,1.51-2.58,1.64-6.18,1.63-9.31-.11-6.99-.79-14.06-1.02-21.14-.33-8.25-2.8-15.65-7.55-22.59-5.16-7.4-7.87-15.97-7.51-25.06.18-3.62-1.41-1.76-2.46-1.43-5.29,1.56-10.44,3.65-15.77,4.85-7.13,1.56-14.33,2.54-21.57,3.62-5.86.79-11.71,1.59-17.64,1.96-3.07.28-5.22,1.68-7.61,3.35-4.04,2.72-8.47,4.89-12.83,7.02-3.59,1.71-7.35,3.13-11.11,4.4-1.04.34-3.14-.14-3.53-.85-.8-1.48-.19-3.19,1.58-4.15,5.72-3.02,11.41-6.25,17.16-9.21,3.94-2.06,7.99-3.94,12.06-5.76,1.43-.62,3.11-.91,4.59-.87,10.93.37,21.26-2.77,31.74-5.07,8.09-1.77,16.07-3.87,24.04-6.27,1.58-.47,3.3-2.55,3.81-4.29,2.19-6.86,4.02-13.82,5.81-20.85.5-2.19,1.51-5.42-1.05-6.33-3.48-1.18-7.36-2.99-11.24-.66-3.96,2.45-7.74,5.11-11.89,7.2-7.66,3.84-15.83,5.73-24.49,5.44-5.28-.13-10.63.46-15.91.33-10.99-.34-22.01-.74-32.98-1.62-4.6-.42-8.97-2.27-13.47-3.36-6.99-1.73-13.71.44-20.49,1.51-7.2,1.14-14.25,3.11-21.45,4.55-2.76.57-7.22-3.14-6.82-5.81.18-1.09,2.18-2.48,3.5-2.74,11.82-1.95,23.62-4.5,35.45-5.16,9.12-.57,18.43.22,27.55,2.34,10.82,2.58,21.87,2.88,32.94,1.26,3.66-.6,7.5-.3,11.27-.42,9.46-.37,18.69-2.14,27.57-5.42.54-.14,1.04-.49,1.48-.8.68-.44,1.29-1.01,1.94-1.51-.65-.49-1.27-1.07-1.98-1.53-6.81-4.36-14.49-5.96-22.41-6.72-8.77-.77-17.53-2.09-26.29-2.71-5.47-.34-11,.36-16.55.29-2.62-.04-5.36-.55-7.88-1.25-3.68-1-7.4-2.2-10.92-3.75-5.51-2.39-10.81-5.11-16.23-7.62-.92-.42-1.86-.75-2.84-.99-2-.45-3.5-1.79-2.65-3.62.51-1.04,3.07-2.12,4.23-1.67,6.68,2.29,13.16,5.06,19.7,7.81,2.54,1,4.88,2.65,7.47,3.47,1.77.58,3.75.27,5.71.36,5.07.17,10.24.51,15.37.5,6.94.08,13.98-.36,20.93-.13,11.32.39,22.61,1.56,33.44,5.43,2.32.89,4.76,1.72,6.73,3.1,2.9,2.11,5.16.89,7.43-.72,1.71-1.23,3.57-2.47,4.72-4.16.83-1.29,1.28-3.45.87-4.91-2.31-8.94-4.71-17.91-7.56-26.72-2.32-7.25-7.12-13.16-11.66-19.29-5.77-7.84-9.74-16.72-8.95-26.88.54-6.65,1.2-13.22,2.47-19.65.71-3.37,3.02-6.31,4.52-9.5.4-.68.62-1.41.93-2.11-.66.05-1.36.04-2.01.25-1.11.22-2.21.73-3.32.95-6.56,1.33-15.6-3.05-18.87-9.1-3.5-6.61-5.62-13.51-3.12-20.92,1.9-5.7,5.5-9.95,11.57-11.62.93-.27,1.81-.9,2.67-1.44.3-.16.73-.78.63-.96-1.42-2.76-2.81-5.61-4.49-8.3-3.43-5.35-1.59-14.55,4.62-19.51,6.82-5.38,14.76-6,22.72-4.32,3.13.68,5.9,3.25,8.52,5.27,1.6,1.12,2.6,2.96,4.06,4.39,1.5,1.49,2.52.55,3.59-.87,1.65-2.19,3.26-4.45,5.38-6.05,5.2-4.12,11.18-4.98,17.32-2.4,7.86,3.33,12.44,13.65,10,22.02-1.27,4.44-2.89,8.69-6.46,12-.82.75-1.6,1.71.34,3.19,6.62,5.15,9.86,12.14,9.93,20.76.12,8.44-2.62,14.98-10.84,18.35-4.16,1.79-8.32,3.04-12.04-1-.22-.26-.73-.22-1.06-.27,0,.3-.07.73.03,1.05,1.85,10.65-8.94,18.17-16.33,19.95-3.44.87-10.46-2.77-12.33-6.36-1.38-2.55-2.31-5.26-3.57-7.88-.26-.62-.91-1.12-1.35-1.65-.5.5-1.14,1-1.43,1.61-4.45,10.61-5.42,21.71-3.67,32.87.61,3.81,3.16,7.41,4.79,11.12,1.98,4.22,3.89,8.47,5.87,12.69.42.92.69,1.85,1.11,2.77,5.18,10.99,10.51,21.98,15.55,33.12,1.04,2.35,1.94,2.32,3.66,1.39,1.69-.99,3.53-1.68,5.01-2.79,4.27-3.15,9-3.19,13.85-2.44,2.58.37,5.19,1.1,7.72,1.8,3.59.97,5.1.23,6.14-3.24,4.35-14.62,8.18-29.49,13.3-43.83,3.23-9.33,9.29-16.83,19.49-20.35,10.32-3.59,20.75-2.87,31.32-3.3,7.62-.37,15.23-1.73,22.82-3,2.82-.45,5.62-1.51,8.14-2.8,7.57-3.86,13.22-9.84,18.19-16.51.9-1.17,1.95-2.2,2.88-3.32.58-.62,1.04-1.33,1.56-2.07-1.26.07-2.57-.07-3.7.24-2.6.87-4.97,2.15-7.6,2.81-6.49,1.75-12.6.23-17.85-3.52-4.14-2.97-8.43-6.09-11.42-10.07-3.52-4.53-4.74-10.31-3.47-16.05.84-3.83,2.1-7.73,4.2-10.93,2.53-3.97,7.27-4.55,11.65-5.23,2.55-.38,5.11-1.46,7.64-1.45,2.59-.02,1.66-.9.99-1.99-2.07-3.4-4.56-6.58-6.12-10.18-1.83-4.37-4.32-8.7-3.53-14.03,1.07-7.09,4.72-12.52,11.59-13.7,10.41-1.72,20.55-.39,28.53,7.4,2.12,2.07,3.24,5.14,4.77,7.69.32.44.57.92.89,1.36.38-.43.94-.81,1.13-1.3,1.2-4.86,3.66-9.11,6.82-12.89,7.46-8.87,17.33-11.6,28.2-10.2,7.81.98,12.85,6.61,15.16,13.71,2.41,7.43,1.58,15.24-1.96,22.29-1.53,2.97-4.47,5.48-7.14,7.77-2.47,2.1-2.82,3.14-.08,4.95,3.98,2.68,8.56,4.64,11.99,7.85,7.24,6.73,9.04,15.72,8.02,25.16-.56,5.9-5.38,8.05-10.22,9.29-8.26,2.02-14.77-1.51-20.21-7.61-.63-.73-1.52-1.25-2.23-1.86,0,1.15-.26,2.36.11,3.46,1.05,3.65,3.04,7.17,3.37,10.9.81,7.45-1.66,14.08-6.94,19.62-6.15,6.47-13.63,8.37-22.36,6.97-4.03-.65-6.71-3.19-8.43-6.24-3.18-5.87-7.42-11.31-8.46-18.18-.11-.48-.63-.88-.95-1.33-.26.37-.61.71-.9,1.18-4.65,7.42-11.04,13.02-17.98,18.31-7.03,5.41-15.3,7.13-23.41,8.99-5.51,1.29-11.59.53-17.39.44-11.13-.18-21.23,2.83-30.79,8.38-9.53,5.62-14.94,13.6-15.99,24.82-.6,6.68-2.26,13.25-3.61,19.81-.78,3.79-1.84,7.51-2.89,11.22-.59,2.16.19,3.04,2.14,3.67,9.93,2.91,19.93,5.54,30.35,5.95,4.23.16,8.5,0,12.78-.17.69,0,1.3-.71,2.02-1.09-.43-.38-.85-1-1.36-1.1-9.69-2.19-15.34-15.61-12.83-24.71,1.4-5.05,2.59-10.52,8.26-12.36,3.25-1.07,7.02-1.04,10.5-.85,1.96.09,2.41.07,2.26-2.06-.14-2.38.39-4.81.52-7.25.49-5.32,2.91-6.94,7.63-9.26,4.78-2.36,8.89-2.13,13.17-.31,3.76,1.57,7.88,2.94,9,7.85.8,3.17,2.25,6.14,3.32,9.39.01.45.11.63.21.81.02-.24-.01-.45,0-.69M419.17,61.9c-3.24-2.31-6.6-4.4-9.75-6.83-3.71-2.75-7.74-4.39-12.39-4.64-1.03-.06-2.68-.7-2.76-1.27-.25-1.32.18-2.78.62-4.09.22-.58,1.12-.91,1.83-1.3,3.72-2.32,7.67-4.38,11.21-6.91,5.66-4.13,6.63-10.26,6.22-16.7-.45-8.34-2.46-11.62-10.47-13.11-1.88-.36-3.81-.39-5.65-.24-7.9.98-15.4,3.12-20.15,10.21-2.39,3.52-4.1,7.58-6.42,11.22-1.95,3.05-5.67,3.68-7.94,1.46-1.62-1.58-2.77-3.71-4.48-5.31-4.32-4.02-7.06-10.21-13.95-10.92-3.03-.35-6.22-1.16-9.16-.64-3.99.7-8.22,2.23-10.27,6.09-2.32,4.63-1.95,9.56,1.23,13.89,2.08,2.86,4.79,5.3,6.93,8.13,2.74,3.5,6.62,6.15,7.29,11.07.37,3.09.03,3.59-2.87,2.63-8.48-2.92-16.04-.75-22.97,4.15-2.09,1.52-3.88,4.02-4.89,6.4-1.92,4.95-.67,9.25,2.79,13.66,3.74,4.79,8.22,8.81,13.57,10.36,8.95,2.67,17.74.36,25.4-5.32.77-.57,1.31-1.4,2.14-1.85.95-.51,2.12-.76,3.16-1.1.25,1.32.51,2.64.61,3.96.05.51-.42,1.07-.43,1.61.07,3.1-.19,6.31.39,9.37.66,3.48,1.97,6.9,3.2,10.3,1.86,5.43,7.35,9.9,11.79,9.33,8.47-1.06,18.49-5.63,20.44-17.04,1.27-7.28-.93-13.75-4.4-19.46-2.23-3.55-3.43-6.34-1.74-10.02.31-.7,1.91-1.57,2.55-1.38,4.92,2.01,9.23,4.74,12.37,9.4,3.58,5.34,8.44,9.08,15.53,8.3,4.69-.54,6.96-3,7.02-7.56.02-5.76-2.13-10.73-5.61-15.89M226.46,71.15c-1.77-6.1-5.83-9.49-11.99-10.68-1.09-.18-2.24-1.31-2.85-2.29-1.17-1.74-1.81-3.62,0-5.52,2.68-2.83,5.48-5.73,7.86-8.85,3.78-5.19,4.82-10.35,1.09-16.53-3.12-5.21-12.82-6.7-18.63-2.56-3.66,2.59-5.43,6.39-7.42,10.07-1.74,3.16-3.96,3.29-5.99.25-3.24-4.99-7.14-9.24-13.51-10.09-5.54-.76-11.05-2.3-16.46,1.17-5.73,3.71-7.04,11.78-2.12,16.62,3.43,3.36,7.2,6.37,10.57,9.76.91.97,1.06,2.8,1.56,4.29-1.14.16-2.33.65-3.42.47-8.75-1.16-16.24.43-20.24,9.34-2.95,6.58-.8,17.37,8.31,18.34,3.42.37,7.14-.11,10.46-1.06,6.75-1.97,12.82-5.48,18.03-10.29.7-.69,2.18-.64,3.26-.92.25,1.17.68,2.39.57,3.6-.06.88-.67,1.74-1.15,2.54-3.6,6.24-6.5,12.48-4.03,20.03,1.7,5.13,5.06,8.22,10.23,8.72,4.09.47,7.52-1.54,10.04-4.82,3.21-4.11,3-8.75,1.94-13.54-.87-3.74-1.78-7.54-2.45-11.32-.21-.96.3-2,.51-3.03.69.7,1.52,1.4,2.18,2.19,2.64,3.32,4.9,7.08,7.89,10.06,5.68,5.82,13.19,2.29,15.41-3.82,1.24-3.51.5-7.71.33-12.13M300.3,148.83c-.79,2.65-1.97,5.28-2.28,7.97-.46,3.54-.07,7.09-.29,10.65-.19,2.63-.99,2.99-2.87,1.63-3.92-2.71-7.72-3.79-12.57-1.55-4.49,2.05-7.25,5.3-6.64,10.11,1.25,9.67,10.52,20.44,23.06,17.26,1.02-.24,2.37.41,3.49.64-.47,1.4-.53,3.27-1.49,4.18-1.26,1.22-3.27,1.61-4.96,2.45-.98.45-2.47.95-2.81,1.75-1.11,2.9-2.55,5.9-2.61,8.92-.19,5.16,3.22,11.9,9.87,11.44,3.43-.17,6.85-.79,10.18-1.29,5.76-.82,8.17-4.73,9.09-9.97.13-.76.37-1.58.71-2.22.25-.52.78-.96,1.25-1.37.43.38,1.11.78,1.22,1.26.54,2.85,2.64,5.31,1.55,8.67-1.03,2.78,1.05,5.48,3.92,6.39,3.5,1.09,5.91-.82,8.7-2.33,8.77-4.75,8.41-19.72.1-23.04-1.07-.42-2.15-2.28-2.07-3.4.12-1.06,1.47-2.25,2.53-2.98,1.12-.76,2.59-1.02,3.9-1.42,9.34-2.99,15.51-11.99,14.62-21.7-.4-3.85-1.03-7.72-4.4-10.26-5.13-3.81-15.48-2.97-20.37,1.44-2.96,2.6-5.53,5.37-6.85,9.3-.33,1.1-1.87,1.78-2.87,2.63-.22-1.26-.87-2.75-.49-3.87,1.91-5.4,1.56-10.42-.16-16.01-1.69-5.68-5.52-7.51-10.45-8.83-4.01-1.05-7.31-.34-10.02,3.58M420.45,288.04c8.55-.49,16.13-3.05,21.85-9.9,2.7-3.22,3.05-6.4.43-7.28-2.07-.72-4.47-1.03-6.63-.78-4.75.43-9.42,1.42-14.17,1.85-1.29.16-2.68-.85-3.99-1.29.81-1.2,1.24-2.81,2.33-3.48,4.08-2.51,7.11-5.69,7.56-10.68.65-7.02-3.25-11.96-10.35-10.49-4.04.88-7.68,3.23-10.7,6.71-3.46,3.94-7.6,7.33-11.91,10.28-3.3,2.25-7.18,2.58-10.55-.65-4.2-4.09-9.43-6.09-15.07-6.33-1.96-.09-4.46.96-5.81,2.3-.7.69.11,3.46.8,5.01,1.97,4.07,5.49,5.76,9.9,5.98,2.62.04,5.36-.14,7.83.44,1.34.35,3.05,1.95,3.33,3.18.56,2.3-1.48,2.64-3.38,2.67-3.68,0-7.32.36-10.88.14-7.07-.46-10.6,3.21-9.33,9.95.07.27-.04.63.03.9.94,4.7,7.82,8.64,12.02,7.21,4.42-1.47,8.09-3.61,10.98-7.32.52-.74,1.82-1.45,2.46-1.26.73.22,1.44,1.52,1.52,2.39.15,2.83.3,5.66-.09,8.48-.29,2.3.97,3.92,2.37,4.39,4.45,1.57,9.23,2.05,13.7.25,4.64-1.9,6.09-5.75,5.66-10.5-.5-6.02,1.74-5.85,5.55-3.62,1.17.75,2.68.85,4.54,1.45M221.01,196.33c-7.26-.67-14.24.73-20.81,3.75-1.49.65-2.95,2.9-3.26,4.6-.63,3.79-.71,7.74-.62,11.6.04,1.36.97,3.07,2.08,3.85,3.98,2.83,8.37,5.13,12.32,8.05,2.07,1.41,3.34.65,4.44-.72,5.74-7.24,10.99-14.68,13.31-23.98,1.68-6.81.54-5.66-4.81-6.9-.7-.16-1.45-.13-2.66-.25M202.15,237.95c1.42-.77,2.72-1.63,4.15-2.25,1.66-.75,1.64-1.5.19-2.48-2.72-1.9-5.43-3.81-8.03-5.77-2.38-1.7-4.06-1.56-4.83.7-2.18,6.16-4.39,12.42-6.54,18.64-.16.55-.11,1.21-.21,1.88.75-.17,1.5-.2,2.06-.58,4.39-3.22,8.75-6.5,13.21-10.14M190.54,210.13c-.59-.37-1.51-1.1-1.78-.88-1.03.79-1.84,1.84-2.77,2.8.49.35.96.78,1.42,1.07,3.41,1.91,1.59-2.16,3.13-3M192.48,195.29c-.15.16-.26.37-.43.62.27-.07.51-.05.43-.62"/>
      <path d="M107.6,48.64c.04.21-.14.31-.29.46.05-.18.05-.33.29-.46"/>
      <path d="M56.68,194.59c-.1-.18.08-.27.26-.37,0,.15,0,.3-.26.37"/>
      <path d="M20.52,144.04c.04.21-.14.31-.29.46.05-.18.05-.33.29-.46"/>
      <path d="M92.4,315.12c.04.21-.14.31-.29.46.05-.18.05-.33.29-.46"/>
      <path d="M.29,161.88c.04.21-.14.31-.29.46.05-.18.05-.33.29-.46"/>
      <path d="M352.44,54.71c-1.03-5.73-.29-10.88,5.12-13.34,5.61-2.65,16.86-1.69,19.12,7.43.62,2.42-.16,5.22-.77,7.78-.39,1.82-1.45,3.55-2.52,5.12-3.7,5.76-14.62,5.84-18.11-.47-1.06-1.96-1.79-4.16-2.83-6.51M372.54,51.5c-.31-3.13-2.73-4.34-5.1-3.91-2.55.53-5.43,1.86-7.15,3.79-2.1,2.36-1.45,6.53.75,7.48,2.45,1.13,5.16,2.03,7.72-.04,2.21-1.73,4.44-3.55,3.77-7.33"/>
      <path d="M202.24,60.65c-2.45,7.38-5.61,8.32-12.24,9.53-3.15.55-9.83-2.73-11.82-7.55-2.15-4.97-1.48-10.24,2.35-14.07,2.86-2.93,6.03-5.56,10.41-5.4,5.62.18,9.97,4.26,10.94,10.17.41,2.31.33,4.72.36,7.32M195.9,58.57c-.11-.63-.22-1.26-.45-1.83-.9-2.5-1.81-5.46-5.02-5.18-1.99.15-4.6,1.26-5.52,2.83-2.53,3.97-.56,6.89,4.14,9.49,2.21,1.26,5.27-1.17,6.85-5.32"/>
      <path d="M309.41,197.54c-1.76-4.1-1.94-7.84-.75-11.86,1.19-4.17,4.03-6.01,7.9-6.5,3.72-.48,6.98,1.28,8.95,4.35,3.93,5.99,2.15,10.64-2.62,14.98-3.4,3.07-11.35,2.39-13.48-.98M323.02,189.41c-1.02-.75-2.13-1.38-3.03-2.19-1.67-1.39-3.41-2.06-5.46-.88-2.46,1.41-3.32,3.79-2.75,6.24.25,1.17,2.2,2.79,3.28,2.67,2.23-.13,4.58-1.02,6.56-2.17.98-.6,1.25-2.36,1.39-3.66"/>
      <path d="M393.98,273.4c.44-4.15,2.3-6.38,5.81-6.97,4.92-.82,8.8.68,10.45,4.16,1.42,2.76.56,7.97-1.89,9.68-1.86,1.39-4.08,2.67-6.32,3.19-4.91.97-8.94-4.05-8.05-10.05M401.06,271.33c-1,.7-1.97,1.45-3,2.24,1.02.75,1.87,1.9,2.97,2.23,1.1.33,2.5-.05,3.7-.39.72-.23,1.96-1.06,1.88-1.48-.15-.84-.76-1.97-1.49-2.33-.98-.54-2.31-.44-4.05-.26"/>
    </g>
  </g>
</svg>