<?xml version="1.0" encoding="UTF-8"?>
<svg id="Layer_2" xmlns="http://www.w3.org/2000/svg" viewBox="0 0 49.45 51.75">
  <defs>
    <style>
      .cls-1 {
        fill: #fff;
      }
    </style>
  </defs>
  <g id="Layer_1-2" data-name="Layer_1">
    <g>
      <path d="M28.76,23.45c-2.27,1.59-3.88,3.31-5.22,5.29-.54.79-.91,1.72-1.55,2.41-4.41,4.78-7.06,10.58-9.67,16.41-.26.58-.51,1.18-.84,1.72-1.6,2.65-5.59,3.3-7.87,1.25-.71-.63-1.31-1.4-1.86-2.18-2.51-3.55-2.32-5.13.68-8.4,1.39-1.52,2.6-3.2,3.89-4.81.3-.37.52-.81.83-1.17,4.59-5.29,9.14-10.63,13.83-15.84,1.45-1.61,2.48-2.96,2.17-5.42-.59-4.76,1.82-8.34,5.81-10.71,4.12-2.46,8.46-2.79,12.72-.25,2.65,1.58,4.7,3.85,6.42,6.36,2.04,2.99,1.64,6.11-.18,9.02-2.72,4.35-6.66,7.25-11.44,9.03-1.29.48-2.53.32-3.69-.32-1.25-.69-2.45-1.45-4.01-2.38ZM35.09,8.4c-.08-.89-.26-1.79-.22-2.67.05-1.08-.32-1.93-1.03-1.7-1.01.32-2.01.78-2.87,1.39-.36.26-.35,1.04-.6,1.92,1.8.36,3.31.66,4.82.97.43.64.84,1.28,1.29,1.91,3.24,4.6,3.8,6.58,3.17,11.4,1.45.13,2.04-.57,1.91-1.96-.06-.72-.14-1.43-.22-2.34,1.32-.1,2.32-.17,3.83-.28q-2.65-1.15-3.86-2.87,1.85-1.87,5.04-2.06c-.16-1.56-1.81-1.68-2.49-2.64-.69-.99-1.03-2.23-1.49-3.3-2.94-.69-5.24.32-7.26,2.24ZM6.06,47.28c3.41-.1,5.18-1.63,5.66-4.53.49-3.02,2.11-5.21,4.42-7.13,1.18-.98,2.24-2.32,2.88-3.72,2.84-6.11,6.81-11.08,13.15-13.69-.58-3.04-1.49-3.67-3.65-2.5-4.13,2.23-7.58,5.22-10.33,9.08-1.84,2.58-3.84,5.1-6.05,7.37-2.49,2.56-4.36,5.48-6.11,8.52-1.21,2.09-1.23,4.2.03,6.59ZM33.82,11.14c-1.21,1.21-.91,2.24-.19,3.18.6.77,1.37,1.35,2.46.86.8-.35.8-1.36-.17-2.4-.6-.65-1.41-1.11-2.1-1.64ZM27.24,9.85c1.43,1.66,2.07,1.92,3.37,1.24.18-.1.34-.58.26-.8-.53-1.48-1.75-.98-2.8-.86-.29.03-.55.28-.83.42ZM36.72,17.96c-1.79.07-2.04,1.14-1.93,2.32.03.36.49.9.83.96.32.06,1-.36,1.05-.65.14-.84.05-1.73.05-2.63ZM26.52,12.77l-.33-.23-.08.33.41-.1Z"/>
      <path class="cls-1" d="M6.06,47.28c-1.26-2.39-1.24-4.5-.03-6.59,1.76-3.04,3.63-5.97,6.11-8.52,2.21-2.27,4.21-4.79,6.05-7.37,2.75-3.86,6.2-6.85,10.33-9.08,2.16-1.17,3.07-.53,3.65,2.5-6.35,2.61-10.32,7.57-13.15,13.69-.65,1.4-1.7,2.74-2.88,3.72-2.31,1.92-3.93,4.1-4.42,7.13-.47,2.9-2.24,4.44-5.66,4.53Z"/>
      <path class="cls-1" d="M35.09,8.4c2.02-1.92,4.32-2.93,7.26-2.24.47,1.07.8,2.31,1.49,3.3.67.96,2.33,1.08,2.49,2.64q-3.19.19-5.04,2.06,1.21,1.72,3.86,2.87c-1.51.11-2.51.18-3.83.28.09.91.16,1.62.22,2.34.13,1.39-.46,2.09-1.91,1.96.62-4.82.07-6.8-3.17-11.4-.44-.63-.86-1.27-1.29-1.91l-.1.09ZM39.6,10.73c.56-.72,1.15-1.14,1.15-1.56,0-.48-.42-1.11-.85-1.41-.55-.39-1.6.49-1.43,1.24.11.5.59.92,1.13,1.72Z"/>
      <path class="cls-1" d="M35.19,8.3c-1.51-.3-3.02-.61-4.82-.97.25-.88.24-1.67.6-1.92.86-.61,1.86-1.06,2.87-1.39.71-.23,1.09.61,1.03,1.7-.04.88.14,1.78.22,2.67,0,0,.1-.09.1-.09Z"/>
      <path class="cls-1" d="M33.82,11.14c.69.53,1.5.99,2.1,1.64.97,1.04.97,2.05.17,2.4-1.09.48-1.86-.09-2.46-.86-.72-.94-1.02-1.97.19-3.18Z"/>
      <path class="cls-1" d="M27.24,9.85c.27-.15.54-.39.83-.42,1.05-.12,2.26-.61,2.8.86.08.22-.07.7-.26.8-1.29.68-1.94.42-3.37-1.24Z"/>
      <path class="cls-1" d="M36.72,17.96c0,.9.09,1.79-.05,2.63-.05.29-.73.71-1.05.65-.34-.06-.8-.6-.83-.96-.11-1.18.13-2.25,1.93-2.32Z"/>
      <polygon class="cls-1" points="26.52 12.77 26.11 12.87 26.19 12.54 26.52 12.77"/>
      <path d="M39.6,10.73c-.54-.79-1.02-1.22-1.13-1.72-.17-.75.88-1.63,1.43-1.24.42.3.84.92.85,1.41,0,.41-.58.83-1.15,1.56Z"/>
    </g>
  </g>
</svg>