<?xml version="1.0" encoding="UTF-8"?>
<svg id="Layer_2" xmlns="http://www.w3.org/2000/svg" viewBox="0 0 36.18 39.52">
  <defs>
    <style>
      .cls-1 {
        fill: #fff;
      }
    </style>
  </defs>
  <g id="Layer_1-2" data-name="Layer_1">
    <g>
      <path d="M0,6.59c2.71-2.57,6.31-2.23,9.39-3.3,3-1.05,6.01-1.91,9.28-2.01,3.31-.1,6.61-.83,9.86-1.28,1.7.99,2.77,2.44,2.82,4.27.13,5.17,1.95,9.99,2.88,14.99.75,4.06,1.38,8.15,1.89,12.24.4,3.2-1.39,5.58-4.72,6.04-5.2.73-10.44,1.26-15.67,1.71-3.16.27-6.37.6-9.64-.54-1.86-2.65-1.8-5.97-2.42-9.01-1.14-5.62-1.84-11.32-2.72-16.99-.29-1.88-.59-3.76-.96-6.12ZM17.25,21.66c4.72-1.99,5.02-6,5.37-9.73.4-4.33-3.57-7-7.63-5.44-.44.17-.88.36-1.31.57-2.43,1.15-3.3,2.68-3.01,5.3.48,4.27,2.59,7.38,6.58,9.31ZM19.33,31.34c1.48,1.1,2.54,2.03,3.74,2.74,1.29.76,2.61-.16,2.54-1.64-.09-2.22-1.05-3.97-2.93-5.14-1.72-1.07-3.49-2.07-5.31-2.49-2.18,1.49-2.59,3.53-2.81,5.58-.19,1.71.81,3.12,2.42,3.66.81.27,1.56.09,1.8-.94.11-.45.28-.89.56-1.77Z"/>
      <path class="cls-1" d="M17.25,21.66c-3.99-1.94-6.09-5.05-6.58-9.31-.3-2.62.57-4.15,3.01-5.3.43-.2.87-.4,1.31-.57,4.06-1.55,8.02,1.12,7.63,5.44-.34,3.73-.65,7.75-5.37,9.73ZM16.82,16.92c.15-2.39.35-4.49.38-6.6.01-.91-1.16-1.86-1.93-1.73-1.01.17-1.95.77-1.93,1.79.07,2.53.52,4.99,3.48,6.54Z"/>
      <path class="cls-1" d="M19.33,31.34c-.28.88-.45,1.32-.56,1.77-.24,1.03-.99,1.21-1.8.94-1.61-.54-2.61-1.95-2.42-3.66.23-2.04.63-4.09,2.81-5.58,1.82.42,3.59,1.42,5.31,2.49,1.88,1.17,2.84,2.92,2.93,5.14.06,1.48-1.25,2.4-2.54,1.64-1.2-.71-2.26-1.64-3.74-2.74Z"/>
      <path d="M16.82,16.92c-2.95-1.56-3.41-4.01-3.48-6.54-.03-1.02.91-1.62,1.93-1.79.77-.13,1.95.82,1.93,1.73-.03,2.11-.23,4.22-.38,6.6Z"/>
    </g>
  </g>
</svg>