<?xml version="1.0" encoding="UTF-8"?>
<svg id="Layer_2" xmlns="http://www.w3.org/2000/svg" viewBox="0 0 289.16 348.08">
  <g id="Layer_3">
    <g id="Stoel">
      <path d="M7.5,30.25c12.19-4.57,24.01-9.17,35.92-13.56,7.36-2.71,14.78-5.29,22.28-7.58,7.84-2.4,15.81-4.38,23.72-6.55,2.53-.69,5.05-1.41,7.58-2.1,4.48-1.23,8.52.16,12.22,2.47,1.21.75,2.11,2.41,2.59,3.84,2.85,8.5,5.71,17,8.23,25.6,2.52,8.59,5.23,17.24,3.52,26.38-.31,1.66-1.37,3.45-2.62,4.6-1.79,1.63-1.57,3.34-.96,5.11,1.22,3.52,2.84,6.91,3.93,10.47,1.67,5.44,3.07,10.97,4.49,16.48,1.87,7.26,3.64,14.54,5.47,21.81.57,2.26,3.53,3.14,6.58,1.75,3.81-1.75,7.36-3.36,10.33,1.51.74,1.21,2.68,1.87,4.2,2.39,8.13,2.78,16.26,5.57,24.48,8.08,8.29,2.53,16.7,4.62,25,7.1,8.22,2.46,16.36,5.22,24.56,7.73,1.88.58,3.89.83,5.85.99,10.66.85,17.36,7.55,23.01,15.65,3.69,5.28,6.17,11.13,7.51,17.51.86,4.08-.06,7.17-3.61,9.3-2.7,1.63-3.9,3.22-1.91,6.48,1.32,2.15,1.56,4.97,2.21,7.51,2.62,10.24,5.28,20.46,7.78,30.73,1.61,6.59,3.02,13.24,4.41,19.88.98,4.67,1.47,9.47,2.78,14.04.62,2.17,2.7,3.91,4.05,5.89,4.77,6.96,7.15,14.81,7.99,23.08.26,2.61-1.23,4.65-4.05,6.09-4.99,2.55-9.36,6.35-14.42,8.7-3.37,1.56-7.39,4.33-11.31.54-.45-.44-1.05-.89-1.2-1.44-1.52-5.37-3-10.75-4.39-16.16-.23-.89-.26-2,.05-2.84,2.39-6.49-.6-12.35-2.03-18.39-.48-2.02-.64-4.11-1.13-6.12-.95-3.95-2.01-7.88-3.06-11.8-.28-1.03-.79-2-1.05-3.04-2.66-10.46-5.26-20.93-8.02-31.36-.17-.66-1.63-1.54-2.3-1.41-3.88.79-7.76,1.67-11.53,2.88-5.09,1.64-10.11,3.51-15.08,5.47-3.32,1.31-6.55,2.9-9.73,4.52-.66.34-1.3,1.39-1.35,2.16-.24,3.98.12,7.73,2.25,11.42,3.7,6.42,5.97,13.36,5.87,20.97-.05,3.57-2.12,5.47-4.9,6.3-4.02,1.2-8.24,1.81-12.4,2.45-5.92.92-8.74-4.43-10.27-8.68-.62-1.73-1.37-3.46-1.61-5.26-.27-1.98-.5-4.18.09-6.02,1.69-5.3,1.16-10.47-.15-15.66-.12-.48-1.47-1.14-1.98-.96-3.92,1.37-7.8,2.85-11.64,4.43-4.4,1.81-8.74,3.77-13.13,5.59-.53.22-1.25-.01-1.88-.07-3.67-.33-5.16,1.16-4.49,4.73,1.25,6.74,2.46,13.34,1.24,20.38-.76,4.36.41,9.09,1,13.62.88,6.73,1.99,13.43,3.06,20.13.15.93.4,2.08,1.04,2.65,4.88,4.37,4.06,10.61,4.97,16.08.71,4.23-.33,8.78-.79,13.17-.81,7.6-3.94,8.59-9.31,8.09-3.37-.31-6.79-.3-10.18-.17-3.49.13-5.72-1.68-7.33-4.39-3.68-6.19-3.53-13.4-5.17-20.13,3.24-12.65-.89-24.74-2.76-37-.21-1.36.05-2.8-.14-4.16-.34-2.38-.95-4.72-1.28-7.1-1.26-8.98-2.41-17.98-3.73-26.95-.16-1.05-.89-2.23-1.7-2.95-5.5-4.9-10.96-9.86-16.69-14.49-5.33-4.31-10.92-8.32-16.53-12.27-.74-.52-2.38-.24-3.33.23-.47.24-.54,1.78-.39,2.67.79,4.67,1.63,9.33,2.58,13.97,1.84,8.89,3.7,17.78,5.71,26.64.36,1.59,1.07,3.58,2.28,4.4,3.16,2.13,3.67,5.24,4.22,8.51.68,4.04,1.52,8.05,2.23,12.09.82,4.67-.69,9.92-7.57,10.97-3.17.48-6.48,1.64-9.51,1.16-7.55-1.19-10.17-5.58-9.84-13.27.25-5.78.22-11.7-.77-17.37-1.5-8.58-3.95-17-5.99-25.49-1.06-4.41-2.19-8.8-3.14-13.24-2.14-9.94-4.46-19.86-6.18-29.87-.98-5.73-.99-11.65-1.28-17.49-.17-3.52-3.08-4.98-4.97-7.22-2.91-3.45-5.99-6.78-8.61-10.43-1.93-2.7-1.16-7.71,1.23-9.66,2.5-2.04,5.3-3.71,7.84-5.7.67-.53,1.35-1.74,1.2-2.49-.56-2.9-1.5-5.72-2.19-8.6-.5-2.08-1-4.19-1.17-6.32-.58-7.43-4.94-13.6-6.75-20.6-.52-2.01-.69-4.12-1.04-6.17-.73-4.23-2.28-8.32-1.12-12.81.41-1.61-.37-2.95-3.04-2.1-2.69.86-5.6,3.92-8.55,1.11-1.76-1.67-3.09-4-4.03-6.28-2.34-5.61-4.1-11.46-6.56-17.01-2.67-6.03-6.29-11.66-8.71-17.78-2.15-5.45-4.74-11.42.75-16.7,1.2-1.16,2.59-2.12,4.22-3.24M109.63,215.93c2.87,4.01,4.72,8.35,5.34,13.35.49,4,2.28,5.14,6.08,4.06,5.05-1.43,9.94-3.44,14.94-5.05,3.39-1.09,6.84-2.03,10.31-2.85,1.56-.37,3.41.14,4.82-.47,7.42-3.2,15-5.8,23.02-6.99.62-.09,1.2-.43,1.8-.65,7.88-2.97,15.75-5.99,23.66-8.89,7.04-2.58,14.61-4.15,21.1-7.7,10.04-5.49,20.96-8.58,31.34-13.07,4.9-2.12,7.64-6.06,6.04-9.7-.81-1.83-1.59-3.68-2.41-5.51-4.42-9.87-11.02-16.93-22.26-19.12-8.68-1.69-17.25-4.07-25.74-6.58-10.24-3.03-20.33-6.55-30.5-9.79-8.77-2.79-17.97-4.62-26.24-8.46-7.96-3.7-15.19-2.16-22.76-.31-4.54,1.11-8.94,3.19-13.52,3.64-3,.29-5.41,1.23-8.02,2.36-6.33,2.73-12.94,4.86-19.15,7.84-10.79,5.19-22.91,5.86-33.85,10.4-3.09,1.29-6.27,2.59-9,4.48-3.93,2.72-3.97,4.24-1.09,7.92,1.49,1.9,2.86,4,4.71,5.48,8.14,6.54,16.39,12.94,24.7,19.27,2.09,1.59,4.54,2.71,6.77,4.13,3.84,2.44,7.49,5.24,11.5,7.36,7,3.7,13.2,8.25,18.41,14.86M78.67,11.45c-3.3.85-6.61,1.66-9.9,2.55-1.88.51-3.77,1.02-5.58,1.74-7.39,2.93-14.73,6-22.13,8.91-9.21,3.62-18.55,6.93-27.67,10.76-6.22,2.61-7.03,5.13-6.01,8.72.58,2.03,1.47,3.98,2.36,5.9,4.51,9.76,10.9,18.62,13.26,29.42,1.09,5.01,1.65,4.92,6.22,3.85,3.64-.86,7.35-1.56,10.88-2.76,7.78-2.66,15.37-5.94,23.23-8.32,9.45-2.86,19.08-5.13,28.68-7.48,6.8-1.67,13.71-2.92,20.51-4.62,2.37-.59,5.22-1.49,5.44-4.56.23-3.3.48-6.79-.35-9.92-1.51-5.67-3.82-11.13-5.77-16.69-1.99-5.67-4.49-11.24-5.71-17.07-.91-4.37-3.85-5.68-7.26-4.91-6.51,1.47-13.02,2.9-20.2,4.47M145.51,232.98c-7.23,1.11-13.91,3.84-20.44,6.99-3.13,1.51-4.59,5.18-3.87,8.6,1.08,5.15,2.05,10.33,2.91,15.52.88,5.33,1.5,10.7,2.34,16.03,1.6,10.08,3.24,20.16,5.02,30.21.17.98,1.47,2.55,2.15,2.51,2.79-.19,5.55-.88,8.31-1.45.22-.05.46-.63.47-.96.02-1.39.11-2.8-.09-4.17-1.1-7.42-2.5-14.8-3.36-22.25-.55-4.77-.71-9.65-.44-14.45.52-8.97-2.47-17.34-3.91-25.97-.45-2.7.01-4.12,2.43-4.98,1.9-.68,3.62-1.31,4.76,1.42.48,1.15,2.27,2.61,3.33,2.51,2.79-.28,5.63-1.05,8.24-2.12,7.42-3.06,14.59-6.78,22.13-9.46,7.5-2.66,15.38-4.22,23.02-6.54,5.84-1.78,11.56-3.98,17.32-6.02,5.25-1.86,10.49-3.75,15.74-5.61,2.55-.9,5.5-1.19,4.67-5.33-.2-.99,1.28-2.61,2.37-3.44.49-.37,2.54.21,2.81.83,1.38,3.13,3.29,6.41,3.3,9.64,0,3.14.22,5.94,1.14,8.97,2.54,8.38,4.73,16.88,6.88,25.38,2.22,8.79,4.35,17.61,6.31,26.47,1.32,5.94,1.03,5.76,6.12,2.84,5.19-2.98,5.32-6.99,4.42-11.76-.39-2.08-1.63-4.14-1.49-6.15.3-4.16-.31-7.96-1.52-11.98-2.49-8.24-4.17-16.72-6.23-25.09-.23-.92-.65-1.8-1.02-2.69-3.18-7.54-5.15-15.34-5.26-23.56-.03-1.92-.64-3.2-2.97-2.26-7.37,3-14.98,5.53-22.09,9.06-11.89,5.9-24.26,10.39-36.87,14.38-7.26,2.3-14.37,5.08-21.63,7.41-8.06,2.59-16.21,4.9-24.99,7.46M55.47,82.55c-.2,1.6-.9,3.34-.52,4.79,2.18,8.12,4.7,16.16,6.94,24.26,1.31,4.72,2.24,9.54,3.51,14.27.89,3.34,2.07,6.6,3.1,9.9,1.56,5.02,3.01,5.56,7.23,4.15,4.9-1.63,9.5-4.11,14.33-5.98,5.39-2.09,10.89-3.9,16.33-5.84,2.41-.86,4.16-1.88,3.14-5.13-2.17-6.85-4.15-13.77-5.96-20.73-2.15-8.23-3.99-16.53-6.06-24.78-1.12-4.47-3.09-5.72-7.48-4.78-3,.64-5.94,1.54-8.91,2.32-5.94,1.57-11.89,3.06-17.8,4.74-2.45.7-4.79,1.78-7.85,2.81M42.29,96.71c-1.95,2.23-2.32,4.67-1.74,7.64,1.35,6.88,3.1,13.54,5.71,20.12,2.18,5.51,2.85,11.62,4.13,17.47.51,2.33,1.51,4.24,4.18,4.03,1.56-.12,3.08-.9,4.58-1.48,5.11-1.99,4.99-2.13,2.76-7.79-.85-2.17-.61-4.77-.95-7.16-.18-1.27-.41-2.56-.83-3.77-1.12-3.23-2.57-6.35-3.49-9.63-2.46-8.79-4.71-17.65-7.11-26.46-.07-.26-1.35-.56-1.5-.38-1.88,2.28-3.66,4.65-5.73,7.4M123.31,101.19c-1.44-5.27-2.86-10.55-4.35-15.81-.44-1.54-.72-3.34-1.71-4.46-2.14-2.42-2.91-5.21-3.43-8.24-.25-1.44-.85-2.83-1.3-4.24-1.04.88-2.42,1.57-3.06,2.68-1.94,3.36-7.05,5.33-4.33,10.84,1.22,2.47.94,5.62,1.74,8.35,1.41,4.86,3.15,9.62,4.7,14.44,1.72,5.35,3.21,10.79,5.21,16.03.45,1.18,2.54,2.2,4,2.41,1.32.19,2.78-1.08,4.24-1.28,2.24-.31,2.74-1.32,2.23-3.4-1.35-5.54-2.56-11.1-3.95-17.32M65.05,205.68c-.57-3.03-1.01-6.08-1.79-9.05-.17-.67-1.58-1.53-2.24-1.41-.66.13-1.48,1.34-1.59,2.16-.45,3.32-.65,6.67-.95,10.01-.07.73-.42,1.52-.24,2.16,1.88,6.7,4.02,13.33,5.72,20.07,1.77,7,3.12,14.11,4.7,21.17,1.16,5.19,2.34,10.37,3.6,15.53.49,1.99,1.29,3.59,4,3.04,2.78-.55,2.4-2.31,1.95-4.13-1.61-6.38-3.5-12.7-4.89-19.13-2.86-13.23-5.46-26.51-8.29-40.43M109.02,232.91c-.66-7.49-3.83-13.85-9.84-18.22-8.14-5.9-16.77-11.11-25.07-16.8-2.51-1.72-3.45.3-3.17,1.55.55,2.51,1.44,5.52,3.27,7.06,3.71,3.13,8.28,5.21,12.22,8.1,5.74,4.22,11.28,8.72,16.79,13.22,1.88,1.54,3.44,3.46,5.81,5.09M192.49,243.13c-.54-1.64-1.53-3.29-1.49-4.92.05-1.82.6-3.47-2.08-2.99-2.24.4-5.35.06-4.73,3.95.35,2.23.93,4.42,1.21,6.65.67,5.34,1.68,4.17,5.18,3.5,3.64-.7,2.37-3.31,1.91-6.19Z"/>
      <path d="M42.78,52.39c2.31,6.14.93,10.81-3.4,12.52-3.05,1.2-5.99.8-8.49-1.04-2.69-1.98-2.91-5.37-1.91-7.98.88-2.28,3.1-4.99,5.25-5.57,2.56-.7,6.28-1.61,8.54,2.07Z"/>
      <path d="M96.86,47.11c-5.98-2.06-8.34-7.96-4.37-11.5,1.82-1.63,5.06-2.63,7.48-2.36,2.62.3,3.88,3.07,4.26,5.98.38,2.94-.73,5.28-2.63,7.03-.98.91-3,.69-4.75.84Z"/>
    </g>
  </g>
</svg>