<?xml version="1.0" encoding="UTF-8"?>
<svg id="Layer_2" xmlns="http://www.w3.org/2000/svg" viewBox="0 0 335.03 498.2">
  <g id="Layer_3">
    <g id="umbrella_x5F_1">
      <path d="M281.49,435.17c-4.18-.59-7.66-2.18-10.39-5.54-2.23-2.87-4.51-4.97-9.16-3.22-3.03,1.24-7-.27-10.54-.23-7.07.08-11.4,5.08-16.37,9.17-8.97,7.32-18.37,14.07-27.69,20.9-6.45,4.74-13.12,9.27-19.93,13.52-12.01,7.56-25.2,10.05-39.34,10.07-7.78-.05-15.54,1.73-23.3,2.95-11.3,1.69-22.59,3.23-33.88,5.34-16.23,3.01-32.23,7.23-48.62,9.4-10.87,1.4-22.06.25-33.1-.19-2.12-.12-4.54-1.36-6.18-2.83-4.29-3.77-4.27-8.79,2.13-11.76,9.78-4.57,17.19-11.44,23.25-20.21,2.78-3.99,6.42-7.43,9.42-11.21,7.74-9.78,15.69-19.49,23.07-29.61,4.53-6.2,7.7-13.31,11.87-19.72,5.84-8.84,11.96-17.39,17.94-26.23,3.75-5.56,7.22-11.4,11.33-16.75,2.09-2.57,5.25-4.37,8.13-6.17,2.88-1.8,6.33-2.76,8.93-4.84,11-8.97,21.64-18.42,32.64-27.39,3.64-3.01,3.54-6.19,1.17-9.21-2.51-3.01-6.14-5.16-9.14-7.82-5.93-5.24-11.79-10.54-17.72-15.92l-.74-.71c-10.7-10.88-21.26-22.05-32.25-32.79-5.01-4.89-10.92-8.86-16.14-13.53-3.36-3-5.95-6.79-9.24-9.87-1.36-1.33-2.47-5.49-5.89-1.56-3.35,3.86-7.24,3.97-10.82.34-3.43-3.35-1.5-7.34.88-9.77,2.59-2.65,2.21-4.55.56-6.72-1.79-2.31-3.8-4.69-7.45-2.39-.56.29-2.2-.33-2.91-1.03-8.14-6.55-13.05-15.55-17.89-24.47-3.76-7.17-7.03-14.98-3.52-23.3,1.52-3.41,4.52-6.35,7.11-9.27,2.72-3.07,5.8-5.94,8.74-8.94,7.27-7.58,16.26-12.92,26.57-13.88,4.45-.4,10.07,2.29,13.78,5.36,6.99,5.58,13.08,12.37,19.52,18.66,3.43,3.36,3.71,8.8.92,12.08-2.65,3.14-7.95,3.84-11.73.98-4.28-3.2-8.35-6.76-12.21-10.4-6.72-6.43-15.14-6.4-21.57.18-1.96,2-4.06,4.01-5.94,6.08-4.47,5.14-2.62,12.12,2.59,16.23,5.14,4.04,9.23,9.3,13.74,14.13.14.28.08,1.06-.05,1.63-1.57,5.18.17,8.84,5.42,10.47.43.14,1.34-.37,1.9-.8,1.61-1.5,2.86-3.22,4.54-4.65,2.17-1.79,4.58-1.68,6.72.28,2.07,2.03,1.96,4.29.5,6.64-.42.57-.98,1-1.4,1.43-2.72,3.21-4.39,5.78.11,9.62,6.07,5.23,10.82,11.97,16.75,17.35,6.64,5.93,14.55,10.58,20.98,16.73,6.72,6.29,12.18,14,18.62,20.58,5.15,5.32,10.86,9.92,16.43,14.8,3,2.65,6.28,5.02,9.35,7.74,5.43,5.03,8.89,4.64,13.21-1.21,5.15-7.13,10.94-13.91,16.09-21.05,3.27-4.63,5.97-9.83,8.95-14.74,5.9-9.47,11.81-18.8,17.78-28.21.62-1.07,1.81-2.28,1.66-3.27-.63-5.37,2.62-5.55,6.64-7.08,7.04-2.77,13.64-6.94,19.74-11.33,10.03-7.26,19.84-14.72,29.09-22.75,6.79-5.81,12.8-12.38,18.73-19.02,5.45-6,10.25-12.49,15.63-18.57,3.91-4.43,8.97-7.17,14.97-8.3,5.86-1.13,7.13-.72,8.26,5.14,1.13,6.28,2.2,12.63,2.27,19,.13,11.03-1.09,22-.75,32.96.6,21.84-3.54,43.11-6.47,64.57-1.1,8.71-1.07,17.69-2.67,26.34-2.93,15.45-2.54,31.78-10.65,45.95-7.49,12.96-15.05,25.84-22.97,38.52-5.62,9.19-12.31,17.61-17.37,26.93-2.08,3.84-1.1,9.28-1.54,14.02-.44,5.03,3.2,7.6,6.34,10.25,3.14,2.65,4.87,5.6,4.29,9.92-.34.78-.97,1.43-1.74,2.21M223.95,275.15c-6.02,11.31-9.49,23.73-17.57,34.43-6.97,9.13-12.93,19.24-20.97,27.61-4.54,4.79-10.59,8.11-15.84,12.2-9.53,7.61-20.07,13.38-31.69,17.41-5.57,1.83-10.69,4.79-16.04,7.11-2.75,1.09-2.8,2.72-.66,4.11,4.13,2.78,8.34,5.49,12.89,7.7,9.46,4.77,19.54,8.47,28.73,13.81,12.53,7.07,24.76,13.58,39.81,12.34,15.19-1.09,30.39-1.62,45.51-2.78,1.98-.16,4.78-2.32,5.26-4.09,1.16-3.9,1.04-8.21,1.7-12.32.59-4.32,1.24-8.71,2.4-12.9,2.17-8.23,4.9-16.32,6.93-24.55,1.75-7.52,2.3-15.37,4.19-22.75,1.15-4.33,1.68-7.87-.49-12.23-6.45-13.29-12.12-26.95-18.56-40.24-3.62-7.45-8.23-14.47-12.13-21.92-1.73-3.23-2.62-6.9-3.8-10.42-.22-.63.12-1.56.33-2.34-.84.72-2.18,1.37-2.38,2.29-1.15,4.61-1.66,9.28-2.88,13.82-1.22,4.4-3.15,8.66-4.72,13.7M19.94,491.76c2.4-.03,4.95-.06,7.35-.08,6.5-.22,13.01.28,19.3-.86,14.89-2.65,29.49-6.28,44.31-8.99,11.93-2.19,23.93-3.74,35.86-5.36,8.33-1.23,16.8-2.88,25.28-2.98,13.08-.22,24.77-4.03,35.51-11.01,10.67-6.91,21.05-14.38,31.22-21.93,9.54-6.9,18.79-14.22,28.04-21.39,1.12-.86,1.89-2.07,2.79-3-1.49-.2-2.98-.67-4.46-.44-6,.85-11.85,2.68-17.86,2.82-15.84.32-31.68.08-47.59-.09-1.63-.05-3.26-.95-4.76-1.71-7.61-4.23-15.02-8.81-22.77-12.61-10.67-5.25-21.61-9.94-32.41-14.62-1.07-.48-3.74.26-3.95.89-2.58,9.51-7.86,17.49-13.21,25.54-6.88,10.47-13.19,21.37-22.14,30.38-4.2,4.15-8.96,7.74-13.02,12.03-13,13.58-28.73,22.96-45.76,30.65-.99.44-1.61,1.79-1.74,2.78M251.39,263.52c.44,1.13.95,2.32,1.45,3.38,8.05,17.52,16.24,34.89,24.08,52.48,1.45,3.24,2.28,7.26,1.89,10.66-.51,4.81-2.51,9.58-3.72,14.4-2.97,12.06-5.95,24.11-8.92,36.17-1.41,6.17-2.62,12.26-3.82,18.36-.2,1.2-.04,2.48-.03,3.75.84-1,1.89-1.93,2.58-3.07,4.8-7.34,9.45-14.82,14.24-22.16,2.99-4.49,6.62-8.63,9.4-13.19,4.37-7.19,8.18-14.66,12.34-21.92,5.55-9.54,10.17-19.56,11.81-30.54,2.57-16.65,4.64-33.36,6.78-50,1.82-14.31,3.42-28.54,4.95-42.84.88-9.2,1.49-18.4,1.73-27.67.35-12.38.28-24.75.28-37.2-.01-.99-1.01-2.11-1.52-3.16-.7.86-1.61,1.5-1.95,2.43-1.09,3.55-1.9,7.23-3.06,10.71-4.04,11.71-8.64,23.29-15.95,33.35-3.27,4.49-6.9,8.78-10.89,12.57-5.18,5.01-10.99,9.53-16.53,14.19-2.59,2.08-5.11,4.23-8.07,5.82-9,4.77-18.14,9.26-27.14,13.89-.56.29-1.19,1.36-.97,1.71,3.32,5.76,6.85,11.45,11.02,17.91M312.36,153.21c-1.87,3.06-3.32,6.4-5.62,9.19-6.28,7.43-12.34,15.2-19.48,21.93-8.05,7.52-17.1,13.91-25.64,20.8-1.89,1.65-3.28,3.93-5.24,5.22-7.44,4.61-15.11,8.59-22.41,13.34-1.62.94-3.35,4.28-2.9,5.69,1.53,3.73,1.87,8.82,7.46,9.53.57,0,1.2-.23,1.76-.52,10.83-5.07,21.81-9.73,30.12-19.08,3.98-4.5,9.82-7.33,14.65-11.13,1.68-1.29,3.22-2.87,4.47-4.58,2.78-3.99,5-8.4,7.99-12.18,8.99-11.35,13.08-24.97,18.59-37.9.48-1.07.11-2.55.17-3.89-1.33.93-2.59,1.94-3.92,3.58M88.83,394.09c-1.04,1.78-1.94,3.56-3.05,5.27-7.23,10.83-14.39,21.73-21.98,32.36-7.73,10.77-15.6,21.39-23.96,31.67-4.67,5.78-10.41,10.8-15.66,16.16-.77.93-1.25,2.28-1.87,3.35,1.41-.44,3.03-.67,4.08-1.46,3.36-2.58,6.3-5.59,9.59-8.24,7.78-6.1,15.7-11.92,23.27-18.23,3.57-2.94,6.64-6.51,9.86-9.94,4.4-4.79,9.01-9.65,12.98-14.86,4.32-5.71,7.64-12.39,12.24-17.82,6.98-8.28,10.33-18.01,13.47-27.95,1.43-4.61-2.75-5.91-4.69-8.5-1.47,1.36-3.29,2.51-4.48,4.01-3.42,4.35-6.54,8.99-9.81,14.18M200.61,274.71c-.91.93-1.96,1.86-2.8,2.86-5.99,7.99-11.62,16.33-18.11,23.97-2.86,3.36-2.56,4.77.51,7.07,3.07,2.3,6.21,4.67,8.92,7.46,1.93,1.89,2.84.82,3.74-.54,5.13-8.54,10.98-16.81,15.12-25.77,4.97-10.52,8.45-21.81,12.71-32.75,1.51-3.69,3.81-7.04,4.9-10.88.75-2.77.07-5.94.04-8.91-.85,0-2.12-.26-2.4.17-2.37,3.14-4.67,6.35-6.68,9.69-5.34,8.9-10.68,17.94-15.95,27.62M130.04,349.77c-4.35,2.6-8.71,5.33-13.21,7.79-4.43,2.38-7.79,5.53-8.86,10.5-.2.92.02,1.84-.04,2.76,1.06-.08,2.12-.02,3.04-.39,2.39-1.02,4.5-2.6,7.03-3.47,9.79-3.72,20.08-6.24,29.36-11.01,9.63-4.85,18.39-11.67,27.45-17.78.42-.29.4-2.13-.03-2.55-3.94-4.13-8.01-8.11-12.23-11.95-.5-.49-2.13-.54-2.55-.11-9.8,8.46-19.53,16.98-29.97,26.23M20.55,483.26c.07.21.08.49.15.71.21-.21.35-.5-.15-.71"/>
      <path d="M193.85.06c.28-.14.57,0,.78.2-.21.07-.49.08-.78-.2"/>
      <path d="M66.66,439.95c-.14.14-.42,0-.64-.2.21-.07.49-.08.64.2"/>
      <path d="M65.26,441.38c-.14.14-.42,0-.64-.2.21-.07.49-.08.64.2"/>
      <path d="M209,272.85c-.14.14-.42,0-.64-.2.21-.07.49-.08.64.2"/>
    </g>
  </g>
</svg>