<?xml version="1.0" encoding="UTF-8"?>
<svg id="Layer_2" xmlns="http://www.w3.org/2000/svg" viewBox="0 0 300.86 387.65">
  <g id="Layer_3">
    <g id="gShape_20">
      <path d="M262.12,204.84c-2.73,7.08-8.55,10.32-14.96,12.71-7.43,2.79-12.4-3.63-12.59-9.34-.09-2.51.02-4.95-.04-7.41-.08-.8-.36-1.75-.81-2.42-4.89-7.11-17.82-8.83-23.95-2.99-3.07,2.96-5.55,6.48-8.38,9.64-4.34,4.82-8.79,9.42-15.32,11.27-8.58,2.52-13.42,8.21-16.02,16.83-1.88,6.17-5.95,10.94-11.79,14.75-6.75,4.45-14.27,6.92-21.18,10.87-5.78,3.29-9.99,8.09-14.53,12.76-4.6,4.79-8.14,9.85-10.53,15.95-1.27,3.26-2.83,6.45-4.63,9.43-2.13,3.56-4.85,6.47-8.59,8.48-2.77,1.55-5.26,3.66-7.96,5.4-5.17,3.28-10.22,3.03-14.09-2.69-3.17-4.63-5.51-9.59-4.72-15.45.51-3.53,6.62-9.98,11.7-9.6,2.91.22,6-.73,8.98-1.51,1.85-.44,1.88-2.89.57-5.14-2.98-5.09-4.51-10.61-2.34-16.31,1.67-4.44,4.07-8.75,9.11-10.61,1.23-.42,2.09-1.72,3.22-2.37,7.13-4.36,14.31-8.67,21.39-12.99.75-.44,1.31-1.03,1.93-1.52,10.59-8.33,21.28-16.42,31.58-25,3.94-3.25,8.29-6.37,10.63-11.26,1.51-3.15,3.09-6.42,5.29-9.09,2.81-3.39,4.94-7.64,10.06-8.7,2.11-.41,3.95-2.24,5.77-3.6,3.42-2.61,6.93-5.22,10.21-8.11,1.91-1.66,3.24-4.04,5.08-5.87.95-.98,2.26-2.09,3.52-2.3,4.19-.64,8.45-.7,12.61-1.47,4.57-.86,8.14-3.58,11.42-6.87,3.74-3.8,7.02-8.58,12.76-9.64,4.69-.8,9.84-2.81,14.15.68,7.85,6.5,11.69,16.16,5.45,26.62-2.86,4.91-10.6,8.11-16.39,7.02-3.13-.59-6.19-1.31-9.31-1.99-1.88-.4-5.08,1.5-5.46,3.2-.34,1.75,1.65,4.49,3.93,4.89,3.86.72,7.68,1.31,11.56,1.86,5.6.76,8.86,4.3,11.09,9.12,1.89,3.99,2.39,8.21,1.59,12.76M113.2,248.59c-3.61,2.37-7.46,4.54-10.97,7.14-6.47,4.7-9.89,12.79-4.16,20.88,1.92,2.64,2.08,6.82.27,8.7-2.95,3.11-6.68,4.63-10.81,4.36-4.51-.36-7.5,1.6-9.96,4.94-1.84,2.54-1.03,6.45,1.68,9.79,2.18,2.67,4.67,1.96,6.94.57,4.25-2.56,8.47-5.25,12.46-8.23,3.6-2.68,6.1-6.37,7.5-10.75.96-2.86,1.76-5.92,3.34-8.49,2.25-3.8,4.63-7.64,7.79-10.59,3.78-3.45,6.53-7.72,10.84-10.79,6.51-4.65,13.71-7.34,20.69-10.8,8.47-4.16,15.56-9.97,17.95-19.75,2.01-8.39,7.56-13.07,15.35-15.6,6.64-2.1,11.65-6.27,15.97-11.63,4.78-5.95,9.27-12.38,17.87-13.19,7.76-.78,14.23,1.87,19.46,7.54,2.8,2.96,3.82,6.54,3.3,10.86-.9,7.51,2.64,9.03,8.76,6.56,2.89-1.1,5.55-3.19,7.87-5.41,2.02-1.9,3.67-4.69,2.8-7.68-1-3.36-2.8-6.25-6.8-6.86-4.26-.64-8.48-1.63-12.69-2.3-4.34-.74-8.45-4.38-9-8.65-.35-2.54-.34-5.21.13-7.69.83-4.41,5.54-6.78,9.8-5.44.84.28,1.57.8,2.37,1.03,6.67,1.32,13.1,3.23,18.48-3.66,5.43-6.93,2.56-15.24-4.6-17.19-3.86-1.03-8.26-.15-11.51,2.48-3.53,2.78-6.59,6.04-9.8,9.12-4.47,4.46-10.15,5.4-16.14,5.74-4.06.22-7.8,1.52-10.88,4.57-4.47,4.46-9.15,8.76-13.75,13.16-.3.31-.83.34-1.29.55-3.51,1.9-7.89,3-10.32,5.77-3.86,4.44-6.41,10.05-9.64,15.1-1.39,2.11-2.85,4.43-4.79,6.04-10.47,8.47-21.11,16.84-31.81,25.02-4.92,3.79-10.18,7.15-15.32,10.56-2.23,1.44-4.6,2.6-7.38,4.24"/>
      <path d="M143.86,276.12c2.5-2.2,4.83-4.11,6.92-6.22,5.43-5.53,10.63-11.26,16.25-16.54,3.32-3.24,7.46-5.63,10.86-8.78,2.58-2.5,5.07-5.39,6.84-8.51,3.41-6.21,7.84-11.02,14.47-13.73,1.75-.75,3.46-2.17,4.69-3.69,3.83-4.58,14.71-6.96,18.87-3.26,3.4,3.03,5.66,7.29,5.47,12.13-.23,5.18-3,8.62-7.65,11.26-4.65,2.64-9.25,3.36-14.36,2.53-1.59-.23-3.03.43-3.45,2.08-.32,1.58-.84,3.4,1.42,4.29,1.64.59,3.14,1.6,4.83,1.76,6.06.64,12.3.42,18.26,1.52,6.9,1.31,13.63,3.99,16.98,10.74,4.68,9.23,1.83,20.63-8.99,24.28-1.5.48-2.99,1.18-4.53,1.61-9.26,2.35-17.28-3.86-17.42-13.99-.06-3.86-1.7-4.85-4.77-5.87-5.54-1.98-11.12-4.09-17.07-2.3-4.73,1.45-9.16,3.37-11.27,8.55-.91,2.12-.29,2.81,1.57,3.38,5.27,1.72,9.6,4.34,11.12,10.26.93,3.57,1.07,6.83-1.42,9.73-2.23,2.54-3.94,5.53-7.84,6.25-5.24.99-11-3.24-11.32-8.23-.05-1.06-.15-2.08-.42-3.12-.28-1.35-.39-2.98-1.25-3.87-1.59-1.72-3.65-.57-4.96.46-3.17,2.34-6.39,4.71-8.85,7.75-4.32,5.35-9.6,8.88-16.02,10.96-4.01,1.27-6.91,6.93-5.65,10.23,1.28,3.22,8.29,5.37,11.83,3.6,1.5-.78,2.91-1.67,4.3-2.6,3.95-2.64,10.05-1.65,13.54,1,5.26,4,7.14,12.46,4.19,18.46-1.74,3.56-4.75,5.7-8.61,7.16-5.51,2.14-10.49,2.38-15.15-1.46-1.87-1.58-3.48-3.52-5.3-5.14-3.01-2.64-8.62-3-11.93-.94-1.56,1-2.76,5.14-1.71,7.37,3.04,6.45.07,11.53-4.03,15.77-4.09,4.15-9.46,5.48-15.15,3.31-3.06-1.11-5.3-3.26-6.09-6.55-.96-4.1-2.12-8.27-.41-12.36,1.88-4.37,4.75-7.88,9.37-9.87,4.2-1.82,4.73-3.64,3.94-8.42-.36-2.45-.36-5.04-.46-7.54-.07-3.07,1.32-5.19,3.86-7.03,4.08-2.97,5.55-7.57,6.33-12.34,1.07-6.4,3.55-12.1,8.48-16.37,2.1-1.81,4.65-3.04,6.98-4.55,1.52-.96,2.99-1.96,4.71-3.16M213.4,234.71c2.51-1.19,5.48-1.89,7.41-3.71,1.77-1.63,3.44-4.58,3.22-6.75-.24-2.39-2.98-4.39-5.88-4.69-3.98-.39-6.98,1.97-10,4.19-2.49,1.8-4.87,3.75-7.4,5.51-4.05,2.71-8.58,4.71-10.62,9.68-2.6,6.35-7.83,10.54-12.9,14.84-2.15,1.85-4.26,3.74-6.25,5.78-3.37,3.28-6.42,6.85-9.91,9.98-4.28,3.91-8.73,7.5-13.16,11.22-1.7,1.42-3.4,2.83-5.14,4.2-3.93,3.17-9.36,4.71-11.55,9.79-1.42,3.47-2.26,7.18-3.31,10.82-1.23,4.1-1.86,8.27-5.67,11.19-4.52,3.4-5.54,7.88-3.54,13.5,1.67,4.71-.47,8.35-5.02,10.52-4.42,2.14-8.09,5.73-9.69,10.75-.72,2.37.98,6.12,3.18,7.12,5.02,2.31,12.47-2.45,14.86-7.77,1.26-2.87.45-5.6-.22-8.43-1.25-5.27,1.22-10.58,5.57-11.82,5.72-1.68,12-.36,16.21,4.7,1.62,1.86,3.71,3.42,5.88,4.69,3.56,2.13,12.83-2.19,14.68-4.82,4.09-5.64,1.98-10.01-4.85-11.13-3.95-.65-6.76,1.56-9.72,3.26-5.92,3.32-14.36-1.15-17.17-6.21-2.06-3.62-2.09-7.43-1.13-11.48,1.05-4.43,3.01-8,7.58-9.17,7.72-1.92,12.53-7.74,17.34-13.17,3.34-3.8,7.25-5.31,11.74-6.26,1.26-.29,3.25.26,4.06,1.19,2.76,2.91,5.23,6.06,4.3,10.54-.45,2.31.8,3.6,3.07,4,3.35.57,8.35-2.11,9.26-5.33.34-1.36.33-3.46-.52-4.44-1.04-1.22-3.02-1.85-4.71-2.4-5.99-1.94-8.74-6.04-8.21-12.32.33-3.86,1.82-6.83,5.04-9.21,4.03-2.93,8.36-5.48,13.28-5.2,4.52.28,9.02,1.51,13.37,2.87,7.15,2.12,10.21,6.21,10.57,13.44.31,5.07,6.15,9.01,11.03,7.36,2.33-.82,4.62-1.68,6.97-2.58,3.86-1.55,6.58-6.35,6.48-11.75-.07-3.78-3.1-5.54-5.72-6.77-7.38-3.51-15.63-3.75-23.63-4.18-9.49-.52-15.6-6.9-14.25-16.33.44-2.93,2.96-4.99,5.94-4.98,2.89,0,5.8-.18,9.14-.22M228.13,254.43c-.03-.13,0-.31-.03-.44-.11.16-.25.28.03.44"/>
      <path d="M159.01,185.96c-5.45,6.79-11.06,13-17.5,18.54-7.09,6.2-13.72,12.9-20.66,19.3-4.38,4.07-8.97,7.99-13.32,12.12-4.73,4.43-10.5,7.24-16.08,10.3-3.46,1.86-6.72,4.19-10.08,6.29-2.6,1.57-5.22,3.01-7.82,4.58-3.03,1.92-5.09,4.47-6.16,7.98-1.74,6.14-5.18,11.12-12.03,11.66-3.09.24-6.37-1.33-9.57-2.02-7.81-1.68-12.94-12.28-9.14-19.88.41-.87.57-1.86.86-2.79,1.39-5.79,5.98-8.61,10.7-11.16,6.83-3.65,13.76-7.07,20.62-10.59,4.9-2.52,9.94-4.77,14.62-7.67,4.07-2.58,7.68-5.96,11.49-8.96,1.69-1.33,3.54-2.47,5.08-3.99,4.33-4.34,8.59-8.87,12.88-13.26,3.39-3.45,6.77-6.81,10.12-10.31,3.21-3.38,6.21-6.92,9.42-10.31,2.32-2.53,4.71-4.96,7.15-7.42,5.16-5.08,10.29-10.29,15.58-15.31,2.02-1.9,4.43-3.33,6.49-5.18,2.46-2.25,4.54-4.98,7.11-7.08,2.67-2.18,5.8-3.86,8.63-5.85,2.25-1.61,4.43-3.33,6.48-5.09,1.81-1.58,3.58-3.21,5.03-5.05,2.73-3.4,5.46-6.88,7.75-10.64,3.88-6.11,11.08-7.3,16.03-1.11,2.05,2.61,3.53,5.68,5.2,8.5.29.47.57,1.12.51,1.64-1.17,7.57-1.62,15.05-7.94,21.04-6.02,5.68-13.43,9.08-19.88,13.92-6.19,4.56-11.97,9.65-17.78,14.69-3.66,3.11-7.04,6.47-10.49,9.74-1.05,1.06-2.01,2.13-3.29,3.37M58.59,243.82c-1,.32-2.03.5-2.97,1-5.77,2.81-11.73,5.47-13.55,12.62-.34,1.36-.75,2.63-1.38,3.82-1.28,2.65-.19,4.53,1.91,6.01,1.13.84,2.62,1.15,3.86,1.82,6.35,3.69,13.81.25,15.68-7.02,1.15-4.5,3.56-8.2,7.67-10.65,3.3-1.97,6.5-4.17,9.84-6.1,4.09-2.36,8.41-4.43,12.5-6.78,3.44-2,6.99-3.85,10-6.38,5.76-4.92,11.12-10.23,16.69-15.39,2.41-2.21,4.98-4.31,7.35-6.57,5.93-5.69,11.83-11.42,17.77-17.1.4-.39,1.04-.66,1.4-1.1,3.78-4.54,6.95-9.77,11.45-13.39,7.38-6.04,12.4-14.68,21.1-19.33,3.94-2.16,7.41-5.2,11.1-7.87,4.99-3.61,9.78-7.46,14.92-10.87,6.93-4.51,8.66-11.27,8.94-18.77.07-2.4-2.32-5.14-5.16-5.57-2.88-.48-4.16.38-4.25,3.35-.04.74-.91,1.42-1.43,2.06-1.4,1.8-2.68,3.75-4.24,5.45-3.27,3.51-6.27,7.35-9.99,10.28-5.52,4.42-12.06,7.14-17.46,12.02-7.95,7.2-16.53,13.7-23.94,21.49-3.46,3.66-6.93,7.41-10.31,11.16-3.57,3.82-7.02,7.79-10.67,11.6-3.75,3.89-8.01,7.32-11.45,11.51-5.44,6.71-12.08,12-18.6,17.53-3.55,2.95-7.68,5.26-11.65,7.67-4.19,2.43-8.53,4.67-12.78,6.93-3.97,2.11-7.9,4.18-12.35,6.58"/>
      <path d="M150,138.89c-4.56,5.94-9.26,11.51-13.43,17.45-4.93,7.16-9.86,14.33-16.29,20.17-5.35,4.84-10.86,9.56-16.25,14.35-2.16,1.93-4.16,4.06-6.44,5.84-5.49,4.16-10.87,8.47-16.66,12.24-6.27,4.07-12.85,7.84-19.5,11.42-5.11,2.85-10.38,5.5-15.82,7.75-4.28,1.72-8.89,2.53-13.37,3.79-3.68,1.09-6.22-1.44-7.93-3.62-3.91-5.07-5.85-11.12-6.3-17.66-.49-7.28,6.25-14.93,13.52-15.64,8.91-.91,17.05-3.79,24.76-8.6,8.42-5.21,16.74-10.35,24.6-16.38,6.27-4.86,12.8-9.29,18.96-14.29,3.89-3.21,6.91-7.63,10.91-10.7,7.57-5.8,12.77-13.8,19.51-20.36,2.03-1.99,2.91-5.26,4.41-7.93.56-.98,1.21-2.05,2.12-2.68,3.48-2.74,2.15-7.41,4.25-10.62,2.95-4.51,5.16-9.46,9.77-12.85,4.18-3.14,10.71-3.1,14.87-.59,7.8,4.74,12.23,11.66,12.24,20.73.07,6.05-1.33,12.24-6.65,16.11-2.4,1.73-5.56,2.58-8.49,3.23-4.49.95-8.23,2.87-10.92,6.71-.52.73-1.25,1.3-1.87,2.1M161.98,122.59c3.55-.06,6.44-1.86,8.33-4.44,4.2-5.81,2.57-15.63-3.07-20.12-3.23-2.62-6.91-3.72-11.13-2.12-5.45,2.02-9.96,8.62-9.74,14.47,0,.79-.3,1.8-.73,2.45-1.54,2.23-3.27,4.3-4.67,6.49-2.44,3.96-4.21,8.48-7.12,11.94-5.7,6.68-11.93,12.98-18.22,19.11-4.96,4.84-10.26,9.24-15.44,13.79-2.7,2.44-5.29,5.02-8.16,7.13-2.65,2-5.79,3.38-8.51,5.29-6.14,4.13-12.14,8.54-18.25,12.71-3,2.05-6.2,3.86-9.32,5.76-1.37.84-2.8,1.81-4.35,2.33-4.88,1.65-9.65,3.45-14.93,3.6-2.64.12-5.46,1.01-7.85,2.26-5.36,2.73-7,11.69-4.37,17.52,2.42,5.37,3.7,6.09,8.13,4.56,7.03-2.4,14.18-4.66,20.75-8.03,8.63-4.44,16.94-9.49,25-14.97,7.29-4.95,14.06-10.67,20.87-16.34,6.02-4.97,12.02-10.08,17.66-15.45,3.56-3.43,6.73-7.25,9.62-11.25,3.51-4.79,6.37-10.1,9.92-14.84,3.29-4.47,7.34-8.28,10.75-12.6,3.85-4.75,8.26-8.3,14.86-9.26"/>
      <path d="M63.82,112.4c-.05-3.25-.6-6.33-.12-9.3.53-3.7,4.1-5.03,6.98-6.74,8.4-5.04,15.36-2.06,21.73,3.95,1.34,1.21,2.83,2.31,4.27,3.44,2.93,2.23,6.42,1.29,7.29-2.37.75-3.02.96-6.24,1.16-9.36.24-3.08,0-6.18.35-9.2.38-3.59,3.56-4.83,6.27-5.95,4.1-1.66,8.45-3.98,12.5-.52,2.63,2.15,5.06,4.94,6.73,7.85,3.14,5.59,3.98,11.82,2.24,17.87-2.05,7.24-3.72,14.66-9.62,20.4-4.56,4.45-8.06,9.94-12.04,15.03-.47.6-.97,1.15-1.56,1.7-4.39,3.77-8.97,7.29-13.16,11.22-4.06,3.9-7.69,8.32-11.75,12.22-2.17,2.02-4.84,3.49-7.44,5.07-3.25,1.93-6.61,3.63-9.95,5.56-6.6,3.94-13.1,8.11-20.98,9.14-3.61.49-7.17,1.33-10.76,1.74-5.24.6-12.39-4.11-14.27-9.19-.33-.92-.75-1.75-1-2.66-.56-2.3-1.71-4.37.67-6.71,1.59-1.56,2.29-4.15,3.04-6.38,1.7-4.7,5.33-6.15,9.88-6.83,3.21-.49,6.45-1.55,9.56-2.67.65-.27,1.46-1.93,1.24-2.7-.93-4.27-.12-7.81,3.6-10.34,4.06-2.8,8.65-3.13,12.76-.88,7.29,3.89,10.09.59,14.04-4.24,1.07-1.23,2.1-2.51,3.12-3.79-1.68-.24-3.58-.08-4.93-.9-2.25-1.36-4.73-2.93-6.1-5.06-1.82-2.71-2.6-6.09-3.78-9.39M127.64,87.39c-1.31-4.45-5.45-6.83-9.61-5.35-1.51.56-2.92,1.36-4.43,1.92-3.71,1.35-5.49,3.77-4.61,7.46,1.06,4.33.65,8.49.02,12.66-1.26,7.95-7.34,9.77-12.91,5.77-2.79-1.95-5.35-4.32-8.18-6.32-5.71-3.88-13.95-3.11-18.41,1.96-2.33,2.61-1.95,6.07-.88,9.22.97,2.92,2.45,5.5,6.22,5.82,4.2.37,7.74,3.07,8.06,6.57.28,3.54-.57,6.94-3.19,9.87-5.06,5.7-9.03,10-18.46,5.28-5.65-2.91-13.75,1.42-11.47,8.4.62,1.78.04,3.73-1.95,4.58-3.32,1.36-6.63,3.11-10.15,3.6-4.18.55-7.96,1.72-10.31,4.9-1.67,2.25-2.6,5.65-2.51,8.55.1,2.82,5.97,6.1,9.05,5.64,4.87-.78,9.84-1.32,14.5-2.95,4.94-1.77,9.53-4.6,14.21-7.11,4.12-2.22,7.97-5.09,12.22-6.95,4.12-1.83,7.11-4.89,10.29-7.7,4.47-4.06,8.36-8.77,12.72-12.98,2.47-2.33,5.68-3.92,7.9-6.37,4.63-5.36,8.74-11.18,13.32-16.58,7.16-8.6,11.14-18.07,8.56-29.9"/>
      <path d="M300.85,243.63c-1.39,2.81-2.24,5.91-4.15,7.96-3.95,4.13-8.26,7.9-14.14,9.48-5.42,1.37-9.3-1.68-13.42-3.84-4.82-2.55-7.62-7-9.48-11.95-2.43-6.77.52-16.84,6.13-21.25,6.95-5.39,14.74-6.82,22.92-3.79,2.52.91,4.85,3.38,6.46,5.72,2.15,3.24,3.86,6.9,5.21,10.61.76,2.06.38,4.56.47,7.06M265.16,241.33c.15,3.17,1.14,5.83,3.35,8.24,3.64,4.03,10.21,6.21,14.39,3.86,3.61-1.98,7.09-4.32,10.09-7.07,5.13-4.82,4.07-13.92-1.67-17.54-.9-.55-2.42-.29-3.04-.98-2.82-3.18-6.4-2.56-9.88-2.01-6.03.99-11.66,7.45-13.24,15.5"/>
      <path d="M28.56,93.73c1.46,3.15,2.93,5.91,3.84,8.95.93,3.18.68,6.43-.54,9.66-2.04,5.36-5.27,9.62-11.02,10.86-9.34,1.95-14.7-1.97-19.32-9.45-1.43-2.32-.51-6.02-1.25-8.95-1.03-4.2,1.19-7.04,3.22-10.13,2.72-4.1,7.33-4.2,11.29-4.34,4.62-.19,9.55,0,13.78,3.4M13.33,94.76c-8.18,1.04-9.14,7.58-8.48,13.79.56,4.88,3.6,7.26,7.3,9.28,3.38,1.8,11,1.05,12.39-1.45,2.84-5.05,5.54-10.07,1.56-16.02-1.41-2.1-1.84-5.12-4.95-5.5-2.47-.25-4.9-.06-7.83-.1"/>
      <path d="M160.5,74.46c-4.09,3.85-8.5,5.51-13.38,2.78-4.96-2.83-6.15-7.92-6.11-13.04.04-5.82,3.39-9.71,8.18-10.58,5.78-1.11,10.67,3.03,13.12,7.52,2.51,4.68,1.67,9.09-1.81,13.32M156.07,69.33c1.78-2.11-.65-3.01-1.43-4.2-1.32-2.17-3.6-2.88-5.38-1.17-1.47,1.31-2.76,3.66-2.67,5.46.07,1.98,3.42,2.86,5.95,1.89,1.01-.4,2.05-1.07,3.52-1.99"/>
      <path d="M146.05,360.46c3.15,1.82,6.56,2.67,8.46,5.78,2.83,4.5,4.18,15.96-2.24,19.83-.85.51-1.71,1.11-2.6,1.27-11.19,1.99-18.77-6.05-18.19-16.36.16-2.08.34-4.34,1.21-6.12,2.15-4.43,6.57-4.08,10.56-4.48.85-.12,1.77-.14,2.79.07M145.95,366.8c-4-1.7-8.68.8-9.75,4.22-1.15,4.11.17,7.77,4.19,10,2.55,1.36,7.22,1.52,9.9-1.14,1.79-1.8,3.16-6.63,2.13-9.03-.24-.6-1.16-1.28-1.74-1.21-2.16.14-3.26-1.27-4.74-2.84"/>
      <path d="M70.52,13.78c-1.86-3.86-1.11-7.58.78-10.55,1.73-2.77,5-3.7,8.42-3.02,2.78.55,5.67.55,8.28,1.47,7.43,2.68,8.46,9.86,3.49,15.88-5.64,6.86-14.23,3.29-19.06-1.36-.67-.65-1.14-1.45-1.9-2.42M80.53,5.12c-1.95-.89-2.84.67-3.34,1.92-1.35,3.25-1.52,7.22,1.83,8.89,2.9,1.4,6.71-.12,7.98-3.38,1.53-4.02-.52-7.73-6.47-7.43"/>
      <path d="M81.22,67.18c3.57-3.12,7.35-1.79,10.8-.99,2.39.55,4.31,6.08,3.86,9.09-.17,1.07.03,2.32-.07,3.5-.43,5.42-6.84,10.31-10.86,8.78-2.52-.91-4.83-1.76-5.61-4.74-.92-3.66-3.04-7.15-1.45-10.99.68-1.63,2.02-3,3.31-4.64M83.61,74.69c-2.06,2.95,1.12,4.21,2.07,6.12,1.36-.76,3.22-1.28,3.93-2.46.59-.94.19-3.04-.57-4.01-1.33-1.69-3.27-1.57-5.43.36"/>
      <path d="M214,316.25c-7.37-4.3-9.21-10.52-6.11-17.02,2.52-5.35,10.45-6.11,14.57-2.86,1.88,1.49,3.43,2.78,2.8,5.55-.2.94.53,2.17.92,3.26,1.11,3.2.07,6.05-2.32,8.09-2.69,2.35-5.77,4.3-9.86,2.98M212.75,302.52c-2.37,1.47-1.9,3.45-.77,5.38.99,1.65,2.34,2.78,4.61,2.08,2.49-.71,4.79-1.97,5.31-4.49.39-1.79-.03-4.51-2.59-4.69-2-.15-4.04.83-6.55,1.71"/>
    </g>
  </g>
</svg>