<?xml version="1.0" encoding="UTF-8"?>
<svg id="Layer_2" xmlns="http://www.w3.org/2000/svg" viewBox="0 0 312.47 424.45">
  <g id="Layer_3">
    <g id="rainboot_x5F_1">
      <path d="M82.88,152.43c3.31-4.89,6.08-9.57,9.33-13.88,4.15-5.51,8.96-10.4,13.12-15.91,7.56-10.2,14.71-20.85,22.27-31.05,3.35-4.61,7.34-8.74,11.01-13.12.62-.66,1.52-1.36,1.5-2-.32-6.88,4.68-8.87,9.74-10.94,1.08-.44,2.08-1.44,2.81-2.39,6.16-7.51,12.23-15.07,18.39-22.58,3.59-4.43,7.66-8.5,10.87-13.1,1.61-2.3,2.35-5.61,2.32-8.39.05-3.72,1.27-6.18,4.84-6.75,4.18-.73,4.41-3.19,3.39-6.33-1.67-5.26-1.17-5.76,4.43-5.55,2.72.05,5.5-.49,8.22-.44,1.94.08,4.3.11,5.88,1.17,13.58,9.23,27.46,18.06,40.3,28.11,10.26,7.98,19.36,17.34,28.78,26.45,7.2,7.06,14.49,14.17,20.73,22.01,5.38,6.81,10.49,14.16,11.55,23.23.51,4.64-.69,6.24-5.05,5.21-5.86-1.53-7.99,3.62-8.65,6.5-1.35,6.12-4.5,8.63-9.67,11.5-5.63,3.15-9.9,8.82-14.53,13.47-5.27,5.17-10.4,10.32-15.52,15.6-1.62,1.66-2.85,3.61-4.29,5.53-1.75,2.32-2.95,5.41-5.26,6.81-6.95,3.9-11.02,9.98-15.16,16.63-6.7,10.72-14.81,20.65-21.83,31.13-7.02,10.48-14.11,21.05-20.05,32.09-1.53,2.86.18,7.9,1.41,11.58,4.33,14.03,8.52,28.08,13.73,41.77,6.04,16.07,15.89,29.76,31.03,38.41,9.07,5.08,16.77,11.14,19.57,21.38,1.53,5.78,1.77,12.1,1.18,18.04-.45,5.42,1.79,11.74-3,16.27-5.61,5.29-3.51,12.63-5.42,18.83-2.36,7.61-9,8.12-14.4,10.81-6.49,3.13-12.95,2.39-18.92-1.98-1.04-.78-2.76-1.33-3.94-1.09-9.12,1.64-14.83-4.41-21.2-9.09-3.03-2.29-5.77-4.47-10.23-4.7-6.96-.24-10.53-6.3-14.88-10.83-2.25-2.33-4.59-5.21-7.39-6.32-6.25-2.33-9.92-7.1-13.75-11.99-1.12-1.34-2.17-3.26-3.65-3.63-6.92-1.96-9.38-7.32-11.73-13.35-.66-1.62-2.61-3.35-4.39-3.81-7.36-2.04-12.49-6.53-17.15-12.3-2.65-3.13-6.61-5.85-10.58-7.22-4.14-1.49-6.23-4.19-7.64-7.64-1.49-3.5-3.87-5.17-7.3-6.76-5.73-2.69-8.64-8.14-10.67-13.92-.32-.74-.24-1.68-.41-2.44-1.73-5.68-1.71-5.54-6.83-2.4-3.62,2.15-7.21,2.58-11.24-.21-3.55-2.43-8.05-3.44-11.91-5.47-3.4-1.81-7.89-3.32-9.59-6.22-5.26-9.47-13.81-13.41-23.12-16.67-4.88-1.67-7.59-5.22-8.68-9.92-2.49-11.15-1.57-21.84,5.65-31.43.78-1.04.21-3.1.73-4.46.48-1.64,1.27-3.18,2.39-4.33,2.06-2.08,4.85-3.61,6.75-5.8,5.94-7.05,11.23-14.57,17.51-21.24,4.17-4.37,9.7-7.22,14.29-11.15,10.48-8.76,21.94-16.65,29.32-28.61,1.1-1.8,3.13-3.15,4.99-5.13M202.45,213.1c.78-1.04,2.34-2.11,2.27-3.17,0-5.64-.29-11.24-.94-16.86-.1-1.2-2.11-2.84-3.43-3.09-4.3-.61-8.72-1.06-13.08-1.09-13.04.19-22.52,8.95-33.49,14.2-5.75,2.81-10.64,7.64-16.7,9.7-11.29,4.01-22.75,4.77-31.81-5.81-5.66-6.77-11.79-13.27-10.55-23.22.63-5.16,1.4-10.34,1.11-15.44-.13-4.48-1.34-9.02-2.31-13.39-.42-1.94-1.39-2.3-2.84-.39-3.55,4.71-7.66,9-10.97,13.9-5.34,8.25-12.85,14.23-20.5,19.73-13.5,9.61-25.77,20.4-35.2,34.08-3.19,4.73-2.02,8,2.72,10.69,8.91,4.96,17.64,10.16,25.94,15.92,5.83,3.89,11.02,8.8,16.31,13.42,5.21,4.55,10.48,9.02,15.19,14.07,7.9,8.46,15.24,17.49,23.22,26.01,8.3,8.76,17.36,16.84,25.6,25.68,10.79,11.76,22.01,22.97,35.47,31.86,8.81,5.76,16.67,12.94,25.5,18.84,5.43,3.59,11.46,6.89,17.7,8.58,9.57,2.58,19.45,3.76,29.17,5.33,6.74,1.2,9.9-1.18,10.64-8.14.55-5.72-.11-11.48.6-17.08,1.4-9.84-3.28-16.75-10.21-22.34-5.97-4.87-12.8-8.77-19.01-13.32-9.7-7.06-15.16-17.43-19.66-28.08-6.67-15.42-12.81-31.19-18.39-47.04-2.98-8.51-3.96-17.51,3.64-24.93,2.89-2.83,7.25-5.8,7.64-9.14.43-4.56,3.83-5.75,6.38-9.47M134.51,95.54c-5.22,7.59-10.27,15.3-15.81,22.64-6.4,8.33-13.04,16.47-19.82,24.64-1.89,2.34-2.83,3.75.41,5.94,1.82,1.24,3.23,4.19,3.47,6.37.66,7.26,1.05,14.56.99,21.78s-1.59,14.58,4.27,20.75c6.6,6.85,11.09,12.37,23.64,8.17,3.68-1.23,6.67-4.36,10.19-6.22,7.83-4.24,16.58-7.04,23.27-13.27.62-.66,1.58-.94,2.48-1.13,7.7-1.58,15.21-3.57,22.93-4.51,11.84-1.59,24.05,4.47,22,17.83-.06.58.3,1.1.46,1.72.38-.34.92-.56,1.08-.94,2.99-4.63,5.68-9.37,8.75-13.94,3.97-5.77,7.79-11.66,12.26-16.93,3.19-3.73,3.45-4.91-.58-8.2-11.14-9.15-22.14-18.31-33.22-27.54-3.31-2.75-6.49-5.51-9.62-8.5-9.28-8.62-18.56-17.24-27.78-25.94-1.32-1.24-2.47-2.87-3.93-4.09-3.83-3.39-7.68-6.92-11.84-10.05-.8-.6-3.18-.27-3.92.55-3.27,3.17-6.06,6.71-9.68,10.86M272.6,102.56c-4.43-4.09-8.94-8.24-13.25-12.49-6.94-6.74-13.65-13.79-20.65-20.45-4.03-3.79-8.94-6.74-12.54-10.95-9.41-11.1-20.47-20.19-31.99-28.99-1.78-1.46-2.84-1.39-4.24.31-2.33,2.75-4.89,5.33-7.06,8.2-3.89,4.83-7.24,9.94-11.21,14.71-6.12,7.29-12.61,14.41-18.65,21.76-.74.82-.63,3.16,0,4,1.81,2.24,4.01,4.15,6.21,6.05,7.48,7.02,15.17,13.93,22.71,20.87,9.86,9.18,19.68,18.58,29.78,27.45,7.57,6.58,15.57,12.74,23.44,18.91,6.91,5.46,6.87,5.18,13.86-.45,3.03-2.35,7.87-3.96-.21-5.54-.44-.08-.86-.52-1.2-.9-4.83-4.39-9.68-8.92-14.51-13.31-3.45-3.23-7.47-5.88-10.46-9.38-1.89-2.3-3.31-5.75-3.28-8.61-.02-8.78,5.37-14.61,12.32-19.01,2.36-1.47,6.61-3.79,7.97-2.76,6.61,4.85,12.5,10.67,18.74,16,5.61,4.85,11.02,9.8,17.05,14.1,3.17,2.27,5.62-1.15,8.07-3.06,2.7-2.09,1.07-4.08-.21-5.54-3.07-3.57-6.54-6.93-10.68-10.92M245.43,397c-3.85,3.11-8.17,2.86-12.66,1.85-1.48-.36-2.96-.73-4.54-.79-20.16-1.17-36.82-10.46-52.31-22.64-8.6-6.86-17.57-13.24-26.29-19.94-3.03-2.29-5.91-4.95-8.58-7.72-7.74-7.84-15.26-15.63-23.01-23.47-7.86-8.18-16.06-16.24-24-24.47-11.37-11.83-22.13-24.31-34.18-35.4-8.44-7.74-18.61-13.52-28.11-20.18-3.65-2.63-7.99-4.52-11.2-7.57-2.38-2.17-2.88-1.17-3.84.61-.7,1.1-1.11,2.3-1.59,3.44-1.05,2.72-2.81,5.39-3.14,8.15-.57,4.58,2.62,7.49,5.88,9.81,12.18,8.93,24.52,17.48,36.56,26.42,3.43,2.59,5.99,3.51,8.96-.26.48-.64,2.2-1.1,2.96-.77,3.36,1.53,7.37,2.68,10.01,5.16,4.81,4.75,9.34,10.04,13.2,15.71,6.44,9.23,13.68,17.57,23.01,23.97,4.03,2.79,8.13,5.5,11.68,8.93,10.02,9.3,19.56,19.24,29.84,28.37,8.58,7.72,17.83,14.56,26.89,21.64,3.27,2.47,6.67,4.78,10.27,6.48,7.25,3.34,14.36,7.19,21.92,9.13,8.67,2.28,17.81,2.28,26.63,4.04,2.2.4,3.04.29,3.68-1.23,1.07-3.08,1.77-6.18,1.98-9.28M289.23,88.79c-9.26-8.98-18.26-18.14-27.72-27.02-8.8-8.26-17.92-16.26-27.11-24.18-7.39-6.32-15.07-12.23-22.58-18.39-2.89-2.31-6.41-4.45-8.06-7.58-2.93-5.59-3.46-.23-3.88.83-1.17,2.88-4.63,5.65-.86,9.12,2.36,2.03,4.51,4.15,6.67,6.28,6.84,7.04,13.63,14.15,20.59,21.03,3.23,3.19,6.91,5.96,10.2,9.06,10.64,9.64,21.28,19.29,31.77,28.95,4.67,4.27,9.14,8.64,13.79,12.77,3.01,2.65,6.27,4.97,9.64,7.14.48.36,2.46-.27,2.72-.95,1.53-2.86,4.29-6.53,3.48-8.77-1.15-3.12-5.15-5.13-8.66-8.28M233.3,102.37c-.98,1.14-1.81,2.4-2.89,3.33-6.45,4.91-6.72,8.08-.85,13.26.34.38.8.6,1.14.98,8.1,7.86,15.54,16.6,27.38,19,1.68.26,3.34,1.39,5.06-1.07,2.15-3.02,5.55-5.21,8.1-7.92.44-.42.33-2.26-.25-2.82-2.53-2.29-5.47-4.37-8.02-6.8-5.37-5.17-10.74-10.34-15.84-15.7-4.11-4.35-8.91-5.46-13.81-2.27"/>
    </g>
  </g>
</svg>