<?xml version="1.0" encoding="UTF-8"?>
<svg id="Layer_2" xmlns="http://www.w3.org/2000/svg" viewBox="0 0 202.19 305.16">
  <g id="Layer_3">
    <g id="carrot_x5F_1">
      <path d="M163.99,48.73c3.51,1.74,6.92,3.65,10.4,5.26,1.12.47,3.48.66,3.72.1.91-1.44,1.6-3.48,1.23-5.14-.99-4.05-2.58-7.9-3.71-11.92-.33-1.16.24-2.45.41-3.64,1.24.66,2.86,1.09,3.44,2.05,1.4,2.66,2.28,5.57,3.4,8.29.33.8.7,1.51,1,2.17.73-.6,1.55-1.15,1.98-1.83,1.31-1.89,2.42-4.03,3.82-5.87,1.26-1.81,2.54-3.84,5.28-1.99,2.74,1.85,3.1,4.08,1.14,6.63-1.34,1.75-2.94,3.35-4.28,5.1-.05.08.56,1.18.83,1.12,1.13-.11,2.29-.45,3.39-.7,3.36-.83,5.53.42,6.09,3.84.59,3.56-2.49,3.75-4.8,4.42-.88.27-1.94.08-2.8.13.49.9,1.26,1.74,1.57,2.76.78,2.14,1.33,4.27,1.97,6.44-2.26-.36-4.46-.8-6.75-1.3-.45-.04-.9-.45-1.32-.72l-5.58-3.52c-.22,2.23-.99,4.57-.47,6.56.91,4-.32,7.25-2.51,10.36-1.15,1.64-1.1,1.55,1.07,1.86,2.39.33,4.63,2.21,6.99,3.35-1.6,1.59-3.19,3.19-4.82,4.64-.54.49-1.25.86-1.88,1.3.62.51,1.14,1.19,1.87,1.53,2.64,1.43,5.45,2.61,8.18,4.09.68.43,1.09,1.28,1.6,1.96-.73.6-1.51,1.65-2.1,1.63-2.62-.35-5.19-1.15-7.7-1.67-1.31-.36-3.13-1.03-3.87-.43-2.18,1.58-.24,2.45,1.14,3.44,2.43,1.77,4.84,3.76,7.16,5.7.54.46,1.1,1.64.83,2.06-1.11,2.14-3.01,4.02-3.53,6.16-1.14,4.25-3.59,2.7-4.86.95-1.98-2.67-3.51-3.99-7.26-2.92-1.71.46-4.3-2-6.43-3.11.56-.71.96-1.52,1.64-2.04,3.42-3.17,6.44-6.46,4.48-11.6-.24-.74-.67-1.37-1.05-2.08-.6.57-1.41,1.12-1.89,1.88-1.42,2.06-3.2,6.38-3.95,6.26-3.24-.86-7.1-2.24-8.83-4.74-3.39-4.74-6.85-3.38-10.65-1.87-3.74,1.43-7.22,3.95-11.06,4.97-3.97,1.04-3.32,3.58-2.22,5.58,6.53,11.57,3.03,22.37-2.45,32.74-3.55,6.75-7.74,13.21-12.27,19.45-6.27,8.81-13.16,17.12-19.55,25.74-2.28,3.05-4.06,6.43-6.17,9.59-7.3,11-14.59,22.01-21.98,32.96-10.22,15.07-20.44,30.14-30.83,45.11-5.81,8.28-11.62,16.55-17.89,24.42-2.82,3.54-6.63,6.58-10.36,9.31-1.61,1.23-4.69,2-6.43,1.38-3.67-1.49-7.1-4.48-6.22-8.89,1.71-8.14,3.95-16.19,6.58-24.11,4.63-13.52,9.76-26.71,14.61-40.21,5.71-15.79,11.21-31.83,17.23-47.54,2.76-7.37,6.66-14.12,9.67-21.33,6.85-16.85,17.41-31.34,27.13-46.38,5.24-7.93,11.83-15,18.57-21.75,2.65-2.7,7.01-4.92,10.8-5.13,7.51-.47,12.62-2.2,13.26-10.9.38-4.73,1.96-9.29,2.92-14,.19-1.42.05-1.39-1.72-1.21-4.73.56-8.41-1.29-11.25-4.85-.63-.87-.97-2.03-1.41-3.02,1.2.16,2.31.27,3.51.44,1.42.19,2.7.4,3.98.62-.84-1.48-1.28-3.41-2.49-4.29-1.92-1.45-4.49-1.88-6.43-3.11-1.81-1.26-3.26-2.89-4.61-4.68-.4-.49,0-1.89.52-2.51.21-.34,1.58-.07,2.31.27,1.12.47,2.03,1.28,3.01,1.78.34.21.84.17,1.28.22.01-.58.25-1.14-.01-1.66-.41-.85-1.42-1.49-1.53-2.26-.05-2.16.25-4.33.39-6.61,2.34,1.36,5.16,2.31,6.71,4.35,1.2,1.47.69,4.34,1.05,6.58.12.55.66,1.01.93,1.53.46-.54.92-1.08,1.15-1.64,2.05-3.44,3.36-7.58,6.07-10,2.31-1.97,6.39-1.88,9.56-2.6,1.33-.23,2.63-.23,3.87-.51,1.85-.49,3.69-.98,5.54-1.47-1.95-1.23-3.73-2.71-5.72-3.49-4.29-1.64-8.41-3.53-10.11-8.15-.42-1.21-.04-2.75,0-4.13,1.28.22,2.64.13,3.71.68,2.98,1.65,5.81,3.9,8.85,5.46,1.29.58,3.08.17,4.61.19-.45-1.35-.62-2.76-1.4-3.96-2.17-3.5-4.8-6.82-6.84-10.34-.73-1.29-.3-3.27-.37-4.85,1.63.79,3.61,1.21,4.83,2.46,1.79,1.84,2.94,4.34,4.49,6.38.72.93,2.06,1.42,3.02,2.14.28-1.01.73-1.9.92-2.96.39-2.12.47-4.31.95-6.38.33-1.09,1.33-2.11,1.97-3.13.72.93,1.71,1.79,2.24,2.83.44.99.72,2.23.83,3.36.19,4.38,1.03,7.74,6.54,8.38,1.56.16,2.69,4.18,4.07,6.47-.52.26-.93.72-1.37.67-1.03-.06-2.1-.61-3.18-.59-2.52.06-5.07.35-7.7.58,2.44,1.19,4.78,2.54,7.19,3.59.65.29,1.8-.05,2.26.36,1.52,1.9,2.85,3.92,4.23,5.86-1.83-.09-3.67-.19-5.58-.33-.58-.01-1.17-.39-1.84-.45-1.5-.24-3.06-.39-4.7-.6,1.15,1.55,2.09,3.8,3.69,4.46,3.79,1.68,7.97,2.55,11.87,4.06,1.51.6,2.77,1.98,4.15,2.98-1.24,1.58-2.24,3.55-3.79,4.7-1.28,1.09-3.24,1.39-5.19,2.04-.57.35-.73.6-.89.85.33-.15.57-.35.9-.49M16.51,273.12c-2.36,5.61-4.9,11.33-7.09,17.05-.55,1.43,0,3.19.01,4.85,1.37-.67,2.91-1.24,4.08-2.16.84-.77,1.23-1.95,1.87-2.96,3.26-5.16,6.37-10.29,9.8-15.34,3.39-5.19,6.96-10.27,10.72-15.11,3.73-4.98,6.58-9.68.38-14.66-.25-.16-.81-.4-.79-.62-.03-1.08.11-2.06.14-3.22.92.23,1.97.06,2.79.46,1.29.58,2.32,1.94,3.44,2.05,1.97.06,4.94.04,5.69-1.14,6.19-8.51,11.85-17.47,17.96-26.03,2.76-3.81.37-5.09-2.44-6.62-5.07-2.84-10.32-5.57-15.23-8.66-1.01-.64-.96-2.97-1.44-4.46,1.34.13,2.85-.21,4.01.4,5,2.57,9.98,5.35,14.91,8.23,3.41,1.91,6.06,2.76,8.39-1.68,1.61-3.12,4.13-5.79,6.42-8.48,2.45-2.95,2.31-5.16-1.16-7.35-4.23-2.67-8.19-5.76-12.15-8.85-.88-.67-1.19-2.05-1.8-3.15,1.19-.2,2.4-.62,3.51-.5,1.28.22,2.76.68,3.95,1.43,3.86,2.32,7.56,4.89,11.39,7.07,1.15.61,3.68.91,4.11.23,1.43-1.7,1.76-3.73-.91-5.3-2.25-1.3-4.05-3.14-5.89-4.9-.49-.54-.47-2.07-.01-2.61.32-.51,1.87-.71,2.51-.42,2.05,1.06,3.87,2.68,5.97,3.65,1.34.49,3.88.79,4.49,0,5.94-7.72,11.62-15.61,17.22-23.54.51-.62.07-2.55-.63-3.12-4.34-3.8-9.03-7.24-13.37-11.04-1.65-1.51-2.84-3.56-4.08-5.53-.23-.38.68-1.46,1.11-2.14,5.01,2.93,10.48,5.31,14.74,9.06,5.56,5.05,8.46,5.34,12.18-.94,2.42-4.03,5.43-8.04,6.46-12.48,1.25-5.36,2.04-11.48.53-16.58-4-13.52-14.92-14.02-25.5-8.88-5.86,2.92-5.79,9-.3,12.46,1.78,1.12,3.93,2.01,5.36,3.5.94.95.66,2.9.91,4.36-1.33.23-3.11.99-4.04.41-3.01-1.78-5.9-3.96-8.4-6.36-2.5-2.41-4.84-1.52-6.37.35-4.87,6.03-9.32,12.33-14.16,18.5-2.07,2.72-.8,3.52,1.84,4.59,2.21.8,4.2,2.53,5.96,4.23.49.54.32,2.68-.19,3.31-.65.65-2.43.48-3.47.06-1.68-.71-3.1-1.84-4.7-2.85-1.78-1.12-3.4-2.86-5.3-.03-1.85,2.74.04,3.69,1.93,5,3.28,2.3,6.69,4.58,9.56,7.33,1.02,1,.83,3.36,1.21,5.02-1.61-.07-3.14-.09-4.64-.33-.53-.1-.8-.98-1.31-1.3-3.84-2.54-7.67-5.08-11.37-7.65-1.43,2.64-2.86,5.29-4.3,7.93-.24.56-.69,1.1-1.07,1.69-3.25,7.41-6.59,14.76-9.68,22.27-3.01,7.21-5.85,14.52-8.61,21.88-.49,1.34-.19,3.67.7,4.7,1.55,2.04,3.99,3.23,5.7,5.02,1.09,1.28,1.55,2.99,2.25,4.49-1.7-.12-3.41-.03-5.03-.46-1.31-.36-2.51-1.46-3.72-2.35-2.52-1.82-3.62-2.88-4.98,1.71-3.54,12.55-8.23,24.84-12.55,37.13-2.15,6.21-4.6,12.35-7.5,19.39M130.77,50.79c-2.02,1.33-4.12,2.6-6.03,4.12-.68.52-.71,1.68-1.07,2.63.92.23,1.97,1,2.63.71,3.51-1.81,7.84-2.86,8.95-7.24.94-3.55,1.14-7.44,1.61-11.17-2.74.4-5.47.8-8.13,1.26-.41.09-.86.05-1.02.3-1.44,1.34-2.84,2.82-4.33,4.24,1.27.8,2.59,1.52,3.86,2.32,1.24.66,2.28,1.44,3.54,2.82M164.1,63.55c1.19-1.14,2.01-2.63,3.33-3.22,4.11-2.02,1.17-3.16-.48-3.73-1.09-.33-2.71.54-3.85,1.23-2.3,1.39-4.25,2.99-6.38,4.49-2.13,1.5-4.42,2.89-6.38,4.49-.79.69-1,1.97-1.42,3,1.03.06,2.34.41,3.19,0,3.83-1.96,7.55-4.1,11.99-6.27M138.81,67.1c.53.1,1.26.44,1.31.36,1.65-2.62,4.34-5.19,4.71-8.03.34-2.98-1.68-6.14-2.64-9.12-.35.37-1.01.66-1.05,1.11-.85,4.9-1.66,9.95-2.32,15.68M138.04,86.12c-.55,1.43-1.09,2.86-1.72,4.23,1.43-.4,2.98-.6,4.35-1.27,3.21-1.52,6.38-3.18,9.28-5.14.87-.63.93-2.6,1.29-3.92-1,.08-2.14-.17-2.99.24-3.23,1.75-6.31,3.82-10.2,5.86M176.48,70.17c.29-1.59.59-3.18.88-4.77-1.08.03-2.75-.32-3.27.3-1.64,2.04-3.14,4.41-4.1,6.87-.34.73,1.17,2.27,1.89,3.56.7-.74,1.57-1.37,2.25-2.25.67-.88,1.23-1.95,2.35-3.72M147.18,30.4c-3.42,6.36-3.26,7.05,2.82,10.53.85.53,1.9.73,2.91,1.01-.3-1.02-.5-2.21-.89-3.28-1.29-2.83-2.72-5.62-4.84-8.26M143.47,42.84c-.24.56-1.1,1.55-.93,1.66,2.28,2.38,4.56,4.77,7.19,6.78.62.51,2.22-.14,3.35-.25-.53-1.04-.7-2.45-1.58-3.12-2.26-1.66-4.74-2.99-8.03-5.07M163.37,73.14c-1.4.53-3,.82-4.17,1.74-1.5,1.06-2.54,2.53-3.76,3.9,2.35,2.08,4.92,1.57,6.79-.45,1.14-1.06,1.34-3.06,1.15-5.19M126.58,77.12c1.28-1.09,3.11-1.94,3.75-3.31.95-1.88.95-4.13,1.43-6.19-.45-.04-1.06-.2-1.17-.03-1.01,1.61-2.03,3.21-2.73,4.9-.66,1.24-.93,2.6-1.27,4.64M165.49,85.71c-.06-.28-.21-.61-.33-.8-1.38,1.26-2.77,2.51-3.87,4.06-.24.2,1.01,1.58,1.56,2.4.78-1.05,1.56-2.09,2.3-3.28.32-.51.33-1.09.33-2.39"/>
      <path d="M101.44,53.81c-.95-.36-1.58-.88-2.11-1.33.11-.17.4-.45.4-.45.71.56,1.42,1.13,1.71,1.79"/>
      <path d="M100.87,124.98c.95.36,1.49.82,2.11,1.33-.19.12-.54.49-.49.4-.62-.51-1.33-1.08-1.63-1.73"/>
    </g>
  </g>
</svg>