<?xml version="1.0" encoding="UTF-8"?>
<svg id="Layer_2" xmlns="http://www.w3.org/2000/svg" viewBox="0 0 507.96 322.6">
  <g id="Layer_3">
    <g id="Wateringcan_x5F_1">
      <path d="M506.1,148.5c-3.8-11.3-9-21.8-16.9-31-9.9-11.5-20.5-21.9-35.8-25.7-7.6-1.9-15.2-4.2-22.9-4.8-6.8-.6-13.8-3-20.8.6-6,3-12.5,5.7-19.1,6.9-8,1.4-11.3,6.2-13.8,12.9-3.5,9.1-1.8,18.3,1.4,26.8,2,5.4.3,8.1-3.2,10.7-4,3-8.3,5.7-12.8,7.8-7.1,3.3-14.5,6-21.7,9.1-2.3,1-4.1,2.9-6.4,3.9-10.1,4.1-20.8,7.2-30.4,12.3-10.5,5.5-21.6,9-32.7,12.7-1.7.5-3.8.5-3.2-2.6,1.2-6.8,1.9-13.8,3.7-20.4,2.1-7.6,5.7-14.7,7.9-22.2,1.5-5.2-.6-13.9-6.4-17.9-6-4.2-10.8-9.5-13.5-17-3.1-8.4-2.2-17.2-4.7-25.5-2.4-7.7-3.8-15.9-7.4-22.9-5-9.7-10.8-19.3-17.9-27.5-6.3-7.4-14.2-13.8-22.5-18.7-7.8-4.5-16.6-7.5-25.9-8.7-12.3-1.5-24.4-4.9-36.7-6.4-10-1.2-20.1-.8-30.4-.9-13.9,1.4-27.3,2.7-40.3,8.5-9.9,4.3-17.1,11-21.7,20-7.9,15.1-12.3,31.6-14.1,48.6-1.7,15-3.5,30.1-3.9,45.2-.3,12.8.9,25.8,1.9,38.6.5,5.7,1.9,11.5,3.7,17,2.4,7.2,1.7,13.9-2.5,19.9-11.1,15.7-17,33.2-17.2,52.3-.1,10.1,2.1,19.7,10.5,26.8,11.5,9.8,23.3,18.7,37.7,23.9,9.4,3.4,18.3,8.7,28,10.6,12.4,2.4,25.4,3,38.2,3.2,12.2.1,24.4-.9,36.6-2,7.1-.6,14.1-2.2,21.1-3.7,8.3-1.7,16.4-4.5,24.7-5.3,5.7-.5,8.9-3.6,11.7-7.2,4.6-5.8,8.2-12.3,12.6-18.2,8.4-11.4,17.5-22.3,25.6-34,3.8-5.6,9.4-8.5,14.8-11.3,8.8-4.5,18.4-7.2,27.2-11.6,18.7-9.5,38.6-16.3,58.2-23.6,7.1-2.6,14.8-4.3,21.1-8.2,12-7.4,24.4-8.5,36.9-3.5,12.4,4.9,25.4,5.4,38.1,5.3,10.2,0,20.6-2.7,30-8.4,13.2-8.1,18.1-19.7,13.2-34.4ZM414.5,97.6c9.6-2.7,18.7-1.2,27.9,1.1,3.1.8,6.3,1.1,9.4,1.5,6.1.9,10.1,5.5,15,8.5,9.1,5.7,15.8,13.9,22.6,22.1,7.5,9,1.1,25.9-11.4,27.9-14.6,2.2-29.1,1-42.8-4.4-7-2.7-13.2-7.6-19.4-12.2-6.8-5.1-12.3-11.5-16.2-19.1-.8-1.5-1.2-3.2-1.8-4.8-1.9-10.7,8.6-18.2,16.7-20.6ZM239.9,265.1c-6.7,4.1-9.8,11.1-14.3,17-4.7,6-8.9,13.2-17.6,14.9-2.7.6-5.5,1.3-8.3,1.7-5.5.8-11.1,1.4-16.6,2-11.5,1.4-23,3.2-34.6,3.9-7.9.5-16-.4-24-.9-4.8-.4-9.5-1.3-14.2-2-6.8-1-12.6-1.5-18.2-3.1-14.6-4-29.1-9-41.8-17.2-6.9-4.5-13.1-10.7-18.3-17.1-5.6-6.9-3.5-15.5-1.7-23.5,1.6-7.3,3.8-14.4,5.4-21.7.9-3.5,2.7-4,5-1.9,13.1,12.1,29.6,16.8,46.1,21.6,9.6,2.8,18.8,7.1,28.4,9.8,9.2,2.6,18.6,4.1,28,6.1,10.5,2.3,21,5.1,31.6,6.9,7.9,1.3,16.1,1.7,24.1,2.1,10.3.5,20.5.8,30.8,1,3.2,0,6.4-.6,9.6-.9.4-.1.9.2,1.3.3-.2.3-.4.8-.7,1ZM500,164.2c-5.9,6.7-13.2,12.3-21.4,14.7-6.5,1.9-13.6,4-21,2-5.3-1.4-11.2-.3-16.7-1.3-6.5-1.3-12.8-3.7-19.2-5.4-8-2.1-16-4.2-24.2-.6-6.3,2.7-12.5,5.3-18.8,7.7-10.9,4.2-22,8.2-32.9,12.5-8.8,3.5-17.6,7.2-26.4,10.9-12.5,5.3-24.7,11.4-37.5,15.8-12,4.3-20.9,11.9-28.1,21.9-2.2,3.1-4,6.5-6.6,9.2-1.4,1.4-4.1,2.1-6.1,2-7-.3-14.1-1.4-21.2-1.8-6.3-.3-12.7,0-19.1-.1-9.3,0-18.3-1.5-27.5-3.6-14.3-3.3-28.9-4.9-43.4-7.4-3.2-.6-6.3-1.7-9.4-2.8-13.7-4.6-27.2-10.2-41.2-13.8-10.7-2.8-19.7-8.1-29.1-13.3-4.3-2.4-5.7-5.2-3.4-9.7,4.7-9.2,2.8-18.5.9-27.9-.6-3.2-1.7-6.5-1.8-9.7-.8-16.6-2.1-33.1-1.9-49.7.2-10.6,2.2-21.3,3.9-31.8,2-12.4,2.9-25.4,7.4-36.9,4.6-11.9,9.9-24.3,24.1-29.8,10.1-4,20.1-6.6,30.8-7.7,14.7-1.6,29.1-.9,43.4,2.1,12.4,2.7,25,4.7,37.1,8.2,12.5,3.6,22.7,11.4,30.1,22.3,5.4,8.1,11.4,15.9,15.8,24.5,4.8,9.4,9.1,19.6,8,30.5-.7,7.3,3.9,12.2,5.7,18.3,2.4,8.1,8.2,14.1,14.8,19.4,2,1.6,3.7,5.3,3.3,7.8-.3,1.6-4.2,3.6-6.7,3.9-12,1.6-24.2,3-36.3,4.1-8.8.7-17.6.6-26.4,1.1-16.2.8-31.8-2.8-47.3-7.1-15.2-4.1-30.7-7.5-44.7-15-3.9-2-7.4-4.6-11.3-6.5-4.5-2.2-3.6-5-1.6-8.3,1.8-2.7,3.5-5.5,5.3-8.3.5-.6,1.1-1.2,1.6-1.9.6.7,1.5,1.4,1.8,2.2,4.3,15,14.9,23.5,29.6,26.7,13.3,2.9,26.4,1.3,39.1-4.7,6.1-2.9,11.6-6.1,16.7-10.7,1.8-1.6,5.9-1.8,8.7-1.3,8.7,1.3,17.3,3.1,26,4.9,1.6.3,3,1.6,4.6,2,1.9.5,4.1.9,6,.5.7-.2,1.3-2.8,1.2-4.3-.8-10.4-1.1-21-3.1-31.2-4.5-22.9-18.4-39.8-37.2-52.6-5.4-3.7-12.7-4.7-19.2-6.5-8.9-2.5-17.7-5.5-26.7-6.7-9.2-1.4-18.7-1.7-28-1.1-11.6.8-23.3,2.4-33.6,8-4.2,2.3-7.4,6.5-10.8,10.1-5.8,6.3-9.7,14-11.8,22-2.5,9.5-3.6,19.4-4.3,29.2-.8,9.6-.5,19.3-.1,29,.3,8.2,1.4,16.4,1.9,24.7.5,8.2-.1,16.6,1.4,24.7.6,3.1,5,6.3,8.4,8,7.7,3.8,15.6,7.3,23.8,10,9,2.9,18.4,4.7,27.5,7.2,7.4,2,14.6,4.3,21.9,6.4,4.3,1.2,8.7,2.3,13.2,3.1,5.3,1,10.6,1.6,16,2.4,8.1,1.3,16.2,2.7,24.3,4,1,.2,2,0,3,0,15.8-1.3,30.6-2.6,45.3-4,2.5-.3,4.9-1.1,7.2-2,4.29-1.61,8.64-1.58,12.99-1.28,10.76-5.4,22.01-9.91,33.78-12.19.83-.16,1.59-.12,2.28.05,9.09-3.36,18.13-6.84,27.1-10.49,4.62-2.21,9.23-4.42,13.85-6.59,8-3.6,16.5-6.4,24.1-10.7,6-3.4,11.3-8.3,16.4-13.1,1.5-1.3,1.8-4.7,1.6-7-.8-8.7-2.1-17.4-3-26.2-.2-1.2.1-2.6.7-3.7,1.5-2.9,3.2-5.7,4.9-8.6,0,3.2-.6,6.6,0,9.7,1.3,5.9,2.5,12,5.2,17.3,9.6,18.6,25.6,29.4,44.9,36.2,12,4.2,24.3,4.9,36.8,4.6,8.3-.2,14.9-4.8,20.7-10.1,2-1.9,1.8-6.1,2.7-9.3.2-.5.4-.9.6-1.4.4.3.8.6,1.1,1,1.9,2.6,1.9,10.5-.5,13.3ZM102.9,175.6c-5.3-1.5-10.2-4.3-15.3-6.5-1.5-.7-3.1-1.2-4.7-1.8q-7.9-2.6-5.6-10.6c3.2-7.7,6.2-14.8,8.4-22.2,1.1-3.8,3.2-3.6,5.7-2.5,3.1,1.3,6.1,3.1,9,4.8,12.4,7.3,26.2,10.8,39.8,14.9,11.5,3.4,23,7,34.8,8.7,9.5,1.5,19.5.2,29.3.4,15.7.2,31.1-1.5,46.4-5.1,5.2-1.2,10.5-2.7,15.7-4.1.4-.1.7-.4,1.1-.7,0,.6.1,1.2-.1,1.7-2.2,6.3-4.8,12.4-6.6,18.8-1.2,4.5-1.6,9.4-1.9,14.2-.4,5.2-2.3,6.7-7.5,7.2-11.4,1.1-22.8,2.9-34.3,3.8-5.8.5-11.8-.1-17.6-.8-7.4-.7-14.8-2.5-22.2-3-13.3-.9-26-3.8-38.7-7.9-11.7-3.8-23.9-5.9-35.7-9.3ZM104.8,182.2c-.5.2-.6-.1-.6-.4.2.2.4.3.6.4ZM72.9,75.2c.1-12,3.9-22.8,11.9-32,3.9-6.5,9.3-9.2,15.7-11.7,12.2-4.7,24.9-4.5,37.5-4.6,14.7-.1,28.4,5.1,42.4,9.6,9.1,2.9,16.7,7.8,22.9,14.5,8.9,9.6,15.9,20.5,17.6,34.1.9,7.5,2.7,14.9,3.7,22.4.1.9-2.3,3.1-3.4,3.1-5.7-.4-11.4-1.2-17.1-2.1-6.4-1-13-1.9-18.2-6.7-1.2-1-3.7-1.1-5.5-1-8.9.2-17.1-2.4-25-6-7.6-3.4-15.6-5.4-23.9-5-8.3.5-16.5-1.7-24.8.8s-14.2,6.8-19.1,14.3c-7.4,11-9.9,23.3-12.8,35.7-.2.7-.4,1.4-.6,2-.5-.6-1.2-1.2-1.3-1.9-.3-1.1-.1-2.3-.1-3.5,0-20.7-.2-41.3.1-62Z"/>
      <path d="M0,322c.3,0,.4.3.4.6-.2-.1-.4-.2-.4-.6"/>
      <path d="M472.8,135.7c-.5-4,2.4-3.6,3.6-2.6,1.9,1.6,3,4.2,4.4,6.4-1.2.7-2.3,2-3.6,2.1-3.8.4-4-2.6-4.4-5.9"/>
      <path d="M433,113.5c-.7-.7-1.4-1.1-1.6-1.7-.6-2.5-1-5.1-1.4-7.7,0-.1,1.1-.5,1.3-.3,2.2,2,5.2,3.7,6.3,6.2,1.4,3.3-1.5,4-4.6,3.5"/>
      <path d="M458.5,123.5c-4.4,0-7.5-4.7-5.6-8,.3-.5,1.9-1,2.4-.7,1.6,1.1,3.5,2.4,4.3,4,.6,1-.5,2.9-1.1,4.7"/>
      <path d="M419,113c-1.3.4-3.2,1.1-3.5.8-1.4-2.4-2.5-4.9-3.5-7.5,0-.1,2-1.6,2.4-1.3,2.9,1.7,6.2,3.3,4.6,8"/>
      <path d="M422.8,129.73c-1.3-1.1-2.6-2.1-2.9-3.3-.6-2.1-.6-4.3-.9-6.4,1.7,1.1,3.8,1.9,4.7,3.4,1.1,1.8,1.1,4.2,1.6,6.3h-2.18"/>
      <path d="M457.8,145.7c-.3-1.5-.9-2.5-.9-3.5-.1-.7.5-1.5,1-1.9.2-.2,1.2.4,1.7.8,1.4,1.1,3.2,2.1,4.1,3.6.7,1.4.3,3.3.4,5-1.6-.7-3.3-1.3-4.9-2.1-.6-.3-.9-.9-1.4-1.9"/>
      <path d="M441.8,129.7c2.1,1.3,4.2,2.3,5.2,4,.7,1-.1,3-.3,4.6-1.6-.4-4.3-.4-4.7-1.3-.8-2.2-.5-4.8-.2-7.3"/>
    </g>
  </g>
</svg>