<?xml version="1.0" encoding="UTF-8"?>
<svg id="Layer_2" xmlns="http://www.w3.org/2000/svg" viewBox="0 0 38.96 36.17">
  <defs>
    <style>
      .cls-1 {
        fill: #fff;
      }
    </style>
  </defs>
  <g id="Layer_1-2" data-name="Layer_1">
    <g>
      <path d="M16.78,19.35c-2.15,0-3.74.12-5.31-.02-3.6-.33-6.81-1.61-9.32-4.35-3.25-3.54-2.83-6.11,1.38-8.28.71-.37,1.45-.65,2.39-1.06.16-.83.25-1.77.52-2.66C7.2.45,9.2-.63,11.62.37c1.13.47,2.31,1.26,3.02,2.24,1.3,1.79,2.39,3.76,3.35,5.76.75,1.56,1.19,3.28,1.87,5.24,3.46-.43,6.71.82,9.98,2.03,3.31,1.22,5.64,3.66,7.64,6.33,1.7,2.28,1.85,5.05.88,7.78-.27.75-.65,1.46-1.04,2.15-2.15,3.82-6.17,5.27-10.17,3.56-2.06-.88-3.84-2.18-5.3-3.99-2.77-3.43-4.63-7.23-5.08-12.12ZM27.25,21.99c-.25.73-.59,1.29-.59,1.85,0,.72.06,1.72.51,2.1.92.77,2.07,1.34,3.22,1.73.83.28,1.46-.33,1.69-1.21.46-1.83.16-3.52-1.37-4.68-1.24-.94-2.63-1.77-4.07-2.31-.87-.33-1.99-.01-3,.01-.04.2-.09.4-.13.6,1.19.61,2.38,1.21,3.75,1.91Z"/>
      <path class="cls-1" d="M27.25,21.99c-1.36-.69-2.56-1.3-3.75-1.91.04-.2.09-.4.13-.6,1.01-.03,2.12-.34,3-.01,1.45.54,2.83,1.38,4.07,2.31,1.54,1.16,1.83,2.85,1.37,4.68-.22.88-.86,1.49-1.69,1.21-1.15-.39-2.3-.96-3.22-1.73-.45-.38-.51-1.38-.51-2.1,0-.56.34-1.13.59-1.85Z"/>
    </g>
  </g>
</svg>