<?xml version="1.0" encoding="UTF-8"?>
<svg id="Layer_2" xmlns="http://www.w3.org/2000/svg" viewBox="0 0 191.86 234.78">
  <g id="Layer_3">
    <g id="strawberry_x5F_2">
      <path d="M160.81,44.4c3.5,4.2,6.7,8.2,10,12.1,11.4,13.2,14.5,29.7,18.1,46,1.4,5.8,2.8,11.8,2.9,17.7.3,8.7-.9,17.5-.7,26.2.3,18.1-4.8,35-12.3,50.9-3.9,8.2-9.2,16.1-15.4,22.6-8.3,8.6-18.8,13.2-31.4,14.6-17.3,1.9-30.4-6.1-44.1-13.8-6.2-3.5-13.1-5.7-19.1-9.4-6.2-3.9-12.2-8.4-17.4-13.5-5.9-5.8-10.7-12.9-16.4-19-10.5-11.4-18.9-24-26.3-37.6C.81,126.7-.79,111.7.31,96.3c.6-7.6,5-14.9,7.3-22.4.6-1.7.7-4.4-.2-5.7C.21,58.2.21,54.9,8.01,45.7c9.8-11.6,22.2-18.3,37.7-17.4,6.7.4,13.4,2.8,20.2,4.2,1.6.3,3.3.2,5,.2-.5-1.2-1.1-2.4-1.6-3.7-2.1-5.8-4.5-11.5-6.1-17.5-.5-1.8,1-4.7,2.4-6.3,7.9-8.8,20.8-6,24.4,5.2.8,2.3,1.7,4.6,2.7,6.9,2.4,5.8,6.6,5.2,14.3,1.3,4.7-2.4,9-5.9,13.9-7.6,10.7-3.8,21.3-2.1,31.6,2.1,4.6,1.9,6.4,6.7,5.6,12.4-.6,4.2-2,8.4-1.8,12.6,0,2.1,2.7,4,4.5,6.3M165.01,202.7c4.5-3.9,5.9-9.5,8-14.7,5.2-13.1,9.2-26.5,9-40.8-.1-7.3,0-14.6,0-22,0-3.5.6-7.1-.1-10.4-2-9.8-4.6-19.5-6.9-29.2-3.4-14.2-11.2-26.1-21-36.7-.8-.9-3.4-1.2-4.7-.6-5,2.3-9.8,5.3-14.8,7.8-2.5,1.2-2.5,1.8,0,3.1,3.3,1.8,6.4,3.9,9.5,6,7.2,4.7,10.2,11.9,9.9,20-.6,12.2-11.7,21.5-23.9,22.1-10.7.5-19.9-2.6-28.3-8.9-4.6-3.5-4.7-3.3-6.7,2-1.3,3.7-2.5,7.4-4.1,10.9-1.3,2.9-2.8,6-5,8.3-7.6,8.2-17.5,9.7-27.9,8.4-8.4-1-15.4-7.2-15.8-14-.4-5.9.6-11.9,1.4-17.9.9-7.3,3.3-14.1,7.3-20.4.6-.9.5-2.3.7-3.4-.9,0-2.1-.5-2.9-.1-7.9,3.8-16.4,2.9-24.7,3-5.8,0-10.5,4-12.1,9.3-3.5,11.6-2.8,23.2-.9,34.9.3,2,.3,4.2.9,6.1,6.1,18.8,17.3,34.4,30,49.1,5.4,6.1,10.4,12.5,16.3,18.1,6.4,5.9,13.2,11.8,20.7,16.3,9.6,5.6,20.3,9.1,29.8,14.7,9,5.3,18.1,5.5,27.4,3.6,9.5-1.8,16.8-8.1,23.2-15.1,2.3-2.4,3.8-5.7,5.7-9.5"/>
      <path d="M65.01,171.2c-2.8-2.7-5.3-5.2-7.4-8.1-.8-1.1-.5-2.9-.7-4.4,2,0,4.9-.9,5.9.1,3.4,3.2,6.2,7.2,9.2,10.9.2.3-.5,1.6-.8,1.7-1.9,0-3.8-.1-6.2-.2"/>
      <path d="M119.01,159.2c-3.8-3.2-4.4-7-2.9-11,.5-1.3,2.3-3,3.2-2.8,1.4.2,3.2,1.7,3.6,3,.8,2.7,1.2,5.6.9,8.4-.1.9-2.8,1.6-4.8,2.4"/>
      <path d="M153.31,203.4c-2.1.8-3.8,1.3-5.6,1.8-.2-1.7-1.1-3.6-.6-5.1,1-2.7,2.4-5.4,4.3-7.5,1-1.1,3.4-1,5.2-1.4.1,1.4.7,2.8.3,4-.9,2.7-2.2,5.3-3.6,8.2"/>
      <path d="M97.01,129.2c-.3-1.2-.8-1.9-1-2.6-.3-1.8-.4-3.6-.5-5.4,2.3.7,4.8,1.1,7,2.1,1.1.6,2,2.1,2.5,3.4.7,2.1,1,4.3,1.5,6.4-2.7-.6-5.4-1.3-8.1-2.1-.5-.1-.9-.9-1.4-1.8"/>
      <path d="M152.81,148.4c-4.9-3.2-3.6-7.9-3.7-12.2-.1-.3.8-1.1,1.1-1,1.6.4,4.1.5,4.7,1.6,1.4,3,2.3,6.3,2.9,9.7,0,.4-3.1,1.4-5,1.9"/>
      <path d="M26.01,96.2c0,2.3.4,4.2-.1,5.9-.4,1.5-1.6,3.6-2.8,3.9-2.1.5-4.4,1-5.4-2.9-.7-3.3-1.2-6.4,1.4-8.1,1.5-1,4.5.4,6.9,1.2"/>
      <path d="M89.31,191.9c-1.5-1.4-3.1-2.4-3.7-3.8-.7-1.6-.5-3.5-.7-5.3,2.1,0,4.7-.7,6.2.3,2.3,1.5,4.2,4,5.6,6.5.8,1.4,1.3,4.1-2.2,3.5-1.7-.2-3.3-.6-5.2-1.2"/>
      <path d="M169.01,158.2c.3,3.1.5,6.3-.2,9.2-.3,1.2-2.6,2.5-4,2.5-.9.1-2.5-2-2.7-3.3-.1-2.3.2-4.8,1-7,.9-2.4,2.9-3.5,5.9-1.4"/>
      <path d="M91.81,161.9c-2.7-1.8-5.5-3.6-7.4-6.1-.7-1,0-3.8.9-5.1.4-.6,3.4-.3,4.6.6,1.9,1.4,4,3.3,4.9,5.4.9,2.1.8,4.8-3,5.2"/>
      <path d="M139.01,179.2c0-2.4-.1-4.2,0-6,.2-2.7,1.1-4.2,4.3-4.2,3.3.1,4.2,1.7,3.6,4.3-.5,2.6-1.1,5.3-2.4,7.5-.3.5-3.6-.7-5.5-1.6"/>
      <path d="M120.81,181.4c.1,2.1.7,4.5-.2,5.6-2.3,2.7-4.5.3-6.4-1.2-1.2-1-2.4-2.2-3.1-3.6-.6-1.1-1-3.6-.7-3.7,1.6-.6,3.7-1.5,5.2-1,1.8.6,3.3,2.4,5.2,3.9"/>
      <path d="M37.01,129.2c5.9.8,3.9,6.1,6,8.9-1.3.7-2.7,2.2-3.7,1.9-3.8-.9-6.1-3.3-6.4-7.6-.2-3.1,1-3.7,4.1-3.2"/>
      <path d="M156.01,109.2c4.1.8,7.4,6.5,6,9.5-.3.4-.7,1-1.1,1-1.5-.1-3.6.2-4.3-.6-1.8-2.5-3.1-5.4-4.6-8.1,1.2-.6,2.3-1.2,4-1.8"/>
      <path d="M163.01,76.2c1.7,1.8,2.9,3.6,4,5.5,2.4,3.7,0,5.3-2.9,4.2-2.5-1-4.4-3.9-5.9-6.4-.4-.7,1.4-2.9,2.3-4.2.1-.1,1.3.5,2.5.9"/>
      <path d="M132.81,125.9c-2.4.1-6,.6-6.4-.3-1.1-2.4-1.1-5.4-1-8.2,0-.4,2.8-1.5,3.7-1.1,1.6.8,3.1,2.4,3.8,4,.6,1.5.1,3.5-.1,5.6"/>
      <path d="M118.31,203.4c4.3-1.9,10.5,1.4,10.6,5.5.1.7-.8,2-1.4,2.2-4.9,1-10.2-2-9.2-7.7"/>
      <path d="M66.81,143.4c-1.1-5.1.7-8.2,3.8-7.1,2.6.9,3.7,2.9,3.5,5.9-.2,3.9-3,1.2-4.4,1.9-.7.3-1.8-.3-2.9-.7"/>
    </g>
  </g>
</svg>