<?xml version="1.0" encoding="UTF-8"?>
<svg id="Layer_2" xmlns="http://www.w3.org/2000/svg" viewBox="0 0 449.63 391.37">
  <g id="Layer_3">
    <g id="pipette_x5F_1">
      <path d="M329.53,7.68c4.32,1.52,8.48,2.52,12.12,4.47,7.8,4.23,15.1,9.26,22.92,13.35,6.88,3.56,11.93,9,17.44,14.05,3.52,3.07,7.48,1.92,10.26-2.91,3.03-5.16,2.72-7.61-1.6-12.61-2.66-3.12-4.63-14.14-2.34-16.38,1.99-2,4.79-3.62,7.48-4.26,7.06-1.61,14.15-.01,20.66,2.3,4.32,1.52,8.45,4.87,11.58,8.25,6.69,7.45,12.83,15.35,18.89,23.31,1.51,1.86,2.58,4.61,2.68,6.96.15,6.06-4.74,8.6-11.67,6.88-4.85-1.22-9.85-2.31-14.78-2.83-1.41-.15-3.35,1.43-4.68,2.64-3.17,3.08-6.07,6.33-9.11,9.57-1.66,1.6-2.87,2.97-.87,5.6,4.53,5.59,8.9,11.45,12.89,17.49,5.05,7.5,2.32,22.71-5.01,27.49-1.84,1.23-4.49,1.45-6.72,1.71-10.35,1.05-18.71,5.51-26.53,12.37-6.51,5.79-14.67,9.7-22.07,14.54-5.82,3.94-11.43,7.98-17.12,12.07-10.06,7.12-20.43,13.86-30.05,21.53-8.83,6.9-16.65,15.04-25.21,22.1-3.12,2.66-7.5,3.76-11.02,6.1-10.44,6.66-19.63,15.01-27.66,24.48-4.87,5.75-10.32,10.3-17.62,8.75-5.55-1.29-9.04-2.58-11.52,4.06-.88,2.25-3.9,3.93-6.37,5.16-2.04,1.14-5.25,2.58-6.94,1.76-6.49-3.24-10.79-.13-15.53,3.71-7.61,6.17-15.92,11.49-23.34,17.89-7.11,6.15-13.39,13.17-20.26,19.64-3.71,3.52-7.55,6.89-11.76,9.79-6.37,4.52-13.13,8.58-19.63,12.95-8.32,5.46-16.5,10.93-24.57,16.7-6.16,4.47-13.4,7.13-18.25,14.02-2.83,3.97-7.54,8.17-13.83,9.15-3.46.49-5.72,4.38-8.29,7.24-6.11,6.75-13.21,12.77-20.22,18.57-6.99,5.67-14.11,11.18-21.76,15.71-1.98,1.22-6.58-.97-9.31-2.75-1.07-.68-1.14-5.38-.01-6.68,5.35-6.27,11.34-11.89,16.88-17.93,5.93-6.35,12.93-12.15,16.98-19.55,2.87-5.03,6.95-7.95,10.55-11.76,5.04-5.37,9.96-10.9,14.92-16.21.88-.97,2.15-1.48,3.08-2.24,8.59-7.35,17.26-14.76,25.85-22.11,7.5-6.47,14.86-12.95,22.55-19.18,9.46-7.54,19.51-14.52,28.66-22.45,7.57-6.39,14.25-13.87,21.36-20.66,2.06-2.06,4.63-3.5,6.62-5.49,2.13-1.98,4.6-3.22,2.86-7.59-2.44-5.87,1.33-11.38,4.21-16.41,2.41-4.01,4.06-7.54.33-11.98-2.91-3.43-1.47-10.39,2.61-14.09,5.89-5.29,12.09-10.18,18.3-15.22,7.3-5.92,15.44-10.33,24.21-13.96,4.83-1.98,8.94-5.96,13.19-9.14,6.02-4.49,11.89-8.99,17.65-13.79,4.92-4.25,9.42-9.18,14.47-13.27,3.73-3.02,7.9-5.5,12.01-8.06,3.51-2.33,7.3-4.5,10.87-6.75,4.42-2.81,9.04-5.52,13.27-8.56,3.61-2.54,6.82-5.4,10.16-8.11,3.51-2.97,7.45-5.26,10.06-9.18,4.52-6.49,9.71-12.63,10.44-20.95.52-6.34-6.09-13.86-11.17-17.59-8.66-6.24-18.5-4.57-27.88-5.98-5.52-.93-8.94-4.21-12.11-7.95-2.28-2.66.19-8.65,4.53-11.4,5.49-3.55,11.48-5.06,18.11-3.22,6.37,1.66,13.01,2.71,19.39,4.23,1.94.49,3.59,1.73,5.76,2.67M329.87,130.08c5.42-4.27,10.71-8.55,16.32-12.58,6.4-4.8,13.01-9.52,19.67-14.01,5.29-3.64,11.13-6.44,15.89-10.57,7.11-6.15,13.13-13.34,21.74-17.49,1.06-.6,2.29-2.89,1.99-3.42-1.63-2.8-3.55-5.49-5.86-7.87-2.44-2.53-5.57-4.49-8.07-7.1-4.21-4.56-7.61-10.18-12.32-14.09-7.46-6.18-15.58-11.44-23.55-16.83-9.03-6.06-19.09-9.89-29.35-13.03-5.85-1.82-11.71-3.64-17.65-4.62-6.58-.97-13.87-3.3-18.65,4.3-.35.67-.9,1.11-1.38,1.63.74.43,1.43,1.29,2.21,1.3,2.64-.08,5.51-.99,8.01-.44,6.32,1.44,12.49,3.65,18.78,5.38,9.73,2.8,15.8,9.33,19.61,18.48,3.54,8.33-1.18,26.18-8.42,34.24-9.26,10.34-20.45,18.12-30.89,26.84-10.07,8.54-21.31,15.47-32.13,23.08-5.22,3.72-10.57,7.28-15.8,11-5.46,3.91-10.72,8.05-16.31,11.8-6.52,4.51-13.53,8.39-19.86,13.14-9.48,7.04-18.54,14.77-28.16,21.79-4.09,3.06-2.08,4.26.82,5.77,1.08.54,2.42.61,3.58,1.09,2.93,1.23,6.34,1.94,8.55,3.88,6.39,5.5,12.37,11.6,18.43,17.5,2.78,2.64,4.96,2.15,7.92-.24,9.32-7.56,18.91-14.94,28.49-22.19,4.09-3.06,8.98-4.96,13-8.09,6.68-5.42,12.75-11.75,19.62-16.93,7.17-5.29,15.06-9.37,22.35-14.51,7.37-5.2,14.24-11.02,21.43-17.24M115.29,278.25c-8.28,7.1-16.43,14.35-24.84,21.29-7.72,6.51-15.88,12.49-23.34,19.17-4.08,3.7-7.33,8.26-10.84,12.52-.5.66-.75,2.41-.37,2.88.82,1.01,2.53,2.33,3.4,2.13,3.88-1.09,7.83-2.1,11.09-4.1,9.72-5.95,19.08-12.51,28.55-18.77,9.86-6.58,19.8-13.21,29.66-19.79,2.97-1.89,6.4-3.38,9.07-5.81,5.36-4.98,10.27-10.51,15.44-15.73,2.23-2.33,4.42-4.87,6.91-6.88,4.03-3.13,8.41-5.66,12.3-8.81,6.15-5.11,11.93-10.7,18.14-15.73,2.95-2.39,3.28-4.21.33-6.58-2.29-1.88-4.96-3.58-7.02-5.64-3.99-3.97-7.37-2.9-11.01.55-6.01,5.77-12.41,11.21-18.55,16.97-4.88,4.47-9.37,9.4-14.44,13.63-7.69,6.23-15.84,12.06-24.49,18.69M399.22,106.05c3.01-.25,6.06-.15,9.02-.62,4.32-.54,10.44-6.66,9.72-10.71-.92-4.79-3.36-9.38-5.29-13.99.01-.14-1.64.04-2.32.47-5.1,3.23-10.2,6.47-15.05,10.01-6.64,4.99-13.02,10.3-19.67,15.43-5.42,4.27-10.85,8.53-16.6,12.55-5.38,3.85-11.33,6.99-16.52,11.07-7.12,5.51-13.81,11.71-20.8,17.37-4.12,3.34-8.75,6.19-13.14,9.36-2.07,1.42-4.14,2.84-6.22,4.4-3.85,2.87-7.71,5.73-11.5,8.68-4.72,3.7-9.34,7.7-14.25,11.16-5.07,3.59-10.77,6.41-15.84,10-8.44,5.94-16.6,12.55-25.11,18.42-3.22,2.22-4.67,6.62-9.36,7.2-1.3.15.91,9.69,3.41,10.88,2.04.92,5.11.75,7.4-.08,2.14-.7,4.04-2.63,5.45-4.55,6.72-9.18,15.5-16.29,24.01-23.58,4.38-3.81,10.02-6.06,14.73-9.62,9.59-7.39,18.82-15.38,28.42-22.9,9.99-7.84,20.11-15.53,30.15-23.15,3.17-2.44,6.53-4.65,9.87-6.72,4.47-2.59,9.61-4.18,13.43-7.41,10.84-9.17,21.61-18.29,36.04-23.67M202.1,236.86c2.52,3.75,5.72,3.73,8.77,1.13,2.81-2.41,5.37-5.13,7.38-8.04,1.35-1.99,2.79-5.61,1.86-6.91-3.53-4.99-7.67-9.62-12.14-13.71-4.87-4.42-10.73-7.52-15.44-12.07-3.16-3.1-6.01-1.7-7.28.23-3.19,4.64-5.65,9.86-7.76,15.04-.68,1.71-1.07,4.08,1.85,6.09,7.74,5.57,14.74,11.99,22.76,18.24M442.86,42.37c-.07-.72.18-1.69-.2-2.15-3.87-4.46-8.86-8.39-11.52-13.58-3.37-6.54-8.32-10.9-14.47-13.89-5.88-2.96-12.26-5.12-18.83-2.11-1.79.81-4.23,2.4-4.38,3.81-.31,2.31.98,4.87,1.87,7.23,1.49,4.07,3.92,4.68,7.2,1.89,2.9-2.61,9.52-3.34,12.99-1.13,2.54,1.55,5.05,3.37,7.17,5.51,1.87,1.83,4.65,4.47,4.38,6.36-.98,5.94,3.08,7.29,6.79,8.53,2.74,1,5.92,4.6,9.01-.48M35.36,355.91c-2.7,2.7-5.42,5.55-8.13,8.39-2.86,2.83-5.85,5.64-8.58,8.63-.88.97-1.25,2.43-1.8,3.65,1.65-.18,3.76.04,4.93-.91,7.05-6.23,13.83-12.63,20.63-19.17.87-.83.78-2.69,1.13-4.01-1.61-.24-3.39-.85-4.86-.44-1.03.32-1.71,2.03-3.32,3.85M46.23,347.1c1.62.1,3.8,1.04,4.66.35,1.8-1.59,3.18-3.86,4.12-6.04.18-.41-2.77-2.78-4.45-2.95-3.86-.48-6.75,4.7-4.32,8.65"/>
      <path d="M282.08,141.78c-3.21-3.32-4.56-6.73-4.13-10.81.07-.7.57-1.36.92-2.04.46.4,1.07.68,1.44,1.15,3.67,5.01,7.42,9.95,10.79,15.06.66,1.14-.06,3.26-.16,4.89-1.41-.79-2.99-1.31-4.09-2.35-1.74-1.68-3.02-3.73-4.79-5.9"/>
      <path d="M249.86,164.29c1.69,2.24,3.31,4.4,4.28,6.7.52,1.12-.36,2.74-.5,4.14-.99-.74-2.13-1.36-2.97-2.23-3.33-3.48-6.74-6.89-9.69-10.68-1.07-1.32-.74-3.77-.97-5.65,1.47.87,3.19,1.4,4.51,2.39,1.82,1.61,3.4,3.55,5.34,5.32"/>
      <path d="M257.87,142.09c4.15,4.49,8.06,9.3,11.57,14.44.68,1-.34,3.24-.52,4.92-1.07-.68-2.54-.91-3.15-1.82-3.31-5.04-6.47-10.2-9.56-15.29-.17-.37.85-1.33,1.66-2.24"/>
    </g>
  </g>
</svg>