<?xml version="1.0" encoding="UTF-8"?>
<svg id="Layer_2" xmlns="http://www.w3.org/2000/svg" viewBox="0 0 297.01 424.57">
  <g id="Layer_3">
    <g id="grotesque">
      <path d="M241.98,13.12c1.72.98,3.37,1.95,5.03,2.9,3.42,1.96,6.09,4.77,8.68,7.66,2.43,2.71,4.94,5.37,7.14,8.25,1.31,1.72,2.23,3.78,3.07,5.79.8,1.94,1.23,4.03,1.88,6.05.34,1.05-.07,1.71-.98,2.09-5.32,2.2-10.68,4.32-15.98,6.57-4.01,1.71-7.95,3.56-11.9,5.39-1.76.81-1.99,2.37-.39,3.8,3.46,3.07,7.46,3.83,11.85,2.71.88-.22,1.69-.78,2.51-1.21,2.84-1.49,5.68-2.98,8.5-4.5,2.89-1.56,5.2-.27,7.5,1.4,1.89,1.37,3.81,2.72,5.85,3.82,1.94,1.05,3.69-.01,5.27-1.13,2.17-1.55,4.27-3.21,6.45-4.74.82-.57,1.75-1.12,2.71-1.34,1.97-.45,4.18,1.61,4.18,3.65,0,1.57-.8,2.67-1.99,3.53-1.26.91-2.55,1.8-3.85,2.66-1.9,1.25-1.92,2.75.1,3.82,3.62,1.92,6.36,4.81,8.99,7.85.56.65.56,2.3.03,2.84-.51.52-2.64.68-3.43.13-1.87-1.32-3.73-2.68-5.7-3.82-2.43-1.41-4.93-2.71-7.48-3.87-4.18-1.91-7.78-4.74-11.64-7.15-3.37-2.1-4.28-1.98-7.4.5-2.99,2.37-6.46,3.42-10.14,3.94-2.5.35-4.97.33-7.46-.33-1.76-.46-3.22-1.44-4.36-2.62-2.65-2.75-5.65-3.71-9.28-2.68-.47.13-1.09.59-1.17.98-.08.43.26,1.16.65,1.42,3.46,2.28,6.99,4.45,10.45,6.73,2.65,1.74,5.26,3.55,7.8,5.43,2.29,1.69,4.54,3.45,6.68,5.31,2.31,2.01,3.84,4.65,5.31,7.31.29.53.56,1.14.63,1.73.25,2.11-.87,3.62-2.4,4.85-4.83,3.9-10.51,5.67-16.54,6.63-5.48.87-10.97,1.49-16.52,1.68-3.6.12-7.2.27-10.74-.51-4.81-1.06-9.69-1.89-14.37-3.37-5.1-1.61-9.59-4.5-13.52-8.21-4.42-4.18-8.83-8.37-13.39-12.39-1.67-1.47-3.68-2.66-5.72-3.58-2.71-1.22-5.41-.17-7.98.81-4.78,1.82-9.54,3.71-14.3,5.58-2.23.88-4.43,1.88-6.68,2.7-3.41,1.24-6.94,1.44-10.53,1.08-2.6-.26-5.22-.25-7.82-.53-1.06-.12-2.05-.79-3.11-1.04-4.03-.94-8.07-1.86-12.12-2.7-6.47-1.34-12.85-.36-19.13,1.14-3.87.93-7.62,2.39-11.4,3.68-4.29,1.46-8.5,3.18-12.18,5.84-2.98,2.15-5.74,4.64-8.41,7.18-3.51,3.33-6.45,7.16-8.96,11.31-1.83,3.03-3.73,6.03-5.59,9.05-.07.11-.07.25-.1.37-1.11,3.84-2.5,7.63-3.25,11.54-.5,2.61-.3,5.42-.06,8.11.48,5.43.96,10.88,1.91,16.24.54,3.06,1.94,5.99,3.07,8.93,1.52,3.93,4.11,7.11,7.2,9.93,2.23,2.04,4.3,4.26,6.62,6.2,3.2,2.67,6.48,5.26,9.87,7.67,2.69,1.91,5.55,3.6,8.43,5.2,1.98,1.1,4.09,1.98,6.22,2.76,2.45.89,3.69-.78,3.96-3.08.29-2.44.32-4.92.66-7.35.35-2.51.91-4.99,1.43-7.47.52-2.47,1.22-4.91,1.66-7.39.5-2.78.73-5.61,1.23-8.39.17-.94-.27-1.42-.81-1.8-3.57-2.53-7.1-5.13-10.81-7.43-2.34-1.45-4.13-3.37-5.89-5.37-2.64-2.99-4.1-6.58-4.8-10.47-.47-2.64-.64-5.3-.2-7.98.33-2.01.39-4.07.86-6.04.7-2.94,2.19-5.6,4.02-7.96,1.86-2.41,3.95-4.68,6.12-6.82,2.08-2.06,4.8-2.73,7.66-2.35,2.43.32,4.8,1.07,7.23,1.3,2.11.21,3.97.89,5.77,1.87.28.15.62.35.73.61.69,1.71,2.25,2.57,3.5,3.76,2.37,2.26,4.72,4.54,6.95,6.95,1.79,1.93,3.34,4.07,5.05,6.08,2.63,3.09,5.38,2.67,8.13-.07,3.03-3.02,6.07-6.09,9.85-8.21,2.59-1.46,5.4-2.35,8.33-2.97,5.12-1.07,10.18-2.44,15.31-3.48,5.64-1.15,11.37-1.6,17.14-1.56,4.32.03,8.64-.1,12.96-.15.24,0,.5,0,.73.05,3.89.94,7.77,1.9,11.66,2.83,2.92.7,5.89,1.24,8.75,2.12,2.16.66,4.18,1.78,6.28,2.64,1.13.47,2.28.89,3.45,1.23,3.71,1.1,7.13,2.81,10.44,4.77,6.63,3.93,12.59,8.76,18.23,13.97,3.37,3.11,6.54,6.42,9.09,10.32,2.46,3.77,4.29,7.82,6,11.94.98,2.37,2.12,4.7,2.81,7.15.84,2.97,1.35,6.04,1.9,9.08.52,2.84.91,5.7,1.35,8.55.56,3.65,1.23,7.28,1.6,10.95.18,1.77-.22,3.59-.4,5.39-.25,2.5-.53,5.01-.8,7.51-.11.99-.24,1.97-.37,2.96-.43,3.29-.85,6.58-1.29,9.88-.04.29-.09.73-.28.83-1.82.99-.84,2.27-.29,3.37.88,1.74,1.92,3.4,2.91,5.08,3.33,5.68,6.25,11.55,8.74,17.64.97,2.36,2.43,4.57,3.1,7,1.11,4.02,1.88,8.15,2.57,12.27.55,3.24.78,6.53,1.13,9.8.05.52.03,1.08-.1,1.59-.51,2.04-.94,4.1-1.63,6.07-1.83,5.21-3.71,10.42-6.83,15.05-3.21,4.76-6.21,9.69-9.69,14.24-2.82,3.7-6.12,7.05-9.39,10.37-3.38,3.45-6.93,6.74-10.5,9.99-2.52,2.29-5.16,4.46-7.83,6.57-.67.53-1.68.63-2.51.98-.36.15-.91.41-.94.67-.14,1.23-1.17,1.69-1.92,2.34-2.71,2.33-3.06,5.42-1.44,8.46,2.28,4.28,5.77,7.35,9.8,9.96,2.73,1.77,5.62,2.57,8.78,2,2.14-.38,4.22-1.12,6.33-1.65,3.15-.78,6.42-1.68,9.57-.72,3.21.98,6.71,1.87,8.43,5.36.92,1.87.73,3.86.75,5.85.03,3.62-.85,7.1-2.04,10.43-1.63,4.57-6.38,7.42-11.26,7.14-3.09-.18-5.16-2.1-7.61-3.43-1.73-.94-3.52-1.81-5.36-2.48-2.37-.86-4.82-1.5-7.24-2.23-2.47-.75-4.96-1.46-7.41-2.26-2.69-.88-4.62-2.8-6.4-4.89-.49-.57-.89-1.2-1.86-.72-.91.45-.83,1.08-.68,1.87.79,4.06,1.59,8.12,2.29,12.19.53,3.13,2.24,5.64,4.05,8.1,1.43,1.94,3.26,3.57,3.79,6.15,1.08,5.26-.5,9.49-4.53,12.88-3.31,2.78-7.06,3.76-11.18,2.26-2.72-.99-5.02-2.72-7.11-4.74-2.21-2.15-4.23-4.45-4.91-7.51-.51-2.3-.52-4.7-.86-7.04-.15-1.07-.37-2.22-.88-3.14-2.63-4.69-4.96-9.5-6.47-14.68-.53-1.81-2.5-2.65-4.08-1.8-3.74,2.01-7.49,4-11.19,6.08-1.39.78-2.66,1.78-3.97,2.71-.25.18-.49.47-.58.76-.5,1.77-.86,3.58-1.46,5.31-.65,1.84-1.24,3.71-2.66,5.22-1.4,1.49-2.97,2.49-4.95,2.79-2.5.38-5,.77-7.52.94-2.97.2-5.2-1.38-6.98-3.57-3.02-3.71-5.25-7.88-6-12.62-.63-3.99-.27-7.96,2.61-11.18,1.5-1.68,3.38-2.85,5.43-3.88,3.42-1.71,5.97-4.45,7.64-7.9,1.64-3.38,4.01-5.94,7.57-7.19,1.7-.6,3.52-.86,5.29-1.22,4.14-.84,7.6-2.95,10.51-5.89,1.68-1.69,2.66-3.87,3.43-6.17,1.18-3.54,2.53-7.03,3.86-10.51.63-1.66,1.31-3.31,2.14-4.88.44-.83,1.13-1.67,1.92-2.14,2.34-1.38,2.76-3.37,2.37-5.83-.43-2.73-.73-5.48-1.09-8.22-.02-.12-.03-.24-.07-.35-.56-1.97-.81-2.1-2.56-1.01-1.21.75-2.32,1.68-3.53,2.44-3.88,2.44-8.17,3.97-12.51,5.33-4.49,1.4-8.96,2.97-13.55,3.95-5.01,1.07-10.14,1.57-15.22,2.3-4.6.66-9.2,1.34-13.81,1.96-3.49.47-6.75-.14-9.94-1.76-2.66-1.35-7.02-1.01-9.79,1.91-3.79,3.99-8.57,6.23-13.72,7.82-3.92,1.21-7.85,2.41-11.77,3.63-2.8.87-5.6,1.76-8.38,2.69-3.22,1.07-5.3,3.3-6.67,6.38-1.49,3.37-3.05,6.72-4.83,9.94-1.37,2.48-3.54,4.33-5.9,5.93-3.04,2.06-6.37,2.91-10.02,3.09-2.78.13-4.76-1.04-6.57-2.89-1.41-1.44-2.8-2.94-4.39-4.16-.68-.52-1.89-.66-2.8-.53-2.07.28-4.08.59-6.19.08-3.75-.92-5.98-3.27-6.81-6.96-.53-2.38-2.02-3.63-4.24-4.39-3.37-1.16-6.09-3.21-7.5-6.57-.68-1.62-.44-3.32.58-4.84,1.81-2.7,3.33-5.67,5.47-8.07,3.36-3.78,7.29-7.09,11.96-9.13,3.38-1.48,7.03-2.31,10.56-3.46,6.13-1.99,12.52-1.96,18.83-2.53,6.27-.57,12.54-1.16,18.8-1.84.82-.09,1.6-.7,2.36-1.15.11-.07.08-.72-.07-.82-1-.67-1.99-1.44-3.11-1.86-4.61-1.74-9.41-1.36-14.2-1.07-1.34.08-2.72-.11-4.04-.34-2.18-.39-4.36-.82-6.49-1.41-4.72-1.3-9.68-2.11-13.4-5.76-2.26-2.22-4.47-4.57-4.06-8.05.27-2.26.91-4.5,1.58-6.68.69-2.25,2.32-3.61,4.68-4.11.8-.17,1.56-.55,2.31-.88,2.63-1.17,4.35-3.34,5.95-5.58,1.63-2.29,3.29-4.57,4.69-7,1.15-1.99,2.12-4.1,2.29-6.52.08-1.18.7-2.34,1.15-3.48.67-1.69,1.42-3.35,2.14-5.02.97-2.29,1.95-4.57,2.9-6.86.6-1.47,1.19-2.94,1.72-4.44.85-2.39,1.72-4.78,2.43-7.21.33-1.13.43-2.38.4-3.56-.01-.58-.41-1.4-.88-1.68-4.56-2.64-9.12-5.27-13.77-7.73-3.08-1.63-6.27-3.08-9.49-4.42-6-2.49-11.57-5.68-16.66-9.71-2.83-2.24-5.68-4.46-8.4-6.83-3.51-3.07-6.78-6.37-9.4-10.28-2.63-3.92-5.45-7.72-8-11.69-3.5-5.47-5.41-11.57-6.48-17.93-.88-5.19-1.36-10.42-.67-15.68.26-1.96.68-3.89,1-5.84.54-3.3.88-6.64,1.62-9.9.72-3.19,1.8-6.3,2.74-9.44.48-1.59.94-3.19,1.55-4.73.74-1.87,1.65-3.68,2.46-5.53.57-1.29,1.14-2.58,1.64-3.89,1.41-3.72,3.35-7.16,5.75-10.29,4.03-5.25,8.33-10.29,12.32-15.56,2.86-3.78,6.36-6.78,10.19-9.46,3.57-2.49,7.19-4.91,10.81-7.33,4.05-2.72,8.09-5.44,12.17-8.1,2.9-1.89,5.8-3.81,8.83-5.49,1.83-1.01,3.84-1.85,5.87-2.31,6.46-1.45,12.91-3.11,19.59-3.15,1.55,0,3.13.15,4.66.44,1.76.33,3.46.95,5.21,1.35,3.82.88,7.65,1.75,11.5,2.52,5.11,1.03,10.28.97,15.14-.88,3.07-1.17,5.89-3.09,8.65-4.93,2.97-1.98,5.73-4.29,8.61-6.41,2.84-2.09,5.84-3.9,9.25-4.93,3.06-.93,6.18-1.22,9.36-.75,4.83.71,9.46.31,13.61-2.56,4.22-2.92,8.41-5.88,12.64-8.79,2.41-1.66,4.85-3.27,7.3-4.86,1.8-1.17,3.62-2.3,5.47-3.38,4.39-2.58,9.24-3.64,14.24-4.2,3.26-.36,6.5-.29,9.74.25,3.25.8,6.47,1.66,9.76,2.54M71.13,134.75c0,.3.07.61.02.91-.51,3.31.07,6.52.82,9.72.52,2.23,1.7,4.05,3.56,5.37.82.58,1.82.91,2.72,1.4,3.62,1.96,7.21,3.95,10.28,6.75,3.42,3.12,6.99,6.08,10.24,9.36,2.96,2.99,5.64,6.26,8.3,9.53,1.54,1.89,3.11,3.87,4.11,6.06,2.32,5.08,3.27,10.58,4.23,16.04.97,5.49,1.75,11.01,2.57,16.52.44,3.01.93,6.03,1.14,9.07.23,3.34.17,6.69-.45,10.02-.42,2.27-.43,4.61-.82,6.88-.56,3.33-2.07,6.29-3.96,9.07-2.55,3.75-5.02,7.56-7.66,11.25-2.47,3.46-4.92,6.96-7.73,10.13-3.16,3.57-6.51,7.01-10.13,10.1-3.65,3.13-7.24,6.49-11.79,8.36-1.71.7-3.55,1.24-5.38,1.43-1.96.21-3.98-.04-5.96-.14-3.75-.19-7.5-.4-11.24-.61-3.02-.17-4.24.57-5.43,3.18-.74,1.63.32,4.14,2.29,5.22,4.08,2.24,8.46,3.5,12.97,4.51,3.55.79,7.07.43,10.62.36,2.18-.04,4.38-.33,6.53-.09,3.27.37,5.76,2.21,7.83,4.78,1.77,2.21,3.29,1.92,4.96.53,1.53-1.28,2.8-2.89,4.17-4.37,2.19-2.36,4.42-4.69,6.56-7.09,3.23-3.63,6.49-7.25,9.55-11.02,2.16-2.67,3.64-5.79,4.83-9.01.45-1.21.54-2.56.79-3.85.28-1.41.46-2.86.9-4.23.34-1.05,1.23-1.75,2.38-1.91,1.05-.15,1.41.69,1.85,1.4.15.25.32.49.51.72,1.16,1.44,1.63,3.02,1.15,4.87-.98,3.78-1.88,7.6-3.79,11.04-1.36,2.47-2.68,5.03-4.46,7.18-3.5,4.2-7.26,8.19-11.01,12.17-4.17,4.42-7.98,9.21-13,12.77-2.66,1.89-5.51,3.6-8.74,4.03-4.93.65-9.91.87-14.88,1.26-7.08.56-14.24.39-21.13,2.62-3.16,1.02-6.45,1.76-9.19,3.69-3.26,2.29-6.5,4.65-9.5,7.27-1.99,1.74-3.28,4.14-4.02,6.75-.27.95.05,1.45.99,1.66.85.19,1.69.41,2.51.67,1.11.35,2.16.13,2.94-.63,2.04-1.99,4.38-3.49,6.96-4.64,2.4-1.07,4.87-1.77,7.43-.6.86.39,2.17.58,1.93,2.06-.24,1.48-.85,2.81-2.1,3.68-1.85,1.28-3.78,2.45-5.64,3.72-1.38.95-3.06,1.71-3.62,3.41-.33,1.02-.47,2.38-.05,3.29.45.99,1.79,1.05,2.88.63,1.55-.6,3.28-.98,4.56-1.94,3.66-2.74,7.08-5.79,10.7-8.59,1.82-1.41,3.57-3.08,6.35-2.07,2.48.9,3.33,3.45,1.42,5.32-1.46,1.43-3.17,2.61-4.65,4.03-1.75,1.68-3.95,2.89-5.21,5.1-1.21,2.11-.11,4.81,2,5.46,2.07.63,3.76-.4,5.4-1.27,2.66-1.42,4.73-3.44,5.96-6.33,1.29-3.05,2.85-5.99,4.25-9,1.38-2.97,3.17-5.6,6.2-7.04,1.69-.8,3.54-1.26,5.32-1.85,6.01-1.96,12.02-3.88,18.02-5.86,4.22-1.4,8.2-3.2,11.63-6.17,5.66-4.88,10.71-10.32,15.52-16,1.94-2.29,3.88-4.65,5.38-7.22,1.73-2.96,2.85-6.28,4.48-9.31,1.82-3.39,3.67-3.87,6.98-2.6,1.7.65,2.27,2.33,1.54,3.81-1.24,2.52-2.53,5.01-3.87,7.48-3.14,5.79-7.04,11.04-11.36,15.99-.82.93-1.59,1.93-2.2,3-.31.55-.6,1.52.36,1.87.85.31,1.82.52,2.72.46,4.45-.28,8.88-.74,13.33-.98,6.5-.34,12.86-1.49,19.09-3.3,6.83-1.98,13.63-4.05,20.39-6.26,2.97-.97,5.68-2.58,7.61-5.15,1.28-1.7,2.38-3.53,3.59-5.28,2.18-3.17,2.7-6.87,3.29-10.52.49-3.02.6-6.11,1.18-9.11.48-2.47,1.43-4.84,2.14-7.26.15-.5.04-1.08.22-1.56.74-1.99,1.47-3.99,2.35-5.92.93-2.03,1.81-4.16,3.13-5.92,2.49-3.31,6.01-3.89,9.66-.43.91.87.76,1.8-.18,2.56-.97.78-1.87,1.69-2.62,2.68-1.02,1.34-1.96,2.76-2.75,4.25-1.75,3.27-3.89,6.38-4.58,10.11-.54,2.91-1,5.84-1.25,8.78-.33,3.73-.49,7.49-.59,11.23-.13,5.14-.18,10.29-.18,15.43,0,4.05,1,7.96,1.97,11.87.78,3.13.01,4.32-2.54,5.62-1.81.92-3.45,2.02-4.45,3.87-.33.61-.72,1.2-.95,1.84-.66,1.83-1.31,3.67-1.85,5.55-.39,1.36-.36,2.86-.91,4.13-.8,1.84-1.85,3.61-2.99,5.27-3.67,5.36-8.58,9-15.04,10.24-3.92.75-7.27,2.01-9.4,5.83-2.38,4.27-5.98,7.45-10.27,9.86-1.68.94-3.11,2.22-3.7,4.12-1.02,3.25-1.11,6.55-.22,9.85,1.2,4.47,2.99,6.34,7.23,6.62,2.65.18,4.34-1.37,4.47-4.06.04-.76-.05-1.53-.05-2.3,0-2.76.61-5.31,2.98-7.02,1.82-1.32,3.71-2.57,5.65-3.7,3.65-2.13,7.36-4.15,11.06-6.21,2.74-1.53,5.49-3.05,8.25-4.56,2.74-1.5,5.96-.02,6.84,2.27.62,1.62,1.01,3.33,1.47,5.02,1.64,6.08,3.45,12.09,6.72,17.55.47.78.88,1.64,1.11,2.52.92,3.47,1.75,6.96,2.63,10.44.41,1.63,1.11,3.01,2.5,4.13,2.38,1.91,5.87,1.17,7.23-1.29,1.08-1.94,1.24-4.07,1.24-6.26,0-2.62-1.63-4.22-3.23-5.93-1.23-1.32-2.76-2.59-3.39-4.19-.93-2.36-1.2-4.99-1.71-7.51-.91-4.49-1.67-9.01-2.73-13.46-.83-3.47-2.01-6.86-3.08-10.27-.26-.82.13-1.33.78-1.4,1.28-.14,2.64-.34,3.86-.06,4.05.96,7.06,3.62,9.75,6.61,3.46,3.86,7.44,6.85,12.54,8.16.72.19,1.5.15,2.22.35,1.38.4,2.77.82,4.1,1.36,1.87.76,3.77,1.5,5.52,2.49,2.13,1.2,4.09,2.71,6.19,3.97,2.41,1.45,3.93,1.66,5.36.19,1.28-1.32,2.28-3.14,2.81-4.92.72-2.42.9-5.01,1.28-7.54.4-2.65-.57-4.39-3.54-3.81-2.83.55-5.69,1-8.53,1.51-.91.17-1.82.62-2.71.58-2.22-.11-4.46-.28-6.64-.69-2.38-.45-4.89-.85-7-1.93-2.54-1.3-4.97-3.05-6.99-5.06-3.71-3.68-7.05-7.72-9.04-12.67-.83-2.06-1.14-4.03.21-6.07,2.11-3.22,4.25-6.36,7.9-8.04.66-.31,1.47-.41,2.02-.84,3.26-2.58,6.56-5.14,9.67-7.89,3.1-2.74,6.07-5.63,8.96-8.58,2.42-2.47,4.81-4.99,6.92-7.72,2.81-3.65,5.28-7.57,8.01-11.29,3.76-5.11,6.87-10.52,8.41-16.73.08-.32.28-.61.37-.92.59-2.18,1.65-4.37,1.63-6.56-.02-3.63-.72-7.25-1.16-10.87-.71-5.92-3.22-11.2-5.81-16.46-1.24-2.5-2.18-5.16-3.43-7.65-1.12-2.24-2.55-4.33-3.73-6.54-1.5-2.81-3.2-5.57-4.25-8.55-1.19-3.36-1.7-6.96-1.5-10.58.11-2.07.39-4.15,2.02-5.72.17-.16.37-.38.4-.59.23-2.25.42-4.5.64-6.75.19-1.97.39-3.94.6-5.9.21-1.97.55-3.94.61-5.91.12-3.36-.6-6.62-1.4-9.88-1.06-4.25-1.98-8.54-2.77-12.85-.81-4.45-2.76-8.42-4.86-12.33-1.64-3.05-3.33-6.08-5.23-8.98-1.28-1.95-2.77-3.84-4.5-5.38-3.57-3.17-7.29-6.16-11.08-9.07-2.73-2.09-5.66-3.92-8.89-5.21-2.01-.8-4.01-1.62-6.03-2.41-2.95-1.16-5.87-2.45-8.89-3.4-2.77-.88-5.67-1.34-8.5-2.06-3.39-.86-6.78-1.76-10.15-2.71-2.95-.83-5.95-.72-8.94-.57-5.29.27-10.6.53-15.86,1.13-4.42.5-8.89,1.11-13.14,2.35-6.06,1.78-12.37,2.87-18.03,5.88-2.67,1.42-5.28,2.98-7.87,4.55-2.56,1.55-4.98,3.33-7.61,4.73-1.02.54-2.48.57-3.67.39-2.82-.43-4.73-2.36-6.04-4.7-1.97-3.55-3.57-7.3-5.54-10.86-1.4-2.53-3.69-4.34-6.37-5.27-2.91-1-5.98-1.54-9-2.16-.74-.15-1.69,0-2.35.35-1.24.67-2.43,1.5-3.5,2.42-3.75,3.23-6.13,7.36-7.6,12.04-.31,1-.39,2.07-.64,3.35M218.53,99.82c2.15-.04,4.3,0,6.44-.12,6.37-.37,12.74-.63,19.05-1.82,3.23-.61,6.37-1.08,8.67-3.77.86-1,.98-1.98.02-2.86-6.32-5.87-13.07-11.16-20.51-15.54-3.9-2.29-7.82-4.54-11.67-6.91-1.88-1.16-3.91-2.33-4.56-4.67-.9-3.24-.73-3.95,2.39-5.42,2.9-1.37,6-2.33,8.97-3.56,5.53-2.3,11.02-4.69,16.54-7,4.66-1.96,9.33-3.9,14.03-5.77,2.71-1.08,3.58-3.24,2.1-5.73-.92-1.55-1.88-3.06-2.86-4.57-.41-.63-.88-1.21-1.35-1.79-2.04-2.54-4.41-4.72-7.09-6.56-2.95-2.02-5.94-3.98-9.46-4.84-2.04-.49-4.13-.87-6.21-1.11-2.35-.28-4.74-.54-7.1-.48-6.84.19-13.14,2.45-19.13,5.57-2.19,1.14-4.15,2.74-6.19,4.18-2.57,1.81-5.18,3.57-7.64,5.52-3.47,2.75-7.03,5.3-11.29,6.73-4.21,1.41-8.45,2.02-12.92,1.54-2.16-.23-4.44.04-6.6.43-3.11.56-5.78,2.19-8.27,4.1-3.25,2.5-6.42,5.13-9.77,7.49-2.43,1.72-4.97,3.43-7.7,4.55-5.27,2.16-10.87,2.06-16.41,1.3-3.15-.43-6.25-1.25-9.36-1.92-2.1-.45-4.18-1.03-6.3-1.38-2.53-.42-5.09-.72-7.65-.97-6.37-.63-12.34,1.25-18.25,3.19-4.35,1.42-8.53,3.3-12.29,5.99-1.85,1.32-3.76,2.56-5.6,3.9-3.14,2.28-6.24,4.61-9.38,6.9-2.54,1.85-5.17,3.58-7.64,5.52-5.6,4.4-10.35,9.66-14.62,15.3-3.41,4.51-6.59,9.22-9.54,14.04-2,3.26-3.75,6.76-5.02,10.37-1.21,3.43-1.65,7.13-2.42,10.71-.66,3.12-1.29,6.24-1.96,9.36-.82,3.81-1.64,7.61-2.51,11.41-.82,3.61-.41,7.2.24,10.76.48,2.61,1.04,5.24,1.87,7.75,1.03,3.09,2.19,6.18,3.65,9.09,2.54,5.06,6.21,9.39,9.65,13.86,3.92,5.1,8.58,9.38,13.92,12.88,4.85,3.18,9.79,6.26,14.87,9.05,3.29,1.8,6.9,3.02,10.39,4.45,1.71.7,3.48,1.24,5.18,1.94,3.09,1.28,6.18,2.5,9.51,3.09,4.26.75,8.47,1.74,12.72,2.54,2,.38,4.03.55,6.05.82,2.8.38,5.61.71,8.4,1.18,2.02.34,3.99.91,6.01,1.3,1.83.35,2.26-.08,2.11-2.03-.28-3.68-.58-7.36-.91-11.04-.1-1.16-.91-1.92-1.93-2.15-1.31-.3-2.69-.36-4.05-.42-3.23-.16-6.49-.16-9.6-1.13-2.47-.78-4.87-1.79-7.29-2.72-2.96-1.14-5.88-2.41-8.88-3.41-4.05-1.35-7.76-3.29-11.23-5.73-4.46-3.14-8.95-6.24-13.31-9.51-1.89-1.42-3.4-3.34-5.27-4.78-5.05-3.88-9.39-8.39-12.45-13.97-1.59-2.9-2.65-6.09-3.88-9.17-2.07-5.18-3.49-10.53-3.81-16.11-.22-3.94-.42-7.9-.31-11.84.08-2.77.57-5.55,1.12-8.27.32-1.57,1.05-3.08,1.72-4.56,1.05-2.3,1.99-4.71,3.38-6.8,3.07-4.65,6.38-9.14,9.6-13.7,2.62-3.72,6.07-6.58,9.7-9.23,1.87-1.36,3.76-2.7,5.7-3.97,1.83-1.2,3.63-2.55,5.63-3.38,3.7-1.54,7.56-2.7,11.33-4.08,6.29-2.31,12.6-4.47,19.43-4.45,3.56.01,7.13-.05,10.63.66,2.96.6,5.88,1.37,8.81,2.06,3.01.71,6.03,1.36,9.01,2.15,3.86,1.03,7.55.31,11.14-1.03,2.74-1.02,5.34-2.4,8.03-3.53,3.59-1.5,7.19-2.98,10.83-4.35,3.86-1.45,7.78-3.08,11.91-.93,1.86.97,3.78,1.92,5.41,3.21,2.37,1.86,4.54,3.97,6.73,6.04,2.05,1.94,3.98,4.02,6.04,5.97,2.8,2.66,5.77,5.06,9.68,5.96,1.27.29,2.5.79,3.73,1.25,3.05,1.15,6.06,2.41,9.14,3.47,1.47.51,3.09.59,4.6,1.02,1.95.56,3.91.75,6.07.52Z"/>
      <path d="M71.5,0c-.15.2-.43.36-.71.52-.04-.13-.09-.26-.13-.39.24-.05.48-.11.84-.13Z"/>
      <path d="M141.35,153.34c.16-.92.12-1.79.43-2.51,1-2.34,1.93-4.74,3.27-6.89.81-1.29,2.2-2.38,3.56-3.14,2.37-1.33,4.82-2.74,7.42-3.39,2.65-.66,5.51-.57,8.28-.55,2.73.01,5.49.17,8.19.58,2.87.43,5.65,1.36,7.96,3.21,4.95,3.95,9.95,7.86,14.73,12,3.8,3.29,6.36,7.4,6.37,12.66,0,3.12-.8,6-3.67,7.63-1.07.61-2.58.57-3.89.6-2.34.04-3.71-1.43-4.72-3.37-1.16-2.2-2.19-4.52-3.63-6.52-1.66-2.31-3.7-4.36-5.61-6.49-.73-.81-1.53-1.55-2.36-2.25-1.29-1.09-2.05-.85-2.45.75-1.21,4.82-3.97,8.64-7.59,11.9-1.31,1.18-2.63,2.36-4.06,3.4-1.9,1.38-4.09,1.27-6.3.9-3.84-.65-6.75-3.19-10.09-4.88-3.4-1.72-4.06-5-5.14-8.05-.61-1.74-1.23-3.55-.7-5.6Z"/>
      <path d="M208.49,34.16c4.09-3.56,8.72-6,13.84-7.32,4.86-1.26,9.8.05,13.08,4.4,1.23,1.63,2.46,3.17,2.57,5.44.21,4.42-3.62,8.78-7.55,8.68-1.39-.03-2.78.35-4.18.46-2.32.18-3.66-.81-4.54-2.91-.62-1.49-1.43-2.92-2.28-4.3-.48-.77-1.38-.86-2.22-.56-2.33.84-3.88,2.58-5.4,4.46-1.44,1.78-3.09,3.4-4.74,4.99-.84.81-1.97,1.07-3.06.47-1.19-.65-1.74-1.75-1.97-3.08-.48-2.73,1.19-4.53,2.67-6.4,1.17-1.48,2.46-2.86,3.77-4.33Z"/>
      <path d="M75.39,158.34c2.63,13.73,5.27,27.46,7.9,41.2.36,1.89,3.26,1.09,2.89-.8-2.63-13.73-5.27-27.46-7.9-41.2-.36-1.89-3.26-1.09-2.89.8h0Z"/>
      <path d="M82.35,170l2.43,15.37,2.89-.8c-1.94-9.79-3.88-19.59-5.83-29.38-.33-1.66-3-1.28-2.95.4.15,4.91.31,9.82.46,14.73l2.95-.4c-.55-3.57-1.1-7.14-1.65-10.71l-2.89.8c1.59,5.78,3.19,11.56,4.78,17.34.43,1.55,2.37,1.29,2.89,0,2.48-6.07,3.02-12.73,1.69-19.14-.36-1.73-2.86-1.22-2.95.4-.34,6.32-.69,12.65-1.03,18.97l2.95-.4c-.61-1.78-1.22-3.56-1.83-5.34l-2.89.8c2.41,6.79,3.32,13.94,2.7,21.12l2.95-.4c-1.01-5.39-2.02-10.79-3.03-16.18-.31-1.67-2.98-1.27-2.95.4.08,3.51.16,7.02.24,10.53.04,1.93,3.04,1.93,3,0-.08-3.51-.16-7.02-.24-10.53l-2.95.4c1.01,5.39,2.02,10.79,3.03,16.18.33,1.77,2.81,1.18,2.95-.4.64-7.41-.32-14.91-2.81-21.92-.64-1.8-3.52-1.04-2.89.8s1.22,3.56,1.83,5.34c.55,1.6,2.85,1.32,2.95-.4.34-6.32.69-12.65,1.03-18.97l-2.95.4c1.22,5.9.59,11.98-1.69,17.55h2.89c-1.59-5.78-3.19-11.56-4.78-17.34-.53-1.91-3.18-1.07-2.89.8.55,3.57,1.1,7.14,1.65,10.71.26,1.68,3,1.27,2.95-.4-.15-4.91-.31-9.82-.46-14.73l-2.95.4c1.94,9.79,3.88,19.59,5.83,29.38.38,1.91,3.19,1.08,2.89-.8-.81-5.12-1.62-10.24-2.43-15.37-.3-1.9-3.19-1.09-2.89.8h0Z"/>
      <path d="M81.89,162.28c.05,6.25.1,12.5.14,18.74h3c-.4-3.18-.8-6.36-1.2-9.54-.1-.8-.62-1.5-1.5-1.5-.73,0-1.6.69-1.5,1.5.4,3.18.8,6.36,1.2,9.54.1.8.62,1.5,1.5,1.5.81,0,1.51-.69,1.5-1.5-.05-6.25-.1-12.5-.14-18.74-.01-1.93-3.01-1.93-3,0h0Z"/>
    </g>
  </g>
</svg>