<?xml version="1.0" encoding="UTF-8"?>
<svg id="Layer_2" xmlns="http://www.w3.org/2000/svg" viewBox="0 0 254.92 210.86">
  <g id="Layer_3">
    <g id="flower">
      <path d="M94.63,74.27c7.74,4.37,15.47,8.09,22.66,12.66,9.27,5.88,19.63,10.28,26.66,19.38,3.21,4.15,6.03,8.34,7.35,13.46.2.76.89,1.38,1.36,2.07.57-.52,1.27-.95,1.68-1.57,3.13-4.72,6.01-9.63,9.39-14.16,1.92-2.57,4.64-4.54,6.99-6.79.54-.52,1.02-1.09,1.53-1.64-.87-.11-2.04-.64-2.56-.26-3.07,2.19-6.48,1.59-9.85,1.54-10.02-.17-16.17-6.14-21.69-13.69-4.47-6.12-5.64-12.73-5.26-19.96.56-11,11.85-21.23,22.89-20.66.24.01.49,0,.73.03,1.7.21,3.39.44,5.09.65-.27-1.69-.57-3.38-.81-5.07-1.16-8.19.71-16,3.07-23.73.69-2.27,1.13-4.68,2.18-6.77C169.76,2.34,176.68.36,184.15.03c8.44-.37,15.57,2.69,22.16,8.22,7.26,6.09,10.66,13.54,10.99,22.68.06,1.65-.87,3.31-1.12,4.99-.1.71.38,1.51.59,2.26.57-.18,1.18-.29,1.72-.54,7.44-3.52,14.89-2.95,21.58,1.31,10.02,6.38,14.5,16.38,14.84,27.89.39,13.25-9.32,22.79-21.6,23.4-3.82.19-7.65.5-11.42,1.11-1.9.31-3.75.42-2.32,4.02,3.44,8.73,2.08,17.33-3.8,24.85-4.07,5.21-12.74,6.72-20.21,4.83-9.71-2.46-13.89-9.79-17.55-17.93-.56-1.25-1.51-2.95-2.55-3.18-.94-.2-2.64,1.07-3.35,2.13-3.51,5.27-6.71,10.74-10.22,16-1.04,1.57-2.89,2.58-4.09,4.07-.59.72-.55,1.95-.79,2.95.67.08,1.36.28,2.02.22,5.09-.43,11.65,2.41,14.62,8.47,3.65,7.45,7.62,14.64,13.82,20.41,3.04,2.83,5.33,6.55,8.59,9.05,4.09,3.14,8.53,6.06,14,6.53,4.45.39,4.5,4.36,4.93,7.17,1.11,7.11-.23,14.06-3.61,20.43-2.66,5-7.64,7.08-12.75,8.46-11.77,3.19-21.19-1.44-29.59-9.3-2.8-2.62-6.25-4.62-8.7-7.51-7.26-8.56-12.18-18.16-12.6-29.77-.21-5.74-1.29-11.44-1.95-17.17-.12-1.04-.21-2.1-.18-3.15.03-.95.26-1.89.4-2.83-1.28.42-2.71.61-3.81,1.31-2.17,1.39-3.98,3.39-6.23,4.57-6.6,3.44-13.31,6.66-20.04,9.83-3.65,1.72-7.31,3.8-11.2,4.58-9.4,1.89-18.9,3.58-28.44,4.46-10.54.97-21.2,1.5-31.77,1.17-7.38-.23-14.69-2.37-22.07-3.39-5.49-.76-10.99-1.37-15.61-4.75-3.42-2.51-5.95-5.78-6.81-10.06-.16-.8.21-1.71.33-2.56,1.25.19,2.81,0,3.67.68,1.2.97,1.85,2.61,2.79,3.93,3.15,4.44,8.35,5.32,12.95,6.35,7.54,1.69,15.31,2.64,23.04,3.11,8.57.52,17.27.86,25.79,0,10.28-1.04,20.48-3.16,30.62-5.29,11.48-2.41,21.7-8.01,31.98-13.43,1.97-1.04,4.18-1.61,6.27-2.42.39-.15.75-.41,1.12-.61-.4-.31-.78-.84-1.21-.89-4.54-.6-9.37-.34-13.58-1.84-6.63-2.35-13.02-5.53-19.18-8.96-6.7-3.74-13.2-7.78-18.66-13.47-4.57-4.77-5.97-10.64-6.79-16.52-1.14-8.23.06-16.4,4.51-23.7,1.02-1.68,2.47-3.78,4.1-4.18,1.25-.31,3.2,1.61,4.59,2.82.9.79,1.35,2.09,2.25,3.42M142.58,55.94c-.12.44-.11.99-.38,1.3-4.49,5.32-5.65,11.39-3.47,17.87,2.23,6.63,6.72,11.9,12.77,15.1,7.55,3.98,15.54,2.75,23.14-.49,3.63-1.55,4.99-1.04,5.52,3.08.67,5.19,1.14,10.33,3.96,15.04,3.98,6.64,8.41,12.22,17.23,11.44,4.17-.37,7.88-.99,10.51-5.15,4.33-6.85,3.82-13.53.5-20.31-.89-1.81-2.49-3.78-4.25-4.54-2.94-1.26-3.53-3.49-3.7-6.03-.05-.78,1.32-2.42,1.61-2.33,2.01.65,3.89,1.71,5.86,2.52,2.18.9,4.41,2.38,6.62,2.38,4.47,0,8.96-.77,13.41-1.37,5.98-.81,10.82-3.41,14.13-8.76,4.05-6.54,3.1-13.28.68-19.77-1.5-4.01-3.84-7.99-8.07-10.04-2.02-.98-4.11-1.84-6.25-2.48-2.19-.66-4.74-1.84-6.69-1.28-4.28,1.23-8.32,3.35-12.38,5.26-3.27,1.54-6.39,3.4-9.66,4.94-3.56,1.68-3.05-1.27-2.36-2.7,1.32-2.73,3.01-5.39,5.04-7.65,4.4-4.89,5.56-10.61,4.39-16.71-1.36-7.15-6.52-11.65-12.32-15.39-6.29-4.07-13.19-5.35-20.27-2.81-2.77,1-6.24,2.96-7.28,5.38-3.52,8.21-6.04,16.94-5.14,26,.43,4.36,2.3,8.54,6.27,11.45,2.15,1.57,3.79,3.86,5.53,5.93,1.29,1.54.74,2.32-1.21,2.79-3.45.83-6.59-.24-8.41-2.73-5.35-7.32-19.68-5.55-25.35.05M210.33,184.61c-.83-4.14-3.54-1.28-4.44-.67-7.91,5.39-20.71,2.02-26.31-3.29-9.51-9.01-16.29-19.69-19.37-32.65-.71-2.98-3.02-5.56-4.51-8.36-.63-1.18-1.06-2.47-1.55-3.73-.14-.36-.2-.75-.3-1.13-.25.34-.69.68-.71,1.04-.55,8.12-1.64,16.26-1.44,24.36.27,10.93,4.61,20.61,12.39,28.31,5.51,5.46,11.3,10.56,18.79,13.75,5.22,2.22,9.84,1.89,14.96.97,4.92-.89,11.25-5.92,11.71-12.14.15-1.99.5-3.97.77-6.46M129.63,118.29c-3.13-1.51-6.29-2.97-9.39-4.53-7.59-3.81-14.31-8.79-19.43-15.61-4.6-6.13-9-12.43-13.28-18.79-1.47-2.18-1.49-1.34-2.2.38-1.8,4.41-1.11,8.68-.81,13.31.63,9.59,5.01,16.65,12.55,21.29,10.7,6.58,21.22,14.1,34.16,15.74,4.56.58,9.32,1.42,14.01-.72,2.98-1.36.58-3.43.33-3.56-5.07-2.63-10.26-5.04-15.94-7.52M169.65,159.17c4.29,7.1,8.51,14.37,15.62,19.02,5.07,3.31,10.89,3.5,16.71,1.92.51-.14.91-.67,1.37-1.02-.5-.34-.95-.78-1.49-1-6.81-2.84-11.4-8.28-16.4-13.39-6.23-6.35-11.56-13.3-15.25-21.3-1.67-3.62-3.79-5.99-7.4-7.16-1.1-.36-2.33-.31-3.5-.44.76.91,1.51,1.84,2.27,2.74.54.64,1.36,1.18,1.61,1.91,2.05,6.04,3.99,12.12,6.46,18.73M135.53,112.87c2.8,1.43,5.58,2.88,8.4,4.26.5.25,1.14.2,1.72.29-.21-.4-.33-.87-.63-1.2-3.7-4.07-6.99-8.68-11.26-12.02-5.67-4.44-12.02-8.05-18.24-11.72-5.21-3.08-10.67-5.75-16.02-8.6-.28-.15-.58-.25-.87-.37.13.31.21.66.41.92,2.86,3.85,5.55,7.85,8.64,11.5,7.25,8.58,16.96,13.31,27.85,16.93Z"/>
      <path d="M65.79,170.74c.25-.5.76-1,1.27-1.49.19.25.38.5.57.76-.53.25-1.05.5-1.84.74Z"/>
      <path d="M219.11,56.61c6.33,1.09,15.29,7.27,14.26,13.55-.54,3.32-2.08,4.91-4.94,5.34-2.84.44-6.12-2.31-6.56-5.01-1.14-7.01-1.96-7.36-8.43-4.52-6.57,2.88-12.32,6.86-16.08,12.97-3.32,5.38-3.77,11.33-.74,17.12.65,1.24,2.16,2.02,3.25,3.04.9.84,2.05,1.58,2.54,2.62.4.86,0,2.09-.06,3.16-.95-.04-1.97.12-2.84-.17-6.92-2.33-11.4-10.74-9.68-18.01.24-1.01.56-2.06.52-3.08-.16-4.29,1.51-7.89,4.16-11.06,5.87-7.02,14.18-10.72,21.66-15.53.7-.45,1.78-.31,2.95-.43Z"/>
      <path d="M155.58,71.7c-1.23-5.06-.75-5.31,3.92-4.8,7.62.84,15.32.7,20.6-5.99,3.7-4.7,6.18-10.21,7.31-16.2.41-2.15.91-4.28,1.29-6.43.51-2.91-1.98-3.33-3.32-2.56-3.97,2.28-6.41-.89-6.82-2.98-.44-2.25,1.14-5.97,3.07-7.4,4.7-3.48,7.7-2.19,9.48,3.67,3.04,10,3.16,19.71-2.4,29.27-3.51,6.03-7.43,11.34-14.09,13.6-6.11,2.07-12.52,2.21-19.04-.18Z"/>
    </g>
  </g>
</svg>